<?xml version="1.0" encoding="UTF-8"?><svg id="Layer_1" xmlns="http://www.w3.org/2000/svg" viewBox="0 0 191.21 168.25"><defs><style>.cls-1{fill:#f1f5f6;}.cls-1,.cls-2,.cls-3,.cls-4,.cls-5,.cls-6,.cls-7,.cls-8{stroke-width:0px;}.cls-2{fill:#079454;}.cls-3{fill:#efd14a;}.cls-4{fill:#319f52;}.cls-5{fill:#f7d14c;}.cls-6{fill:#0e9358;}.cls-7{fill:#fcf5f3;}.cls-8{fill:#fbd44a;}</style></defs><path class="cls-8" d="M91.32,125.33c-.08-.09-.17-.17-.25-.26-.23-.24-.46-.48-.69-.72-.08-.08-.16-.16-.25-.24-.24-.23-.48-.45-.72-.68-2.27-2.41-4.54-4.83-6.97-7.42,2.05-1.6,4.17-3.26,6.3-4.93.24-.15.48-.3.72-.46,2.63-2.06,5.26-4.11,7.9-6.17.29-.15.59-.3.88-.45.64,1.53,1.13,3.14,1.94,4.58,2.47,4.39,9.81,5.55,13.65,2.29,2.2-1.87,2.31-4.35,2.26-6.92-.05-.16-.11-.32-.16-.48-.19-.73-.38-1.46-.56-2.19l.2-1.2c-.23.06-.46.12-.69.18-.22-.42-.44-.85-.66-1.27.38-.06.76-.13,1.13-.19-.02-.12-.05-.25-.07-.37-.46-.02-.93-.04-1.39-.07-.32-.41-.63-.83-.95-1.24-.23-.22-.45-.44-.68-.65-.72-.54-1.45-1.08-2.17-1.62-.21-.1-.43-.21-.64-.31-.11-.03-.22-.06-.33-.1-.15-.06-.3-.12-.45-.18-.27-.04-.55-.08-.82-.11-.24-.07-.48-.14-.72-.21-.29-.03-.57-.06-.86-.1-.1,0-.2,0-.3,0-.53.02-1.07.04-1.6.06-.37-1.06-.74-2.12-1.12-3.19-.42-1.49-.84-2.97-1.25-4.46-.15-.34-.31-.69-.46-1.03-.55-1.36-1.09-2.71-1.64-4.07-.19-.37-.38-.74-.56-1.12-1.07-1.86-2.14-3.73-3.21-5.59-.12-.11-.23-.22-.35-.32-.38-.33-.76-.66-1.14-.99-.26-.22-.51-.44-.77-.65-2.91-2.66-5.87-5.36-9.97-5.82-1.62-.18-3.34.54-5.01.85-.22.07-.44.14-.66.22-2.33.76-4.66,1.52-6.99,2.28-.64.22-1.27.43-1.91.65-.42.14-.85.27-1.27.41-.21.08-.42.17-.63.25-3.57,1.3-7.19,2.49-10.7,3.94-1.62.67-2.56.5-3.25-1.11-.21-.48-.59-.87-.89-1.31,0,0-.01-.14-.01-.14,0,0-.14-.05-.14-.05-.88-1.14-1.78-2.26-2.61-3.43-.38-.53-.59-1.17-.88-1.77-.12-.21-.24-.41-.36-.62-.18-.42-.36-.84-.54-1.27.62-.5,1.26-.97,1.84-1.5,2.78-2.5,4.51-5.46,4.42-9.37-.07-3.15-1.24-5.83-2.97-8.35l.97-.8c1.64-.59,3.28-1.18,4.92-1.76.21-.08.42-.16.63-.24,1.49-.52,2.98-1.05,4.47-1.57.32-.11.64-.21.95-.32,1.6-.47,3.21-.94,4.81-1.4.11-.06.23-.11.34-.17.2-.03.4-.06.61-.08.19.02.38.03.57.05-.15,1.51-.52,3.03-.41,4.51.18,2.53.44,5.1,1.06,7.54.51,2,1.29,4.07,2.48,5.73,3.2,4.46,9.88,3.7,13.99.45,1.14-.9,2.07-2.06,3.07-3.13.87-.93,1.69-1.9,2.61-2.92,1.72,5.82,3.42,11.56,5.14,17.39,6.25,1.6,9.93-2.34,13.53-6.4.2.15.36.22.45.34,1.69,2.55,3.81,4.39,6.87,5.31,2.53.76,4.58.17,6.39-1.33,2.08-1.73,3.39-4.05,4.13-6.7.3-1.08.94-2.06,1.43-3.09.16.14.33.29.49.43,0,0,.02.03.02.03.29.45.59.9.88,1.35,2.7,5.18,5.39,10.35,8.09,15.53-.04.09-.08.19-.12.28-.63,1.92-1.27,3.83-1.91,5.74-.03.09-.18.12-.24.21-.43.66-.89,1.3-1.26,2-.84,1.59-1.51,3.28-3.18,4.27-.57.34-1.03.86-1.7,1.43-.16-.07-.63-.38-1.15-.51-.74-.19-1.52-.19-2.26-.37-1.86-.45-2.72.28-2.51,2.21.05.42.2.82.31,1.23-.08.09-.16.18-.24.27h-1.47c.94,2.16,1.73,4.07,2.62,5.93.18.37.69.63,1.1.83,1.55.78,3.21,1.36,4.65,2.3,1.93,1.26,3.8,2.58,3.15,5.54-.51,2.35-.49,4.77-1.23,7.14-.47,1.5-.93,3.01-1.58,4.43-.5,1.08-1.16,2.13-1.95,3.02-1,1.12-2.43,1.91-3.25,3.12-1.03,1.53-2.56,2.13-4.05,2.82-1.27.58-2.81.66-3.95,1.39-.97.62-1.42.71-1.94-.01-1.27.3-2.55.36-3.81.56-.73.11-1.43.45-2.15.67-.14.04-.29.03-.48.05.03-.32.05-.58.09-.97-1.23.23-2.36.46-3.48.64-.72.12-1.66.51-2.12.2-1.95-1.28-3.96-.52-5.95-.47-.06-.05-.12-.1-.18-.15-.18-.27-.32-.72-.56-.79-1.05-.3-2.5-.15-3.11-.8-1.02-1.09-2.01-.91-3.14-.79-.33-.25-.66-.5-.98-.75-.14-.14-.27-.29-.41-.43ZM107.77,93.36s0,.08,0,.12h.47s0-.08,0-.12h-.47Z"/><path class="cls-2" d="M130.31,57.75c-.49,1.03-1.13,2.01-1.43,3.09-.74,2.65-2.05,4.97-4.13,6.7-1.8,1.5-3.86,2.09-6.39,1.33-3.06-.92-5.18-2.76-6.87-5.31-.08-.12-.24-.19-.45-.34-3.6,4.07-7.28,8.01-13.53,6.4-1.72-5.83-3.42-11.57-5.14-17.39-.91,1.03-1.74,2-2.61,2.92-1,1.07-1.93,2.23-3.07,3.13-4.11,3.24-10.79,4-13.99-.45-1.19-1.66-1.97-3.73-2.48-5.73-.62-2.45-.88-5.01-1.06-7.54-.1-1.49.26-3.01.41-4.51.07-.08.15-.17.23-.25,1.02-.3,2.04-.6,3.05-.9.11-.03.22-.05.34-.08.73-.16,1.46-.32,2.19-.49.15-.04.3-.08.45-.12l.08.05s.08-.06.08-.06c.11-.02.21-.04.32-.06.11.03.22.07.33.1-.6,2.36-1.19,4.72-1.81,7.08-.81,3.09.24,6.32,2.68,8.12,1.53,1.13,3.89,1.19,5.11,0,1.72-1.69,3.54-3.32,4.95-5.24,1.74-2.36,3.19-4.96,4.6-7.54.74-1.35,1.12-2.89,1.66-4.34.11-.04.21-.09.32-.13.1,0,.2,0,.3-.01.83.05,1.67.1,2.5.16-.01.1.03.16.12.2.25.91.6,1.8.73,2.72.16,1.09.27,2.23.15,3.32-.19,1.76-.67,3.48-.89,5.23-.38,3.03.47,5.93,1.37,8.75.69,2.16,1.68,4.24,2.67,6.29.73,1.49,1.1,1.4,2.33.31,2.16-1.9,3.53-4.3,4.45-6.95.4-1.15.45-2.45.47-3.69.01-.85-.45-1.72-.42-2.57.04-1.29.22-2.59.5-3.84.44-1.95.53-4.07,2.17-5.58.18-.16.1-.61.13-.92,1.91,1.11,3.82,2.23,5.73,3.34-.05.06-.06.13-.02.2-.19,1.44-.32,2.89-.59,4.32-.36,1.9-.78,3.79-1.26,5.66-.59,2.34-.68,4.54,1.21,6.4.6.59,1.14,1.25,1.76,1.82,1.99,1.82,4.08,1.43,5.26-1,.59-1.21,1.12-2.46,1.61-3.72.61-1.54,1.16-3.1,1.74-4.65.78.92,1.55,1.84,2.33,2.76.1.14.21.29.31.43.21.28.42.57.63.85.11.15.21.3.32.45.17.26.35.53.52.79,0,.16,0,.33.01.49Z"/><path class="cls-2" d="M125.77,91.58c-.11-.41-.26-.81-.31-1.23-.21-1.93.65-2.67,2.51-2.21.74.18,1.52.18,2.26.37.52.13.99.44,1.15.51.67-.57,1.13-1.1,1.7-1.43,1.67-.99,2.34-2.68,3.18-4.27.37-.69.83-1.34,1.26-2,.05-.08.21-.12.24-.21.64-1.91,1.28-3.83,1.91-5.74.13.12.26.24.39.35.08.22.16.45.24.67.1.24.21.48.31.72.34.92.68,1.85,1.02,2.77.08.24.17.49.25.73.09.28.18.57.26.85.04.11.08.21.13.32.07.24.15.47.22.71,0,0-.04.12-.04.12l.12.08s.02.05.02.05c.21.64.42,1.27.62,1.91.04.21.07.43.11.64.04.21.07.42.11.63-1.73,3.44-2.74,7.34-6.14,9.75-.19.13-.21.74-.08,1.03.43.98.96,1.92,1.45,2.87,2.1,4.05,3.52,8.21,2.3,12.86-.51,1.96-.91,3.94-1.35,5.92l.07.07s0,.02,0,.02c-.1.21-.2.42-.3.64-.11.19-.22.37-.33.56-.1.13-.19.26-.29.39-.12.16-.25.32-.37.48-.11.15-.22.3-.33.45,0,0,.02-.03.02-.03-.19.23-.38.47-.57.7-.11.13-.21.26-.32.4-.14.18-.28.35-.42.53-.19.22-.37.44-.56.67-.09.11-.19.21-.28.32-.13.17-.27.33-.4.5-.31.36-.62.71-.93,1.07,0,0,0,0,0,0-.1.11-.2.23-.3.34-.11.11-.21.22-.32.34-.29.31-.58.63-.87.94-.1.02-.15.08-.13.18-.13.14-.27.27-.4.41-1.99,2-3.97,4-5.96,6-.15.12-.31.25-.46.37,0,0-.08-.02-.08-.02,0,0-.05.07-.05.07-.07-.06-.13-.06-.2,0-.15.1-.31.19-.46.29,0,0,0,0,0,0-.11.11-.22.21-.33.32,0,0,.01,0,.01,0-1.41.32-2.82.66-4.24.96-6.41,1.38-12.85,1.59-19.29.24-.17-.09-.35-.17-.52-.26-.14-.14-.28-.28-.41-.41-.5-.5-1-1-1.5-1.5-.37-.39-.73-.79-1.1-1.18-1.75-1.89-3.5-3.77-5.24-5.66,1.14-.12,2.13-.3,3.14.79.61.66,2.06.5,3.11.8.24.07.38.52.56.79-.09.17-.17.33-.26.5.06.03.12.06.18.1.09-.15.18-.3.27-.45,1.99-.05,4-.81,5.95.47.46.31,1.41-.08,2.12-.2,1.13-.19,2.25-.41,3.48-.64-.03.38-.06.65-.09.97.2-.02.35-.01.48-.05.72-.22,1.42-.55,2.15-.67,1.26-.2,2.54-.26,3.81-.56.52.73.97.63,1.94.01,1.15-.73,2.69-.81,3.95-1.39,1.49-.69,3.01-1.28,4.05-2.82.82-1.22,2.26-2,3.25-3.12.79-.89,1.46-1.94,1.95-3.02.65-1.42,1.11-2.93,1.58-4.43.75-2.38.72-4.8,1.23-7.14.65-2.96-1.22-4.28-3.15-5.54-1.44-.94-3.1-1.52-4.65-2.3-.41-.21-.92-.46-1.1-.83-.89-1.86-1.68-3.77-2.62-5.93.79,0,1.13,0,1.47,0,.12.02.24.03.35.05-.04-.11-.07-.21-.11-.32Z"/><path class="cls-8" d="M110.75,39.59c-.04.31.04.76-.13.92-1.64,1.51-1.73,3.62-2.17,5.58-.29,1.26-.47,2.56-.5,3.84-.02.85.43,1.72.42,2.57-.02,1.24-.07,2.54-.47,3.69-.92,2.65-2.28,5.04-4.45,6.95-1.23,1.08-1.6,1.18-2.33-.31-1-2.05-1.98-4.13-2.67-6.29-.9-2.82-1.76-5.72-1.37-8.75.22-1.75.7-3.48.89-5.23.12-1.09,0-2.22-.15-3.32-.13-.92-.48-1.81-.73-2.72.3-.06.6-.11.89-.17.85.06,1.71.11,2.56.17.21.03.41.06.62.08.96.18,1.93.35,2.89.53.21.05.41.09.62.14.22.05.45.1.67.16.2.07.41.15.61.22,1.5.43,3,.84,4.48,1.3.16.05.22.42.33.64Z"/><path class="cls-8" d="M93.83,36.31c-.54,1.45-.92,3-1.66,4.34-1.41,2.58-2.86,5.18-4.6,7.54-1.41,1.92-3.24,3.55-4.95,5.24-1.22,1.2-3.58,1.14-5.11,0-2.44-1.8-3.49-5.03-2.68-8.12.62-2.36,1.2-4.72,1.81-7.08.22-.07.44-.14.65-.2.13-.06.25-.11.38-.17,1.35-.2,2.7-.4,4.05-.6.21-.04.41-.09.62-.13.43-.04.86-.08,1.29-.13.32-.05.63-.11.95-.16.75-.07,1.49-.14,2.24-.2.31-.04.63-.08.94-.13,1.28-.06,2.56-.11,3.84-.17.63-.05,1.26-.1,1.9-.16.11.04.23.07.34.11Z"/><path class="cls-8" d="M126.18,51.97c-.58,1.55-1.13,3.11-1.74,4.65-.5,1.25-1.03,2.5-1.61,3.72-1.17,2.43-3.27,2.82-5.26,1-.62-.57-1.16-1.23-1.76-1.82-1.89-1.86-1.8-4.07-1.21-6.4.47-1.87.9-3.76,1.26-5.66.27-1.43.4-2.88.59-4.32,0,0,.14.02.14.02l.14-.04c2.84,2.17,5.69,4.32,7.92,7.16.22.24.44.49.66.73.19.19.37.39.56.58.12.11.24.21.36.32,0,0-.05.07-.05.07Z"/><path class="cls-8" d="M139.61,118.35c.45-1.97.84-3.96,1.35-5.92,1.22-4.66-.2-8.81-2.3-12.86-.49-.95-1.02-1.89-1.45-2.87-.13-.29-.1-.9.08-1.03,3.4-2.41,4.41-6.3,6.14-9.75,0,0,.14.02.14.02.06.22.12.43.18.65.12.36.23.71.35,1.07.17.7.38,1.4.51,2.11.34,1.77.71,3.53.97,5.32.69,4.84,1.13,9.68-.85,14.35-.84,1.98-1.86,3.88-2.8,5.82-.12.21-.24.41-.36.62-.42.64-.84,1.28-1.26,1.92-.24.19-.47.37-.71.56Z"/><path class="cls-8" d="M41.96,56.81c-.23-.38-.46-.75-.69-1.13-.1-.13-.2-.26-.29-.39-.4-.68-.77-1.38-1.21-2.03-.61-.88-.62-1.41.51-1.92,2.92-1.34,5.77-2.82,8.65-4.24.33-.07.66-.15.99-.22.79,1.96,1.64,3.89,2.36,5.88.3.82.53,1.75.46,2.6-.31,3.84-2.82,6.57-6.64,7.41-.2-.19-.4-.37-.6-.56-.98-1.54-1.96-3.07-2.94-4.61-.19-.26-.38-.52-.57-.78Z"/><path class="cls-8" d="M102.17,100.29c.62-1.51,1.24-3.02,1.86-4.53,5.02-1.38,7.54,1.83,8.23,4.9.51,2.26.46,4.5-1.1,6.3-1.79,2.07-5.17,2.42-7.53.66-1.66-1.24-2.96-2.96-4.42-4.47.87-.83,1.74-1.66,2.61-2.49.12-.12.24-.24.35-.37Z"/><path class="cls-8" d="M101.5,135.53c6.45,1.35,12.88,1.15,19.29-.24,1.42-.31,2.83-.64,4.24-.96-.83.86-1.59,1.79-2.5,2.55-3.59,3.02-7.22,5.99-11.01,9.12-3.43-3.59-6.73-7.03-10.02-10.47Z"/><path class="cls-4" d="M99.21,103.15c1.46,1.51,2.76,3.23,4.42,4.47,2.36,1.76,5.74,1.41,7.53-.66,1.56-1.81,1.61-4.04,1.1-6.3-.69-3.07-3.21-6.29-8.23-4.9-.07-.6-.14-1.19-.21-1.79.18-.02.35-.04.53-.07.53-.02,1.07-.04,1.6-.06,0,0,.15.05.15.05l.15-.04c.29.03.57.06.86.1.24.07.48.14.72.21.27.04.55.08.82.11.15.06.3.12.45.18.11.03.22.06.33.1.21.1.43.21.64.31.72.54,1.45,1.08,2.17,1.62.23.22.45.44.68.65.32.41.63.83.95,1.24.11.21.22.42.33.63.22.42.44.85.66,1.27.16.34.33.68.49,1.02.19.73.38,1.46.56,2.19.05.16.11.32.16.48.04,2.57-.06,5.05-2.26,6.92-3.84,3.26-11.17,2.1-13.65-2.29-.81-1.43-1.3-3.05-1.94-4.58.13-.18.26-.36.39-.54.2-.1.39-.21.59-.31ZM100.9,106.89c-.1-.05-.19-.1-.29-.15.04.11.08.22.11.33,1.87,3.84,4.94,5.44,9.12,4.62,1.73-.34,3.49-1.04,4.31-2.67,1.12-2.22.97-4.61-.15-7.34-.05.78-.05,1.12-.1,1.46-.65,3.8-2.64,6.56-6.88,6.37-2.45-.11-4.32-1.19-6.13-2.61Z"/><path class="cls-6" d="M46.08,62.75c3.82-.84,6.33-3.57,6.64-7.41.07-.85-.16-1.78-.46-2.6-.72-1.98-1.56-3.92-2.36-5.87.04-.09.08-.18.12-.28,0,0-.05.01-.05.01.32-.12.65-.23.97-.35,0,0,.11.07.11.07h.13s.1.03.1.03c1.73,2.52,2.9,5.2,2.97,8.35.09,3.91-1.64,6.87-4.42,9.37-.59.53-1.22,1-1.84,1.5-.17-.11-.34-.22-.52-.33-.38-.55-.75-1.11-1.13-1.66,0-.09-.05-.16-.11-.22-.06-.2-.12-.4-.18-.6Z"/><path class="cls-5" d="M104.34,93.9c-.18.02-.35.04-.53.07-.2-1.08-.39-2.17-.59-3.25.37,1.06.74,2.12,1.12,3.19Z"/><path class="cls-7" d="M69.3,70.66c.64-.22,1.27-.43,1.91-.65-.48.68-.99,1.27-1.91.65Z"/><path class="cls-7" d="M93.49,36.2c-.63.05-1.26.1-1.9.16.63-.05,1.26-.1,1.9-.16Z"/><path class="cls-1" d="M143.22,84.66c-.21-.64-.42-1.27-.62-1.91.21.64.42,1.27.62,1.91Z"/><path class="cls-7" d="M46.37,63.58c.38.55.75,1.11,1.13,1.66-.95-.16-1.25-.77-1.13-1.66Z"/><path class="cls-7" d="M97.95,132.17c.37.39.73.79,1.1,1.18-.37-.39-.73-.79-1.1-1.18Z"/><path class="cls-7" d="M51.3,46.36s-.1-.04-.1-.04c-.02-.06-.05-.13-.08-.19.38-.19.77-.38,1.16-.57-.32.27-.65.54-.97.81Z"/><path class="cls-7" d="M98.62,103.46c-.13.18-.26.36-.39.54-.29.15-.59.3-.88.45.42-.33.85-.66,1.27-1Z"/><path class="cls-7" d="M134.58,125.11c.31-.36.62-.71.93-1.07.13.74-.1,1.16-.93,1.07Z"/><path class="cls-1" d="M131.7,59.56c-.29-.45-.59-.9-.88-1.35.29.45.59.9.88,1.35Z"/><path class="cls-7" d="M89.45,110.63c-.24.15-.48.3-.72.46.09-.27.18-.53.28-.8.15.11.29.23.44.34Z"/><path class="cls-7" d="M46.08,62.75c.06.2.12.4.18.6-.18-.01-.35-.02-.53-.04h0c-.08-.37-.17-.75-.25-1.12.2.18.4.37.6.55Z"/><path class="cls-7" d="M87.76,36.52c-.31.04-.63.09-.94.13.31-.04.63-.09.94-.13Z"/><path class="cls-7" d="M63.25,41.66c-.32.11-.64.21-.95.32.32-.11.64-.21.95-.32Z"/><path class="cls-7" d="M97.97,36.35c-.3.06-.6.11-.89.17-.09-.04-.13-.11-.12-.2.34.01.67.02,1.01.03Z"/><path class="cls-7" d="M133.1,126.72c.29-.31.58-.63.87-.94-.29.31-.58.63-.87.94Z"/><path class="cls-7" d="M84.58,36.85c-.32.05-.63.11-.95.16.32-.05.63-.11.95-.16Z"/><path class="cls-7" d="M139.61,118.35c.24-.19.47-.37.71-.56-.21.21-.43.42-.64.63,0,0-.07-.07-.07-.07Z"/><path class="cls-7" d="M101.5,85.23c.16.34.31.69.46,1.03-.16-.34-.31-.69-.46-1.03Z"/><path class="cls-1" d="M130.31,57.75c0-.16,0-.33-.01-.49.17.31.34.61.5.92-.16-.14-.33-.29-.49-.43Z"/><path class="cls-7" d="M99.3,80.05c.19.37.38.74.57,1.12-.19-.37-.38-.74-.57-1.12Z"/><path class="cls-7" d="M50.03,46.59c-.04.09-.08.18-.12.28-.33.07-.66.15-.99.22.37-.17.74-.33,1.11-.5Z"/><path class="cls-1" d="M140.05,75.73c-.13-.12-.26-.24-.39-.35.04-.1.08-.19.12-.29.09.21.18.43.26.64Z"/><path class="cls-7" d="M93.84,72.49c.26.22.51.44.77.65-.26-.22-.51-.44-.77-.65Z"/><path class="cls-7" d="M105.94,37.64c-.2-.07-.41-.15-.61-.22.2.07.41.15.61.22Z"/><path class="cls-7" d="M104.66,37.27c-.21-.05-.41-.09-.62-.14.21.05.41.09.62.14Z"/><path class="cls-7" d="M67.4,71.32c.21-.08.42-.17.63-.25-.21.08-.42.17-.63.25Z"/><path class="cls-7" d="M82.34,37.14c-.21.04-.41.09-.62.13.21-.04.41-.09.62-.13Z"/><path class="cls-7" d="M41.96,56.81c.19.26.38.52.57.78-.19-.26-.38-.52-.57-.78Z"/><path class="cls-7" d="M90.37,124.36c.23.24.46.48.69.72-.23-.24-.46-.48-.69-.72Z"/><path class="cls-7" d="M89.41,123.43c.24.23.48.45.72.68-.24-.23-.48-.45-.72-.68Z"/><path class="cls-7" d="M125.32,51c-.22-.24-.44-.49-.66-.73.22.24.44.49.66.73Z"/><path class="cls-7" d="M101.16,36.6c-.21-.03-.41-.06-.62-.08.21.03.41.06.62.08Z"/><path class="cls-7" d="M141.58,115.87c.12-.21.24-.41.36-.62-.12.21-.24.41-.36.62Z"/><path class="cls-1" d="M143.58,85.94s-.14-.02-.14-.02c-.04-.21-.07-.42-.11-.63.08.22.16.43.25.65Z"/><path class="cls-7" d="M57.82,43.55c-.21.08-.42.16-.63.24.21-.08.42-.16.63-.24Z"/><path class="cls-7" d="M78.2,67.73c.22-.07.44-.14.66-.22-.22.07-.44.14-.66.22Z"/><path class="cls-7" d="M52.01,73.95c.09.04.22.06.25.12.03.06-.06.17-.1.26-.09-.04-.23-.06-.25-.12-.02-.06.06-.17.1-.26Z"/><path class="cls-7" d="M48.55,66.84c.12.21.24.41.36.62-.12-.21-.24-.41-.36-.62Z"/><path class="cls-7" d="M137.49,121.62c.19-.23.38-.47.57-.7-.19.23-.38.47-.57.7Z"/><path class="cls-1" d="M144.1,87.66c-.12-.36-.23-.71-.35-1.07.12.36.23.71.35,1.07Z"/><path class="cls-7" d="M50.95,46.25c-.32.12-.65.23-.97.35.29-.14.59-.28.88-.42,0,0,.08.07.08.07Z"/><path class="cls-1" d="M141.89,80.62c-.08-.24-.17-.49-.25-.73.08.24.17.49.25.73Z"/><path class="cls-1" d="M142.28,81.79c-.04-.11-.08-.21-.13-.32.04.11.08.21.13.32Z"/><path class="cls-7" d="M69.79,39.8c-.08.08-.15.17-.23.25-.19-.02-.38-.03-.57-.05.26-.07.53-.13.79-.2Z"/><path class="cls-1" d="M140.61,77.12c-.1-.24-.21-.48-.31-.72.1.24.21.48.31.72Z"/><path class="cls-7" d="M91.32,125.33c.14.14.27.29.41.43-.14-.14-.27-.29-.41-.43Z"/><path class="cls-7" d="M136.76,122.55l.42-.53c-.14.18-.28.35-.42.53Z"/><path class="cls-7" d="M139.37,119.07c.1-.21.2-.42.3-.64-.1.21-.2.42-.3.64Z"/><path class="cls-7" d="M45.73,63.32s-.05.09-.07.13c.02-.04.05-.09.07-.13h0Z"/><path class="cls-1" d="M129.77,56.47c-.11-.15-.21-.3-.32-.45.11.15.21.3.32.45Z"/><path class="cls-7" d="M40.98,55.28c.1.13.2.26.29.39-.1-.13-.2-.26-.29-.39Z"/><path class="cls-1" d="M128.82,55.16c-.1-.14-.21-.29-.31-.43.1.14.21.29.31.43Z"/><path class="cls-7" d="M52.4,72.66l.14.05s.01.14.01.14c-.06-.05-.11-.11-.15-.18Z"/><path class="cls-7" d="M95.74,74.13c.12.11.23.22.35.32-.12-.11-.23-.22-.35-.32Z"/><path class="cls-7" d="M126.24,51.9c-.12-.11-.24-.21-.36-.32.12.11.24.21.36.32Z"/><path class="cls-8" d="M50.95,46.25s-.09-.07-.08-.07c.09,0,.17-.02.25-.06.03.06.05.13.08.19,0,0-.13,0-.13,0l-.11-.07Z"/><path class="cls-1" d="M142.58,82.7l-.12-.08s.04-.12.04-.12c.05.06.08.12.08.2Z"/><path class="cls-7" d="M116.74,43.11s-.14.04-.14.04c0,0-.14-.02-.14-.02-.04-.07-.03-.14.02-.2.09.06.17.12.26.18Z"/><path class="cls-7" d="M68.39,40.09c-.11.06-.23.11-.34.17.11-.06.23-.11.34-.17Z"/><path class="cls-1" d="M73.19,38.82c-.11.03-.22.05-.34.08.11-.03.22-.05.34-.08Z"/><path class="cls-1" d="M75.83,38.21c-.15.04-.3.08-.45.12.15-.04.3-.08.45-.12Z"/><path class="cls-7" d="M77.67,37.87c-.13.06-.25.11-.38.17.13-.06.25-.11.38-.17Z"/><path class="cls-1" d="M76.31,38.14c-.11.02-.21.04-.32.06.11-.02.21-.04.32-.06Z"/><path class="cls-7" d="M100.56,134.86c.14.14.28.28.41.41-.14-.14-.28-.28-.41-.41Z"/><path class="cls-7" d="M125.73,134.07c-.11.1-.21.2-.32.3-.02-.12-.05-.24-.07-.36,0,0,0,0,0,0,.11,0,.23.02.34.03l.04.03Z"/><path class="cls-8" d="M125.35,134.01c.02.12.05.24.07.36-.13-.01-.26-.02-.39-.04.11-.11.22-.21.33-.32Z"/><path class="cls-7" d="M125.81,133.73c.07-.06.13-.06.2,0-.09.12-.19.23-.28.35,0,0-.04-.03-.04-.03.04-.11.08-.21.12-.32Z"/><path class="cls-7" d="M126.14,133.68c.15-.12.31-.25.46-.37-.15.12-.31.25-.46.37Z"/><path class="cls-7" d="M132.57,127.31c.13-.14.27-.27.4-.41-.13.14-.27.27-.4.41Z"/><path class="cls-7" d="M134.29,125.44c.1-.11.2-.23.3-.34-.1.11-.2.23-.3.34Z"/><path class="cls-7" d="M135.91,123.53c.09-.11.19-.21.28-.32-.09.11-.19.21-.28.32Z"/><path class="cls-7" d="M138.04,120.95c.11-.15.22-.3.33-.45-.11.15-.22.3-.33.45Z"/><path class="cls-7" d="M138.75,120.02c.1-.13.19-.26.29-.39-.1.13-.19.26-.29.39Z"/><path class="cls-7" d="M94.46,36.16h-.3c.1,0,.2,0,.3,0Z"/><path class="cls-7" d="M102.17,100.29c-.12.12-.24.24-.35.37.12-.12.24-.24.35-.37Z"/><path class="cls-5" d="M114.2,99c-.11-.21-.22-.42-.33-.63.46.02.93.04,1.39.07.02.12.05.25.07.37-.38.06-.76.13-1.13.19Z"/><path class="cls-5" d="M115.35,101.29c-.16-.34-.33-.68-.49-1.02.23-.06.46-.12.69-.18l-.2,1.2Z"/><path class="cls-5" d="M107.77,93.36h.47s0,.08,0,.12h-.47s0-.08,0-.12Z"/><path class="cls-5" d="M112.93,97.12c-.23-.22-.45-.44-.68-.65.23.22.45.44.68.65Z"/><path class="cls-5" d="M110.07,94.85c-.21-.1-.43-.21-.64-.31.21.1.43.21.64.31Z"/><path class="cls-5" d="M107.83,94.15c-.24-.07-.48-.14-.72-.21.24.07.48.14.72.21Z"/><path class="cls-5" d="M116.08,103.96c-.05-.16-.11-.32-.16-.48.05.16.11.32.16.48Z"/><path class="cls-5" d="M109.1,94.44c-.15-.06-.3-.12-.45-.18.15.06.3.12.45.18Z"/><path class="cls-5" d="M106.24,93.85l-.15.04s-.15-.05-.15-.05c.1,0,.2,0,.3,0Z"/><path class="cls-8" d="M99.71,129.05c-.09.15-.18.3-.27.45-.06-.03-.12-.06-.18-.1.09-.17.17-.33.26-.5.06.05.12.1.18.15Z"/><path class="cls-8" d="M125.81,133.73c-.04.11-.08.21-.12.32-.11,0-.23-.02-.34-.03.15-.1.31-.19.46-.29Z"/><path class="cls-8" d="M125.77,91.58c.04.11.07.21.11.32-.12-.02-.24-.04-.35-.05.08-.09.16-.18.24-.27Z"/><path class="cls-3" d="M100.9,106.89c1.81,1.42,3.68,2.51,6.12,2.61,4.24.18,6.23-2.57,6.88-6.37.06-.33.05-.68.1-1.46,1.11,2.74,1.27,5.12.15,7.34-.82,1.63-2.58,2.33-4.31,2.67-4.18.82-7.25-.78-9.12-4.62.06-.06.12-.12.18-.18Z"/><path class="cls-3" d="M100.72,107.07c-.04-.11-.08-.22-.11-.33.1.05.19.1.29.15-.06.06-.12.12-.18.18Z"/></svg>