<?xml version="1.0" encoding="UTF-8"?><svg id="Layer_1" xmlns="http://www.w3.org/2000/svg" viewBox="0 0 198.35 207.61"><defs><style>.cls-1{fill:#ee4924;}.cls-1,.cls-2,.cls-3,.cls-4,.cls-5,.cls-6{stroke-width:0px;}.cls-2{fill:#c39e39;}.cls-3{fill:#f7d14c;}.cls-4{fill:#fcf5f3;}.cls-5{fill:#ee4223;}.cls-6{fill:#fed44a;}</style></defs><path class="cls-6" d="M87.47,169.39c-4.3.46-8.48-.02-12.53-1.54-.22-.09-.43-.17-.65-.26-1.7-.85-3.4-1.72-5.11-2.56-.58-.28-1.2-.48-1.8-.71l-.04-.05c-.12-.26-.18-.58-.37-.77-1.64-1.7-3.61-3.18-4.88-5.12-1.27-1.94-2.09-4.28-2.65-6.56-.48-1.96-.6-4.12-.35-6.12.37-3,1.13-5.96,1.85-8.9.38-1.57,1.03-3.07,1.56-4.61.08-.2.17-.41.25-.61.34-.75.68-1.5,1.02-2.25.11-.21.21-.42.32-.64.73-1.38,1.47-2.76,2.2-4.14.27-.44.53-.88.8-1.32l1.11.25c-.18.76-.34,2.18-.54,2.18-2.07.05-1.35,1.67-1.66,2.68h0s-.1.08-.09.1c.03.08.08.15.12.22l-.05.34c-.55.42-1.1.84-1.48,1.13.13.29.4.58.35.8-.16.65-.44,1.27-.68,1.91-.12.32-.23.64-.35.96l-.26.63c-.04.19-.08.38-.11.57,0,.26,0,.53-.01.79.18.3.37.59.55.89-.07.05-.14.1-.21.15l.63.24c0,.09.04.17.1.24.18.22.36.44.55.67.23.3.46.6.68.91v1.24c.46-.61.7-.92.94-1.23h0c.16-.2.31-.41.47-.61.91-.65,1.83-1.3,2.74-1.95.4.32.79.64,1.19.95l.06.06.65.21c0-.08-.02-.16-.02-.24.33-.16.67-.31,1-.47.05.16.09.32.14.47,0,.18,0,.35,0,.53.17-.08.33-.15.5-.23.94-.74,1.89-1.48,2.83-2.21.13-.11.27-.22.4-.33.61-.49,1.22-.98,1.9-1.52-.58-.69-1.01-1.19-1.43-1.7-.4-.52-.8-1.05-1.2-1.57-.43-.54-.85-1.08-1.28-1.62-.11-.19-.22-.38-.33-.56,0,0-.03-.06-.03-.06-.09-.11-.17-.22-.26-.34h0c-.63-.85-1.25-1.7-1.88-2.55-.56-.95-1.12-1.9-1.68-2.84-1.11-1.29-2.22-2.59-3.35-3.86-.41-.46-1.04-.78-1.29-1.3-.47-1-1.71-3.08-2.46-3.39-.52-.22-1.34-.38-1.72-.12-1.85,1.26-3.6,2.67-5.29,3.96,1.04,1.33,1.94,2.54,2.89,3.7.89,1.08,1.84,2.1,2.76,3.15-.14.12-.27.25-.41.37-.53.16-1.05.32-1.58.48-.37.15-.73.29-1.1.44-.8.18-1.6.35-2.41.52-.21.06-.43.12-.64.18-.32.06-.63.13-.95.19-.32.06-.64.12-.97.19-.32.05-.63.09-.95.14-.21.05-.42.1-.63.15-.64.05-1.28.09-1.92.14-.32.05-.64.1-.96.15-.54,0-1.07,0-1.61,0-.74-.06-1.48-.12-2.23-.19-.43-.04-.85-.08-1.28-.12-.42-.09-.84-.17-1.27-.26-5.15-.65-7.63-4.31-9.62-8.52-.18-.38-.34-.76-.51-1.15-.13-.52-.25-1.05-.38-1.57-.58-2.87-1.36-5.74-.91-8.69.42-2.74,1.09-5.44,1.65-8.16.07-.23.14-.45.21-.68.05-.07.07-.14.04-.22.07-.14.14-.27.21-.41.07-.13.13-.26.2-.39,1.18,1.51,2.36,3.03,3.59,4.62,1.29-1.04,2.24-2.02,3.38-2.7,3.44-2.05,3.51-2.48.41-5.03-.07-.06-.09-.18-.26-.56,2.65-1.45,5.34-2.91,8.23-4.48-1.95-3.47-3.81-6.76-5.66-10.06-.01-.17-.02-.33-.03-.5,1.45-1.86,2.89-3.71,4.34-5.57.41-.53.83-1.06,1.25-1.59.37-.39.74-.77,1.11-1.15,5.38-6.25,11.18-12.07,17.64-17.21.33-.26.64-.55.96-.82,0,0,.11.01.11.01l.04-.11c.7-.59,1.4-1.17,2.1-1.76.2-.13.41-.26.61-.38,2.54-1.72,5.08-3.44,7.62-5.15.33-.19.65-.39.98-.58,1.9-1.01,3.81-2.03,5.71-3.04.58-.27,1.17-.54,1.75-.81.68-.24,1.37-.49,2.05-.73.79-.29,1.59-.58,2.38-.88.38-.08.76-.17,1.15-.25.01.07,0,.14,0,.2-.53.86-1.06,1.72-1.59,2.58l.36.25c-1.19.74-2.37,1.48-4.18,2.61,2.04,1.8,3.82,3.44,5.68,4.99,2.54,2.12,5.12,4.18,7.71,6.24.47.38,1.05.62,1.58.93.46.61.93,1.23,1.39,1.84.28.18.77.55.81.5,1.13-1.21,1.41.19,2.09.78,1.08-1.9,2.13-3.71,3.12-5.56.11-.21-.05-.71-.25-.93-1.18-1.34-2.43-2.61-3.59-3.96-.55-.64-1.7-1.22-.57-2.31.35-.28.71-.55,1.13-.88-.91-1.02-2.51-1.86-.33-3.17-.61-.27-1.39-.47-1.39-.65.02-1.73-1.52-2.5-2.2-3.79.98.38,1.97.77,2.95,1.15.2.15.39.29.59.44,3.65,2.9,5.82,6.79,7.49,11.03.07.21.15.42.22.63.38,1.81.76,3.61,1.14,5.42.04.21.08.42.12.64-.11,3.3-.21,6.59-.32,9.89-.11.63-.21,1.27-.32,1.9-1.18,3.93-2.36,7.85-3.54,11.78-.28.55-.56,1.1-.84,1.65.2.16.4.31.6.47.42-.59.85-1.19,1.27-1.78,1.04-.74,2.08-1.49,3.13-2.23.13-.1.26-.2.39-.3,1.47-.93,2.95-1.87,4.42-2.8.42-.24.84-.48,1.27-.71,3.91-2.13,8.05-3.67,12.39-4.65.21-.05.42-.11.63-.16.43-.04.85-.09,1.28-.13.42-.07.84-.14,1.26-.21,1.71,0,3.42,0,5.12.01.42.06.85.12,1.27.18.64.12,1.27.24,1.91.36.32.09.64.18.97.27.37.08.74.15,1.1.23.16.08.32.17.48.25,5.22,2.15,9.4,5.53,12.43,10.32.34.53.76,1.02,1.14,1.52,0,0,.01.13.01.13l.13.05c1.25,2.54,2.53,5.06,3.74,7.61.4.85.64,1.77.95,2.66.05.22.09.43.14.65.18,1.17.36,2.34.54,3.51.04.2.08.4.12.6-.12,1.5-.25,3.01-.37,4.51-.03.21-.06.42-.09.63-.19.96-.38,1.92-.58,2.89,0,0-.11.09-.11.09l.04.12c-.83,2.36-1.65,4.73-2.48,7.09-.14.3-.28.61-.42.91-.09.2-.18.4-.27.6-.15.15-.29.3-.44.46-.26-.12-.52-.23-.78-.35-.33-.56-.88-1.1-.94-1.69-.13-1.23-.82-1.53-1.5-1.79-1.21-1.55-2.41-3.1-3.62-4.65-.32-.58-1.46.71-1.59-.82.28-.09.56-.19.84-.28-.06-.11-.13-.23-.19-.34-.22.2-.45.4-.67.59-1.47,1.01-2.9,2.08-4.43,2.99-1.2.71-1,1.38-.29,2.27.54.68.99,1.43,1.65,2.38-1.59.25-2.88.45-4.45.7.06.34.04.97.28,1.47,1.3,2.71,2.53,5.46,4.05,8.04.92,1.55,2.32,2.82,3.5,4.22-.63.83-1.26,1.66-1.89,2.49-.24.3-.48.6-.72.9-1.57,1.7-3.14,3.41-4.71,5.11-.42.43-.83.86-1.25,1.3-2.35,2.17-4.71,4.34-7.06,6.51-.07.06-.14.12-.21.19-.88.74-1.75,1.48-2.63,2.22-.24.2-.48.4-.73.6-.82.64-1.65,1.28-2.47,1.93-.31.22-.62.44-.93.67-5.44,3.46-10.87,6.92-16.31,10.39-.21.11-.42.22-.63.33-1.47.71-2.94,1.43-4.41,2.14-.27.15-.54.3-.81.44-1.65.65-3.3,1.3-4.95,1.94-.61.15-1.23.29-1.84.44-2.29-1.77.26-2.98.44-3.94-1.49-2.23-2.74-4.15-4.04-6.04-.56-.81-1.25-1.52-1.83-2.31-.55-.76-1.57-.95-1.85-2.17-.3-1.31-2.08-2-2.8-1.38-1.37,1.19-2.04.52-2.83-.7-.6-.93-1.43-2.22-2.73-1.42-1.94,1.19-3.68,2.71-5.55,4.11,1.11,1.33,2.06,2.45,3.16,3.77-1.78.7-3.32,1.69-4.93,1.84-1.6.15-1.34.5-.72,1.42.29.44.52.92.85,1.32,2.41,2.95,4.84,5.89,7.27,8.83ZM139,89.83c.34.16.68.32,1.22.58-.34-.75-.58-1.3-.83-1.85-.04-.13-.08-.25-.12-.38-.13-.61-.26-1.22-.38-1.83-.67-1.29-.67-3-2.33-3.65-.39.27-.77.53-1.28.88.09-.74.15-1.24.22-1.75-.6.28-1.21.55-1.81.83q.55-2.02-.4-2.54c-2.11,1.88-4.11,3.67-5.73,5.11.3,1.08.76,1.83.61,2.41-.16.59-.92.94-1.35-.05-.51-.97-1.02-1.93-1.72-3.24-.66.9-1.16,1.36-1.36,1.92-.3.84-.38,1.75-.55,2.63-.11-.02-.22-.04-.32-.05l.51.94c-1.02.84-2.04,1.67-3.21,2.63.38.7.7,1.47,1.18,2.13.58.8,1.19,1.08,1.71-.16.23-.54.72-.97,1.11-1.49,3.51,2.68,6.86,5.25,10.22,7.81,2.81-.73,4.28-3.21,6.59-4.8-.69-.63-1.23-1.12-1.77-1.6-.08-1.47-.17-2.95-.25-4.42l.05-.06ZM83.44,95.79c.07.08.13.15.2.23.72.9,1.45,1.8,2.17,2.71l-.32.43c.87-.09,1.75-.17,2.27-.22.65.47,1.12.91,1.69,1.19.32.15.77.03,1.16.03.04.19.08.38.11.56,1.75-1.57,3.51-3.13,4.76-4.25-1.11-1.43-2.28-2.63-3.08-4.05-.76-1.36-3.06-2.04-1.96-4.4-.32.07-.55.1-.76.16-.2.06-.39.16-.58.25-.11-.15-.22-.31-.32-.46,1.46-1.11,2.93-2.23,4.35-3.31-.71-.19-1.58-.42-2.48-.66v-2.74c-.64.06-1.43.14-2.21.21-.05-.13-.11-.27-.16-.4.8-.49,1.59-.99,2.21-1.37-.65-.59-1.38-1.26-2.29-2.1.96-.2,1.47-.31,1.82-.38-.52-1.31-.96-2.42-1.46-3.68-1.51.75-2.87,1.44-4.24,2.11q-2.72,1.34-2.08,4.21c.01.07-.1.16.02-.03-1.12-.11-2.08-.2-3.14-.3.3-.33.67-.73,1.27-1.39-2.1.98-3.83,1.9-5.65,2.59-1.34.51-1.67,1.3-1.29,2.56.65,2.13,1.15,4.32,1.99,6.36.71,1.71.86,4.04,3.28,4.16-.23.73-.44,1.41-.6,1.9.8.42,1.31.7,1.82.97,1.43,1.11,2.63.61,3.49-.88ZM120.48,116.11l-.86.85c.11-.33.4-.8.28-.95-.63-.81-1.28-1.65-2.09-2.25-.42-.31-1.36-.41-1.77-.15-1.85,1.16-3.59,2.49-5.36,3.76,1.33,1.67,2.6,3.15,3.69,4.75.33.48.41,1.61.09,1.93-.59.6-1.56,1.09-2.38,1.12-.73.03-1.48-.63-2.22-1-.48-.24-.96-.48-1.6-.8.46-.31.73-.5,1.01-.69-.47-.81-.9-1.56-1.34-2.33-.26.8-.5,1.51-.68,2.06-1.53-.17-2.62,2.17-4.21.29.09.55.13.78.15.95-1.06-.06-2.03-.11-3.11-.18.7,1.58-.77,1.74-1.46,2.34-.78.68-1.72,1.18-2.64,1.79,2.26,4.5,5.1,8.31,9.44,10.83.33-.41.57-.73.92-1.17.11.46.18.75.31,1.33.61-.86,1.09-1.55,1.65-2.35,2.37,2.64,4.69,5.22,7.09,7.89,1.52-1.22,2.98-2.25,4.26-3.45.85-.8,1.35-1.97,2.19-2.78,1.46-1.41,2.95-2.84,5.15-3.1.88-.1,1.73-.47,2.61-.68.89-.21,1.15-.76.74-1.53-.74-1.4-1.51-2.8-2.36-4.13-.62-.96-1.48-1.77-2.09-2.74-1.5-2.38-2.95-4.79-4.37-7.22-.44-.75-.71-1.6-1.05-2.41Z"/><path class="cls-1" d="M87.47,169.39c-2.42-2.94-4.85-5.88-7.27-8.83-.33-.4-.56-.89-.85-1.32-.62-.92-.88-1.28.72-1.42,1.62-.15,3.16-1.14,4.93-1.84-1.11-1.32-2.05-2.44-3.16-3.77,1.87-1.41,3.61-2.93,5.55-4.11,1.3-.79,2.14.5,2.73,1.42.79,1.22,1.46,1.89,2.83.7.71-.62,2.5.06,2.8,1.38.28,1.23,1.29,1.41,1.85,2.17.58.79,1.27,1.51,1.83,2.31,1.3,1.89,2.55,3.81,4.04,6.04-.18.96-2.73,2.17-.44,3.94-.03.07-.04.15-.04.23-.22.1-.43.21-.65.31-.25.1-.49.19-.74.29h-.12s-.1.06-.1.06c-.7.11-1.42.17-2.11.34-.49.12-.94.38-1.4.58-1.06.24-2.13.48-3.19.71-.32.08-.63.16-.95.25-.21.02-.43.04-.64.06-.33.08-.66.16-.99.24-.31.03-.61.05-.92.08-.32.08-.65.17-.97.25-.42.02-.83.03-1.25.05-.21,0-.43,0-.64,0-.28-.04-.56-.08-.84-.12Z"/><path class="cls-1" d="M154.55,128.46c-1.18-1.4-2.59-2.66-3.5-4.22-1.52-2.58-2.75-5.34-4.05-8.04-.24-.5-.22-1.13-.28-1.47,1.57-.25,2.85-.45,4.45-.7-.65-.95-1.11-1.7-1.65-2.38-.71-.89-.91-1.56.29-2.27,1.53-.91,2.96-1.99,4.43-2.99l.02.03c.12,1.53,1.27.24,1.59.82,1.21,1.55,2.41,3.1,3.62,4.65.68.26,1.37.55,1.5,1.79.06.59.61,1.12.94,1.68-.6.74-1.2,1.49-1.85,2.29.58.21,1.01.37,1.45.53-.1.31-.21.62-.31.93,0,0,.03-.03.03-.03-.08.13-.17.26-.25.39-.11.14-.22.27-.33.41,0,0-.12.05-.12.05l.02.12c-.3.52-.6,1.04-.9,1.56-.09.13-.18.27-.26.4-.13.18-.25.36-.38.54-.22.35-.44.7-.67,1.05-.08.12-.17.24-.25.36-.07.09-.14.18-.21.27-.14.22-.28.44-.42.66-.22.3-.44.61-.66.91-.74.89-1.48,1.78-2.23,2.67ZM152.89,117.3c-.87-.35-1.32-.53-1.8-.72.21-.65.38-1.18.64-2-2.7.66-.42,2.26-1,3.22.59-.14,1.18-.27,2.17-.5Z"/><path class="cls-1" d="M43.65,78.89c1.85,3.29,3.71,6.59,5.66,10.06-2.89,1.58-5.58,3.04-8.23,4.48.17.38.19.5.26.56,3.1,2.55,3.03,2.98-.41,5.03-1.14.68-2.09,1.66-3.38,2.7-1.23-1.59-2.41-3.1-3.59-4.62-.02-.44-.03-.88-.05-1.32.08-.18.16-.36.24-.53.21-.53.42-1.06.64-1.59.09-.21.19-.43.28-.64.24-.53.47-1.05.71-1.58.1-.21.2-.43.3-.64.2-.43.41-.86.61-1.28.11-.21.21-.42.32-.64.41-.78.83-1.55,1.24-2.33.06-.16.12-.33.19-.49.69-1.09,1.38-2.18,2.07-3.26.07-.09.13-.18.2-.27.27-.39.54-.78.8-1.17.11.02.17-.03.18-.14.25-.23.5-.47.75-.7.05-.07.1-.14.16-.22.26-.45.52-.9.78-1.35.1,0,.19-.01.28-.06ZM44.41,85.2c-1.95,1.07-1.98,1.08-1.6,3.31.06.36.55.64.59.69.24-.68.37-1.26.65-1.75.42-.72,1.39-1.31.36-2.25Z"/><path class="cls-1" d="M65.99,128.36c.31-1.02-.41-2.63,1.66-2.68.2,0,.36-1.42.54-2.18-.37-.08-.74-.17-1.11-.25-.47.16-.93.32-1.4.48-1.16.38-2.33.77-3.49,1.15-.08-.13-.16-.25-.24-.38-.92-1.05-1.87-2.07-2.76-3.15-.95-1.16-1.85-2.36-2.89-3.7,1.69-1.29,3.44-2.7,5.29-3.96.38-.26,1.21-.1,1.72.12.76.31,1.99,2.39,2.46,3.39.24.52.88.84,1.29,1.3,1.13,1.27,2.23,2.57,3.35,3.86-.51.84-1.03,1.69-1.54,2.53l-.13.07.06.06.07-.13c.28.06.56.12,1.03.22-.38.45-.58.91-.91,1.04-2.24.91-2.44,2.66-2.15,4.73.04.3-.47.9-.82.99-.74.19-.92.29-.81,1.21-.37-.08-.71-.15-1.06-.22.24-.63.52-1.25.68-1.91.05-.22-.21-.51-.35-.8.38-.29.93-.71,1.48-1.13,0-.22.01-.44.02-.65Z"/><path class="cls-2" d="M103.2,38.03c.68,1.28,2.22,2.05,2.2,3.79,0,.18.78.37,1.39.65-2.18,1.31-.58,2.15.33,3.17-.42.33-.78.61-1.13.88-.17-.13-.33-.26-.5-.39.82-.82-.18-1.1-.47-1.59-.61,1.71-.83,1.82-1.93.9q1.28-1.76,1.12-4.68c-1.04.59-1.23,2.78-3.05,1.62-.02-.38-.04-.79-.05-.99.5-.35.88-.58,1.2-.89.05-.05-.19-.41-.3-.62-.4.21-.81.38-1.18.62-.5.33-.98.7-1.46,1.06-.12-.14-.23-.27-.35-.41.89-.84,1.78-1.69,2.68-2.53.02.24.05.48.07.71.14-.05.28-.11.42-.16-.15-.21-.29-.42-.44-.63-.87-1.47-1.57-.34-2.24.14-.61-.3-1.16-.58-1.71-.85.01-.08.04-.15.07-.22.32-.03.64-.06.96-.1.32.01.64.03.96.04.75.09,1.51.19,2.26.28.32.07.64.13.96.2.07-.02.13-.02.2,0Z"/><path class="cls-2" d="M161.5,118.17c-.43-.16-.87-.32-1.45-.53.65-.8,1.25-1.55,1.85-2.29.26.12.52.23.78.35-.09.28-.17.56-.26.85-.18.44-.37.87-.55,1.31-.12.11-.25.21-.37.32Z"/><path class="cls-4" d="M97.86,167.87c.47-.2.92-.46,1.4-.58.69-.17,1.4-.23,2.11-.34-1.17.31-2.34.62-3.51.93Z"/><path class="cls-4" d="M97.85,37.6c-.03.07-.06.15-.07.22-1.45.24-2.91.49-4.36.73.02-.07.02-.14,0-.2,1.47-.25,2.95-.5,4.42-.75Z"/><path class="cls-4" d="M112.57,81.25c-.42.59-.85,1.19-1.27,1.78-.2-.16-.4-.31-.6-.47.28-.55.56-1.1.84-1.65.34.11.69.22,1.03.34Z"/><path class="cls-4" d="M45.62,127.26c.74.06,1.48.12,2.23.19-.74-.06-1.48-.12-2.23-.19Z"/><path class="cls-4" d="M92.28,38.61c-.79.29-1.59.58-2.38.88.79-.29,1.59-.58,2.38-.88Z"/><path class="cls-4" d="M32.56,115.64c.13.52.25,1.05.38,1.57-.97-.54-1.07-.97-.38-1.57Z"/><path class="cls-4" d="M115.08,69.13c.11-.63.21-1.27.32-1.9-.03.65.82,1.45-.32,1.9Z"/><path class="cls-4" d="M145.99,138.26c.42-.43.83-.86,1.25-1.3.14.97-.25,1.42-1.25,1.3Z"/><path class="cls-4" d="M162.42,116.55c.09-.28.17-.56.26-.85.15-.15.29-.3.44-.46.41.78.62,1.46-.7,1.3Z"/><path class="cls-4" d="M161.5,118.17c.12-.11.25-.21.37-.32.94,1.05-.4.86-.68,1.25.1-.31.21-.62.31-.93Z"/><path class="cls-4" d="M65.68,123.71c.47-.16.93-.32,1.4-.48-.26.44-.53.88-.8,1.32-.2-.28-.4-.56-.6-.84Z"/><path class="cls-4" d="M87.84,40.21c-.58.27-1.17.54-1.75.81.58-.27,1.17-.54,1.75-.81Z"/><path class="cls-4" d="M156.78,125.79c.22-.3.44-.61.66-.91.03.38.06.75.09,1.13l-.75-.22Z"/><path class="cls-4" d="M102.97,166.28c0-.08.02-.15.04-.23.61-.15,1.23-.29,1.84-.44-.63.22-1.26.44-1.88.67Z"/><path class="cls-4" d="M43.07,126.88c.42.09.84.17,1.27.26-.42-.09-.84-.17-1.27-.26Z"/><path class="cls-4" d="M137.35,70.05c-.42.07-.84.14-1.26.21.42-.07.84-.14,1.26-.21Z"/><path class="cls-4" d="M143.74,70.24c-.42-.06-.85-.12-1.27-.18.42.06.85.12,1.27.18Z"/><path class="cls-4" d="M50.32,70.08c-.37.38-.74.77-1.11,1.15.37-.38.74-.77,1.11-1.15Z"/><path class="cls-4" d="M166.73,94.29c-.05-.22-.09-.43-.14-.65.29.04.58.08.87.12.02.1.04.19.05.29-.26.08-.52.16-.78.24Z"/><path class="cls-4" d="M121.78,75.2c-.42.24-.84.48-1.27.71.42-.24.84-.48,1.27-.71Z"/><path class="cls-4" d="M146.61,70.87c-.32-.09-.64-.18-.97-.27.43-.6.57-.56.97.27Z"/><path class="cls-4" d="M80.38,44.07c-.33.19-.65.39-.98.58.16-.47.05-1.4.98-.58Z"/><path class="cls-4" d="M53.9,126.86c.32-.06.64-.13.97-.19-.18.22-.35.43-.53.65-.15-.15-.29-.31-.44-.46Z"/><path class="cls-4" d="M163.39,114.64c.14-.3.28-.61.42-.91-.14.3-.28.61-.42.91Z"/><path class="cls-4" d="M49.45,127.44c.32-.05.64-.1.96-.15-.32.05-.64.1-.96.15Z"/><path class="cls-4" d="M99.78,37.55c-.32-.01-.64-.03-.96-.04.14-.17.29-.34.43-.5.18.18.35.37.53.55Z"/><path class="cls-4" d="M131.97,150.37c.31-.22.62-.44.93-.67-.31.22-.62.44-.93.67Z"/><path class="cls-4" d="M158.32,123.6c.22-.35.44-.7.67-1.05-.22.35-.44.7-.67,1.05Z"/><path class="cls-4" d="M58.87,125.78c.37-.15.73-.29,1.1-.44-.37.15-.73.29-1.1.44Z"/><path class="cls-4" d="M151.94,131.86c.24-.3.48-.6.72-.9-.24.3-.48.6-.72.9Z"/><path class="cls-4" d="M52.33,127.15c.21-.05.42-.1.63-.15-.21.05-.42.1-.63.15Z"/><path class="cls-4" d="M71.78,49.8c-.2.13-.41.25-.61.38.06-.21.11-.43.17-.64.15.09.29.17.44.26Z"/><path class="cls-4" d="M64.08,128.69c-.11.21-.21.42-.32.64.11-.21.21-.42.32-.64Z"/><path class="cls-4" d="M106.74,39.62c-.2-.15-.39-.29-.59-.44.2.15.39.29.59.44Z"/><path class="cls-4" d="M114.45,51.28c-.07-.21-.15-.42-.22-.63.07.21.15.42.22.63Z"/><path class="cls-4" d="M115.72,57.34c-.04-.21-.08-.42-.12-.64.04.21.08.42.12.64Z"/><path class="cls-4" d="M55.82,126.48c.21-.06.43-.12.64-.18-.21.06-.43.12-.64.18Z"/><path class="cls-4" d="M115.02,161.09c.21-.11.42-.22.63-.33-.05.2-.09.39-.14.59-.16-.09-.33-.17-.49-.26Z"/><path class="cls-4" d="M61.95,124.49c.08.13.16.25.24.38-.22,0-.43,0-.65,0,.14-.12.27-.25.41-.37Z"/><path class="cls-4" d="M134.81,70.38c-.21.05-.42.11-.63.16.21-.05.42-.11.63-.16Z"/><path class="cls-4" d="M109.8,163.67c.27-.15.54-.3.81-.44-.27.15-.54.3-.81.44Z"/><path class="cls-4" d="M135.36,147.77c.24-.2.48-.4.73-.6-.24.2-.48.4-.73.6Z"/><path class="cls-4" d="M74.29,167.58c.22.09.43.17.65.26-.22-.09-.43-.17-.65-.26Z"/><path class="cls-4" d="M166.93,103.54c.03-.21.06-.42.09-.63-.03.21-.06.42-.09.63Z"/><path class="cls-4" d="M33.52,98.12c-.07.23-.14.45-.21.68.07-.23.14-.45.21-.68Z"/><path class="cls-4" d="M167.39,98.4c-.04-.2-.08-.4-.12-.6.04.2.08.4.12.6Z"/><path class="cls-4" d="M37.02,88.88c-.11.21-.21.42-.32.64.11-.21.21-.42.32-.64Z"/><path class="cls-4" d="M88.31,169.51c.21,0,.43,0,.64,0-.11.16-.21.31-.32.47-.11-.16-.21-.31-.32-.47Z"/><path class="cls-4" d="M36.09,90.8c-.1.21-.2.43-.3.64.1-.21.2-.43.3-.64Z"/><path class="cls-4" d="M35.07,93.02c-.09.21-.19.43-.28.64.09-.21.19-.43.28-.64Z"/><path class="cls-6" d="M103,38.03c-.32-.07-.64-.13-.96-.2.32.07.64.13.96.2Z"/><path class="cls-4" d="M93.72,168.83c.32-.08.63-.16.95-.25-.32.08-.63.16-.95.25Z"/><path class="cls-4" d="M92.08,169.13c.33-.08.66-.16.99-.24-.33.08-.66.16-.99.24Z"/><path class="cls-4" d="M90.2,169.46c.32-.08.65-.17.97-.25-.32.08-.65.17-.97.25Z"/><path class="cls-4" d="M43.65,78.89c-.09.04-.18.06-.28.06.08-.19.17-.37.25-.56.01.17.02.33.03.5Z"/><path class="cls-4" d="M38.45,86.06c-.06.16-.12.33-.19.49.06-.16.12-.33.19-.49Z"/><path class="cls-4" d="M101.59,166.88c.25-.1.49-.19.74-.29-.25.1-.49.19-.74.29Z"/><path class="cls-4" d="M62.75,131.58c-.08.2-.17.41-.25.61.08-.2.17-.41.25-.61Z"/><path class="cls-4" d="M138.72,144.96c.07-.06.14-.13.21-.19-.05.08-.12.14-.21.19Z"/><path class="cls-4" d="M157.86,124.23c.07-.09.14-.18.21-.27-.07.09-.14.18-.21.27Z"/><path class="cls-4" d="M159.36,122.01c.09-.13.18-.27.26-.4-.09.13-.18.27-.26.4Z"/><path class="cls-4" d="M67.38,164.32c-.06.05-.12.1-.24.21.09-.12.14-.19.19-.25,0,0,.04.04.04.04Z"/><path class="cls-4" d="M160.53,120.05l-.02-.12s.12-.05.12-.05c-.02.07-.05.13-.1.18Z"/><path class="cls-4" d="M160.96,119.47c.08-.13.17-.26.25-.39-.08.13-.17.26-.25.39Z"/><path class="cls-4" d="M166.29,106.64l-.04-.12s.11-.09.11-.09c-.01.08-.04.15-.07.21Z"/><path class="cls-4" d="M33.76,97.5c-.07.14-.14.27-.21.41.07-.13.14-.27.21-.41Z"/><path class="cls-4" d="M34.15,95.25c-.08.18-.16.35-.24.53.08-.18.16-.35.24-.53Z"/><path class="cls-4" d="M161.9,83.37l-.13-.05s-.02-.13-.01-.13c.06.05.11.11.15.18Z"/><path class="cls-4" d="M40.71,82.53c-.07.09-.13.18-.2.27.07-.09.13-.18.2-.27Z"/><path class="cls-4" d="M41.69,81.22c-.01.11-.07.16-.18.14.05-.06.11-.11.18-.14Z"/><path class="cls-4" d="M42.6,80.3c-.05.07-.1.15-.16.22.02-.1.07-.17.16-.22Z"/><path class="cls-4" d="M116.09,78.71c-.13.1-.26.2-.39.3.13-.1.26-.2.39-.3Z"/><path class="cls-4" d="M148.19,71.34c-.16-.08-.32-.17-.48-.25.16.08.32.17.48.25Z"/><path class="cls-4" d="M69.07,51.95l-.04.11s-.11,0-.11-.01c.04-.05.1-.08.15-.1Z"/><path class="cls-1" d="M120.48,116.11c.35.81.62,1.66,1.05,2.41,1.42,2.43,2.86,4.84,4.37,7.22.61.97,1.47,1.78,2.09,2.74.86,1.33,1.62,2.73,2.36,4.13.41.77.15,1.31-.74,1.53-.87.21-1.72.58-2.61.68-2.2.26-3.69,1.69-5.15,3.1-.84.81-1.34,1.98-2.19,2.78-1.28,1.21-2.73,2.23-4.26,3.45-2.4-2.67-4.72-5.25-7.09-7.89-.56.8-1.05,1.49-1.65,2.35-.13-.58-.2-.86-.31-1.33-.35.44-.59.75-.92,1.17-4.34-2.52-7.19-6.33-9.44-10.83.92-.61,1.86-1.11,2.64-1.79.69-.6,2.16-.76,1.46-2.34,1.08.06,2.05.12,3.11.18-.03-.17-.07-.41-.15-.95,1.59,1.87,2.68-.46,4.21-.29.18-.55.41-1.26.68-2.06.44.76.87,1.51,1.34,2.33-.27.19-.55.38-1.01.69.64.32,1.12.56,1.6.8.74.36,1.49,1.02,2.22,1,.83-.03,1.79-.52,2.38-1.12.32-.32.23-1.45-.09-1.93-1.09-1.6-2.36-3.07-3.69-4.75,1.77-1.26,3.52-2.59,5.36-3.76.42-.26,1.35-.16,1.77.15.81.6,1.46,1.44,2.09,2.25.12.15-.18.63-.28.95l.86-.85ZM122.53,132.9c2.56.55,2.77-1.41,3.59-2.56.18-.25-.05-.78-.08-1.18-.51.24-1.49.58-1.46.72.32,1.54-.69,2.23-2.04,3.02ZM106.84,124.27l-.46-.38c-.46.12-.92.25-1.39.37l-.12.45c.42.25.85.69,1.26.67.25,0,.47-.72.71-1.12Z"/><path class="cls-1" d="M83.44,95.79c-.87,1.49-2.06,1.99-3.49.88-.51-.27-1.02-.54-1.82-.97.16-.5.37-1.17.6-1.9-2.42-.12-2.57-2.45-3.28-4.16-.85-2.05-1.34-4.24-1.99-6.36-.39-1.26-.06-2.05,1.29-2.56,1.82-.69,3.55-1.61,5.65-2.59-.6.65-.97,1.06-1.27,1.39,1.06.1,2.02.2,3.14.3-.12.18,0,.09-.02.03q-.64-2.87,2.08-4.21c1.37-.67,2.73-1.36,4.24-2.11.5,1.27.94,2.38,1.46,3.68-.34.07-.86.18-1.82.38.91.84,1.64,1.51,2.29,2.1-.62.38-1.42.88-2.21,1.37.05.13.11.27.16.4.79-.07,1.57-.15,2.21-.21v2.74c.9.24,1.76.47,2.48.66-1.43,1.09-2.89,2.2-4.35,3.31.11.15.22.31.32.46.19-.08.38-.19.58-.25.21-.07.44-.1.76-.16-1.1,2.36,1.2,3.04,1.96,4.4.79,1.42,1.97,2.62,3.08,4.05-1.25,1.11-3,2.68-4.76,4.25-.04-.19-.08-.38-.11-.56-.39,0-.85.13-1.16-.03-.56-.27-1.04-.72-1.69-1.19-.52.05-1.39.14-2.27.22l.32-.43c-.72-.9-1.45-1.8-2.17-2.71.11-.12.22-.24.33-.36-.17.05-.35.09-.52.14ZM81.7,96.46c-.21-.05-.33-.11-.44-.1-.07.01-.18.18-.16.22.05.1.19.24.25.22.11-.04.19-.18.35-.34Z"/><path class="cls-1" d="M93.42,38.56c1.45-.24,2.91-.49,4.36-.73.55.27,1.1.55,1.71.85.67-.48,1.37-1.61,2.24-.14,0,0-.05.08-.05.08-.89.84-1.78,1.69-2.68,2.53.12.14.23.27.35.41.49-.35.96-.73,1.46-1.06.37-.24.79-.42,1.18-.62.11.21.35.57.3.62-.32.3-.7.53-1.2.89,0,.2.03.61.05.99,1.83,1.16,2.01-1.03,3.05-1.62q.16,2.92-1.12,4.68c1.1.92,1.32.81,1.93-.9.29.49,1.3.77.47,1.59.17.13.33.26.5.39-1.13,1.09.02,1.67.57,2.31,1.16,1.35,2.42,2.62,3.59,3.96.2.22.36.72.25.93-.99,1.85-2.04,3.66-3.12,5.56-.68-.59-.96-1.99-2.09-.78-.04.04-.53-.33-.81-.5,2.25-.89,1.36-3.46,2.94-5.02-1.19.06-2.04.11-2.94.15.45.56.88,1.09,1.48,1.83-1.1.46-1.99.83-2.88,1.2-.53-.31-1.11-.55-1.58-.93-2.59-2.06-5.17-4.12-7.71-6.24-1.86-1.55-3.64-3.19-5.68-4.99,1.81-1.13,3-1.87,4.18-2.61l-.36-.25c.53-.86,1.06-1.72,1.59-2.58Z"/><path class="cls-1" d="M139.27,88.18c.04.13.08.25.12.38-.19.32-.38.64-.6,1.02-.09-.11.06.07.21.25,0,0-.05.06-.05.06-2.11,1.83-2.04,3.02.25,4.42.54.49,1.08.98,1.77,1.6-2.31,1.59-3.78,4.07-6.59,4.8-3.35-2.56-6.71-5.13-10.22-7.81-.39.51-.88.94-1.11,1.49-.52,1.23-1.13.96-1.71.16-.48-.66-.8-1.43-1.18-2.13,1.17-.96,2.19-1.79,3.21-2.63,1.15-.73,2.29-1.46,3.44-2.2.42,1,1.19.65,1.35.05.16-.59-.3-1.34-.61-2.41,1.62-1.45,3.62-3.23,5.73-5.11q.95.51.4,2.54c.61-.27,1.21-.55,1.81-.83-.06.51-.13,1.01-.22,1.75.51-.35.89-.62,1.28-.88,1.66.66,1.66,2.37,2.33,3.65-.97,1.02-1.93,2.04-2.9,3.06.15.18.3.36.45.55.94-.59,1.88-1.18,2.83-1.77ZM123.63,92.66c-.27.14-.53.28-.8.42.06.1.13.19.19.29.23-.21.45-.42.68-.63.04-.07.09-.13.13-.2-.07.04-.14.08-.2.12Z"/><path class="cls-5" d="M64.16,132.85c.34.07.69.14,1.06.22-.11-.92.07-1.02.81-1.21.35-.09.86-.69.82-.99-.29-2.07-.09-3.82,2.15-4.73.33-.13.53-.59.91-1.04-.47-.1-.75-.16-1.03-.22.51-.84,1.03-1.69,1.54-2.53.56.95,1.12,1.9,1.68,2.85-.5.04-1.01.07-1.26.09-.44.93-.76,1.62-1.07,2.28.59.03,1.23.06,1.87.09.78.03,1.56.06,2.33.09,0,0,0,0,0,0,.09.11.17.22.26.34,0,0,.03.06.03.06.11.19.22.38.33.56.43.54.85,1.08,1.28,1.62.4.52.8,1.05,1.2,1.57.43.51.85,1.01,1.43,1.7-.67.54-1.28,1.03-1.9,1.52-.13.11-.27.22-.4.33-.94.74-1.89,1.48-2.83,2.21-.17-.1-.34-.2-.5-.3-.05-.16-.09-.32-.14-.47.88-.5.26-1.21.26-1.84-.02-.08-.03-.16-.04-.25.11-.56.23-1.12.34-1.68.2-.49.4-.99.6-1.48.75-.98-.35-.71-.65-.98-.17.02-.34.04-.51.06v-.91c-2.2,0-3.28.75-3.29,2.27.56.05,1.13.1,1.69.15l.34,1.91c-.29.1-.58.21-.87.31.14.11.29.21.43.32,0,.11,0,.22,0,.34-.07.12-.15.23-.22.35,0,.09,0,.18-.03.27l-.31.31c-.2.11-.4.22-.6.33-.91.65-1.83,1.3-2.74,1.95-.16.21-.31.41-.47.61,0,0,0,0,0,0-.31,0-.62,0-.94-.01-.23-.3-.46-.6-.68-.91-.18-.22-.36-.44-.55-.67-.06-.07-.1-.15-.1-.24-.14-.13-.28-.26-.41-.39-.18-.3-.37-.59-.55-.89,0-.26,0-.53.01-.79.04-.19.08-.38.11-.57.09-.21.17-.42.26-.63.12-.32.23-.64.35-.96ZM74.85,134.4c.18.11.36.23.54.34.27-.42.55-.85.83-1.27-.18-.11-.36-.23-.54-.34-.27.42-.55.85-.82,1.27ZM69.82,134.62c-.07-.12-.13-.21-.18-.29-.11.1-.27.17-.32.3-.03.06.14.2.22.3.09-.1.19-.21.28-.31ZM67.72,128.15c.09.04.2.13.26.1.06-.03.08-.16.12-.25-.09-.04-.2-.13-.26-.1-.06.03-.08.16-.12.25ZM70.03,128.47c-.04-.09-.05-.23-.11-.25-.06-.03-.17.06-.26.09.04.09.05.23.11.25.06.03.17-.06.26-.09ZM64.93,134.03c-.09-.04-.2-.13-.26-.1-.06.03-.08.16-.12.25.09.04.2.13.26.1.06-.03.08-.16.12-.25Z"/><path class="cls-2" d="M126.81,87.59c-1.15.73-2.29,1.46-3.44,2.2-.17-.31-.34-.63-.51-.94.11.02.22.04.32.05.17-.88.26-1.79.55-2.63.2-.56.7-1.02,1.36-1.92.69,1.31,1.2,2.27,1.72,3.24Z"/><path class="cls-2" d="M102.98,56.16c.89-.37,1.78-.74,2.88-1.2-.6-.74-1.03-1.27-1.48-1.83.9-.05,1.75-.09,2.94-.15-1.58,1.57-.7,4.14-2.94,5.02-.47-.61-.93-1.23-1.39-1.84Z"/><path class="cls-2" d="M71.47,134.12c-.11-.64-.22-1.28-.34-1.91.53-.5,1.07-1.01,1.6-1.51.17-.02.34-.04.51-.06.22.33.44.65.65.98-.2.49-.4.99-.6,1.48-.11.56-1.45.87-.34,1.68,0,.08.02.17.04.25-1.19.29-2.18.76-1.94,2.27-.4-.32-.79-.64-1.19-.95.2-.11.4-.22.61-.33.1-.1.2-.21.31-.31.03-.09.04-.18.03-.27.07-.12.15-.23.22-.35,0-.11,0-.22,0-.34.15-.21.29-.42.44-.63Z"/><path class="cls-1" d="M73.98,127.74c-.78-.03-1.56-.05-2.33-.09-.64-.03-1.28-.06-1.87-.09.31-.66.63-1.35,1.07-2.28.25-.02.76-.05,1.26-.09.63.85,1.25,1.7,1.88,2.55Z"/><path class="cls-2" d="M139.19,94.31c-2.29-1.39-2.35-2.59-.25-4.42.08,1.47.17,2.95.25,4.42Z"/><path class="cls-2" d="M139.27,88.18c-.94.59-1.88,1.18-2.83,1.77-.15-.18-.3-.36-.45-.55.97-1.02,1.93-2.04,2.9-3.06.13.61.25,1.22.38,1.83Z"/><path class="cls-1" d="M71.05,137.3c-.23-1.51.76-1.98,1.94-2.27,0,.63.61,1.34-.26,1.84-.33.15-.67.31-1,.46-.21,0-.42.01-.62.02l-.06-.06Z"/><path class="cls-2" d="M139,89.83c-.15-.18-.31-.36-.21-.25.22-.38.41-.7.6-1.02.25.55.5,1.1.83,1.85-.54-.26-.88-.42-1.22-.58Z"/><path class="cls-1" d="M77.08,131.88c-.4-.52-.8-1.05-1.2-1.57.4.52.8,1.05,1.2,1.57Z"/><path class="cls-1" d="M65.73,138.89c.31,0,.62,0,.94.01-.24.31-.47.62-.94,1.23v-1.24Z"/><path class="cls-1" d="M154.24,106.39c.22-.2.45-.4.67-.59.06.11.13.23.19.34-.28.09-.56.19-.84.28,0,0-.02-.03-.02-.03Z"/><path class="cls-1" d="M63.81,133.81c-.09.21-.17.42-.26.63.09-.21.17-.42.26-.63Z"/><path class="cls-1" d="M64.5,137.32c.18.22.36.44.55.67-.18-.22-.36-.44-.55-.67Z"/><path class="cls-1" d="M72.88,137.34c.17.1.34.2.5.3-.16.08-.33.15-.5.23,0-.18,0-.35,0-.53Z"/><path class="cls-2" d="M71.11,137.35c.21,0,.42-.02.62-.02,0,.08.02.16.02.24l-.65-.21Z"/><path class="cls-1" d="M63.98,136.69c.14.13.28.26.41.39-.21-.08-.42-.16-.63-.24.07-.05.14-.1.21-.15Z"/><path class="cls-1" d="M74.6,128.7c-.11-.19-.22-.38-.33-.56.11.19.22.38.33.56Z"/><path class="cls-5" d="M65.99,128.36c0,.22-.01.44-.02.65.02-.11.03-.22.05-.34,0-.1,0-.21-.02-.31h0Z"/><path class="cls-1" d="M63.43,135.01c0,.26,0,.53-.01.79,0-.26,0-.53.01-.79Z"/><path class="cls-1" d="M66.66,138.91c.16-.2.31-.41.47-.61-.16.2-.31.41-.47.61Z"/><path class="cls-1" d="M76.21,135.43c.13-.11.27-.22.4-.33-.13.11-.27.22-.4.33Z"/><path class="cls-1" d="M66,128.36c.01.1.02.21.02.31-.04-.07-.09-.14-.12-.22,0-.02.06-.06.09-.09Z"/><path class="cls-1" d="M74.23,128.07c-.09-.11-.17-.22-.26-.34.09.11.17.22.26.34Z"/><path class="cls-2" d="M152.89,117.3c-.99.23-1.58.36-2.17.5.59-.96-1.7-2.55,1-3.22-.26.81-.43,1.35-.64,2,.48.19.94.37,1.8.72Z"/><path class="cls-2" d="M44.41,85.2c1.02.94.06,1.53-.36,2.25-.29.49-.41,1.07-.65,1.75-.04-.05-.53-.33-.59-.69-.38-2.23-.35-2.23,1.6-3.31Z"/><polygon class="cls-5" points="68.88 124.88 68.8 125.01 68.74 124.95 68.88 124.88"/><path class="cls-6" d="M101.73,38.54c.15.21.29.42.44.63-.14.05-.28.11-.42.16-.02-.24-.05-.48-.07-.71,0,0,.05-.08.05-.08Z"/><path class="cls-2" d="M122.53,132.9c1.35-.8,2.36-1.49,2.04-3.02-.03-.13.95-.47,1.46-.72.04.4.26.93.08,1.18-.82,1.15-1.03,3.11-3.59,2.56Z"/><path class="cls-3" d="M106.84,124.27c-.23.4-.46,1.11-.71,1.12-.41.01-.84-.42-1.26-.67l.12-.45c.46-.12.92-.25,1.39-.37l.46.38Z"/><path class="cls-6" d="M81.7,96.46c-.16.17-.24.3-.35.34-.05.02-.2-.12-.25-.22-.02-.04.09-.21.16-.22.11-.02.23.05.44.1Z"/><path class="cls-6" d="M83.44,95.79c.17-.05.35-.09.52-.14-.11.12-.22.24-.33.36-.06-.08-.13-.15-.2-.23Z"/><path class="cls-6" d="M123.7,92.74c-.23.21-.45.42-.68.63-.06-.1-.13-.19-.19-.29.27-.14.53-.28.8-.42l.07.07Z"/><path class="cls-6" d="M123.63,92.66c.07-.04.14-.08.2-.12-.04.07-.09.13-.13.2,0,0-.07-.07-.07-.07Z"/><path class="cls-1" d="M72.73,130.69c-.53.5-1.07,1.01-1.6,1.51-.56-.05-1.13-.1-1.69-.15.02-1.52,1.09-2.26,3.29-2.27v.91Z"/><path class="cls-1" d="M74.85,134.4c.27-.42.55-.85.82-1.27.18.11.36.23.54.34-.28.42-.55.85-.83,1.27-.18-.11-.36-.23-.54-.34Z"/><path class="cls-1" d="M72.96,134.78c-1.11-.81.23-1.12.34-1.68-.11.56-.23,1.12-.34,1.68Z"/><path class="cls-1" d="M73.9,131.61c-.22-.33-.44-.65-.65-.98.3.27,1.41,0,.65.98Z"/><path class="cls-1" d="M69.82,134.62c-.09.1-.18.2-.28.31-.08-.1-.24-.25-.22-.3.05-.12.21-.2.32-.3.05.08.1.17.18.29Z"/><path class="cls-1" d="M71.47,134.12c-.15.21-.29.42-.44.63-.14-.11-.29-.21-.43-.32.29-.1.58-.21.87-.31Z"/><path class="cls-1" d="M67.72,128.15c.04-.09.06-.23.12-.25.06-.03.17.06.26.1-.04.09-.06.23-.12.25-.06.03-.17-.06-.26-.1Z"/><path class="cls-1" d="M70.03,128.47c-.09.03-.2.12-.26.09-.06-.03-.08-.17-.11-.25.09-.03.2-.12.26-.09.06.03.08.17.11.25Z"/><path class="cls-1" d="M64.93,134.03c-.04.09-.06.23-.12.25-.06.03-.17-.06-.26-.1.04-.09.06-.23.12-.25.06-.03.17.06.26.1Z"/><path class="cls-1" d="M70.78,135.71c-.1.1-.2.21-.31.31.1-.1.2-.21.31-.31Z"/><path class="cls-1" d="M71.03,135.09c-.07.12-.15.23-.22.35.07-.12.15-.23.22-.35Z"/></svg>