<?xml version="1.0" encoding="UTF-8"?><svg id="Layer_1" xmlns="http://www.w3.org/2000/svg" viewBox="0 0 217.04 211.89"><defs><style>.cls-1{fill:#bd7b9d;}.cls-1,.cls-2,.cls-3,.cls-4,.cls-5,.cls-6,.cls-7,.cls-8{stroke-width:0px;}.cls-2{fill:#f1f5f6;}.cls-3{fill:#e5cf4b;}.cls-4{fill:#efd14a;}.cls-5{fill:#26408e;}.cls-6{fill:#f7d14c;}.cls-7{fill:#fcf5f3;}.cls-8{fill:#2e428f;}</style></defs><path class="cls-5" d="M50.44,113.94c-1.34-1.24-2.68-2.49-4.02-3.73-.11-.12-.22-.23-.34-.35-.13-.15-.26-.3-.39-.45-.21-.3-.43-.61-.64-.91,0,0,.03.03.02.03-.17-.25-.33-.49-.5-.74,0,0,.01.01.01.01-.15-.32-.29-.64-.44-.95,4.11-1.07,8.34-1.87,11.99-4.17,2.32-1.46,4.13-3.47,4.53-6.37.09-.66-.09-1.35-.07-2.03.07-3.57-2.37-7.26-5.75-8.33-2.45-.78-4.96-1.46-7.49-1.87-4.02-.65-8.05-.46-11.83,1.24-1.57.7-3.02,1.69-4.52,2.55-.2-.26-.4-.53-.61-.79-.11-.12-.22-.23-.33-.35-.26-2.36-.53-4.72-.79-7.08-.01-.13-.02-.26-.04-.39-.1-2.81-.19-5.62-.29-8.43.1-.19.19-.38.29-.57.42-.88.83-1.76,1.25-2.65.09-.16.19-.32.28-.48.3-.62.6-1.24.9-1.86.1-.17.19-.33.29-.5.19-.39.39-.77.58-1.16.51-.03,1.04.01,1.53-.11,1.1-.27,2.19-.9,3.28-.9,2.31,0,4.61.42,6.92.48,1.05.03,2.51-.02,3.09-.66,1.23-1.38-.79-1.84-1.3-2.73-1.14-2-2.46-3.9-3.75-5.9,1.53-1.38,1.14-2.89.02-4.52,1.38-1.21,2.73-2.31,3.98-3.51,2.01-1.94,5.29-2.53,7.67-1.01,2.93,1.87,5.75,3.92,8.58,5.95,2.9,2.08,5.62,4.55,9.33,5.04.99.13,2.08-.3,3.08-.62.09-.03-.18-1.17-.28-1.8.14.08.28.16.42.24.46-.84,1.01-1.64,1.37-2.52.35-.87,3.5-2.48,4.28-1.97,1.84,1.21,3.99,2.21,5.34,3.85,2.6,3.15,4.84,6.61,7.04,10.07,1.05,1.64,1.91,3.2,4.15,3.24,1.65.03,3.35.42,4.93.14.64-.11.93-1.69,1.6-2.4.34-.36,1.25-.51,1.73-.33.62.23,1.14.84,1.58,1.39,3.31,4.1,5.08,8.86,5.95,14,.52,3.02,1.82,5.22,5.05,6.24,2.28.71,4.08,2.32,4.98,4.83.82,2.28.57,4.46.23,6.74-.53,3.57-3.34,6.53-6.91,7.38-1.08.26-2.04,1.01-3.05,1.54.06.31.12.61.18.92,1.28.19,2.62.7,3.85.51,3.96-.59,7.69-1.86,10.82-4.52-.1,1.04-.2,2.09-.29,3.13-.06.34-.13.68-.19,1.02.31-.07.63-.14.94-.2.28-.13.56-.25.84-.38.17-.08.35-.17.52-.25,0,0,0,.02,0,.02,0,0,.16,0,.16,0l.11-.12c.13-.04.26-.07.4-.11.18-.09.36-.18.53-.27.85-.29,1.7-.58,2.54-.87.31,1.04.43,2.19.96,3.1,1.76,2.96,4.45,4.58,7.86,5.02,8.92,1.13,17-1.25,24.47-6,2.39-1.51,4.64-3.24,7.29-5.12.35,2.56.67,4.9.98,7.25-.18.19-.36.39-.53.59-.11.12-.22.23-.33.35-3.85,3.79-7.7,7.58-11.56,11.36-1.07,1.04-2.16,2.06-3.24,3.08-.16.11-.33.22-.49.33-.49.28-.98.56-1.46.85-.18.1-.36.21-.55.31-.11-.03-.19,0-.25.1-.18.1-.36.19-.53.29-.23.11-.46.22-.68.33-.14-.06-.23,0-.27.15,0,0-.06.02-.06.02-.18.1-.36.19-.55.29h-.14s-.11.09-.11.09c-.19.1-.38.19-.57.29-2.42,1.07-4.84,2.14-7.26,3.21-.21.1-.43.2-.64.3-.18.06-.37.12-.55.18-.17.08-.33.17-.5.25-1.53.65-3.06,1.31-4.59,1.96-.22.11-.44.22-.65.32-.56.21-1.12.42-1.68.63-.43.2-.87.4-1.3.6,0,0-.16,0-.16,0,0,0-.12.1-.12.1-.26.11-.52.23-.78.34-.13.04-.27.08-.4.12-.15.08-.31.16-.46.24-.76.31-1.52.61-2.28.92-.16.08-.33.16-.49.25-.42.12-.85.24-1.27.36-.05-1.08-.05-2.16-.19-3.23-.05-.34-.45-.88-.72-.9-.42-.03-1.05.19-1.27.52-.99,1.47-1.87,3.01-2.79,4.53l-.53.24c-.45.03-.9.07-1.34.1-.26.02-.52.04-.77.05-1.04.03-2.09.05-3.13.08-.14.21-.28.42-.42.63-.67,1.37-1.34,2.74-2.01,4.11-.1.2-.21.4-.31.59l-.09.07s.01.12.01.12c-.1.2-.2.4-.3.59-.06.11-.11.23-.17.34-.06.15-.13.31-.2.46-.13.26-.26.52-.38.78-.13.26-.26.51-.39.77-.11.05-.14.13-.1.25-.09.18-.19.35-.28.53-.18.43-.37.86-.55,1.29-.12.21-.24.43-.37.64-.45.72-.91,1.45-1.36,2.17-.51.2-1.03.39-1.77.67-.08-.95-.17-1.7-.21-2.46-.25-4.8-2.42-9.09-8.15-9.41-.58-.03-1.14-.52-1.72-.77-.6-.26-1.22-.73-1.82-.7-4.73.21-8.36,2.48-11.23,6.14-2.45,3.12-2.78,6.75-2.66,10.5.05,1.49-.11,3.07,1.36,4.04,1.84,1.21,3.72,2.35,6.12,3.86-1.17.1-1.89.15-2.61.22-4.07.39-8.13.94-12.21,1.13-2.31.11-4.65-.44-6.99-.57-1.33-.07-2.68.1-4.45.19-.56-.44-1.27-2.16-3.03-.6-.21.18-.97.05-1.24-.2-2.09-1.83-4.38-1.01-6.65-.63-.37-.42-.74-.84-1.11-1.25-.14-.21-.27-.42-.41-.63,0,0,.04-.11.04-.11l-.13-.04c.14-.61.28-1.21.43-1.82.13-.1.27-.19.4-.29.78-.51,1.57-1.01,2.35-1.52.17-.11.34-.22.51-.33,0,0-.03.04-.03.04.25-.16.5-.32.76-.48,0,0-.03.02-.03.02.25-.16.5-.32.75-.48.26-.16.52-.32.78-.48.14-.1.28-.19.42-.29.64-.41,1.28-.83,1.93-1.24.16-.1.31-.21.47-.31.23-.15.46-.29.69-.44.16-.11.31-.22.47-.32,0,0-.04.03-.04.03.19-.13.39-.26.58-.39.45-.28.9-.56,1.34-.85.18-.12.36-.23.54-.35.12.03.2-.01.24-.13.14-.1.29-.2.43-.3.78-.49,1.56-.98,2.34-1.47.2-.14.4-.28.6-.43.31-.19.62-.37.94-.56.14-.1.28-.2.42-.29.51-.31,1.01-.62,1.52-.93.29-.2.58-.4.88-.61,1.83-1.18,3.66-2.35,5.5-3.53,0,0,.03.07.03.07v-.09c.36-.23.72-.47,1.08-.7.2-.14.4-.28.6-.41.2-.11.39-.23.59-.34.26-.17.52-.34.78-.51.64-.4,1.28-.8,1.92-1.21.17-.11.34-.22.51-.33.37-.24.74-.47,1.12-.71,0,0,.16,0,.16,0l.06-.15.1-.05c.15-.1.3-.2.44-.29,0,0-.02.01-.02.01.16-.11.32-.22.48-.34,0,0-.01.02-.01.02.21-.3.43-.59.65-.89.1-.06.14-.14.1-.25.1-.17.2-.35.29-.52.1-.05.14-.13.1-.24.09-.19.19-.37.28-.56,0,0,.02-.07.02-.07s.13-.08.13-.08l-.04-.14c.26-.52.51-1.04.77-1.56-.01-.4-.03-.8-.04-1.19-1.44-.26-2.88-.53-4.32-.79-.26-.04-.52-.08-.78-.12-.4.02-.8.04-1.19.07-.24-.09-.49-.18-.73-.27-.73-.2-1.46-.39-2.19-.59-.19-.08-.37-.15-.56-.23-.57-.2-1.13-.41-1.7-.61-.36-.15-.71-.29-1.07-.44-.77-.34-1.53-.68-2.3-1.02-.4-.25-.81-.51-1.21-.76-.87-.54-1.74-1.08-2.62-1.62-.17-.09-.34-.18-.51-.27-.28-.15-.57-.31-.85-.46-.37-.26-.74-.53-1.11-.79-.23-.14-.46-.29-.69-.43-.68-.42-1.36-.84-2.04-1.25-.38-.23-.76-.46-1.14-.68-.09-.14-.19-.27-.28-.41.16-1.13.07-2.38.54-3.37.93-1.98-.06-2.66-1.6-3.55-3.2-1.83-5.45-1.28-6.88,1.97-.23-.08-.47-.15-.7-.23,0,0,.03-.01.03-.01-.19-.09-.37-.18-.56-.26-.87-.53-1.75-1.07-2.63-1.6-.27-.17-.53-.34-.8-.51,0,0,.03.04.03.04-.17-.1-.34-.21-.51-.31-.16-.11-.32-.22-.49-.33-.09-.06-.19-.12-.28-.18ZM98.5,105c0-1.76.38-3.34-.06-4.62-2.5-7.2-5.2-14.33-7.85-21.48-1.09-2.93-1.56-6.43-3.51-8.59-1.95-2.16-5.39-2.98-8.17-4.38-.12-.06-.24-.11-.35-.18-1.72-1.1-3.53-1.41-5.58-1.06-2.56.44-5.19.52-7.76.94-.74.12-1.66.72-2.02,1.37-1.38,2.51-2.46,5.18-3.87,7.67-.84,1.49-.64,2.52.32,3.85,2.56,3.53,4.93,7.21,7.46,10.77.66.92,1.53,1.78,2.48,2.38,5.3,3.33,10.73,6.45,15.95,9.89,3.93,2.58,8.43,2.25,12.95,3.45ZM131.97,114.03c-1.03.07-1.84.06-2.64.19-2.94.5-5.86,1.12-8.82,1.54-2.17.31-3.74-.81-4.97-2.52-.44-.61-1.41-1.65-1.47-1.6-1.15.87-2.98-.08-3.87,1.64-.81,1.55-1.26,2.83-.34,4.53.52.98.56,2.28.58,3.43.01.68-.23,1.63-.71,2.01-2.77,2.21-6.03,3.43-9.52,3.24-5.13-.28-9.28-2.67-12.4-6.83-1.86-2.48-4.11-4.71-5.64-7.37-1.43-2.49-2.25-5.36-3.13-8.13-.41-1.28-.27-2.72-.54-4.06-.11-.53-.64-.98-.98-1.47-.43.34-1.03.59-1.25,1.03-1.11,2.21-1.49,4.53-.93,7,1.4,6.21,4.43,11.6,8.96,15.94,2.82,2.7,6.11,5.07,9.55,6.91,3.8,2.03,7.96,1.71,12.15.41,3.79-1.18,6.64-3.11,8.17-6.84.33-.81.82-1.56,1.21-2.3,6.98,1.51,15.33-1.73,16.61-6.75Z"/><path class="cls-6" d="M175.33,108.93c-.32-2.35-.64-4.69-.98-7.25-2.66,1.87-4.91,3.6-7.29,5.12-7.47,4.74-15.55,7.13-24.47,6-3.41-.43-6.1-2.06-7.86-5.02-.54-.9-.65-2.06-.96-3.1.02-.11.04-.22.07-.32.55-.26,1.11-.52,1.66-.78.74-.31,1.49-.62,2.23-.93.47-.1.94-.2,1.4-.3.63,2.16,5.36,5.06,7.89,4.65,3.05-.49,6.05-1.27,9.09-1.79,4.82-.83,8.81-3.45,12.89-5.88.3-.18.49-.55,1.06-1.22-1.86-.88-3.43-2.02-5.15-2.37-5.99-1.21-12.01-1.15-17.95.47,1.49-1.61,2.98-3.22,4.48-4.82.13-.13.26-.26.39-.39.13-.13.26-.25.39-.38.14-.13.28-.26.41-.4.13-.12.26-.23.39-.35.23-.07.45-.13.68-.2,1.42,1.6,3.36,1.01,4.91.73,2.14-.39,4.14-1.41,6.03.51.15.15.51.05.75.14,1.8.67,3.56,1.54,5.41,1.99,1.48.36,3.55.87,4.54.16,2.86-2.05,5.09-4.9,5.88-8.44,1.66-7.42-2.8-12.63-8.17-15.65-.42-.24-1.2-.15-1.67.08-.98.49-1.95,1.06-2.76,1.79-3.15,2.83-6.95,4.24-10.97,5.2.05-2.38.09-4.76.14-7.14.59.36,1.19.73,1.78,1.09-.14-.49-.28-.98-.45-1.58,1.61-.18,3.37-.37,5.1-.56v-1.58h-6.49c-.07-.45-.15-.9-.22-1.34-.07-1.15-.15-2.3-.22-3.45,0-.53-.02-1.06-.03-1.59.11-.14.22-.28.34-.42,4.25-.16,8.54-1.04,12.62,1.08.58.3,1.6.17,2.22-.14,2.95-1.51,4.54-4.08,5.06-7.28.11-.69-.22-1.48-.42-2.21-.53-1.89-1.67-3.32-2.95-4.84-2.5-2.99-5.59-4.75-9.18-6.18.1-.27.24-.69.39-1.11.22-.09.45-.17.67-.26.26-.04.51-.09.77-.13,1.67-.01,3.35-.02,5.02-.03.26,0,.51,0,.77,0,.92-.02,1.84-.05,2.76-.07.38-.02.75-.04,1.13-.05.33.06.65.11.98.17.45.54.84,1.13,1.35,1.59,1.68,1.52,2.82,3.29,2.84,5.64.02,1.91.1,3.82.06,5.73-.07,3.43-.73,6.69-2.77,9.58-.45.64-.62,1.48-.93,2.25,2.22.7,1.92,1.03,4.64,3.5,2.95,2.68,2.82,6.15,3.66,9.42-.27,2.69-.53,5.38-.8,8.07,0,0,0,0,0,0-.13.39-.25.78-.38,1.17,0,0-.01.03-.01.03-.5,1.16-.99,2.32-1.49,3.48-.27.58-.46,1.22-.81,1.75-1.49,2.25-3.06,4.45-4.53,6.72-.32.49-.51,1.17-.49,1.76.08,2.05.28,4.09.44,6.13-.05.27-.09.55-.14.82-.13.16-.27.32-.4.49-.14.17-.28.33-.42.5-.1.1-.19.19-.29.29,0,0-.08.09-.08.09-.09.1-.19.21-.29.31,0,0-.1.1-.1.1-.09.09-.18.17-.28.26-.3.24-.6.47-.9.71Z"/><path class="cls-6" d="M128.21,102.7c-3.12,2.66-6.86,3.94-10.82,4.52-1.23.18-2.56-.32-3.85-.51-.06-.31-.12-.61-.18-.92,1.01-.53,1.97-1.29,3.05-1.54,3.57-.85,6.39-3.81,6.91-7.38.33-2.27.58-4.46-.23-6.74-.9-2.51-2.7-4.11-4.98-4.83-3.23-1.01-4.54-3.21-5.05-6.24-.88-5.14-2.64-9.9-5.95-14-.44-.55-.96-1.16-1.58-1.39-.49-.18-1.39-.03-1.73.33-.67.71-.96,2.28-1.6,2.4-1.58.28-3.28-.12-4.93-.14-2.24-.04-3.1-1.6-4.15-3.24-2.2-3.45-4.44-6.92-7.04-10.07-1.36-1.64-3.5-2.64-5.34-3.85-.78-.51-3.93,1.1-4.28,1.97-.36.88-.91,1.69-1.37,2.52-.14-.08-.28-.16-.42-.24.1.63.37,1.77.28,1.8-1,.32-2.08.75-3.08.62-3.72-.49-6.43-2.95-9.33-5.04-2.83-2.03-5.64-4.08-8.58-5.95-2.39-1.52-5.67-.93-7.67,1.01-1.25,1.21-2.61,2.31-3.98,3.51,1.13,1.63,1.52,3.14-.02,4.52,1.28,2,2.6,3.9,3.75,5.9.51.89,2.54,1.35,1.3,2.73-.57.64-2.04.69-3.09.66-2.31-.06-4.62-.47-6.92-.48-1.09,0-2.18.62-3.28.9-.49.12-1.02.08-1.53.11,0,0-.18-.03-.18-.03.16-.65.31-1.3.47-1.94.77-1.31,1.54-2.61,2.31-3.92.38-.53.76-1.06,1.14-1.59.04-.73-.13-1.55.15-2.16,1.01-2.14,2.42-4.13,3.24-6.33,1.06-2.83,3.88-3.67,5.67-5.63.18-.1.36-.2.53-.3,1.38-.8,2.76-1.6,4.14-2.4.11.06.23.1.35.13,6.12,1.7,11.57,4.76,16.79,8.6.62-.97.99-1.74,1.53-2.37,1.22-1.42,2.49-2.84,4.65-2.65,9.76.85,17.65,5.18,23.37,13.09,1.19,1.65,2.3,1.76,3.97,1.81,5.5.18,10.46,1.65,13.85,6.46.86,1.22,1.88,2.33,2.82,3.5.13.14.26.28.4.42.03.13.06.26.09.39,0,.25.01.5.02.75.5,1.05,1,2.1,1.5,3.14,0,0,0,0,0,0,.13.27.25.55.38.82,0,.11,0,.21.01.32.61,2.24,1.2,4.48,1.87,6.7.09.31.56.5.86.75.06.15.12.31.18.46.06.12.13.23.19.35.11.29.22.58.32.86,0,0-.03.14-.03.14l.14.08c.12.29.25.58.37.87.03.13.06.26.09.38.19.55.38,1.09.56,1.64,0,0,0,.16,0,.16l.15.08c.18.56.36,1.12.54,1.68.08.12.15.24.23.35.07.28.14.56.21.84.06.1.12.21.18.31.31.92.62,1.84.93,2.76.34.79.68,1.58,1.02,2.38.03.13.05.27.07.4.1.52.2,1.04.3,1.57.03.78.06,1.56.09,2.35.1.52.21,1.04.31,1.56-.03.76-.06,1.53-.1,2.29Z"/><path class="cls-6" d="M55.9,163.3c2.27-.38,4.56-1.2,6.65.63.28.24,1.04.38,1.24.2,1.76-1.56,2.47.16,3.03.6,1.77-.09,3.12-.26,4.45-.19,2.33.13,4.67.68,6.99.57,4.08-.19,8.14-.74,12.21-1.13.72-.07,1.44-.12,2.61-.22-2.4-1.51-4.28-2.65-6.12-3.86-1.47-.97-1.32-2.55-1.36-4.04-.11-3.76.21-7.38,2.66-10.5,2.88-3.66,6.51-5.93,11.23-6.14.59-.03,1.22.44,1.82.7.58.25,1.13.73,1.72.77,5.73.32,7.9,4.6,8.15,9.41.04.76.13,1.51.21,2.46.75-.28,1.26-.48,1.77-.67,0,.21,0,.42.01.63-.05.12-.09.24-.14.36,0,0,0,0,0,0-.12.26-.23.52-.35.78-.16.34-.31.69-.47,1.03-.18.19-.36.37-.54.56-1.12,1.28-2.24,2.55-3.36,3.83-.14.15-.28.3-.42.45-.63.56-1.27,1.11-1.9,1.67-.13.1-.27.2-.4.3-.12.05-.25.11-.37.16-.68.46-1.36.92-2.04,1.37-1.03.65-2.07,1.3-3.1,1.96-.85.53-1.71,1.06-2.56,1.59-.09.02-.16.07-.21.14-.11.07-.22.15-.33.23-1.68,1.07-3.36,2.13-5.05,3.2-.58-.04-1.17-.14-1.75-.12-4.59.19-9.21.89-13.75.51-5.97-.5-11.88-1.82-17.81-2.79,0,0-.14-.02-.14-.02-.34-.49-.68-.98-1.02-1.47,0,0-.05-.06-.05-.06-.23-.38-.46-.75-.69-1.13-.09-.16-.18-.31-.26-.47,0,0,0-.15,0-.15l-.15-.06c-.02-.08-.06-.15-.13-.19-.1-.28-.2-.57-.31-.86ZM101.6,154.91c1.23-.18,2.67-.29,4.03-.66.41-.11.96-1.04.86-1.43-.21-.76-.71-1.55-1.3-2.09-2.33-2.14-5.26-2.96-8.28-2.67-1.7.17-3.42,1.14-4.9,2.11-1.28.84-.96,1.91.34,2.76,2.79,1.83,5.95,1.72,9.25,1.97Z"/><path class="cls-5" d="M117.32,67.89c-.94-1.16-1.96-2.27-2.82-3.5-3.39-4.81-8.35-6.28-13.85-6.46-1.67-.06-2.77-.16-3.97-1.81-5.72-7.92-13.62-12.24-23.37-13.09-2.16-.19-3.43,1.23-4.65,2.65-.54.62-.91,1.39-1.53,2.37-5.22-3.84-10.67-6.9-16.79-8.6.16-.17.32-.35.48-.52.14-.1.27-.19.41-.29,0,0,.13.02.13.02l.04-.13c.33-.24.66-.47.99-.71.12-.05.24-.09.35-.14.78-.1,1.56-.2,2.34-.3.26-.03.52-.06.78-.08.91-.1,1.83-.2,2.74-.3.26-.03.52-.06.78-.09,2.09-.23,4.18-.45,6.27-.68.26-.03.52-.06.78-.1.91-.09,1.83-.18,2.74-.27.26-.04.53-.07.79-.11.91-.09,1.82-.18,2.74-.28.26-.04.53-.07.79-.11.78-.06,1.56-.12,2.35-.18.53-.02,1.06-.04,1.59-.06,1.18.2,2.35.4,3.53.59.26.1.52.2.77.3,4.56.57,8.27,3.22,12.35,4.99,1.37.6,2.71,1.25,4.07,1.88.26.13.51.26.77.39,0,0-.02-.02-.02-.02.41.22.82.43,1.24.65.39.17.77.34,1.16.51.26.13.52.25.79.38,1.43.91,2.86,1.82,4.29,2.73.13.15.26.29.4.44.23.26.45.52.68.78.16.16.31.32.47.48.09.11.17.21.26.32.2.22.4.43.59.65.75.82,1.5,1.63,2.25,2.45.14.16.28.33.42.49,1.04,2.18,2.08,4.37,3.13,6.55.04.12.08.24.13.37.28.78.56,1.57.83,2.35.35.92.71,1.83,1.06,2.75.24.91.49,1.82.73,2.73Z"/><path class="cls-5" d="M157.65,76.2c4.02-.96,7.82-2.37,10.97-5.2.81-.72,1.78-1.3,2.76-1.79.47-.23,1.25-.32,1.67-.08,5.37,3.02,9.83,8.23,8.17,15.65-.79,3.54-3.02,6.39-5.88,8.44-.99.71-3.06.19-4.54-.16-1.86-.45-3.61-1.32-5.41-1.99-.24-.09-.6,0-.75-.14-1.89-1.93-3.89-.9-6.03-.51-1.54.28-3.49.87-4.91-.73.17-.34.33-.68.5-1.02.28-1.09.57-2.19.85-3.28.08-.21.16-.42.23-.63.16-.64.32-1.29.47-1.93.2-.67.39-1.34.59-2,.05-.26.1-.52.15-.78.09-.26.18-.52.26-.78.18-.78.37-1.55.55-2.33.04-.02.12-.05.12-.07,0-.09-.01-.18-.02-.26.08-.13.16-.25.24-.38Z"/><path class="cls-5" d="M165.34,38.95c-.15.42-.29.83-.39,1.11,3.59,1.43,6.68,3.19,9.18,6.18,1.28,1.53,2.42,2.95,2.95,4.84.2.72.54,1.51.42,2.21-.53,3.2-2.11,5.77-5.06,7.28-.62.32-1.65.44-2.22.14-4.08-2.11-8.37-1.24-12.62-1.08-.1-.9-.2-1.8-.3-2.7-.09-3.39-.17-6.78-.26-10.17-.04-1.05-.08-2.1-.12-3.15,0-1.43,0-2.86,0-4.29.25-.14.51-.28.76-.41,2.55.01,5.11.02,7.66.03Z"/><path class="cls-6" d="M30.99,87.87c1.5-.86,2.95-1.85,4.52-2.55,3.79-1.7,7.81-1.89,11.83-1.24,2.53.41,5.04,1.09,7.49,1.87,3.38,1.08,5.82,4.77,5.75,8.33-.01.68.16,1.37.07,2.03-.4,2.89-2.22,4.91-4.53,6.37-3.65,2.3-7.88,3.1-11.99,4.17-.14.02-.28.05-.42.07-.73-.89-1.47-1.77-2.2-2.66-.16-.25-.31-.5-.47-.74-.03-.36-.07-.71-.1-1.07,1.96-.6,3.92-1.17,5.87-1.8,2.61-.83,4.48-2.41,6-4.82,2.17-3.44-.16-7.76-4.31-8.05-3.51-.24-6.71.73-9.64,2.67-.76.5-1.64.83-2.46,1.24-.14-.13-.28-.25-.42-.38.08.17.17.35.25.52-.37.69-.74,1.39-1.11,2.08-.13-.03-.25-.07-.38-.1-.51-.68-1.02-1.37-1.53-2.05-.2-.29-.4-.59-.6-.88-.33-.49-.66-.97-.99-1.46-.24-.32-.49-.64-.73-.97.03-.2.06-.4.09-.6Z"/><path class="cls-5" d="M146.96,96.21c5.95-1.62,11.96-1.67,17.95-.47,1.72.35,3.29,1.49,5.15,2.37-.57.67-.76,1.04-1.06,1.22-4.08,2.43-8.07,5.05-12.89,5.88-3.04.52-6.04,1.3-9.09,1.79-2.53.41-7.26-2.5-7.89-4.65.37-.24.73-.48,1.1-.71.34-.15.68-.31,1.02-.46.2-.1.4-.21.6-.31.33-.25.67-.51,1-.76.15-.15.3-.3.45-.45.11-.11.22-.22.33-.34.15-.15.31-.29.46-.44.11-.12.22-.23.33-.35.62-.61,1.24-1.22,1.86-1.83,0,0,.05-.09.05-.09.21-.15.41-.29.62-.44v.04Z"/><path class="cls-5" d="M58.64,167.71c5.93.97,11.84,2.3,17.81,2.79,4.54.38,9.16-.31,13.75-.51.58-.02,1.16.08,1.75.12-.68.47-1.36.94-2.03,1.41-.26.17-.51.33-.77.5,0,0,.02-.01.02-.01-.16.11-.33.22-.49.33,0,0,.02-.03.02-.03-.48.31-.96.61-1.44.92-.28.18-.55.35-.83.53-.12.08-.24.17-.36.25,0,0,0,0,0,0-.16.12-.32.23-.49.35-1.67,1.07-3.34,2.14-5,3.21-.15.1-.31.2-.46.3,0,0,.02-.02.02-.02-.64.41-1.28.83-1.92,1.24-.26.16-.52.32-.78.47-.14.1-.28.2-.42.29,0,0,.02-.01.02-.01-.41.26-.82.52-1.22.79-1.02.66-2.04,1.33-3.06,1.99-.18.11-.35.22-.53.34-.22.14-.43.28-.65.43-.18.12-.36.23-.54.35-.56.27-1.13.53-1.69.8-.15-.18-.29-.37-.44-.55-.38-.6-.76-1.2-1.14-1.79-.14-.2-.28-.4-.41-.6-.11-.2-.23-.39-.34-.59.05-.14,0-.23-.15-.26,0,0-.04-.07-.04-.07-.1-.15-.21-.3-.31-.45-.25-.38-.5-.77-.75-1.15-.12-.19-.24-.39-.37-.58.03-.1,0-.17-.11-.19-.12-.13-.23-.25-.35-.38-.2-.28-.4-.56-.6-.84-.07-.2-.15-.4-.22-.61-.45-.71-.91-1.43-1.36-2.14-.18-.27-.35-.53-.53-.8-.15-.24-.3-.47-.44-.71-.11-.17-.22-.34-.33-.51-.24-.37-.47-.73-.71-1.1-.17-.25-.33-.5-.5-.75,0,0,0,0,0,0-.26-.4-.52-.81-.77-1.21-.26-.52-.53-1.04-.79-1.56Z"/><path class="cls-5" d="M35.13,93.92c.37-.69.74-1.39,1.11-2.08.05-.05.11-.1.16-.14.82-.41,1.7-.74,2.46-1.24,2.93-1.94,6.14-2.92,9.64-2.67,4.15.29,6.48,4.61,4.31,8.05-1.52,2.41-3.39,3.98-6,4.82-1.95.62-3.91,1.2-5.87,1.8-1.02-1.47-2.04-2.94-3.06-4.4-.12-.18-.24-.36-.36-.54-.15-.21-.3-.42-.44-.63l-.79-1.16c-.11-.14-.21-.28-.32-.43-.16-.21-.31-.42-.47-.63-.15-.17-.3-.34-.45-.52.08-.06.1-.13.06-.21Z"/><path class="cls-8" d="M186.29,76.27c-.85-3.27-.71-6.74-3.66-9.42-2.72-2.47-2.42-2.81-4.64-3.5.31-.76.48-1.6.93-2.25,2.04-2.88,2.7-6.15,2.77-9.58.04-1.91-.04-3.82-.06-5.73-.02-2.35-1.16-4.11-2.84-5.64-.51-.46-.9-1.06-1.35-1.59.1.03.17,0,.21-.09l2.37-.12c1.87-.06,3.73-.11,5.6-.17.09.11.18.21.27.32.33,9.96.66,19.92.99,29.89.07,2.22.13,4.43.19,6.65-.26.41-.53.82-.79,1.23Z"/><path class="cls-4" d="M56.33,117.34c1.43-3.25,3.68-3.81,6.88-1.97,1.54.88,2.53,1.56,1.6,3.55-.47.99-.38,2.24-.54,3.37-.07.02-.13.06-.19.09-.49-.29-.97-.58-1.46-.87-.15-.1-.31-.2-.46-.31,0,0-.1-.06-.1-.06-.1-.06-.19-.13-.29-.19-1.58-.98-3.17-1.96-4.75-2.94-.24-.22-.47-.45-.71-.67Z"/><path class="cls-8" d="M178.23,105.36c-.15-2.04-.35-4.09-.44-6.13-.02-.58.17-1.26.49-1.76,1.47-2.26,3.03-4.47,4.53-6.72.35-.53.55-1.16.81-1.74.15.26.31.52.46.78-.15.41-.29.81-.44,1.22,0,.26,0,.52,0,.78-.02.13-.04.25-.06.38-.31,1.21-.63,2.43-.94,3.65-.07.22-.15.44-.22.66-.18.7-.35,1.41-.53,2.11-.07.21-.14.42-.21.62-.06.3-.13.61-.19.91-.12.21-.23.43-.35.64,0,0,0-.02,0-.02-.15.25-.29.5-.44.75,0,0,.03-.01.03-.01-.1.16-.21.33-.31.49-.3.51-.6,1.02-.9,1.52-.09.15-.17.29-.26.44-.15.26-.29.51-.44.77-.16.24-.31.47-.47.71l-.12-.04Z"/><path class="cls-3" d="M125.89,138.06c.92-1.52,1.8-3.06,2.79-4.53.22-.33.85-.54,1.27-.52.27.02.67.56.72.9.14,1.07.14,2.15.19,3.23-.19.15-.38.3-.56.45-.4.14-.8.27-1.21.41-1.04.13-2.07.26-3.11.38-.04-.1-.07-.21-.1-.32Z"/><path class="cls-8" d="M157.74,66.43h6.49v1.58c-1.73.19-3.49.38-5.1.56.17.6.31,1.09.45,1.58-.59-.36-1.19-.73-1.78-1.09-.05-.12-.1-.25-.14-.37.02-.77.03-1.54.05-2.31,0,0,.05.06.05.06Z"/><path class="cls-1" d="M186.29,76.27c.26-.41.53-.82.79-1.23.08.48.16.96.24,1.44-.06.41-.13.81-.19,1.22-.04.71-.08,1.43-.13,2.14-.08.19-.15.38-.23.57-.43,1.31-.85,2.62-1.28,3.92.27-2.69.53-5.38.8-8.07Z"/><path class="cls-2" d="M122.44,81.18c-.3-.25-.77-.44-.86-.75-.67-2.22-1.25-4.46-1.87-6.7.91,2.48,1.82,4.97,2.73,7.45Z"/><path class="cls-2" d="M187.12,77.7c.06-.41.13-.81.19-1.22,1.82.35,1.39,1.47.99,2.8-.49-.65-.84-1.12-1.19-1.58Z"/><path class="cls-1" d="M184.08,89.79c-.15-.26-.31-.52-.46-.78.5-1.16.99-2.32,1.49-3.48-.26,1.43-.52,2.85-.78,4.28-.09.03-.17.02-.25-.02Z"/><path class="cls-7" d="M127.54,94.53c-.34-.79-.68-1.58-1.02-2.38.45,0,.9,0,1.65,0-.23.88-.43,1.63-.63,2.38Z"/><path class="cls-2" d="M157.3,56.93c.1.9.2,1.8.3,2.7-.11.14-.22.28-.34.42.01-1.04.02-2.08.03-3.11Z"/><path class="cls-2" d="M156.92,43.62c.04,1.05.08,2.1.12,3.15-.04-1.05-.08-2.1-.12-3.15Z"/><path class="cls-2" d="M157.3,61.64c.07,1.15.15,2.3.22,3.45-.07-1.15-.15-2.3-.22-3.45Z"/><path class="cls-2" d="M32.81,61.64c-.16.65-.31,1.3-.47,1.94-.35-.18-.71-.36-1.06-.54.51-.47,1.02-.94,1.53-1.41Z"/><path class="cls-2" d="M97.54,166.55c.85-.53,1.71-1.06,2.56-1.59-.85.53-1.71,1.06-2.56,1.59Z"/><path class="cls-2" d="M157.69,66.37c-.02.77-.03,1.54-.05,2.31-.23-.78-2.11-1.59.05-2.31Z"/><path class="cls-2" d="M119.32,72.6c-.5-1.05-1-2.1-1.5-3.14.5,1.05,1,2.1,1.5,3.14Z"/><path class="cls-2" d="M116.59,65.15c-.35-.92-.71-1.83-1.06-2.75.35.92.71,1.83,1.06,2.75Z"/><path class="cls-2" d="M146.28,96.7c-.62.61-1.24,1.22-1.86,1.83-.03-1.27.34-2.13,1.86-1.83Z"/><path class="cls-2" d="M65.7,123.38c.68.42,1.36.84,2.04,1.25-.91-.04-2.18.5-2.04-1.25Z"/><path class="cls-2" d="M140.22,101.63c-.37.24-.73.48-1.1.71-.47.1-.94.2-1.4.3.83-.34,1.67-.68,2.5-1.02Z"/><path class="cls-2" d="M55.9,163.3c.1.29.21.57.31.86-.47-.7-.94-1.41-1.41-2.11.37.42.74.84,1.11,1.25Z"/><path class="cls-7" d="M103.2,163.01c.68-.46,1.36-.92,2.04-1.37-.09,1.34-1.04,1.39-2.04,1.37Z"/><path class="cls-2" d="M78.2,179.1c.64-.41,1.28-.83,1.92-1.24-.64.41-1.28.83-1.92,1.24Z"/><path class="cls-2" d="M36.26,56.13c-.38.53-.76,1.06-1.14,1.59.38-.53.76-1.06,1.14-1.59Z"/><path class="cls-2" d="M77.44,35.13c-.53.02-1.06.04-1.59.06.53-.02,1.06-.04,1.59-.06Z"/><path class="cls-2" d="M129.1,137.99c.4-.14.8-.27,1.21-.41-.22.35-.45.7-.67,1.05-.18-.21-.36-.43-.54-.64Z"/><path class="cls-2" d="M57.48,166.22c.34.49.68.98,1.02,1.47-.34-.49-.68-.98-1.02-1.47Z"/><path class="cls-2" d="M184.08,89.79c.08.04.16.04.25.02.76.97.19,1.17-.69,1.2.15-.41.29-.81.44-1.22Z"/><path class="cls-7" d="M135.49,103.58c-.55.26-1.11.52-1.66.78.55-.26,1.11-.52,1.66-.78Z"/><path class="cls-2" d="M56.33,117.34c.24.22.47.45.71.67-.73.19-1.49.43-1.58-.74.05-.05.11-.1.16-.15h.02c.23.07.47.14.7.22Z"/><path class="cls-2" d="M180.03,38.35l-2.37.12c.79-.04,1.58-.08,2.37-.12Z"/><path class="cls-2" d="M154.2,88.65c-.17.34-.33.68-.5,1.02-.23.07-.46.13-.68.2.39-.41.79-.81,1.18-1.22Z"/><path class="cls-2" d="M156.35,80.81c-.2.67-.39,1.34-.59,2,.2-.67.39-1.34.59-2Z"/><path class="cls-2" d="M87.24,173.24c.48-.31.96-.61,1.44-.92-.48.31-.96.61-1.44.92Z"/><path class="cls-7" d="M32.62,90.89c.2.29.4.59.6.88-.33-.08-.67-.15-1-.23.13-.22.26-.44.4-.65Z"/><path class="cls-2" d="M89.56,132.97c.01.4.03.8.04,1.19-.01-.4-.03-.8-.04-1.19Z"/><path class="cls-2" d="M136.83,134.81c.43-.2.87-.4,1.3-.6-.43.2-.87.4-1.3.6Z"/><path class="cls-2" d="M73.51,128.21c.4.25.81.51,1.21.76-.4-.25-.81-.51-1.21-.76Z"/><path class="cls-2" d="M68.42,125.06c.37.26.74.53,1.11.79-.37-.26-.74-.53-1.11-.79Z"/><path class="cls-2" d="M56.74,165.02c.23.38.46.75.69,1.13-.23-.38-.46-.75-.69-1.13Z"/><path class="cls-2" d="M59.43,169.27c.26.4.52.81.77,1.21-.26-.4-.52-.81-.77-1.21Z"/><path class="cls-2" d="M43.72,106.92c.14-.02.28-.05.42-.07.14.32.29.64.44.96-.29-.29-.57-.59-.86-.88Z"/><path class="cls-2" d="M75.79,180.64c.41-.26.82-.52,1.22-.79-.41.26-.82.52-1.22.79Z"/><path class="cls-2" d="M128.67,106.64c-.31.07-.63.14-.94.2.06-.34.13-.68.19-1.02.25.27.5.54.75.81Z"/><path class="cls-2" d="M36.3,95.71c.26.39.53.77.79,1.16-.26-.39-.53-.77-.79-1.16Z"/><path class="cls-2" d="M115.85,147c.13-.26.26-.51.39-.77-.13.26-.26.51-.39.77Z"/><path class="cls-2" d="M73.98,147.04c-.29.2-.58.4-.88.61.29-.2.58-.4.88-.61Z"/><path class="cls-2" d="M132.08,138.27c-.05.11-.09.22-.14.33-.11-.05-.28-.07-.31-.15-.03-.08.08-.21.12-.32.11.05.22.09.32.14Z"/><path class="cls-2" d="M156.76,79.24c-.09.26-.18.52-.26.78l.26-.78Z"/><path class="cls-2" d="M87.95,137.6c-.22.3-.43.59-.65.89.22-.3.43-.59.65-.89Z"/><path class="cls-2" d="M84.45,132.06c.26.04.52.08.78.12-.26-.04-.52-.08-.78-.12Z"/><path class="cls-2" d="M82.53,131.86c.24.09.49.18.73.27-.24-.09-.49-.18-.73-.27Z"/><path class="cls-2" d="M73.5,35.37c-.26.04-.53.07-.79.11.26-.04.53-.07.79-.11Z"/><path class="cls-2" d="M77.02,129.99c.36.15.71.29,1.07.44-.36-.15-.71-.29-1.07-.44Z"/><path class="cls-2" d="M69.98,35.76c-.26.04-.53.07-.79.11.26-.04.53-.07.79-.11Z"/><path class="cls-2" d="M81.74,36.03c-.26-.1-.52-.2-.77-.3.26.1.52.2.77.3Z"/><path class="cls-2" d="M66.45,36.14c-.26.03-.52.06-.78.1.26-.03.52-.06.78-.1Z"/><path class="cls-2" d="M102.09,44.81c-.26-.13-.52-.25-.79-.38.26.13.52.25.79.38Z"/><path class="cls-2" d="M45.05,108.5c.21.3.43.61.64.91-.21-.3-.43-.61-.64-.91Z"/><path class="cls-2" d="M178.35,105.4c.16-.24.31-.47.47-.71-.16.24-.31.47-.47.71Z"/><path class="cls-2" d="M41.06,103.51c.16.25.31.5.47.74-.16-.25-.31-.5-.47-.74Z"/><path class="cls-2" d="M100.14,43.92c-.41-.22-.82-.43-1.24-.65.41.22.82.43,1.24.65Z"/><path class="cls-7" d="M128.31,100.41c-.1-.52-.21-1.04-.31-1.56.1.52.21,1.04.31,1.56Z"/><path class="cls-2" d="M59.4,36.92c-.26.03-.52.06-.78.09.26-.03.52-.06.78-.09Z"/><path class="cls-2" d="M55.87,37.31c-.26.03-.52.06-.78.08.26-.03.52-.06.78-.08Z"/><path class="cls-7" d="M127.91,96.5c-.1-.52-.2-1.04-.3-1.57.1.52.2,1.04.3,1.57Z"/><path class="cls-2" d="M172.57,38.52c-.26,0-.51,0-.77,0,.16-.2.32-.4.47-.61.1.2.2.4.3.6Z"/><path class="cls-7" d="M30.9,88.47c.24.32.49.64.73.97-.24-.32-.49-.64-.73-.97Z"/><path class="cls-2" d="M180.7,101.49c.15-.25.29-.5.44-.75-.15.25-.29.5-.44.75Z"/><path class="cls-2" d="M176.46,38.39c-.38.02-.75.04-1.13.05.38-.02.75-.04,1.13-.05Z"/><path class="cls-1" d="M185.12,85.51c.13-.39.25-.78.38-1.17-.13.39-.25.78-.38,1.17Z"/><path class="cls-2" d="M98.93,43.29c-.26-.13-.51-.26-.77-.39.26.13.51.26.77.39Z"/><path class="cls-2" d="M50.82,38.93c-.16.17-.32.35-.48.52-.12-.03-.24-.07-.35-.13.27-.13.55-.26.82-.39Z"/><path class="cls-2" d="M157.68,38.91c-.25.14-.51.28-.76.41.25-.14.51-.28.76-.41Z"/><path class="cls-2" d="M119.7,73.42c-.13-.27-.25-.55-.38-.82.13.27.25.55.38.82Z"/><path class="cls-2" d="M155.34,60.36s-.09-.07-.13-.11c.05-.03.11-.08.15-.08.05,0,.09.07.14.1-.05.03-.1.06-.16.08Z"/><path class="cls-2" d="M64.07,176.5c.07.2.15.4.22.61-.07-.2-.15-.4-.22-.61Z"/><path class="cls-2" d="M62.18,173.56c.18.27.35.53.53.8-.18-.27-.35-.53-.53-.8Z"/><path class="cls-2" d="M89.14,172.03c.26-.17.51-.33.77-.5-.26.17-.51.33-.77.5Z"/><path class="cls-2" d="M60.2,170.48c.17.25.33.5.5.75-.17-.25-.33-.5-.5-.75Z"/><path class="cls-2" d="M108.78,50.2c-.2-.22-.4-.43-.59-.65.2.22.4.43.59.65Z"/><path class="cls-2" d="M117.8,68.7c-.03-.13-.06-.26-.09-.39.18.04.36.09.54.13-.15.09-.3.18-.45.26Z"/><path class="cls-2" d="M58.7,156.85c-.25.16-.5.32-.76.48.25-.16.5-.32.76-.48Z"/><path class="cls-2" d="M59.42,156.4c-.25.16-.5.32-.75.48.25-.16.5-.32.75-.48Z"/><path class="cls-7" d="M111.69,155.24c.18-.18.36-.37.54-.56-.18.18-.36.37-.54.56Z"/><path class="cls-7" d="M112.7,153.65c.12-.26.23-.52.35-.78-.12.26-.23.52-.35.78Z"/><path class="cls-2" d="M116.62,145.44c.07-.15.13-.31.2-.46.09.08.19.15.28.23l-.48.23Z"/><path class="cls-2" d="M166.78,38.55c-.26.05-.51.09-.77.13.26-.05.51-.09.77-.13Z"/><path class="cls-2" d="M82.55,141.53c-.26.17-.52.34-.78.51.26-.17.52-.34.78-.51Z"/><path class="cls-2" d="M123.25,138.45c.26-.02.52-.04.77-.05-.26.02-.52.04-.77.05Z"/><path class="cls-2" d="M119.7,139.16c.14-.21.28-.42.42-.63-.14.21-.28.42-.42.63Z"/><path class="cls-2" d="M135.77,135.25c.26-.11.52-.23.78-.34-.26.11-.52.23-.78.34Z"/><path class="cls-2" d="M51.68,114.72c.27.17.53.34.8.51-.27-.17-.53-.34-.8-.51Z"/><path class="cls-2" d="M174.47,109.86c.11-.11.22-.23.33-.35-.01.22-.02.44-.04.66l-.3-.32Z"/><path class="cls-2" d="M44.57,107.79c.17.25.33.49.5.74-.17-.25-.33-.49-.5-.74Z"/><path class="cls-2" d="M179.26,103.93c.09-.15.17-.29.26-.44.08.08.16.17.24.25-.17.06-.33.12-.5.18Z"/><path class="cls-2" d="M146.95,96.17c-.21.15-.41.29-.62.44.21-.15.41-.29.62-.44Z"/><path class="cls-7" d="M35.52,94.65c.16.21.31.42.47.63-.16-.21-.31-.42-.47-.63Z"/><path class="cls-2" d="M106.77,47.98c-.13-.15-.26-.29-.4-.44.13.15.26.29.4.44Z"/><path class="cls-2" d="M107.92,49.23c-.16-.16-.31-.32-.47-.48.16.16.31.32.47.48Z"/><path class="cls-2" d="M45.86,41.72c-.18.1-.36.2-.53.3.18-.1.36-.2.53-.3Z"/><path class="cls-2" d="M111.45,53.14c-.14-.16-.28-.33-.42-.49.14.16.28.33.42.49Z"/><path class="cls-2" d="M114.7,60.06c-.04-.12-.08-.24-.13-.37.08.07.17.14.24.23,0,0-.07.09-.11.14Z"/><path class="cls-2" d="M51.41,38.54l-.04.13s-.13-.02-.13-.02c.04-.06.1-.09.17-.11Z"/><path class="cls-2" d="M185.9,38.51c-.09-.11-.18-.21-.27-.32.09.11.18.21.27.32Z"/><path class="cls-2" d="M52.75,37.69c-.12.05-.24.09-.35.14.12-.05.24-.09.35-.14Z"/><path class="cls-2" d="M31.94,64.77c-.1.17-.19.33-.29.5.1-.17.19-.33.29-.5Z"/><path class="cls-2" d="M30.75,67.12c-.09.16-.19.32-.28.48.09-.16.19-.32.28-.48Z"/><path class="cls-2" d="M29.22,70.25c-.1.19-.19.38-.29.57.1-.19.19-.38.29-.57Z"/><path class="cls-2" d="M157.41,76.58c0,.09.03.18.02.26,0,.03-.08.05-.12.07-.01-.13.02-.24.1-.34Z"/><path class="cls-2" d="M68.87,184c.15.18.29.37.44.55-.15-.18-.29-.37-.44-.55Z"/><path class="cls-2" d="M71.01,183.75c.18-.12.36-.23.54-.35-.18.12-.36.23-.54.35Z"/><path class="cls-2" d="M72.19,182.97c.18-.11.35-.22.53-.34-.18.11-.35.22-.53.34Z"/><path class="cls-2" d="M67.32,181.61c.14.2.28.4.41.6-.14-.2-.28-.4-.41-.6Z"/><path class="cls-2" d="M66.82,180.76c.15.03.2.12.15.26-.08-.07-.13-.15-.15-.26Z"/><path class="cls-2" d="M66.47,180.24c.1.15.21.3.31.45-.1-.15-.21-.3-.31-.45Z"/><path class="cls-2" d="M77,179.87c.14-.1.28-.2.42-.29-.14.1-.28.2-.42.29Z"/><path class="cls-2" d="M65.35,178.51c.12.19.24.39.37.58-.12-.19-.24-.39-.37-.58Z"/><path class="cls-2" d="M64.89,177.94c.12.13.23.25.35.38-.12-.13-.23-.25-.35-.38Z"/><path class="cls-2" d="M80.09,177.89c.15-.1.31-.2.46-.3-.15.1-.31.2-.46.3Z"/><path class="cls-2" d="M85.56,174.37c.16-.12.32-.23.49-.35-.16.12-.32.23-.49.35Z"/><path class="cls-2" d="M86.05,174.02c.12-.08.24-.17.36-.25-.12.08-.24.17-.36.25Z"/><path class="cls-2" d="M61.41,172.34c.11.17.22.34.33.51-.11-.17-.22-.34-.33-.51Z"/><path class="cls-2" d="M88.66,172.35c.16-.11.33-.22.49-.33-.16.11-.33.22-.49.33Z"/><path class="cls-2" d="M96.99,166.92c.11-.08.22-.15.33-.23-.11.08-.22.15-.33.23Z"/><path class="cls-2" d="M56.34,164.35l.15.06s0,.15,0,.15c-.11-.03-.15-.1-.14-.21Z"/><path class="cls-7" d="M105.61,161.48c.13-.1.27-.2.4-.3-.13.1-.27.2-.4.3Z"/><polygon class="cls-2" points="54.29 161.26 54.43 161.3 54.38 161.41 54.29 161.26"/><path class="cls-7" d="M107.91,159.51c.14-.15.28-.3.42-.45-.14.15-.28.3-.42.45Z"/><path class="cls-2" d="M55.12,159.14c-.13.1-.27.19-.4.29.13-.1.27-.19.4-.29Z"/><path class="cls-2" d="M29.22,79.26c.01.13.02.26.04.39-.06-.09-.13-.17-.17-.27,0-.02.09-.08.13-.12Z"/><path class="cls-2" d="M57.98,157.3c-.17.11-.34.22-.51.33.17-.11.34-.22.51-.33Z"/><path class="cls-2" d="M60.62,155.63c-.14.1-.28.19-.42.29.14-.1.28-.19.42-.29Z"/><path class="cls-2" d="M63.02,154.08c-.16.1-.31.21-.47.31.16-.1.31-.21.47-.31Z"/><path class="cls-2" d="M64.18,153.31c-.16.11-.31.22-.47.32.16-.11.31-.22.47-.32Z"/><path class="cls-2" d="M64.73,152.95c-.19.13-.39.26-.58.39.19-.13.39-.26.58-.39Z"/><path class="cls-7" d="M113.05,152.86c.05-.12.09-.24.14-.36,0,.1.03.2.02.29,0,.03-.1.04-.15.07Z"/><path class="cls-2" d="M186.77,80.42c.08-.19.15-.38.23-.57-.08.19-.15.38-.23.57Z"/><path class="cls-2" d="M66.62,151.75c-.18.12-.36.23-.54.35.18-.12.36-.23.54-.35Z"/><path class="cls-2" d="M67.29,151.32c-.14.1-.29.2-.43.3.14-.1.29-.2.43-.3Z"/><path class="cls-2" d="M122.82,82c-.06-.12-.13-.24-.19-.35.07.12.13.24.19.35Z"/><path class="cls-2" d="M114.54,149.71c.12-.21.24-.43.37-.64-.12.21-.24.43-.37.64Z"/><path class="cls-2" d="M70.23,149.43c-.2.14-.4.28-.6.43.2-.14.4-.28.6-.43Z"/><path class="cls-2" d="M71.59,148.58c-.14.1-.28.2-.42.29.14-.1.28-.2.42-.29Z"/><path class="cls-2" d="M115.46,147.77c.09-.18.19-.35.28-.53-.09.18-.19.35-.28.53Z"/><path class="cls-2" d="M116.99,144.65c.1-.2.2-.4.3-.59-.1.2-.2.4-.3.59Z"/><path class="cls-2" d="M117.37,143.86c.1-.2.21-.4.31-.59-.1.2-.21.4-.31.59Z"/><polygon class="cls-2" points="79.52 143.49 79.51 143.58 79.48 143.51 79.52 143.49"/><path class="cls-2" d="M81.19,142.38c-.2.14-.4.28-.6.41.2-.14.4-.28.6-.41Z"/><path class="cls-7" d="M123.25,83.08l-.14-.08s.03-.14.03-.14c.05.07.08.14.11.22Z"/><path class="cls-2" d="M84.97,139.99c-.17.11-.34.22-.51.33.17-.11.34-.22.51-.33Z"/><path class="cls-2" d="M86.31,139.14l-.06.15s-.16,0-.16,0c.06-.07.13-.12.22-.15Z"/><path class="cls-2" d="M86.85,138.79c-.15.1-.3.2-.44.29.15-.1.3-.2.44-.29Z"/><path class="cls-2" d="M87.32,138.46c-.16.11-.32.22-.48.34.16-.11.32-.22.48-.34Z"/><path class="cls-2" d="M125.89,138.06c.03.11.06.21.1.32-.21-.02-.42-.05-.63-.07.18-.08.35-.16.53-.24Z"/><path class="cls-2" d="M88.34,136.82c-.1.17-.2.35-.29.52.1-.17.2-.35.29-.52Z"/><path class="cls-2" d="M132.14,136.77c.16-.08.33-.16.49-.25-.16.08-.33.16-.49.25Z"/><path class="cls-2" d="M88.73,136.02c-.09.19-.19.37-.28.56.09-.19.19-.37.28-.56Z"/><path class="cls-2" d="M88.83,135.73l.04.14s-.13.08-.13.08c0-.08.04-.15.09-.22Z"/><path class="cls-2" d="M134.9,135.61c.15-.08.31-.16.46-.24-.15.08-.31.16-.46.24Z"/><path class="cls-2" d="M139.8,133.58c.22-.11.44-.22.65-.32-.22.11-.44.22-.65.32Z"/><path class="cls-2" d="M145.05,131.29c.17-.08.33-.17.5-.25-.17.08-.33.17-.5.25Z"/><path class="cls-2" d="M79.78,131.04c.19.08.37.15.56.23-.19-.08-.37-.15-.56-.23Z"/><path class="cls-2" d="M146.1,130.86c.21-.1.43-.2.64-.3-.21.1-.43.2-.64.3Z"/><path class="cls-7" d="M123.72,84.33c-.03-.13-.06-.26-.09-.38.07.08.15.16.2.25.01.02-.07.09-.11.13Z"/><path class="cls-2" d="M154,127.35c.19-.1.38-.19.57-.29-.19.1-.38.19-.57.29Z"/><path class="cls-2" d="M154.82,126.97c.18-.1.36-.19.55-.29-.18.1-.36.19-.55.29Z"/><path class="cls-2" d="M155.42,126.66c.04-.15.13-.2.27-.15-.07.08-.16.13-.27.15Z"/><path class="cls-2" d="M70.38,126.31c.17.09.34.18.51.27-.17-.09-.34-.18-.51-.27Z"/><path class="cls-2" d="M156.38,126.19c.18-.1.36-.19.53-.29-.18.1-.36.19-.53.29Z"/><path class="cls-2" d="M157.16,125.8c.18-.1.36-.21.55-.31-.18.1-.36.21-.55.31Z"/><path class="cls-2" d="M159.17,124.64c.16-.11.33-.22.49-.33-.16.11-.33.22-.49.33Z"/><path class="cls-2" d="M64.09,122.38c.06-.04.12-.07.19-.09.09.14.19.27.28.41-.16-.11-.31-.21-.47-.32Z"/><path class="cls-2" d="M62.17,121.2c.15.1.31.2.46.31-.15-.1-.31-.2-.46-.31Z"/><path class="cls-2" d="M61.79,120.94c.1.06.19.13.29.19-.13-.02-.22-.09-.29-.19Z"/><path class="cls-2" d="M55.11,116.83c.19.09.37.18.55.26,0,0-.04.02-.04.02-.05.05-.11.1-.16.15-.12-.14-.23-.29-.35-.43Z"/><path class="cls-2" d="M51.2,114.45c.17.1.34.21.51.31-.17-.1-.34-.21-.51-.31Z"/><path class="cls-2" d="M50.44,113.94c.09.06.19.12.28.18-.12-.02-.21-.08-.28-.18Z"/><path class="cls-2" d="M46.08,109.86c.11.12.22.23.34.35-.11-.12-.22-.23-.34-.35Z"/><path class="cls-2" d="M176.23,108.22c.09-.09.18-.18.28-.26-.07.11-.16.2-.28.26Z"/><path class="cls-2" d="M176.61,107.85c.1-.1.19-.21.29-.31-.1.1-.19.21-.29.31Z"/><path class="cls-2" d="M176.98,107.46c.1-.1.19-.19.29-.29-.1.1-.19.19-.29.29Z"/><path class="cls-2" d="M177.69,106.67c.13-.16.27-.32.4-.49-.13.16-.27.32-.4.49Z"/><path class="cls-2" d="M130.03,106.01c-.17.08-.35.17-.52.25.17-.08.35-.17.52-.25Z"/><path class="cls-2" d="M131.22,105.55c-.18.09-.36.18-.53.27l.53-.27Z"/><path class="cls-2" d="M130.29,105.93l-.11.12s-.16,0-.16,0c.01-.1.02-.2.04-.3.08.06.15.13.23.19Z"/><path class="cls-2" d="M155.28,84.74c-.08.21-.16.42-.23.63.08-.21.16-.42.23-.63Z"/><path class="cls-2" d="M180.42,101.97c.1-.16.21-.33.31-.49-.1.16-.21.33-.31.49Z"/><path class="cls-2" d="M141.85,100.86c-.2.1-.4.21-.6.31.2-.1.4-.21.6-.31Z"/><path class="cls-2" d="M181.13,100.77c.12-.21.23-.42.35-.64-.12.21-.23.42-.35.64Z"/><path class="cls-2" d="M143.3,99.65c-.15.15-.3.3-.45.45.15-.15.3-.3.45-.45Z"/><path class="cls-2" d="M181.67,99.21c.07-.21.14-.42.21-.62-.07.21-.14.42-.21.62Z"/><path class="cls-2" d="M144.09,98.87c-.15.15-.31.29-.46.44.15-.15.31-.29.46-.44Z"/><path class="cls-2" d="M37.54,97.51c.12.18.24.36.36.54-.12-.18-.24-.36-.36-.54Z"/><path class="cls-2" d="M182.42,96.48c.07-.22.15-.44.22-.66-.07.22-.15.44-.22.66Z"/><path class="cls-7" d="M124.42,86.21l-.15-.08s0-.16,0-.16c.07.07.11.15.14.24Z"/><path class="cls-7" d="M35.13,93.92c.04.09.01.16-.06.21-.11-.1-.21-.21-.32-.31.13.03.25.07.38.1Z"/><path class="cls-2" d="M183.58,92.17c.02-.13.04-.25.06-.38.03.1.07.19.08.29,0,.03-.09.06-.14.09Z"/><path class="cls-2" d="M151.82,91c-.13.13-.26.26-.39.39.13-.13.26-.26.39-.39Z"/><path class="cls-2" d="M152.63,90.22c-.14.13-.28.26-.41.4.14-.13.28-.26.41-.4Z"/><path class="cls-7" d="M125.59,89.4c-.06-.1-.12-.21-.18-.31.1.08.16.18.18.31Z"/><path class="cls-7" d="M125.19,88.25c-.08-.12-.15-.24-.23-.35.08.12.15.24.23.35Z"/><path class="cls-7" d="M30.04,86.73c.11.12.22.23.33.35-.11-.12-.22-.23-.33-.35Z"/><path class="cls-6" d="M131.97,114.03c-1.28,5.02-9.63,8.26-16.61,6.75-.39.74-.88,1.49-1.21,2.3-1.53,3.73-4.38,5.66-8.17,6.84-4.18,1.3-8.35,1.62-12.15-.41-3.44-1.84-6.73-4.21-9.55-6.91-4.53-4.34-7.56-9.72-8.96-15.94-.55-2.47-.18-4.79.93-7,.22-.44.83-.69,1.25-1.03.34.49.87.94.98,1.47.27,1.34.13,2.78.54,4.06.89,2.77,1.7,5.64,3.13,8.13,1.53,2.66,3.78,4.89,5.64,7.37,3.12,4.16,7.27,6.55,12.4,6.83,3.49.19,6.76-1.03,9.52-3.24.48-.38.72-1.33.71-2.01-.02-1.16-.06-2.46-.58-3.43-.91-1.7-.46-2.98.34-4.53.9-1.72,2.72-.77,3.87-1.64.06-.04,1.03.99,1.47,1.6,1.23,1.71,2.81,2.83,4.97,2.52,2.95-.42,5.87-1.04,8.82-1.54.79-.13,1.61-.12,2.64-.19Z"/><polygon class="cls-4" points="55.62 117.12 55.66 117.1 55.63 117.11 55.62 117.12"/><path class="cls-8" d="M101.6,154.91c-3.3-.25-6.46-.14-9.25-1.97-1.31-.85-1.63-1.92-.34-2.76,1.48-.96,3.2-1.94,4.9-2.11,3.02-.29,5.94.53,8.28,2.67.59.54,1.1,1.32,1.3,2.09.11.39-.45,1.32-.86,1.43-1.36.37-2.79.48-4.03.66Z"/><path class="cls-5" d="M36.24,91.84c-.08-.17-.17-.35-.25-.52.14.13.28.26.42.38-.06.05-.11.09-.16.14Z"/></svg>