<?xml version="1.0" encoding="UTF-8"?><svg id="Layer_1" xmlns="http://www.w3.org/2000/svg" viewBox="0 0 217.04 218.81"><defs><style>.cls-1{fill:#ee4924;}.cls-1,.cls-2,.cls-3,.cls-4,.cls-5{stroke-width:0px;}.cls-2{fill:#f48f9f;}.cls-3{fill:#ee4426;}.cls-4{fill:#fcf5f3;}.cls-5{fill:#ee4223;}</style></defs><path class="cls-5" d="M113.84,39.06c.15.09.3.18.45.27,0,0,.04.1.04.1l.09-.04c.54.31,1.08.62,1.62.93.34.2.67.4,1.01.6.2.12.41.23.61.35.11.07.22.13.32.2,1.37.79,2.73,1.58,4.1,2.37.24.13.47.26.71.4.16.09.32.18.47.27.16.09.31.19.47.28.05.1.13.16.24.17.33.19.66.38.99.57.23.18.46.35.69.53.51,1.45,1.01,2.9,1.62,4.64,0,.03-.22.47-.2.9.15,2.47.27,4.95.6,7.4.09.67.75,1.44,1.37,1.79.36.2,1.17-.28,1.73-.56,1.01-.51,1.99-1.1,2.98-1.66.08,1.77.15,3.54.23,5.31.07.32.15.65.22.97.03,1.06.06,2.11.1,3.17.09.43.17.85.26,1.28.2,2.44.41,4.88.61,7.32.04.52.08,1.05.11,1.57.05.75.1,1.5.15,2.25.05.74.11,1.47.16,2.21.05.75.11,1.5.16,2.25.05.63.1,1.26.15,1.9.04.75.09,1.5.13,2.24.06.63.11,1.27.17,1.9.06.85.12,1.71.19,2.56.05.63.09,1.26.14,1.9.04.64.07,1.28.11,1.92.06.74.13,1.48.19,2.22.03.64.06,1.28.1,1.92-.01.2-.02.39-.03.59-.02.05-.07.1-.06.14.03.1.08.19.12.28.02.73.05,1.45.07,2.18-1.77.66-3.54,1.31-5.3,2.01-.24.1-.54.43-.54.66,0,1.52.37,3.11.03,4.54-.61,2.6.85,3.32,2.8,4.01,1.41.49,1.57,1.63.48,2.69-.41.4-.94.69-1.44.97-2.9,1.6-5.79,3.14-9.24,3.35-2.4.15-4.77.83-7.17,1.15-2.48.33-3.73,1.3-4.33,3.65-.55,2.14-1.95,3.82-3.87,4.55-3.6,1.37-7.18.24-10.84-.76.56-.62.95-1.23,1.49-1.62,2.83-2.04,4.44-4.86,5.4-8.13.34-1.16.47-2.45,1.06-3.46,2.4-4.11,3.49-8.58,3.85-13.26.09-1.24.25-2.54,0-3.74-.72-3.39-1.71-6.57-4.12-9.38-1.74-2.03-3.68-3.39-5.97-4.5-.39-.19-.77-.39-1.16-.58.02-.12.04-.24.07-.37.58-.12,1.17-.25,1.75-.37-.38-1.28-2.19-1.37-3.85-.22-1.75-1.35-2.22-1.31-2.89.09-.63.04-1.22-.03-1.74.13-3.76,1.16-7.56,2.25-11.26,3.58-4.27,1.54-8,4.01-11.25,7.19-.73.71-1.5,1.38-2.25,2.07.08-8.92.16-17.84.25-26.75,1.21.2,2.41.4,3.32.54.47-.82.77-1.47,1.19-2.04,1.1-1.51.56-4.96-1-5.91-1.09-.67-2.23-1.27-3.34-1.9.04-6.24.09-12.48.13-18.72,1.3-.64,2.59-1.27,4.34-2.13,1.75-.13,4.16.02,6.6-1.39.08,1.4.39,2.88.18,4.28-.5,3.44.08,6.79,1.01,10,.78,2.71,2.21,5.27,3.62,7.74,1.19,2.07,2.46,4.22,4.72,5.36.93.47,1.79.84,2.32,1.84.19.35,1,.48,1.54.52,1.27.07,2.55.02,3.83.03,1.1,0,2.31.31,3.29-.04,3.49-1.23,5.44-3.97,5.83-7.52.32-2.92.25-5.91.02-8.85-.15-1.87-.57-3.86-1.46-5.49-2.42-4.46-5.6-8.33-10.34-10.54-1.93-.9-4-1.5-5.99-2.29-.39-.15-.8-.47-.97-.83-.07-.16.43-.59.67-.9.32-.4.64-.79.97-1.19,1.05.06,2.09.12,3.14.18.32.04.63.08.95.13.54.06,1.07.11,1.61.17.53.06,1.05.12,1.58.17.54.05,1.07.1,1.61.15.31.03.63.07.94.1.64.07,1.28.14,1.93.21.31.03.63.06.94.1.64.07,1.29.14,1.93.22.42.04.84.08,1.26.12.64.07,1.29.13,1.93.2.31.05.63.11.94.16.52.29,1.05.58,1.57.87.11.07.21.14.32.21.6.35,1.2.69,1.8,1.04,0,0,.01.05.01.05l-.03-.04c.58.32,1.16.64,1.73.96l.62.36s-.02-.01-.02-.01c.33.2.66.39.99.59,0,0,.06.08.06.08,0,0,.09,0,.1,0,.16.1.32.2.48.3Z"/><path class="cls-5" d="M95.74,168.69c-.35.39-.69.77-1.04,1.16-.22.24-.44.47-.66.71-.09.1-.18.2-.28.31-.31.33-.63.66-.94.99-.42.45-.84.91-1.26,1.36-.07.08-.15.17-.22.25,0,0-.08.07-.08.07-.18.19-.36.39-.54.58-.09.01-.13.06-.12.16,0,0-.08,0-.08,0l.05.04c-.86.94-1.72,1.88-2.57,2.83-.32.35-.64.7-.97,1.06-.27.29-.54.58-.81.87-.12.07-.24.15-.37.22-.37-.53-.95-1.01-1.08-1.59-.7-3.14-2.42-5.62-4.79-7.71-.62-.55-1.33-1.03-1.89-1.63-1.32-1.44-3-1.93-4.85-1.89-2.13.05-3.03-.7-4.03-2.6-.79-1.51-2.06-2.78-3.12-4.15-.11-.29-.31-.57-.3-.86.12-4.13.27-8.26.42-12.39,1.69-.79,3.87-1.18,4.93-2.48,1.29-1.59,2.9-3.42,2.37-6.02-.42-2.07-.4-4.23-.6-6.35-.02-.18-.23-.34-.34-.53-.52-.93-1.03-1.86-1.76-3.18.73.41,1.18.59,1.55.88.95.74,1.76,1.78,2.82,2.25,2.65,1.17,5.46,1.99,8.12,3.15,2.47,1.07,5.01.82,7.51.6,1.06-.09,1.7.17,2.4.76,1.28,1.07,2.43,2.39,3.88,3.13,1.93.98,4.06,1.95,6.16,2.1,1.69.12,3.41-.31,5.06.48.22.11.71-.02.89-.21.84-.9,1.97-1.21,2.99-1.76,2.1-1.12,3.28-3.36,4.17-5.59.44-1.1,2.17-2.19,3.17-2.12,1.47.1,3,.09,4.44-.21,1.28-.27,2.42-1.22,3.7-1.48,2.93-.58,5.68-1.46,8.05-3.34.52-.41,1.06-.79,1.56-1.22.49-.42.93-.75,1.36.05.08.73.16,1.47.23,2.2.03.33.06.65.09.98.03.53.05,1.06.08,1.59.02.31.04.62.06.93.1,1.28.19,2.56.29,3.85,0,.1.02.2.02.3.07.85.15,1.71.22,2.56.01.21.02.42.03.63.05.65.11,1.3.16,1.96.02.15.05.3.07.45.03.69.06,1.37.09,2.06.02.21.03.42.05.62.06.64.12,1.27.19,1.91.01.23.02.46.03.69-.01.29-.03.58-.04.87-.23-.1-.55-.14-.68-.32-1.7-2.44-4.2-3.6-6.93-4.42-3.16-.94-6.37-1.13-9.6-.48-1.11.22-2.29.44-3.23,1.01-2.47,1.5-4.83,3.18-7.22,4.81-.77.53-1.41,1.4-2.25,1.64-1.37.4-1.9.99-1.2,2.36-1.7-.05-1.78.11-1.54,2.27-.64.54-1.65,1.12-1.57,1.36.49,1.52,1,3.13,1.94,4.38.78,1.03,2.11,1.7,3.31,2.33.48.25,1.25.04,1.86-.07.37-.07.7-.34,1.12-.56.16,2.32,1.12,2.91,3.24,2.31,1.98-.56,3.42-1.68,4.77-3.28,1.6-1.9,2.37-3.99,2.82-6.32.29-1.5.63-3,1-4.49.07-.28.37-.5.55-.77.95-1.41,2.6-1.47,3.86-1.31,1.53.19,2.96,1.18,4.43,1.84.03.01-.01.19-.02.35-.46.25-.94.52-1.48.81.33.54.59.97.85,1.39-.77.89-.86,1.7-.05,2.54.19.2.39.53.36.78-.18,1.75-.33,3.51-.66,5.24-.17.9-.25,1.58.5,2.27.24.22.21.93.07,1.32-.3.79-1.15,1.56-1.07,2.25.16,1.28.32,2.34-1.28,2.97.81.67,1.43,1.19,2.11,1.75-.21.31-.43.6-.61.91-1.4,2.29-2.78,2.48-4.75.63-.27-.25-.52-.54-.84-.73-3.62-2.16-7.21-4.35-11.59-4.74-4.46-.4-8.85-.38-13.19.8-1.84.5-3.68.97-5.52,1.46,0,0-.07.04-.07.04-.2-.38-.4-.76-.6-1.15,0,0-.04-.12-.04-.12-.22,0-.45,0-.67,0,0,0,0,0,0,0-.2.22-.39.43-.59.65Z"/><path class="cls-2" d="M138.65,125.37c-.43-.79-.87-.47-1.36-.05-.5.43-1.05.8-1.56,1.22-2.36,1.89-5.12,2.76-8.05,3.34-1.28.25-2.42,1.21-3.7,1.48-1.43.3-2.96.31-4.44.21-1-.07-2.72,1.02-3.17,2.12-.9,2.22-2.07,4.46-4.17,5.59-1.02.55-2.15.86-2.99,1.76-.18.19-.67.31-.89.21-1.66-.79-3.37-.36-5.06-.48-2.1-.15-4.23-1.11-6.16-2.1-1.45-.74-2.6-2.06-3.88-3.13-.7-.58-1.34-.85-2.4-.76-2.5.22-5.04.47-7.51-.6-2.66-1.16-5.47-1.97-8.12-3.15-1.06-.47-1.87-1.51-2.82-2.25-.37-.29-.81-.47-1.55-.88.73,1.32,1.24,2.25,1.76,3.18.1.18.32.34.34.53.2,2.12.18,4.28.6,6.35.53,2.6-1.07,4.43-2.37,6.02-1.06,1.3-3.24,1.69-4.93,2.48.02-6.3.03-12.61.05-18.91.06-.09.07-.18,0-.28.07-.56.14-1.12.2-1.68.61.35,1.22.71,1.84,1.04.45.24.92.45,1.39.68-.07-.82-.17-1.41-.52-1.73-.84-.76-1.8-1.4-2.71-2.09-.01-6.09-.05-12.18-.02-18.27,0-2.11.18-4.22.28-6.33.75-.69,1.52-1.36,2.25-2.07,3.25-3.18,6.98-5.65,11.25-7.19,3.7-1.34,7.49-2.42,11.26-3.58.52-.16,1.11-.09,1.74-.13.67-1.41,1.14-1.44,2.89-.09,1.66-1.15,3.48-1.06,3.85.22-.59.12-1.17.25-1.75.37-.02.12-.04.24-.07.37.38.19.77.39,1.16.58,2.29,1.11,4.23,2.47,5.97,4.5,2.4,2.81,3.4,5.99,4.12,9.38.25,1.19.09,2.5,0,3.74-.35,4.69-1.44,9.15-3.85,13.26-.59,1.01-.72,2.3-1.06,3.46-.95,3.27-2.57,6.09-5.4,8.13-.54.39-.93,1-1.49,1.62,3.66,1,7.25,2.14,10.84.76,1.92-.73,3.32-2.41,3.87-4.55.6-2.35,1.84-3.32,4.33-3.65,2.4-.32,4.76-1,7.17-1.15,3.46-.21,6.34-1.75,9.24-3.35.51-.28,1.03-.57,1.44-.97,1.09-1.06.94-2.19-.48-2.69-1.96-.68-3.42-1.41-2.8-4.01.34-1.43-.04-3.02-.03-4.54,0-.23.3-.56.54-.66,1.76-.7,3.53-1.35,5.3-2.01.08-.05.16-.06.24-.03.04.22.09.45.13.67.43,6.16.86,12.33,1.28,18.49.04.52-.02,1.06-.03,1.58ZM86.04,123.17c1.55-.4,3.33-.44,4.58-1.28,2.05-1.37,5.55-.86,6.03-4.35.22-1.58.69-3.22.45-4.74-.33-2.11-1.36-4.09-1.84-6.19-.62-2.65-2.76-4.48-4.69-5.1-2.28-.73-5.27-.16-7.67.66-2.84.97-5.24,2.98-7.31,5.25-1.37,1.51-2.31,3.22-2.53,5.26-.06.53-.02,1.2.26,1.61.62.9,1.51,1.61,2.13,2.51,2.55,3.69,5.75,6.19,10.59,6.36ZM78.28,96.98c.05.2.1.4.14.6,8.13-2.21,15.91-1.64,23.28,2.83-.78-1.29-.29-2.93-1.63-3.87-.26-.18-.27-.72-.39-1.09-.09-.27-.08-.68-.26-.8-1.29-.87-2.54-1.88-3.96-2.44-1.54-.61-3.37-1.37-4.85-1.04-3.46.76-6.93,1.78-9.83,4.06-.8.63-1.66,1.18-2.5,1.76ZM78.36,125.69c-.07.14-.13.28-.2.42.99.7,2.03,1.34,2.96,2.11,1.45,1.19,2.98,1.93,4.9,1.37,1.25-.36,2.52-.67,3.74-1.12.44-.17.75-.69,1.12-1.06-.44-.17-.88-.46-1.33-.49-1.83-.11-3.68-.02-5.49-.22-1.92-.21-3.8-.67-5.7-1.02ZM70.21,127.68c.12.07.23.14.34.21.04-.07.13-.19.1-.22-.08-.1-.2-.18-.31-.27-.04.08-.08.16-.14.28Z"/><path class="cls-2" d="M97.71,169.25c1.84-.49,3.68-.96,5.52-1.46,4.34-1.18,8.74-1.2,13.19-.8,4.38.4,7.97,2.58,11.59,4.74.31.19.57.48.84.73,1.96,1.85,3.35,1.66,4.75-.63.19-.31.4-.6.61-.91-.68-.56-1.31-1.08-2.11-1.75,1.61-.62,1.44-1.68,1.28-2.97-.08-.69.77-1.46,1.07-2.25.15-.39.17-1.1-.07-1.32-.75-.69-.67-1.37-.5-2.27.33-1.72.48-3.49.66-5.24.03-.25-.17-.58-.36-.78-.81-.84-.72-1.65.05-2.54-.25-.41-.52-.85-.85-1.39.54-.3,1.02-.56,1.48-.81.01-.16.05-.33.02-.35-1.47-.66-2.9-1.65-4.43-1.84-1.26-.16-2.91-.1-3.86,1.31-.18.26-.48.48-.55.77-.37,1.49-.71,2.98-1,4.49-.44,2.33-1.22,4.42-2.82,6.32-1.35,1.6-2.78,2.72-4.77,3.28-2.13.6-3.09.01-3.24-2.31-.42.22-.75.5-1.12.56-.62.11-1.38.32-1.86.07-1.19-.63-2.53-1.3-3.31-2.33-.94-1.25-1.45-2.86-1.94-4.38-.08-.23.93-.82,1.57-1.36-.23-2.16-.15-2.32,1.54-2.27-.71-1.37-.17-1.96,1.2-2.36.84-.24,1.48-1.11,2.25-1.64,2.39-1.63,4.75-3.31,7.22-4.81.94-.57,2.13-.79,3.23-1.01,3.23-.65,6.44-.46,9.6.48,2.73.82,5.23,1.98,6.93,4.42.12.18.45.22.68.32.12.31.24.62.35.94,0,.14,0,.27.01.41.28,4.35.6,8.71.83,13.07.12,2.29.08,4.6.12,6.89-.08.13-.16.26-.25.39-.03.21-.05.42-.08.63-.09.22-.18.43-.26.65-.02.28-.05.55-.07.83-.09.15-.17.29-.26.44-.24.95-.48,1.89-.72,2.84-.09.33-.18.65-.26.98-.11.41-.22.82-.32,1.23-.1.33-.21.67-.32,1-.11.41-.21.82-.32,1.23-.08.12-.15.24-.23.35-.19.53-.38,1.06-.57,1.59-1.01,1.55-2.4,2.99-2.94,4.69-.6,1.87-.44,3.99-.61,6-1.51-.49-3.02-.97-4.53-1.47-.55-.18-1.09-.38-1.63-.57-.21-.09-.42-.17-.63-.26-2.96-1.05-5.89-2.21-8.89-3.1-.89-.26-2.01.18-3.01.34-.51.08-1,.25-1.5.38-2.49-.61-4.99-1.02-7.47.06-.51-.74-1.07-1.45-1.53-2.22-.56-.94-1.04-1.93-1.55-2.89-.07-.11-.15-.22-.22-.34-.02-.3-.04-.6-.06-.9,2.48-.04,4.97-.19,7.45-.06,1.62.09,3.32.35,4.8.96,2.64,1.09,5.18,2.43,7.2,4.56.26.27.65.41,1.03.65.23-.51.31-.91.54-1.17,1.95-2.16,2-4.61.94-7.1-1.05-2.46-2.51-4.44-5.49-5.06-3.84-.8-7.53-.28-11.31.27-2.71.4-4.93,1.58-7.07,3.1h-.14s-.14-.02-.14-.02c-.11-.21-.22-.43-.33-.64-.86-1.7-1.72-3.39-2.58-5.09-.19-.34-.39-.67-.58-1.01.03-.11.06-.22.09-.33Z"/><path class="cls-2" d="M87.47,32.75c-.32.39-.65.79-.97,1.19-.25.31-.75.74-.67.9.17.35.58.67.97.83,1.99.79,4.06,1.39,5.99,2.29,4.74,2.21,7.92,6.08,10.34,10.54.88,1.62,1.31,3.62,1.46,5.49.23,2.93.3,5.93-.02,8.85-.39,3.56-2.34,6.29-5.83,7.52-.98.35-2.19.04-3.29.04-1.28,0-2.55.05-3.83-.03-.54-.03-1.35-.16-1.54-.52-.54-1-1.4-1.37-2.32-1.84-2.26-1.14-3.53-3.29-4.72-5.36-1.42-2.47-2.84-5.03-3.62-7.74-.93-3.21-1.51-6.56-1.01-10,.2-1.41-.11-2.89-.18-4.28-2.44,1.4-4.84,1.26-6.6,1.39-1.75.86-3.04,1.49-4.34,2.13-.05-2.1-.11-4.19-.16-6.29,0-.36-.02-.71-.02-1.07.21,0,.46.05.63-.04,3.12-1.64,6.55-1.88,9.95-2.14,2.52-.19,2.53-.07,3.07-2.57,1.17.08,2.34.16,3.51.24.2,0,.4,0,.6,0,.88.16,1.75.33,2.63.49ZM95.36,46.48c-.85-.1-1.61,0-2.16-.28-2.13-1.12-4-2.75-6.5-3.12-.49-.07-1.04-.25-1.41-.56-.9-.75-3.05-.4-3.12.72-.11,1.96-.02,4,.42,5.91.33,1.43,1.35,2.69,2.03,4.04,2.12,4.25,4.48,8.27,9.13,10.26,1.64.7,3.3.85,4.87-.09,1.51-.91,2.29-2.29,2.15-4.11-.29-3.81-2-7-4.34-9.91-.52-.65-1.09-1.27-1.63-1.89.23-.4.42-.74.56-.97Z"/><path class="cls-2" d="M66.1,159.72c1.06,1.37,2.32,2.64,3.12,4.15,1,1.9,1.9,2.65,4.03,2.6,1.85-.04,3.53.45,4.85,1.89.56.61,1.26,1.08,1.89,1.63,2.37,2.09,4.08,4.57,4.79,7.71.13.58.71,1.06,1.08,1.59-.25.38-.51.75-.76,1.13-1.27,1.52-2.46,3.1-3.83,4.53-1.17,1.22-2.53,2.26-3.81,3.38.11-1.2.09-2.44.36-3.61.88-3.83.3-7.5-1.05-11.09-.17-.45-.73-1.01-1.15-1.05-1.34-.14-2.71-.05-4.14-.05-.11.43-.48,1.03-.33,1.43.57,1.5-.3,2.66-.69,3.94-.08.25-.18.5-.24.75-.64,2.74-2.08,4.96-4.33,6.65-.03-2.7-.07-5.39-.08-8.09-.01-5.06-.02-10.12,0-15.17,0-.78.18-1.57.28-2.35Z"/><path class="cls-3" d="M65.89,185.33c2.25-1.69,3.69-3.91,4.33-6.65.06-.26.16-.5.24-.75.39-1.28,1.26-2.45.69-3.94-.15-.4.22-1,.33-1.43,1.43,0,2.8-.09,4.14.05.42.04.98.6,1.15,1.05,1.35,3.59,1.94,7.26,1.05,11.09-.27,1.17-.25,2.4-.36,3.61-.09.16-.17.32-.26.48-.06.07-.12.15-.18.22-.68.76-1.36,1.51-2.03,2.27-.1.1-.19.21-.29.31-.44.49-.88.99-1.32,1.48-.22.24-.43.48-.65.72,0,0,0,0,0,0-.21.22-.42.44-.63.66-1.27,1.38-2.54,2.76-3.82,4.14-.2.22-.39.44-.59.65-.12.12-.23.24-.35.36-.25.28-.51.57-.76.85-.18.18-.35.37-.53.55-.19-.03-.37-.06-.56-.09.07-4.53.14-9.05.22-13.58.01-.68.1-1.36.15-2.03Z"/><path class="cls-3" d="M101.39,176.34c2.14-1.52,4.36-2.7,7.07-3.1,3.78-.56,7.47-1.08,11.31-.27,2.98.62,4.44,2.6,5.49,5.06,1.07,2.49,1.01,4.94-.94,7.1-.23.26-.31.65-.54,1.17-.38-.24-.77-.38-1.03-.65-2.02-2.13-4.56-3.47-7.2-4.56-1.49-.61-3.18-.88-4.8-.96-2.47-.13-4.96.03-7.45.06-.19-.33-.39-.67-.58-1-.11-.21-.22-.42-.33-.63-.1-.21-.2-.43-.31-.64-.21-.34-.42-.67-.63-1.01-.02-.19-.04-.37-.06-.56Z"/><path class="cls-2" d="M133.74,58.56c-.99.56-1.97,1.15-2.98,1.66-.56.28-1.37.76-1.73.56-.61-.35-1.28-1.12-1.37-1.79-.33-2.45-.45-4.93-.6-7.4-.03-.43.19-.87.2-.9-.61-1.74-1.11-3.19-1.62-4.64.52.23,1.05.45,1.57.68.21.1.41.21.62.31,0,0,0-.02,0-.02.12.09.24.19.35.28.74.43,1.49.85,2.23,1.28.09.06.18.08.28.06,0,0,0-.02,0-.02.12.1.24.21.36.31.05.05.11.06.18.04.35.22.71.43,1.06.65,0,.08.02.16.05.24.09.16.17.32.26.49.11-.08.22-.16.33-.24.27,2.82.54,5.64.81,8.46Z"/><path class="cls-3" d="M80.73,32.01c-.54,2.49-.54,2.37-3.07,2.57-3.4.26-6.83.49-9.95,2.14-.17.09-.42.03-.63.04.1-2,.19-4,.29-5.99.51-.03,1.03-.07,1.54-.1,1.49.14,2.98.28,4.47.43.43.07.86.14,1.28.21.53.04,1.06.07,1.58.11.43.07.86.14,1.28.21,1.07.14,2.13.28,3.2.41Z"/><path class="cls-2" d="M67.14,62.84c1.12.63,2.25,1.23,3.34,1.9,1.56.95,2.1,4.4,1,5.91-.42.57-.72,1.22-1.19,2.04-.9-.15-2.11-.35-3.32-.54.06-3.1.11-6.2.17-9.31Z"/><path class="cls-1" d="M106.66,186.54c2.48-1.08,4.97-.67,7.47-.06-1.26.65-2.52,1.31-3.78,1.96-.22.1-.43.2-.65.3-.21.1-.43.2-.64.31-.17.1-.33.19-.5.29,0,0-.13,0-.13,0-.11,0-.22.02-.32.03-.11-.1-.22-.2-.33-.3-.08-.15-.17-.3-.25-.45-.08-.18-.17-.37-.25-.55-.13-.2-.26-.4-.39-.6-.07-.31-.14-.62-.22-.92Z"/><path class="cls-1" d="M134.32,191.15c.17-2.01,0-4.13.61-6,.55-1.7,1.93-3.14,2.94-4.69-.47,1.8-.95,3.6-1.42,5.39-.08.11-.16.23-.24.34-.35,1.44-.67,2.9-1.08,4.32-.08.27-.53.42-.81.63Z"/><path class="cls-5" d="M66.47,123.5c.91.69,1.87,1.33,2.71,2.09.35.32.45.91.52,1.73-.46-.23-.93-.44-1.39-.68-.62-.33-1.23-.69-1.84-1.04,0-.7,0-1.4,0-2.1Z"/><path class="cls-4" d="M136.82,99.54c-.06-.74-.13-1.48-.19-2.22.06.74.13,1.48.19,2.22Z"/><path class="cls-4" d="M135.58,82.64c-.05-.74-.11-1.47-.16-2.21.05.74.11,1.47.16,2.21Z"/><path class="cls-4" d="M85.1,180.43c.25-.38.51-.75.76-1.13.12-.07.24-.15.37-.22q.66.96-1.13,1.35Z"/><path class="cls-4" d="M135.89,86.79c-.05-.63-.1-1.26-.15-1.9.05.63.1,1.26.15,1.9Z"/><path class="cls-4" d="M136.52,95.39c-.05-.63-.09-1.27-.14-1.9.05.63.09,1.27.14,1.9Z"/><path class="cls-4" d="M136.19,90.93c-.06-.63-.11-1.27-.17-1.9.06.63.11,1.27.17,1.9Z"/><path class="cls-4" d="M135.27,78.18c-.04-.52-.08-1.05-.11-1.57.04.52.08,1.05.11,1.57Z"/><path class="cls-4" d="M94.74,33.4c-.53-.06-1.05-.12-1.58-.17.53.06,1.05.12,1.58.17Z"/><path class="cls-4" d="M138.98,128.55c-.03-.33-.06-.65-.09-.98.24.15.47.29.71.44-.21.18-.41.36-.62.54Z"/><path class="cls-4" d="M124.95,45.51c-.33-.19-.66-.38-.99-.57.24-.13.48-.26.72-.39.09.32.18.64.27.96Z"/><path class="cls-4" d="M106.87,187.46c.13.2.26.4.39.6-.4,0-.79,0-1.19,0-.02-.11-.04-.23-.06-.34.28-.09.57-.18.85-.26Z"/><path class="cls-4" d="M103.34,34.3c-.42-.04-.84-.08-1.26-.12.42.04.84.08,1.26.12Z"/><path class="cls-4" d="M74.67,31.29c-.43-.07-.86-.14-1.28-.21.43.07.86.14,1.28.21Z"/><path class="cls-4" d="M134.54,69.29c-.09-.43-.17-.85-.26-1.28.09.43.17.85.26,1.28Z"/><path class="cls-4" d="M92.82,171.86c.31-.33.63-.66.94-.99-.04.59.15,1.4-.94.99Z"/><path class="cls-4" d="M68.92,30.66c-.51.03-1.03.07-1.54.1.44-1.19,1.02-.14,1.54-.1Z"/><path class="cls-4" d="M77.54,31.6c-.43-.07-.86-.14-1.28-.21.43.07.86.14,1.28.21Z"/><path class="cls-4" d="M87.03,178.21c.32-.35.64-.7.97-1.06-.32.35-.64.7-.97,1.06Z"/><path class="cls-4" d="M134.19,64.85c-.07-.32-.15-.65-.22-.97.07.32.15.65.22.97Z"/><path class="cls-4" d="M139.63,175.04c.09-.33.18-.65.26-.98-.09.33-.18.65-.26.98Z"/><path class="cls-4" d="M106.21,34.66c-.31-.05-.63-.11-.94-.16.31.05.63.11.94.16Z"/><path class="cls-4" d="M100.15,33.96c-.31-.03-.63-.06-.94-.1.31.03.63.06.94.1Z"/><path class="cls-4" d="M132.29,49.61c-.35-.22-.7-.43-1.06-.65.35.22.7.43,1.06.65Z"/><path class="cls-4" d="M97.29,33.65c-.31-.03-.63-.07-.94-.1.31.03.63.07.94.1Z"/><path class="cls-4" d="M91.55,33.06c-.32-.04-.63-.08-.95-.13.32.04.63.08.95.13Z"/><path class="cls-4" d="M117.04,40.92c-.34-.2-.67-.4-1.01-.6.34.2.67.4,1.01.6Z"/><path class="cls-4" d="M66.6,200.49c.25-.28.51-.57.76-.85-.25.28-.51.57-.76.85Z"/><path class="cls-4" d="M101.45,176.9c.21.34.42.67.63,1.01-.21-.34-.42-.67-.63-1.01Z"/><path class="cls-4" d="M97.62,169.58c.19.34.39.67.58,1.01-.19-.34-.39-.67-.58-1.01Z"/><path class="cls-4" d="M97.04,168.15c.2.38.4.76.6,1.15-.2-.38-.4-.76-.6-1.15Z"/><path class="cls-4" d="M137.4,105.29c-.05-.22-.09-.45-.13-.67.05.22.09.45.13.67Z"/><path class="cls-4" d="M127.53,188.85c.21.09.42.17.63.26-.21-.09-.42-.17-.63-.26Z"/><path class="cls-4" d="M136.88,102.04c.01-.2.02-.39.03-.59.07.21.14.43.21.64-.08-.03-.16-.04-.25-.05Z"/><path class="cls-4" d="M109.7,188.73c.22-.1.43-.2.65-.3-.22.1-.43.2-.65.3Z"/><path class="cls-4" d="M113.21,38.69c-.33-.2-.66-.39-.99-.59.33.2.66.39.99.59Z"/><path class="cls-4" d="M72.73,193.83c.22-.24.43-.48.65-.72-.22.24-.43.48-.65.72Z"/><path class="cls-4" d="M72.11,194.48c.21-.22.42-.44.63-.66-.21.22-.42.44-.63.66Z"/><path class="cls-4" d="M127.83,47.04c-.21-.1-.41-.21-.62-.31.21.11.41.21.62.31Z"/><path class="cls-4" d="M132.93,50.1c-.11.08-.22.16-.33.24-.09-.16-.18-.32-.26-.49.2.08.4.16.59.24Z"/><path class="cls-4" d="M102.38,178.55c.11.21.22.42.33.63-.11-.21-.22-.42-.33-.63Z"/><path class="cls-4" d="M65.52,200.95c.19.03.37.06.56.09-.12.12-.25.24-.37.36-.06-.15-.12-.31-.18-.46Z"/><path class="cls-4" d="M94.04,170.56c.22-.24.44-.47.66-.71-.22.24-.44.47-.66.71Z"/><path class="cls-4" d="M140.94,169.95c.09-.22.18-.43.26-.65-.09.22-.18.43-.26.65Z"/><path class="cls-4" d="M67.71,199.27c.2-.22.39-.44.59-.65-.2.22-.39.44-.59.65Z"/><path class="cls-4" d="M138.99,177.27c.11-.33.21-.66.32-1-.11.33-.21.66-.32,1Z"/><path class="cls-4" d="M90.72,174.13c.18-.19.36-.39.54-.58-.18.19-.36.39-.54.58Z"/><path class="cls-4" d="M95.74,168.69c.2-.22.39-.43.59-.65-.2.22-.39.43-.59.65Z"/><path class="cls-4" d="M96.33,168.04c.22,0,.45,0,.67,0-.22,0-.45,0-.67,0Z"/><path class="cls-4" d="M140.26,146.1c-.01-.23-.02-.46-.03-.69.01.23.02.46.03.69Z"/><path class="cls-4" d="M139.11,131.07c-.02-.31-.04-.62-.06-.93.02.31.04.62.06.93Z"/><path class="cls-4" d="M139.68,138.41c-.01-.21-.02-.42-.03-.63.01.21.02.42.03.63Z"/><path class="cls-4" d="M140.04,143.5c-.02-.21-.03-.42-.05-.62.02.21.03.42.05.62Z"/><path class="cls-4" d="M84.84,32.25c-.2,0-.4,0-.6,0,.2,0,.4,0,.6,0Z"/><path class="cls-4" d="M100.79,175.68c.11.21.22.43.33.64-.11-.21-.22-.43-.33-.64Z"/><path class="cls-4" d="M103.36,181.09c.07.11.15.22.22.34-.12-.04-.24-.09-.37-.13.05-.07.1-.14.15-.2Z"/><path class="cls-4" d="M112.24,38.12l-.62-.36.62.36Z"/><path class="cls-4" d="M122.78,44.23c-.24-.13-.47-.26-.71-.4.24.13.47.26.71.4Z"/><path class="cls-4" d="M74.7,191.62c.1-.1.19-.21.29-.31-.1.1-.19.21-.29.31Z"/><path class="cls-4" d="M108.11,189.36c.11,0,.22-.02.32-.03-.11,0-.22.02-.32.03Z"/><path class="cls-4" d="M108.56,189.33c.17-.1.33-.19.5-.29-.17.1-.33.19-.5.29Z"/><path class="cls-4" d="M107.52,188.61c.08.15.17.3.25.45-.08-.15-.17-.3-.25-.45Z"/><path class="cls-4" d="M77.02,189.04c.06-.07.12-.15.18-.22-.03.1-.09.17-.18.22Z"/><path class="cls-4" d="M136.21,186.19c.08-.11.16-.23.24-.34-.08.11-.16.23-.24.34Z"/><path class="cls-4" d="M138.44,178.86c.08-.12.15-.24.23-.35-.08.12-.15.24-.23.35Z"/><polygon class="cls-4" points="90.57 174.32 90.52 174.28 90.6 174.28 90.57 174.32"/><path class="cls-4" d="M91.34,173.47c.07-.08.15-.17.22-.25-.07.08-.15.17-.22.25Z"/><path class="cls-4" d="M140.61,171.22c.09-.15.17-.29.26-.44-.09.15-.17.29-.26.44Z"/><path class="cls-4" d="M141.28,168.67c.08-.13.16-.26.25-.39-.08.13-.16.26-.25.39Z"/><path class="cls-4" d="M140.59,148.32c0-.14,0-.27-.01-.41,0,.14,0,.27.01.41Z"/><path class="cls-4" d="M139.91,140.81c-.02-.15-.05-.3-.07-.45.02.15.05.3.07.45Z"/><path class="cls-4" d="M139.42,135.22c0-.1-.02-.2-.02-.3.04.07.09.14.11.21,0,.02-.06.06-.09.09Z"/><path class="cls-4" d="M66.27,127.28c.06.09.06.19,0,.28-.02-.06-.06-.13-.07-.19,0-.02.05-.06.07-.08Z"/><path class="cls-2" d="M136.88,102.04c.08,0,.17.02.25.05-.06.12-.12.25-.18.37-.04-.09-.1-.18-.12-.28-.01-.04.04-.1.06-.14Z"/><path class="cls-4" d="M131.05,48.93c-.12-.1-.24-.21-.36-.31.12.1.24.21.36.31Z"/><path class="cls-4" d="M130.69,48.64c-.1.02-.2,0-.28-.06.09.02.19.04.28.06Z"/><path class="cls-4" d="M128.18,47.3c-.12-.09-.24-.19-.35-.28.12.09.24.19.35.28Z"/><path class="cls-4" d="M123.72,44.77c-.16-.09-.31-.19-.47-.28.16.09.31.19.47.28Z"/><path class="cls-4" d="M117.97,41.47c-.11-.07-.22-.13-.32-.2.11.07.22.13.32.2Z"/><polygon class="cls-4" points="114.41 39.39 114.32 39.43 114.28 39.33 114.41 39.39"/><path class="cls-4" d="M113.84,39.06c-.16-.1-.32-.2-.48-.3.16.1.32.2.48.3Z"/><polygon class="cls-4" points="109.88 36.8 109.91 36.84 109.9 36.79 109.88 36.8"/><path class="cls-4" d="M108.1,35.74c-.11-.07-.21-.14-.32-.21.11.07.21.14.32.21Z"/><path class="cls-5" d="M86.04,123.17c-4.84-.17-8.04-2.67-10.59-6.36-.62-.9-1.51-1.61-2.13-2.51-.28-.41-.32-1.08-.26-1.61.22-2.04,1.16-3.75,2.53-5.26,2.07-2.28,4.47-4.29,7.31-5.25,2.41-.82,5.4-1.39,7.67-.66,1.92.62,4.07,2.45,4.69,5.1.49,2.09,1.51,4.08,1.84,6.19.24,1.52-.23,3.16-.45,4.74-.48,3.49-3.98,2.99-6.03,4.35-1.26.84-3.04.88-4.58,1.28Z"/><path class="cls-3" d="M78.28,96.98c.83-.59,1.7-1.14,2.5-1.76,2.9-2.27,6.37-3.29,9.83-4.06,1.48-.33,3.32.43,4.85,1.04,1.42.57,2.67,1.58,3.96,2.44.18.12.17.53.26.8.12.37.13.91.39,1.09,1.34.94.85,2.58,1.63,3.87-7.37-4.47-15.14-5.04-23.28-2.83-.05-.2-.1-.4-.14-.6Z"/><path class="cls-3" d="M78.36,125.69c1.9.35,3.79.81,5.7,1.02,1.82.2,3.66.11,5.49.22.45.03.89.32,1.33.49-.37.36-.68.89-1.12,1.06-1.22.45-2.49.76-3.74,1.12-1.92.56-3.45-.18-4.9-1.37-.94-.77-1.97-1.41-2.96-2.11.07-.14.13-.28.2-.42Z"/><path class="cls-5" d="M70.21,127.68c.06-.12.1-.2.14-.28.11.09.23.16.31.27.02.03-.07.14-.1.22-.11-.07-.23-.14-.34-.21Z"/><path class="cls-5" d="M95.36,46.48c-.13.23-.33.57-.56.97.54.62,1.11,1.23,1.63,1.89,2.34,2.91,4.05,6.1,4.34,9.91.14,1.82-.65,3.21-2.15,4.11-1.56.94-3.23.79-4.87.09-4.65-1.99-7.02-6.01-9.13-10.26-.67-1.35-1.7-2.61-2.03-4.04-.44-1.91-.54-3.95-.42-5.91.07-1.13,2.21-1.47,3.12-.72.37.31.92.49,1.41.56,2.5.37,4.38,1.99,6.5,3.12.55.29,1.31.19,2.16.28Z"/></svg>