<?xml version="1.0" encoding="UTF-8"?><svg id="Layer_1" xmlns="http://www.w3.org/2000/svg" viewBox="0 0 191.21 178.51"><defs><style>.cls-1{fill:#ee4924;}.cls-1,.cls-2,.cls-3,.cls-4,.cls-5{stroke-width:0px;}.cls-2{fill:#f290a1;}.cls-3{fill:#f48f9f;}.cls-4{fill:#ee4426;}.cls-5{fill:#fcf5f3;}</style></defs><path class="cls-4" d="M94.27,69.18c-.67-1.24-1.33-2.48-2-3.71-.19-.35-.37-.7-.56-1.04-.6-1.35-1.19-2.7-1.79-4.04.84,0,1.69,0,2.53,0-1.18-.89-1.68-2.68-1-3.78,1.01-1.65,1.96-3.34,2.97-4.99.26-.42.72-.72.96-1.14.29-.55.53-1.15.63-1.76.08-.48-.07-1.01-.08-1.16-.59-.7-1.02-1.2-1.43-1.72-.33-.42-.57-.94-.97-1.26-.99-.77-2.04-1.46-3.08-2.17-2.72-1.87-5.84-2.22-9.03-2.33-.23-.77-.46-1.53-.69-2.3-.07-.32-.15-.64-.22-.96-.06-.42-.12-.85-.18-1.27-.04-.22-.08-.43-.12-.65.04-.72.08-1.43.13-2.15.63-.27,1.27-.5,1.87-.82,3.21-1.74,6.51-3.25,10.16-3.85.16.06.32.11.48.17.46.31.91.61,1.37.92.66.64,1.31,1.27,1.97,1.91l.27.3c.03.11.06.22.1.33-4.17-.72-7.3,1.45-10.92,3.7,1.08.21,1.65.3,2.2.44,2.33.6,4.92.75,6.9,1.94,2.45,1.47,4.57,3.61,6.25,6.06.39.57,1.18.87,1.78,1.29.22.32.44.63.66.95,0,0-.01,0-.01,0,.06.22.12.44.18.66.2,1.05.41,2.1.61,3.15.06.24.12.47.17.71.14,1.77.27,3.55.41,5.32.08.22.16.43.23.65.03.21.06.42.09.62,0,.32.02.64.03.96-.07.73-.15,1.45-.22,2.18-.47,1.38-.77,2.85-1.46,4.12-.99,1.82-2.26,3.49-3.43,5.21-.1.15-.36.19-.55.27-1.5.66-1.76,1.36-.77,2.58.66.82,1.67,2.17,2.29,2.06,1.97-.36,4.1-.95,5.69-2.1,2.21-1.61,3.97-3.82,5.95-5.74.26-.25.71-.32,1.05-.46-.73-1.77.98-1.97,1.6-2.59-.38-2.63,1.03-4.49,2.04-6.52-.25-.37-.55-.8-.58-.86.21-1.04.62-1.82.42-2.38-.49-1.35-.63-2.52.58-3.58-.57-1.07-1.11-2.09-1.65-3.11.04-.07.08-.14.13-.21.1-.33.2-.65.3-.98.33-.71.67-1.42,1-2.14.19-.35.39-.7.58-1.05,0,0,0-.02,0-.02.05-.09.1-.17.15-.26.69-1.09,1.37-2.17,2.06-3.26.51.09,1.02.24,1.54.25,2.02.06,4.07-.11,6.06.17,2.16.3,4.31.85,6.37,1.57,2.37.83,4.64,1.95,6.95,2.97.8.36,1.63.72,2.33,1.23,1.15.83,2.79,1.12,3.24,2.78-.34.47-.68.95-1.02,1.42-.12.15-.25.3-.37.45-.67.62-1.34,1.24-2.02,1.85-1.4-1.05-2.68-2.34-4.23-3.1-3.91-1.91-7.71-4.14-12.2-4.56-1.6-.15-3.17-.54-4.71-.82.4,3.09.65,5.77,1.11,8.42.45,2.61.25,5.14-.34,7.68-.06.26.03.68.21.84.17.15.57.13.84.06,1.65-.46,3.28-1.31,4.93-1.35,2.01-.04,4.04.59,6.06.93-.05.07-.08.15-.08.24-.24.2-.47.4-.71.6,0,0,.01-.02.01-.02-.29.24-.58.49-.88.73,0,0,0,0,0,0-.12.1-.24.2-.36.3-.3.24-.6.47-.91.71-.1.09-.2.18-.3.26-.33.25-.65.51-.98.76-.17.15-.34.3-.51.45-.16.1-.32.2-.48.29-.13.14-.26.28-.38.41-.5.39-.99.78-1.49,1.17-.3.14-.61.28-.91.42-.12.11-.25.22-.37.33-.1.1-.2.2-.3.3,0,0-.02.01-.02.01-.11.1-.23.2-.34.29-.74.52-1.48,1.05-2.22,1.57-.14.1-.28.21-.43.31-.4.28-.8.55-1.2.83-.22.15-.44.31-.66.46-.12,0-.21.04-.26.14-.09.07-.18.14-.27.21-.24.16-.47.32-.71.48-.22.15-.43.3-.65.45-.1.05-.19.1-.29.16-.08.06-.17.13-.25.19-.13.08-.26.16-.39.25-.2.13-.4.26-.59.39-.12.09-.24.17-.37.25l-1.81,1.02c.05.11.09.22.14.33l1.69-.37c.96-.11,1.92-.22,2.87-.33.1,0,.21,0,.31-.01.32-.03.64-.06.95-.09.32-.06.64-.11.97-.17.95-.09,1.91-.18,2.86-.27.22-.02.43-.03.65-.05.63-.03,1.27-.06,1.9-.09.22.01.44.03.65.04l-.05.07c.68.48,1.47.86,2.01,1.47,1,1.11,1.64,2.66,2.81,3.49,2.43,1.71,3.02,4.51,4.15,6.84,1.46,3,1.91,6.49,2.8,9.77-2.32-.3-4.65-.59-6.97-.89-.69-2.47-1.27-4.97-2.09-7.39-1.1-3.23-3.04-6.02-5.19-8.63-.56-.68-1.53-1.1-2.39-1.44-.78-.31-1.44.14-1.38,1,.15,2.23.43,4.46.63,6.69.06.66,0,1.32,0,1.97.67,1.14,1.47,2.31,2.04,3.57.41.9.5,1.93.73,2.91-.19-.04-.38-.08-.56-.12-.14-.03-.28-.05-.42-.08-.63-.1-1.25-.19-1.88-.29-.1-.02-.2-.04-.3-.06-1.2-.31-2.4-.62-3.6-.93-.9-2.21-1.79-4.41-2.69-6.62-.2,0-.41.02-.61.03-.24,1.68-.47,3.37-.74,5.05-.04.23-.24.44-.37.66-.47-.07-.94-.14-1.41-.22-.32-.1-.64-.2-1.37-.44.48.66.68.94.88,1.21.54.94,1.09,1.87,1.63,2.81.09.15.18.3.26.45.23.43.46.86.68,1.28,0,0-.06,0-.06,0l.07.02c.08.19.17.37.25.56,0,0-.04.09-.04.09l.11.03c.2.36.4.73.6,1.09.09.17.19.34.28.5,0,0,.04.12.04.12.97,1.79,1.93,3.58,2.9,5.37.06.12.13.24.19.36.13.26.25.51.38.77.41.72.83,1.44,1.24,2.16,0,0-.02.13-.02.13l.12.08c.07.13.15.27.22.4.12.25.23.49.35.74.17.39.33.78.5,1.16.07.08.13.16.2.24.05.14.11.28.16.42.24.46.49.93.73,1.39-.04.08-.02.13.06.17.08.17.17.34.25.51.06.23.12.47.18.7-.18.08-.44.29-.53.24-2.19-1.45-4.65-2.63-6.46-4.46-2.16-2.18-3.96-4.8-5.52-7.46-1.27-2.17-2.02-4.66-2.83-7.06-.48-1.41-.91-2.81-.44-4.49.39-1.38-.51-3.13-.12-4.52.46-1.66-.04-4.02,2.52-4.67-.72-1.16-1.53-1.58-2.72-1.1-2.66,1.07-5.37,1.22-8.13.42-.7-.2-1.38-.45-2.08-.63-1.65-.43-2.91-1.28-3.82-2.79-.7-1.16-1.78-1.74-3.33-1.57-1.95.21-3.99.32-5.91-.01-2.02-.35-4.02-1.11-5.9-1.98-1.68-.78-3.14-2.01-4.77-2.92-1.6-.9-1.79-3.17-3.71-3.72-.07-.02-.08-.19-.13-.28-.42-.65-.92-1.27-1.26-1.96-1-2.04-2.83-3.91-1.5-6.35-.29-.37-.67-.66-.76-1.02-.2-.83-.27-1.69-.39-2.54.2.01.39.03.59.04.12.08.24.17.36.25.5.24,1,.48,1.5.72.14.09.28.17.42.26.75.43,1.49.86,2.24,1.29.09.07.19.13.28.2.09.05.18.1.27.15.13.08.26.17.38.25.67.52,1.33,1.05,2,1.57.93,3.81,2.55,7.18,5.85,9.57,2.86,2.07,5.8,2.88,9.06.95,1.1.86,2.19,1.72,3.29,2.58,0,.12.06.17.18.16.08.07.17.14.25.2.13.11.26.22.39.34.57.51,1.15,1.02,1.72,1.53,0,.12.06.18.18.18.08.07.16.13.23.2.15.13.29.25.44.38.01.12.07.18.19.19.21.1.41.2.62.31l-.15-.93c-.29-.52-.58-1.05-.87-1.57-.16-.29-.32-.58-.48-.86-.15-.25-.3-.51-.45-.76-.06-.09-.11-.18-.17-.28h0c-.19-.37-.39-.72-.58-1.08Z"/><path class="cls-3" d="M66.52,53.33c.12.85.18,1.71.39,2.54.09.36.47.65.76,1.02-1.34,2.44.5,4.31,1.5,6.35.34.69.84,1.31,1.26,1.96.06.09.07.26.13.28,1.92.55,2.11,2.82,3.71,3.72,1.62.91,3.09,2.14,4.77,2.92,1.88.87,3.87,1.63,5.9,1.98,1.92.33,3.96.22,5.91.01,1.56-.17,2.63.41,3.33,1.57.91,1.52,2.17,2.36,3.82,2.79.7.18,1.38.43,2.08.63,2.76.8,5.47.65,8.13-.42,1.2-.48,2-.06,2.72,1.1-2.56.66-2.06,3.01-2.52,4.67-.39,1.39.51,3.13.12,4.52-.47,1.68-.04,3.07.44,4.49.81,2.41,1.57,4.89,2.83,7.06,1.55,2.66,3.36,5.28,5.52,7.46,1.81,1.83,4.27,3.02,6.46,4.46.09.06.35-.15.53-.24.09,0,.17.01.24.06.08.22.16.45.24.67,0,0,0-.01,0-.01.11.23.21.46.32.7.44,1.04.89,2.07,1.33,3.11,0,.2.02.39.03.59-.77.89-1.47,1.84-2.27,2.71-.95,1.02-1.31,2.04-3.07,2.49-1.74.45-3.07,2.46-4.1,3.36-1.71.84-2.91,1.42-4.1,2.01v1.65c-1.19-.67-2.33-1.15-3.27-1.88-1.12-.87-1.86-3.47-1.24-4.41.74-1.11,1.58-2.26,2.63-3.04,2.27-1.7,4.88-7.01,3.71-10.06-.93-2.41-.99-2.59-3.31-2.16-.38-.7-.58-1.72-1.12-1.95-1.81-.77-3.52-2.18-5.74-1.35-1.03.39-2.7.02-2.13,2.07.05.17-.41.55-.7.73-1.18.72-.94,1.31.64,2-1.94-.21-2.28.45-1.96,1.78.09.38-.39.9-.61,1.36-.15-.36-.39-.71-.42-1.08-.15-1.98-.24-3.97-.36-5.95-.02-.63-.03-1.27-.05-1.9-.01-4.25-.02-8.5-.04-12.75-.05-.17-.11-.34-.16-.51-.14.17-.27.33-.41.5-.22.25-.43.49-.65.73-.12,0-.18.07-.16.2-4.1,5.18-8.19,10.36-12.3,15.52-1.13,1.42-2.32,2.8-3.48,4.2-.2.23-.4.47-.61.7-.09.02-.18.03-.27.03-.04-1.55-.08-3.09-.12-4.64-.08-3.53-2.09-5.96-4.62-8.08-.79-.66-1.56-1.34-2.33-2.02.02-.17.04-.33.06-.5.2-.13.4-.26.61-.39,2.74-1.65,5.49-3.31,8.24-4.95.54-.32,1.09-.61,1.64-.91.09-.08.18-.15.28-.23,1.51-.82,3.01-1.65,4.52-2.47.17-.16.34-.31.51-.47-.18-.09-.35-.19-.53-.28-2.38-.95-4.78-1.85-7.13-2.87-1.91-.83-3.76-1.8-5.63-2.71-.41-.76-.69-1.65-1.26-2.27-2.44-2.65-5.85-2.9-9.12-3.45-.29-.05-.67.44-1,.68-1.6-.73-3.21-1.47-4.81-2.2-.55-.27-1.09-.55-1.64-.82-.81-.34-1.62-.69-2.43-1.03-.16-.16-.32-.31-.47-.47.25-.82.57-1.62.74-2.46.17-.81.11-1.67.28-2.47.25-1.11.64-2.18.93-3.28.21-.81.2-1.72.56-2.44,1.69-3.32,3.47-6.6,5.23-9.89,1.04.54,2.08,1.08,3.12,1.61Z"/><path class="cls-3" d="M102.21,134.26c-.53-3.22-1.07-6.44-1.57-9.67-.09-.61.04-1.25.07-1.88.26.41.57.81.78,1.25.5,1.07.73,2.37,1.49,3.19,1.71,1.88,3.54,3.7,5.55,5.25,3.29,2.52,7.05,2.2,10.56.69,2.5-1.08,4.71-2.86,7.01-4.39,1.29-.85,2.5-1.81,3.75-2.73,1.39,4.35,2.81,8.7,4.16,13.07,1.09,3.52,1.15,7.2.9,10.79-.35,4.9-2.61,9.36-8.44,11.27-4.45,1.46-8.59,1.06-12.04-1.88-2.4-2.04-4.35-4.75-6.09-7.42-2.46-3.79-3.77-8.11-4.86-12.48-.36-1.47-.72-2.94-1.08-4.4-.06-.22-.12-.43-.18-.65Z"/><path class="cls-2" d="M146.81,48.26c-.45-1.65-2.09-1.94-3.24-2.78-.71-.51-1.53-.87-2.33-1.23-2.3-1.02-4.57-2.14-6.95-2.97-2.06-.72-4.21-1.27-6.37-1.57-1.99-.28-4.04-.11-6.06-.17-.51-.02-1.03-.16-1.54-.25,1.28-2.17,2.49-4.39,3.85-6.5,1.48-2.3,2.84-4.76,4.71-6.7,3.23-3.36,6.7-6.56,11.56-7.52,0,0,.15.02.15.02,0,0,.14-.06.14-.06,1.69.25,3.38.51,5.06.76.12.09.24.17.36.26.93.68,1.89,1.33,2.78,2.06,2.78,2.28,4.01,5.41,4.72,8.81.06.32.12.64.18.96-.55,2.83-1.1,5.66-1.66,8.49-.09.15-.19.29-.28.44-1.06,1.82-2.12,3.63-3.18,5.45-.07.09-.14.18-.21.26-.56.75-1.12,1.5-1.68,2.25Z"/><path class="cls-2" d="M33.07,44.42c5.13-.16,10.18.25,15.22,1.38,3.06.68,5.87,1.81,8.69,3.07-.22.22-.55.39-.66.66-1.25,3.16-4.35,5.32-4.82,8.93-.06.44-.7.77-.95,1.21-.33.56-.72,1.17-.77,1.79-.13,1.5.02,3.04-.94,4.25-.17.89-.35,1.78-.52,2.66-2.77-1.48-5.54-2.96-8.31-4.45-.42-.22-.83-.46-1.24-.68-.08-.07-.17-.14-.25-.21-1.36-.8-2.72-1.59-4.08-2.39-.23-.14-.45-.27-.68-.41-1.26-.93-2.52-1.85-3.78-2.78-.55-.43-1.09-.87-1.64-1.3-1.12-1.19-2.26-2.37-3.37-3.58-2.37-2.6-1.94-4.83,1.23-6.42.38-.19.78-.34,1.16-.51.13-.07.26-.15.38-.22,1.56-.28,3.13-.57,4.69-.85.21-.05.43-.1.64-.15Z"/><path class="cls-4" d="M129.84,125.97c-1.25.91-2.46,1.88-3.75,2.73-2.3,1.52-4.51,3.31-7.01,4.39-3.5,1.51-7.27,1.83-10.56-.69-2.01-1.54-3.84-3.36-5.55-5.25-.75-.83-.98-2.13-1.49-3.19-.21-.44-.52-.83-.78-1.25-.22-.38-.45-.76-.67-1.13.76-.78.84-3.03.15-4.2,0-.2,0-.4-.01-.6-.12-1.22-.23-2.43-.35-3.65-.01-.17-.02-.34-.03-.5.22-.46.71-.98.61-1.36-.33-1.33.02-1.99,1.96-1.78-1.58-.69-1.82-1.27-.64-2,.29-.18.75-.56.7-.73-.56-2.05,1.1-1.68,2.13-2.07,2.22-.83,3.94.57,5.74,1.35.54.23.74,1.26,1.12,1.95,2.32-.43,2.38-.26,3.31,2.16,1.17,3.05-1.44,8.37-3.71,10.06-1.05.79-1.9,1.93-2.63,3.04-.62.94.12,3.54,1.24,4.41.94.73,2.08,1.21,3.27,1.88v-1.65c1.19-.58,2.39-1.17,4.1-2.01,1.03-.9,2.36-2.91,4.1-3.36,1.76-.45,2.12-1.47,3.07-2.49.8-.86,1.5-1.82,2.27-2.71.2.22.4.44.6.66.06.13.12.26.19.38.13.25.26.5.39.76.23.59.46,1.17.69,1.76.29.59.57,1.19.86,1.78.18.47.36.95.54,1.42.05.13.11.25.16.38-.01.5-.02,1-.03,1.5Z"/><path class="cls-4" d="M73.83,97.59c.78.67,1.55,1.36,2.33,2.02,2.54,2.13,4.55,4.55,4.62,8.08.03,1.55.08,3.09.12,4.64-.33.52-.67,1.05-1,1.57-.1.1-.19.2-.29.31-.32.35-.64.69-.96,1.04-.44.5-.88.99-1.33,1.49-.84.87-1.67,1.74-2.51,2.61-.2.2-.4.39-.6.59-.09.02-.14.07-.13.16-.34.36-.68.72-1.02,1.07-.08.04-.14.1-.18.19-.2.17-.39.34-.59.51,0,0-.03.03-.03.03-.21.2-.42.4-.63.6-.76.72-1.52,1.44-2.29,2.16-.36.32-.72.64-1.08.96-2.92,2.05-5.84,4.09-8.76,6.14-.8.29-1.6.59-2.4.88-1,.01-1.99.03-2.99.04-.1-.04-.21-.09-.31-.13-.47-.27-.93-.53-1.4-.8-.07-.07-.14-.14-.21-.22-.13-.15-.26-.3-.39-.45-.08-.12-.16-.23-.24-.35-.09-.1-.19-.2-.28-.3-.01-.31-.03-.62-.04-.94,2.93,1.66,5.92,2.05,9.1.37-.32-.21-.57-.38-.83-.54-.32-.18-.64-.35-.97-.51-3.28-1.59-5.98-3.84-7.82-7.03.59-1.48,1.17-2.96,1.76-4.44.1-.1.2-.21.3-.31,0,0,.01-.02.01-.02.4.8.79,1.6,1.2,2.4,1.08,2.12,4.15,3.65,6.48,3.12,2.07-.47,4.17-.93,6.14-1.7,1.37-.53,2.7-1.41,3.75-2.45,1.12-1.11,1.34-2.58.99-4.28-.6-2.92-1.13-5.8-3.3-8.02-.87-.89-1.89-1.63-2.84-2.44.13-.17.27-.34.4-.51.15-.12.31-.24.46-.35.78-.49,1.57-.98,2.35-1.47,2.06,2.44,4.11,4.88,6.36,7.54.76-2.19-.08-3.99-.97-5.56-.93-1.64-2.59-2.61-4.64-2.52.51-.49,1.01-.98,1.52-1.47.33-.23.66-.46.99-.69,0,0-.01.01-.01.01.32-.22.64-.44.96-.67.41-.13.82-.25,1.23-.38Z"/><path class="cls-4" d="M147.75,73.17c.64.08,1.27.16,1.91.24.53.09,1.05.18,1.58.27.32.13.64.25.96.38.62,1.51,1.23,3.03,1.72,4.22.56-.69,1.06-1.29,1.55-1.89.16.15.31.31.47.46-.26-.36-.52-.72-.79-1.11.35-.38.63-.68.91-.99.73.19,1.46.39,2.2.58.21.08.43.17.64.25,1.2.57,2.41,1.15,3.61,1.72.09.17.18.35.27.52-.37,1.19-.71,2.4-1.1,3.58-1.49,4.47-3.84,8.41-7.28,11.67-.64.6-1.14,1.35-1.71,2.03-2.16.09-4.33.18-6.49.27-.55-.07-1.1-.13-1.64-.2-.21,0-.43-.02-.64-.02l-.62-.02c-.31-.04-.63-.07-.94-.11-.13-.05-.27-.1-.4-.15,0,0-.04-.04-.04-.04.32-.47.62-.95.96-1.39.58-.75,1.17-1.5,1.78-2.22.23-.27.58-.45.8-.72.4-.5.88-.99,1.09-1.57.63-1.7,1.14-3.45,1.65-5.03-.28-3.88-1.75-7.42-3.64-10.79.85,0,1.7,0,2.54,0,.22.02.43.04.65.06Z"/><path class="cls-3" d="M135.07,60.09c-2.02-.34-4.05-.97-6.06-.93-1.65.04-3.28.89-4.93,1.35-.27.07-.67.09-.84-.06-.18-.17-.27-.58-.21-.84.59-2.54.8-5.07.34-7.68-.46-2.65-.71-5.33-1.11-8.42,1.54.27,3.11.66,4.71.82,4.48.43,8.29,2.66,12.2,4.56,1.55.76,2.83,2.05,4.23,3.1-.89,1.02-1.78,2.03-2.67,3.05-.08.07-.16.15-.25.23-1.7,1.58-3.41,3.16-5.11,4.73-.07.06-.19.07-.29.1Z"/><path class="cls-3" d="M65.19,103.64c.95.81,1.97,1.55,2.84,2.44,2.17,2.22,2.7,5.1,3.3,8.02.35,1.7.13,3.18-.99,4.28-1.05,1.03-2.38,1.91-3.75,2.45-1.97.77-4.07,1.23-6.14,1.7-2.33.53-5.39-1.01-6.48-3.12-.41-.8-.8-1.6-1.2-2.4.32-.64.65-1.27.97-1.91.09-.19.17-.37.26-.56,1.08-1.35,2.04-2.81,3.27-4.01,2.5-2.44,4.56-5.41,7.91-6.88Z"/><path class="cls-3" d="M144.57,73.11c1.89,3.38,3.36,6.91,3.64,10.79-.51,1.58-1.02,3.32-1.65,5.03-.21.58-.69,1.07-1.09,1.57-.22.28-.57.45-.8.72-.61.73-1.2,1.47-1.78,2.22-.34.45-.64.93-.96,1.39-.41-.04-.82-.08-1.22-.13-.89-3.28-1.34-6.76-2.8-9.77-1.13-2.33-1.72-5.12-4.15-6.84-1.17-.83-1.81-2.37-2.81-3.49-.54-.61-1.33-.99-2.01-1.47,1.92-.11,3.84-.23,5.76-.35,2.34,0,4.68,0,7.02,0l2.86.3Z"/><path class="cls-4" d="M48.31,68.37c.17-.89.35-1.78.52-2.66.96-1.21.82-2.75.94-4.25.05-.62.44-1.23.77-1.79.26-.44.9-.78.95-1.21.46-3.61,3.56-5.77,4.82-8.93.1-.26.43-.44.66-.66.75.22,1.5.44,2.25.66.3.13.6.26.91.38,1.09.6,2.18,1.21,3.27,1.81-1.75,3.29-3.54,6.57-5.23,9.89-.37.72-.35,1.63-.56,2.44-.29,1.1-.69,2.17-.93,3.28-.18.81-.12,1.66-.28,2.47-.17.84-.49,1.64-.74,2.46-.19-.06-.38-.12-.58-.17-.2-.1-.39-.19-.59-.29-.13-.07-.25-.14-.38-.21-.51-.25-1.01-.5-1.52-.75-.24-.09-.48-.18-.72-.27-1.19-.73-2.37-1.47-3.56-2.2Z"/><path class="cls-3" d="M116.1,47.21c.54,1.02,1.08,2.03,1.65,3.11-1.22,1.06-1.08,2.23-.58,3.58.2.56-.21,1.33-.42,2.38.04.06.33.48.58.86-1.01,2.02-2.42,3.88-2.04,6.52-.62.62-2.33.82-1.6,2.59-.34.14-.79.2-1.05.46-1.98,1.92-3.74,4.14-5.95,5.74-1.59,1.16-3.71,1.74-5.69,2.1-.63.11-1.63-1.24-2.29-2.06-.99-1.22-.73-1.93.77-2.58.19-.08.45-.12.55-.27,1.17-1.72,2.44-3.39,3.43-5.21.69-1.26.99-2.74,1.46-4.12.14,1.03.36,2.05.39,3.09.07,1.96.04,3.92.05,5.88,0,.54,0,1.08,0,1.62.09.01.19.02.28.03.16-.54.31-1.07.47-1.61,1.24-3.02,2.49-6.04,3.73-9.06,1.53-3.73,3.01-7.49,4.61-11.19.31-.72,1.08-1.24,1.64-1.86Z"/><path class="cls-2" d="M81.44,40.05c3.18.11,6.3.46,9.03,2.33,1.03.71,2.09,1.4,3.08,2.17.4.32.64.84.97,1.26.41.52.84,1.02,1.43,1.72.01.15.16.67.08,1.16-.1.61-.34,1.22-.63,1.76-.23.43-.7.72-.96,1.14-1.01,1.65-1.96,3.34-2.97,4.99-.68,1.1-.18,2.89,1,3.78-.84,0-1.69,0-2.53,0-.26-.33-.52-.65-.77-.98-.11-.21-.22-.42-.32-.63-1.5-3.06-3.07-6.08-4.46-9.18-.78-1.73-1.3-3.59-1.87-5.41-.42-1.35-.72-2.75-1.07-4.12Z"/><path class="cls-2" d="M152.7,95.11c.57-.68,1.07-1.42,1.71-2.03,3.44-3.26,5.79-7.2,7.28-11.67.39-1.18.74-2.39,1.1-3.58.09,0,.17-.01.26-.02,2.51,1.6,3.99,3.87,4.55,6.79.75,3.9-1.04,7.35-4.79,8.77-1.77.67-3.66,1.03-5.49,1.52-.22.06-.43.12-.65.18-1.32.01-2.64.03-3.97.04Z"/><path class="cls-3" d="M126.07,92.5c-.23-.97-.33-2.01-.73-2.91-.57-1.27-1.37-2.43-2.04-3.57,0-.65.05-1.31,0-1.97-.2-2.23-.48-4.45-.63-6.69-.06-.86.6-1.31,1.38-1,.86.34,1.83.76,2.39,1.44,2.15,2.61,4.09,5.4,5.19,8.63.82,2.42,1.4,4.92,2.09,7.39-.21.01-.43.02-.64.04-.21-.06-.42-.13-.63-.19-1.49-.25-2.97-.49-4.46-.74-.1-.06-.2-.08-.31-.05-.54-.13-1.07-.25-1.61-.38Z"/><path class="cls-3" d="M102.77,45.12c-.6-.42-1.39-.72-1.78-1.29-1.68-2.45-3.79-4.59-6.25-6.06-1.98-1.18-4.58-1.34-6.9-1.94-.56-.14-1.13-.23-2.2-.44,3.62-2.26,6.76-4.42,10.92-3.7,2.11,1.87,3.17,4.39,4.28,6.88.21.48.45.95.67,1.42,0,.11.02.21.07.3.44,1.49.89,2.97,1.33,4.46-.05.12-.1.25-.15.37Z"/><path class="cls-3" d="M89.47,68.59c-3.26,1.92-6.2,1.12-9.06-.95-3.3-2.39-4.92-5.76-5.85-9.57,3.38,2.3,6.77,4.58,10.13,6.92,1.63,1.14,3.19,2.4,4.78,3.6Z"/><path class="cls-3" d="M50.71,121.78c1.84,3.19,4.54,5.44,7.82,7.03.33.16.65.33.97.51.26.15.51.33.83.54-3.18,1.68-6.17,1.3-9.1-.37-.11,0-.22.01-.33.02-.23-1.82-.47-3.63-.7-5.45.04-.1.05-.2.02-.3.02-.21.03-.43.05-.64.05-.21.11-.43.16-.64.09-.23.19-.46.28-.69Z"/><path class="cls-2" d="M92.38,28.06c-3.64.6-6.94,2.11-10.16,3.85-.6.32-1.25.55-1.87.82.1-4.05,1.79-6.37,4.88-6.37,1.56,0,3.14.34,4.68.68.86.19,1.65.67,2.47,1.02Z"/><path class="cls-1" d="M65,76.78c.34-.24.72-.73,1-.68,3.26.55,6.67.8,9.12,3.45.57.62.85,1.51,1.26,2.27-.5-.16-1.01-.32-1.51-.48-.23-.1-.47-.2-.7-.3,0,0,.01,0,.01,0-.11-.06-.22-.13-.33-.19-.11-.04-.22-.08-.33-.12-.31-.14-.62-.27-.93-.41-.19-.09-.39-.17-.58-.26-.45-.21-.9-.41-1.35-.62-1.89-.89-3.77-1.78-5.66-2.68Z"/><path class="cls-3" d="M69.15,100.78c2.05-.09,3.71.87,4.64,2.52.89,1.57,1.73,3.37.97,5.56-2.25-2.66-4.3-5.1-6.36-7.54.25-.18.5-.36.75-.53Z"/><path class="cls-3" d="M114.91,90.13c.13-.22.34-.42.37-.66.26-1.68.49-3.36.74-5.05.2,0,.41-.02.61-.03.9,2.21,1.79,4.41,2.69,6.62-1.47-.3-2.93-.59-4.4-.89Z"/><path class="cls-3" d="M156.06,74.76c-.28.31-.56.61-.91.99.27.38.53.74.79,1.11-.16-.15-.31-.31-.47-.46-.49.6-.99,1.2-1.55,1.89-.49-1.2-1.1-2.71-1.72-4.22.41,0,.82.01,1.24.02.11.06.22.11.33.17.33.04.66.09.99.13.09.05.18.1.28.15.34.08.68.16,1.02.23Z"/><path class="cls-5" d="M141.7,72.8c-2.34,0-4.68,0-7.02,0,2.34,0,4.68,0,7.02,0Z"/><path class="cls-5" d="M119.73,102.99c-.97-1.79-1.93-3.58-2.9-5.37.97,1.79,1.93,3.58,2.9,5.37Z"/><path class="cls-3" d="M100.19,117.38c.69,1.17.62,3.42-.15,4.2.05-1.4.1-2.8.15-4.2Z"/><path class="cls-3" d="M99.83,113.13c.12,1.22.23,2.43.35,3.65-.12-1.22-.23-2.43-.35-3.65Z"/><path class="cls-5" d="M129.18,122.67c-.29-.59-.57-1.19-.86-1.78,1.73-.1,1.33.82.86,1.78Z"/><path class="cls-5" d="M117.8,74.03l-1.69.37c-.05-.11-.09-.22-.14-.33l1.81-1.02c0,.33.01.66.02.99Z"/><path class="cls-5" d="M58.55,73.76c.55.27,1.09.55,1.64.82-1.08.79-1.5.26-1.64-.82Z"/><path class="cls-5" d="M73.07,121.17c.34-.36.68-.72,1.02-1.07.2.28.39.57.75,1.07h-1.77Z"/><path class="cls-5" d="M98.97,103.7c.02.63.03,1.27.05,1.9-.02-.63-.03-1.27-.05-1.9Z"/><path class="cls-5" d="M94.23,29.15c-.46-.31-.91-.61-1.37-.92.48-.11.96-.22,1.59-.37-.09.54-.15.91-.22,1.29Z"/><path class="cls-5" d="M77.33,116.73c.44-.5.88-.99,1.33-1.49-.1.8-.22,1.58-1.33,1.49Z"/><path class="cls-5" d="M57.11,132.62c.8-.29,1.6-.59,2.4-.88l-2.4.88Z"/><path class="cls-5" d="M28.32,56.15c.55.43,1.09.87,1.64,1.3-.97.09-1.57-.27-1.64-1.3Z"/><path class="cls-5" d="M106.11,69.32c-.16.54-.31,1.07-.47,1.61-.09-.01-.19-.02-.28-.03,0-.54,0-1.08,0-1.62.25.01.5.03.75.04Z"/><path class="cls-5" d="M68.28,125.61c.36-.32.72-.64,1.08-.96.11.86-.31,1.11-1.08.96Z"/><path class="cls-5" d="M151.24,73.68c-.53-.09-1.05-.18-1.58-.27.53.09,1.05.18,1.58.27Z"/><path class="cls-5" d="M144.56,95.18c.55.07,1.1.13,1.64.2-.55-.07-1.1-.13-1.64-.2Z"/><path class="cls-5" d="M127.05,117.99c-.2-.22-.4-.44-.6-.66,0-.2-.02-.39-.03-.59.21.42.42.83.63,1.25Z"/><path class="cls-5" d="M80.52,36.79c.07.32.15.64.22.96-.07-.32-.15-.64-.22-.96Z"/><path class="cls-5" d="M122.9,73.43c-.32.06-.64.11-.97.17.32-.06.64-.11.97-.17Z"/><path class="cls-5" d="M70.67,79.46c.45.21.9.41,1.35.62-.45-.21-.9-.41-1.35-.62Z"/><path class="cls-5" d="M153.82,31.37c-.06-.32-.12-.64-.18-.96.06.32.12.64.18.96Z"/><path class="cls-5" d="M105.15,58.14c0-.32-.02-.64-.03-.96.18.18.36.36.54.54-.17.14-.34.28-.51.42Z"/><path class="cls-5" d="M96.82,73.73l.15.93c-.21-.1-.41-.2-.62-.31.16-.21.31-.42.47-.62Z"/><path class="cls-5" d="M113,90.68c-.2-.27-.39-.54-.88-1.21.73.23,1.05.34,1.37.44-.16.26-.33.51-.49.77Z"/><path class="cls-5" d="M102.77,45.12c.05-.12.1-.25.15-.37.17.44.34.88.51,1.32-.22-.32-.44-.63-.66-.95Z"/><path class="cls-5" d="M123.8,110.85c-.24-.46-.49-.93-.73-1.39.24.46.49.93.73,1.39Z"/><path class="cls-5" d="M91.72,64.42c.19.35.37.7.56,1.04-.19-.35-.37-.7-.56-1.04Z"/><path class="cls-5" d="M81.18,112.3c.2-.23.4-.47.61-.7-.2.23-.4.47-.61.7Z"/><path class="cls-5" d="M133.42,61.64c.29-.24.58-.49.88-.73-.29.24-.58.49-.88.73Z"/><path class="cls-5" d="M118.1,42.83c-.19.35-.39.7-.58,1.05.19-.35.39-.7.58-1.05Z"/><path class="cls-5" d="M71.65,98.62c-.33.23-.66.46-.99.69.33-.23.66-.46.99-.69Z"/><path class="cls-5" d="M55.07,72.09c.19.06.38.12.58.17.16.16.32.31.47.47-.35-.21-.7-.43-1.05-.64Z"/><path class="cls-5" d="M72.61,97.96c-.32.22-.64.44-.96.67.32-.22.64-.44.96-.67Z"/><path class="cls-5" d="M94.27,69.18c.19.36.39.71.58,1.07-.19-.36-.39-.71-.58-1.07Z"/><path class="cls-5" d="M50.43,122.47c-.05.21-.11.43-.16.64.05-.21.11-.43.16-.64Z"/><path class="cls-5" d="M95.48,71.29c.16.29.32.58.48.86-.16-.29-.32-.58-.48-.86Z"/><path class="cls-5" d="M80.22,34.88c.04.22.08.43.12.65-.04-.22-.08-.43-.12-.65Z"/><path class="cls-5" d="M127.1,66.43c.3-.14.61-.28.91-.42-.3.14-.61.28-.91.42Z"/><path class="cls-5" d="M33.07,44.42c-.21.05-.43.1-.64.15.21-.05.43-.1.64-.15Z"/><path class="cls-5" d="M128.97,73.07c-.22-.01-.44-.03-.65-.04l.34-.43c.1.16.21.32.31.48Z"/><path class="cls-5" d="M120.3,104.13c-.13-.26-.25-.51-.38-.77.13.26.25.51.38.77Z"/><path class="cls-5" d="M103.61,46.72c-.06-.22-.12-.44-.18-.66.18.07.37.15.55.22-.12.15-.24.29-.36.44Z"/><path class="cls-5" d="M126.41,73.11c-.22.02-.43.03-.65.05.22-.02.43-.03.65-.05Z"/><path class="cls-5" d="M102.21,134.26c.06.22.12.43.18.65-.06-.22-.12-.43-.18-.65Z"/><path class="cls-5" d="M134.28,60.93c.24-.2.47-.4.71-.6-.24.2-.47.4-.71.6Z"/><path class="cls-5" d="M147.75,73.17c-.22-.02-.43-.04-.65-.06.22.02.43.04.65.06Z"/><path class="cls-5" d="M88.83,58.76c.11.21.22.42.32.63-.11-.21-.22-.42-.32-.63Z"/><path class="cls-5" d="M74.5,96.71c-.2.13-.4.26-.61.39.2-.13.4-.26.61-.39Z"/><path class="cls-5" d="M156.66,95.07c.22-.06.43-.12.65-.18-.22.06-.43.12-.65.18Z"/><path class="cls-5" d="M105.03,56.55c-.08-.22-.16-.43-.23-.65.08.22.16.43.23.65Z"/><path class="cls-5" d="M132.45,93.67c.21.06.42.13.63.19-.21-.06-.42-.13-.63-.19Z"/><path class="cls-5" d="M158.9,75.59c-.21-.08-.43-.17-.64-.25.21.08.43.17.64.25Z"/><path class="cls-5" d="M98.37,90.94c.14-.17.27-.33.41-.5.05.17.11.34.16.51-.19,0-.38,0-.57,0Z"/><path class="cls-5" d="M145.38,51.99c-.04.09-.08.18-.11.26-.09-.04-.23-.06-.25-.12-.02-.06.06-.17.1-.26.09.04.18.08.26.11Z"/><path class="cls-5" d="M89.15,87.4c.18.09.35.19.53.28-.17.16-.34.31-.51.47,0-.25,0-.5-.01-.75Z"/><path class="cls-5" d="M72.6,80.33c.31.14.62.27.93.41-.31-.14-.62-.27-.93-.41Z"/><path class="cls-5" d="M74.18,81.05c.23.1.47.2.7.3-.23-.1-.47-.2-.7-.3Z"/><path class="cls-3" d="M116.52,46.02c-.1.33-.2.65-.3.98.1-.33.2-.65.3-.98Z"/><path class="cls-5" d="M74.22,119.93c.2-.2.4-.39.6-.59-.2.2-.4.39-.6.59Z"/><path class="cls-5" d="M60.13,49.9c-.3-.13-.6-.26-.91-.38.3.13.6.26.91.38Z"/><path class="cls-5" d="M71.65,122.49c.21-.2.42-.4.63-.6-.21.2-.42.4-.63.6Z"/><path class="cls-5" d="M50.9,129.51c.11,0,.22-.01.33-.02.01.31.03.62.04.94-.13-.31-.25-.61-.38-.92Z"/><path class="cls-5" d="M33.75,60.23c.23.14.45.27.68.41-.23-.14-.45-.27-.68-.41Z"/><path class="cls-5" d="M130.36,64.13c.17-.15.34-.3.51-.45-.17.15-.34.3-.51.45Z"/><path class="cls-5" d="M72.3,121.86c.2-.17.39-.34.59-.51-.2.17-.39.34-.59.51Z"/><path class="cls-5" d="M104.39,50.58c-.06-.24-.12-.47-.17-.71.06.24.12.47.17.71Z"/><path class="cls-5" d="M121.56,70.53c.22-.15.44-.31.66-.46-.22.15-.44.31-.66.46Z"/><path class="cls-5" d="M51.87,70.57c.24.09.48.18.72.27-.24-.09-.48-.18-.72-.27Z"/><path class="cls-5" d="M127.62,119.13c-.13-.25-.26-.5-.39-.76.13.25.26.5.39.76Z"/><path class="cls-5" d="M119.67,71.81c.22-.15.43-.3.65-.45-.22.15-.43.3-.65.45Z"/><path class="cls-5" d="M54.01,114.53c-.08.19-.17.37-.26.56.08-.19.17-.37.26-.56Z"/><path class="cls-5" d="M125.1,113.63c-.11-.23-.21-.46-.32-.7.11.23.21.46.32.7Z"/><path class="cls-5" d="M124.79,112.95c-.08-.22-.16-.45-.24-.67.08.22.16.45.24.67Z"/><path class="cls-5" d="M118.15,72.79c.2-.13.4-.26.59-.39-.2.13-.4.26-.59.39Z"/><path class="cls-5" d="M122.22,107.63c-.12-.25-.23-.49-.35-.74.12.25.23.49.35.74Z"/><path class="cls-5" d="M143.29,95.14l.62.02c-.21,0-.41-.01-.62-.02Z"/><path class="cls-5" d="M163.04,77.81c-.09,0-.17.02-.26.02-.09-.17-.18-.35-.27-.52.18.17.36.33.54.5Z"/><path class="cls-5" d="M146.15,19.55c-.12-.09-.24-.17-.36-.26.12.09.24.17.36.26Z"/><path class="cls-5" d="M96.46,31.36c-.09-.1-.18-.2-.27-.3l.27.3Z"/><path class="cls-5" d="M140.72,18.53s-.14.06-.14.06c0,0-.15-.01-.15-.02.1-.01.2-.03.29-.04Z"/><path class="cls-5" d="M101.59,40.29c-.05-.09-.08-.19-.07-.3.02.1.05.2.07.3Z"/><path class="cls-5" d="M151.88,40.3c.09-.14.19-.29.28-.44-.09.14-.19.29-.28.44Z"/><path class="cls-5" d="M118.26,42.56c-.05.09-.1.17-.15.26.02-.1.06-.19.15-.26Z"/><path class="cls-5" d="M27.73,45.42c-.13.07-.26.15-.38.22.13-.08.26-.15.38-.22Z"/><path class="cls-5" d="M148.49,46.01c.07-.09.14-.18.21-.26-.07.09-.14.18-.21.26Z"/><path class="cls-5" d="M145.41,50.13c.12-.15.25-.3.37-.45-.12.15-.25.3-.37.45Z"/><path class="cls-5" d="M67.47,53.62c-.12-.08-.24-.17-.36-.25.12.08.24.17.36.25Z"/><path class="cls-5" d="M69.39,54.61c-.14-.09-.28-.17-.42-.26.14.09.28.17.42.26Z"/><path class="cls-5" d="M140.48,55.26c.08-.08.17-.15.25-.23-.08.08-.17.15-.25.23Z"/><path class="cls-5" d="M71.92,56.1c-.09-.07-.19-.13-.28-.2.09.07.19.13.28.2Z"/><path class="cls-5" d="M72.57,56.5c-.13-.08-.26-.17-.38-.25.13.08.26.17.38.25Z"/><path class="cls-5" d="M133.06,61.94c.12-.1.24-.2.36-.3-.12.1-.24.2-.36.3Z"/><path class="cls-5" d="M131.85,62.92c.1-.09.2-.18.3-.26-.1.09-.2.18-.3.26Z"/><path class="cls-5" d="M38.51,63.03c.08.07.17.14.25.21-.08-.07-.17-.14-.25-.21Z"/><path class="cls-5" d="M129.5,64.83c.13-.14.26-.28.38-.41-.13.14-.26.28-.38.41Z"/><path class="cls-5" d="M126.42,67.05c.1-.1.2-.2.3-.3-.1.1-.2.2-.3.3Z"/><path class="cls-5" d="M126.06,67.36c.11-.1.23-.2.34-.29-.11.1-.23.2-.34.29Z"/><path class="cls-5" d="M123.42,69.24c.14-.1.28-.21.43-.31-.14.1-.28.21-.43.31Z"/><path class="cls-5" d="M94.86,70.25c.06.09.11.18.17.28-.06-.09-.11-.18-.17-.28Z"/><path class="cls-5" d="M121.02,70.88c.09-.07.18-.14.27-.21-.09.07-.18.14-.27.21Z"/><path class="cls-5" d="M92.94,71.34c-.12,0-.17-.05-.18-.16.08.04.13.09.18.16Z"/><path class="cls-5" d="M54.11,71.59c.13.07.25.14.38.21-.13-.07-.25-.14-.38-.21Z"/><path class="cls-5" d="M93.58,71.88c-.13-.11-.26-.22-.39-.34.13.11.26.22.39.34Z"/><path class="cls-5" d="M119.13,72.16c.08-.06.17-.13.25-.19-.08.06-.17.13-.25.19Z"/><path class="cls-5" d="M95.49,73.58c-.12,0-.18-.06-.18-.18.08.04.14.1.18.18Z"/><path class="cls-5" d="M120.99,73.69c-.1,0-.21,0-.31.01.1,0,.21,0,.31-.01Z"/><path class="cls-5" d="M96.16,74.16c-.15-.13-.29-.25-.44-.38.15.13.29.25.44.38Z"/><path class="cls-5" d="M153.77,74.24c-.11-.06-.22-.11-.33-.17.11.06.22.11.33.17Z"/><path class="cls-5" d="M155.04,74.53c-.09-.05-.18-.1-.28-.15.09.05.18.1.28.15Z"/><path class="cls-5" d="M73.86,80.86c.11.06.22.13.33.19-.11-.06-.22-.13-.33-.19Z"/><path class="cls-5" d="M84.65,90.62c-.09.08-.18.15-.28.23.09-.08.18-.15.28-.23Z"/><path class="cls-5" d="M97.57,91.87c-.02-.12.03-.19.16-.2-.03.08-.09.15-.16.2Z"/><path class="cls-5" d="M122.9,91.94c.1.02.2.04.3.06-.1-.02-.2-.04-.3-.06Z"/><path class="cls-3" d="M125.09,92.3c.14.03.28.05.42.08-.14-.03-.28-.05-.42-.08Z"/><path class="cls-5" d="M127.68,92.87c.11-.03.21,0,.31.05-.1-.02-.2-.03-.31-.05Z"/><path class="cls-5" d="M114.9,93.93c-.09-.15-.18-.3-.26-.45.09.15.18.3.26.45Z"/><path class="cls-3" d="M141.96,94.88c.13.05.27.1.4.15-.13-.05-.27-.1-.4-.15Z"/><polygon class="cls-5" points="115.59 95.23 115.52 95.21 115.58 95.22 115.59 95.23"/><polygon class="cls-5" points="115.91 95.91 115.8 95.88 115.85 95.79 115.91 95.91"/><path class="cls-5" d="M116.79,97.51c-.09-.17-.19-.34-.28-.5.09.17.19.34.28.5Z"/><path class="cls-5" d="M66.05,102.78c-.15.12-.31.24-.46.35.15-.12.31-.24.46-.35Z"/><path class="cls-5" d="M121.64,106.49l-.12-.08s.02-.13.02-.13c.05.06.08.13.1.21Z"/><path class="cls-5" d="M122.92,109.04c-.07-.08-.13-.16-.2-.24.07.08.13.16.2.24Z"/><path class="cls-5" d="M124.11,111.52c-.08-.17-.17-.34-.25-.51.08.17.17.34.25.51Z"/><path class="cls-5" d="M79.62,114.2c.1-.1.19-.2.29-.31-.1.1-.19.2-.29.31Z"/><path class="cls-3" d="M52.77,117.02c-.1.1-.2.21-.3.31.1-.1.2-.21.3-.31Z"/><path class="cls-5" d="M50.22,123.76c.03.1.02.2-.02.3-.03-.07-.07-.14-.08-.22,0-.02.06-.06.1-.08Z"/><path class="cls-5" d="M129.88,124.47c-.05-.13-.11-.25-.16-.38.05.13.11.25.16.38Z"/><path class="cls-5" d="M51.56,130.72c.08.12.16.23.24.35-.08-.12-.16-.23-.24-.35Z"/><path class="cls-5" d="M52.2,131.52c.07.07.14.14.21.22-.1-.04-.17-.12-.21-.22Z"/><path class="cls-5" d="M53.81,132.53c.1.04.21.09.31.13-.1-.04-.21-.09-.31-.13Z"/></svg>