<?xml version="1.0" encoding="UTF-8"?><svg id="Layer_1" xmlns="http://www.w3.org/2000/svg" viewBox="0 0 192.26 180.92"><defs><style>.cls-1{fill:#e5cf4b;}.cls-1,.cls-2,.cls-3,.cls-4,.cls-5,.cls-6,.cls-7,.cls-8,.cls-9{stroke-width:0px;}.cls-2{fill:#442611;}.cls-3{fill:#492b13;}.cls-4{fill:#efd14a;}.cls-5{fill:#c39e39;}.cls-6{fill:#f7d14c;}.cls-7{fill:#fcf5f3;}.cls-8{fill:#fbd44a;}.cls-9{fill:#fbd349;}</style></defs><path class="cls-3" d="M84.78,136.14s-.12-.06-.12-.06c0,0-.11.07-.11.07-.14,0-.29,0-.43,0-.83.03-1.67.06-2.5.09-1.03-.01-2.05-.03-3.08-.04-3.63-2.22-4.28-5.82-4.37-9.64,0-.33.44-.86.79-.97,3.5-1.2,6.86-1.17,9.93,1.23.98.76,2.01,1.47,2.89,2.11,2.93-1.49,5.82-2.91,8.67-4.41,4.21-2.2,8.56-4.2,11.97-7.65.94-.95,1.76-2,2.64-3-.47-.26-.62-.24-.77-.2-3.53,1.07-7.06,2.15-10.6,3.21-.4.12-1.02.37-1.22.2-1.47-1.28-2.99-.16-4.48-.2.51.15,1.02.3,1.6.47-.18.21-.24.33-.31.34-4.94.61-9.87,1.23-14.86.69-1.49-.16-2.97-.37-4.36.74-.94.76-2.23.87-3.2-.14-1.53-1.6-3.04-3.23-4.45-4.93-.45-.54-.56-1.35-.82-2.04-.35-.93-.61-1.91-1.05-2.8-1.66-3.33-3.3-6.65-3.43-10.49-.02-.5-.62-.96-.88-1.48-.27-.55-.79-1.5-.61-1.68,1.51-1.48,1.6-3.97,3.99-4.92,2.07-.82,3.87-2.34,5.79-3.55.16-.12.47-.3.45-.35-.48-1.35-1-2.68-1.51-4.02-.13.06-.27.11-.4.17-.04.25-.08.51-.12.76-.32-.37-.72-.7-.96-1.12-1.09-1.89-1.9-2.38-3.65-2.09-1.52.25-2.93,1.6-3.17,3.17-.16,1.04-.15,2.1-.25,3.15-.47,4.87-1.15,9.72-1.37,14.6-.44,9.46.38,18.85,2.16,28.15.47,2.44,1,4.87,1.5,7.3,0,0,.03-.01.03-.01-.79.03-1.25-.21-1.27-1.14-.02-.88-.26-1.75-.4-2.62-.01-.16,0-.32-.04-.47-.44-2.13-1.73-4.01-1.48-6.38.15-1.47-.35-3.02-.65-4.51-.08-.39-.5-.72-.77-1.08-.11.09-.23.18-.34.27.27,1.35.56,2.7.81,4.06.54,2.9,1.05,5.8,1.58,8.7.09.58.24,1.15.25,1.73,0,.5-.15,1-.23,1.5-.11-.02-.22-.05-.33-.07-.06-.1-.11-.21-.17-.31-.05-.1-.1-.21-.15-.31-.14-.51-.27-1.01-.41-1.52-.18-.66-.37-1.32-.55-1.98h0c-.2-1.7-.33-3.42-.61-5.12-.19-1.13-.67-2.2-.88-3.33-.29-1.56-.54-3.13-.63-4.71-.25-4.31-.41-8.63-.6-12.95.36.42.71.85,1.07,1.27v3.08c1.25.1,1.94-.12,1.24-1.55-.25-.5-.23-1.13-.45-1.65-.14-.33-.51-.57-.77-.85-.61-1.05-.12-1.61,1.06-2-1.72-1.58-.63-3.26-.2-4.95-.88,1.25-1.99,2.35-1.65,4.05.06.3-.18.66-.28,1-.24-7.73.61-15.36,2.2-22.9.63-2.99,2.9-4.68,5.91-5.01,2.84-.31,5.06.9,6.5,3.41.87,1.52,1.78,3.02,2.48,4.62.5,1.16,1.14,1.25,2.23.97,1.43-.37,2.9-.62,4.37-.82,8.7-1.17,17.41-2.28,26.1-3.48,3.68-.5,6.74-2.36,9.46-4.78,1.81-1.61,2.09-3.32,1.17-5.63-.82-2.06-2.34-3.1-4.66-3.12-1.85-.02-3.71-.05-5.56.05-3.7.18-7.42.27-11.09.72-5.56.69-11.09,1.65-16.64,2.5-.32,0-.64.01-.96.02-1.58.14-3.17.28-4.75.42-.33,0-.66,0-.98,0l-.62.08c-.11.05-.22.09-.34.14,0,0,0,0,0,0-1.44.07-2.89.01-4.31.23-1.35.21-2.67.66-3.99,1.08-1.42.45-2.81.97-4.22,1.46.06.18.11.35.17.53.94-.25,1.86-.57,2.81-.73.71-.12,1.46-.03,2.19-.03-1.74.6-3.48,1.19-5.21,1.81-3.57,1.29-7.21,2.26-11.03,2.36,0-.31.02-.61.03-.92.07-.23.14-.46.21-.69.04-.21.07-.42.11-.64l.2-.65c.03-.21.06-.42.09-.64l.19-.64c.27-.73.54-1.46.81-2.18,1.42.02,2.64-.39,3.52-1.57.15-.1.31-.2.46-.3.25-.05.5-.09.75-.14.95-.19,1.91-.38,2.86-.58.21-.06.42-.13.62-.19.13.02.26.03.09.01.16-.04.03,0-.09.03l.04-.47c.25-.09.5-.19.75-.28.18-.07.37-.14.55-.21.2-.06.39-.13.59-.19.86-.14,1.73-.28,2.59-.43.12-.05.24-.1.36-.14,1.15-.22,2.29-.44,3.44-.66.1-.01.21-.03.31-.04.22-.05.45-.1.67-.15,1.04,1.33,2.26.39,3.42.18h-2.59c2.43-.8,4.95-.33,7.42-.81,2.7-.53,5.49-.59,8.25-.86,0-.04.02-.08.02-.12-.33-.05-.66-.1-.99-.16,0-.09,0-.17,0-.26h1.64l-.02-.02c.53.09,1.1.35,1.59.24,1.66-.35,3.28-.9,4.94-1.22,2.11-.41,4.35-.4,6.37-1.05,3.7-1.21,7.29-2.78,10.93-4.18.52-.2,1.09-.27,1.63-.41,0,0,.06-.04.06-.04.2.09.39.19.59.28.01.1.04.19.09.27-1.1.72-2.2,1.43-3.3,2.15.52.09.96,0,1.38-.16,1.09-.42,2.17-.87,3.26-1.31.58.24,1.16.49,1.74.73.12.09.25.18.37.28.18.11.37.21.55.32-.03.06,0,.11.06.13-.76.54-1.51,1.08-2.39,1.71.44.06.71.09.97.13,7.61,1.09,11.49,8.5,8.07,15.39-1.67,3.36-5,4.84-7.98,6.36-2.75,1.4-6.05,1.75-9.13,2.47-1.62.38-3.3.54-4.95.8.01.21.03.42.04.63,1.38,0,2.77.08,4.15-.01,5.77-.37,11.53-.84,17.3-1.16,1.13-.06,1.61-.3,1.98-1.43,1.25-3.88,2.62-7.73,4.05-11.55.84-2.24,2.27-2.93,4.4-1.85,2.43,1.23,4.65,2.86,6.97,4.32.16.32.31.63.47.95,0,.1,0,.21,0,.31-.12,1.06-.24,2.12-.35,3.18-2.03-2.75-4.84-4.37-8.12-5.85-1.31,3.76-2.59,7.34-3.76,10.95-.12.38.33,1.21.73,1.44,1.46.84,2.08,2.1,1.63,3.6-1.3,4.35-2.78,8.65-4.12,12.98-.19.61-.28,1.44-.02,1.98,1.65,3.53,3.25,7.08,3.11,11.06-.06,1.76-.45,3.58-1.07,5.24-.65,1.75-2.23,2.27-3.57,1.31-.85-.61-1.7-1.57-1.97-2.54-.73-2.58-1.19-5.24-1.67-7.88-.24-1.31-.3-2.66-.45-3.99-.14-.04-.27-.08-.41-.13-.31.42-.78.79-.92,1.26-1.57,5.4-4.92,9.57-9.51,12.54-4.08,2.63-8.55,4.65-12.82,6.99-1.64.9-3.21,1.93-4.66,2.8.41,1.08.71,1.84,1,2.6-.29.05-.57.1-.86.16-.53,0-1.07.01-1.6.02-1.6.07-3.2.15-4.8.22ZM112.53,99.86c.11.11.21.22.32.33,1.17.95,2.34,1.91,3.51,2.86.12.33.24.66.46,1.24.09-.52.13-.72.16-.92.47.28.93.56,1.4.84.06-.39.13-.77.19-1.16,1.27-.09,2.77.23,3.03-1.97-.69.54-1.2.94-1.7,1.33-1.78-1.27-2.59-3.65-5.12-4.3,1.29,1.6,2.39,2.95,3.49,4.31-.42-.24-.88-.44-1.26-.73-.82-.63-1.61-1.31-2.41-1.97-.47-.39-.94-.79-1.41-1.18-2.12-1.29-4.23-2.6-6.38-3.86-.62-.36-1.35-.84-2-.8-2.74.16-5.5.35-8.21.81-3.65.61-7.27,1.45-10.88,2.26-2.15.48-4.27,1.1-6.51,1.69.29.76.51,1.33.76,1.96.47-.09.84-.13,1.19-.22,2.97-.73,5.9-1.69,8.91-2.15,4.23-.64,8.52-1.22,12.79-1.21,2.99,0,5.99,1.03,8.98,1.6l.73.48c.19.03.39.05.58.08.41.24.83.48,1.24.73.23.3.46.61.7.91-.75-.21-1.5-.42-2.25-.63-.11-.11-.21-.22-.32-.33-.22-.08-.44-.16-.66-.24-.02.06-.03.11-.05.17.24.02.48.04.72.05ZM105.05,121.39c.53-.44,1.06-.87,1.58-1.31,1.22-1.11,2.44-2.22,3.65-3.34.76-.95,1.52-1.9,2.28-2.85-.22-.13-.44-.26-.66-.4-.53,1.09-1.07,2.18-1.6,3.26-1.3,1.03-2.61,2.06-3.91,3.09-.53.42-1.06.84-1.6,1.27-.29.21-.59.41-.88.62.08.11.16.22.25.33.29-.23.59-.46.88-.69ZM66.03,102.09c-.04-.14-.08-.28-.13-.42l-.19.1c.09.12.18.24.27.36-.18,2.17.79,3.88,2.35,5.35-.77-1.8-1.54-3.59-2.31-5.39ZM118.86,70.61c.12,1.47.24,2.95.37,4.42-.02.03-.05.05-.07.08.02-.03.03-.06.05-.09.21.04.55.18.62.1,1.03-1.27.96-3.79-.16-4.91-.16-.16-.58-.05-.87-.06l.06.47ZM85.37,92.78c-.51-.21-1.02-.42-1.52-.63,2.51-.56,5.02-1.11,7.77-1.72-3.16-1.52-11.7-.1-14.46.89.28.71.56,1.42.84,2.14,1.64-.32,3.12-.61,4.6-.91-1.28.75-2.55,1.49-3.83,2.24,2.39-.12,4.61-.83,6.73-1.87,2.24-.23,4.58-.06,6.55-1.43-.04-.16-.08-.33-.12-.49-2.18.6-4.37,1.19-6.55,1.79ZM104.56,110.41c.06.25.19.7.16.71-.84.31-1.7.57-2.55.84-.69.21-1.39.41-2.09.61.03.14.06.27.09.41.93,0,1.93.22,2.78-.04,3.31-1,6.59-2.13,9.86-3.3.41-.15.66-.76.99-1.16-.13-.13-.25-.26-.38-.39-1.28.57-2.56,1.15-3.74,1.68-.25-.4-.44-.68-.62-.96,1.44-.69,2.87-1.38,4.35-2.09-.84-2.23-2.43-3.25-4.41-3.78-6.55-1.75-13.17-.72-19.73-.22-2.35.18-4.62,1.58-6.91,2.47-.25.1-.47.55-.5.86-.25,2.6-.45,5.2-.66,7.8,7.81.55,15.68-.82,23.36-3.46ZM68.75,106.27c.17,0,.35.01.52.02,1.74-2.27,4.14-3.43,6.78-4.19.92-.27,1.4-.66.92-1.83-.38-.92-.59-1.39-1.74-1.24-1.23.17-2.5-.04-3.75-.05-1.56-.02-3.13,0-5.11,0,.85,2.63,1.61,4.96,2.37,7.29ZM121.24,92.83h-9.86c3.09,2.41,5.81,4.53,8.59,6.69.44-2.3.87-4.56,1.27-6.69ZM78.14,105.98c-2.32.37-3.39,1.2-5.02,3.19-1.14,1.39-.76,2.78.95,3.44.68.26,1.43.46,2.16.46.44,0,1.14-.31,1.27-.66.78-2.03,1.29-4.12.65-6.44ZM123.54,120.23c1.96-1.55,1.19-7.78-.8-9.88-.16.02-.31.04-.47.06.41,3.19.83,6.38,1.27,9.82ZM73.35,89.68c3.45-.51,6.87-1.02,10.55-1.57-3.92-.94-7.34-.41-10.55,1.57ZM121.39,100.48c2.28-1.54,3.24-5.22,2.06-7.45-.68,2.45-1.34,4.83-2.06,7.45ZM90.16,87.39c-4.2-1.67-8.29-2.04-9.47-1.06,3.14.35,6.31.71,9.47,1.06ZM118.4,79.62c3.2-1.71,4.43-7.74,2.11-10.46,1.15,3.87.8,7.42-2.11,10.46ZM69.88,94.29c2.03-.13,3.73-.24,5.65-.36-1.56-2.1-2.74-2-5.65.36ZM106.23,90.19c.05.19.1.39.16.58,1.88-.51,3.77-1.01,5.65-1.52-1.91.39-4.21-1.27-5.81.94ZM102.81,99.42c-1.85-1.06-4.19-.73-6.27,1.06,2.32-.39,4.25-.72,6.27-1.06ZM107.51,61.91c-.07-.21-.15-.41-.22-.62-1.95.47-3.9.93-5.85,1.4.05.18.09.35.14.53,1.98-.44,3.96-.87,5.93-1.31ZM79.68,127.98c1.54.86,3.52,1.96,5.6,3.11-1.48-2.29-3.34-3.2-5.6-3.11ZM83.1,131.51c-1.19-.7-2.14-1.26-3.31-1.95.24,2.2,1.03,2.65,3.31,1.95ZM93.93,92.9c.01.19.02.37.04.56,1.63-.22,3.25-.43,4.88-.65l-.06-.68c-1.66-.32-3.24.46-4.85.76ZM84.06,94.54c.03.11.06.22.09.33,1.85-.39,3.69-.79,5.54-1.18-.05-.17-.09-.33-.14-.5-1.83.45-3.66.9-5.49,1.34ZM115.06,66.45c1.34,1.14,2.63,2.24,3.92,3.35-.73-1.84-1.6-3.47-3.92-3.35ZM114.05,88.43c0,.1,0,.21,0,.31h6.11c0-.1,0-.21,0-.31h-6.1ZM75.29,103.77l.12.49c.72-.03,1.44-.01,2.14-.15.1-.02.07-.74.13-1.39-.99.43-1.68.74-2.38,1.05ZM106.24,67.09c-.03-.13-.06-.27-.09-.4l-5.03.69c.02.12.03.25.05.37,1.69-.22,3.38-.44,5.08-.66Z"/><path class="cls-9" d="M74.01,71.93c1.58-.14,3.17-.28,4.75-.42.32,0,.64-.01.96-.02,5.54-.85,11.07-1.81,16.64-2.5,3.67-.45,7.39-.54,11.09-.72,1.85-.09,3.71-.06,5.56-.05,2.32.02,3.84,1.06,4.66,3.12.92,2.31.65,4.02-1.17,5.63-2.72,2.42-5.78,4.27-9.46,4.78-8.7,1.19-17.4,2.3-26.1,3.48-1.47.2-2.94.45-4.37.82-1.08.28-1.72.19-2.23-.97-.69-1.6-1.61-3.1-2.48-4.62-1.43-2.51-3.66-3.72-6.5-3.41-3.01.33-5.28,2.03-5.91,5.01-1.59,7.54-2.44,15.17-2.2,22.9,0,.53,0,1.07,0,1.6.19,4.32.35,8.64.6,12.95.09,1.58.34,3.15.63,4.71.21,1.13.69,2.2.88,3.33.28,1.7.42,3.42.61,5.13-.54-1.08-1.1-2.15-1.63-3.23-.25-.51-.47-1.03-.71-1.55-.1-.2-.2-.41-.29-.61-.3-.75-.59-1.5-.89-2.26-.1-.22-.19-.43-.29-.65-.25-.63-.5-1.26-.74-1.9-.19-.43-.37-.85-.56-1.28-1.48-3.54-2.99-7.08-4.43-10.63-1.02-2.51-1.95-5.07-2.95-7.59-.21-.54-.51-1.04-.77-1.56-.13-.34-.26-.67-.39-1.01-.65-1.67-1.3-3.34-1.95-5.01,0-.21,0-.42.01-.63.38-1.69.73-3.39,1.15-5.07.54-2.13,1.13-4.25,1.7-6.37.05-.11.11-.21.16-.32.27-1.18.53-2.35.8-3.53.05-.21.1-.42.15-.63.05-.04.11-.03.15.01,3.83-.09,7.46-1.07,11.03-2.36,1.73-.62,3.47-1.21,5.21-1.81,1.49-.63,2.99-1.26,4.59-1.94.81.89,1.94.75,2.75-.6,0,0,0,0,0,0,.11-.05.22-.09.34-.14.21-.03.41-.06.62-.08.33.73.66.69.98,0Z"/><path class="cls-8" d="M92.04,135.74c-.29-.76-.59-1.53-1-2.6,1.45-.88,3.02-1.9,4.66-2.8,4.27-2.34,8.74-4.35,12.82-6.99,4.59-2.97,7.94-7.14,9.51-12.54.14-.47.61-.84.92-1.26.14.04.27.08.41.13.14,1.33.21,2.68.45,3.99.48,2.64.94,5.3,1.67,7.88.27.97,1.13,1.93,1.97,2.54,1.34.97,2.92.44,3.57-1.31.61-1.66,1.01-3.48,1.07-5.24.14-3.98-1.46-7.54-3.11-11.06-.25-.54-.17-1.37.02-1.98,1.35-4.34,2.83-8.63,4.12-12.98.45-1.5-.17-2.76-1.63-3.6-.41-.23-.85-1.06-.73-1.44,1.16-3.61,2.45-7.19,3.76-10.95,3.28,1.48,6.1,3.11,8.12,5.85.01.43.02.86.03,1.29-.05.1-.05.21,0,.31-.02,4.72-.05,9.43-.06,14.15,0,11.66,0,23.32,0,34.97,0,.53,0,1.05,0,1.72-1.54.13-2.99.26-4.43.38-.84.04-1.68.08-2.52.12-1.49.05-2.98.11-4.48.16-.22,0-.43.02-.65.02-.21,0-.42.01-.63.02-.63.04-1.26.07-1.89.11-1.49.04-2.98.09-4.47.13-.22.01-.43.02-.65.03-.32.02-.64.04-.95.06-.53.03-1.05.06-1.58.09-1.49.04-2.98.08-4.47.13-.22.01-.43.03-.65.04-.21.01-.42.02-.63.03-.63.03-1.27.07-1.9.1-2.02.07-4.04.14-6.06.22-.53.03-1.06.07-1.58.1-2.02.07-4.04.14-6.06.21-.7.1-1.4.21-2.1.31-.19,0-.38,0-.57,0-.1-.12-.19-.24-.29-.35Z"/><path class="cls-9" d="M71.41,87.1c-1.92,1.21-3.72,2.72-5.79,3.55-2.39.95-2.48,3.44-3.99,4.92-.18.18.34,1.12.61,1.68.25.52.86.98.88,1.48.14,3.84,1.77,7.16,3.43,10.49.44.89.7,1.86,1.05,2.8.26.69.38,1.5.82,2.04,1.41,1.7,2.92,3.34,4.45,4.93.97,1.01,2.26.9,3.2.14,1.38-1.11,2.87-.91,4.36-.74,5,.54,9.93-.07,14.86-.69.07,0,.13-.14.31-.34-.59-.17-1.1-.32-1.6-.47,1.49.04,3.01-1.08,4.48.2.2.17.81-.08,1.22-.2,3.54-1.06,7.07-2.14,10.6-3.21.15-.04.3-.06.77.2-.88,1-1.71,2.06-2.64,3-3.41,3.45-7.76,5.45-11.97,7.65-2.85,1.49-5.74,2.92-8.67,4.41-.88-.64-1.91-1.35-2.89-2.11-3.07-2.39-6.44-2.43-9.93-1.23-.35.12-.8.65-.79.97.1,3.82.74,7.41,4.37,9.63-.05.09-.11.19-.16.28-4.12.15-8.23.31-12.35.46-.22,0-.43,0-.65.01l-1.29-.13c-.5-2.43-1.04-4.86-1.5-7.3-1.78-9.3-2.6-18.69-2.16-28.15.23-4.88.91-9.73,1.37-14.6.1-1.05.09-2.11.25-3.15.24-1.57,1.65-2.93,3.17-3.17,1.75-.28,2.56.2,3.65,2.09.24.42.63.75.96,1.12,0,0,0-.03,0-.03.12.41.24.83.36,1.24.41.74.82,1.49,1.23,2.23Z"/><path class="cls-8" d="M59.68,68.8c-.18.07-.37.14-.55.21-.25.09-.5.19-.75.28-.01.16-.03.31-.04.47,0,0,0-.04,0-.04-.21.06-.42.13-.62.19,0,0,.02.02.02.02-.11-.11-.22-.22-.33-.33-.9.14-2.16-.72-2.55.88-.25.05-.5.09-.75.14-.17-.02-.34-.05-.51-.07,0-.11,0-.22,0-.33-.13-.16-.26-.33-.39-.49-.08.16-.16.33-.25.49-.84.21-1.67.42-2.51.62.62-2.66,1.24-5.31,1.87-7.97,0,0,.11-.09.11-.09l-.04-.12c.2-.82.39-1.64.59-2.46,0,0,.08-.03.08-.03l-.05-.06c.3-.56.61-1.11.91-1.67.25-.2.51-.4.76-.6.08.01.14-.01.2-.07.11-.1.23-.19.34-.29,1.8-1.35,3.6-2.71,5.4-4.06.33-.23.66-.47.99-.7.1-.09.2-.17.3-.26.22-.17.45-.35.67-.52,1.19-.9,2.36-1.82,3.56-2.69.88-.64,1.79-1.23,2.68-1.84.03.26.07.52.08.78.05,2.35.59,2.79,2.82,2.2,1.02-.27,2.02-.61,3.03-.91,4.4-1.28,8.8-2.55,13.2-3.82.18.13.36.26.53.39-.67.51-1.32,1.05-2.01,1.53-6.19,4.26-12.4,8.47-18.57,12.77-2.16,1.5-2.32,2.23-1.55,4.72.09.13.18.26.28.39.34.26.69.53,1.03.79,0,.31-.02.62-.03.92-.22.05-.45.1-.67.15-.1.01-.21.03-.31.04-1.15.22-2.29.44-3.44.66-.12.05-.24.1-.36.14-.86.14-1.73.28-2.59.43-.2.06-.39.13-.59.19Z"/><path class="cls-3" d="M67.66,66.26c-.34-.26-.69-.53-1.03-.79-.09-.13-.18-.26-.28-.39-.77-2.48-.61-3.22,1.55-4.72,6.16-4.29,12.38-8.51,18.57-12.77.69-.48,1.34-1.02,2.01-1.53.65.22,1.29.43,1.93.65.15.09.3.18.45.27.78.45,1.56.91,2.34,1.36.1.07.19.15.29.22,0,.09,0,.17.05.25-1.49,1-2.94,2.06-4.49,2.97-.92.54-1.99.85-2.99,1.26.33-.38.66-.77.99-1.15-.07-.08-.15-.16-.22-.23-.5.41-1.01.83-1.51,1.24-2.76,1.47-5.53,2.95-8.29,4.42.1.18.2.37.3.55.88-.47,1.76-.94,2.64-1.41.06.07.13.15.19.22l-.43.98c.65-.2,1.29-.4,2.36-.72-.26.54-.35.92-.58,1.18-.33.37-.77.64-1.16.96-1.86.84-4.15.78-5.63,2.53,2.03-.61,3.99-1.21,5.96-1.8,1.91-.78,3.81-1.57,5.72-2.35.15-.06.3-.13.45-.19.17-.02.35-.04.52-.06,1.53-.21,3.09-.31,4.59-.64,3.58-.79,7.13-1.7,10.69-2.56.49.22.99.44,1.48.66.14.11.28.21.42.32,0,0-.02-.02-.02-.02.12.09.23.19.35.28.05.08.1.15.16.22-6.06,1.72-12.16,3.31-18.17,5.19-5.35,1.67-10.6,3.7-15.93,5.45-1,.33-2.17.11-3.26.14Z"/><path class="cls-6" d="M138.53,76.95c-2.31-1.46-4.54-3.09-6.97-4.32-2.13-1.08-3.55-.38-4.4,1.85-1.43,3.82-2.8,7.67-4.05,11.55-.36,1.13-.84,1.37-1.98,1.43-5.77.31-11.53.79-17.3,1.16-1.38.09-2.76.01-4.15.01-.01-.21-.03-.42-.04-.63,1.65-.26,3.32-.42,4.95-.8,3.08-.71,6.38-1.06,9.13-2.47,2.98-1.52,6.31-3,7.98-6.36,3.42-6.88-.46-14.3-8.07-15.39-.26-.04-.52-.07-.97-.13.88-.63,1.64-1.17,2.39-1.71.3.1.6.2.91.29.23.14.46.28.7.42.07.07.16.11.26.11.33.2.67.4,1,.59,2.12,1.2,4.23,2.39,6.35,3.59.21.12.41.24.62.36,2.01,1.15,4.02,2.29,6.02,3.44.43.24.86.49,1.29.73,1.45.85,2.82,1.96,4.39,2.49,2.05.71,2.26,2.01,1.92,3.76Z"/><path class="cls-6" d="M67.66,66.26c1.09-.03,2.27.19,3.26-.14,5.33-1.75,10.57-3.78,15.93-5.45,6.01-1.87,12.11-3.47,18.17-5.19,1.74,1.01,3.49,2.02,5.23,3.03-.55.13-1.11.21-1.63.41-3.64,1.4-7.23,2.97-10.93,4.18-2.02.66-4.25.64-6.37,1.05-1.66.32-3.28.88-4.94,1.22-.49.1-1.06-.15-1.59-.24.14-.02.28-.04.07,0,.17-.11.06-.04-.05.03-.55,0-1.1,0-1.64,0,0,.09,0,.17,0,.26.33.05.66.1.99.16,0,.04-.02.08-.02.12-2.75.27-5.54.34-8.25.86-2.47.48-4.99.01-7.42.81h2.59c-1.15.21-2.38,1.15-3.42-.18,0-.31.02-.62.03-.92Z"/><path class="cls-3" d="M87.94,45.68c-4.4,1.27-8.8,2.55-13.2,3.82-1.01.29-2.01.63-3.03.91-2.22.59-2.77.16-2.82-2.2,0-.26-.05-.52-.08-.78.55-.47,1.1-.94,1.64-1.41.14-.1.27-.21.41-.31.09-.02.16-.06.22-.13.28-.15.56-.29.83-.44l.06.07s.08-.03.09-.03c3.67-.8,7.35-1.6,11.02-2.4,1.26.68,2.53,1.36,3.79,2.04.15.09.31.18.46.27l.59.6Z"/><path class="cls-1" d="M87.36,57.22c-.17.02-.35.04-.52.06-.15.06-.3.13-.45.19-1.91.78-3.81,1.57-5.72,2.35-.11-.24-.22-.48-.33-.73.39-.31.83-.59,1.16-.96.23-.25.32-.64.58-1.18-1.06.33-1.71.53-2.36.72.14-.33.29-.65.43-.98.24-.2.48-.39.71-.59l-.16-.16c-.25.18-.49.35-.74.53-.88.47-1.76.94-2.64,1.41-.1-.18-.2-.37-.3-.55,2.76-1.47,5.53-2.95,8.29-4.42.06.06.11.12.17.18-.12.2-.23.4-.35.59-.11.11-.22.21-.32.32-.31.1-.61.2-.92.3.18.23.36.47.54.7.12-.34.24-.67.36-1.01.1-.11.21-.22.31-.33.33-.21.65-.43.98-.64l-.03.03c1-.41,2.07-.72,2.99-1.26,1.54-.91,3-1.97,4.49-2.97.57.24,1.14.48,1.71.73.34.22.67.43,1.01.65.2.11.4.21.6.32.33.2.67.41,1,.61.26.1.52.21.77.31-.03.06-.06.11-.1.16-.63.24-1.25.49-1.89.71-2.01.69-4.02,1.37-6.04,2.05-2.72-.15-5.04.78-5.2,1.9.68.34,1.31.65,1.94.96Z"/><path class="cls-5" d="M87.36,57.22c-.63-.31-1.26-.62-1.94-.96.16-1.12,2.48-2.04,5.2-1.9.02.19.12.49.05.54-.46.29-.95.53-1.76.96,1.07.06,1.79.27,2.42.11,2.79-.72,5.55-1.53,8.31-2.36.42-.13.76-.54,1.13-.82.62.41,1.25.82,1.87,1.23-3.56.86-7.11,1.76-10.69,2.56-1.5.33-3.06.44-4.59.64Z"/><path class="cls-6" d="M83.1,42.77c-3.67.8-7.35,1.6-11.02,2.4.03-.27.06-.53.1-.8.6-.29,1.2-.59,1.81-.88,1.2-.91,2.37-1.85,3.6-2.7.39-.27.94-.31,1.41-.45.13.09.26.18.39.27l3.71,2.17Z"/><path class="cls-3" d="M100.77,52.79c-.38.28-.71.69-1.13.82-2.76.83-5.52,1.64-8.31,2.36-.63.16-1.35-.05-2.42-.11.81-.43,1.3-.67,1.76-.96.07-.04-.03-.35-.05-.54,2.01-.68,4.03-1.36,6.04-2.05.63-.22,1.26-.47,1.89-.71.2.05.4.1.6.15l.05.09s.1,0,.1,0c.16.09.33.18.49.27.33.23.66.46.98.69Z"/><path class="cls-5" d="M53.59,70.24c0,.11,0,.22,0,.33.02.12.03.25.05.37-.88,1.19-2.1,1.6-3.52,1.57,0,0-.13.03-.13.03,0,0-.13-.05-.13-.05.05-.22.11-.44.16-.66.14-.32.27-.65.41-.97.84-.21,1.67-.42,2.51-.62.21,0,.43,0,.64,0Z"/><path class="cls-1" d="M61.58,136.86c.08-.5.24-1,.23-1.5,0-.58-.16-1.15-.25-1.73.3-.2.59-.4.89-.6.14.87.38,1.74.4,2.62.02.93.48,1.18,1.27,1.14-.83.11-1.66.21-2.5.32-.03-.09-.04-.17-.04-.26Z"/><path class="cls-5" d="M112.34,59.71c-1.09.44-2.17.89-3.26,1.31-.42.16-.87.25-1.38.16,1.1-.72,2.2-1.43,3.3-2.15.29.03.58.06.87.09.12.07.23.14.35.2,0,0,.08.06.08.06.02.11.03.21.05.32Z"/><path class="cls-7" d="M84.78,136.14c1.6-.07,3.2-.15,4.8-.22-1.6.07-3.2.15-4.8.22Z"/><path class="cls-7" d="M131.66,134.33c.84-.04,1.68-.08,2.52-.12-.84.04-1.68.08-2.52.12Z"/><path class="cls-7" d="M78.37,136.48c.05-.09.11-.19.16-.28,1.03.01,2.05.03,3.08.04-1.08.08-2.16.16-3.24.24Z"/><path class="cls-7" d="M124.01,134.64c.63-.04,1.26-.07,1.89-.11-.63.04-1.26.07-1.89.11Z"/><path class="cls-7" d="M108.71,135.26c.63-.03,1.27-.07,1.9-.1-.63.03-1.27.07-1.9.1Z"/><path class="cls-7" d="M92.9,136.1c.7-.1,1.4-.21,2.1-.31-.7.1-1.4.21-2.1.31Z"/><path class="cls-7" d="M112.34,59.71c-.02-.11-.03-.21-.05-.32.6.35,1.19.7,1.79,1.05-.58-.24-1.16-.49-1.74-.73Z"/><path class="cls-7" d="M73.98,43.49c-.6.29-1.2.59-1.81.88.21-1.1.92-1.17,1.81-.88Z"/><path class="cls-7" d="M101.06,135.57c.53-.03,1.06-.07,1.58-.1-.53.03-1.06.07-1.58.1Z"/><path class="cls-7" d="M116.36,134.95c.53-.03,1.05-.06,1.58-.09-.53.03-1.05.06-1.58.09Z"/><path class="cls-7" d="M54.87,121.22c.19.43.37.85.56,1.28-.71-.2-1.21-.49-.56-1.28Z"/><path class="cls-7" d="M62.59,51.98c-.22.17-.45.35-.67.52.02-.39.04-.78.09-1.66.34.67.46.91.58,1.14Z"/><path class="cls-9" d="M59.97,132.67c.19.66.37,1.32.55,1.98-.19-.66-.37-1.32-.55-1.98Z"/><path class="cls-7" d="M97.87,51.14c-.33-.2-.67-.41-1-.61.44,0,.88-.02,1.32-.02-.11.21-.21.42-.32.64Z"/><path class="cls-7" d="M132.22,70.69c-.43-.24-.86-.49-1.29-.73.43.24.86.49,1.29.73Z"/><path class="cls-7" d="M44.38,94.78c0,.21,0,.42-.01.63-.28-.05-.55-.1-.83-.15,0-.08-.02-.17-.03-.25l.87-.23Z"/><path class="cls-7" d="M96.27,50.2c-.34-.22-.67-.43-1.01-.65.34.22.67.43,1.01.65Z"/><path class="cls-7" d="M46.32,100.42c.13.34.26.68.39,1.01-1.05.02-.58-.55-.39-1.01Z"/><path class="cls-7" d="M61.61,52.75c-.33.23-.66.47-.99.7.33-.23.66-.47.99-.7Z"/><path class="cls-7" d="M116.67,61.88c-.23-.14-.46-.28-.7-.42.16-.1.31-.2.47-.31.08.24.15.48.23.72Z"/><path class="cls-7" d="M117.94,62.58c-.33-.2-.67-.4-1-.59.33.2.67.4,1,.59Z"/><path class="cls-7" d="M44.23,97.56c-.04.09-.06.22-.12.25-.06.02-.17-.06-.26-.1.04-.09.06-.22.12-.25.06-.02.17.06.26.1Z"/><path class="cls-7" d="M56.17,124.39c.1.22.19.43.29.65-.1-.22-.19-.43-.29-.65Z"/><path class="cls-7" d="M48.34,78.86c-.05.21-.1.42-.15.63.05-.21.1-.42.15-.63Z"/><path class="cls-7" d="M49.04,75.98l-.2.65.2-.65Z"/><path class="cls-7" d="M57.34,127.3c.1.2.2.41.29.61-.1-.2-.2-.41-.29-.61Z"/><path class="cls-7" d="M49.32,74.7c-.06.21-.13.43-.19.64.06-.21.13-.43.19-.64Z"/><path class="cls-7" d="M54.67,57.88c-.25.2-.51.4-.76.6.25-.2.51-.4.76-.6Z"/><path class="cls-7" d="M126.53,134.51c.22,0,.43-.02.65-.02-.22,0-.43.02-.65.02Z"/><path class="cls-7" d="M118.89,134.8c.22-.01.43-.02.65-.03-.22.01-.43.02-.65.03Z"/><path class="cls-7" d="M111.24,135.12c.22-.02.43-.03.65-.04-.13.13-.25.25-.38.38-.09-.11-.18-.22-.27-.33Z"/><path class="cls-7" d="M50.03,71.84c-.05.22-.11.44-.16.66.05-.22.11-.44.16-.66Z"/><path class="cls-7" d="M65.37,136.95c.22,0,.43,0,.65-.01-.11.14-.21.27-.32.41-.11-.13-.22-.27-.33-.4Z"/><path class="cls-7" d="M124.9,66.53c-.21-.12-.41-.24-.62-.36.21.12.41.24.62.36Z"/><path class="cls-7" d="M92.04,135.74c.1.12.19.24.29.35-.38-.07-.76-.13-1.14-.2.29-.05.57-.1.86-.16Z"/><path class="cls-7" d="M71.94,45.14c-.28.15-.56.29-.83.44.28-.15.56-.29.83-.44Z"/><path class="cls-7" d="M99.14,51.75c-.2-.05-.4-.1-.6-.15.04-.05.07-.1.1-.16.17.1.33.2.5.3Z"/><path class="cls-7" d="M110.91,58.77c-.2-.09-.39-.19-.59-.28.2.09.39.19.59.28Z"/><path class="cls-7" d="M115.01,61.03c-.18-.11-.37-.21-.55-.32.19.11.37.21.55.32Z"/><path class="cls-7" d="M48.73,77.27c-.07.23-.14.46-.21.69.07-.23.14-.46.21-.69Z"/><path class="cls-7" d="M79.39,40.6c-.13-.09-.26-.18-.39-.27.13.09.26.18.39.27Z"/><path class="cls-7" d="M87.36,45.09c-.15-.09-.31-.18-.46-.27.15.09.31.18.46.27Z"/><path class="cls-7" d="M70.88,45.71c-.14.1-.27.21-.41.31.14-.1.27-.21.41-.31Z"/><path class="cls-7" d="M90.86,46.99c-.15-.09-.3-.18-.45-.27.15.09.3.18.45.27Z"/><path class="cls-7" d="M93.49,48.58c-.1-.07-.19-.15-.29-.22.1.07.19.15.29.22Z"/><polygon class="cls-7" points="98.19 50.5 98.26 50.37 98.32 50.43 98.19 50.5"/><path class="cls-7" d="M99.78,52.1c-.16-.09-.33-.18-.49-.27.16.09.33.18.49.27Z"/><path class="cls-7" d="M104.54,55.01c-.14-.11-.28-.21-.42-.32.14.11.28.21.42.32Z"/><path class="cls-7" d="M104.86,55.27c-.12-.09-.23-.19-.35-.28.12.09.23.19.35.28Z"/><path class="cls-7" d="M55.21,57.51c-.11.1-.23.19-.34.29.11-.1.23-.19.34-.29Z"/><path class="cls-7" d="M112.21,59.33c-.12-.07-.23-.14-.35-.2.12.07.23.14.35.2Z"/><polygon class="cls-7" points="53 60.15 53.05 60.21 52.97 60.23 53 60.15"/><path class="cls-7" d="M52.38,62.69l.04.12s-.11.09-.11.09c.01-.07.03-.14.07-.21Z"/><path class="cls-7" d="M138.99,78.21c0-.1,0-.21,0-.31.04.07.09.15.11.22,0,.02-.07.06-.11.09Z"/><path class="cls-7" d="M138.67,82.99c-.04-.1-.04-.21,0-.31.04.07.08.15.11.22,0,.02-.07.06-.11.09Z"/><path class="cls-7" d="M47.39,83.02c-.05.11-.11.21-.16.32.05-.11.11-.21.16-.32Z"/><path class="cls-7" d="M84.12,136.15c.14,0,.29,0,.43,0-.14,0-.29,0-.43,0Z"/><path class="cls-7" d="M60.93,136.17c.05.1.1.21.15.31-.05-.1-.1-.21-.15-.31Z"/><path class="cls-7" d="M61.58,136.86c0,.09.01.18.04.26-.12-.11-.24-.22-.37-.33.11.02.22.05.33.07Z"/><path class="cls-9" d="M104.56,110.41c-7.68,2.64-15.55,4.01-23.36,3.46.21-2.6.42-5.2.66-7.8.03-.31.25-.76.5-.86,2.29-.9,4.55-2.3,6.91-2.47,6.56-.5,13.18-1.53,19.73.22,1.98.53,3.57,1.55,4.41,3.78-1.47.71-2.91,1.4-4.35,2.09-1.5.53-3,1.06-4.49,1.59Z"/><path class="cls-4" d="M113.14,99.2c-.19-.03-.39-.05-.58-.08-.24-.16-.49-.32-.73-.48-2.99-.57-5.99-1.59-8.98-1.6-4.26,0-8.55.57-12.79,1.21-3.01.45-5.94,1.42-8.91,2.15-.35.09-.71.13-1.19.22-.24-.63-.47-1.21-.76-1.96,2.25-.59,4.37-1.21,6.51-1.69,3.61-.81,7.23-1.64,10.88-2.26,2.71-.46,5.47-.65,8.21-.81.65-.04,1.38.43,2,.8,2.14,1.26,4.25,2.57,6.38,3.86-.01.21-.03.43-.04.64Z"/><path class="cls-6" d="M68.75,106.27c-.76-2.33-1.52-4.67-2.37-7.29,1.98,0,3.54-.01,5.11,0,1.25.01,2.53.22,3.75.05,1.15-.16,1.36.32,1.74,1.24.48,1.17,0,1.56-.92,1.83-2.64.76-5.04,1.92-6.78,4.19-.17,0-.35-.01-.52-.02Z"/><path class="cls-6" d="M121.24,92.83c-.4,2.13-.83,4.39-1.27,6.69-2.78-2.17-5.49-4.28-8.59-6.69h9.86Z"/><path class="cls-4" d="M78.14,105.98c.64,2.32.13,4.41-.65,6.44-.13.34-.83.66-1.27.66-.72,0-1.47-.2-2.16-.46-1.71-.66-2.09-2.05-.95-3.44,1.63-1.99,2.7-2.82,5.02-3.19Z"/><path class="cls-4" d="M82.59,92.54c-1.48.29-2.96.58-4.6.91-.28-.72-.56-1.43-.84-2.14,2.77-.99,11.31-2.41,14.46-.89-2.74.61-5.26,1.17-7.77,1.72-.32.03-.64.06-.96.09-.11.1-.21.21-.32.31,0,0,.03-.01.03-.01Z"/><path class="cls-5" d="M104.56,110.41c1.5-.53,3-1.06,4.49-1.59.18.28.36.56.62.96,1.18-.53,2.46-1.1,3.74-1.68.13.13.25.26.38.39-.33.4-.57,1.01-.99,1.16-3.26,1.16-6.54,2.29-9.86,3.3-.85.26-1.85.04-2.78.04-.03-.14-.06-.27-.09-.41.7-.2,1.4-.4,2.09-.61.86-.26,1.71-.53,2.55-.84.03-.01-.1-.47-.16-.71Z"/><path class="cls-1" d="M123.54,120.23c-.45-3.44-.86-6.63-1.27-9.82.16-.02.31-.04.47-.06,1.99,2.1,2.76,8.33.8,9.88Z"/><path class="cls-5" d="M72.07,72.16c-.8,1.36-1.94,1.49-2.75.6-1.61.68-3.1,1.31-4.59,1.94-.73,0-1.48-.09-2.19.03-.95.16-1.88.48-2.81.73-.06-.18-.11-.35-.17-.53,1.41-.49,2.8-1.01,4.22-1.46,1.31-.41,2.63-.87,3.99-1.08,1.41-.22,2.87-.17,4.31-.23Z"/><path class="cls-5" d="M62.44,133.04c-.3.2-.59.4-.89.6-.52-2.9-1.04-5.8-1.58-8.7-.25-1.36-.54-2.71-.81-4.06.11-.09.23-.18.34-.27.27.36.69.68.77,1.08.3,1.49.8,3.04.65,4.51-.25,2.37,1.04,4.25,1.48,6.38.03.15.03.31.04.47Z"/><path class="cls-5" d="M73.35,89.68c3.21-1.98,6.63-2.51,10.55-1.57-3.68.55-7.1,1.05-10.55,1.57Z"/><path class="cls-5" d="M121.39,100.48c.72-2.61,1.38-4.99,2.06-7.45,1.18,2.22.21,5.91-2.06,7.45Z"/><path class="cls-5" d="M90.16,87.39c-3.17-.35-6.33-.71-9.47-1.06,1.19-.97,5.28-.6,9.47,1.06Z"/><path class="cls-5" d="M118.27,102.43c-1.1-1.36-2.2-2.72-3.49-4.31,2.53.64,3.34,3.02,5.12,4.3.49-.39,1-.79,1.7-1.33-.26,2.2-1.76,1.88-3.03,1.97,0,0,.02.02.02.02-.11-.22-.22-.44-.33-.66l.02.02Z"/><path class="cls-5" d="M118.4,79.62c2.91-3.04,3.25-6.59,2.11-10.46,2.32,2.72,1.09,8.75-2.11,10.46Z"/><path class="cls-2" d="M57.25,106.57c0-.53,0-1.07,0-1.6.1-.33.34-.69.28-1-.34-1.7.77-2.8,1.65-4.05-.42,1.69-1.52,3.38.2,4.95-1.18.39-1.67.95-1.06,2,0,.32,0,.64-.01.96-.36-.42-.71-.85-1.07-1.27Z"/><path class="cls-1" d="M69.88,94.29c2.91-2.36,4.09-2.46,5.65-.36-1.93.12-3.62.23-5.65.36Z"/><path class="cls-5" d="M82.88,92.24c.32-.03.64-.06.96-.09.51.21,1.02.42,1.52.63.04.04.08.09.12.13-2.12,1.04-4.33,1.75-6.73,1.87,1.28-.75,2.55-1.49,3.83-2.24,0,0-.03.01-.03.01.11-.1.21-.21.32-.31Z"/><path class="cls-1" d="M119.23,75.03c-.12-1.47-.24-2.95-.37-4.42-.02-.16-.04-.31-.06-.47.3.01.72-.09.87.06,1.12,1.12,1.19,3.65.16,4.91-.07.08-.41-.06-.62-.1l.02.02Z"/><path class="cls-5" d="M106.23,90.19c1.6-2.2,3.9-.55,5.81-.94-1.88.51-3.77,1.01-5.65,1.52-.05-.19-.1-.39-.16-.58Z"/><path class="cls-5" d="M102.81,99.42c-2.01.34-3.94.67-6.27,1.06,2.07-1.8,4.42-2.12,6.27-1.06Z"/><path class="cls-5" d="M85.37,92.78c2.18-.6,4.37-1.19,6.55-1.79.04.16.08.33.12.49-1.97,1.36-4.31,1.2-6.55,1.43-.04-.04-.08-.09-.12-.13Z"/><path class="cls-5" d="M114.6,99.73c.8.66,1.58,1.34,2.41,1.97.38.29.84.49,1.26.73,0,0-.02-.02-.02-.02.11.22.22.44.33.66,0,0-.02-.02-.02-.02-.06.39-.13.77-.19,1.16-.47-.28-.93-.56-1.4-.84v.02c-.1-.11-.21-.22-.32-.33l.02.02c-.53-.75-1.07-1.5-1.6-2.25h.01c-.23-.29-.46-.59-.7-.9.07-.06.14-.13.21-.19Z"/><path class="cls-5" d="M107.51,61.91c-1.98.44-3.96.87-5.93,1.31-.05-.18-.09-.35-.14-.53,1.95-.47,3.9-.93,5.85-1.4.07.21.15.41.22.62Z"/><path class="cls-5" d="M79.68,127.98c2.26-.08,4.12.82,5.6,3.11-2.08-1.16-4.06-2.26-5.6-3.11Z"/><path class="cls-1" d="M83.1,131.51c-2.29.7-3.07.25-3.31-1.95,1.17.69,2.13,1.25,3.31,1.95Z"/><path class="cls-5" d="M58.31,107.84c0-.32,0-.64.01-.96.26.28.63.52.77.85.22.52.21,1.15.45,1.65.71,1.43.01,1.65-1.24,1.55v-3.08Z"/><path class="cls-5" d="M93.93,92.9c1.61-.3,3.18-1.08,4.85-.76l.06.68c-1.63.22-3.25.43-4.88.65-.01-.19-.02-.37-.04-.56Z"/><path class="cls-5" d="M84.06,94.54c1.83-.45,3.66-.9,5.49-1.34.05.17.09.33.14.5-1.85.39-3.69.79-5.54,1.18-.03-.11-.06-.22-.09-.33Z"/><path class="cls-5" d="M66.03,102.09c.77,1.8,1.54,3.59,2.31,5.39-1.56-1.47-2.53-3.18-2.35-5.35l.05-.04Z"/><path class="cls-5" d="M71.41,87.1c-.41-.74-.82-1.49-1.23-2.23-.12-.41-.24-.83-.36-1.24,0,0,0,.03,0,.03.04-.25.08-.5.12-.76.13-.06.27-.11.4-.17.51,1.34,1.03,2.67,1.51,4.02.02.06-.29.23-.45.35Z"/><path class="cls-5" d="M115.06,66.45c2.32-.12,3.19,1.51,3.92,3.35-1.29-1.1-2.58-2.2-3.92-3.35Z"/><path class="cls-5" d="M114.05,88.43h6.1c0,.1,0,.21,0,.31h-6.11c0-.1,0-.21,0-.31Z"/><path class="cls-5" d="M75.29,103.77c.7-.31,1.4-.61,2.38-1.05-.05.65-.02,1.37-.13,1.39-.7.13-1.42.12-2.14.15l-.12-.49Z"/><path class="cls-5" d="M106.4,119.86c1.3-1.03,2.61-2.06,3.91-3.09,0,0-.03-.02-.03-.02-1.22,1.11-2.44,2.22-3.66,3.33-.08-.07-.15-.15-.23-.22Z"/><path class="cls-5" d="M116.36,103.05c-1.17-.95-2.34-1.91-3.51-2.86l-.02.02c.75.21,1.5.42,2.25.63,0,0-.01-.01-.01-.01.42.75.85,1.5,1.27,2.25l.02-.02Z"/><path class="cls-5" d="M106.24,67.09c-1.69.22-3.38.44-5.08.66-.02-.12-.03-.25-.05-.37l5.03-.69c.03.13.06.27.09.4Z"/><path class="cls-5" d="M110.31,116.77c.53-1.09,1.07-2.18,1.6-3.26.22.13.44.26.66.4-.76.95-1.52,1.9-2.28,2.85,0,0,.03.02.03.02Z"/><path class="cls-6" d="M54.87,70.5c.4-1.61,1.65-.74,2.55-.88.11.11.22.22.33.33,0,0-.02-.02-.02-.02-.95.19-1.91.38-2.86.58Z"/><path class="cls-5" d="M104.8,121.13c.53-.42,1.06-.84,1.6-1.27.08.07.15.15.23.22-.53.44-1.06.87-1.58,1.31-.08-.09-.16-.17-.25-.26Z"/><path class="cls-5" d="M113.14,99.2c.01-.21.03-.43.04-.64.47.39.94.79,1.41,1.18-.07.06-.14.13-.21.19-.41-.24-.83-.48-1.24-.73Z"/><path class="cls-5" d="M74.01,71.93c-.32.7-.65.74-.98,0,.33,0,.66,0,.98,0Z"/><path class="cls-5" d="M105.05,121.39c-.29.23-.59.46-.88.69-.08-.11-.16-.22-.25-.33.29-.21.59-.41.88-.62.08.09.16.17.25.26Z"/><path class="cls-5" d="M79.72,71.5c-.32,0-.64.01-.96.02.32,0,.64-.01.96-.02Z"/><path class="cls-5" d="M116.98,103.37c-.04.2-.07.4-.16.92-.21-.58-.34-.91-.46-1.24,0,0-.02.02-.02.02.11,0,.22,0,.33,0,0,0-.02-.02-.02-.02.11.11.22.22.34.33,0,0-.01-.02-.01-.02Z"/><path class="cls-5" d="M112.53,99.86c-.24-.02-.48-.04-.72-.05.02-.06.03-.11.05-.17.22.08.44.16.66.24,0,0,.02-.02.02-.02Z"/><path class="cls-5" d="M111.83,98.64c.24.16.49.32.73.48-.24-.16-.49-.32-.73-.48Z"/><path class="cls-6" d="M58.38,69.3c.25-.09.5-.19.75-.28-.25.09-.5.19-.75.28Z"/><path class="cls-6" d="M59.68,68.8c.2-.06.39-.13.59-.19-.2.06-.39.13-.59.19Z"/><path class="cls-6" d="M58.35,69.73s0,.04,0,.04c.13-.03.25-.07.09-.03.17.02.04,0-.09-.01Z"/><path class="cls-6" d="M53.65,70.94c-.02-.12-.03-.25-.05-.37.17.02.34.05.51.07-.15.1-.31.2-.46.3Z"/><path class="cls-5" d="M65.98,102.13c-.09-.12-.18-.24-.27-.36l.19-.1c.04.14.08.28.13.42,0,0-.05.04-.05.04Z"/><path class="cls-6" d="M66.65,67.38c.1-.01.21-.03.31-.04-.1.01-.21.03-.31.04Z"/><path class="cls-6" d="M62.86,68.18c.12-.05.24-.1.36-.14-.12.05-.24.1-.36.14Z"/><path class="cls-5" d="M118.8,70.14c.02.16.04.31.06.47-.02-.16-.04-.31-.06-.47Z"/><path class="cls-5" d="M72.4,72.02c-.11.05-.22.09-.34.14.11-.05.22-.09.34-.14Z"/><path class="cls-1" d="M119.21,75.01s-.03.06-.05.09c.02-.03.05-.05.07-.08,0,0-.02-.02-.02-.02Z"/><path class="cls-5" d="M112.85,100.19c-.11-.11-.21-.22-.32-.33,0,0-.02.02-.02.02.11.11.21.22.32.33,0,0,.02-.02.02-.02Z"/><path class="cls-3" d="M69.81,83.63c.12.41.24.83.36,1.24-.12-.41-.24-.83-.36-1.24Z"/><path class="cls-6" d="M53.59,70.24c-.21,0-.43,0-.64,0,.08-.16.16-.33.25-.49.13.16.26.33.39.49Z"/><path class="cls-6" d="M66.35,65.09c.09.13.18.26.28.39-.09-.13-.18-.26-.28-.39Z"/><path class="cls-3" d="M57.75,69.95c-.11-.11-.22-.22-.33-.33.11.11.22.22.33.33Z"/><path class="cls-5" d="M80.34,59.1c.11.24.22.48.33.73-1.97.6-3.93,1.19-5.96,1.8,1.48-1.75,3.77-1.69,5.63-2.53Z"/><path class="cls-1" d="M85.32,52.92c.5-.41,1.01-.83,1.51-1.24.07.08.15.16.22.23-.33.38-.66.77-.99,1.15l.03-.03c-.2.02-.4.04-.61.06-.06-.06-.11-.12-.17-.18Z"/><path class="cls-5" d="M86.39,57.47c.15-.06.3-.13.45-.19-.15.06-.3.13-.45.19Z"/><path class="cls-3" d="M84.81,65.16c.11-.07.22-.14.05-.03.21-.03.07,0-.07,0,0,0,.02.02.02.02Z"/><path class="cls-3" d="M85.49,53.1c.2-.02.4-.04.61-.06-.33.21-.65.43-.98.64,0,0,.02.02.02.02.12-.2.23-.4.35-.59Z"/><path class="cls-3" d="M84.8,54c-.12.34-.24.67-.36,1.01-.18-.23-.36-.47-.54-.7.31-.1.61-.2.92-.3,0,0,0,0,0,0Z"/><path class="cls-3" d="M79.97,56.48c.25-.18.49-.35.74-.53l.16.16c-.24.2-.48.39-.71.59-.06-.07-.12-.15-.19-.22Z"/><path class="cls-3" d="M84.81,54.01c.11-.11.22-.21.32-.32,0,0-.02-.02-.02-.02-.1.11-.21.22-.31.33,0,0,0,0,0,0Z"/><path class="cls-3" d="M82.88,92.24c-.11.1-.21.21-.32.31.11-.1.21-.21.32-.31Z"/><path class="cls-3" d="M118.58,103.07c-.11-.22-.22-.44-.33-.66.11.22.22.44.33.66Z"/><path class="cls-3" d="M116.67,103.07c-.11,0-.22,0-.33,0-.42-.75-.85-1.5-1.27-2.25.53.75,1.07,1.5,1.6,2.25Z"/><path class="cls-3" d="M116.99,103.39c-.11-.11-.22-.22-.34-.33.11.11.22.22.34.33Z"/></svg>