<?xml version="1.0" encoding="UTF-8"?><svg id="Layer_1" xmlns="http://www.w3.org/2000/svg" viewBox="0 0 204.09 283.54"><defs><style>.cls-1{fill:#bd7b9d;}.cls-1,.cls-2,.cls-3,.cls-4,.cls-5,.cls-6{stroke-width:0px;}.cls-2{fill:#f1f5f6;}.cls-3{fill:#26408e;}.cls-4{fill:#233f8e;}.cls-5{fill:#2e428f;}.cls-6{fill:#dfadbb;}</style></defs><path class="cls-3" d="M78.78,120.91c.1-.13.19-.25.29-.38.08-.09.15-.17.23-.26l.45-.59c.11-.12.23-.24.34-.36,2.5-2.58,5.7-4.03,8.88-5.5.15-.07.29-.13.44-.2.09.04.15.01.2-.07.48-.18.97-.37,1.45-.55.15-.04.3-.09.46-.13.45-.16.9-.33,1.35-.49,0,0-.03.02-.03.02.27-.11.54-.21.82-.32.57-.16,1.14-.33,1.7-.49.2-.08.41-.16.61-.24.12-.02.23-.05.35-.07.14-.06.29-.13.43-.19.92-.32,1.84-.64,2.76-.95.34-.11.68-.22,1.02-.33.29-.11.58-.22.88-.34.25-.1.49-.19.74-.29.27-.08.54-.16.81-.24.51.84.91,1.78,1.56,2.5.96,1.06,1.97,2.18,3.18,2.87.88.5,2.13.4,3.22.48,1.03.07,2.06.01,3.03.01.15-1.07.18-1.71.34-2.31.37-1.41.92-2.79,1.17-4.22.11-.62-.72-1.75-.49-1.96,1.21-1.1-.14-1.48-.42-2.16-.2-.5-.34-1.07-.3-1.6.01-.14.77-.23,1.18-.34-.24-2,1.02-4.18-.49-6.14.03-.32.06-.65.09-.97-.04-.77.63-1.72-.56-2.19,0-.43.02-.87.03-1.3.43-.41.6-.59.2-1.36-.59-1.12-.6-2.57-.71-3.89-.1-1.2,0-2.41.01-3.61,0-.71-.04-1.43-.02-2.14.01-.66.37-1.57.06-1.92-1.11-1.26-.6-2.25.32-3.6.34.57.63.96.82,1.39.97,2.11,2.05,4.19,2.85,6.36.79,2.15,1.96,4.12,2.91,6.19,1.74,3.81,4.3,7.24,6.18,11.01,1,2,2.82,2.34,4.42,3.09,1.14.53,2.56.47,3.87.62.55.06,1.12-.01,1.69-.02.18.08.37.16.55.24,0,16.82,0,33.65,0,50.47-.07.62-.14,1.23-.2,1.85-.34.51-.75.98-1,1.53-.25.56-.22,1.63-.53,1.73-1.5.44-1.22,1.92-1.74,2.68-.72.17-1.27.31-1.83.44-.05.15-.11.3-.16.44.39.15.77.31.94.37-.5.94-.82,1.63-1.23,2.26-.24.38-.64.97-.94.95-2.38-.16-1.08,1.19-.95,1.73-.42.71-.66,1.22-.99,1.64-.28.35-.62.72-1.01.91-1.33.64-1.45,1.26-.38,2.27q-1.84.22-1.06,2.29c-1.58.28-2.01,1.33-1.63,2.87h-1.32c-.78,1.1-1.43,2.01-2.26,3.18.03.24.13.89.24,1.64h-1.51c-.08.57.03,1.32-.26,1.53-1.27.96-1.93,2.3-2.51,3.69-.35.85-.56,1.77-.87,2.76-1.59-.13-1.28,1.94-2.19,2.85-.07.07.48.77.89,1.4-.71.52-1.51,1.09-2.52,1.82.91.21,1.8.41,2.69.62-.28.41-.65.57-1.01.55-.72-.03-2.02-.34-2.06-.22-.51,1.6-3.02,2.17-2.32,4.06-1.83,2.39-3.52,4.61-5.25,6.88.82,1.13.58,1.75-.96,2.31-.33.12-.58.51-.81.83-.27.38-.39,1.07-.72,1.18-1.3.42-1.27,1.6-1.68,2.55-.41.95-.92,1.85-1.48,2.98.06.15.27.63.53,1.25-1.12.48-3.01.16-2.56,2.25,0,.01-.11.03-.14.07-.59.77-1.16,1.56-1.79,2.3-.37.44-.84.8-1.27,1.2h0c.51-1.26,1-2.53,1.55-3.77.56-1.25,1.2-2.47,1.8-3.7,1.82-3.73,3.68-7.45,5.45-11.2,2.6-5.48,5.24-10.95,7.69-16.5,4.1-9.31,8-18.72,12.12-28.02,2.05-4.63,4.64-9.02,6.58-13.68,1.88-4.51,3.36-9.19,4.83-13.86,1.61-5.09,3.01-10.25,2.4-15.7-.19-1.66.3-3.6-1.53-4.65-.99-.57-2.19-.76-3.2-1.3-1.32-.71-2.01.29-2.66.97-.43.45-.4,1.34-.61,2.02-.12.38-.32,1.07-.47,1.06-1.99-.06-1.48,1.04-1.18,1.65-.67.85-1.21,1.42-1.62,2.06-.81,1.29-1.56,2.62-2.31,3.95-1.11,1.96-2.2,3.92-3.26,5.9-.07.13.25.47.21.41-.21,2.47-3.32,3.07-2.95,5.7-2.42.98-2.39,3.78-4.1,5.37.31.12.5.19.37.14-1.26,2.21-2.55,4.46-3.84,6.71l-.13-.05s-.14,0-.14,0c-.21-.14-.41-.28-.62-.42,0,0,.02.03.02.03-.14-.08-.28-.16-.42-.23-.19-.11-.39-.21-.58-.32-.12-.07-.25-.14-.37-.22-.08-.09-.17-.12-.29-.1-.54-.23-1.07-.46-1.61-.69-.77-.3-1.54-.59-2.31-.89.06-.31.08-.63.17-.93,1.83-6.05,3.76-12.07,5.45-18.16.4-1.45-.01-3.12-.05-4.69-.18-.08-.35-.15-.53-.23-.6.39-1.21.77-2.12,1.35-1.31-.23-2.28.72-2.29,2.52,0,.65-.5,1.34-.89,1.94-.51.78-1.36,1.4-1.66,2.23-.55,1.54-.87,3.18-1.16,4.79-.18,1.04-.13,2.11-.19,3.46.21-.06-.03,0-.42.13,1.65,2.23-1.58,1.88-1.74,3.42.18.23.46.57.82,1.02-.62.54-1.17,1.02-1.72,1.5-1.72-.35-3.45-.7-5.17-1.05-.19-.06-.37-.11-.56-.17-.24-.04-.48-.09-.72-.13-.19-.06-.37-.12-.56-.18,0,0-.02,0-.02,0l-.09-.09-.11.05c-.35-.1-.7-.19-1.06-.29-.31-.09-.63-.19-.94-.28-.42-.12-.84-.25-1.26-.37-.22-.08-.43-.17-.65-.25-.64-.24-1.27-.47-1.91-.71-.43-.21-.85-.41-1.28-.62-.37-.21-.74-.41-1.11-.62,0,0-.02-.09-.02-.09l-.05.05c-.14-.1-.29-.19-.43-.29-.09-.07-.19-.13-.28-.2-.81-.78-1.63-1.56-2.44-2.34-.15-.22-.29-.44-.44-.66-.37-.96-.73-1.92-1.1-2.87-.04-.15-.09-.29-.13-.44-.95-2.71.28-5.23.65-7.83.07-.47.22-.92.34-1.38.08-.18.15-.35.23-.53.33-.63.65-1.26.98-1.88.21-.33.43-.65.64-.98Z"/><path class="cls-6" d="M109.04,149.58c1.29-2.25,2.58-4.5,3.84-6.71.13.05-.06-.02-.37-.14,1.71-1.59,1.67-4.39,4.1-5.37-.37-2.63,2.75-3.23,2.95-5.7.03.06-.28-.28-.21-.41,1.05-1.98,2.15-3.94,3.26-5.9.75-1.33,1.5-2.66,2.31-3.95.4-.65.94-1.21,1.62-2.06-.3-.6-.81-1.71,1.18-1.65.15,0,.35-.68.47-1.06.21-.68.18-1.56.61-2.02.65-.68,1.34-1.68,2.66-.97,1.01.54,2.21.73,3.2,1.3,1.83,1.05,1.34,2.99,1.53,4.65.61,5.45-.79,10.61-2.4,15.7-1.48,4.66-2.95,9.35-4.83,13.86-1.95,4.66-4.53,9.06-6.58,13.68-4.13,9.3-8.02,18.71-12.12,28.02-2.45,5.55-5.09,11.02-7.69,16.5-1.78,3.75-3.63,7.47-5.45,11.2-.6,1.23-1.23,2.45-1.8,3.7-.55,1.24-1.04,2.5-1.55,3.76-.19.11-.37.22-.56.33.07.08.13.17.2.25.12-.19.24-.38.36-.57.43-.4.9-.76,1.27-1.2.63-.74,1.19-1.53,1.79-2.3.03-.04.14-.06.14-.07-.45-2.09,1.44-1.77,2.56-2.25-.27-.63-.47-1.1-.53-1.25.57-1.13,1.07-2.04,1.48-2.98.41-.95.38-2.12,1.68-2.55.33-.11.45-.8.72-1.18.22-.31.48-.71.81-.83,1.54-.56,1.77-1.18.96-2.31,1.73-2.27,3.43-4.48,5.25-6.88-.7-1.89,1.81-2.46,2.32-4.06.04-.13,1.34.19,2.06.22.36.02.73-.15,1.01-.55-.89-.2-1.78-.41-2.69-.62,1.01-.73,1.8-1.31,2.52-1.82-.41-.63-.96-1.33-.89-1.4.91-.91.6-2.98,2.19-2.85.31-.99.52-1.91.87-2.76.58-1.39,1.24-2.73,2.51-3.69.29-.22.18-.96.26-1.53h1.51c-.11-.75-.2-1.4-.24-1.64.83-1.17,1.48-2.08,2.26-3.18h1.32c-.38-1.54.04-2.59,1.63-2.87q-.78-2.07,1.06-2.29c-1.07-1.02-.95-1.63.38-2.27.39-.19.74-.55,1.01-.91.33-.43.57-.93.99-1.64-.13-.54-1.43-1.88.95-1.73.3.02.7-.57.94-.95.41-.63.72-1.32,1.23-2.26-.16-.07-.55-.22-.94-.37.05-.15.11-.29.16-.44.56-.13,1.11-.27,1.83-.44.52-.76.25-2.24,1.74-2.68.31-.09.28-1.16.53-1.73.25-.55.66-1.02,1-1.53.09.02.18.03.27.03.03.32.07.64.1.95-.03.1-.03.21,0,.31-.05,2.35-.09,4.7-.14,7.05,0,.31.01.62.01.93.04.1.09.19.13.29-.05.12-.1.24-.14.36-.57.55-1.31,1.01-1.67,1.67-2.34,4.29-4.55,8.65-6.9,12.94-2.25,4.1-4.63,8.12-6.94,12.18-1.67,2.93-3.24,5.92-5,8.79-3.01,4.91-6.11,9.77-9.23,14.61-3.23,5.02-6.44,10.06-9.81,14.99-2.21,3.22-4.7,6.24-7.06,9.35-2.19-.64-4.39-1.28-6.58-1.92-.1,0-.2-.02-.3-.03-.86-.42-1.71-.84-2.57-1.26-.08-.06-.17-.12-.25-.18-.43-.23-.86-.46-1.29-.69.29-.1.7-.12.83-.33.33-.51,1.43-.83.56-1.73.57-.46,1.14-.91,1.75-1.39-.46-.79.45-3.03,1.97-4.48-.12-.35-.41-.77-.3-.96.57-1.01,1.25-1.96,1.87-2.95.59-.96,1.2-1.92,1.7-2.93.67-1.35.9-3.2,1.96-4.02,1.67-1.31,1.32-3.3,2.32-4.83.76-1.16,1.09-2.57,2.18-3.05.08-.94.14-1.63.21-2.48.66.25,1.07.41,1.78.69,0-.67-.07-1.14.01-1.6.31-1.81-.03-3.97,2.49-4.63.19-.05.32-.7.33-1.07.04-1.15-.21-2.41.96-2.67,0-.73-.12-1.32.03-1.83.25-.9.47-1.93,1.06-2.59,1.63-1.83,1.93-4.56,4.14-5.97.12-.08.11-.37.16-.55-.45-.26-.84-.48-1.21-.69.63-1.23.94-2.7,1.84-3.38,1.03-.77,1.25-1.34.87-2.05.44-.72,1.09-1.32.98-1.7-.47-1.63.23-1.9,1.59-1.7.14.02.32-.21.67-.46-.61-.18-1.02-.29-1.42-.41.15-1.46.34-2.8,2.3-2.75-.38-.2-.76-.39-1.13-.58.14-.69.28-1.36.41-2.03-.02-.2-.03-.39-.05-.59,0,0,.04-.05.04-.05.29-.31.58-.62.87-.93,0,0,.08-.04.08-.04.09-.08.17-.17.26-.25,0,0,.05-.07.05-.07.09-.19.17-.37.26-.56.75-1.7,1.51-3.4,2.26-5.1.24-.24.57-.43.7-.72.92-2.09,1.72-4.24,2.71-6.3.6-1.25,1.48-2.38,2.23-3.56.14-.78-.58-1.74.65-2.65.8-.59,1.34-1.53,1.88-2.16-.13-.24-.49-.81-.45-.84,1.18-.87,1.65-1.93,1.06-3.34,1.61-.97,1.82-2.66,2.26-4.27.22-.84.71-1.61,1.13-2.38.24-.44.58-.83.94-1.33-.88-.92-.28-1.98.41-2.83.82-1.02.94-2.02.67-3.22-.09-.4.09-.9.26-1.3.22-.52.55-1,.9-1.61.13,0,.46-.03.34-.02-.09-.63-.15-1.17-.25-1.7-.05-.26-.16-.52-.24-.77-.27.18-.66.3-.79.55-2.09,3.92-4.14,7.85-6.21,11.78-2.37,4.48-4.73,8.97-7.13,13.44-.68,1.27-1.44,2.49-2.17,3.73-1.52-1.6-3.04-3.19-4.56-4.79Z"/><path class="cls-4" d="M111.88,39.63c.42-.08.85-.16,1.27-.24.21-.03.42-.06.63-.09,1.17-.18,2.34-.37,3.52-.55.21-.03.41-.06.62-.09,1.82-.23,3.64-.46,5.45-.7.31-.07.62-.13.94-.2.63-.07,1.27-.14,1.9-.22.21-.04.43-.08.64-.11.53-.04,1.06-.08,1.59-.13.32-.06.64-.11.96-.17.74-.06,1.48-.13,2.22-.19.22-.04.44-.07.65-.11l2.53-.2c.32-.05.64-.1.97-.14.55.02,1.1.03,1.64.05.05.08.11.16.16.23.04.12.07.24.11.35-.03,3.43-.08,6.87-.08,10.3.01,7.82.05,15.64.08,23.47,0,.11,0,.21,0,.32-.04.43-.07.86-.11,1.29-.18.01-.36.03-.55.04h-3.77c-.09.42-.16.78-.24,1.14-.53,2.17-1.31,4.31-1.55,6.51-.36,3.32-.32,6.68-.53,10.02-.03.48-.51.93-.79,1.39-.38-.45-.91-.84-1.11-1.35-.35-.9-.37-1.93-.76-2.8-1.63-3.66-3.32-7.3-5.04-10.92-1.06-2.23-1.22-4.97-3.57-6.46.14-.48.51-1.03.38-1.41-1.15-3.24-2.38-6.44-3.6-9.66-.41-1.09-.87-2.16-1.28-3.26-.66-1.77-2.19-2.65-3.64-3.6-.73-.47-1.48-1.01-2.29-1.22-1.06-.28-2.2-.35-3.3-.32-.38.01-1.05.61-1.06.95-.06,2.99-.08,5.99.03,8.97.14,3.74.44,7.47.62,11.2.2,4.21.36,8.43.48,12.65,0,.3-.51.62-.78.93-.55-.13-1.11-.26-1.66-.39-.31-.11-.61-.22-.92-.34-.75-.19-1.49-.38-2.24-.57-.1-.02-.21-.04-.31-.06-.5-.14-1.01-.28-1.51-.42-.64-1.17-1.29-2.34-2.01-3.66.07-.06.38-.36.73-.69-.92-1.53-1.78-2.96-2.65-4.4-.22-.88-.52-1.78-.89-2.65-1.06-2.44-2.14-4.87-3.23-7.3-.84-1.88-1.66-3.77-2.55-5.63-.3-.62-.77-1.16-1.16-1.74-1.09-1.97-1.28-4.3-2.66-6.29.15-.04.29-.08.44-.12-.42-.14-.84-.29-.85-.29-.09-1.44-.17-2.59-.24-3.74.11-.08.21-.17.32-.25.11-.03.22-.06.32-.1.22-.09.44-.17.66-.26.1-.03.2-.06.3-.09.74-.26,1.48-.53,2.22-.79.85-.27,1.69-.54,2.54-.81.64-.19,1.29-.39,1.93-.58.4-.11.79-.23,1.19-.34.69-.19,1.39-.38,2.08-.57,0,0,.12.05.12.05l.09-.1h.02c.28-.08.56-.16.83-.24l1.72-.41c.1-.02.21-.04.31-.05,1.7-.4,3.4-.8,5.1-1.2.1-.02.21-.03.31-.05,2.02-.4,4.04-.8,6.06-1.21.11-.02.21-.03.32-.05.53-.09,1.06-.19,1.6-.28.11-.02.21-.03.32-.05Z"/><path class="cls-6" d="M105.23,85.3c.27-.31.78-.62.78-.93-.11-4.22-.27-8.43-.48-12.65-.18-3.73-.48-7.46-.62-11.2-.11-2.99-.09-5.98-.03-8.97,0-.34.68-.94,1.06-.95,1.1-.03,2.24.04,3.3.32.82.21,1.57.75,2.29,1.22,1.45.95,2.98,1.83,3.64,3.6.41,1.09.87,2.17,1.28,3.26,1.22,3.21,2.45,6.42,3.6,9.66.13.38-.24.93-.38,1.41,2.35,1.5,2.51,4.24,3.57,6.46,1.72,3.62,3.41,7.26,5.04,10.92.39.87.41,1.91.76,2.8.2.52.73.91,1.11,1.35.27-.46.76-.91.79-1.39.21-3.34.17-6.7.53-10.02.24-2.2,1.02-4.34,1.55-6.51.09-.35.15-.71.24-1.14,1.26,0,2.52,0,3.77,0-.92,1.02.06,2.02.05,3.03-.04,9.37-.03,18.74-.04,28.11-.56.01-1.13.09-1.69.02-1.3-.15-2.73-.09-3.87-.62-1.6-.74-3.42-1.08-4.42-3.09-1.87-3.76-4.44-7.19-6.18-11.01-.94-2.07-2.12-4.03-2.91-6.19-.8-2.18-1.88-4.25-2.85-6.36-.2-.43-.48-.81-.82-1.39-.93,1.35-1.43,2.33-.32,3.6.31.35-.05,1.27-.06,1.92-.02.71.02,1.43.02,2.14,0,1.2-.11,2.42-.01,3.61.11,1.32.13,2.78.71,3.89.41.77.23.96-.2,1.36-.52-.66-.99-1.36-1.55-1.98-1.86-2.07-4.29-3.08-6.92-3.72-.28-.07-.5-.38-.75-.58Z"/><path class="cls-4" d="M137.69,200.86c-.03.63-.08,1.26-.08,1.9,0,14.08,0,28.16,0,42.24,0,.58.05,1.16.08,1.74-.07.08-.1.18-.09.29-2.84.02-5.68.03-8.52.05-.53-.05-1.06-.09-1.6-.14-1.17-.06-2.34-.12-3.5-.17-.32-.03-.64-.06-.96-.09-.95-.08-1.91-.16-2.86-.23-.21-.02-.43-.04-.64-.06-.64.02-1.29.03-1.93.05-.41-.09-.83-.19-1.24-.28-.64-.11-1.28-.22-1.93-.33-.21-.03-.42-.05-.64-.08-.53-.07-1.07-.15-1.6-.22-.21-.02-.42-.05-.63-.07-.91-.16-1.82-.32-2.74-.48.06-.28.03-.62.18-.84,1.99-2.84,4.01-5.66,6.03-8.47,1.69-2.35,3.5-4.61,5.06-7.03,2.4-3.73,4.67-7.54,6.94-11.35,2.33-3.89,4.61-7.82,6.88-11.74,1.07-1.85,2.09-3.74,3.13-5.62.18.19.35.38.53.58l.1.07c0,.11,0,.21,0,.32Z"/><path class="cls-6" d="M70.46,230.51c-1.31-1.07-2.78-1.99-3.9-3.24-2.27-2.53-4.48-5.15-5.21-8.63.14-.07.38-.1.41-.2.46-1.74,2.48-2.8,2.07-4.97-.07-.38.83-.87,1.13-1.39.47-.82.78-1.73,1.22-2.57.97-1.84,1.99-3.65,2.96-5.48.23-.44.3-.96.54-1.39.63-1.13,1.41-2.19,1.97-3.35,1.67-3.45,3.23-6.94,4.9-10.38.31-.64.92-1.14,1.42-1.69.39-.43.82-.84,1.24-1.26-.63-.26-.95-.39-1.28-.53.2-.27.39-.54.59-.81,1.9-.7,3.79-1.45,5.71-2.08.83-.27,1.74-.27,2.61-.4-.98,1.99-1.97,3.97-2.95,5.96-2.24,4.54-4.45,9.1-6.71,13.63-2.68,5.37-5.42,10.72-8.11,16.09-.85,1.69-1.6,3.43-2.4,5.14,2.25-.75,3.45-2.44,3.94-4.31.42-1.59.94-2.62,2.33-2.9,1.77-2.53,1.46-6.16,4.88-7.34-.19-.34-.32-.6-.4-.73.59-.34,1.53-.72,1.49-.89-.41-1.8,1.4-2.87,1.41-4.51,0-.29.34-.61.59-.85,1.4-1.31,2.55-2.75,2.67-4.78.02-.3.05-.65.22-.87.81-1.06,1.69-1.85,1.97-3.47.3-1.72,1.88-3.33,3.2-4.7.92-.95,1.82-1.67,1.55-3.13-.05-.27.08-.66.26-.89.74-.96,1.52-1.88,2.29-2.81.35-.41.63-1.05,1.08-1.19,2.53-.84,5.09-1.55,7.64-2.31-.29.85-.47,1.77-.9,2.54-2.3,4.15-4.66,8.26-7,12.39-1.56,2.75-3.09,5.53-4.7,8.25-4.58,7.71-9.16,15.43-13.84,23.09-1.48,2.42-3.27,4.65-4.91,6.96Z"/><path class="cls-3" d="M70.46,230.51c1.65-2.32,3.43-4.55,4.91-6.96,4.68-7.66,9.25-15.37,13.84-23.09,1.62-2.72,3.14-5.5,4.7-8.25,2.34-4.13,4.7-8.24,7-12.39.43-.78.6-1.69.9-2.54.02-.21.04-.41.05-.62.06-.06.08-.13.07-.21,0,0,.09-.01.09-.01.22-.08.45-.17.67-.25.12.03.2-.01.26-.12.52-.24,1.03-.47,1.55-.71.14-.07.27-.13.41-.2.09-.05.18-.09.28-.14.42-.22.84-.44,1.27-.65.13-.08.26-.16.39-.24.3-.2.61-.39.91-.59.2-.13.41-.26.61-.39.12-.08.23-.16.35-.24.17-.14.34-.28.52-.42.45-.34.91-.68,1.36-1.02.11.02.22.04.33.06-.14.67-.27,1.33-.41,2.03.37.19.75.39,1.13.58-1.95-.05-2.15,1.29-2.3,2.75.4.11.8.23,1.42.41-.35.25-.53.48-.67.46-1.37-.2-2.07.06-1.59,1.7.11.38-.54.97-.98,1.7.38.71.16,1.27-.87,2.05-.9.68-1.21,2.15-1.84,3.38.37.21.75.43,1.21.69-.05.18-.04.48-.16.55-2.21,1.41-2.51,4.14-4.14,5.97-.59.66-.8,1.69-1.06,2.59-.15.51-.03,1.1-.03,1.83-1.17.26-.92,1.51-.96,2.67-.01.37-.13,1.02-.33,1.07-2.52.66-2.19,2.82-2.49,4.63-.08.45-.01.93-.01,1.6-.71-.27-1.12-.43-1.78-.69-.07.86-.13,1.54-.21,2.48-1.09.48-1.42,1.89-2.18,3.05-1,1.53-.65,3.52-2.32,4.83-1.05.82-1.28,2.67-1.96,4.02-.5,1.01-1.11,1.97-1.7,2.93-.61.99-1.3,1.94-1.87,2.95-.11.19.18.61.3.96-1.52,1.45-2.43,3.69-1.97,4.48-.6.48-1.17.94-1.75,1.39.87.9-.22,1.22-.56,1.73-.13.2-.55.22-.83.33-.62-.3-1.24-.6-1.87-.89-.12-.05-.25-.11-.37-.16l-.05-.07s-.08.01-.08.01c-.17-.09-.34-.19-.51-.28-.38-.22-.76-.44-1.14-.66-.15-.09-.3-.19-.45-.28-.19-.11-.37-.23-.56-.34-.13-.09-.27-.18-.4-.27-.21-.12-.41-.25-.62-.37-.11-.08-.23-.17-.34-.25-.2-.13-.41-.26-.61-.39-.2-.15-.4-.3-.6-.46-.06-.09-.15-.14-.26-.14-.14-.11-.28-.22-.42-.33-.12-.1-.24-.2-.37-.3-.09-.07-.17-.14-.26-.21-.04-.11-.12-.16-.23-.16-.13-.11-.26-.22-.4-.33.01-.08,0-.17-.03-.24Z"/><path class="cls-6" d="M137.06,199.89c-1.04,1.87-2.06,3.76-3.13,5.62-2.28,3.93-4.56,7.85-6.88,11.74-2.28,3.81-4.54,7.63-6.94,11.35-1.56,2.42-3.38,4.69-5.06,7.03-2.02,2.82-4.04,5.64-6.03,8.47-.15.22-.13.56-.18.84-.25.06-.49.11-.74.17-.12,0-.24,0-.35,0-1.46-.32-2.92-.63-4.38-.97-.39-.09-.76-.3-1.14-.46.31-.35.95-.86.87-1.04-.55-1.23.49-1.69,1.01-2.39.45-.6.94-1.17,1.29-1.82.81-1.5,1.37-3.17,2.37-4.52,1.28-1.73,3.12-3.15,1.77-5.54,2.22-1.5,2.68-3.77,3.17-6.14.45.24.84.44,1.27.67-.02-3.13,1.76-5.35,3.2-7.9,0-.32-.16-.92.03-1.37.75-1.76,1.59-3.49,2.43-5.2.21-.44.74-.77.83-1.21.49-2.32.82-4.7,3.86-5.07.02,0,.02-.17.04-.44-.62.09-1.19.18-1.78.27.25-1.88,2.15-2.99,1.97-4.98-.03-.37.52-.88.92-1.17.62-.45,1.35-.77,2.03-1.14-.34-.46-.65-.87-.96-1.29,1.28-.66.4-2.22,1.27-3.05.24-.23.46-.52.61-.83.39-.82.74-1.65,1.08-2.49.23-.57.41-1.16.61-1.74-.07-.02-.13-.04-.2-.06,1.01-1.68,2.02-3.35,3.13-5.2-.1-.24-.33-.76-.56-1.29.11.06.23.12.34.17.49-.94,1.05-1.84,1.44-2.81.75-1.83,1.41-3.69,2.08-5.54.14-.4.1-.87.28-1.26.16-.36.49-.65.75-.96,0,2.27.04,4.54-.01,6.8-.03,1.36-.19,2.71-.29,4.06-1.29,3.1-2.65,6.16-3.83,9.3-.86,2.29-2.36,4.22-3.3,6.47-.74,1.76-2.08,3.26-2.88,5.01-1.51,3.29-2.79,6.68-4.25,9.99-1.05,2.38-2.29,4.67-3.3,7.06-.3.72-.14,1.63-.19,2.49-.28.38-.68.93-1.07,1.48.38.27.76.54,1.65,1.17-1.06-2.38.47-1.8,1.29-1.99,0-1.26-.42-2.69.09-3.59.88-1.51,2.36-2.68,3.55-4.01.22-.25.31-.63.41-.96.11-.35.1-.98.26-1.02.36-.09.83.04,1.17.23.33.18.55.55.82.83.15-.09.3-.17.45-.26-.4-1.5-.8-3.01-1.13-4.24.93-.77,1.78-1.48,2.63-2.19-.31-.33-.61-.67-1.15-1.25.94.07,1.69.13,2.4.18-.38-.79-.67-1.39-.96-1.98.26.19.51.39.77.58.6-.97,1.2-1.94,1.8-2.91.18-.14.36-.28.54-.42-.07-.07-.14-.14-.2-.21-.14.18-.28.36-.43.54h-1.33c1.47-1.34,2.65-2.41,3.81-3.47-.23-.39-.43-.71-.66-1.08,2.54-.4,2.75-.72,1.73-2.42l.03.02c.35-1.45,1.23.08,1.77-.31l.12.04c0,.2-.01.4-.02.59-.11.72-.27,1.45-.33,2.18-.12,1.6-.18,3.21-.27,4.82ZM117.84,222.79c-.51.63-.98,1.12-1.34,1.69-.12.19-.05.61.1.81.1.14.49.16.71.1.65-.17,1.03-1.78.53-2.6ZM135.76,174.36l-.23.67c.44.08.87.15,1.31.23.04-.18.08-.36.12-.54l-1.19-.35Z"/><path class="cls-3" d="M137.38,168.36c-.26.32-.59.6-.75.96-.17.38-.13.86-.28,1.26-.67,1.86-1.33,3.72-2.08,5.54-.4.97-.96,1.88-1.44,2.81-.11-.06-.23-.12-.34-.17.23.52.45,1.05.56,1.29-1.11,1.85-2.12,3.52-3.13,5.2.07.02.13.04.2.06-.2.58-.38,1.17-.61,1.74-.34.84-.69,1.67-1.08,2.49-.14.3-.36.59-.61.83-.88.84,0,2.4-1.27,3.05.31.41.62.83.96,1.29-.68.38-1.41.69-2.03,1.14-.4.29-.96.81-.92,1.17.18,2-1.72,3.1-1.97,4.98.59-.09,1.16-.17,1.78-.27-.02.27-.02.44-.04.44-3.04.37-3.37,2.75-3.86,5.07-.09.44-.62.77-.83,1.21-.84,1.72-1.68,3.44-2.43,5.2-.19.45-.03,1.05-.03,1.37-1.44,2.54-3.22,4.77-3.2,7.9-.44-.23-.82-.43-1.27-.67-.49,2.38-.95,4.65-3.17,6.14,1.34,2.39-.49,3.81-1.77,5.54-1,1.35-1.55,3.02-2.37,4.52-.35.65-.85,1.22-1.29,1.82-.53.71-1.56,1.16-1.01,2.39.08.18-.56.68-.87,1.04-.64-.08-1.28-.15-1.91-.23-.28-.08-.56-.16-.84-.24-.24-.04-.48-.09-.72-.13-.18-.06-.37-.12-.55-.18-.58-.13-1.16-.26-1.74-.39-.27-.08-.54-.16-.81-.25h-.01s-.1-.1-.1-.1l-.12.05c-.24-.07-.49-.15-.73-.22-.1-.02-.21-.04-.31-.06-.14-.03-.27-.07-.41-.1-.18-.06-.36-.12-.54-.18-.16-.03-.32-.06-.48-.09-.16-.07-.32-.13-.47-.2-.48-.23-.96-.45-1.44-.68,2.36-3.11,4.86-6.13,7.06-9.35,3.38-4.92,6.58-9.96,9.81-14.99,3.12-4.85,6.22-9.7,9.23-14.61,1.76-2.87,3.33-5.86,5-8.79,2.31-4.06,4.69-8.09,6.94-12.18,2.35-4.28,4.56-8.65,6.9-12.94.36-.66,1.1-1.12,1.67-1.67-.01.55-.03,1.09-.04,1.64-.07.19-.14.37-.21.56Z"/><path class="cls-3" d="M77.81,77.96c-.78-.37-1.57-.74-2.35-1.1-.37-.21-.74-.43-1.12-.64,0,0,.03.03.03.03-.13-.09-.26-.18-.4-.26-.36-.23-.73-.47-1.09-.7-.27-.21-.54-.41-.8-.62-.35-.3-.71-.59-1.06-.89-.08-.08-.16-.16-.25-.24-.24-.24-.47-.47-.71-.71-.08-.08-.17-.17-.25-.25-.3-.35-.6-.7-.9-1.06-.11-.14-.21-.28-.32-.42-.43-.7-.86-1.41-1.29-2.11-.2-.47-.41-.95-.61-1.42-.24-1.97-.48-3.95-.72-5.92.13-.53.26-1.06.39-1.59.12-.35.24-.71.35-1.06.1-.17.19-.34.29-.51.09-.14.17-.28.26-.41,0,0,.1-.06.1-.06l-.03-.11c.51-.61,1.01-1.22,1.52-1.83.18.74.37,1.47.48,1.92.77.44,1.39.8,2.02,1.16q1.16.66,1.47-.07c-.37-.55-.75-1.14-.79-1.75-.1-1.42-.04-2.85-.04-4.28,0,0,.02-.09.02-.09l.67-.55c.32-.21.64-.42.96-.64.14-.09.29-.18.43-.28.18-.11.35-.23.53-.34.13-.09.27-.18.4-.27,0,0-.03.03-.03.03.53-.28,1.06-.56,1.58-.85.09-.06.18-.12.27-.19.17-.09.35-.18.52-.27.13.01.26.03.39.04.09.46.1.95.27,1.38,1.94,4.86,3.87,9.72,5.87,14.56.29.71.95,1.26,1.61,2.1.04.26-.01.95.24,1.5,1.74,3.9,3.56,7.78,5.31,11.67.11.24-.11.62-.18.93-.22-.02-.44-.05-.66-.07-1.43-.34-2.86-.69-4.28-1.03-.16-.06-.32-.11-.49-.17-.43-.11-.86-.22-1.29-.33-.1-.03-.21-.05-.31-.08l-.65-.22c-.1-.02-.21-.04-.31-.07l-.09-.08s-.12.02-.12.02c-.25-.08-.5-.16-.75-.24l-.09-.08s-.12,0-.12,0c-.14-.06-.28-.12-.42-.18-.73-.25-1.47-.5-2.2-.75-.11-.06-.23-.12-.34-.17-.17-.06-.34-.12-.5-.18-.15-.07-.31-.13-.46-.2Z"/><path class="cls-3" d="M78.53,184.62c-.2.27-.39.54-.59.81.33.13.65.27,1.28.53-.42.42-.85.83-1.24,1.26-.5.55-1.11,1.05-1.42,1.69-1.67,3.44-3.23,6.94-4.9,10.38-.56,1.16-1.33,2.22-1.97,3.35-.24.43-.31.95-.54,1.39-.97,1.84-1.99,3.64-2.96,5.48-.44.84-.75,1.75-1.22,2.57-.3.53-1.2,1.02-1.13,1.39.4,2.16-1.61,3.23-2.07,4.97-.03.1-.27.13-.41.2-.46-1.68-.93-3.36-1.39-5.05l-.09-.64c.04-3.25.05-6.5.16-9.75.03-.83.42-1.64.64-2.47.09-.28.18-.56.26-.84.22-.59.45-1.17.67-1.76.07-.15.15-.31.22-.46.14-.28.27-.55.41-.83.08-.15.16-.3.24-.44.05-.09.1-.19.15-.28.11-.19.22-.39.33-.58,0,0-.03.01-.03.01.08-.14.17-.28.25-.41,1.7-1.88,3.4-3.75,5.1-5.63.19-.15.38-.29.58-.44.75-.52,1.5-1.04,2.26-1.56.15-.1.29-.2.44-.29.39-.22.77-.43,1.16-.65.12-.06.24-.12.36-.18.09-.06.17-.11.26-.17.17-.09.33-.18.5-.27.37-.17.74-.34,1.11-.52.11-.06.21-.12.32-.17h0c.12-.04.24-.09.37-.13.12.02.21-.03.26-.14.19-.09.37-.18.56-.27.48-.15.96-.3,1.44-.45.22.12.43.24.65.36Z"/><path class="cls-6" d="M90.89,81.8c.07-.31.28-.7.18-.93-1.75-3.9-3.57-7.77-5.31-11.67-.25-.56-.2-1.25-.24-1.5-.66-.84-1.32-1.4-1.61-2.1-2-4.83-3.94-9.7-5.87-14.56-.17-.43-.19-.92-.27-1.38,1.59-1.6,3.71-2.07,5.77-2.65.07,1.15.15,2.3.24,3.74,0,0,.42.14.85.29-.15.04-.29.08-.44.12,1.37,1.99,1.57,4.32,2.66,6.29.39.58.87,1.12,1.16,1.74.89,1.86,1.71,3.75,2.55,5.63,1.08,2.43,2.17,4.86,3.23,7.3.38.87.68,1.77.89,2.65.86,1.43,1.73,2.87,2.65,4.4-.34.33-.66.63-.73.69.72,1.32,1.37,2.49,2.01,3.66-2.11-.42-4.22-.85-6.33-1.26-.46-.09-.92-.15-1.38-.22-.01-.08-.01-.16,0-.23Z"/><path class="cls-5" d="M93.09,180.77c-.77.93-1.56,1.85-2.29,2.81-.18.23-.31.61-.26.89.27,1.47-.63,2.18-1.55,3.13-1.32,1.37-2.9,2.98-3.2,4.7-.28,1.62-1.16,2.4-1.97,3.47-.17.22-.2.57-.22.87-.12,2.03-1.27,3.47-2.67,4.78-.25.24-.59.56-.59.85,0,1.64-1.82,2.71-1.41,4.51.04.16-.9.54-1.49.89.07.14.21.39.4.73-3.42,1.18-3.12,4.81-4.88,7.34-1.38.27-1.91,1.31-2.33,2.9-.49,1.88-1.69,3.56-3.94,4.31.8-1.72,1.55-3.45,2.4-5.14,2.69-5.37,5.43-10.72,8.11-16.09,2.26-4.53,4.47-9.08,6.71-13.63.98-1.99,1.97-3.97,2.95-5.96.16-.35.32-.69.47-1.04.97-.31,1.93-.62,2.9-.94.35-.1.7-.2,1.05-.3.63-.13,1.25-.25,1.88-.38-.02.43-.04.86-.06,1.28Z"/><path class="cls-5" d="M113.6,154.37c.73-1.24,1.49-2.46,2.17-3.73,2.39-4.47,4.76-8.96,7.13-13.44,2.07-3.92,4.12-7.86,6.21-11.78.13-.25.52-.37.79-.55.08.26.19.51.24.77.1.54.16,1.08.25,1.7.12,0-.21.02-.34.02-.35.61-.68,1.08-.9,1.61-.17.41-.35.9-.26,1.3.27,1.2.16,2.2-.67,3.22-.69.85-1.29,1.91-.41,2.83-.36.5-.7.89-.94,1.33-.42.77-.91,1.55-1.13,2.38-.43,1.61-.64,3.3-2.26,4.27.6,1.42.13,2.48-1.06,3.34-.04.03.32.61.45.84-.53.63-1.07,1.57-1.88,2.16-1.24.91-.52,1.87-.65,2.65-.75,1.18-1.63,2.3-2.23,3.56-.99,2.06-1.79,4.21-2.71,6.3-.13.29-.46.48-.7.72,0-1.7,0-3.4,0-5.1,0-.1-.02-.21-.03-.31-.06-.23-.12-.47-.18-.7.02-.03.07-.08.06-.1-.03-.07-.08-.13-.12-.2l-.39-1.56c-.07-.16-.14-.32-.21-.48l-.26-1.09Z"/><path class="cls-5" d="M132.3,199.61c-.6.97-1.2,1.94-1.8,2.91-.26-.19-.51-.39-.77-.58.29.59.57,1.19.96,1.98-.71-.05-1.46-.11-2.4-.18.53.58.84.92,1.15,1.25-.85.71-1.71,1.42-2.63,2.19.33,1.23.73,2.73,1.13,4.24-.15.09-.3.17-.45.26-.27-.28-.49-.65-.82-.83-.34-.19-.81-.31-1.17-.23-.16.04-.15.67-.26,1.02-.11.33-.19.72-.41.96-1.19,1.34-2.67,2.5-3.55,4.01-.52.89-.09,2.33-.09,3.59-.81.19-2.35-.39-1.29,1.99-.89-.63-1.27-.9-1.65-1.17.4-.55.8-1.1,1.07-1.48.05-.86-.11-1.78.19-2.49,1.01-2.39,2.26-4.68,3.3-7.06,1.46-3.31,2.73-6.71,4.25-9.99.8-1.74,2.15-3.24,2.88-5.01.94-2.25,2.44-4.18,3.3-6.47,1.18-3.14,2.54-6.2,3.83-9.3.17.08.35.15.52.23,0,2.92,0,5.84,0,8.76-.34.74-.69,1.48-.93,1.98.33.78.61,1.43.88,2.08-.54.4-1.42-1.14-1.77.31-.1.13-.2.26-.04.05-.04.26-.02.1.01-.07,1.03,1.7.81,2.02-1.73,2.42.22.37.42.7.66,1.08-1.16,1.06-2.34,2.13-3.81,3.47h1.33s.09.08.09.08Z"/><path class="cls-6" d="M96.27,145.06c.55-.48,1.1-.96,1.72-1.5-.36-.45-.63-.79-.82-1.02.16-1.54,3.38-1.18,1.74-3.42.39-.12.62-.19.42-.13.07-1.34.01-2.42.19-3.46.29-1.62.61-3.25,1.16-4.79.3-.83,1.15-1.45,1.66-2.23.39-.6.88-1.29.89-1.94.02-1.8.98-2.74,2.29-2.52.91-.58,1.51-.97,2.12-1.35.18.08.35.15.53.23.04,1.57.45,3.24.05,4.69-1.68,6.09-3.61,12.11-5.45,18.16-.09.3-.12.62-.17.93-2.11-.55-4.22-1.09-6.32-1.64ZM98.72,143.12c-.05-.07-.1-.18-.16-.18-.09,0-.18.06-.27.1.05.06.1.18.15.18.09,0,.18-.06.27-.1Z"/><path class="cls-6" d="M114.91,96.04c1.5,1.96.25,4.15.49,6.14-.41.11-1.17.2-1.18.34-.04.53.1,1.1.3,1.6.28.68,1.64,1.05.42,2.16-.23.21.6,1.33.49,1.96-.25,1.43-.8,2.81-1.17,4.22-.16.6-.19,1.24-.34,2.31-.97,0-2,.05-3.03-.01-1.09-.07-2.34.03-3.22-.48-1.22-.69-2.23-1.81-3.18-2.87-.65-.72-1.05-1.66-1.56-2.5-.01-.07,0-.13.05-.18.12-.08.24-.16.36-.23,2.8-.79,5.08-2.5,7.05-4.5,1.42-1.43,2.4-3.29,3.51-5.02.21-.34-.03-.94.12-1.35.21-.57.59-1.07.89-1.6Z"/><path class="cls-1" d="M137.06,103.68c0-9.37,0-18.74.04-28.11,0-1.01-.97-2.01-.05-3.03.18-.01.36-.03.55-.04.04.74.11,1.47.11,2.2.02,9.45.03,18.91.05,28.36,0,.1,0,.21,0,.31-.05.18-.1.36-.15.54-.18-.08-.37-.16-.55-.24Z"/><path class="cls-6" d="M72.01,53.05c0,1.43-.06,2.86.04,4.28.04.61.41,1.2.79,1.75q-.31.73-1.47.07c-.63-.36-1.25-.72-2.02-1.16-.11-.45-.29-1.18-.48-1.92,1.05-1.01,2.1-2.01,3.15-3.02Z"/><path class="cls-1" d="M87.33,181.1c-.16.35-.32.69-.47,1.04-.87.12-1.78.13-2.61.4-1.93.63-3.81,1.38-5.71,2.08-.22-.12-.43-.24-.65-.36,2.63-.95,5.26-1.91,7.88-2.86.21-.1.42-.19.62-.29.22-.02.43-.05.65-.07,0,0,.16,0,.16,0l.14-.06v.12Z"/><path class="cls-1" d="M93.09,180.77c.02-.43.04-.86.06-1.28,2.74-.96,5.48-1.92,8.23-2.88.16.01.33.03.49.04-.02.21-.04.41-.05.62-2.55.76-5.12,1.48-7.64,2.31-.44.15-.72.78-1.08,1.19Z"/><path class="cls-1" d="M137.6,179.45c-.17-.08-.35-.15-.52-.23.1-1.35.26-2.71.29-4.06.05-2.27.01-4.54.01-6.8.07-.19.14-.37.21-.56.05,3.38.1,6.75.15,10.13,0,.21,0,.42,0,.63-.04.3-.09.6-.13.9Z"/><path class="cls-1" d="M137.06,199.89c.09-1.61.15-3.21.27-4.82.05-.73.21-1.45.33-2.18.03.1.06.21.08.31,0,.21,0,.42,0,.63-.05,2.21-.11,4.42-.16,6.63-.18-.19-.35-.39-.53-.58Z"/><path class="cls-1" d="M137.56,192.27c-.27-.65-.55-1.29-.88-2.08.24-.51.58-1.25.93-1.98.03,1.37.05,2.73.08,4.1,0,0-.12-.04-.12-.04Z"/><path class="cls-6" d="M114.44,92.88c1.19.47.52,1.42.56,2.19-.19-.73-.38-1.46-.56-2.19Z"/><path class="cls-2" d="M89.89,44.71c-.85.27-1.69.54-2.54.81.85-.27,1.69-.54,2.54-.81Z"/><path class="cls-2" d="M76.58,50.07c-.53.28-1.06.56-1.58.85.38-.51.76-1.02,1.23-1.66.15.33.25.57.36.82Z"/><path class="cls-2" d="M127.49,246.93c.53.05,1.06.09,1.6.14-.53-.05-1.06-.09-1.6-.14Z"/><path class="cls-1" d="M137.66,156.27c-.09,0-.18,0-.27-.03.07-.62.14-1.24.2-1.85.02.63.04,1.25.06,1.88Z"/><path class="cls-2" d="M116.35,246.14c.41.09.83.19,1.24.28-.41-.09-.83-.19-1.24-.28Z"/><path class="cls-2" d="M81.94,140.97c.43.21.85.41,1.28.62-.43-.21-.85-.41-1.28-.62Z"/><path class="cls-2" d="M111.8,169.94c-.29.31-.58.62-.87.93.29-.31.58-.62.87-.93Z"/><path class="cls-2" d="M66.37,60.05c-.13.53-.26,1.06-.39,1.59.13-.53.26-1.06.39-1.59Z"/><path class="cls-2" d="M104.51,175.35c-.52.24-1.03.47-1.55.71.52-.24,1.03-.47,1.55-.71Z"/><path class="cls-2" d="M91.04,113c-.48.18-.97.37-1.45.55.48-.18.97-.37,1.45-.55Z"/><path class="cls-2" d="M92.84,112.37c-.45.16-.9.33-1.35.49.45-.16.9-.33,1.35-.49Z"/><path class="cls-2" d="M123.03,246.66c.32.03.64.06.96.09-.32-.03-.64-.06-.96-.09Z"/><path class="cls-2" d="M104.9,147.59c.54.23,1.07.46,1.61.69-.54-.23-1.07-.46-1.61-.69Z"/><path class="cls-2" d="M129.41,37.13c-.32.06-.64.11-.96.17.32-.06.64-.11.96-.17Z"/><path class="cls-2" d="M135.78,36.49c-.32.05-.64.1-.97.14.32-.05.64-.1.97-.14Z"/><path class="cls-2" d="M124.31,37.75c-.31.07-.62.13-.94.2.31-.07.62-.13.94-.2Z"/><path class="cls-2" d="M78.78,120.91c-.21.33-.43.65-.64.98.21-.33.43-.65.64-.98Z"/><path class="cls-2" d="M74.35,76.22c.37.21.74.43,1.12.64-.37-.21-.74-.43-1.12-.64Z"/><path class="cls-2" d="M66.71,67.56c.2.47.41.95.61,1.42-.2-.47-.41-.95-.61-1.42Z"/><path class="cls-2" d="M72.44,232.22c.2.15.4.3.6.46-.2-.15-.4-.3-.6-.46Z"/><path class="cls-2" d="M93.01,43.78c-.4.11-.79.23-1.19.34.4-.11.79-.23,1.19-.34Z"/><path class="cls-2" d="M113.78,39.29c-.21.03-.42.06-.63.09.21-.03.42-.06.63-.09Z"/><path class="cls-2" d="M117.92,38.64c-.21.03-.41.06-.62.09.21-.03.41-.06.62-.09Z"/><path class="cls-2" d="M126.85,37.42c-.21.04-.43.08-.64.11l.64-.11Z"/><path class="cls-2" d="M132.28,36.83c-.22.04-.44.07-.65.11.22-.04.44-.07.65-.11Z"/><path class="cls-2" d="M72.09,74.66c.27.21.54.41.8.62-.27-.21-.54-.41-.8-.62Z"/><path class="cls-2" d="M59.87,212.96l.09.64c-.17-.09-.33-.19-.5-.28.14-.12.28-.24.41-.36Z"/><path class="cls-2" d="M90.89,81.8c-.02.08-.02.15,0,.23-.22-.1-.43-.2-.65-.3.22.02.44.05.66.07Z"/><path class="cls-2" d="M119.52,246.37c.21.02.43.04.64.06-.21-.02-.43-.04-.64-.06Z"/><path class="cls-2" d="M102.7,176.18c-.22.08-.45.17-.67.25.09-.2.19-.39.28-.59l.4.34Z"/><path class="cls-1" d="M137.64,165.51c0-.31,0-.62-.01-.93.03.1.06.19.1.29-.03.21-.06.43-.09.64Z"/><path class="cls-2" d="M111.56,245.43c.21.02.42.05.63.07-.21-.02-.42-.05-.63-.07Z"/><path class="cls-2" d="M113.79,245.73c.21.03.42.05.64.08-.21-.03-.42-.05-.64-.08Z"/><path class="cls-2" d="M102.65,84.57c.31.11.61.22.92.34-.31-.11-.61-.22-.92-.34Z"/><path class="cls-2" d="M100.51,109.79c-.34.11-.68.22-1.02.33.34-.11.68-.22,1.02-.33Z"/><path class="cls-2" d="M72.7,52.41l-.67.55c.22-.18.45-.37.67-.55Z"/><path class="cls-2" d="M62.96,195.53c-.11.19-.22.39-.33.58-.07-.11-.14-.23-.21-.34.18-.08.36-.16.53-.24Z"/><path class="cls-2" d="M91.27,179.87c-.35.1-.7.2-1.05.3.35-.1.7-.2,1.05-.3Z"/><path class="cls-2" d="M77.17,136.82c.15.22.29.44.44.66-.15-.22-.29-.44-.44-.66Z"/><path class="cls-2" d="M137.64,165.51c.03-.21.06-.43.09-.64.01.31.03.62.04.93-.04-.1-.09-.19-.13-.29Z"/><path class="cls-2" d="M87.05,142.92l.94.28-.94-.28Z"/><path class="cls-2" d="M85.14,142.3l.65.25-.65-.25Z"/><path class="cls-2" d="M108.15,149.12c.21.14.41.28.62.42-.21-.14-.41-.28-.62-.42Z"/><path class="cls-2" d="M137.69,37.12c-.04-.12-.07-.24-.11-.35.07-.08.1-.17.09-.27,0,.21.01.42.02.62Z"/><path class="cls-2" d="M112.45,169.01c-.09.19-.17.37-.26.56.09-.19.17-.37.26-.56Z"/><path class="cls-2" d="M110.94,171.51l-.33-.06c.09-.18.19-.36.28-.53.01.2.03.39.05.59Z"/><path class="cls-2" d="M109.24,172.48c-.17.14-.34.28-.52.42.17-.14.34-.28.52-.42Z"/><path class="cls-2" d="M108.38,173.14c-.2.13-.41.26-.61.39.2-.13.41-.26.61-.39Z"/><path class="cls-2" d="M99.46,243.23c.28.08.56.16.84.24-.28-.08-.56-.16-.84-.24Z"/><path class="cls-2" d="M137.73,178.55c0-.21,0-.42,0-.63,0,.21,0,.42,0,.63Z"/><path class="cls-2" d="M96.15,42.92c-.28.08-.56.16-.83.24.28-.08.56-.16.83-.24Z"/><path class="cls-2" d="M95.64,242.28c.27.08.54.16.81.25-.27-.08-.54-.16-.81-.25Z"/><path class="cls-2" d="M86.39,181.11c-.21.1-.42.19-.62.29.21-.1.42-.19.62-.29Z"/><path class="cls-2" d="M75.63,185.12c-.12.05-.24.09-.37.14l.12-.37c.08.08.16.15.24.23Z"/><path class="cls-2" d="M73.08,186.38c-.12.06-.24.12-.36.18l.1-.38c.09.07.17.14.26.2Z"/><path class="cls-2" d="M68.86,189.06c-.19.15-.38.29-.58.44.19-.15.38-.29.58-.44Z"/><path class="cls-2" d="M84.17,46.66c-.11.03-.22.06-.32.1.11-.03.22-.06.32-.1Z"/><path class="cls-2" d="M137.75,193.84c0-.21,0-.42,0-.63,0,.21,0,.42,0,.63Z"/><path class="cls-2" d="M93.63,112.07c-.27.11-.54.21-.82.32.27-.11.54-.21.82-.32Z"/><path class="cls-2" d="M77.8,235.57c.12.05.25.11.37.16-.08.07-.17.14-.25.21-.04-.12-.08-.25-.12-.37Z"/><path class="cls-2" d="M95.94,111.34c-.2.08-.41.16-.61.24.2-.08.41-.16.61-.24Z"/><path class="cls-2" d="M60.94,199.9c-.09.28-.18.56-.26.84.09-.28.18-.56.26-.84Z"/><path class="cls-2" d="M73.65,233.06c.11.08.23.17.34.25-.07.05-.14.09-.22.14l-.12-.39Z"/><path class="cls-2" d="M102.12,109.16c-.25.1-.49.19-.74.29.25-.1.49-.19.74-.29Z"/><path class="cls-2" d="M81.95,79.52c.25.08.5.16.75.24-.25-.08-.5-.16-.75-.24Z"/><path class="cls-2" d="M70.5,230.75c.13.11.26.22.4.33-.13-.11-.26-.22-.4-.33Z"/><path class="cls-2" d="M71.13,231.24c.09.07.17.14.26.21-.09-.07-.17-.14-.26-.21Z"/><path class="cls-2" d="M71.75,231.74c.14.11.28.22.42.33-.14-.11-.28-.22-.42-.33Z"/><path class="cls-2" d="M74.61,233.69c.13.09.27.18.4.27-.13-.09-.27-.18-.4-.27Z"/><path class="cls-2" d="M137.69,200.86c0-.11,0-.21,0-.32,0,.11,0,.21,0,.32Z"/><path class="cls-2" d="M75.58,234.29c.15.09.3.19.45.28-.15-.09-.3-.19-.45-.28Z"/><path class="cls-2" d="M77.16,235.23c.17.09.34.19.51.28-.17-.09-.34-.19-.51-.28Z"/><path class="cls-2" d="M61.83,197.67c-.07.15-.15.31-.22.46.07-.15.15-.31.22-.46Z"/><path class="cls-2" d="M62.48,196.4c-.08.15-.16.3-.24.44.08-.15.16-.3.24-.44Z"/><path class="cls-2" d="M81.33,237.32c.08.06.17.12.25.18-.1-.03-.19-.09-.25-.18Z"/><path class="cls-2" d="M63.18,195.13c-.08.14-.17.28-.25.41.08-.14.17-.28.25-.41Z"/><path class="cls-2" d="M84.15,238.75c.1,0,.2.02.3.03-.1,0-.2-.01-.3-.03Z"/><path class="cls-2" d="M71.56,187.21c-.15.1-.29.2-.44.29.15-.1.29-.2.44-.29Z"/><path class="cls-2" d="M73.84,185.95c-.17.09-.33.18-.5.27.17-.09.33-.18.5-.27Z"/><path class="cls-2" d="M75.27,185.26c-.11.06-.21.12-.32.17.11-.06.21-.12.32-.17Z"/><path class="cls-2" d="M92.46,241.37c.16.07.32.13.47.2-.16-.07-.32-.13-.47-.2Z"/><path class="cls-2" d="M76.44,184.7c-.19.09-.37.18-.56.27.19-.09.37-.18.56-.27Z"/><path class="cls-2" d="M93.42,241.66c.18.06.36.12.54.18-.18-.06-.36-.12-.54-.18Z"/><path class="cls-2" d="M94.37,241.95c.1.02.21.04.31.06-.1-.02-.21-.04-.31-.06Z"/><path class="cls-2" d="M95.41,242.23l.12-.05s.1.09.1.09c-.08,0-.15,0-.21-.04Z"/><path class="cls-2" d="M87.34,180.98l-.14.06s-.16,0-.16,0c.1-.02.2-.04.3-.06Z"/><path class="cls-2" d="M98.19,242.92c.18.06.37.12.55.18-.18-.06-.37-.12-.55-.18Z"/><path class="cls-2" d="M101.87,176.65c-.16-.01-.33-.03-.49-.04.19-.06.37-.11.56-.17.01.08-.01.15-.07.21Z"/><path class="cls-2" d="M105.19,175.01c-.09.05-.18.09-.28.14.09-.05.18-.09.28-.14Z"/><path class="cls-2" d="M106.86,174.12c-.13.08-.26.16-.39.24.13-.08.26-.16.39-.24Z"/><path class="cls-2" d="M112.14,169.64c-.09.08-.17.17-.26.25.09-.09.17-.17.26-.25Z"/><path class="cls-2" d="M107.73,245.13c.12,0,.24,0,.35,0-.12,0-.24,0-.35,0Z"/><path class="cls-2" d="M114.69,158.49c0,.1.02.21.03.31-.04-.07-.09-.14-.12-.22,0-.02.06-.06.1-.1Z"/><path class="cls-2" d="M137.61,247.01c-.02-.11.01-.2.09-.29-.03.1-.06.19-.09.29Z"/><path class="cls-2" d="M114.45,157.49c.04.07.09.13.12.2,0,.02-.04.06-.06.1-.06-.09-.08-.19-.05-.3Z"/><path class="cls-2" d="M137.76,157.53c-.03-.1-.04-.2,0-.31.03.07.07.14.09.21,0,.02-.06.06-.09.09Z"/><path class="cls-2" d="M113.86,155.46c.07.16.14.32.21.48-.07-.16-.14-.32-.21-.48Z"/><path class="cls-2" d="M107.75,148.91c.14.08.28.16.42.23-.14-.08-.28-.16-.42-.23Z"/><path class="cls-2" d="M106.8,148.38c.12.07.25.14.37.22l-.37-.22Z"/><path class="cls-2" d="M90.55,143.85c.19.06.37.11.56.17-.18-.06-.37-.11-.56-.17Z"/><path class="cls-2" d="M89.27,143.53c.19.06.37.12.56.18-.19-.06-.37-.12-.56-.18Z"/><path class="cls-2" d="M89.05,143.49l.11-.05.09.09c-.07,0-.14,0-.2-.04Z"/><polygon class="cls-2" points="80.76 140.31 80.81 140.26 80.83 140.35 80.76 140.31"/><path class="cls-2" d="M80.05,139.82c.09.07.19.13.28.2-.09-.07-.19-.13-.28-.2Z"/><path class="cls-2" d="M75.94,133.51c.04.15.09.29.13.44-.04-.15-.09-.29-.13-.44Z"/><path class="cls-2" d="M77.16,123.77c-.08.18-.15.35-.23.53.08-.18.15-.35.23-.53Z"/><path class="cls-2" d="M79.29,120.27c-.08.09-.15.17-.23.26.08-.09.15-.17.23-.26Z"/><path class="cls-2" d="M80.08,119.32c-.11.12-.23.24-.34.36.11-.12.23-.24.34-.36Z"/><path class="cls-2" d="M89.4,113.62c-.15.07-.29.13-.44.2.15-.07.29-.13.44-.2Z"/><path class="cls-2" d="M96.72,111.08c-.14.06-.29.13-.43.19.14-.06.29-.13.43-.19Z"/><path class="cls-2" d="M103.34,108.5c-.12.08-.24.16-.36.23.12-.08.24-.16.36-.23Z"/><path class="cls-2" d="M137.75,103.38c0-.1,0-.21,0-.31.04.07.08.14.1.22,0,.02-.06.06-.09.09Z"/><path class="cls-2" d="M100.11,83.94c.1.02.21.04.31.06-.1-.02-.21-.04-.31-.06Z"/><path class="cls-2" d="M85.46,80.53c.16.06.32.11.49.17-.16-.06-.32-.11-.49-.17Z"/><path class="cls-2" d="M83.86,80.12c.1.03.21.05.31.08-.1-.03-.21-.05-.31-.08Z"/><path class="cls-2" d="M82.9,79.83c.1.02.21.04.31.07-.1-.02-.21-.04-.31-.07Z"/><path class="cls-2" d="M81.32,79.27c.14.06.28.12.42.18-.14-.06-.28-.12-.42-.18Z"/><path class="cls-2" d="M78.77,78.35c.11.06.23.12.34.17-.11-.06-.23-.12-.34-.17Z"/><path class="cls-2" d="M77.81,77.96c.15.07.31.13.46.2-.15-.07-.31-.13-.46-.2Z"/><path class="cls-2" d="M73.98,75.98c.13.09.26.18.4.26-.13-.09-.26-.18-.4-.26Z"/><path class="cls-2" d="M70.78,73.53c.08.08.16.16.25.24-.08-.08-.16-.16-.25-.24Z"/><path class="cls-2" d="M69.82,72.57c.08.08.17.17.25.25-.08-.08-.17-.17-.25-.25Z"/><path class="cls-2" d="M68.61,71.1c.11.14.21.28.32.42-.11-.14-.21-.28-.32-.42Z"/><path class="cls-2" d="M137.7,71.21c0-.11,0-.21,0-.32,0,.11,0,.21,0,.32Z"/><path class="cls-2" d="M67.02,58.48c-.1.17-.19.34-.29.51.1-.17.19-.34.29-.51Z"/><path class="cls-2" d="M67.35,57.89l.03.11s-.1.06-.1.06c0-.07.03-.12.07-.17Z"/><path class="cls-2" d="M74.09,51.5c-.14.09-.29.18-.43.28.14-.09.29-.18.43-.28Z"/><path class="cls-2" d="M75.02,50.89c-.13.09-.27.18-.4.27.13-.09.27-.18.4-.27Z"/><path class="cls-2" d="M77.37,49.62c-.17.09-.35.18-.52.27.17-.09.35-.18.52-.27Z"/><path class="cls-2" d="M85.12,46.31c-.1.03-.2.06-.3.09.1-.03.2-.06.3-.09Z"/><path class="cls-2" d="M95.3,43.17l-.09.1s-.12-.05-.12-.05c.07-.04.14-.06.21-.05Z"/><path class="cls-2" d="M98.18,42.46c-.1.02-.21.04-.31.05.1-.02.21-.04.31-.05Z"/><path class="cls-2" d="M103.6,41.21c-.1.02-.21.03-.31.05.1-.02.21-.03.31-.05Z"/><path class="cls-2" d="M109.97,39.96c-.11.02-.21.03-.32.05.11-.02.21-.03.32-.05Z"/><path class="cls-2" d="M111.88,39.63c-.11.02-.21.03-.32.05.11-.02.21-.03.32-.05Z"/><path class="cls-1" d="M137.68,36.5c.01.1-.02.2-.09.27-.06-.08-.11-.16-.16-.24.08-.05.16-.07.26-.04Z"/><path class="cls-3" d="M93.73,226.03c-.12.19-.24.38-.36.57-.07-.08-.13-.17-.2-.25.19-.11.37-.22.56-.33,0,0,0,.01,0,.01Z"/><path class="cls-5" d="M117.84,222.79c.5.82.12,2.42-.53,2.6-.22.06-.62.04-.71-.1-.14-.2-.21-.62-.1-.81.36-.56.83-1.06,1.34-1.69Z"/><path class="cls-1" d="M135.76,174.36l1.19.35c-.04.18-.08.36-.12.54-.44-.08-.87-.15-1.31-.23l.23-.67Z"/><path class="cls-5" d="M132.21,199.53c.14-.18.28-.36.43-.54.07.07.14.14.2.21-.18.14-.36.28-.54.42,0,0-.09-.08-.09-.08Z"/><path class="cls-6" d="M135.77,192.56c-.03.17-.06.34-.01.07-.16.21-.06.08.04-.05,0,0-.03-.02-.03-.02Z"/><path class="cls-3" d="M98.72,143.12c-.1.04-.19.11-.27.1-.06,0-.1-.12-.15-.18.09-.04.18-.1.27-.1.06,0,.1.11.16.18Z"/></svg>