<?xml version="1.0" encoding="UTF-8"?><svg id="Layer_1" xmlns="http://www.w3.org/2000/svg" viewBox="0 0 217.04 140.3"><defs><style>.cls-1{fill:#e5cf4b;}.cls-1,.cls-2,.cls-3,.cls-4,.cls-5,.cls-6,.cls-7,.cls-8{stroke-width:0px;}.cls-2{fill:#442611;}.cls-3{fill:#efd14a;}.cls-4{fill:#f7d14c;}.cls-5{fill:#fcf5f3;}.cls-6{fill:#fbd44a;}.cls-7{fill:#dfadbb;}.cls-8{fill:#fbd349;}</style></defs><path class="cls-2" d="M180.16,64.37c.21.04.43.09.64.13.04,1.66.07,3.32.11,4.98-.9.64-1.79,1.28-2.69,1.91-.13.1-.26.21-.39.31,0,0,.04-.03.04-.03-.15.12-.3.24-.45.35,0,0-.1,0-.1,0l-.03.09c-.31.52-.62,1.04-.92,1.55-.08.07-.1.16-.06.26.01.42.02.84.03,1.26.21.03.42.06.63.08.43.1.85.19,1.28.29.09.09.19.1.29.04.43.09.87.19,1.3.28.09.08.18.1.29.04.21.06.43.13.64.19.2.06.41.11.61.17-.49.9-.99,1.79-1.48,2.69.41.65.8,1.26,1.18,1.88-.14,0-.27-.02-.41-.02-.17,1.79-.3,3.59-.54,5.37-.16,1.21.41,2.66-1.01,3.53-.06.04,0,.27,0,.5.4-.19.71-.34,1.03-.49.1.1.19.2.29.3-.23.31-.48.6-.7.92-.17.26-.3.54-.44.82.27.24.55.48.82.72-.42.99-.83,1.98-1.33,3.17.42.77,2.65-.1,2.41,2.06,2.95-.16,5.9-.32,8.85-.49-.12.31-.24.62-.36.92-.23.41-.46.83-.7,1.24,0,0,.02-.02.02-.02-.17.05-.33.1-.5.16-.42.03-.83.03-1.25.08-3.07.4-6.13,1.04-9.21,1.17-4.54.2-9.11-.04-13.66.08-4.95.12-9.9.4-14.84.71-.51.03-.97.73-1.46,1.11-.12.03-.17.11-.14.23-1.65-.02-3.3-.03-4.94-.05,0,0,.03-.09.03-.09-.09-1.11-.77-1.31-1.76-1.28-4.47.14-8.94.26-13.41.31-4.97.06-9.94,0-14.9.11-.8.02-1.59.62-2.39.95-.59.03-1.19.05-1.78.08-2.03-1.53-4.45-.83-6.61-.84-7.71-.04-15.42.29-23.13.5-.6.02-1.2.21-1.8.32-1.59.03-3.19.05-4.78.08-.35-.1-.7-.29-1.04-.29-3.59.02-7.18.05-10.78.1-2,.03-4,.12-6,.18-5.74,0-11.48,0-17.21,0-.1-.02-.19-.03-.29-.05-.43-.06-.86-.13-1.29-.19-.11-.01-.22-.03-.33-.04-.74-.11-1.48-.23-2.23-.34-.1-.02-.2-.03-.3-.05-.3-.03-.6-.06-.89-.09-.45-.08-.89-.15-1.34-.23l-.15-.03s-.15.03-.15.03c-.05-.11-.1-.21-.15-.32,0,0,.07-.07.07-.07.12-.08.23-.16.35-.24.21-.11.42-.22.63-.33.15-.08.3-.17.46-.25.39-.18.78-.36,1.17-.55.08-.05.16-.1.24-.15.23-.1.46-.21.69-.31.14-.09.28-.18.43-.27.51-.33,1.03-.67,1.54-1,1.32-.4,2.94,0,3.68-1.01-.09-2.11-1.56-1.03-2.36-1.43.18-.77.34-1.46.52-2.25.64-.5,1.41-1.1,2.43-1.9-1.05-.47-1.83-.83-2.58-1.17.34-.72.97-1.48.93-2.19-.02-.46-1.03-.86-1.44-1.17.37-.55.83-1.22,1.31-1.93-.82-.5-2.08.26-1.85-1.19.15-.04.3-.07.45-.11.35-.16.7-.32,1.06-.49-.03-.14-.06-.27-.1-.41-.81-.17-1.63-.33-2.44-.5-.32-.05-.64-.1-.96-.15l-.64-.2c-1.6-.34-3.2-.68-4.8-1.02.38-.26.81-.8,1.13-.74,1.54.26,2.62-1.35,4.28-.89.46.13,1.29-1.05,1.95-1.64-.18-.12-.35-.25-.53-.37,0,0-.06-.02-.06-.02,0,0,.04-.09.04-.09.29-2.31-.77-4.94,2.05-6.79-1.01-.1-1.62-.17-2.22-.23.07-.59.14-1.14.21-1.75.46.08.85.16,1.24.23.07-.12.14-.24.22-.35-.49-.38-.98-.76-1.56-1.2.54-.14,1-.27,1.39-.37-.48-.79-1.16-1.49-1.31-2.29-.14-.7.32-1.52.55-2.45-1.07.08-2.21.21-3.35.23-1.67.02-3.35-.04-5.02-.07.34-.16.68-.32,1.01-.48.14-.07.27-.13.41-.2.09.04.17.02.22-.07.18-.07.36-.14.53-.21,0,0,.1-.04.1-.04.27-.08.55-.16,1.08-.31-.51-.32-.8-.5-1.08-.68-.63-.43-1.26-.86-1.9-1.28-.2-.15-.41-.29-.61-.44-.11-.22-.21-.45-.32-.67,2.63-.39,5.27-.74,7.89-1.21.73-.13,1.47-.52,2.09-.96.6-.43,1.04-1.07,1.49-1.55-.43-.65-.9-1.36-1.38-2.08,1.34-.33.95-1.31.87-2.16-.02-.25-.21-.65-.12-.72.91-.72,1.81-1.87,2.81-1.96,2.51-.24,5.06,0,7.6.06-.18.19-.49.35-.52.56-.26,1.76-.45,3.52-.71,5.28-.09.64-.25,1.29-.49,1.89-.35.89-.05,1.42.84,1.37,1.79-.09,3.56-.35,5.35-.46,1.17-.07,2.36-.02,3.54,0,.73.01,1.46.15,2.18.11,1.61-.1,3.22-.31,4.83-.42,2.48-.18,4.98-.27,7.45-.52.44-.04.89-.63,1.2-1.07.26-.37.33-.88.48-1.33-1.36-.53-1.31-1.11.44-2.79-.46-.11-.85-.21-1.4-.34.48-.44.8-.74.83-.77-.26-.7-.42-1.15-.59-1.59.17-.08.34-.15.51-.23,2.98.06,5.96.12,8.94.18-.22.88-.46,1.76-.66,2.65-.14.66-.15,1.36-.33,2.01-.87,3.22.07,4.23,3.35,3.55.21-.04.4-.17.61-.18.97-.06,1.95-.13,2.92-.13,1.38,0,2.76.1,4.14.08.7-.01,1.39-.25,2.09-.28.93-.04,1.86.09,2.79.04,1.27-.07,2.53-.3,3.79-.37,1.26-.07,2.55.07,3.79-.12.41-.06.73-.85,1.03-1.35.45-.77.85-1.57,1.25-2.33-.4-.72-.88-1.61-1.29-2.35.26-.49.47-.89.68-1.29,3.1,0,6.21,0,9.31,0-.28,2.38-.56,4.76-.86,7.23,1.08.06,1.83-.07,2.43.18,1.07.44,1.94.38,3.07,0,1.28-.42,2.76-1.55,4.19-.12.08.08.31.03.47.03,1.49,0,2.98,0,4.44,0-.03.08-.14.35-.28.72,2.75-.24,5.35-.45,7.94-.74.24-.03.42-.58.63-.89,1.43.16,2.43-.49,2.4-1.7-.03-1.04-.24-2.08-.44-3.11-.11-.56-.39-1.09-.59-1.64.16-.09.32-.18.48-.27.18-.01.36-.03.55-.04,2.83.03,5.65.06,8.48.11.61.01,1.23.14,1.84.22-.02,1.43-.05,2.86-.06,4.29,0,1.73,1.88,3.2,3.59,3.04,2.09-.2,4.2-.19,6.3-.26,1.24-.04,2.47-.09,3.71-.07.73.01,1.45.17,2.17.25.36.04,1.02.15,1.04.08.37-1.24,1.17-.54,1.75-.37.94.28,1.77.58,2.58-.36.74-.86,1.63-1.6,2.44-2.38-.46-.71-.82-1.27-1.21-1.87.42-.2.77-.36,1.11-.52-.42-.62-.79-1.18-1.16-1.73,0,0,0-.06,0-.06,1.38-.02,2.76-.04,4.14-.06.27.05.54.1.81.16.79.26,1.59.52,2.38.78.45.16.89.32,1.34.48.02,1.62.04,3.24.07,4.86-.07.06-.12.14-.12.24-.13.09-.25.18-.38.27-.51.33-1.02.66-1.54.99-.23.17-.46.34-.7.51.23.14.46.28.69.42,0,0,.03.01.03.01.3.12.61.24.91.36,0,0,0,0,0,0,.11.06.22.11.33.17.24.13.48.26.71.39.03.86.05,1.71.08,2.57-.05.11-.09.23-.14.34,0,0,0,0,0,0-.16.09-.33.18-.49.27-.15.04-.31.09-.46.13-.4.14-.79.29-1.19.43-.14.05-.27.1-.41.15-.45.13-.91.26-1.6.46.99.9,1.78,1.62,2.56,2.33,0,0,.04.03.04.03.18.13.37.26.55.39,0,0-.01-.02-.01-.02.12.07.24.13.36.2ZM41.36,75.35h2.73c0,1.02,0,1.81,0,2.6.02,2.14.72,2.45,2.8,1.87,2.23-.62,4.51-1.27,6.89-.35.65.25,1.48.04,2.23.04v-.42c-.6-.1-1.2-.21-1.79-.31.03-.15.06-.29.08-.44,1.25.15,2.49.31,3.74.44,1.96.2,3.93.85,5.85-.3.33-.2.89-.1,1.32-.01.86.18,1.7.54,2.56.66,1.32.18,3.21-1.14,3.41-2.46.26-1.7.56-3.45.37-5.12-.13-1.22-.1-1.98,1.16-2.37-1.25-1.32-1.56-3.02-.87-4.4,1.01-2.03.06-3.62-2.17-3.61-1.35,0-2.7.07-4.05.11-5.7.18-11.41.36-17.11.57-.73.03-1.48.16-2.17.39-.3.1-.6.53-.69.87-.27,1.1-.48,2.22-.62,3.34-.3,2.4-.54,4.8-.78,6.93-1.18.72-2.11,1.28-3.04,1.84-.06.07-.13.14-.19.21.11-.02.22-.04.34-.06ZM176.84,77.45c-1.39-.09-2.54-.04-3.64-.25-2.62-.51-5.3.85-7.89-.32-.25-.11-.76-.09-.91.08-1.04,1.2-2.45.73-3.71.86-1.82.2-3.65.32-5.47.44-1.47.1-2.94.21-4.4.2-1.32,0-1.91.67-1.84,2.03.04.72-.25,1.46-.39,2.19-.07.36-.18.73-.16,1.08.09,1.35.35,2.71.33,4.06-.04,2.62-.21,5.24-.36,7.86-.06,1.01.45,1.43,1.36,1.6,1.43.27,2.84.64,4.27.85.86.12,1.75.02,2.67.02-.19-.34-.33-.58-.49-.86,1.82-.19,3.54-.37,5.26-.55.01.13.03.25.04.38-.58.21-1.16.41-2.04.72,1.33.17,2.37.3,3.41.44.02-.09.03-.17.05-.26-.35-.08-.7-.16-1.26-.28.74-.33,1.25-.72,1.8-.78,1.14-.12,2.31-.15,3.45-.03.42.04.87.94,1.16.87,1.95-.49,3.86.05,5.78.04.45,0,.95-.18,1.35-.4,1.86-1.02,2.21-2.02,1.19-3.27,1.41-.84,1.91-1.87.44-3.7.28-2.77.57-5.19-.9-7.34.28-.36.54-.7.82-1.07-.42-.12-.76-.23-1.23-.37.94-1.33-1.08-3.22,1.3-4.25ZM117.6,97.76c2.28-1.67,4.44-.08,6.63-.76,1.76-.55,3.88.08,5.84.17,2.38.11,4.75.19,7.13.33,1.1.06,2.22.39,3.3.28,1.09-.11,2.06-2.03,1.94-3.35-.16-1.68-.33-3.36-.46-5.05-.26-3.32-.5-6.65-.77-10.26-2.13.2-4.09.47-6.06.55-4.12.16-8.25.21-12.37.33-3.22.1-6.44.24-9.65.39-.42.02-.9.06-1.22.28-.4.28-.95.76-.95,1.16,0,3.09.16,6.18.2,9.27.02,1.24-.08,2.48-.18,3.72-.11,1.32.88,2.68,1.91,2.41,1.28-.33,2.34-.16,3.43.62.57.41,1.41.45,2.12.65.03-.07.07-.15.1-.22-.31-.18-.63-.36-.93-.53ZM118.28,76.77c2.18,0,3.87-.01,5.56,0,1.28.01,2.57.1,3.85.08.85,0,1.7-.17,2.55-.2,1.11-.04,2.37-.34,3.3.07,1.05.47,1.76.19,2.65-.13.73-.27,1.57-.65,2.28-.52,1.81.33,2.48-.2,2.38-2.1-.16-3.18-.25-6.36-.37-9.54-.02-.57.14-1.26-.12-1.69-.86-1.45-.55-2.69.5-4.1-.89-.19-1.68-.51-2.47-.5-1.46.01-2.92.25-4.39.32-5.81.29-11.61.59-17.42.82-2.56.1-3.45.95-3.66,3.54-.2,2.47-.54,4.92-.81,7.38-.13,1.12-.09,2.29-.41,3.35-.57,1.89.08,3.04,1.88,3.69,1.4.51,2.6,0,3.88-.16.42-.05.82-.31.82-.31ZM103.01,77.83c.56-.52.86-.91,1.26-1.16,1.22-.76,1.62-2.11.99-3.3-.18-.34-.17-.79-.17-1.19,0-.7.09-1.4.1-2.1.03-1.63.01-3.27.08-4.9.07-1.67.22-3.34.35-5.32-3.35.17-6.29.36-9.24.45-4.81.16-9.62.24-14.43.39-.62.02-1.25.15-1.85.31-.27.07-.66.32-.71.55-.23,1.1-.4,2.21-.53,3.33-.26,2.21-.5,4.41-.71,6.62-.16,1.72-.37,3.44-.35,5.16,0,.84.5,1.47,1.66,1.33,1.69-.21,3.42-.23,5.13-.24,1.77,0,3.55.12,5.32.13.75,0,1.51-.19,2.26-.18,1.24.02,2.49.2,3.72.17.81-.02,1.62-.46,2.42-.44,1.67.04,3.33.26,4.69.38ZM106.01,81.09c-.68-.12-1.19-.3-1.69-.28-3.27.16-6.53.42-9.8.53-5.13.17-10.26.25-15.39.37-1.26.03-1.97.99-1.69,2.25.07.3.15.62.13.92-.18,2.23-.47,4.45-.54,6.68-.03.86.7,1.76.64,2.6-.2,2.85.66,3.71,3.44,3.21.88-.16,1.79-.24,2.68-.21,1.84.06,3.7.5,5.5.28,3.73-.45,7.41-.11,11.12,0,1.14.04,2.29-.19,3.43-.3.38-.19.81.27,1.19.23.63-.07,1.64-.33,1.76-.73.29-.92.24-1.99.13-2.97-.1-.95-.6-1.87-.65-2.82-.07-1.26.13-2.53.24-4.13-.92-1.3-1.72-3.89-.52-5.65ZM153.35,57.3c.02-.09.04-.19.05-.28-.51.16-1,.41-1.52.46-1.68.16-2.21.69-2.2,2.35,0,3.06.02,6.12-.01,9.18,0,.68-.2,1.35-.29,2.03-.13,1.03-.42,2.08-.3,3.08.09.74.65,1.95,1.12,2,1.29.16,2.65-.15,3.98-.33,1.79-.24,3.58-.52,5.48-.8-.1.76-.15,1.09-.22,1.62,1.03-.59,1.83-1.23,2.74-1.5.63-.18,1.88-.07,2.05.29.67,1.45,1.29.7,2.15.29.88-.41,1.9-.55,2.86-.75,2.46-.53,5.58.57,6.93-2.83-.32-.13-.65-.27-1.04-.43.27-.38.5-.71.71-1.01-.59-.56-1.14-1.08-1.86-1.76.79-.21,1.27-.34,1.81-.48-.21-.53-.27-1.08-.58-1.38-1.28-1.26-1.35-2.24-.1-3.36-.52-.74-2.02-.97-1.37-2.34.36-.75.83-1.44,1.29-2.21h-1.56c-.04-.73-.07-1.37-.11-2.3-.59-.12-1.38-.44-2.17-.42-1.36.03-2.72.3-4.08.41-3.05.24-6.09.5-9.14.64-1.53.07-3.07-.1-4.6-.16ZM67.68,98.42c1.19-.23,2.34-.42,3.46-.69.93-.22,2.18-.16,2.04-1.65-.11-1.14-.38-2.26-.54-3.4-.2-1.42-.86-3.05-.41-4.24.81-2.15-.7-3.93-.37-5.92.02-.13-.61-.54-.93-.54-4.92.07-9.84.2-14.76.32-.2,0-.4.16-.61.17-2.78.1-5.57.13-8.34.32-1.03.07-2.68.23-2.93.82-.49,1.17-.32,2.67-.23,4.03.13,1.96.44,3.91.66,5.86.01.1,0,.23-.06.31-.86,1.38.37,2.54.43,3.83.01.22.4.61.62.61,2.05,0,4.13.17,6.13-.16,1.96-.32,3.77-.55,5.52.62.22.15.66.16.91.05,2.46-1.11,5-1.08,7.58-.63.64.11,1.28.2,1.82.29Z"/><path class="cls-8" d="M72.3,47.59c.16.44.33.88.59,1.59-.03.03-.35.33-.83.77.55.13.94.23,1.4.34-1.74,1.67-1.8,2.25-.44,2.79-.15.45-.22.96-.48,1.33-.31.43-.76,1.03-1.2,1.07-2.48.25-4.97.34-7.45.52-1.61.12-3.22.32-4.83.42-.72.05-1.45-.09-2.18-.11-1.18-.02-2.36-.07-3.54,0-1.79.11-3.56.38-5.35.46-.89.04-1.19-.48-.84-1.37.24-.6.4-1.25.49-1.89.26-1.76.45-3.52.71-5.28.03-.21.34-.37.52-.56.02-.08.04-.17.04-.25.31-.02.63-.05.94-.07.33.01.65.03.98.04,6.79,0,13.58,0,20.38.01.22-.01.43-.02.65-.04.14.08.29.15.43.23Z"/><path class="cls-8" d="M105.9,47.47c-.21.4-.42.8-.68,1.29.41.74.89,1.63,1.29,2.35-.4.75-.8,1.56-1.25,2.33-.29.5-.62,1.29-1.03,1.35-1.24.19-2.53.04-3.79.12-1.27.07-2.53.3-3.79.37-.93.05-1.86-.08-2.79-.04-.7.03-1.39.27-2.09.28-1.38.02-2.76-.08-4.14-.08-.97,0-1.95.07-2.92.13-.2.01-.4.14-.61.18-3.28.68-4.22-.33-3.35-3.55.18-.65.19-1.34.33-2.01.19-.89.43-1.77.66-2.65.1-.06.21-.12.31-.18,1.59.04,3.17.12,4.76.12,6.36,0,12.73,0,19.09-.01Z"/><path class="cls-8" d="M138.59,47.45c.2.54.48,1.07.59,1.64.21,1.02.41,2.07.44,3.11.03,1.21-.97,1.85-2.4,1.7-.21.31-.39.87-.63.89-2.59.29-5.19.49-7.94.74.14-.37.25-.64.28-.72-1.46,0-2.95,0-4.44,0-.16,0-.38.05-.47-.03-1.43-1.43-2.91-.29-4.19.12-1.13.37-2,.44-3.07,0-.6-.25-1.35-.12-2.43-.18.29-2.47.58-4.85.86-7.23,7.79,0,15.59,0,23.38-.01Z"/><path class="cls-8" d="M172.21,47.58c.37.55.74,1.1,1.16,1.73-.34.16-.69.33-1.11.52.39.61.75,1.16,1.21,1.87-.81.78-1.7,1.52-2.44,2.38-.81.93-1.64.63-2.58.36-.58-.17-1.38-.87-1.75.37-.02.07-.68-.04-1.04-.08-.72-.08-1.45-.24-2.17-.25-1.24-.02-2.47.03-3.71.07-2.1.07-4.21.07-6.3.26-1.71.16-3.59-1.31-3.59-3.04,0-1.43.04-2.86.06-4.29,6.99-.03,13.98-.06,20.98-.08.22-.01.43-.03.65-.04.21.08.43.15.64.23Z"/><path class="cls-6" d="M28.17,62.61c1.67.03,3.35.09,5.02.07,1.14-.02,2.27-.15,3.35-.23-.23.93-.69,1.75-.55,2.45.15.8.83,1.5,1.31,2.29-.38.1-.85.23-1.39.37.57.44,1.07.82,1.56,1.2-.07.12-.14.24-.22.35-.39-.07-.78-.14-1.24-.23-.07.61-.14,1.17-.21,1.75.6.06,1.21.12,2.22.23-2.81,1.84-1.76,4.48-2.05,6.78-.11.02-.2.06-.27.14-.48-.1-.95-.2-1.43-.29-.06-.11-.14-.14-.24-.07-.8-.18-1.6-.37-2.4-.55,0,0-.05-.07-.05-.07l-.04.05c-.9-.2-1.8-.4-2.71-.6-.42-.09-.83-.19-1.25-.28-.44-.1-.88-.2-1.32-.3-.2-.04-.4-.09-.61-.13-.34-.09-.67-.18-1.01-.28-.02-.1-.07-.19-.15-.25.17-.26.34-.52.52-.78.07-.08.14-.15.21-.23.85-1.66,2.43-2.19,4.08-2.63.6-.16,1.18-.43,1.77-.65.21-.08.42-.17.64-.25.64-.22,1.28-.44,1.91-.66.13-.03.26-.06.39-.09-.11-.1-.22-.21-.33-.31-1.29-.61-2.57-1.23-3.86-1.84-.63-.34-1.26-.68-1.89-1.01-.73-.5-1.51-.95-2.17-1.53-.35-.3-.5-.82-.74-1.24.22-.09.43-.19.65-.28.83-.3,1.66-.6,2.49-.91Z"/><path class="cls-6" d="M179.3,91.78c.15-.27.27-.56.44-.82.21-.32.46-.62.7-.92-.1-.1-.19-.2-.29-.3-.32.15-.64.3-1.03.49,0-.23-.06-.46,0-.5,1.42-.87.84-2.32,1.01-3.53.24-1.78.36-3.58.54-5.37.14,0,.27.02.41.02-.39-.61-.77-1.23-1.18-1.88.49-.9.99-1.79,1.48-2.69,2.87.52,5.74,1.04,9.02,1.64-1.29,1.07-2.25,1.86-3.39,2.8.61.5,1.14.95,1.68,1.4.22.17.44.35.66.52,0,0,0-.02,0-.02.12.11.23.21.35.32-.24.42-.39,1-.75,1.24-1.08.72-2.24,1.31-3.38,1.95-.07.09-.14.19-.21.29.08.04.15.08.23.12.92.61,1.85,1.21,2.77,1.82.12.3.25.61.37.91-.95.24-1.89.49-2.84.73-.32.09-.63.17-.95.26-1.49.4-2.98.79-4.47,1.19-.39.11-.79.21-1.18.32Z"/><path class="cls-4" d="M48.92,47.41c0,.09-.02.17-.04.25-2.54-.05-5.09-.3-7.6-.06-.99.09-1.9,1.24-2.81,1.96-.09.07.09.47.12.72.08.85.47,1.83-.87,2.16.47.71.94,1.42,1.38,2.08-.44.48-.89,1.12-1.49,1.55-.61.44-1.35.83-2.09.96-2.62.47-5.26.81-7.89,1.21-.88-.74-1.77-1.47-2.58-2.15.03-.27,0-.41.06-.47,2.45-2.42,4.9-4.86,7.39-7.24.48-.46,1.17-.68,1.77-1.02.22,0,.43,0,.65,0,3.57-.03,7.14-.08,10.71-.09,1.1,0,2.2.09,3.3.14Z"/><path class="cls-4" d="M36.57,84.28c-.23,1.45,1.03.69,1.85,1.19-.48.71-.93,1.38-1.31,1.93.4.3,1.41.71,1.44,1.17.04.72-.59,1.47-.93,2.19.75.34,1.53.69,2.58,1.17-1.02.8-1.79,1.4-2.43,1.9-.18.8-.34,1.49-.52,2.25.8.41,2.27-.67,2.36,1.43-.75,1.01-2.36.6-3.68,1.01.67-1.99.2-3.61-1.38-4.78-.08-.07-.16-.13-.25-.2-1.05-.68-2.1-1.36-3.15-2.05-.55-.22-1.1-.43-1.66-.65-.07-.08-.15-.12-.26-.12-.34-.13-.68-.27-1.02-.41-.08-.06-.17-.09-.27-.09-.11-.07-.23-.13-.34-.2-.57-.26-1.13-.52-2.01-.93,3.09-3.36,7.3-3.52,10.99-4.82Z"/><path class="cls-4" d="M148.1,102.7c.49-.39.95-1.08,1.46-1.11,4.94-.31,9.89-.59,14.84-.71,4.55-.11,9.11.12,13.66-.08,3.08-.14,6.14-.77,9.21-1.17.41-.05.83-.05,1.25-.08-.03.19-.07.37-.1.56-.74.92-1.47,1.83-2.21,2.74-2.8-.03-5.6-.08-8.41-.09-9.9-.03-19.8-.04-29.69-.06Z"/><path class="cls-1" d="M110.59,102.87c.8-.33,1.59-.93,2.39-.95,4.97-.11,9.93-.05,14.9-.11,4.47-.06,8.94-.18,13.41-.31.99-.03,1.66.17,1.76,1.28-.11.06-.22.13-.33.19-9.53.01-19.05.02-28.58.03-.47,0-.95,0-1.43,0-.48,0-.96,0-1.44,0-.2.01-.4.03-.6.04l-.1-.06v-.11Z"/><path class="cls-4" d="M190.05,97.25c-2.95.16-5.9.32-8.85.49.25-2.16-1.98-1.29-2.41-2.06.5-1.19.92-2.18,1.33-3.17.11-.07.21-.14.32-.21,1.5.37,3,.75,4.51,1.12.32.09.63.17.95.26.65.19,1.28.47,1.94.54,1.13.12,1.79.65,1.99,1.77.07.21.15.42.22.64,0,.21,0,.43,0,.64Z"/><path class="cls-7" d="M77.27,102.93c.6-.11,1.2-.3,1.8-.32,7.71-.21,15.42-.54,23.13-.5,2.16.01,4.58-.69,6.61.84-.5.1-1,.28-1.5.28-9.52.02-19.04.02-28.55,0-.5,0-.99-.2-1.49-.31Z"/><path class="cls-7" d="M148.1,102.7c9.9.02,19.8.03,29.69.06,2.8,0,5.61.06,8.41.09-.47.13-.95.38-1.42.38-11.78.02-23.55.02-35.33,0-.5,0-1-.2-1.5-.31-.03-.12.02-.19.14-.23Z"/><path class="cls-4" d="M180.91,69.48c-.04-1.66-.07-3.32-.11-4.98,2.61.74,5.22,1.47,7.82,2.21v.45c-2.58.77-5.15,1.55-7.71,2.32Z"/><path class="cls-4" d="M180.93,53.72c-.02-1.62-.04-3.24-.07-4.86.81.12,1.64.17,2.43.37.7.17,1.35.51,2.34.9-1.21,1.02-2.02,1.71-2.84,2.41-.18.12-.35.25-.53.37-.45.27-.89.54-1.34.82Z"/><path class="cls-5" d="M35.98,77.77c.18.12.35.25.53.37-.66.58-1.49,1.77-1.95,1.64-1.66-.47-2.74,1.15-4.28.89-.33-.06-.75.48-1.13.74-.7-.11-1.4-.21-2.1-.32,0-.18,0-.35-.01-.53,2.98-.93,5.97-1.86,8.95-2.79Z"/><path class="cls-7" d="M54.67,103c2-.06,4-.15,6-.18,3.59-.06,7.18-.09,10.78-.1.35,0,.7.19,1.04.29-5.94,0-11.88,0-17.82,0Z"/><path class="cls-3" d="M180.94,59.64c-.03-.86-.05-1.71-.08-2.57,1.15.39,2.3.78,3.46,1.18l-.04.37c-.84.35-1.69.7-2.53,1.05-.27,0-.54-.02-.81-.03Z"/><path class="cls-5" d="M82.05,47.36c-.1.06-.21.12-.31.18-2.98-.06-5.96-.12-8.94-.18.16-.22.32-.62.48-.62,2.57.03,5.13.1,7.7.2.36.01.71.27,1.07.42Z"/><path class="cls-5" d="M179.21,63.76c-.79-.71-1.57-1.43-2.56-2.33.69-.2,1.14-.33,1.6-.46.32.93.64,1.86.97,2.79Z"/><path class="cls-5" d="M176.35,47.45c-1.38.02-2.76.04-4.14.06.87-.82,3.11-.85,4.14-.06Z"/><path class="cls-5" d="M35.54,82.77c.81.17,1.63.33,2.44.5.03.14.06.27.1.41-.35.16-.7.32-1.06.49-.49-.46-.99-.93-1.48-1.39Z"/><path class="cls-5" d="M179.53,48.39c-.79-.26-1.59-.52-2.38-.78.48-.2.96-.39,1.63-.66.24.47.5.95.75,1.44Z"/><path class="cls-5" d="M27.94,66.57c.63.34,1.26.68,1.89,1.01-1.29.89-1.52-.18-1.89-1.01Z"/><path class="cls-5" d="M176.37,73.68c.31-.52.62-1.04.92-1.55.07.34.14.68.22,1.04-.41.18-.78.35-1.14.51Z"/><path class="cls-7" d="M112.71,103.01c.48,0,.95,0,1.43,0-.48,0-.95,0-1.43,0Z"/><path class="cls-5" d="M180.44,92.28c-.11.07-.21.14-.32.21-.27-.24-.55-.48-.82-.72.39-.11.79-.21,1.18-.32-.01.27-.03.55-.04.82Z"/><path class="cls-5" d="M188.74,89.28c-.12-.3-.25-.61-.37-.91.3.18.6.37.91.55-.18.12-.36.24-.54.36Z"/><path class="cls-5" d="M30.45,60.62c.28.18.57.36,1.08.68-.53.15-.81.23-1.08.31,0-.33,0-.66,0-.99Z"/><path class="cls-5" d="M178.66,60.82c.4-.14.79-.29,1.19-.43,0,1.22-.66.66-1.19.43Z"/><path class="cls-5" d="M27.59,75.99c.42.09.83.19,1.25.28-.42-.09-.83-.19-1.25-.28Z"/><path class="cls-5" d="M29.49,90.84c.55.22,1.1.43,1.66.65-.55-.22-1.1-.43-1.66-.65Z"/><path class="cls-5" d="M28.21,90.32c.34.14.68.27,1.02.41-.76.91-.81.08-1.02-.41Z"/><path class="cls-5" d="M184.95,90.27c.32-.09.63-.17.95-.26-.32.09-.63.17-.95.26Z"/><path class="cls-5" d="M188.99,99.41c.23-.41.46-.83.7-1.24-.23.41-.46.83-.7,1.24Z"/><path class="cls-5" d="M50.84,47.38c-.33-.01-.65-.03-.98-.04,0-.14.01-.28.02-.41h0c.32.15.64.3.96.46Z"/><path class="cls-5" d="M185.9,93.67c-.32-.09-.63-.17-.95-.26.32.09.63.17.95.26Z"/><path class="cls-5" d="M182.27,52.9c.18-.12.35-.25.53-.37.13.17.25.34.38.51-.3-.05-.61-.09-.91-.14Z"/><path class="cls-5" d="M178.89,56.15c-.23-.14-.46-.28-.69-.42.23-.17.46-.34.7-.51,0,.31,0,.61,0,.92Z"/><path class="cls-5" d="M189.36,82.64c-.22-.17-.44-.35-.66-.52.15-.11.3-.22.45-.33.07.28.14.56.21.84Z"/><path class="cls-5" d="M178.25,75.57c-.43-.1-.85-.19-1.28-.29.43.1.85.19,1.28.29Z"/><path class="cls-5" d="M25.67,75.56c.2.04.4.09.61.13-.2-.04-.4-.09-.61-.13Z"/><path class="cls-5" d="M179.84,75.88c-.43-.09-.87-.19-1.3-.28.43.09.87.19,1.3.28Z"/><path class="cls-5" d="M171.57,47.35c-.22.01-.43.03-.65.04.22-.01.43-.03.65-.04Z"/><path class="cls-5" d="M176.34,75.19c-.01-.42-.02-.84-.03-1.26.01.42.02.84.03,1.26Z"/><path class="cls-5" d="M71.86,47.36c-.22.01-.43.02-.65.04.13-.13.26-.25.38-.38.09.11.18.23.26.34Z"/><path class="cls-5" d="M34.91,47.36c-.22,0-.43,0-.65,0,.22,0,.43,0,.65,0Z"/><path class="cls-5" d="M33.94,82.43l.64.2c-.21-.07-.42-.14-.64-.2Z"/><path class="cls-5" d="M31.72,70.48c-.21.08-.42.17-.64.25.21-.08.42-.17.64-.25Z"/><path class="cls-7" d="M110.68,103.05c.2-.01.4-.03.6-.04-.2.01-.4.03-.6.04Z"/><path class="cls-7" d="M30.78,102.02c.45.08.89.15,1.34.23-.45-.08-.89-.15-1.34-.23Z"/><path class="cls-5" d="M188.41,100.11c.03-.19.07-.37.1-.56.17-.05.33-.1.5-.16-.2.24-.4.48-.6.71Z"/><path class="cls-5" d="M190.05,96.61c-.07-.21-.15-.42-.22-.64.07.21.15.42.22.64Z"/><path class="cls-5" d="M25.68,63.52c-.22.09-.43.19-.65.28.22-.09.43-.19.65-.28Z"/><path class="cls-5" d="M179.82,56.51c-.3-.12-.61-.24-.91-.36.3.12.61.24.91.36Z"/><path class="cls-5" d="M180.94,59.64c.27,0,.54.02.81.03-.32.1-.63.21-.95.31.05-.11.09-.23.14-.34Z"/><path class="cls-5" d="M179.8,64.18c-.18-.13-.37-.26-.55-.39.18.13.37.26.55.39Z"/><path class="cls-5" d="M180.77,76.12c-.21-.06-.43-.13-.64-.19.21.06.43.13.64.19Z"/><path class="cls-5" d="M27.94,58.9c.2.15.41.29.61.44-.2-.15-.41-.29-.61-.44Z"/><path class="cls-5" d="M33.69,69.42c.11.1.22.21.33.31-.13.03-.26.06-.39.09.02-.13.04-.27.06-.4Z"/><path class="cls-5" d="M185.6,86.55c-.08-.04-.15-.08-.23-.12.07-.1.14-.19.21-.29,0,.13,0,.27.01.4Z"/><path class="cls-5" d="M30.76,101.38c-.12.08-.23.16-.35.24.12-.08.23-.16.35-.24Z"/><path class="cls-5" d="M180.43,54.23c.13-.09.25-.18.38-.27-.13.09-.25.18-.38.27Z"/><path class="cls-5" d="M180.15,56.68c-.11-.06-.22-.11-.33-.17.11.06.22.11.33.17Z"/><path class="cls-5" d="M180.31,60.25c.16-.09.33-.18.49-.27-.16.09-.33.18-.49.27Z"/><path class="cls-5" d="M30.35,61.66c-.18.07-.36.14-.53.21.18-.07.36-.14.53-.21Z"/><path class="cls-5" d="M29.59,61.93c-.14.07-.27.13-.41.2.14-.07.27-.13.41-.2Z"/><path class="cls-5" d="M180.16,64.37c-.12-.07-.24-.13-.36-.2.12.07.24.13.36.2Z"/><path class="cls-5" d="M27.6,90.03c.11.07.23.13.34.2-.11-.07-.23-.13-.34-.2Z"/><path class="cls-5" d="M177.84,71.7c.13-.11.26-.21.39-.31-.13.11-.26.21-.39.31Z"/><path class="cls-5" d="M177.42,72.03c.15-.12.3-.24.45-.35-.15.12-.3.24-.45.35Z"/><path class="cls-5" d="M25.23,74.02c-.07.08-.14.15-.21.23.05-.1.12-.17.21-.23Z"/><path class="cls-5" d="M24.5,75.03c.08.07.13.15.15.25-.05-.08-.1-.17-.15-.25Z"/><path class="cls-5" d="M139.62,47.15c-.18.01-.36.03-.55.04.18-.01.36-.03.55-.04Z"/><polygon class="cls-5" points="31.55 76.86 31.59 76.81 31.63 76.88 31.55 76.86"/><path class="cls-5" d="M49.88,46.92s-.09-.05-.13-.07c.04.02.09.05.13.07,0,0,0,0,0,0Z"/><path class="cls-5" d="M34.03,77.43c.1-.07.17-.04.24.07-.08,0-.16-.03-.24-.07Z"/><path class="cls-5" d="M35.69,77.8c.07-.08.16-.13.27-.14,0,0-.04.09-.04.09-.07.04-.15.06-.23.05Z"/><path class="cls-5" d="M189.71,82.94c-.12-.11-.23-.21-.35-.32.12.11.23.21.35.32Z"/><path class="cls-7" d="M37.16,102.96c.1.02.19.03.29.05-.1-.02-.19-.03-.29-.05Z"/><path class="cls-7" d="M142.72,102.97c.11-.06.22-.13.33-.19,0,0-.03.09-.03.09-.1.03-.2.07-.29.1Z"/><path class="cls-7" d="M35.54,102.73c.11.01.22.03.33.04-.11-.01-.22-.03-.33-.04Z"/><path class="cls-7" d="M33.01,102.34c.1.02.2.03.3.05-.1-.02-.2-.03-.3-.05Z"/><path class="cls-5" d="M30.34,101.69c.05.11.1.21.15.32-.05-.11-.1-.21-.15-.32Z"/><path class="cls-5" d="M31.85,100.8c-.15.08-.3.17-.46.25.15-.08.3-.17.46-.25Z"/><path class="cls-5" d="M33.26,100.1c-.08.05-.16.1-.24.15.06-.08.14-.13.24-.15Z"/><path class="cls-5" d="M34.38,99.52c-.14.09-.28.18-.43.27.14-.09.28-.18.43-.27Z"/><path class="cls-5" d="M34.29,93.54c.08.07.17.13.25.2-.08-.07-.17-.13-.25-.2Z"/><path class="cls-8" d="M176.84,77.45c-2.38,1.03-.36,2.92-1.3,4.25.47.14.82.24,1.23.37-.28.37-.54.71-.82,1.07,1.47,2.15,1.18,4.57.9,7.34,1.47,1.83.97,2.86-.44,3.7,1.02,1.25.67,2.25-1.19,3.27-.41.22-.9.39-1.35.4-1.92.02-3.83-.52-5.78-.04-.29.07-.74-.83-1.16-.87-1.14-.12-2.31-.09-3.45.03-.55.06-1.06.45-1.8.78.55.12.91.2,1.26.28-.02.09-.03.17-.05.26-1.04-.13-2.08-.27-3.41-.44.88-.31,1.46-.52,2.04-.72-.01-.13-.03-.25-.04-.38-1.72.18-3.45.36-5.26.55.16.27.29.52.49.86-.93,0-1.81.1-2.67-.02-1.43-.21-2.85-.58-4.27-.85-.91-.17-1.42-.59-1.36-1.6.15-2.62.32-5.24.36-7.86.02-1.35-.24-2.7-.33-4.06-.02-.36.09-.72.16-1.08.14-.73.43-1.47.39-2.19-.08-1.37.52-2.04,1.84-2.03,1.47.01,2.94-.1,4.4-.2,1.83-.12,3.66-.24,5.47-.44,1.26-.14,2.67.34,3.71-.86.15-.17.66-.2.91-.08,2.59,1.17,5.27-.19,7.89.32,1.1.21,2.25.16,3.64.25Z"/><path class="cls-8" d="M117.6,97.76c.3.17.62.35.93.53-.03.07-.07.15-.1.22-.72-.21-1.55-.24-2.12-.65-1.09-.78-2.14-.95-3.43-.62-1.04.27-2.02-1.09-1.91-2.41.1-1.24.2-2.48.18-3.72-.05-3.09-.19-6.18-.2-9.27,0-.39.54-.88.95-1.16.32-.22.81-.26,1.22-.28,3.22-.15,6.43-.29,9.65-.39,4.12-.13,8.25-.17,12.37-.33,1.97-.08,3.93-.35,6.06-.55.27,3.61.51,6.93.77,10.26.13,1.68.3,3.37.46,5.05.13,1.32-.84,3.24-1.94,3.35-1.08.11-2.19-.22-3.3-.28-2.37-.13-4.75-.21-7.13-.33-1.96-.09-4.08-.72-5.84-.17-2.19.68-4.35-.92-6.63.76Z"/><path class="cls-8" d="M118.28,76.77s-.4.26-.82.31c-1.28.16-2.48.67-3.88.16-1.8-.65-2.44-1.8-1.88-3.69.32-1.06.28-2.23.41-3.35.28-2.46.61-4.92.81-7.38.21-2.58,1.1-3.43,3.66-3.54,5.81-.23,11.61-.53,17.42-.82,1.46-.07,2.92-.31,4.39-.32.79,0,1.58.31,2.47.5-1.06,1.41-1.36,2.65-.5,4.1.26.43.09,1.12.12,1.69.12,3.18.21,6.36.37,9.54.09,1.89-.58,2.42-2.38,2.1-.71-.13-1.54.25-2.28.52-.88.33-1.59.6-2.65.13-.93-.41-2.19-.11-3.3-.07-.85.03-1.7.19-2.55.2-1.28.01-2.57-.07-3.85-.08-1.69-.02-3.38,0-5.56,0Z"/><path class="cls-8" d="M41.21,75.21c.93-.56,1.86-1.13,3.04-1.84.24-2.13.48-4.53.78-6.93.14-1.12.36-2.24.62-3.34.08-.34.39-.77.69-.87.69-.23,1.44-.36,2.17-.39,5.7-.21,11.41-.38,17.11-.57,1.35-.04,2.7-.11,4.05-.11,2.23,0,3.17,1.58,2.17,3.61-.69,1.38-.37,3.08.87,4.4-1.26.39-1.29,1.15-1.16,2.37.18,1.68-.12,3.43-.37,5.12-.2,1.32-2.09,2.64-3.41,2.46-.87-.12-1.7-.48-2.56-.66-.43-.09-.99-.19-1.32.01-1.92,1.15-3.89.5-5.85.3-1.25-.13-2.49-.29-3.74-.44-.03.15-.06.29-.08.44.6.1,1.19.21,1.79.31v.42c-.74,0-1.58.21-2.23-.04-2.38-.92-4.66-.27-6.89.35-2.08.58-2.78.26-2.8-1.87,0-.79,0-1.58,0-2.6h-2.73s-.1-.1-.15-.15Z"/><path class="cls-8" d="M103.01,77.83c-1.36-.12-3.02-.34-4.69-.38-.8-.02-1.61.42-2.42.44-1.24.03-2.48-.15-3.72-.17-.75-.01-1.51.18-2.26.18-1.77-.01-3.55-.14-5.32-.13-1.71,0-3.43.03-5.13.24-1.16.14-1.66-.49-1.66-1.33-.02-1.72.19-3.44.35-5.16.21-2.21.45-4.42.71-6.62.13-1.11.3-2.23.53-3.33.05-.23.43-.48.71-.55.6-.16,1.23-.29,1.85-.31,4.81-.14,9.62-.23,14.43-.39,2.95-.1,5.89-.29,9.24-.45-.14,1.98-.29,3.65-.35,5.32-.07,1.63-.05,3.27-.08,4.9-.01.7-.1,1.4-.1,2.1,0,.4,0,.85.17,1.19.62,1.19.22,2.54-.99,3.3-.4.25-.7.64-1.26,1.16Z"/><path class="cls-8" d="M106.01,81.09c-1.2,1.76-.4,4.34.52,5.65-.11,1.6-.31,2.88-.24,4.13.05.95.55,1.87.65,2.82.11.99.15,2.05-.13,2.97-.13.4-1.13.66-1.76.73-.38.04-.81-.42-1.19-.23-1.14.11-2.29.34-3.43.3-3.71-.12-7.39-.46-11.12,0-1.79.22-3.66-.22-5.5-.28-.89-.03-1.8.05-2.68.21-2.77.5-3.64-.37-3.44-3.21.06-.85-.67-1.74-.64-2.6.07-2.23.36-4.45.54-6.68.02-.3-.06-.62-.13-.92-.28-1.26.43-2.22,1.69-2.25,5.13-.12,10.26-.2,15.39-.37,3.27-.11,6.53-.37,9.8-.53.5-.02,1.01.16,1.69.28Z"/><path class="cls-8" d="M153.35,57.3c1.54.06,3.08.23,4.6.16,3.05-.14,6.1-.4,9.14-.64,1.36-.11,2.72-.38,4.08-.41.79-.02,1.58.3,2.17.42.05.93.08,1.57.11,2.3h1.56c-.46.78-.93,1.47-1.29,2.21-.65,1.37.85,1.6,1.37,2.34-1.26,1.12-1.18,2.1.1,3.36.3.3.36.85.58,1.38-.54.14-1.02.27-1.81.48.72.68,1.27,1.2,1.86,1.76-.21.3-.44.63-.71,1.01.39.16.72.3,1.04.43-1.35,3.4-4.47,2.3-6.93,2.83-.97.21-1.98.34-2.86.75-.86.4-1.47,1.16-2.15-.29-.17-.36-1.42-.47-2.05-.29-.91.27-1.71.91-2.74,1.5.07-.53.12-.87.22-1.62-1.9.28-3.69.57-5.48.8-1.33.18-2.68.48-3.98.33-.47-.06-1.03-1.27-1.12-2-.12-1,.17-2.05.3-3.08.09-.68.28-1.35.29-2.03.03-3.06.02-6.12.01-9.18,0-1.65.52-2.18,2.2-2.35.52-.05,1.02-.3,1.52-.46-.02.09-.04.19-.05.28Z"/><path class="cls-8" d="M67.68,98.42c-.53-.08-1.17-.18-1.82-.29-2.58-.45-5.12-.48-7.58.63-.25.11-.69.1-.91-.05-1.75-1.17-3.55-.94-5.52-.62-2,.33-4.09.17-6.13.16-.22,0-.61-.39-.62-.61-.06-1.29-1.29-2.45-.43-3.83.05-.08.07-.21.06-.31-.23-1.95-.53-3.9-.66-5.86-.09-1.35-.27-2.86.23-4.03.25-.59,1.89-.75,2.93-.82,2.78-.19,5.56-.21,8.34-.32.2,0,.4-.17.61-.17,4.92-.12,9.84-.24,14.76-.32.32,0,.95.41.93.54-.33,1.98,1.18,3.77.37,5.92-.45,1.19.21,2.82.41,4.24.16,1.14.43,2.26.54,3.4.14,1.49-1.11,1.43-2.04,1.65-1.13.27-2.27.45-3.46.69Z"/><path class="cls-8" d="M41.36,75.35c-.11.02-.22.04-.34.06.06-.07.13-.14.19-.21.05.05.1.1.15.14Z"/></svg>