<?xml version="1.0" encoding="UTF-8"?><svg id="Layer_1" xmlns="http://www.w3.org/2000/svg" viewBox="0 0 217.04 127.57"><defs><style>.cls-1{fill:#f28fa1;}.cls-1,.cls-2,.cls-3,.cls-4,.cls-5{stroke-width:0px;}.cls-2{fill:#bd7b9d;}.cls-3{fill:#f1f5f6;}.cls-4{fill:#fcf5f3;}.cls-5{fill:#2e428f;}</style></defs><path class="cls-1" d="M61.2,104.52c-1.92-.01-3.83-.03-5.75-.04.72-.56,1.38-1.21,2.17-1.65.46-.26,1.11-.2,1.67-.28-.02.03-.05.07-.07.1l.05-.12c.87-.8,1.74-1.6,2.69-2.47-.12-.35-.39-.81-.4-1.26,0-.46.26-.93.41-1.39.1.04.2.09.3.13.06.37.12.73.21,1.33.33-.72.51-1.23.79-1.68.35-.57,1.42-1.03.19-1.76.27-.42.54-.84.92-1.44.27.67.42,1.03.57,1.38,1.45-.63,2.3-2.42,1.96-3.98h.01c-.1-.62-.21-1.26-.31-1.89l-.03-.02c.05-.47,0-.96.15-1.39.4-1.12,1.15-2.17,1.29-3.31.25-2.06.55-4.26.11-6.24-1.2-5.4-3.8-10.04-8.62-13.12-1.18-.76-2.55-1.24-3.67-2.08-4.2-3.13-9.08-3.29-13.98-3.33-1.38,0-2.77.24-4.39.39.25-1.46.47-2.69.68-3.93.68-.51,1.35-1.01,2.03-1.52.08-.07.15-.13.23-.2,2.33-1.71,4.64-3.46,7.01-5.13,1.58-1.12,3.24-2.14,4.86-3.21.1-.08.2-.17.3-.25.12-.05.24-.1.35-.14.12.02.18-.03.19-.16.35-.25.7-.5,1.05-.74.28-.1.57-.2.85-.3.64.26,1.26.56,1.91.77,3.48,1.14,6.72,2.65,9.77,4.77,4.43,3.08,8.28,6.74,11.54,10.95,2.35,3.02,4.21,6.44,6.09,9.8,1.26,2.25,2.08,4.73,3.25,7.03,1.42,2.78,2.96,5.52,4.56,8.21.93,1.56,2.07,3,3.12,4.49.64.78,1.27,1.57,1.93,2.34.83.95,1.7,1.88,2.55,2.82.11-.04.21-.07.32-.11h-.01c0,.13,0,.26-.01.4.09.08.18.16.27.25l.04.03c.24.18.47.37.71.55,2.97,1.52,5.81,3.45,8.94,4.44,3.78,1.2,7.81.95,11.72-.02,4.1-1.02,7.83-2.79,11.2-5.34.42-.38.84-.76,1.26-1.14.53-.66,1.08-1.3,1.58-1.98,3.24-4.4,4.81-9.55,5.24-14.8.73-8.88.79-17.83,1.06-26.74.1-3.26.02-6.53.02-9.87-1.3-.7-1.54-2.31-.42-4.53.44-.2,1.05-.71.99-.82-1.06-1.78.15-3.3.47-4.91,1.58.4,3.19.7,4.72,1.22.98.33,1.85.99,2.77,1.5.14.09.28.18.41.27.76.32,1.52.64,2.28.96.03.13.1.17.22.13,5.41,2.19,10.83,4.38,16.53,6.68,2.47,6.87,5.1,14.21,7.74,21.55.09.14.17.28.26.42,1.42,4.11,2.84,8.22,4.26,12.33.07.12.15.24.22.36.86,2.42,1.71,4.85,2.57,7.27.09.15.18.3.27.45.66,2,1.28,4.01,1.98,5.99,1.53,4.34,3.11,8.66,4.65,12.99.1.29.06.63.08.94-.2.02-.4.04-.6.06-6.7,0-13.39,0-20.09,0-.1-.03-.2-.03-.31,0-.13-.03-.25-.06-.38-.1.24-.53.36-1.15.72-1.58,1.69-1.99,3.07-4.08,3.01-6.83,0-.14.25-.28.37-.44,1.11-1.48,2.03-3.02,1.78-4.99-.02-.19-.05-.41,0-.59.5-1.47,1.21-2.91,1.48-4.42.32-1.8.19-3.68.38-5.5.17-1.65-.06-4.21-.66-5.22.04-.11.08-.22.12-.32-.04-.14-.08-.27-.11-.41-.03-.1-.08-.18-.17-.24,0-.22-.01-.44-.02-.65-.01-.56.05-1.14-.06-1.68-.2-1.03-.5-2.05-.76-3.07-.36-.35-.84-.65-1.04-1.08-.3-.62-1.57-.77-.93-1.85.31-.07.61-.14.92-.21-.17-.34-.34-.68-.5-1.01,0,0-.01,0-.01,0-.35-.64-.7-1.29-1.05-1.93-.16-.31-.33-.62-.49-.93-.74-1.31-1.49-2.61-2.23-3.92-.08.07-.17.14-.25.21v1.85c-.5.05-.89.09-1.29.12.1.25.17.7.31.72,1.6.24,1.01,1,.54,1.86-.29.55-.34,1.23-.53,1.99.56-.22,1.02-.41,1.48-.59.47,1.69.14,2.28-.86,3.18-.5.45-.5,1.47-.73,2.23-.26.47-.84,1.03-.74,1.39.46,1.59,1.11,3.12,1.64,4.54-.03.04.17-.24.37-.52.05.55.29,1.16.13,1.64-.84,2.52-.66,3.16,1.89,4.56v-2.75c.08-.06.42-.35.92-.76-.57-.27-1.07-.49-1.6-.74.02-.95.07-1.96-1.35-1.93.21-.22.44-.43.63-.68.14-.18.23-.4.34-.6,1.01.53,2.02,1.06,3.26,1.71-.6.37-.94.59-1.32.82,1.4,1.3,1.45,3.11.44,5.16-1.72.75-3.13,1.38-4.56,2.01.16-1,.33-1.99.49-2.98l-.47-.28c-.39.44-1.1.87-1.1,1.31,0,1.55.23,3.1.37,4.65l-.89,1s0,0,0,0c-.05.01-.14.02-.14.04-.01.08,0,.17,0,.25.02.21.04.43.07.64,0,.21.01.42.02.63.12.1.23.27.36.29,1.26.2,2.52.23,1.65,2.19-.28.62.25,1.6.41,2.42l-.33.35c-.21.24-.43.48-.69.77.08.12.36.57.64,1.01-.47.11-.94.2-1.41.32-.4.1-.82.36-1.19.31-.29-.04-.53-.45-.99-.88.72-.19,1.1-.29,1.48-.39.04-.14.07-.27.11-.41-.71-.24-1.42-.49-2.54-.87.8-.3,1.27-.5,1.76-.65.5-.15,1.47-.26,1.47-.35-.04-.73-.08-1.56-.46-2.15-.44-.69-1.3-.99-1.99-.26-.42.45-.62,1.13-.91,1.7-.79,1.57-1.59,3.14-2.34,4.64h3.3c-.28.43-.65.49-.97.64-1.42.69-3.63-.38-4.14,1.4.32,1.5.55,2.55.72,3.36-.54.34-.89.62-1.29.82-.59.29-1.38.91-1.79.73-1.46-.65-2.11.16-2.78,1.15-.69.03-1.37.08-2.06.08-30.32,0-60.64,0-90.97,0-.69,0-1.38.03-2.06.05-.1-.04-.2-.04-.31,0ZM170.25,57.5c.19-.2.38-.39.57-.59-.27-.29-.52-.59-.81-.86-.24-.22-.69-.34-.76-.58-.38-1.39-1.29-.94-2.23-.62,1.07.88,2.15,1.77,3.22,2.65Z"/><path class="cls-1" d="M65.67,36.95c2.83-1.95,5.52-4.21,9.21-4.34.21-.06.42-.12.63-.18,3.3-.67,6.59-1.33,9.89-2,.21-.06.42-.13.64-.19.16.03.32.07.48.1.17.47.34.95.52,1.46-1.08,1.42-1.36,2.95-.54,4.66.67,1.4,1.44,2.79,1.83,4.28.67,2.55,2.31,4.34,4.2,5.94.45.38,1.63.61,1.93.33,2.1-1.98,4.05-4.11,5.81-5.94-1.22-1.93-2.41-3.89-3.68-5.8-1.78-2.68.63-6.28,3.53-6.51.63-.05,1.22-.7,1.82-1.08.44-.1.87-.19,1.31-.29,2.42-.16,4.81.07,6.61,1.85.7.68,1.3,1.9,1.24,2.82-.14,2-.73,3.98-1.15,5.98.23.08.55.2,1.27.47-1.05.62-1.79,1.07-2.64,1.58,0,.12.03.51.04.74-.81.34-1.48.63-2.16.92.05.16.1.31.14.47h2.39c0,.16-.02.32-.03.47-.59.09-1.18.17-1.83.26.12.51.21.9.3,1.3-.22-.1-.45-.2-.67-.31-.76-.62-1.36-.52-1.8.17.34.45.59.77.83,1.1h-.01c-.92.38-1.83.75-2.85,1.16.74,2.59,1.57,5.49,2.44,8.53,7.45-3.15,12.22-8.31,14.36-15.77.57-1.98.69-4.09.97-6.15.02-.14-.39-.34-.59-.51,0,0,.02.03.02.03.07-.27.1-.57.23-.8.66-1.21-.21-3.9-1.51-4.62l.02.02c-.44-2.69-.45-2.72-3.08-2.2-4.18.82-8.35,1.67-12.53,2.51-.44.1-.88.19-1.31.29-.73-.09-1.46-.19-2.19-.28.11-.06.21-.12.32-.18.63-.09,1.26-.19,1.89-.28.12-.06.24-.13.37-.19,3.27-.65,6.54-1.3,9.81-1.96,0,0,.16,0,.16,0,0,0,.15-.05.15-.05,1.17-.23,2.34-.47,3.51-.7.21-.07.43-.13.64-.2,2.03-.34,4.05-.68,6.08-1.02.21.09.41.18.62.27,3.29,1.31,6.58,2.63,9.87,3.94.03.17.06.33.09.5-.25,1.29-.6,2.57-.72,3.87-.65,6.93-1.42,13.86-1.81,20.81-.44,7.87-.36,15.76-.85,23.62-.2,3.14-.3,6.49-2.38,9.25-.25.33-.09.98-.12,1.48,0,0,.09.09.09.09-.12.09-.24.18-.35.28-.23.19-.46.38-.69.57,0,0-.02.03-.02.03-.09.1-.18.21-.27.31,0,0-.01.01-.01.01-.08.13-.16.25-.24.38,0,0,0,0,0,0-.1.12-.2.23-.29.35v.03c-.12-.04-.25-.07-.38-.11-1.8.74-3.61,1.48-5.41,2.22l-.04.05c-2.64.22-5.28.44-7.8.64.06.04.34.26.66.51-.39.14-.72.26-1.05.38-2.43.35-2.3-2.41-3.75-3.21-.06.59-.11,1.13-.16,1.67-.14-.29-.33-.57-.42-.87-.17-.58-.28-1.17-.41-1.73-.92.51-1.45.8-2.24,1.24-.37-.27-1-.73-1.53-1.12.34-.52.54-.83.71-1.09.64.13,1.33.27,2.03.41l.16-.4c-.94-.74-1.82-1.58-2.83-2.2-.92-.56-.57-2.34-2.17-2.18-.05,0-.17-.34-.19-.54-.06-.46.06-1-.13-1.39-.81-1.6-1.76-3.14-2.56-4.75-1.94-3.94-3.8-7.92-5.76-11.84-.25-.51-.94-.8-1.43-1.19-.07-.07-.14-.14-.21-.2-.06-.31-.02-.68-.18-.92-2.47-3.66-4.89-7.35-7.5-10.91-1.09-1.49-2.63-2.63-3.91-3.99-3.89-4.15-8.51-7.25-13.62-9.68.06-.17.12-.33.19-.5Z"/><path class="cls-5" d="M65.49,37.45c5.11,2.43,9.73,5.53,13.62,9.68,1.27,1.36,2.82,2.5,3.91,3.99,2.61,3.56,5.03,7.25,7.5,10.91.16.24.13.61.18.92,0,.12,0,.24-.01.36.07-.05.14-.11.22-.16.49.39,1.18.68,1.43,1.19,1.96,3.93,3.82,7.9,5.76,11.84.79,1.61,1.75,3.14,2.56,4.75.19.39.08.92.13,1.39.02.19.14.54.19.54,1.6-.16,1.25,1.61,2.17,2.18,1.01.62,1.89,1.46,2.83,2.2l-.16.4c-.7-.14-1.39-.28-2.03-.41-.17.27-.37.57-.71,1.09.53.39,1.16.85,1.53,1.12.79-.44,1.32-.73,2.24-1.24.13.57.24,1.16.41,1.73.09.31.28.58.42.87.03.21.05.43.08.64-.05.25-.1.5-.17.87-1.02-.47-1.99-.89-2.93-1.36-.54-.27-1.04-.62-1.56-.93-.17-.17-.33-.34-.49-.5-.15-.17-.3-.35-.45-.52-.05.07-.1.15-.16.22.21.1.42.19.63.29.09.23.17.46.26.68.19.31.32.7.59.92,2.06,1.67,4.52,2.25,7.09,2.5.32-.21.64-.41.96-.62.24.05.48.1.72.15,0,0,.03-.01.03-.01,1.02,1.5,1.44,1.59,3.27.19-.91-.2-1.82-.4-2.74-.59-.21-.01-.42-.02-.63-.03-.21-.11-.42-.23-.63-.34h.05c.33-.12.66-.24,1.05-.38-.32-.24-.6-.47-.66-.51,2.52-.21,5.16-.43,7.8-.64.06.06.11.12.17.17,0,0,.06-.06.1-.09-.07-.04-.15-.09-.22-.13,1.8-.74,3.61-1.48,5.41-2.22-.69.75-1.39,1.5-2.17,2.35,2.04.65,3-.43,3.86-1.51-.42-.24-.86-.48-1.3-.73,0,0,0-.03,0-.03.1-.12.2-.23.29-.35,0,0,0,0,0,0,.08-.13.16-.25.24-.38,0,0,.01-.01.01-.01.09-.1.18-.21.27-.31,0,0,.02-.03.02-.03.23-.19.46-.38.69-.57.12-.09.24-.18.35-.28.1-.12.19-.23.29-.35.04-.09.07-.18.11-.27-.05.07-.1.15-.15.22-.11.1-.23.2-.34.29.03-.5-.13-1.14.12-1.48,2.08-2.76,2.18-6.11,2.38-9.25.49-7.86.41-15.76.85-23.62.39-6.95,1.16-13.88,1.81-20.81.12-1.3.47-2.58.72-3.87.71.14,1.42.27,2.14.41.13.11.27.21.4.32-.47,2.71-.94,5.42-1.4,8.13.53-.75,1-1.26,2.04-.69-1.21,2.51-3.11,4.85-2.71,8.02-.13.06-.51.25-.9.44.18.2.37.4.55.6.25-.1.5-.2.97-.38.08,2.26-2.14,4.08-.63,6.62.41-.63,1.01-1.13,1-1.6-.05-1.48,1.44-2.88.25-4.41-.04-.05.05-.2.07-.3.25-1.42.5-2.84.74-4.25.41,1,.59,2.01.58,3.02-.01,1.29-.22,2.57-.24,3.86,0,.33.41.66.71,1.09.22-.36.33-.49.38-.63,1.03-2.98-.17-6.18.92-9.16.07-.18-.02-.42,0-.62.16-1.22.24-2.47.54-3.66.23-.88.76-1.67,1.13-2.45.04.32.09.77.15,1.21.06,0,.11,0,.17-.01.03-.63.06-1.25.08-1.66.72-.24,1.31-.44,1.9-.64.1.02.2.05.3.08.11.09.22.18.33.26.13.08.25.16.38.24-.33,1.61-1.53,3.13-.47,4.91.06.1-.56.61-.99.82-1.12,2.23-.88,3.83.42,4.53,0,3.34.08,6.61-.02,9.87-.28,8.92-.33,17.86-1.06,26.74-.43,5.25-1.99,10.4-5.24,14.8-.5.68-1.05,1.32-1.58,1.98-.19-.38-.37-.77-.56-1.15-1.22.46-.97,1.38-.7,2.3-3.37,2.55-7.1,4.32-11.2,5.34-3.91.97-7.94,1.22-11.72.02-3.13-.99-5.97-2.93-8.94-4.44-.24-.18-.47-.37-.71-.55,0,0-.04-.03-.04-.03.02-.09.01-.17-.02-.25.08-.08.15-.16.23-.24.24.03.47.06.84.1-.25-.92-1.58-1.35-.77-2.4-.28-.1-.56-.22-.85-.31-.29-.08-.7-.03-.86-.21-.73-.81-1.39-1.69-2.08-2.54-.27-.33-.54-.66-.8-.99-.24.38-.48.77-.71,1.15-1.05-1.49-2.19-2.93-3.12-4.49-1.6-2.69-3.14-5.42-4.56-8.21-1.18-2.3-1.99-4.79-3.25-7.03-1.88-3.36-3.74-6.78-6.09-9.8-3.26-4.2-7.11-7.87-11.54-10.95-3.04-2.11-6.29-3.63-9.77-4.77-.65-.21-1.27-.51-1.91-.77-.1-.19-.2-.38-.3-.57l1.37-.98c.13-.09.26-.17.39-.26.3-.22.6-.43.9-.65.13-.1.25-.19.38-.29,0,0-.03.03-.03.03.19-.13.39-.27.58-.4h0c.1-.05.2-.1.3-.14,1.65.65,3.29,1.3,5.01,1.98,0-.01.19-.27.47-.65.33.78.59,1.38.82,1.93.55-.33.95-.58,1.38-.8.01,0,.33.36.3.52-.17,1.05.34,1.48,1.2,2.07,1.1.75,2.41,1.93,2.59,3.09.19,1.22.91,1.52,1.55,2.33.41-.45.74-.81,1.17-1.29-.67-.45-1.23-.75-1.68-1.16-.49-.45-.87-1.01-1.3-1.52.02-.55-.22-.99-.53-1.38-.76-.95-1.43-2.04-2.37-2.77-1.25-.97-2.65-1.85-4.13-2.41-1.31-.49-2.8-.49-4.22-.71.25-.2.49-.4.74-.61.2-.14.39-.28.59-.42.23-.17.47-.33.7-.5.14-.1.27-.19.41-.29,0,0,.07-.02.07-.02.07,0,.11-.04.11-.11.63-.03,1.25-.05,1.88-.08.44.45.86.92,1.34,1.32.09.08.45-.03.58-.16.07-.07-.03-.39-.13-.55-.44-.72-.91-1.42-1.37-2.13,0,0-.03.03-.03.03.57.05,1.14.09,1.71.14ZM82.53,59.57l-.05-.07.06.06c.85.85,1.7,1.7,2.55,2.54.27.71.55,1.42.82,2.13.13-.16.27-.33.4-.49.3.1.84.17.86.32.25,1.92.63,3.7,2.76,4.5.22.08,0,1.04.24,1.43.86,1.35,1.84,2.63,2.98,4.22-.32-1.22-.72-2.2-.79-3.2-.09-1.19-1.14-1.81-1.32-3.04-.26-1.81-1.19-3.52-1.86-5.27-.04-.1-.24-.14-.43-.25-.03.44-.06.79-.09,1.15-.58-.38-.79-.9-1.11-1.33-.46-.61-1.01-1.17-1.52-1.74l-.06-.09.07.07c-.12.66.92,2.03-.98,1.61-.12-1.57-1.37-2.02-2.54-2.55ZM89.55,75.79c-.4.96.32,2.69,1.76,3.55-.47-1.67-.85-3.03-1.23-4.39-.1,0-.2.02-.3.03-.08.28-.17.56-.25.84l.02-.02ZM134.17,76.81l-.12.05c.04.06.08.11.12.17.23.02.46.03.69.05-.04.52,0,1.06-.14,1.55-.2.68-.53,1.33-.81,1.99.12.05.25.1.37.16.3-.61.45-1.43.93-1.8.95-.73.55-1.29.05-1.95,1.08-1.71-.46-2.71-1.15-3.95-.13.47-.04.91-.02,1.35.04.79.05,1.59.07,2.38ZM137.33,65.96c.1,0,.2,0,.29,0,.22-1.16.75-2.36.58-3.46-.26-1.7.41-2.89,1.33-4.1,1.2-1.57.94-3.09-.65-4.15-1.04,1.28,1.47,2.99-.91,4.48-.17-1.33-.31-2.4-.45-3.48-.11,0-.21,0-.32-.01v6.77c-.19,0-.38,0-.57,0-.07-1.06-.13-2.13-.21-3.39-2.13,1.79-1.62,3.56-.64,5.34.24.43.63.79,1.03,1.28.19-.5.26-.7.33-.9.06.02.13.03.19.05v1.56ZM132.68,70.14c-.37-.55-.51-.76-.7-1.04-.28,2.63-.55,5.17-.82,7.71l.32.1c.75-2.47,1.5-4.95,2.25-7.42.11.03.21.06.32.09.09.53.19,1.05.28,1.58h.48c0-.73.12-1.48-.04-2.17-.13-.59-.71-1.11.26-1.51.2-.08.4-.58.33-.79-.33-.98-.76-1.93-1.25-3.11-.11.72-.18,1.17-.24,1.62-.09-.01-.18-.03-.28-.04-.4-1.31-.79-2.63-1.19-3.94-.16.02-.31.04-.47.06.73,1.26.02,2.64.88,3.94.6.91,1.77,1.94.23,3.08-.16-.19-.32-.39-.71-.87.13,1.02.21,1.67.34,2.71ZM135.55,51.73c-.61,1.72-2.04,3.24-1.12,5.13.05.1-.06.34-.17.43-1.49,1.23-.89,2.9-.82,4.46.46-.77.59-1.6.79-2.42.07-.28.3-.53.47-.79.43-.67,1.2-1.33,1.23-2.02.06-1.59-.23-3.19-.38-4.79ZM85.56,67.73c-.09.03-.18.07-.27.1.61.67,1.22,1.33,2.01,2.2-.11-3.21-2.07-5.26-3.52-7.66-.26.4-.47.9-.31,1.19.45.82,1.12,1.51,1.56,2.33.3.55.36,1.22.53,1.84ZM94.83,75.49c1.49,2.61,2.94,5.16,4.46,7.81.51-1.99-2.39-6.95-4.46-7.81ZM138.44,69.96c-1.2,1.84-1.74,3.41-.86,5.34,1.21-1.7,1.31-3.34.86-5.34ZM134.21,92.7c.66-.47,1.19-.85,1.85-1.33-2.63-.19-.08-1.6-.89-2.24-.65,1.16-1.57,2.24-.97,3.56ZM140.76,65.48c.65-1.67.74-2.83-.16-3.87-.19.03-.37.06-.56.08.21,1.12.42,2.24.71,3.79ZM130.95,78.38c-.17-.07-.35-.15-.52-.22-.23,1.19-.45,2.38-.69,3.62,1.4-.09,1.44-.19,1.21-3.39ZM66.85,40.37c.05-.07.11-.14.16-.21-.26-.1-.51-.2-.77-.29-.02.04-.03.09-.05.13.22.12.44.25.66.37Z"/><path class="cls-5" d="M38.17,56.48c-.21,1.23-.43,2.46-.68,3.93,1.62-.15,3.01-.4,4.39-.39,4.9.03,9.78.19,13.98,3.33,1.12.83,2.48,1.32,3.67,2.08,4.82,3.08,7.43,7.72,8.62,13.12.44,1.98.13,4.18-.11,6.24-.14,1.14-.89,2.19-1.29,3.31-.15.43-.11.92-.15,1.39-.08.24-.17.48-.25.72.07.02.14.04.21.05.02-.25.05-.5.07-.74.1.63.21,1.27.31,1.9-.11.14-.22.28-.33.42.08.03.15.07.23.1.03-.18.06-.36.09-.53.33,1.56-.51,3.35-1.96,3.98-.15-.36-.29-.71-.57-1.38-.38.6-.65,1.02-.92,1.44,1.23.74.16,1.19-.19,1.76-.27.45-.45.95-.79,1.68-.09-.6-.15-.97-.21-1.33-.1-.04-.2-.09-.3-.13-.15.46-.41.93-.41,1.39,0,.45.27.91.4,1.26-.95.87-1.82,1.67-2.69,2.47,0,0,.02.02.02.02-.56.08-1.21.02-1.67.28-.78.44-1.45,1.09-2.17,1.65-.52-.02-1.04-.04-1.56-.06-.65,0-1.3.02-1.96.03-1.04-.01-2.08-.03-3.12-.04-.35-.07-.7-.2-1.04-.19-3.27.14-6.32-.9-8.91-2.61-2.2-1.45-4.14-3.51-5.69-5.66-1.78-2.48-3.19-5.28-4.4-8.1-.84-1.96-1.11-4.17-1.58-6.28-.24-1.11-.35-2.26-.55-3.59-.59.26-1,.45-1.41.63,1.06-5.07,2.11-10.13,3.17-15.2.2-.18.41-.36.61-.54.21-.15.41-.3.62-.45.12-.09.25-.18.37-.27.15-.11.3-.22.45-.33,0,0,.11,0,.11,0,0,0,.05-.09.05-.09.11-.08.23-.16.34-.25h0c.18-.12.35-.24.53-.36,0,0,.09-.05.09-.05.11-.08.22-.16.33-.24.21-.15.43-.29.64-.44.09-.07.18-.14.27-.21,0,0,.04-.03.04-.03s.13.01.13.01l.12-.05c.47.44.95.89,1.44,1.34,1.5-.86,1.55-1.43.13-2.58.24-.2.48-.4.72-.61.3-.21.61-.43.91-.64.13-.09.25-.18.38-.27.17-.12.33-.24.5-.36.33-.17.66-.35.99-.52ZM60.84,92.64c-1.11.51-1.42,1.34-1.25,2.35.19.07.39.14.58.22.27-.8.53-1.6.8-2.4,1.07.24,1.41-.24,1.38-1.52-.65.58-1.08.97-1.51,1.36ZM32.84,85.99l.07.06-.08-.05c-.42-2.24-.84-4.49-1.26-6.73h-.36c-.13.56-.26,1.13-.44,1.87-.17-1.04-.3-1.88-.43-2.72-.2.03-.41.06-.61.09.07,1.05.11,2.11.23,3.16.12,1.11.29,2.22.49,3.32.12.66.34,1.3.51,1.95h0c.07,1.13-.17,3.06.26,3.22,1.15.44,1.07,1.18,1.3,1.99.15.54.52,1.02.78,1.52.56-.66.97-1.14,1.45-1.7-.63-1.47-1.38-3.15-2.04-4.87-.12-.31.1-.74.17-1.12ZM41.13,91.08c.24.15.58.24.72.46,2.33,3.59,5.71,4.24,9.58,3.41,1.93-.42,3.53-1.52,4.57-3.17,1.75-2.77,2.67-5.74,1.99-9.12-.56-2.78-1.25-5.4-3.17-7.66-2.45-2.89-5.58-4.33-9.18-4.83-3.09-.43-6.2-.5-9.26.63.18,2.2.31,4.3.53,6.38.48,4.55,1.43,8.96,3.87,12.92.18.29.24.65.36.98-.65.36-1.3.72-2.03,1.13.9,1.31,1.68,2.45,2.45,3.58l.37-.23c-.27-1.49-.54-2.99-.8-4.48ZM52.51,63.76c-1.59-2.28-8.69-3.23-9.88-1.4,3.25.46,6.56.93,9.88,1.4ZM64.04,82.64c1.42-2.5-.82-3.58-1.89-5.08-.74.73-.8,2.81-.06,3.46.08.07.17.24.19.23,1.57-.79,1.01,1.02,1.76,1.38ZM58.29,98.69c-.09-.12-.19-.24-.28-.36-1.64.99-3.28,1.98-4.94,2.98.42.73,1.2.69,1.91-.09.64-.71,1.27-.97,2.18-.58.19.08.53-.18.97-.34-.46-.26-.73-.41-1.46-.83.69-.33,1.16-.56,1.62-.78ZM30.56,74.88c.33.47.58.85.84,1.22.13-.04.25-.08.38-.12-.08-.61-.16-1.21-.23-1.76-1.25-.6-1.99-.01-2.51.91-.16.28,0,.74.02,1.11.37-.09.81-.09,1.08-.31.23-.18.26-.61.43-1.04ZM28.08,81.01c.15,0,.3,0,.45-.01.38-1.47.92-2.96-.09-4.35-.21.01-.42.03-.63.04.09,1.44.18,2.88.27,4.32ZM63.23,83.1c-.16-.03-.32-.07-.47-.1-.32,1.7-.64,3.41-.99,5.27,1.34-.73-.23-2.8,1.61-2.94-.05-.75-.1-1.49-.14-2.22ZM66.05,79.61c-.78-1.65-1.39-2.94-1.99-4.23-.38,1.83.33,3.1,1.99,4.23ZM49.75,100.01c-1.51-2.12-2.2,0-3.19-.25.01.16.03.32.04.49.91-.07,1.83-.14,3.14-.23ZM58.94,73.2c-.17.1-.33.19-.5.29.28.98.56,1.96.84,2.94.26-.09.53-.19.79-.28l-1.13-2.94ZM57.34,74.85c.13-.15.26-.3.39-.45-.94-.83-1.88-1.66-2.83-2.49-.14.16-.28.32-.41.48.95.82,1.9,1.64,2.85,2.46ZM52.53,103.65c-.03-.12-.05-.24-.08-.36-.93-.12-1.86-.27-2.8-.32-.19-.01-.48.34-.57.58-.05.14.24.58.34.57,1.04-.12,2.07-.3,3.11-.47Z"/><path class="cls-5" d="M177.8,74.85c.6,1.01.84,3.57.66,5.22-.19,1.83-.06,3.7-.38,5.5-.27,1.51-.98,2.95-1.48,4.42-.06.18-.03.39,0,.59.25,1.96-.67,3.51-1.78,4.99-.12.16-.37.3-.37.44.06,2.75-1.32,4.85-3.01,6.83-.36.42-.49,1.05-.72,1.58-.11.02-.2.07-.28.15-.2.01-.4.03-.6.04-2.24-.04-4.48-.07-6.72-.11-.21,0-.42,0-.63,0-.32,0-.64,0-.97,0-.21,0-.42-.02-.63-.02-.11,0-.21,0-.32.01-.85.01-1.69.03-2.54.04-.48-.05-.96-.1-1.44-.14.67-.99,1.32-1.8,2.78-1.15.41.18,1.2-.43,1.79-.73.4-.2.76-.48,1.29-.82-.17-.81-.4-1.86-.72-3.36.52-1.78,2.72-.71,4.14-1.4.32-.16.69-.21.97-.64h-3.3c.76-1.5,1.55-3.07,2.34-4.64.29-.58.48-1.25.91-1.7.69-.73,1.55-.43,1.99.26.38.59.42,1.42.46,2.15,0,.09-.96.2-1.47.35-.49.14-.97.35-1.76.65,1.12.39,1.83.63,2.54.87-.04.14-.07.27-.11.41-.38.1-.76.2-1.48.39.46.43.7.84.99.88.38.05.79-.21,1.19-.31.47-.12.94-.22,1.41-.32-.28-.44-.56-.89-.64-1.01.26-.29.48-.53.69-.77.26.22.53.45.79.67.11-.13.21-.26.32-.39l-.79-.63c-.16-.82-.69-1.79-.41-2.42.87-1.97-.39-2-1.65-2.19-.13-.02-.24-.19-.36-.29,0-.21-.01-.42-.02-.63-.02-.21-.04-.43-.07-.64.04-.1.09-.2.13-.3,0,0,0,0,0,0,.3-.33.6-.66.89-1-.14-1.55-.38-3.1-.37-4.65,0-.44.71-.87,1.1-1.31l.47.28c-.16.99-.32,1.97-.49,2.98,1.43-.63,2.85-1.25,4.56-2.01,1-2.05.95-3.86-.44-5.16.37-.23.72-.45,1.32-.82-1.24-.65-2.25-1.18-3.26-1.71-.28,0-.57,0-.85-.01-.05-.31-.09-.62-.14-.92-.21-.32-.42-.64-.62-.96l.06-.06c.41-.09.83-.13,1.22-.27.4-.14.76-.38,1.14-.57-.26-.33-.45-.85-.78-.96-.72-.24-1.5-.27-2.26-.39.23-.76.22-1.78.73-2.23,1-.9,1.32-1.48.86-3.18.23-.52.37-1.12.73-1.54.29-.34.83-.48,1.25-.7.16.31.33.62.49.93-.21.21-.41.42-.62.63.11.24.22.49.34.73.44.19.89.38,1.33.57,0,0,.01,0,.01,0-.14.41-.27.82-.41,1.22-.64,1.08.63,1.23.93,1.85.21.43.69.72,1.04,1.08-.63.92-1.27,1.83-1.91,2.75.43,1.31,1.13,2.25,2.72,2,0,.22.01.44.02.65.06.08.11.16.17.24.04.14.08.27.11.41-.04.11-.08.22-.12.32ZM174.51,67.29c.11.03.22.06.33.09-.03-.11-.06-.22-.09-.32-.11-.19-.22-.39-.35-.57-.01-.02-.16.07-.25.11.12.23.24.47.36.7ZM168.43,97.64c-1.05-.45-1.53-.43-1.99.5-.36.71-1.26,1.16-1.92,1.71-.41.34-.83.67-1.24,1,.12.14.24.27.36.41.27-.14.54-.27.72-.36.15.5.27.9.4,1.31.19-.06.44-.05.55-.18.85-1.02,1.69-2.05,2.5-3.11.26-.35.4-.79.63-1.27ZM169.11,86.76c-.01.19-.02.39-.03.58h1.7c0-.14.01-.28.02-.42-.56-.05-1.13-.11-1.69-.16ZM168.06,95.98c-.07.14-.13.28-.2.42.47.36.94.71,1.56,1.18.11-.47.3-1.03.24-1.06-.51-.24-1.06-.38-1.6-.55ZM173.09,66.88l.17-.33c-.24-.09-.48-.18-.72-.28l-.1.22c.22.13.44.25.66.38ZM177.95,83.65l.05-.07h-.08s.03.07.03.07ZM167.81,94.41s-.06-.03-.09-.05c0,.06,0,.13,0,.19.03-.02.07-.02.09-.05.02-.02,0-.06,0-.1Z"/><path class="cls-1" d="M25.24,78.61c.41-.18.82-.37,1.41-.63.2,1.33.3,2.48.55,3.59.46,2.11.73,4.32,1.58,6.28,1.21,2.82,2.62,5.62,4.4,8.1,1.55,2.16,3.49,4.21,5.69,5.66,2.6,1.71,5.64,2.75,8.91,2.61.34-.01.7.12,1.04.19-5.02.02-10.05.04-15.07.06-4.34.02-8.67.03-13.01.05-.1-.04-.21-.03-.31,0-.19-.15-.57-.32-.55-.45.18-1.61.34-3.23.66-4.82.42-2.09,1.01-4.16,1.47-6.24.9-4.06,1.77-8.12,2.64-12.19.14-.67.2-1.36.3-2.04.1-.06.2-.11.3-.17Z"/><path class="cls-5" d="M101.94,27.68c-.61.38-1.19,1.03-1.82,1.08-2.9.23-5.31,3.83-3.53,6.51,1.27,1.91,2.46,3.87,3.68,5.8-1.76,1.83-3.71,3.96-5.81,5.94-.3.28-1.48.05-1.93-.33-1.89-1.6-3.54-3.39-4.2-5.94-.39-1.49-1.16-2.88-1.83-4.28-.82-1.71-.54-3.24.54-4.66-.18-.51-.35-.98-.52-1.46.08.01.13-.02.16-.09l2.22-.64c.11-.21.22-.42.33-.63.1-.03.21-.06.31-.09.33-.02.66-.04.98-.06.12-.05.24-.1.37-.14.2-.08.41-.15.61-.23.11-.03.22-.07.33-.1.1.04.19.03.27-.04.1-.01.21-.03.31-.04.65-.13,1.29-.26,1.94-.38.22-.06.43-.12.65-.18l1.88-.37c.27-.07.54-.14.81-.22.2-.08.4-.16.59-.25.5.18,1,.36,1.5.54.73.09,1.46.19,2.19.28,0,0-.02-.02-.02-.02ZM87.8,30.64c-.21.23-.42.37-.42.51,0,.13.22.37.33.37.15,0,.37-.19.41-.33.03-.12-.16-.3-.32-.55Z"/><path class="cls-2" d="M142.11,30.81c-.59.2-1.19.4-1.9.64-.02.4-.05,1.03-.08,1.66-.06,0-.11,0-.17.01-.05-.44-.11-.89-.15-1.21-.37.78-.9,1.57-1.13,2.45-.31,1.19-.38,2.44-.54,3.66-.03.2.06.44,0,.62-1.09,2.98.11,6.18-.92,9.16-.05.14-.16.26-.38.63-.3-.44-.71-.77-.71-1.09.01-1.29.23-2.57.24-3.86,0-1.01-.16-2.02-.58-3.02-.25,1.42-.49,2.84-.74,4.25-.02.1-.11.25-.07.3,1.19,1.53-.3,2.92-.25,4.41.02.48-.59.97-1,1.6-1.51-2.54.71-4.36.63-6.62-.47.19-.72.29-.97.38-.18-.2-.37-.4-.55-.6.39-.19.77-.38.9-.44-.4-3.17,1.5-5.51,2.71-8.02-1.04-.56-1.51-.06-2.04.69.47-2.71.94-5.42,1.4-8.13,1.45.56,2.9,1.12,4.35,1.68.12.07.23.13.35.2.53.21,1.06.42,1.59.64ZM137,34.38l.27-.59c-.07-.02-.13-.04-.2-.06-.02.22-.04.45-.06.67-.08.02-.15.04-.23.06.03.05.06.1.09.14.04-.08.08-.15.11-.23ZM136.74,46.54c.07,0,.15-.02.22-.03l-.1-.65c-.06,0-.12.02-.18.02l.06.65ZM133.58,50.11l.22-.03c-.03-.19-.05-.39-.08-.58l-.23.03c.03.19.06.39.09.58Z"/><path class="cls-2" d="M58.9,40.83c1.41.22,2.91.22,4.22.71,1.47.56,2.87,1.44,4.13,2.41.94.73,1.61,1.82,2.37,2.77.31.39.55.83.53,1.38.43.51.81,1.07,1.3,1.52.45.41,1.01.7,1.68,1.16-.43.47-.76.83-1.17,1.29-.64-.81-1.36-1.11-1.55-2.33-.18-1.16-1.49-2.34-2.59-3.09-.86-.59-1.37-1.02-1.2-2.07.03-.16-.29-.53-.3-.52-.42.22-.83.47-1.38.8-.23-.55-.49-1.14-.82-1.93-.28.38-.46.64-.47.65-1.72-.68-3.37-1.33-5.01-1.98-.05-.04-.11-.08-.17-.11.15-.21.3-.42.45-.63Z"/><path class="cls-4" d="M25.24,78.61c-.1.06-.2.11-.3.17.77-3.85,1.51-7.7,2.33-11.54.28-1.3.75-2.55,1.13-3.83-1.06,5.07-2.11,10.13-3.17,15.2Z"/><path class="cls-2" d="M34.66,58.88c1.42,1.15,1.38,1.72-.13,2.58-.49-.46-.96-.9-1.44-1.34,0-.08,0-.17,0-.25.52-.33,1.04-.66,1.56-.99Z"/><path class="cls-3" d="M63.8,37.28c.46.71.93,1.41,1.37,2.13.1.16.2.47.13.55-.13.13-.48.24-.58.16-.48-.41-.9-.88-1.34-1.32.14-.51.27-1.01.41-1.52Z"/><path class="cls-4" d="M135.42,27.98c-.71-.14-1.42-.27-2.14-.41-.03-.17-.06-.33-.09-.5.87-.01,2.24-1.23,2.23.91Z"/><path class="cls-3" d="M88.89,29.61c-.74.21-1.48.43-2.22.64.74-.21,1.48-.43,2.22-.64Z"/><path class="cls-3" d="M65.49,37.45c-.57-.05-1.14-.09-1.71-.14.63-.12,1.27-.24,1.9-.36-.06.17-.12.33-.18.5Z"/><path class="cls-3" d="M99.77,27.42c-.5-.18-1-.36-1.5-.54.61.1,1.46-1.02,1.82.36-.11.06-.21.12-.32.18Z"/><path class="cls-4" d="M158.04,104.54c.85-.01,1.69-.03,2.54-.04-.85.01-1.69.03-2.54.04Z"/><path class="cls-3" d="M54.72,44.26c.1.19.2.38.3.57-.28.1-.57.2-.85.3.18-.29.36-.58.54-.87Z"/><path class="cls-4" d="M51.94,104.45c.65,0,1.3-.02,1.96-.03-.65,0-1.3.02-1.96.03Z"/><path class="cls-3" d="M36.3,57.63c-.3.21-.61.43-.91.64.3-.21.61-.43.91-.64Z"/><path class="cls-4" d="M123.32,23.12c-.21-.09-.41-.18-.62-.27.21.09.41.18.62.27Z"/><path class="cls-4" d="M116.61,23.87c-.21.07-.43.13-.64.2.21-.07.43-.13.64-.2Z"/><path class="cls-3" d="M86.03,30.24c-.21.07-.42.13-.64.19.21-.07.42-.13.64-.19Z"/><path class="cls-4" d="M75.51,32.43c-.21.06-.42.12-.63.18.21-.06.42-.12.63-.18Z"/><path class="cls-3" d="M191.49,104.52c.2-.02.4-.04.6-.06.03.09.06.17.09.26-.23-.07-.46-.13-.69-.2Z"/><path class="cls-4" d="M29.63,62.42c-.21.15-.41.3-.62.45.21-.15.41-.3.62-.45Z"/><path class="cls-3" d="M97.68,27.13c-.27.07-.54.14-.81.22.27-.07.54-.14.81-.22Z"/><path class="cls-3" d="M94.99,27.72c-.22.06-.43.12-.65.18.22-.06.43-.12.65-.18Z"/><path class="cls-4" d="M140.52,30.18c-.12-.07-.23-.13-.35-.2.07-.06.13-.11.2-.17.05.12.1.24.15.37Z"/><path class="cls-3" d="M60.22,39.8c-.2.14-.39.28-.59.42.2-.14.39-.28.59-.42Z"/><path class="cls-3" d="M58.31,41.71c-.19.13-.39.27-.58.4.19-.13.39-.27.58-.4Z"/><path class="cls-3" d="M37.18,57c-.17.12-.33.24-.5.36.17-.12.33-.24.5-.36Z"/><path class="cls-4" d="M31.48,61.12c-.18.12-.35.24-.53.37.18-.12.35-.24.53-.37Z"/><path class="cls-3" d="M160.9,104.48c.21,0,.42.02.63.02-.21,0-.42-.02-.63-.02Z"/><path class="cls-3" d="M162.49,104.51c.21,0,.42,0,.63,0-.21,0-.42,0-.63,0Z"/><path class="cls-3" d="M169.84,104.61c.2-.01.4-.03.6-.04-.2.01-.4.03-.6.04Z"/><path class="cls-4" d="M112.47,24.77l-.15.05s-.16,0-.16,0c.1-.02.2-.03.31-.05Z"/><path class="cls-3" d="M102.35,26.77c-.12.06-.24.13-.37.19.12-.06.24-.13.37-.19Z"/><path class="cls-3" d="M92.4,28.28c-.1.01-.21.03-.31.04.1-.01.21-.03.31-.04Z"/><path class="cls-3" d="M91.82,28.36c-.11.03-.22.07-.33.1.11-.03.22-.07.33-.1Z"/><path class="cls-3" d="M89.54,28.89c-.1.03-.21.06-.31.09.1-.03.21-.06.31-.09Z"/><path class="cls-3" d="M90.88,28.69c-.12.05-.24.1-.37.14.12-.05.24-.1.37-.14Z"/><path class="cls-4" d="M142.74,31.16c-.11-.09-.22-.18-.33-.26.11.09.22.18.33.26Z"/><path class="cls-4" d="M151.02,34.38c-.14-.09-.27-.18-.41-.27.14.09.28.18.41.27Z"/><path class="cls-4" d="M153.52,35.47c-.12.04-.19,0-.22-.13.08.03.16.07.22.13Z"/><path class="cls-3" d="M61.51,38.88c0,.07-.04.11-.11.11-.03-.08-.06-.16-.08-.23l.2.12Z"/><path class="cls-3" d="M61.33,39.01c-.14.1-.27.19-.41.29.14-.1.27-.19.41-.29Z"/><path class="cls-3" d="M58.44,41.45c.06.03.12.07.17.11-.1.04-.2.09-.3.13.01-.1.05-.18.13-.25Z"/><path class="cls-3" d="M57.75,42.08c-.13.1-.25.19-.38.29.13-.1.25-.19.38-.29Z"/><path class="cls-3" d="M56.48,43.02c-.13.09-.26.17-.39.26.13-.09.26-.17.39-.26Z"/><path class="cls-3" d="M53.12,45.87c0,.13-.07.18-.19.16.05-.07.11-.12.19-.16Z"/><path class="cls-3" d="M52.58,46.17c-.1.08-.2.17-.3.25.1-.08.2-.17.3-.25Z"/><path class="cls-4" d="M40.42,54.77c-.08.07-.15.13-.23.2.06-.09.13-.15.23-.2Z"/><path class="cls-4" d="M33.1,59.87c0,.08,0,.17,0,.25,0,0-.12.05-.12.05,0,0-.13-.01-.13-.01.09-.1.17-.2.26-.3Z"/><path class="cls-4" d="M32.8,60.2c-.09.07-.18.14-.27.21.09-.07.18-.14.27-.21Z"/><path class="cls-4" d="M31.89,60.84c-.11.08-.22.16-.33.24.11-.08.22-.16.33-.24Z"/><path class="cls-4" d="M30.95,61.49c-.11.08-.23.16-.34.25.11-.08.23-.16.34-.25Z"/><path class="cls-4" d="M30.45,61.83c-.15.11-.3.22-.45.33.15-.11.3-.22.45-.33Z"/><path class="cls-4" d="M178.06,64.12c-.09-.14-.17-.28-.26-.42.09.14.17.28.26.42Z"/><path class="cls-4" d="M182.54,76.81c-.07-.12-.15-.24-.22-.36.07.12.15.24.22.36Z"/><path class="cls-4" d="M185.37,84.54c-.09-.15-.18-.3-.27-.45.09.15.18.3.27.45Z"/><path class="cls-4" d="M20.42,104.53c.1-.04.2-.04.31,0-.1,0-.21,0-.31,0Z"/><path class="cls-4" d="M61.2,104.52c.1-.04.21-.04.31,0-.1,0-.21,0-.31,0Z"/><path class="cls-3" d="M171.09,104.52c.1-.04.2-.04.31,0-.1,0-.2,0-.31,0Z"/><path class="cls-2" d="M95.26,90.84c.24-.38.48-.77.71-1.15.27.33.54.66.8.99.69.85,1.35,1.73,2.08,2.54.16.18.57.13.86.21.29.08.57.2.85.31-.81,1.05.52,1.48.77,2.4-.37-.04-.6-.07-.84-.1-.16-.05-.31-.11-.47-.16,0,0,.01,0,.01,0-.07-.09-.13-.17-.2-.26-.04.12-.08.25-.12.37-.85-.94-1.71-1.87-2.55-2.82-.66-.76-1.29-1.56-1.93-2.34Z"/><path class="cls-2" d="M171.51,73.25c.28,0,.57,0,.85.01-.11.2-.2.42-.34.6-.19.24-.42.45-.63.68h0c-.2.27-.39.54-.37.51-.53-1.42-1.19-2.95-1.64-4.54-.1-.36.47-.92.74-1.39.76.12,1.54.15,2.26.39.33.11.52.63.78.96-.38.2-.75.43-1.14.57-.39.14-.81.18-1.22.27-.06-.05-.13-.09-.19-.14.04.07.08.13.13.2.21.32.42.64.62.96.05.31.09.62.14.92Z"/><path class="cls-2" d="M173.7,61.45c-.43.23-.97.36-1.25.7-.35.42-.49,1.02-.73,1.54-.46.18-.92.36-1.48.59.19-.76.24-1.44.53-1.99.47-.87,1.06-1.62-.54-1.86-.14-.02-.21-.47-.31-.72.39-.04.78-.08,1.29-.12v-1.85c.08-.07.17-.14.25-.21.74,1.31,1.49,2.61,2.23,3.92Z"/><path class="cls-2" d="M171.4,74.53c1.42-.04,1.37.98,1.35,1.93.53.25,1.03.48,1.6.74-.5.41-.85.7-.92.76v2.75c-2.54-1.4-2.73-2.04-1.89-4.56.16-.48-.08-1.09-.13-1.64h0Z"/><path class="cls-2" d="M177.62,73.23c-1.58.25-2.29-.69-2.72-2,.64-.92,1.27-1.84,1.91-2.75.26,1.02.55,2.04.76,3.07.11.54.04,1.12.06,1.68Z"/><path class="cls-2" d="M170.25,57.5c-1.07-.88-2.15-1.77-3.22-2.65.94-.32,1.85-.78,2.23.62.07.24.52.37.76.58.29.26.54.57.81.86-.19.2-.38.39-.57.59Z"/><path class="cls-2" d="M132.91,96.2c-.27-.92-.52-1.83.7-2.3.19.38.37.77.56,1.15-.42.38-.84.76-1.26,1.14Z"/><path class="cls-2" d="M173.57,63.02c.2-.21.41-.42.62-.63.35.64.7,1.29,1.05,1.93-.44-.19-.89-.38-1.33-.57-.11-.24-.22-.49-.34-.73Z"/><path class="cls-2" d="M174.84,65.55c.14-.41.27-.82.41-1.22.17.34.34.68.5,1.01-.31.07-.61.14-.92.21Z"/><path class="cls-2" d="M169.47,85.67c-.3.33-.6.66-.89,1,.3-.33.6-.66.89-1Z"/><path class="cls-2" d="M100.34,96.57c.24.18.47.37.71.55-.24-.18-.47-.37-.71-.55Z"/><path class="cls-2" d="M168.51,87.59c0,.21.01.42.02.63,0-.21-.01-.42-.02-.63Z"/><path class="cls-2" d="M177.81,74.12c-.06-.08-.11-.16-.17-.24.09.06.14.14.17.24Z"/><path class="cls-2" d="M177.8,74.85c.04-.11.08-.22.12-.32-.04.11-.08.22-.12.32Z"/><path class="cls-2" d="M168.58,86.66c-.04.1-.09.2-.13.3,0-.09-.02-.17,0-.25,0-.02.09-.03.14-.04Z"/><path class="cls-5" d="M99.73,96c.04-.12.08-.25.12-.37.07.09.13.17.2.26-.11.04-.21.07-.32.11Z"/><path class="cls-5" d="M100.04,95.88c.16.05.31.11.47.16-.07.08-.15.16-.22.24-.09-.02-.17-.02-.26,0,0-.14,0-.27.01-.41Z"/><path class="cls-2" d="M100.03,96.29c.08-.02.17-.02.26,0,.03.08.03.17.02.25-.09-.08-.18-.16-.27-.25Z"/><path class="cls-5" d="M59.27,102.54l-.05.12s.05-.07.07-.1c0,0-.02-.02-.02-.02Z"/><path class="cls-5" d="M103.27,27.41c4.18-.84,8.35-1.69,12.53-2.51,2.63-.52,2.63-.49,3.08,2.2-.35-.29-.71-.58-1.15-.95-.92.76-1.4,1.64-.22,3.02.5-.77.93-1.43,1.35-2.09,1.3.72,2.17,3.41,1.51,4.62-.13.24-.15.53-.23.8-.06.06-.11.12-.17.19.05-.07.1-.14.14-.21.21.17.61.37.59.51-.28,2.06-.4,4.17-.97,6.15-2.14,7.46-6.91,12.62-14.36,15.77-.87-3.04-1.7-5.94-2.44-8.53,1.02-.41,1.93-.78,2.85-1.15.22.1.45.19.67.29.03-.1.06-.2.09-.3h-.75c-.25-.32-.49-.65-.83-1.1.44-.69,1.04-.79,1.8-.17.17.35.34.71.51,1.06,1.25.38,2.5.77,3.74,1.15.06-.26.12-.53.19-.79-1.02-.16-2.04-.32-3.06-.48-.25-.22-.49-.43-.74-.65h.04c-.09-.38-.18-.78-.3-1.29.65-.09,1.24-.18,1.83-.26,0-.16.02-.32.03-.47h-2.39c-.05-.16-.1-.31-.14-.47.68-.29,1.35-.57,2.16-.92-.01-.23-.03-.63-.04-.74.85-.51,1.59-.95,2.64-1.58-.72-.27-1.04-.38-1.27-.47.41-2,1.01-3.97,1.15-5.98.06-.92-.54-2.14-1.24-2.82-1.81-1.77-4.19-2.01-6.61-1.85,0,0,.02.02.02.02ZM111.57,42.62c-1.06-.76-1.99-.41-2.72.46-.09.1.59.85.91,1.3.51-.48.82-.77,1.13-1.06,1.36-.1,2.71-.16,4.06-.32.42-.05.82-.34,1.23-.53-.37-.3-.71-.65-1.12-.89-.19-.11-.51-.02-.77-.02,0-.1,0-.21-.01-.31,1.04-.09,2.07-.17,2.84-.23.14-.76.22-1.16.32-1.72-.62.22-1.22.64-1.71.54-.48-.09-.85-.71-1.27-1.1.5,2.19-1.43,1.93-2.01,2.82-.29.35-.58.71-.87,1.06ZM112.47,36.02c2.26.4,4.53.8,6.86,1.21-.87-1.16-1.71-2.28-2.56-3.41-.09.09-.18.18-.27.26.21.61.42,1.22.62,1.83-.08.26-.17.52-.25.78-1.49-2.66-2.97-.94-4.4-.68ZM116.63,25.22c.27.19.37.3.42.28.14-.05.26-.15.38-.23-.2-.01-.4-.03-.81-.05ZM111.97,40.64s-.07-.05-.1-.08c0,.04-.01.09-.02.13.04-.02.08-.04.12-.05Z"/><path class="cls-2" d="M125.62,88.65c.44.24.88.49,1.3.73-.86,1.08-1.82,2.17-3.86,1.51.78-.84,1.47-1.6,2.17-2.35.13.04.26.07.39.11Z"/><path class="cls-2" d="M107.75,91.43c-.03-.21-.05-.43-.08-.64.05-.54.1-1.08.16-1.67,1.45.8,1.33,3.55,3.75,3.21,0,0-.05,0-.05,0,0,.21-.01.42-.02.63-.32.21-.64.41-.96.62-.05-.56-1.83-1.92-2.81-2.15Z"/><path class="cls-2" d="M107.27,45c-.17-.35-.34-.71-.51-1.06.22.1.45.2.67.31,0,0-.04-.01-.04-.01,0,.21,0,.42.01.64-.05.04-.09.09-.14.13Z"/><path class="cls-5" d="M101.96,27.7c.44-.1.87-.19,1.31-.29,0,0-.02-.02-.02-.02-.44.1-.87.2-1.31.29,0,0,.02.02.02.02Z"/><path class="cls-2" d="M127.15,86.96c-.23.19-.46.38-.69.57.23-.19.46-.38.69-.57Z"/><path class="cls-2" d="M126.43,87.56c-.09.1-.18.21-.27.31.09-.1.18-.21.27-.31Z"/><path class="cls-2" d="M126.15,87.89c-.08.13-.16.25-.24.38.08-.13.16-.25.24-.38Z"/><path class="cls-2" d="M125.91,88.27c-.1.12-.2.23-.29.35.1-.12.2-.23.29-.35Z"/><path class="cls-2" d="M85.07,62.12c1.9.42.86-.95.98-1.61h-.01c.51.59,1.05,1.14,1.52,1.76.32.43.54.95,1.11,1.33.03-.36.06-.71.09-1.15.2.11.4.15.43.25.66,1.75,1.6,3.46,1.86,5.27.18,1.23,1.23,1.85,1.32,3.04.07,1.01.48,1.99.79,3.2-1.14-1.59-2.11-2.87-2.98-4.22-.25-.39-.02-1.34-.24-1.43-2.13-.8-2.51-2.58-2.76-4.5-.02-.14-.56-.21-.86-.32-.13.16-.27.33-.4.49-.27-.71-.55-1.42-.82-2.13l-.02.02Z"/><path class="cls-2" d="M137.33,65.96v-1.56c-.06-.02-.13-.03-.19-.05-.07.2-.15.4-.33.9-.4-.49-.79-.84-1.03-1.28-.97-1.78-1.48-3.54.64-5.34.08,1.26.14,2.33.21,3.39.19,0,.38,0,.57,0v-6.77c.11,0,.21,0,.32.01.14,1.07.28,2.15.45,3.48,2.39-1.49-.12-3.21.91-4.48,1.6,1.05,1.85,2.58.65,4.15-.93,1.21-1.59,2.4-1.33,4.1.17,1.1-.36,2.3-.58,3.46-.1,0-.2,0-.29,0Z"/><path class="cls-2" d="M132.68,70.14c-.13-1.04-.21-1.69-.34-2.71.4.48.56.67.71.87,1.55-1.14.37-2.17-.23-3.08-.86-1.3-.14-2.69-.88-3.94.16-.02.31-.04.47-.06.4,1.31.79,2.63,1.19,3.94.09.01.18.03.28.04.07-.45.13-.9.24-1.62.49,1.18.92,2.13,1.25,3.11.07.21-.13.71-.33.79-.97.41-.4.92-.26,1.51.15.69.04,1.45.04,2.17h-.48c-.09-.53-.19-1.06-.28-1.58-.11-.03-.21-.06-.32-.09-.75,2.47-1.5,4.95-2.25,7.42l-.32-.1c.27-2.54.54-5.08.82-7.71.18.27.33.49.7,1.04ZM132.48,70.6c-.05,0-.11,0-.16,0,0,.18-.02.35-.03.53.05,0,.1,0,.15,0,.01-.18.02-.35.04-.53Z"/><path class="cls-2" d="M135.55,51.73c.15,1.6.45,3.2.38,4.79-.03.69-.8,1.35-1.23,2.02-.17.26-.4.51-.47.79-.2.82-.33,1.65-.79,2.42-.07-1.56-.67-3.23.82-4.46.11-.09.21-.33.17-.43-.92-1.9.51-3.41,1.12-5.13Z"/><path class="cls-2" d="M85.56,67.73c-.17-.62-.23-1.29-.53-1.84-.45-.82-1.12-1.51-1.56-2.33-.16-.3.05-.8.31-1.19,1.45,2.41,3.41,4.46,3.52,7.66-.79-.87-1.4-1.54-2.01-2.2.09-.03.18-.07.27-.1Z"/><path class="cls-2" d="M94.83,75.49c2.07.86,4.97,5.82,4.46,7.81-1.52-2.66-2.97-5.2-4.46-7.81Z"/><path class="cls-1" d="M107.75,91.43c.97.23,2.75,1.59,2.81,2.15-2.57-.24-5.03-.83-7.09-2.5-.27-.22-.4-.61-.59-.92.07-.06.14-.11.21-.17.52.31,1.02.66,1.56.93.94.47,1.91.89,2.93,1.36.07-.37.12-.62.17-.87Z"/><path class="cls-2" d="M138.44,69.96c.45,2,.35,3.64-.86,5.34-.88-1.93-.34-3.5.86-5.34Z"/><path class="cls-1" d="M134.86,77.08c-.23-.02-.46-.03-.69-.05.02-.07.02-.14,0-.22-.02-.79-.03-1.59-.07-2.38-.02-.44-.11-.88.02-1.35.69,1.25,2.24,2.25,1.15,3.95-.14.02-.27.03-.41.05Z"/><path class="cls-2" d="M89.53,75.81c.08-.28.17-.56.25-.84.1,0,.2-.02.3-.03.38,1.36.76,2.72,1.23,4.39-1.44-.86-2.16-2.59-1.76-3.55.02.04.03.09.06.12.01.02.06,0,.09.01-.05-.04-.11-.07-.16-.11Z"/><path class="cls-2" d="M134.21,92.7c-.6-1.32.31-2.4.97-3.56.81.63-1.74,2.04.89,2.24-.66.47-1.2.86-1.85,1.33Z"/><path class="cls-2" d="M140.76,65.48c-.29-1.55-.5-2.67-.71-3.79.19-.03.37-.06.56-.08.9,1.04.81,2.2.16,3.87Z"/><path class="cls-1" d="M112.8,92.7c.91.2,1.82.4,2.74.59-1.83,1.39-2.25,1.31-3.27-.2.18-.13.36-.27.53-.4Z"/><path class="cls-2" d="M130.95,78.38c.23,3.2.2,3.3-1.21,3.39.24-1.23.46-2.43.69-3.62.17.07.35.15.52.22Z"/><path class="cls-2" d="M134.86,77.08c.14-.02.27-.03.41-.05.5.66.9,1.21-.05,1.95-.48.37-.63,1.19-.93,1.8-.12-.05-.25-.1-.37-.16.28-.66.61-1.31.81-1.99.14-.49.1-1.03.14-1.55Z"/><path class="cls-2" d="M85.09,62.1c-.85-.85-1.7-1.7-2.55-2.54h-.01c1.17.54,2.42.99,2.54,2.56,0,0,.02-.02.02-.02Z"/><path class="cls-3" d="M66.85,40.37c-.22-.12-.44-.25-.66-.37.02-.04.03-.09.05-.13.26.1.51.2.77.29-.05.07-.11.14-.16.21Z"/><path class="cls-1" d="M111.52,92.96c0-.21.01-.42.02-.63.21.11.42.23.63.34.02.15.05.3.07.45-.24-.05-.48-.1-.72-.15Z"/><path class="cls-1" d="M102.62,89.49c-.21-.1-.42-.19-.63-.29.05-.07.1-.15.16-.22.15.17.3.35.45.52l.02-.02Z"/><path class="cls-1" d="M102.6,89.5c.16.17.33.34.49.5-.07.05-.14.11-.21.16-.09-.23-.17-.46-.26-.68,0,0-.02.02-.02.02Z"/><path class="cls-2" d="M112.24,93.11c-.02-.15-.05-.3-.07-.45.21.01.42.02.63.03-.18.13-.35.27-.53.4,0,0-.03.01-.03.01Z"/><polygon class="cls-2" points="82.54 59.55 82.48 59.49 82.53 59.57 82.54 59.55"/><polygon class="cls-2" points="86.05 60.51 85.97 60.44 86.03 60.52 86.05 60.51"/><path class="cls-1" d="M90.9,63.15c-.07.05-.14.11-.22.16,0-.12,0-.24.01-.36.07.07.14.13.21.2Z"/><path class="cls-2" d="M134.17,76.81c.01.07.01.15,0,.22-.04-.06-.08-.11-.12-.17l.12-.05Z"/><path class="cls-1" d="M127.75,86.3c.05-.07.1-.15.15-.22-.04.09-.07.18-.11.27l-.04-.04Z"/><path class="cls-1" d="M127.79,86.34c-.1.12-.2.23-.29.35,0,0-.09-.09-.09-.09.11-.1.23-.2.34-.29,0,0,.04.04.04.04Z"/><path class="cls-1" d="M119.82,90.75c.07.04.15.09.22.13-.03.03-.1.09-.1.09-.06-.05-.11-.11-.17-.17,0,0,.04-.05.04-.05Z"/><path class="cls-1" d="M41.14,91.08c-.12-.33-.18-.69-.36-.98-2.43-3.97-3.39-8.38-3.87-12.92-.22-2.09-.35-4.18-.53-6.38,3.06-1.13,6.18-1.06,9.26-.63,3.6.5,6.73,1.94,9.18,4.83,1.92,2.26,2.61,4.88,3.17,7.66.68,3.37-.25,6.35-1.99,9.12-1.04,1.65-2.64,2.75-4.57,3.17-3.87.83-7.25.19-9.58-3.41-.14-.22-.48-.31-.72-.46,0,0,0,0,0,0Z"/><path class="cls-1" d="M32.84,85.99c-.06.38-.28.81-.17,1.12.67,1.72,1.42,3.4,2.04,4.87-.48.56-.88,1.04-1.45,1.7-.27-.5-.63-.98-.78-1.52-.23-.81-.15-1.56-1.3-1.99-.43-.16-.19-2.09-.26-3.22.07.04.14.08.21.12-.07-.04-.14-.08-.21-.12-.17-.65-.39-1.29-.51-1.95-.2-1.1-.36-2.21-.49-3.32-.11-1.05-.15-2.11-.23-3.16.2-.03.41-.06.61-.09.13.84.27,1.69.43,2.72.17-.74.31-1.3.44-1.87h.36c.42,2.24.84,4.48,1.26,6.73l.02-.02Z"/><path class="cls-2" d="M52.51,63.76c-3.32-.47-6.63-.94-9.88-1.4,1.19-1.83,8.29-.88,9.88,1.4Z"/><path class="cls-2" d="M64.04,82.64c-.75-.36-.19-2.17-1.76-1.38-.02,0-.11-.17-.19-.23-.74-.65-.68-2.73.06-3.46,1.07,1.5,3.32,2.58,1.89,5.08Z"/><path class="cls-2" d="M41.13,91.08c.27,1.49.54,2.99.8,4.48l-.37.23c-.78-1.13-1.55-2.27-2.45-3.58.73-.4,1.38-.76,2.03-1.13,0,0,0,0,0,0Z"/><path class="cls-2" d="M58.29,98.69c-.47.22-.93.45-1.62.78.73.41,1.01.57,1.46.83-.44.17-.78.43-.97.34-.91-.39-1.53-.13-2.18.58-.71.78-1.49.83-1.91.09,1.66-1,3.3-1.99,4.94-2.98.09.12.19.24.28.36Z"/><path class="cls-2" d="M30.56,74.88c-.16.43-.19.86-.43,1.04-.27.22-.71.22-1.08.31-.02-.38-.18-.83-.02-1.11.52-.92,1.26-1.51,2.51-.91.07.55.15,1.16.23,1.76-.13.04-.25.08-.38.12-.25-.37-.51-.74-.84-1.22Z"/><path class="cls-2" d="M28.08,81.01c-.09-1.44-.18-2.88-.27-4.32.21-.01.42-.03.63-.04,1.01,1.39.47,2.87.09,4.35-.15,0-.3,0-.45.01Z"/><path class="cls-2" d="M63.23,83.1c.05.74.1,1.47.14,2.22-1.84.14-.27,2.21-1.61,2.94.35-1.86.67-3.56.99-5.27.16.03.32.07.47.1Z"/><path class="cls-2" d="M66.05,79.61c-1.66-1.13-2.37-2.4-1.99-4.23.61,1.29,1.22,2.58,1.99,4.23Z"/><path class="cls-2" d="M49.75,100.01c-1.31.1-2.23.16-3.14.23-.01-.16-.03-.32-.04-.49.99.26,1.67-1.86,3.19.25Z"/><path class="cls-2" d="M58.94,73.2l1.13,2.94c-.26.09-.53.19-.79.28-.28-.98-.56-1.96-.84-2.94.17-.1.33-.19.5-.29Z"/><path class="cls-2" d="M57.34,74.85c-.95-.82-1.9-1.64-2.85-2.46.14-.16.28-.32.41-.48.94.83,1.88,1.66,2.83,2.49-.13.15-.26.3-.39.45Z"/><path class="cls-2" d="M52.53,103.65c-1.03.17-2.07.35-3.11.47-.1.01-.39-.43-.34-.57.09-.24.38-.59.57-.58.94.05,1.87.2,2.8.32.03.12.05.24.08.36Z"/><path class="cls-2" d="M60.97,92.81c-.27.8-.53,1.6-.8,2.4-.19-.07-.39-.14-.58-.22-.16-1.01.14-1.84,1.25-2.35.05.05.09.11.13.17Z"/><path class="cls-2" d="M60.84,92.64c.43-.39.86-.78,1.51-1.36.03,1.28-.32,1.76-1.38,1.52-.04-.06-.08-.11-.13-.16Z"/><path class="cls-1" d="M66.62,89.51c-.02.25-.05.5-.07.74-.07-.02-.14-.04-.21-.05.08-.24.17-.48.25-.72,0,0,.03.02.03.02Z"/><path class="cls-1" d="M66.92,91.41c-.03.18-.06.36-.09.53-.08-.03-.15-.07-.23-.1.11-.14.22-.28.33-.42,0,0-.01-.01-.01-.01Z"/><polygon class="cls-1" points="32.82 86.01 32.9 86.05 32.84 85.99 32.82 86.01"/><path class="cls-2" d="M168.43,97.64c-.23.48-.37.92-.63,1.27-.8,1.06-1.64,2.09-2.5,3.11-.1.13-.36.12-.55.18-.12-.41-.24-.81-.4-1.31-.18.09-.45.23-.72.36-.12-.14-.24-.27-.36-.41.41-.33.83-.66,1.24-1,.66-.56,1.56-1,1.92-1.71.47-.93.94-.95,1.99-.5Z"/><path class="cls-2" d="M169.11,86.76c.56.05,1.13.11,1.69.16,0,.14-.01.28-.02.42h-1.7c.01-.19.02-.39.03-.58Z"/><path class="cls-1" d="M168.06,95.98c.54.17,1.09.31,1.6.55.06.03-.13.59-.24,1.06-.62-.47-1.09-.83-1.56-1.18.07-.14.13-.28.2-.42Z"/><path class="cls-1" d="M170.95,93.13l.79.63c-.11.13-.21.26-.32.39-.26-.22-.53-.45-.79-.67.11-.12.22-.23.33-.35Z"/><path class="cls-1" d="M173.57,63.02c.11.24.22.49.34.73-.11-.24-.22-.49-.34-.73Z"/><path class="cls-1" d="M173.09,66.88c-.22-.13-.44-.25-.66-.38l.1-.22c.24.09.48.18.72.28l-.17.33Z"/><path class="cls-1" d="M171.51,73.25c-.05-.31-.09-.62-.14-.92.05.31.09.62.14.92Z"/><path class="cls-1" d="M174.51,67.29c-.12-.23-.24-.47-.36-.7.09-.04.24-.12.25-.11.13.18.24.38.35.57l-.24.23Z"/><path class="cls-1" d="M174.75,67.06c.03.11.06.22.09.32-.11-.03-.22-.06-.33-.09.08-.08.16-.15.24-.23Z"/><polygon class="cls-1" points="177.95 83.65 177.92 83.57 178.01 83.58 177.95 83.65"/><path class="cls-1" d="M167.8,94.41s.01.07,0,.1c-.02.03-.06.03-.09.05,0-.06,0-.13,0-.19.03.02.06.03.09.05Z"/><path class="cls-1" d="M87.8,30.64c.15.25.35.43.32.55-.03.14-.26.33-.41.33-.12,0-.34-.24-.33-.37,0-.14.22-.28.42-.51Z"/><path class="cls-5" d="M136.74,46.54l-.06-.65c.06,0,.12-.02.18-.02l.1.65c-.07,0-.15.02-.22.03Z"/><path class="cls-5" d="M133.58,50.11c-.03-.19-.06-.39-.09-.58l.23-.03c.03.19.05.39.08.58l-.22.03Z"/><path class="cls-5" d="M137.02,34.4c.02-.22.04-.45.06-.67.07.02.13.04.2.06l-.27.59.02.02Z"/><path class="cls-5" d="M137,34.38c-.04.08-.08.15-.11.23-.03-.05-.06-.1-.09-.14.08-.02.15-.04.23-.06,0,0-.02-.02-.02-.02Z"/><path class="cls-5" d="M170.75,71.36c-.04-.07-.08-.13-.13-.2.06.05.13.09.19.14,0,0-.06.06-.06.06Z"/><path class="cls-2" d="M111.57,42.62c.29-.35.58-.71.87-1.06.59-.89,2.52-.63,2.01-2.82.42.39.79,1.01,1.27,1.1.49.1,1.09-.32,1.71-.54-.1.56-.18.96-.32,1.72-.77.06-1.8.15-2.84.23,0,.1,0,.21.01.31.26,0,.58-.09.77.02.41.24.75.59,1.12.89-.41.18-.8.48-1.23.53-1.35.16-2.71.22-4.06.32.23-.23.45-.46.68-.69Z"/><path class="cls-2" d="M112.47,36.02c1.44-.26,2.92-1.98,4.4.68.08-.26.17-.52.25-.78-.21-.61-.42-1.22-.62-1.83.09-.09.18-.18.27-.26.84,1.12,1.69,2.25,2.56,3.41-2.33-.41-4.6-.81-6.86-1.21Z"/><path class="cls-1" d="M118.86,27.07c-.43.66-.86,1.32-1.35,2.09-1.18-1.38-.7-2.26.22-3.02.44.36.8.66,1.15.95,0,0-.02-.02-.02-.02Z"/><path class="cls-2" d="M108.14,44.88c1.02.16,2.04.32,3.06.48-.06.26-.12.53-.19.79-1.25-.38-2.5-.77-3.74-1.15.05-.04.09-.08.14-.13.24,0,.49,0,.73,0Z"/><path class="cls-1" d="M111.57,42.62l-.68.69c-.31.29-.62.58-1.13,1.06-.32-.45-1-1.19-.91-1.3.73-.87,1.67-1.21,2.72-.46Z"/><path class="cls-1" d="M105.8,45.21h.75c-.03.1-.06.2-.09.3-.22-.1-.45-.19-.67-.29,0,0,.01-.01.01-.01Z"/><path class="cls-1" d="M108.14,44.88c-.24,0-.49,0-.73,0,0-.21,0-.43-.01-.64.25.22.49.43.74.65Z"/><path class="cls-1" d="M116.63,25.22c.4.03.61.04.81.05-.13.08-.25.19-.38.23-.05.02-.15-.1-.42-.28Z"/><path class="cls-2" d="M111.97,40.64s-.08.04-.12.05c0-.04.01-.09.02-.13.03.03.07.05.1.08Z"/><path class="cls-1" d="M120.11,32.47c-.05.07-.1.14-.14.21.06-.06.11-.12.17-.19,0,0-.02-.03-.02-.03Z"/><path class="cls-5" d="M132.48,70.6c-.01.18-.02.35-.04.53-.05,0-.1,0-.15,0,0-.18.02-.35.03-.53.05,0,.11,0,.16,0Z"/><path class="cls-5" d="M89.53,75.81c.05.04.11.07.16.11-.03,0-.07,0-.09-.01-.03-.03-.04-.08-.06-.12,0,0-.02.02-.02.02Z"/><path class="cls-5" d="M30.93,86.95c.07.04.14.08.21.12-.07-.04-.14-.08-.21-.12h0Z"/></svg>