<?xml version="1.0" encoding="UTF-8"?><svg id="Layer_1" xmlns="http://www.w3.org/2000/svg" viewBox="0 0 198.35 192.99"><defs><style>.cls-1{fill:#f1f5f6;}.cls-1,.cls-2,.cls-3,.cls-4,.cls-5{stroke-width:0px;}.cls-2{fill:#26408e;}.cls-3{fill:#e94225;}.cls-4{fill:#fcf5f3;}.cls-5{fill:#2e428f;}</style></defs><path class="cls-3" d="M77.09,78.05c.55-.52,1.1-1.04,1.65-1.56.35-.32.7-.64,1.05-.96.6-.56,1.19-1.13,1.79-1.69.22-.19.43-.38.65-.57.08-.07.15-.15.23-.22.37-.34.74-.68,1.11-1.02,0,0-.02.02-.02.02.1.02.2.04.29.08-.3.86-.59,1.72-1.05,3.06,4.64-2.97,8.97-5.51,13.93-6.56,1.33,2.16-1.08,3.36-1.08,4.78-3.32,2.04-6.49,3.99-9.66,5.94.05.17.11.34.16.51,2.67.88,5.32,1.78,8,2.61,1.08.34,2.21.5,3.32.75-.2.17-.4.34-.6.51-.55.54-1.1,1.08-1.66,1.62-.1.08-.2.16-.3.24,0,0-.09-.02-.09-.02l-.03.1c-.15.15-.3.3-.45.45,0,0-.11.02-.11.02v.1c-.08.1-.18.19-.27.29,0,0-.08-.03-.08-.03v.09c-.11.01-.18.07-.22.18,0,0-.13.02-.13.02l-.03.13c-.09,0-.14.06-.15.15,0,0-.13.03-.13.03l-.03.13c-.1.02-.16.07-.18.17,0,0-.12.02-.12.02l-.03.12c-.09,0-.14.04-.16.13-.07.06-.14.13-.22.19-.07,0-.14.02-.21.04-.67-.08-1.4-.02-2.01-.27-2.35-.97-4.65-2.07-7-3.03-.51-.21-1.17-.04-1.76-.04.13.52.19,1.07.41,1.56,1.93,4.37,3.63,8.81,4.19,13.6.15,1.29.82,2.69-.75,3.64-.41.25-.92.88-1.14.78-.5-.23-1.06-.72-1.22-1.23-.85-2.72-1.49-5.51-2.39-8.21-.68-2.06-1.64-4.04-2.47-6.05-.19-.01-.37-.02-.56-.03-1.99,4.7-3.98,9.41-5.94,14.06,4.45,2.96,6.59,6.72,6.73,10.96.01.4-.33,1.05-.65,1.17-.39.14-1.1-.03-1.38-.33-1.52-1.61-2.92-3.34-4.42-4.97-.52-.57-1.21-1-1.85-1.51-.93,1.81-1.64,3.22-2.36,4.62l-.08.06c-.23-.19-.47-.38-.7-.57-.09-.08-.18-.16-.27-.23l-.03-.08s-.08-.01-.08-.01c-.07-.06-.14-.13-.21-.19-.18-.14-.36-.28-.53-.41-.78-.27-1.56-.54-2.33-.81,0,0-.02-.14-.02-.14.65-1.69,1.29-3.38,2-5.21-1.34-.34-2.61-.37-3.5-.97-1.13-.75-2.27-.74-3.48-.9-1.02-.13-1.99-.59-2.96-1.01.01-.01,0,.08,0,.18.23-.04.47-.09.7-.13v-.16c-.23,0-.45,0-.69.11-1.74-.06-3.45-.23-5.45-.43,0,0-.22-.32-.38-.55-.82.15-1.52.32-2.23.38-1.12.1-2.31-.1-3.34.23-1.25.4-2.31,1.35-3.54,1.85-2.56,1.05-4.73,2.53-6.16,4.96-.48.82-1,1.63-1.41,2.49-1.09,2.28-2.21,4.55-3.15,6.9-.25.62-.14,1.74.28,2.2,1.58,1.73,3.36,3.29,5.05,4.92.33.32.81.64.9,1.03.34,1.53.59,3.08.81,4.64.12.87-.45.92-1.1.75-.07-.04-.14-.07-.22-.11.03.08.06.16.1.23-.19.75-.28,1.54-.6,2.22-.15.31-.84.68-1.11.58-1.4-.55-2.73-1.25-4.07-1.89-.17.23-.41.87-.7.89-3.27.23-3.86,3.75-6.26,5.01.1,1.57-1.25,1.9-2.19,2.58-.1-.51-.2-1.01-.3-1.52-.03-1.38-.06-2.75-.08-4.13-.07-.86-.15-1.73-.22-2.59.05-.49.1-.99.14-1.48,1.85-1.99,3.31-4.4,6.02-5.49.28-.11.45-.96.38-1.42-.35-2.6-1.03-5.18-1.15-7.79-.18-4.06,1.84-7.43,3.82-10.84,2.33-4,5.54-6.89,9.73-8.7,2.57-1.11,5.27-1.59,8.11-1.74,4.44-.24,8.76.14,12.94,1.61,2.47.87,4.87,1.97,7.68,3.13.74-1.86,1.51-3.83,2.29-5.79.54-.15,1.08-.3,1.62-.46.11-.14.23-.27.34-.41-.11-.07-.22-.13-.32-.2.18-.82.36-1.64.53-2.45.02-.2.04-.4.06-.6,0-.22-.02-.44-.02-.66.11-.41.23-.83.34-1.24-.02-.86-.03-1.71-.05-2.57.02-.1.04-.21.06-.31.13-.28.26-.57.38-.85.18-.36.36-.72.54-1.08,0,0,.02-.05.02-.05.19-.4.38-.81.57-1.21.09-.07.13-.16.11-.28.06-.11.13-.23.19-.34.04-.11.08-.22.11-.33.06-.1.11-.2.17-.3.05-.12.1-.24.14-.36.1-.2.19-.41.29-.61.08-.04.11-.1.08-.18.13-.14.27-.28.4-.42.39-.35.77-.71,1.16-1.06.09-.08.18-.17.27-.25Z"/><path class="cls-3" d="M160.56,39.23c.2.22.4.43.6.65,0,0-.04.05-.04.05l.05-.03c.1.09.2.18.31.27.11.13.23.26.34.39.07.09.15.18.22.26,0,0-.06.11-.06.11-.75,1.7-1.5,3.39-2.25,5.09.11.1.22.2.34.3.48-.23,1.31-.37,1.4-.71.39-1.46,1.73-1.68,2.71-2.38.19.14.39.28.58.42.1.1.2.2.29.3.11.11.22.22.33.33.1.1.19.21.29.31.12.11.23.23.35.34.09.1.19.21.28.31.42.42.83.83,1.25,1.25.11.12.23.24.34.36,0,0,0,0,0,0-.02.09-.02.19-.01.29-2.59,2.38-5.18,4.75-7.77,7.13-1.66,1.52-3.3,3.05-4.96,4.58l-1.23-.9c-.2-.21-.4-.42-.59-.63-.54-.56-1.07-1.13-1.61-1.69-.18-.19-.36-.38-.53-.57-.26-.08-.52-.16-.78-.23-.51.05-1.02.09-1.54.14,1.12-2.33,2.19-4.69,3.39-6.99.46-.89,1.37-1.55,1.8-2.45.57-1.2.85-2.54,1.3-3.8.17-.49.47-.94.92-1.81-.71.32-.99.36-1.16.53-.61.59-1.12,1.3-1.77,1.83-1.31,1.06-3.75.07-4.4,2.4-.02.06-.19.09-.29.1-.82.05-1.65.09-2.14.12-.7.58-1.22,1.13-1.85,1.51-.86.52-1.86.81-2.68,1.37-1.99,1.34-3.94,2.75-5.85,4.2-2.01,1.54-3.96,3.17-5.93,4.76-1.08.87-2.17,1.74-3.47,2.78-.02.14-.08.64-.14,1.14,1.47-.28,2.85-.67,4.25-.77,1.81-.12,3.63.03,4.97,1.51.55.61.99,1.31,1.48,1.96-.05.2-.1.41-.15.61-.1.03-.15.1-.15.21,0,0-.11.03-.11.03l-.02.12c-.08.88-.15,1.76-.23,2.64-.02.03-.06.07-.06.09.03.06.07.12.11.18.01.2.02.41.04.61.09.44.18.87.28,1.31.05.42.09.84.14,1.26.07.31.13.63.2.94.28,1.71.57,3.43.85,5.14.03.21.06.42.09.64l.13.91c.02.68.04,1.35.06,2.03-.54.56-1.03,1.2-1.64,1.66-1.23.93-2.42,2.12-3.82,2.51-1.09.3-2.39-.25-3.12,1.16-.1.19-.64.17-.99.19-.33.02-.74-.18-.99-.04-1.59.9-3.33.46-4.64-.17-1.7-.81-3.24-2.21-4.46-3.67-1.95-2.33-1.85-2.46-3.1.29-.52,1.15-.89,2.37-1.33,3.55-.63-.6-1.26-1.2-1.89-1.8h0c-.1-.12-.21-.23-.31-.35-.56-.63-1.12-1.25-1.68-1.88-.19-.2-.39-.4-.58-.6l-.02-.02c-.48-.22-.96-.44-1.44-.66.77-2,1.34-4.1,2.35-5.98,1.62-3.02,4.62-5.27,5.05-8.98.04-.33.39-.61.6-.92.06-.01.1-.04.14-.08,0,0,.1.03.1.03.19.1.38.2.57.29.25.15.5.3.99.6v-1.83c.08-.22.16-.44.24-.66.02-.18.05-.36.07-.53.06-.14.12-.27.19-.41.04-.21.07-.43.11-.64.09-.32.18-.64.27-.96.06-.09.08-.19.04-.3.03-.18.06-.37.1-.55.06-.05.1-.11.1-.19.15-.21.31-.41.46-.62.09-.2.18-.4.27-.6,0,0-.01.04-.01.04.12-.33.23-.65.35-.98l-.02.03c.47-.32.99-.58,1.39-.96,1.94-1.86,3.69-3.96,5.81-5.58,2.96-2.28,6.1-4.36,9.33-6.24,2.66-1.56,5.51-2.82,8.36-4.01,2.82-1.17,5.75-2.08,8.63-3.1.3.03.59.06.89.09.42.12.84.23,1.26.35,0,0,.07.03.07.03.09.06.17.12.26.18.22.04.44.09.66.13,1.16.44,2.31.88,3.47,1.32ZM119.83,76.18c1.1.61,1.99,1.5,2.94,1.56,4.24.27,8.09-.75,10.47-4.62.84-1.37,1.69-3.04.44-4.74-10.19,3.21-9.82,4.01-13.84,7.8Z"/><path class="cls-2" d="M20.73,141.04c.94-.68,2.29-1.02,2.19-2.58,2.4-1.26,2.99-4.78,6.26-5.01.29-.02.53-.67.7-.89,1.33.64,2.67,1.33,4.07,1.89.27.11.96-.26,1.11-.58.32-.69.41-1.48.6-2.22.04-.04.08-.08.12-.12.66.17,1.22.13,1.1-.75-.22-1.55-.47-3.11-.81-4.64-.09-.39-.57-.71-.9-1.03-1.69-1.63-3.47-3.18-5.05-4.92-.42-.46-.53-1.58-.28-2.2.93-2.35,2.05-4.62,3.15-6.9.41-.86.93-1.67,1.41-2.49,1.43-2.43,3.6-3.91,6.16-4.96,1.23-.5,2.29-1.45,3.54-1.85,1.03-.33,2.23-.13,3.34-.23.71-.06,1.41-.24,2.23-.38.16.23.39.56.38.55,2,.2,3.71.37,5.43.55.99.31,1.97.77,2.99.9,1.21.15,2.35.14,3.48.9.89.59,2.16.62,3.5.97-.7,1.83-1.35,3.52-2,5.21-.22,0-.43.01-.65.02-.07-.1-.16-.13-.28-.09,0,0,.02.02.01.02-.45-.14-.89-.28-1.34-.42-.63-.16-1.27-.32-1.9-.49-.11-.04-.22-.09-.33-.13-1.38-.37-2.75-.74-4.13-1.11-.1-.02-.2-.05-.3-.07l-.68-.19c-.21-.05-.42-.1-.62-.15-.69.09-1.42.07-2.07.29-1.13.39-2.22.93-3.32,1.41-.46.18-.92.37-1.38.55h-.13s-.1.09-.1.09c-.15.07-.3.15-.45.22h-.11s-.07.07-.07.07c-1.76.2-1.45,1.79-1.92,2.85-.11.31-.21.62-.32.93-.29.75-.57,1.51-.86,2.26-.05.15-.1.3-.15.45-.07.16-.13.33-.2.49-.11.32-.23.65-.34.97-.15.43-.31.85-.46,1.28-.31.88-.62,1.76-.93,2.64-.07.18-.15.36-.23.54h0c-.03.09-.06.18-.08.26-.73,2.01-1.46,4.01-2.19,6.02-.06.67-.13,1.34-.19,2.01.3,7.12.6,14.23.91,21.35l-.32.41c-1.61.08-3.22.17-4.83.25-.31,0-.62,0-.93.01-1.81.09-3.62.17-5.43.26-.63.03-1.26.06-1.89.09-1.35-.01-2.69-.03-4.04-.04-.05-.97-.1-1.93-.15-2.9-.04-1.07-.08-2.14-.12-3.22-.05-.74-.11-1.47-.16-2.21-.04-1.16-.08-2.33-.12-3.49.03-.13.05-.27.08-.4Z"/><path class="cls-2" d="M116.46,64.39c-.21.31-.56.59-.6.92-.44,3.71-3.43,5.96-5.05,8.98-1.01,1.87-1.58,3.98-2.35,5.98-1-.16-1.99-.33-2.99-.49-.32-.04-.64-.08-.95-.12l-2.23-.45c-.53.35-1.06.7-1.59,1.05-.22.21-.44.42-.66.63,0,0,.01-.01.01-.01-.13.11-.25.21-.38.32-.74.68-1.48,1.35-2.22,2.03-1.11-.24-2.24-.41-3.32-.75-2.68-.83-5.34-1.74-8-2.61-.05-.17-.11-.34-.16-.51,3.17-1.95,6.34-3.9,9.66-5.94,0-1.42,2.41-2.62,1.08-4.78-4.96,1.05-9.29,3.58-13.93,6.56.46-1.35.76-2.21,1.05-3.06.21-.24.43-.49.64-.73.32-.3.65-.6.97-.9.12-.12.25-.24.37-.35,0,0-.02.03-.02.03.23-.22.47-.45.7-.67.81-.75,1.62-1.5,2.42-2.26.12-.11.24-.22.36-.33.2-.19.41-.38.61-.57.13-.12.25-.25.38-.37.11,0,.19-.06.21-.17.41-.39.82-.77,1.23-1.16l.03-.02c.28-.28.57-.56.85-.83.39-.23.79-.46,1.18-.69,0,0,.09.05.09.05l.07-.09c.13-.04.26-.07.4-.11.13-.05.27-.1.4-.15,1.03-.35,2.03-.81,3.09-1.02,1.23-.24,2.51-.41,3.75-.35,1.41.06,2.81.41,4.21.63.1.02.21.04.31.05,1.24.23,2.48.46,3.72.69.13.02.25.05.38.07,1.57.3,3.13.59,4.7.89.45.11.9.22,1.36.33,0,0-.02-.02-.02-.02.07.11.15.21.22.32Z"/><path class="cls-2" d="M67.69,112.62c.72-1.41,1.44-2.81,2.36-4.62.64.52,1.32.94,1.85,1.51,1.5,1.63,2.9,3.36,4.42,4.97.28.3,1,.46,1.38.33.32-.11.66-.76.65-1.17-.14-4.24-2.28-8-6.73-10.96,1.96-4.65,3.95-9.35,5.94-14.06.19.01.37.02.56.03.83,2.01,1.79,3.99,2.47,6.05.9,2.7,1.54,5.49,2.39,8.21.16.51.72,1,1.22,1.23.22.1.73-.53,1.14-.78,1.57-.95.9-2.35.75-3.64-.56-4.79-2.26-9.23-4.19-13.6-.21-.48-.28-1.04-.41-1.56.59,0,1.25-.17,1.76.04,2.35.96,4.65,2.07,7,3.03.6.25,1.34.19,2.01.27-.75.86-1.5,1.71-2.25,2.57-.06.07-.07.15-.02.23-.06,1.29-.12,2.59-.18,3.88,0,.22-.02.44-.03.66-.04.32-.07.64-.11.96-.07.09-.08.19-.02.3-.04.96-.09,1.91-.13,2.87l-.05.97c-.08,1.27-.16,2.54-.24,3.82-.02.43-.04.85-.06,1.28-.04.22-.08.44-.12.66,0,.2,0,.39-.01.59-.04.96-.09,1.93-.13,2.89-.08.74-.16,1.47-.23,2.21-.14.12-.28.24-.41.36-.16.08-.32.16-.48.24-1.46.76-2.9,1.58-4.4,2.26-1.21.55-2.49.95-3.75,1.41-.19.07-.38.15-.57.22-.44.2-.88.4-1.32.6-.29.12-.57.24-.86.37-.46.21-.91.42-1.37.62-.16.08-.33.16-.49.24-.14.01-.28.03-.42.04-.12-.07-.23-.15-.35-.22-.04-.1-.1-.14-.21-.13-.14-.11-.28-.22-.42-.34-.4-.31-.79-.62-1.19-.93-.14-.11-.27-.22-.41-.32-.84-.63-1.68-1.25-2.53-1.88-.09-.05-.17-.09-.26-.14.02.05.03.09.05.14-.17-.2-.35-.41-.52-.61l-1.1-1.1Z"/><path class="cls-5" d="M70.08,94.28c-.78,1.96-1.55,3.93-2.29,5.79-2.81-1.15-5.21-2.25-7.68-3.13-4.18-1.47-8.5-1.85-12.94-1.61-2.84.15-5.54.63-8.11,1.74-4.18,1.81-7.39,4.7-9.73,8.7-1.99,3.4-4.01,6.78-3.82,10.84.12,2.61.8,5.19,1.15,7.79.06.47-.1,1.31-.38,1.42-2.71,1.09-4.17,3.5-6.02,5.49.16-2.25.32-4.5.48-6.76.05-.1.1-.2.15-.3.15-.44.3-.87.45-1.31l.45-1.23c.21-.58.42-1.15.63-1.73.07-.18.14-.36.21-.53.08-.21.17-.43.25-.64.03-.1.06-.2.09-.31.2-.56.41-1.12.61-1.68,0,0,.1-.06.1-.06l-.05-.09c.25-.65.5-1.3.75-1.95.07-.23.14-.45.21-.68.12-.35.25-.71.37-1.06.19-.49.38-.98.58-1.48,0,0,0,.02,0,.02.05-.11.1-.22.15-.32.6-1.66,1.2-3.32,1.8-4.97.07-.15.14-.3.21-.46.04-.15.08-.3.12-.46.07-.17.15-.34.22-.5.08-.06.1-.13.07-.23.09-.24.18-.49.27-.73h0c.11-.32.23-.63.34-.95,1.9-3.75,4.64-6.64,8.58-8.27.18-.09.35-.17.53-.26.67-.25,1.35-.5,2.02-.75.38-.18.77-.35,1.16-.53,0,0,.11-.02.12-.02.19-.09.37-.18.56-.26.34-.13.69-.25,1.03-.38.33-.12.65-.24.98-.35.74-.31,1.48-.62,2.22-.93.1-.04.2-.07.3-.11.54-.22,1.07-.43,1.61-.65.14-.06.28-.13.42-.19.49-.07.98-.13,1.47-.2.23-.03.45-.05.68-.08.31-.03.62-.06.93-.1.21,0,.42,0,.63,0,1.38.11,2.76.22,4.15.32.11.04.22.08.33.12.78.2,1.57.39,2.35.59.16.05.33.11.49.16.18.04.36.09.54.13.07.09.13.18.2.27.19.81.21,1.73.61,2.41.47.79,1.13,1.87,2.35,1.17.97-.56,1.8-1.35,2.7-2.04.31.02.62.04.93.06.32.1.64.19.97.29.84.32,1.68.64,2.51.97Z"/><path class="cls-2" d="M114.37,85.58c.44-1.19.81-2.4,1.33-3.55,1.25-2.75,1.14-2.63,3.1-.29,1.23,1.46,2.77,2.86,4.46,3.67,1.3.62,3.05,1.07,4.64.17.24-.14.66.06.99.04.34-.02.89,0,.99-.19.73-1.42,2.02-.86,3.12-1.16,1.4-.39,2.6-1.58,3.82-2.51.61-.46,1.1-1.1,1.64-1.66.03.07.09.11.17.11.52,3.42,1.05,6.84,1.57,10.26l-.25.35-.05.02c-.2.1-.41.2-.61.29-.23.11-.45.23-.68.34-.2.1-.41.19-.61.29-2.45,1.17-4.9,2.34-7.34,3.5-.16.08-.32.17-.49.25l-.09-.02-.06.07c-.22.1-.45.2-.67.3-.2.11-.41.21-.61.32-.14.07-.29.14-.43.21,0,0-.02-.01-.02-.01-.3.14-.59.28-.89.43l-.59.31c-.31.13-.62.27-.93.4-.33.03-.66.05-.98.08-.08-.08-.17-.16-.25-.25-.53-.6-1.06-1.2-1.59-1.8-.21-.23-.41-.46-.62-.7,0,0,.01.01.01.01-.24-.28-.49-.57-.73-.85-.58-.64-1.16-1.29-1.73-1.93-.13-.15-.26-.29-.4-.44,0,0,.03.03.03.03-.15-.17-.3-.34-.45-.51-.23-.26-.47-.53-.7-.79-.49-.54-.98-1.09-1.46-1.63-.7-.8-1.41-1.61-2.11-2.41-.06-.07-.13-.14-.19-.21-.13-.14-.25-.28-.38-.43,0,0,.06-.11.06-.11Z"/><path class="cls-2" d="M137.3,63.35c-.49-.66-.93-1.36-1.48-1.96-1.34-1.48-3.17-1.63-4.97-1.51-1.4.09-2.78.49-4.25.77.06-.5.12-.99.14-1.14,1.3-1.04,2.39-1.91,3.47-2.78,1.98-1.59,3.92-3.22,5.93-4.76,1.91-1.46,3.86-2.86,5.85-4.2.83-.56,1.83-.85,2.68-1.37.63-.38,1.16-.93,1.85-1.51.49-.03,1.31-.07,2.14-.12.1,0,.28-.04.29-.1.65-2.32,3.09-1.34,4.4-2.4.65-.53,1.16-1.23,1.77-1.83.17-.16.44-.21,1.16-.53-.45.87-.74,1.32-.92,1.81-.45,1.26-.73,2.6-1.3,3.8-.43.9-1.34,1.56-1.8,2.45-1.2,2.29-2.27,4.65-3.39,6.99-.13.07-.26.15-.39.22-.41.1-.83.21-1.24.31-.22.05-.43.1-.65.14-.21.06-.42.12-.63.18-.54.13-1.07.25-1.61.38-.21.07-.43.14-.64.21-.54.39-1.08.79-1.63,1.18-.1.13-.21.26-.31.39-.22.28-.44.56-.66.83-.11.14-.22.29-.33.43-.09.11-.18.22-.26.34-.09.11-.18.21-.26.32-.07.09-.14.18-.2.27-.09.11-.18.22-.26.33-.09.1-.17.2-.26.29,0,0-.03-.02-.03-.02h.05c-.32.42-.65.85-.97,1.27-.1.13-.21.26-.31.39,0,0,0-.01,0-.01-.32.31-.64.63-.96.94Z"/><path class="cls-2" d="M155.15,58.84c1.65-1.53,3.3-3.06,4.96-4.58,2.59-2.38,5.18-4.75,7.77-7.13.11.02.22.04.32.07,0,0-.02-.02-.02-.02.11.12.22.24.33.36,0,0-.02-.02-.02-.02.22.22.44.44.65.65,0,0-.02-.02-.02-.02.22.24.44.47.65.71.25.27.51.54.76.81.2.2.39.4.59.6l.04.04c.12.14.24.29.36.43,0,.12.06.2.17.23.12.16.23.31.35.47,0,0,.02.06.03.06.05.14.09.29.13.43-1.14.26-1.5,1.19-1.87,2.14-.31.81-.69,1.6-1.02,2.41-1.6,3.83-3.19,7.67-4.8,11.5-.47,1.1-1.05,2.15-1.52,3.25-.2.46.24,1.31-.81,1.17l-.88-1.74s.02.01.02.01c.04-.12,0-.2-.11-.25-.18-.44-.36-.87-.53-1.31-.04-.09-.08-.19-.12-.28-.1-.25-.19-.5-.29-.75,0,0,.07-.03.07-.03l-.09-.03c-.23-.58-.46-1.16-.7-1.75-.07-.14-.13-.27-.2-.41.03-.1,0-.17-.08-.22-.07-.16-.15-.32-.22-.48-.1-.27-.21-.54-.31-.82-.03-.1-.07-.2-.1-.29-.19-.43-.37-.86-.56-1.29-.09-.22-.18-.44-.27-.65-.43-.53-.85-1.06-1.28-1.59-.12-.12-.24-.24-.36-.37,0,0,.03.02.03.02-.22-.23-.45-.46-.67-.69-.08-.08-.17-.17-.25-.25-.04-.12-.09-.24-.13-.37Z"/><path class="cls-2" d="M177.38,63.3c.59,1.52,1.18,3.03,1.77,4.55.27.67.55,1.34.82,2.01-.03.1,0,.18.09.23.07.16.14.31.21.47l-.02.1.07.07c.04.12.08.25.12.37.12.33.24.66.41,1.14-.22.18-.53.43-.83.68-.34.11-.68.23-1.02.34-.52.21-1.03.42-1.55.63-.24.1-.49.2-.73.31-.19.07-.39.13-.58.2-.33.15-.67.3-1,.45h-.13s-.1.07-.1.07c-.17.02-.34.04-.51.06-.26-.7-.53-1.4-.7-1.87-.7.69-1.27,1.19-1.77,1.75-.42.48-.76,1.05-1.14,1.57-.65.32-1.29.64-1.94.96-.18.09-.36.18-.54.26-.67.25-1.34.51-2,.76-.17.07-.34.15-.51.22-.15.06-.3.11-.45.17-.11-.05-.21-.03-.29.07-.29-.27-.58-.54-.87-.81.04-.03.11-.05.13-.09,2.21-4.8,4.41-9.6,6.64-14.39,1.11-2.38,2.25-4.74,3.38-7.11.09.07.18.14.27.22.74,1.82,1.49,3.64,2.23,5.46.08.17.16.34.24.51,0,0,.03.12.03.12.09.18.18.37.27.55Z"/><path class="cls-3" d="M174.35,56.44c-1.13,2.37-2.28,4.73-3.38,7.11-2.22,4.79-4.42,9.59-6.64,14.39-.02.04-.08.06-.13.09-.55-1.38-1.11-2.75-1.66-4.13-.1-.26-.21-.51-.31-.77.05-.08.03-.15-.06-.19,0-.19.01-.38.02-.57,1.05.14.61-.71.81-1.17.47-1.1,1.06-2.15,1.52-3.25,1.62-3.83,3.2-7.67,4.8-11.5.34-.81.71-1.6,1.02-2.41.36-.95.72-1.88,1.87-2.14.26.34.51.68.77,1.01.14.3.29.61.43.91.07.16.15.32.22.49.06.15.12.31.18.46.16.38.31.76.47,1.14.06.17.13.33.19.5,0,0-.11.01-.11.01Z"/><path class="cls-5" d="M153.96,37.14c-2.88,1.02-5.81,1.93-8.63,3.1-2.85,1.18-5.7,2.45-8.36,4.01-3.23,1.89-6.37,3.97-9.33,6.24-2.12,1.63-3.87,3.72-5.81,5.58-.4.38-.92.64-1.39.96.42-.64.84-1.28,1.26-1.93.07-.09.14-.17.21-.26.06-.08.13-.17.19-.25.44-.56.88-1.12,1.32-1.68,1.35-1.72,2.69-3.44,4.04-5.17.07-.09.15-.19.22-.28.67-.85,1.34-1.71,2.01-2.56.09-.11.18-.22.26-.33.34-.41.68-.83,1.02-1.24.14-.1.28-.2.42-.3.1.01.18-.03.22-.12.11-.08.22-.15.33-.23.1-.05.2-.1.29-.15.22-.16.44-.33.66-.49,1.59-.75,3.18-1.5,4.76-2.25.18-.06.37-.13.55-.19.24-.04.48-.08.72-.12.18-.07.36-.13.55-.2.35-.07.7-.14,1.06-.21.16-.05.32-.11.48-.16,2.5-.62,5.01-1.24,7.51-1.86.1-.03.2-.06.3-.1.63-.15,1.25-.3,1.88-.45.21-.07.43-.14.64-.2.53.11,1.05.22,1.58.33l.95.3c.02.07.05.14.09.2Z"/><path class="cls-3" d="M65.67,92.96c-.89.69-1.73,1.48-2.7,2.04-1.22.7-1.88-.38-2.35-1.17-.41-.68-.42-1.6-.61-2.41.72.13,1.45.26,2.17.39,0,0,.1,0,.1,0,.28.09.56.18.84.27l.07.07s.09-.04.1-.03c.37.1.74.21,1.11.31l.07.06s.08-.05.08-.05c.27.09.53.18.8.27.11.09.22.18.32.27Z"/><path class="cls-5" d="M164.18,43.23c-.98.69-2.32.92-2.71,2.38-.09.34-.91.48-1.4.71-.11-.1-.22-.2-.34-.3.75-1.7,1.5-3.39,2.25-5.09.16.08.32.17.48.25.16.19.33.38.49.56.06.07.13.15.19.22.13.13.26.26.38.38.08.09.17.17.25.26.13.21.26.41.4.62Z"/><path class="cls-3" d="M170.8,76.41c.37-.53.71-1.09,1.14-1.57.5-.57,1.07-1.07,1.77-1.75.18.47.44,1.17.7,1.87,0,.06,0,.12.02.18-1.21.42-2.42.85-3.63,1.27Z"/><path class="cls-1" d="M160.56,39.23c-1.16-.44-2.31-.88-3.47-1.32h3.57c-.04.52-.07.92-.1,1.32Z"/><path class="cls-1" d="M43.67,113.09c.47-1.06.16-2.65,1.92-2.85-.64.95-1.28,1.9-1.92,2.85Z"/><path class="cls-1" d="M105.47,79.78c1,.16,1.99.33,2.99.49.48.22.96.44,1.44.66-1.48-.38-2.95-.77-4.43-1.15Z"/><path class="cls-1" d="M123.41,52.92c-.44.56-.88,1.12-1.32,1.68-.78-.3-.91-.73-.14-1.17.44-.25.96-.35,1.45-.51Z"/><path class="cls-1" d="M21.04,150.36c.05.97.1,1.93.15,2.9-.05-.97-.1-1.93-.15-2.9Z"/><path class="cls-1" d="M95.19,85.36c.55-.54,1.1-1.08,1.66-1.62.08.35.16.7.28,1.21-.67.14-1.31.27-1.94.41Z"/><path class="cls-1" d="M162.18,72.38c0,.19-.01.38-.02.57-1.7-.23-.67-1.5-.87-2.31.29.58.59,1.16.88,1.74Z"/><path class="cls-4" d="M155.15,58.84c.04.12.09.24.13.37-.49.02-.98.03-1.48.05l.11-1.31,1.23.9Z"/><path class="cls-4" d="M151.71,55.62c.54.56,1.07,1.13,1.61,1.69-1-.12-1.92-.32-1.61-1.69Z"/><path class="cls-1" d="M114.37,85.58s-.06.11-.06.11c-1.15-.11-1.7-.81-1.83-1.9.63.6,1.26,1.2,1.89,1.8Z"/><path class="cls-1" d="M116.99,88.72c.49.54.97,1.09,1.46,1.63-1.22.12-1.56-.56-1.46-1.63Z"/><path class="cls-1" d="M63.45,110.37c.78.27,1.56.54,2.33.81-.78-.27-1.56-.54-2.33-.81Z"/><path class="cls-1" d="M20.76,144.93c.05.74.11,1.47.16,2.21-.05-.74-.11-1.47-.16-2.21Z"/><path class="cls-1" d="M25.23,153.3c.63-.03,1.26-.06,1.89-.09-.63.03-1.26.06-1.89.09Z"/><path class="cls-1" d="M88.69,111.79c.08-.74.16-1.47.23-2.21-.08.74-.16,1.47-.23,2.21Z"/><path class="cls-1" d="M179.98,69.86c-.27-.67-.55-1.34-.82-2.01,1.23.28.79,1.24.82,2.01Z"/><path class="cls-1" d="M42.49,116.28c.29-.75.57-1.51.86-2.26-.29.75-.57,1.51-.86,2.26Z"/><path class="cls-1" d="M102.28,79.22l2.23.45-2.23-.45Z"/><path class="cls-1" d="M20.73,141.04c-.03.13-.05.27-.08.4-.07-.64-.15-1.28-.22-1.92.1.51.2,1.01.3,1.52Z"/><path class="cls-1" d="M91.73,64.64c-.41.39-.82.77-1.23,1.16-.12-.96.39-1.24,1.23-1.16Z"/><path class="cls-1" d="M67.69,112.62l1.1,1.1c-.34.07-.68.13-1.18.23,0-.49,0-.88,0-1.27,0,0,.08-.06.08-.06Z"/><path class="cls-1" d="M20.12,132.79c.07.86.15,1.73.22,2.59-.07-.86-.15-1.73-.22-2.59Z"/><path class="cls-1" d="M83.55,72.03c-.37.34-.74.68-1.11,1.02-.47-.67-.41-.73,1.11-1.02Z"/><path class="cls-4" d="M137.3,63.35c.32-.31.64-.63.96-.94-.37.52-.74,1.04-1.12,1.56.05-.21.1-.41.15-.62Z"/><path class="cls-1" d="M138.62,80.2c-.08,0-.14-.03-.17-.11-.02-.68-.04-1.35-.06-2.03.08.71.15,1.43.23,2.14Z"/><path class="cls-1" d="M172.97,52.94c-.26-.34-.51-.68-.77-1.01-.04-.14-.09-.29-.13-.43,1.54-.29.71.89.9,1.44Z"/><path class="cls-1" d="M61.19,109.75c.45.14.89.28,1.34.42-.47-.07-1.26.9-1.34-.42Z"/><path class="cls-1" d="M89.19,105.45c.02-.43.04-.85.06-1.28-.02.43-.04.85-.06,1.28Z"/><path class="cls-1" d="M62.18,91.8c-.72-.13-1.45-.26-2.17-.39-.07-.09-.13-.18-.2-.27.79.22,1.58.44,2.37.65Z"/><path class="cls-1" d="M84.47,71.4c-.21.24-.43.49-.64.73-.1-.04-.19-.06-.29-.08.1-.52.01-1.31.94-.65Z"/><path class="cls-1" d="M41.34,119.47c.15-.43.31-.85.46-1.28-.15.43-.31.85-.46,1.28Z"/><path class="cls-1" d="M37.72,130.93c.06-.67.13-1.34.19-2.01-.06.67-.13,1.34-.19,2.01Z"/><path class="cls-1" d="M119.85,58.55c-.15.21-.31.41-.46.62.15-.4.29-.8.43-1.2,0,.19.02.38.03.57Z"/><path class="cls-1" d="M32.55,152.95c.31,0,.62,0,.93-.01-.31,0-.62,0-.93.01Z"/><path class="cls-1" d="M125.88,97.51c.31-.13.62-.27.93-.4-.31.13-.62.27-.93.4Z"/><path class="cls-4" d="M72.64,88.25c-.11.41-.23.83-.34,1.24.11-.41.23-.83.34-1.24Z"/><path class="cls-1" d="M89.48,100.35l.05-.97-.05.97Z"/><path class="cls-1" d="M25.55,111.5c-.19.49-.38.98-.58,1.48.19-.49.38-.98.58-1.48Z"/><path class="cls-4" d="M74.17,82.18c-.19.4-.38.81-.57,1.21.19-.4.38-.81.57-1.21Z"/><path class="cls-1" d="M116.27,64.09c-.45-.11-.9-.22-1.36-.33.43.2,1.19-.95,1.36.33Z"/><path class="cls-1" d="M174.27,55.93c-.16-.38-.31-.76-.47-1.14.16.38.31.76.47,1.14Z"/><path class="cls-1" d="M21.8,121.72l-.45,1.23.45-1.23Z"/><path class="cls-1" d="M147.23,55.49c.41-.1.83-.21,1.24-.31-.41.1-.83.21-1.24.31Z"/><path class="cls-1" d="M156.1,37.58c-.42-.12-.84-.23-1.26-.35.42.12.84.23,1.26.35Z"/><path class="cls-1" d="M46.45,109.86c.46-.18.92-.37,1.38-.55-.46.18-.92.37-1.38.55Z"/><path class="cls-4" d="M79.78,75.53c-.35.32-.7.64-1.05.96.35-.32.7-.64,1.05-.96Z"/><path class="cls-4" d="M71.72,93.21c.11.07.22.13.32.2-.11.14-.23.27-.34.41,0-.2.01-.41.02-.61Z"/><path class="cls-1" d="M41.01,93.09c-.39.18-.77.35-1.16.53.38-.18.77-.35,1.16-.53Z"/><path class="cls-1" d="M121.71,94.01c.24.28.49.57.73.85-.24-.28-.49-.57-.73-.85Z"/><path class="cls-1" d="M92.61,63.78c-.28.28-.57.56-.85.83.28-.28.57-.56.85-.83Z"/><path class="cls-4" d="M73.57,83.44c-.18.36-.36.72-.54,1.08.18-.36.36-.72.54-1.08Z"/><path class="cls-1" d="M119.14,60.21c-.09.32-.18.64-.27.96.09-.32.18-.64.27-.96Z"/><path class="cls-1" d="M127.39,96.8c.3-.14.59-.28.89-.43.15,1.08-.46.57-.89.43Z"/><path class="cls-1" d="M38.3,152.69l.32-.41.09.52-.42-.11Z"/><path class="cls-1" d="M86.5,69.5c-.23.22-.47.45-.7.67.23-.22.47-.45.7-.67Z"/><path class="cls-4" d="M137,69.16c-.09-.44-.18-.87-.28-1.31.09.44.18.87.28,1.31Z"/><path class="cls-1" d="M122.43,94.85c.21.23.41.46.62.7-.21-.23-.41-.46-.62-.7Z"/><path class="cls-1" d="M89.79,95.26c0-.22.02-.44.03-.66,0,.22-.02.44-.03.66Z"/><path class="cls-1" d="M118.5,62.76c-.08.22-.16.44-.24.66.08-.22.16-.44.24-.66Z"/><path class="cls-1" d="M169.14,48.17c-.22-.22-.43-.44-.65-.65.22.22.43.44.65.65Z"/><path class="cls-1" d="M151.35,36.32c-.21.07-.43.14-.64.2.21-.07.43-.14.64-.2Z"/><path class="cls-1" d="M169.77,48.86c-.22-.24-.44-.47-.65-.71.22.24.44.47.65.71Z"/><path class="cls-4" d="M157.81,62.09c.09.22.18.44.27.65-.09-.22-.18-.44-.27-.65Z"/><path class="cls-4" d="M72.32,90.16c-.02.2-.04.4-.06.6.02-.2.04-.4.06-.6Z"/><path class="cls-1" d="M51.96,89.82c-.21,0-.42,0-.63,0,.21,0,.42,0,.63,0Z"/><path class="cls-1" d="M50.4,89.92c-.23.03-.45.05-.68.08.23-.03.45-.05.68-.08Z"/><path class="cls-4" d="M150.4,54.82c.26.08.52.16.78.23-.26-.08-.52-.16-.78-.23Z"/><path class="cls-4" d="M155.53,59.46c.22.23.45.46.67.69-.22-.23-.45-.46-.67-.69Z"/><path class="cls-1" d="M53.23,107.6l.62.15-.62-.15Z"/><path class="cls-1" d="M145.95,55.82c.21-.06.42-.12.63-.18-.21.06-.42.12-.63.18Z"/><path class="cls-1" d="M24.61,114.04c-.07.23-.14.45-.21.68.07-.23.14-.45.21-.68Z"/><path class="cls-1" d="M143.71,56.4c.21-.07.43-.14.64-.21-.21.07-.43.14-.64.21Z"/><path class="cls-1" d="M118.74,59.02c-.09.03-.2.12-.26.09-.06-.03-.08-.17-.11-.25.09-.03.2-.12.26-.09.06.03.08.17.11.26Z"/><path class="cls-5" d="M120.46,57.01c-.12.33-.23.65-.35.98.12-.33.23-.65.35-.98Z"/><path class="cls-1" d="M76.9,117.26c.29-.12.57-.24.86-.37-.29.12-.57.24-.86.37Z"/><path class="cls-1" d="M171.52,50.74c-.12-.14-.24-.29-.36-.43.2.05.39.09.59.14-.07.1-.15.2-.22.29Z"/><path class="cls-1" d="M171.12,50.27c-.2-.2-.39-.4-.59-.6.2.2.39.4.59.6Z"/><path class="cls-1" d="M132.89,42.06c-.22.16-.44.33-.66.49.22-.16.44-.33.66-.49Z"/><path class="cls-4" d="M137.33,71.37c-.07-.31-.13-.63-.2-.94.07.31.13.63.2.94Z"/><path class="cls-1" d="M179.01,73.24c.34-.11.68-.23,1.02-.34l-1.02.34Z"/><path class="cls-4" d="M82.21,73.27c-.22.19-.43.38-.65.57.22-.19.43-.38.65-.57Z"/><path class="cls-1" d="M175.15,74.82c.33-.15.67-.3,1-.45-.33.15-.67.3-1,.45Z"/><path class="cls-1" d="M28.73,102.9l-.34.94.34-.94Z"/><path class="cls-1" d="M153.87,36.94l-.95-.3.95.3Z"/><path class="cls-1" d="M100.03,80.89c.22-.21.44-.42.66-.63-.22.21-.44.42-.66.63Z"/><path class="cls-1" d="M109.92,80.95c.19.2.39.4.58.6-.19-.2-.39-.4-.58-.6Z"/><path class="cls-1" d="M67.57,93.31c-.32-.1-.64-.19-.97-.29.32.1.64.19.97.29Z"/><path class="cls-1" d="M43.7,92.07c-.33.12-.65.24-.98.35.33-.12.65-.24.98-.35Z"/><path class="cls-1" d="M64.4,92.41c-.37-.1-.74-.21-1.11-.31.37.1.74.21,1.11.31Z"/><path class="cls-1" d="M65.35,92.69c-.27-.09-.53-.18-.8-.27.26.09.53.18.8.27Z"/><path class="cls-1" d="M119.58,91.63c.13.15.26.29.4.44-.13-.15-.26-.29-.4-.44Z"/><path class="cls-1" d="M63.12,92.06c-.28-.09-.56-.18-.84-.27.28.09.56.18.84.27Z"/><path class="cls-1" d="M137.99,91.75c.2-.1.41-.19.61-.29-.2.1-.41.19-.61.29Z"/><path class="cls-1" d="M119.16,91.15c.15.17.3.34.45.51-.15-.17-.3-.34-.45-.51Z"/><path class="cls-1" d="M139.28,91.12c.2-.1.41-.2.61-.29-.2.1-.41.2-.61.29Z"/><path class="cls-1" d="M56.43,90.26c-.11-.04-.22-.08-.33-.12.11.04.22.08.33.12Z"/><path class="cls-1" d="M129.34,95.87c.22-.1.45-.2.67-.3-.22.1-.45.2-.67.3Z"/><path class="cls-4" d="M75.18,79.96c-.1.2-.19.41-.29.61.1-.2.19-.41.29-.61Z"/><path class="cls-1" d="M138.27,77.15c-.03-.21-.06-.42-.09-.64.03.21.06.42.09.64Z"/><path class="cls-1" d="M176.73,74.18c.24-.1.49-.2.73-.31-.24.1-.49.2-.73.31Z"/><path class="cls-1" d="M162.22,73.14c.1.26.21.51.31.77-.1-.26-.21-.51-.31-.77Z"/><path class="cls-1" d="M180.45,71.09c-.04-.12-.08-.25-.12-.37.12.05.24.09.36.14-.08.08-.16.16-.24.23Z"/><path class="cls-1" d="M28.38,103.85c-.09.24-.18.49-.27.73.09-.24.18-.49.27-.73Z"/><path class="cls-1" d="M117.27,64.64c-.19-.1-.38-.2-.57-.29.19.1.38.2.57.29Z"/><path class="cls-1" d="M139.78,60.49c.09-.11.18-.22.26-.33.07.06.13.12.2.18-.15.05-.31.1-.46.15Z"/><path class="cls-1" d="M89.05,106.69c0-.2,0-.39.01-.59,0,.2,0,.39-.01.59Z"/><path class="cls-1" d="M173.63,54.33c-.07-.16-.15-.32-.22-.49.07.16.15.32.22.49Z"/><path class="cls-1" d="M58.96,109.13c.11.04.22.09.33.13-.11-.04-.22-.09-.33-.13Z"/><path class="cls-1" d="M79.08,116.29c.19-.07.38-.15.57-.22-.19.07-.38.15-.57.22Z"/><path class="cls-1" d="M69.31,114.34s-.03-.09-.05-.14c.09.05.17.09.26.14,0,0-.11.02-.11.02l-.1-.02Z"/><path class="cls-5" d="M119.85,58.55c0-.19-.02-.38-.03-.57l.3-.03c-.09.2-.18.4-.27.6Z"/><path class="cls-1" d="M141.77,57.97c.1-.13.21-.26.31-.39-.1.13-.21.26-.31.39Z"/><path class="cls-1" d="M174.35,56.44s.11-.01.11-.01c.09.05.14.12.15.23-.09-.07-.18-.14-.27-.22Z"/><path class="cls-1" d="M140.78,59.23c.11-.14.22-.28.33-.43-.11.14-.22.28-.33.43Z"/><path class="cls-1" d="M119.28,59.36c-.03.18-.06.37-.1.55.03-.18.06-.37.1-.55Z"/><path class="cls-1" d="M140.25,59.88c.09-.11.18-.21.26-.32-.09.11-.18.21-.26.32Z"/><path class="cls-1" d="M121.9,54.85c-.07.09-.14.17-.21.26.07-.09.14-.17.21-.26Z"/><path class="cls-1" d="M172.05,51.43c-.12-.16-.23-.31-.35-.47.12.16.23.31.35.47Z"/><path class="cls-4" d="M156.18,60.12c.12.12.24.24.36.37-.12-.12-.24-.24-.36-.37Z"/><polygon class="cls-1" points="139.55 60.75 139.5 60.76 139.53 60.78 139.55 60.75"/><path class="cls-1" d="M106.11,62.11c-.1-.02-.21-.04-.31-.05.1.02.21.04.31.05Z"/><path class="cls-1" d="M118.76,61.81c-.06.14-.12.27-.19.41.06-.14.12-.27.19-.41Z"/><path class="cls-4" d="M138.26,62.42c.1-.13.21-.26.31-.39-.1.13-.21.26-.31.39Z"/><path class="cls-1" d="M177.08,62.63c-.08-.17-.16-.34-.24-.51.08.17.16.34.24.51Z"/><path class="cls-1" d="M127.67,47.48c-.07.09-.15.19-.22.28l.22-.28Z"/><path class="cls-1" d="M94.75,62.8c-.13.05-.27.1-.4.15.13-.05.27-.1.4-.15Z"/><path class="cls-1" d="M110.21,62.87c-.13-.02-.25-.05-.38-.07.13.02.25.05.38.07Z"/><path class="cls-1" d="M168.51,47.53c-.11-.12-.22-.24-.33-.36.11.12.22.24.33.36Z"/><path class="cls-1" d="M177.38,63.3c-.09-.18-.18-.37-.27-.55.09.18.18.37.27.55Z"/><path class="cls-1" d="M168.2,47.2c-.11-.02-.22-.04-.32-.07-.01-.1,0-.19.01-.29.1.12.21.23.31.35Z"/><path class="cls-1" d="M167.89,46.85c-.11-.12-.23-.24-.34-.36.11.12.23.24.34.36Z"/><path class="cls-1" d="M93.95,63.06l-.07.09s-.09-.05-.09-.05c.05-.03.1-.04.16-.04Z"/><path class="cls-1" d="M166.31,45.23c-.09-.1-.19-.21-.28-.31.09.1.19.21.28.31Z"/><path class="cls-1" d="M116.46,64.39c-.07-.11-.15-.21-.22-.32.12.08.24.16.36.24-.04.04-.09.07-.14.08Z"/><path class="cls-4" d="M136.86,64.33l.02-.12s.11-.03.11-.03c-.03.07-.07.12-.14.15Z"/><path class="cls-1" d="M158.63,64.03c.03.1.07.2.1.29-.03-.1-.07-.2-.1-.29Z"/><path class="cls-1" d="M129.95,44.59c-.09.11-.18.22-.26.33.09-.11.18-.22.26-.33Z"/><path class="cls-1" d="M159.05,65.14c.07.16.15.32.22.48-.07-.16-.15-.32-.22-.48Z"/><path class="cls-1" d="M165.68,44.58c-.1-.1-.19-.21-.29-.31.1.1.19.21.29.31Z"/><path class="cls-1" d="M165.06,43.94c-.1-.1-.2-.2-.29-.3.1.1.2.2.29.3Z"/><path class="cls-1" d="M90.28,65.98c-.13.12-.25.25-.38.37.13-.12.25-.25.38-.37Z"/><path class="cls-1" d="M159.35,65.84c.07.14.13.27.2.41-.07-.14-.13-.27-.2-.41Z"/><path class="cls-1" d="M89.29,66.92c-.12.11-.24.22-.36.33.12-.11.24-.22.36-.33Z"/><path class="cls-4" d="M136.68,67.24c-.04-.06-.08-.12-.11-.18,0-.02.04-.06.06-.09.05.09.07.18.05.27Z"/><path class="cls-1" d="M131.39,43.05c-.14.1-.28.2-.42.3.14-.1.28-.2.42-.3Z"/><polygon class="cls-1" points="160.24 68 160.33 68.03 160.27 68.06 160.24 68"/><path class="cls-1" d="M131.93,42.69c-.11.08-.22.15-.33.23.11-.08.22-.15.33-.23Z"/><path class="cls-1" d="M160.56,68.81c.04.09.08.19.12.28-.04-.09-.08-.19-.12-.28Z"/><path class="cls-1" d="M163.79,42.61c-.08-.09-.17-.17-.25-.26.08.09.17.17.25.26Z"/><path class="cls-1" d="M85.82,70.14c-.12.12-.25.24-.37.35.12-.12.25-.24.37-.35Z"/><path class="cls-1" d="M180.28,70.56c-.07-.16-.14-.31-.21-.47.07.16.14.31.21.47Z"/><path class="cls-1" d="M163.15,41.97c-.06-.07-.13-.15-.19-.22.1.05.16.12.19.22Z"/><path class="cls-1" d="M161.21,70.4c.11.05.15.14.11.25-.04-.08-.07-.17-.11-.25Z"/><path class="cls-1" d="M162.46,41.18c-.16-.08-.32-.17-.48-.25,0,0,.06-.11.06-.11.14.12.28.24.42.37Z"/><path class="cls-1" d="M161.83,40.55c-.11-.13-.23-.26-.34-.39.11.13.23.26.34.39Z"/><polygon class="cls-1" points="161.18 39.89 161.12 39.92 161.17 39.88 161.18 39.89"/><path class="cls-1" d="M138.2,39.62c-.18.06-.37.13-.55.19.18-.06.37-.13.55-.19Z"/><path class="cls-1" d="M139.47,39.29c-.18.07-.36.13-.55.2.18-.07.36-.13.55-.2Z"/><path class="cls-1" d="M141.01,38.93c-.16.05-.32.11-.48.16.16-.05.32-.11.48-.16Z"/><path class="cls-1" d="M156.43,37.78c-.09-.06-.17-.12-.26-.18.09.06.17.12.26.18Z"/><path class="cls-1" d="M174.43,75.14c-.01-.06-.02-.12-.02-.18.17-.02.34-.04.51-.06-.16.08-.33.16-.49.24Z"/><path class="cls-1" d="M148.83,36.96c-.1.03-.2.06-.3.1.1-.03.2-.06.3-.1Z"/><path class="cls-1" d="M168.32,77.63c.18-.09.36-.18.54-.26-.18.09-.36.18-.54.26Z"/><path class="cls-4" d="M77.09,78.05c-.09.08-.18.17-.27.25.09-.08.18-.17.27-.25Z"/><path class="cls-1" d="M165.81,78.62c.17-.07.34-.15.51-.22-.17.07-.34.15-.51.22Z"/><path class="cls-1" d="M165.07,78.85c.08-.1.17-.12.29-.07-.1.02-.19.05-.29.07Z"/><path class="cls-4" d="M75.66,79.36c-.13.14-.27.28-.4.42.13-.14.27-.28.4-.42Z"/><path class="cls-4" d="M74.75,80.93c-.06.1-.11.2-.17.3.06-.1.11-.2.17-.3Z"/><path class="cls-1" d="M99.67,81.2c.13-.11.25-.21.38-.32-.13.11-.25.21-.38.32Z"/><path class="cls-4" d="M74.47,81.56c-.06.11-.13.23-.19.34.06-.11.13-.23.19-.34Z"/><path class="cls-1" d="M112.17,83.44c.1.11.21.23.31.34-.1-.11-.21-.23-.31-.34Z"/><path class="cls-4" d="M72.65,85.37c-.02.1-.04.21-.06.31-.02-.08-.05-.16-.06-.24,0-.02.08-.05.12-.07Z"/><polygon class="cls-1" points="94.78 85.69 94.8 85.58 94.9 85.6 94.78 85.69"/><path class="cls-1" d="M94.23,86.26v-.1s.1-.02.1-.02c0,.06-.04.11-.1.12Z"/><path class="cls-1" d="M114.7,86.11c.06.07.13.14.19.21-.09-.04-.15-.11-.19-.21Z"/><polygon class="cls-1" points="93.87 86.61 93.87 86.52 93.95 86.55 93.87 86.61"/><path class="cls-1" d="M93.5,86.94l.03-.13s.13-.02.13-.02c-.01.09-.06.14-.15.15Z"/><path class="cls-1" d="M93.17,87.24l.03-.13s.13-.03.13-.03c-.01.1-.07.15-.17.16Z"/><path class="cls-1" d="M92.85,87.56l.03-.12s.12-.02.12-.02c0,.1-.05.15-.15.15Z"/><path class="cls-1" d="M92.48,87.87c.07-.06.14-.13.22-.19-.07.06-.14.13-.22.19Z"/><path class="cls-1" d="M48.25,90.19c-.14.06-.28.13-.42.19.14-.06.28-.13.42-.19Z"/><path class="cls-1" d="M89.99,90.71c-.05-.08-.04-.16.02-.23.08.05.17.09.25.14-.09.03-.18.06-.28.09Z"/><path class="cls-1" d="M139.94,90.81c.08-.12.17-.23.25-.35-.08.12-.17.23-.25.35Z"/><path class="cls-1" d="M46.22,91.03c-.1.04-.2.07-.3.11.1-.04.2-.07.3-.11Z"/><path class="cls-1" d="M59.28,91.02c-.16-.05-.33-.11-.49-.16.16.05.33.11.49.16Z"/><path class="cls-1" d="M41.69,92.8c-.19.09-.37.18-.56.26.19-.09.37-.18.56-.26Z"/><path class="cls-1" d="M37.84,94.37c-.18.09-.35.17-.53.26.18-.09.35-.17.53-.26Z"/><path class="cls-1" d="M130.16,95.51c.16-.08.32-.17.49-.25-.16.08-.32.17-.49.25Z"/><path class="cls-1" d="M89.66,96.51c-.06-.1-.05-.2.02-.3.03.07.06.14.07.21,0,.02-.06.05-.09.08Z"/><path class="cls-1" d="M128.3,96.39c.14-.07.29-.14.43-.21-.14.07-.29.14-.43.21Z"/><path class="cls-1" d="M124.64,97.34c.08.08.17.16.25.25-.08-.08-.17-.16-.25-.25Z"/><path class="cls-1" d="M28.04,104.81c-.07.17-.15.33-.22.5.07-.17.15-.33.22-.5Z"/><path class="cls-1" d="M27.7,105.76c-.07.15-.14.3-.21.46.07-.15.14-.3.21-.46Z"/><path class="cls-1" d="M54.52,107.95l.3.07c-.1-.02-.2-.05-.3-.07Z"/><path class="cls-1" d="M45.77,110.17c.15-.07.3-.15.45-.22-.15.07-.3.15-.45.22Z"/><path class="cls-1" d="M62.51,110.16c.12-.04.21-.01.28.09-.09-.03-.19-.06-.28-.09Z"/><path class="cls-1" d="M25.69,111.19c-.05.11-.1.22-.15.32.05-.11.1-.22.15-.32Z"/><path class="cls-1" d="M66.32,111.6c.07.06.14.13.21.19-.11-.02-.18-.08-.21-.19Z"/><path class="cls-1" d="M66.64,111.88c.09.08.18.16.27.23-.09-.08-.18-.16-.27-.23Z"/><path class="cls-1" d="M87.8,112.39c.16-.08.32-.16.48-.24-.16.08-.32.16-.48.24Z"/><path class="cls-1" d="M72.05,116.23c.14.11.27.22.41.32-.14-.11-.27-.22-.41-.32Z"/><path class="cls-1" d="M23.64,116.67l.05.09s-.1.06-.1.06c0-.06.02-.11.05-.15Z"/><path class="cls-1" d="M42.15,117.22c.07-.16.13-.33.2-.49-.07.16-.13.33-.2.49Z"/><path class="cls-1" d="M74.27,117.95c.12.07.23.15.35.22-.12-.07-.23-.15-.35-.22Z"/><path class="cls-1" d="M75.04,118.12c.16-.08.33-.16.49-.24-.16.08-.33.16-.49.24Z"/><path class="cls-1" d="M22.98,118.5c-.03.1-.06.2-.09.31-.02-.08-.04-.16-.04-.25,0-.02.08-.04.13-.06Z"/><path class="cls-1" d="M22.63,119.45c-.07.18-.14.36-.21.53.07-.18.14-.36.21-.53Z"/><path class="cls-1" d="M40.19,122.65c.08-.18.15-.36.23-.54-.08.18-.15.36-.23.54Z"/><path class="cls-1" d="M40.1,122.91c.03-.08.06-.17.08-.25,0,.09-.03.18-.08.25Z"/><path class="cls-1" d="M20.9,124.26c-.05.1-.1.2-.15.3.05-.1.1-.2.15-.3Z"/><path class="cls-1" d="M73.65,117.48c.14.11.28.22.42.34-.14-.11-.28-.22-.42-.34Z"/><path class="cls-2" d="M55.51,102.03h.66v.16c-.22.04-.45.09-.69.13,0-.1.02-.19.03-.29Z"/><path class="cls-2" d="M35.64,131.63c-.03-.08-.06-.16-.1-.23.07.04.14.07.22.11-.04.04-.08.08-.12.12Z"/><path class="cls-2" d="M119.83,76.18c4.02-3.78,3.66-4.59,13.84-7.8,1.26,1.7.4,3.38-.44,4.74-2.38,3.87-6.23,4.89-10.47,4.62-.94-.06-1.84-.95-2.94-1.56Z"/></svg>