<?xml version="1.0" encoding="UTF-8"?><svg id="Layer_1" xmlns="http://www.w3.org/2000/svg" viewBox="0 0 198.35 153.68"><defs><style>.cls-1{fill:#f1f5f6;}.cls-1,.cls-2,.cls-3,.cls-4,.cls-5,.cls-6{stroke-width:0px;}.cls-2{fill:#26408e;}.cls-3{fill:#233f8e;}.cls-4{fill:#039354;}.cls-5{fill:#0e9358;}.cls-6{fill:#2e428f;}</style></defs><path class="cls-3" d="M136.16,98.94c.07.24.14.48.22.72.09.21.18.42.27.63.12.32.23.65.35.97.16.39.32.77.47,1.16.28.79.57,1.58.85,2.37.05.11.11.22.16.33.23.63.46,1.26.69,1.89.06.14.12.27.18.41,0,0-.02,0-.02,0-.04.11,0,.18.1.23.12.32.24.64.36.95.19.47.37.95.56,1.42.22.59.44,1.17.66,1.76.12.32.23.64.35.96h0c.08.18.16.36.24.53,0,0,0,.09,0,.09.11.28.22.55.33.83,0,0,.03.13.03.13.08.19.16.37.25.56.27.76.6,1.51.78,2.29.06.29-.24.66-.38.99-.1-.16-.2-.31-.31-.47l-.29-.18c-.21-.13-.42-.25-.63-.38-.96-.62-1.92-1.23-2.88-1.85-.22-.1-.43-.21-.65-.31-.13-.1-.26-.2-.4-.3-.18-.14-.35-.27-.53-.41-.13-.08-.26-.16-.38-.24-.1-.07-.2-.15-.3-.22-.23-.14-.45-.27-.68-.41-.19-.12-.38-.24-.57-.35-.5-.32-1-.65-1.51-.97-.14-.09-.28-.18-.42-.27h-.01c-.09-.07-.19-.14-.28-.2-.56-.35-1.12-.71-1.69-1.06-.08,0-.15-.01-.23-.02-1.13-.76-2.26-1.52-3.39-2.28-.36-.19-.72-.39-1.08-.58l-.39-.32-.54-.39-.92-.59c-.13-.09-.25-.17-.38-.26-.38-.24-.75-.48-1.13-.72-.15-.09-.3-.18-.45-.28h0c-.11-.07-.21-.14-.32-.22-.41-.25-.81-.51-1.22-.76-.45-.29-.89-.58-1.34-.87-.03-.09-.1-.13-.2-.11-.14-.09-.29-.19-.43-.28-.51-.33-1.02-.65-1.53-.98-.27.14-.54.28-.81.42-.57-.1-1.14-.21-1.72-.3-2.5-.43-4.83.01-6.56,1.91-1.23,1.34-2.12,3-3.15,4.52-.47.69-.92,1.39-1.53,2.34-.38-1.68-.62-2.91-.95-4.12-1.43-5.32-4.03-9.78-9.24-12.21-3.48-1.62-8.29-1.16-11.42,1.5-3.58,3.04-5.12,7.28-7.28,11.16-1,1.79-1.69,3.75-2.52,5.63-.16,0-.32,0-.49-.01-.71-1.96-1.42-3.92-2.14-5.87-.29-.78-.6-1.56-.9-2.34-.03-.44-.05-.88-.08-1.32.05-.54.09-1.07.14-1.61.08-1.34.15-2.67.23-4.01,0-.16-.02-.32-.03-.47,0,0,0,.01,0,.01-.11-.05-.22-.1-.33-.15-.32.04-.64.08-.97.11-.32.03-.63.06-.95.09-.85.07-1.7.13-2.55.2-.13-.05-.26-.11-.39-.16-.72-1.26-1.66-2.24-3.28-2.32.89.79,1.79,1.58,2.68,2.38-.1.08-.19.16-.29.23-.74.05-1.49.1-2.23.14-.53.06-1.06.12-1.59.17-.64.03-1.28.07-1.92.1-.63.07-1.27.15-1.9.22-.44.02-.87.05-1.31.07-.73.08-1.47.15-2.2.23-.85.07-1.7.15-2.55.22-.32.03-.64.06-.96.09-.85.06-1.7.13-2.55.19-.43.04-.85.09-1.28.13-.85.08-1.7.15-2.55.23-.42.03-.85.06-1.27.1-.32.01-.65.03-.97.04-.1,0-.21.02-.31.02-.32.04-.64.07-.95.11-.53.05-1.06.1-1.59.14-.74.08-1.49.15-2.23.23-.53-.04-1.06-.09-1.69-.14.18-.32.3-.53.42-.75.75-.61,1.49-1.22,2.24-1.83.14-.12.29-.24.43-.35.1.01.16-.03.18-.12.1-.08.19-.17.29-.25.12-.1.23-.19.35-.29.13-.1.26-.21.38-.31.29-.23.58-.47.88-.7.11-.09.23-.18.34-.28h0c.21-.21.43-.43.64-.64,1.71-1.44,3.42-2.89,5.13-4.33.12-.03.24-.07.36-.1.4-.31.81-.61,1.21-.92.14-.11.28-.23.42-.34.17-.13.33-.27.5-.4.22-.19.45-.39.67-.58,0,0-.01,0-.01,0,.16-.13.31-.25.47-.38h.1s.03-.1.03-.1c.22-.17.44-.34.66-.51.14-.1.28-.2.41-.29,0,0,0,.04,0,.04,0,0-.03-.01-.03-.01.74-.61,1.47-1.22,2.2-1.82.12.03.19-.03.2-.16.45-.37.91-.75,1.36-1.12.16-.13.32-.27.48-.4.4-.35.8-.69,1.2-1.04,0,0,.06.1.06.1l-.05-.09c.21-.14.41-.29.62-.43.31-.26.63-.53.94-.79.1-.08.2-.15.3-.23,0,0,.1,0,.1,0l.03-.1c.37-.31.75-.62,1.12-.93.13-.11.26-.21.39-.32.11,0,.19-.05.23-.16.33-.27.65-.55.98-.82.11-.09.22-.17.33-.26.12-.12.24-.23.36-.35,0,0-.02.02-.02.02,0-.14-.02-.27-.03-.41,0,0,.01.01.01.01-.22-.21-.45-.42-.67-.64-.77-.73-1.54-1.46-2.3-2.2,0-.1-.02-.19-.04-.28.3-.56.55-1.16.91-1.68.53-.77,1.45-1.41,1.64-2.23.29-1.29.48-2.35,1.89-2.98.97-.43,1.85-1.23,2.54-2.06,1.04-1.25,1.9-2.66,2.78-4.03.08-.13-.24-.53-.38-.8.01-.1,0-.19-.04-.29.03-.07.07-.13.09-.2,0-.03-.02-.08-.03-.12,0-.04.03-.08.02-.11-.02-.07-.05-.14-.08-.21-.09-.53-.19-1.05-.28-1.58-.04-.21-.08-.41-.12-.62-.07-.33-.13-.65-.2-.98-.04-.21-.08-.41-.11-.62-.12-.33-.25-.67-.37-1-.06-.2-.13-.4-.19-.59l-.59-4.15c-.03-.21-.06-.42-.09-.63-.05-.32-.1-.64-.16-.96-.05-.21-.1-.42-.15-.63l-.16-.96c-.05-.21-.1-.42-.16-.63-.05-.32-.09-.64-.14-.96-.05-.21-.11-.43-.16-.64l-.18-.95c-.04-.21-.09-.43-.13-.64-.06-.33-.12-.67-.17-1-.04-.19-.09-.39-.13-.58-.05-.32-.1-.64-.14-.96-.06-.21-.12-.43-.17-.64-.04-.32-.09-.63-.13-.95-.06-.21-.12-.43-.19-.64-.09-.45-.17-.9-.26-1.35.02-.03.06-.07.06-.09-.03-.06-.07-.11-.11-.17-.08-.42-.17-.84-.25-1.25-.06-.42-.13-.84-.19-1.26-.07-.33-.15-.65-.22-.98-.02-.1-.03-.21-.05-.31-.08-.35-.15-.71-.23-1.06,0,0,.06-.1.06-.1l-.09-.09s0-.02,0-.02c-.01-.11-.03-.21-.04-.32-.09-.43-.18-.85-.28-1.28-.08-.37-.17-.74-.25-1.11-.31-1.73-.61-3.45-.92-5.18-.1-.56-.25-1.11-.38-1.67-.05-.53-.1-1.07-.15-1.6l.08.03s.03-.08.03-.08c.11.03.21.06.32.09.11.09.22.19.33.28.11.09.22.18.33.27.28.24.55.48.83.72.14.11.27.22.41.33,0,0-.03-.02-.03-.02.13.11.25.21.38.32.14.12.28.25.42.37.37.31.74.63,1.11.94,0,0-.02-.02-.02-.02.12.11.25.21.37.32.34.3.68.6,1.02.89.18.15.37.3.55.45,1.08.92,2.16,1.83,3.24,2.75.11.09.21.19.32.28,0,0,.03.02.03.02.29.25.58.5.88.75.1.09.2.17.29.26.65.54,1.3,1.07,1.96,1.61.01.09.02.18.03.27-1.03.2-2.11.21-2.79,1.28-.42.67-1.18,1.13-1.61,1.79-.64.98-1.18,2.04-1.62,3.12-.06.16.62.89.97.9,1.52.06,3.05-.02,4.57-.12.49-.03,1.01-.22,1.43-.48,1.29-.78,2.55-1.62,3.82-2.44.12.03.23.05.35.08.1.09.2.17.3.26.29.25.59.5.88.75,0,0-.03.04-.03.04l.02-.05c.51.43,1.02.86,1.53,1.29.25.21.5.42.75.62.34.3.68.6,1.02.9.18.14.36.28.53.43,0,0-.03-.03-.03-.03.13.11.25.22.38.33.22.19.44.38.66.57.11.09.22.19.33.28.13.11.26.22.39.33.17.15.35.31.52.46,1.83,1.55,3.66,3.1,5.49,4.64.19.16.37.31.56.47.02.11.09.16.2.17.1.08.2.16.3.23.04-.07.08-.15.12-.22.04-.17.08-.34.12-.5.08-.25.17-.51.25-.76.09-.32.17-.65.26-.97.01-.1.03-.2.04-.3.03-.16.06-.32.1-.48.08-.23.16-.46.24-.68.89-.14,1.7-.19,1.38.9.73.25,1.43.45,2.09.73.83.35,1.34.26,1.33-.78,0,0,0,0,0,0,.74.21,1.49.42,2.05.58-.31-1.14-.62-2.25-.92-3.36.12-.03.24-.07.36-.1.34.82.67,1.63,1.12,2.71.14-.48.23-.66.25-.85.19-2.93,1.49-5.32,3.56-7.35.4-.39.62-.96.93-1.45.11.05.22.11.33.16.15.57.3,1.15.45,1.72.01.11.07.17.18.18l.04.11c.11.32.21.64.32.95.07.22.15.44.22.67l.39,1.15c.04.14.07.28.11.42.25.71.5,1.41.74,2.12.04.15.08.29.12.44.08.22.16.43.24.65.13.42.27.84.4,1.26.11.38.21.77.4,1.43.35-.64.56-1.04.78-1.44.44-.74.87-1.48,1.31-2.22.07-.1.14-.2.21-.3,1.34-2.15,2.69-4.3,4.03-6.45,1.87,1.8,4.07,3.33,5.06,5.87,1.18,3.03,2.3,6.09,3.46,9.14.57,1.5,1.16,2.99,1.86,4.78,1.12-2.52,2.03-4.58,2.93-6.63,0,0,.15.03.15.03l.14-.06c.11-.01.22-.03.32-.04.15-.08.3-.15.45-.23.09.04.15.01.19-.07.16-.08.33-.16.49-.23,1.12-.53,2.23-1.07,3.35-1.6.24-.11.47-.22.71-.33,1.14-.54,2.28-1.08,3.41-1.62.17-.09.35-.17.52-.26,0,0,.11-.04.11-.04.18-.09.35-.19.53-.28.89-.43,1.77-.87,2.66-1.3.11-.03.21-.05.32-.08.41-.13.82-.25,1.23-.38,1.21,1.53,2.41,3.07,3.62,4.6-.13.31-.25.61-.38.92-.2.31-.4.63-.59.94-.09.04-.12.1-.09.19-.09.15-.19.29-.28.44-.1.15-.19.31-.29.46,0,0-.09.03-.09.03l.05.06c-.21.34-.41.68-.62,1.02-.08.11-.15.22-.23.33-.24.42-.49.84-.73,1.26-.13.21-.26.42-.38.63-.19.32-.38.63-.58.95-.17.23-.33.45-.5.68-1,1.68-2.01,3.36-3.01,5.04-.12.13-.25.27-.37.4-1.14.57-2.29,1.14-3.43,1.71-.65.32-1.29.68-1.96.97-.59.26-1.4.27-1.79.69-1.9,2.03-3.69,4.17-5.52,6.27-.18.19.64.9-.81,1.3-.28.08-.58.97-.47,1.38.31,1.14-.43,1.41-1.17,1.74-.3.13-.63.21-.97.32-.03-.17-.04-.33-.09-.47-.03-.09-.1-.17-.2-.34-.5.9.33,2.53-1.46,2.18v2.84c-.83-.66-1.77-1.03-2-1.66-.54-1.52-1.04-3.16-1.03-4.76.01-3.75-.6-7.4-1.82-10.89-.44-1.27-1.82-2.58-3.09-3.11-1.95-.81-4.17-.97-6.28-1.41-.24,0-.47,0-.71-.01l-1.22.08c-1.02.33-2.21.43-3.03,1.03-1.64,1.21-3.08,2.7-4.61,4.07-1.07.75-2.24,1.4-3.2,2.27-1.38,1.26-2.62,2.67-3.9,4.03-.65.69-1.26,1.43-1.99,2.26h1.57c.04.16.08.32.12.49-.73.3-1.46.6-2.51,1.03,0-1.02.08-1.6-.01-2.16-.38-2.38-.49-4.88-1.32-7.1-.96-2.61-2.46-5.09-5.66-5.66-.85-.2-1.71-.39-2.56-.59-2.23-.96-4.25.06-6.14.93-1,.46-2.62.5-2.84,2.14-.03.08-.07.15-.1.23.08-.03.16-.07.23-.1,2.48-.83,4.93-1.81,7.62-1.77.18.22.36.44.56.7-.58.21-1.02.37-1.46.53.04.12.07.24.11.36.41-.02.81-.05,1.29-.08-.43.58-.78,1.05-1.24,1.68,1.73.09,3.17.17,4.6.25.07-.11.15-.21.22-.32-.44-.25-.87-.69-1.32-.71-1.25-.04-2.11-.21-1.72-1.82.1-.4-.36-.94-.56-1.41.25-.03.5-.07.74-.1.46.05.93.1,1.2.13.16.5.28.86.4,1.22.51.59,1.04.98,1.88,1.25,1.14.36,3.17.67,1.81,2.85-.08.13.16.46.27.7,1.4,3.06,2.19,6.14.76,9.45-.26.61-.04,1.43-.04,2.37.27-.41.41-.62.57-.86v5.07c-.16.01-.33.02-.49.03-.52-1.36-1.03-2.72-1.55-4.09-.35,1.3-.25,2.6-.38,3.87-.12,1.15-.05,2.51-1.57,2.96-.17-1.2-.34-2.41-.5-3.61-.09-.01-.18-.03-.27-.04-.46,1.52-.92,3.04-1.39,4.6.78-.34,1.48-.65,2.18-.96-.41.61-.73,1.31-1.25,1.8-1.13,1.06-1.19,1.7-.03,2.68,1.69,1.43,3.57,2.16,5.64,1.29.54-1,1.33-1.81,1.86-2.78,1.18-2.15,2.27-4.35,3.33-6.57.81-1.7,1.41-3.49,2.28-5.15.29-.54,1.13-.81,1.76-1.12.11-.06.41.25.62.39-.35.44-.72.87-1.05,1.33-.57.8-1.11,1.62-1.67,2.43,2.27-.49,3.42-1.92,4.13-3.9.26-.72.93-1.34,1.5-1.91.77-.76,1.7-1.37,2.43-2.17,1.4-1.54,1.39-4.25,4.02-4.79,1.07-.22,2.13-.55,3.19-.82.04.2.09.39.13.59-.66.14-1.31.27-1.97.41.04.14.07.28.11.42,1.04-.24,2.08-.48,3.25-.76,1.05.7,1.09,2.77,3.01,2.76.11,0,.26.59.31.92.06.4,0,.82.03,1.23.14,2,1.48,4.12-.64,5.9-.2.17-.08.71-.14,1.07-.3,1.97.55,3.73,1.01,5.57.16.65.09,1.36.13,2.04-.18.01-.35.02-.53.03-.13-.52-.27-1.04-.4-1.55-.04,0-.08.01-.13.02v11.37c.36.13.91.31,1.43.52,1.26.52,2.51,1.05,3.77,1.58,1.08.46,1.61-.01,2.09-.99.91-1.84,1.88-3.67,3-5.39,2.39-3.67,4.77-7.35,7.38-10.86,3.16-4.27,6.62-8.28,11.73-10.39.27.04.54.07.81.11,0,.06,0,.12,0,.18.79,3.43.51,6.87,0,10.3-.31,2.13-.65,4.25-.98,6.38-.1.05-.21.1-.31.16-.31.08-.62.17-.94.25-.54.12-1.07.24-1.61.36-.31.09-.62.17-.93.26h-.02c-.43.1-.85.21-1.28.31-.34.08-.68.17-1.02.25-.09.02-.18.04-.27.06h0c-.1.02-.21.04-.31.05-.21.05-.42.1-.63.15-.9.01-1.42.24-.69,1.19-.04.09-.02.15.06.21.07.18.15.35.22.53.13.35.26.71.39,1.06.1.25.19.5.29.75.34.92.68,1.84,1.03,2.76.07.17.15.34.22.51,0,0,.02.11.02.11.09.19.18.37.26.56.19.57.38,1.13.57,1.7.04.12.09.25.13.37.27.82.54,1.64.81,2.46.24.5.48,1.01.72,1.51ZM59.49,93.94s-.06-.04-.08-.06c.03.02.06.04.09.05.1.17.21.33.31.5.06-.06.13-.12.19-.18-.17-.1-.34-.21-.51-.31Z"/><path class="cls-4" d="M139.6,66.39c-5.11,2.1-8.57,6.12-11.73,10.39-2.6,3.51-4.99,7.19-7.38,10.86-1.12,1.72-2.08,3.55-3,5.39-.48.98-1.02,1.45-2.09.99-1.25-.53-2.51-1.07-3.77-1.58-.52-.22-1.07-.39-1.43-.52v-11.37s.08-.01.13-.02c.13.52.27,1.04.4,1.55.18-.01.35-.02.53-.03-.04-.68.03-1.39-.13-2.04-.46-1.84-1.31-3.59-1.01-5.57.06-.36-.07-.9.14-1.07,2.12-1.78.78-3.9.64-5.9-.03-.41.03-.83-.03-1.23-.05-.33-.2-.92-.31-.92-1.92,0-1.96-2.06-3.01-2.76-1.18.27-2.21.52-3.25.76-.04-.14-.07-.28-.11-.42.66-.14,1.31-.27,1.97-.41-.04-.2-.09-.39-.13-.59-1.06.28-2.12.6-3.19.82-2.63.54-2.62,3.25-4.02,4.79-.73.8-1.66,1.4-2.43,2.17-.57.57-1.24,1.18-1.5,1.91-.71,1.98-1.86,3.41-4.13,3.9.55-.81,1.1-1.63,1.67-2.43.33-.46.7-.89,1.05-1.33-.21-.14-.51-.45-.62-.39-.63.32-1.47.58-1.76,1.12-.88,1.66-1.48,3.45-2.28,5.15-1.05,2.22-2.14,4.42-3.33,6.57-.53.96-1.32,1.78-1.86,2.78-2.07.87-3.95.14-5.64-1.29-1.16-.98-1.1-1.61.03-2.68.52-.49.84-1.19,1.25-1.8l-.02.02c1.52-.45,1.46-1.81,1.57-2.96.13-1.27.03-2.57.38-3.87.52,1.36,1.03,2.72,1.55,4.09.16-.01.33-.02.49-.03v-5.07c-.16.25-.3.45-.57.86,0-.94-.22-1.75.04-2.37,1.42-3.31.64-6.39-.76-9.45-.11-.23-.35-.57-.27-.7,1.36-2.18-.67-2.49-1.81-2.85-.84-.27-1.37-.65-1.88-1.25.19-.52,1.72-.03.95-1.27,3.19.57,4.69,3.05,5.66,5.66.82,2.23.93,4.72,1.32,7.1.09.56.01,1.14.01,2.16,1.06-.43,1.79-.73,2.51-1.03-.04-.16-.08-.32-.12-.49h-1.57c.73-.83,1.34-1.57,1.99-2.26,1.28-1.36,2.52-2.77,3.9-4.03.96-.87,2.13-1.52,3.2-2.27,0,.09,0,.18,0,.27-.37.69-.74,1.37-1.26,2.34.89-.38,1.65-.49,2.09-.93,1.56-1.57,3.23-2.85,5.54-3.1.33-.03.91-.64.85-.78-.51-1.26.8-.93,1.16-1.4.03-.03.08-.06.07-.08,0-.07-.04-.13-.06-.2-.25-.03-.5-.06-.75-.09,0-.38,0-.76,0-1.15.41-.03.82-.05,1.22-.08.24,0,.47,0,.71.01,2.11.44,4.33.59,6.28,1.41,1.27.53,2.64,1.84,3.09,3.11,1.22,3.48,1.83,7.13,1.82,10.89,0,1.59.49,3.23,1.03,4.76.22.63,1.17,1,2,1.66v-2.84c1.79.35.96-1.28,1.46-2.18.1.16.17.24.2.34.04.15.06.31.09.47.34-.11.66-.19.97-.32.74-.33,1.48-.6,1.17-1.74-.11-.41.19-1.31.47-1.38,1.46-.4.63-1.11.81-1.3,1.83-2.1,3.62-4.23,5.52-6.27.39-.42,1.2-.43,1.79-.69.67-.29,1.31-.64,1.96-.97,1.14-.57,2.29-1.14,3.43-1.71-.06.2-.12.4-.17.6-.09.04-.13.11-.11.21-.09.14-.17.28-.26.43-.12.2-.23.4-.35.6-.13.21-.26.43-.39.64-.08.12-.15.24-.23.36-.07.1-.14.2-.2.29-.28.47-.55.95-.83,1.42.03.24.05.48.08.72.1.04.2.07.3.11.21.08.42.16.63.23.15.05.3.1.46.15.17.07.34.14.51.2.15.04.29.08.44.12.17.08.35.16.52.24l.07.08s.1-.02.1-.02c.48.18.96.35,1.44.53.04.08.09.16.13.23ZM113.35,82.89c-.65.48-1.46.83-1.43,1.1.1,1,.47,1.98.73,2.96.23-.04.46-.08.7-.12v-3.94ZM130.98,65.84c-1.55.32-2.43,1.33-2.71,2.82-.07.39.12.83.23,1.42.94-1.61,1.71-2.93,2.48-4.24Z"/><path class="cls-4" d="M68.81,104.5c.3.78.61,1.55.9,2.34.72,1.95,1.42,3.91,2.14,5.87.16,0,.32,0,.49.01.83-1.88,1.53-3.84,2.52-5.63,2.16-3.88,3.7-8.13,7.28-11.16,3.13-2.66,7.94-3.13,11.42-1.5,5.21,2.43,7.82,6.89,9.24,12.21.33,1.21.57,2.45.95,4.12.62-.94,1.07-1.65,1.53-2.34,1.03-1.52,1.92-3.18,3.15-4.52,1.73-1.89,4.07-2.33,6.56-1.91.57.1,1.14.2,1.72.3.24.31.49.62.73.94-.41,1.68-.82,3.37-1.22,5.05-.05.21-.1.43-.14.64-.07.22-.13.44-.2.65-.21-.08-.41-.15-.62-.23-.46-.24-.91-.48-1.47-.78-1.98,2.69-3.93,5.35-5.93,8.07.42.12.65.18.71.2-.51,1.02-.97,2.04-1.53,3.02-.22.39-.94.65-.94.97-.04,1.93.08,3.87.12,5.8,0,.29-.02.69-.2.86-1.09,1.01-.65,1.71.37,2.37.37.24.69.56,1.39,1.14-1.64-.33-2.82-.57-4-.81-.08-.04-.17-.07-.26-.09l.02-.1s-.08-.05-.08-.05c-.18-.34-.35-.69-.53-1.03l-.09.06s.09-.06.09-.06c-.14-.27-.27-.55-.41-.82-.18-.36-.35-.71-.53-1.07-.45-.73-.91-1.47-1.36-2.2-.08-.14-.17-.27-.25-.4-.04-.25-.07-.5-.11-.75,0,0-.05-.11-.05-.11-.18-.33-.36-.66-.54-.99-.1-.3-.2-.6-.3-.9.29-1.38.64-2.74.86-4.13.12-.74.1-1.52-.01-2.26-.03-.23-.75-.31-.84-.58-.4-1.08-.74-2.19-.98-3.31-.11-.49.06-1.04.1-1.56-.02-.2-.04-.4-.06-.6l-.06-.09c0-.06-.01-.12-.01-.18.03-.33.05-.67.08-1,.19-.21.38-.43.57-.64-.54-.68-1.08-1.36-1.62-2.04.09-1.09-.08-1.98-1.03-2.8-.9-.77-1.51-1.89-2.37-3.02-.74.51-1.77-1.41-2.91,0-.96-.76-1.99-1.82-2.91.08-.75.36-1.49.73-2.24,1.09-.07-.13-.14-.26-.2-.4-.04.13-.07.26-.11.39-.12.09-.24.19-.36.28-1.62-.26-1.04,1.3-1.59,1.92-.12.2-.24.41-.36.61-1.12.35-2.12.75-1.32,2.25.09.17-.06.49-.16.72-.58,1.35-1.4,2.64-1.72,4.05-.71,3.1-2.25,5.74-4.03,8.28-.39.55-.92,1-1.54,1.65-.07-.79-.11-1.24-.15-1.77-1.2.63-1.63,1.51-1.53,2.76.17,2.32.25,4.64.36,6.96-.23.29-.46.58-.7.88-.12.04-.25.08-.37.12-.51.05-1.02.06-1.52.16-.73.14-1.45.35-2.18.53,2.17-1.37,2.66-2.49,1.79-4.9-.44.66-.78,1.24-1.17,1.76-.17.22-.46.49-.68.47-.23-.02-.53-.31-.62-.55-.33-.84-.77-1.78.89-1.56.23.03.63-.42.77-.73.4-.94.71-1.92,1.14-3.12.11.21.2.39.28.56.14-.53.36-1.06.38-1.59,0-.18-.66-.58-.71-.54-.32.28-.63.63-.79,1.01-.39.98-.7,2-1.04,3-.13-.05-.27-.1-.4-.15.04-.26.07-.51.11-.77.04-.02.08-.03.11-.05.02-.02.01-.05.02-.08l-.12.14c-.37.12-.74.24-1.12.36.03-.58.05-1.16.08-1.73.8-1.6,1.45-3.29,2.42-4.77,1.18-1.79.81-3.42.19-5.25-.6-1.77-.9-3.64-1.33-5.47,0-.43,0-.86,0-1.29.06-.09.1-.18.14-.28Z"/><path class="cls-2" d="M83.67,102.82c.55-.63-.03-2.18,1.59-1.92l.06.06c.13.16.27.31.4.47.07-.27.15-.54.22-.82l-.02.02c.75-.36,1.49-.73,2.24-1.09,1.19.79,2.39,1.45,3.92,1.11.32-.07.79.2,1.08.44.55.47,1.01,1.04,1.51,1.56,0,.73.23,1.33.52,1.9.26.51.79.96.85,1.47.23,2.04.28,4.1.48,6.15.04.38.46.73.7,1.09.12-.44.24-.88.37-1.32.26-.94.52-1.88.79-2.82,0,0,.06.09.06.09.02.2.04.4.06.6-.04.52-.21,1.07-.1,1.56.25,1.12.58,2.23.98,3.31.1.26.81.35.84.58.11.74.13,1.52.01,2.26-.22,1.39-.57,2.75-.86,4.13-.12-.11-.24-.23-.36-.34-.3-.58-.61-1.16-.91-1.75-.13-.27-.27-.54-.4-.8-.08-.15-.16-.3-.24-.45.04-.09.01-.15-.07-.19l-.25-.45c-.2-.39-.39-.78-.59-1.17-.12-.23-.25-.47-.37-.7.03-.1,0-.17-.09-.22l-.54-1.07c-.14-.28-.27-.56-.41-.84-.08-.13-.16-.27-.24-.4.02-.11-.02-.2-.11-.26-.09-.17-.18-.35-.26-.52-.29-.57-.58-1.14-.87-1.72-.12-.22-.25-.44-.37-.66-.27-.06-.66-.26-.78-.15-.73.66-1.4,1.39-2.09,2.09-.12.1-.24.2-.35.31,0,0,.02-.02.02-.02-.13.11-.26.21-.4.32-.82.79-1.63,1.58-2.45,2.37-.15.16-.3.32-.46.49-.59.56-1.18,1.13-1.76,1.69-.21.2-.42.4-.63.6-1.23,1.3-2.44,2.63-3.71,3.9-.42.42-.97.71-1.46,1.07-.17.16-.34.31-.51.47-1.42,1.36-2.83,2.71-4.25,4.07-.23.23-.45.45-.68.68-.18.11-.37.21-.55.32-.11-2.32-.19-4.65-.36-6.96-.09-1.26.33-2.13,1.53-2.76.05.53.09.98.15,1.77.62-.66,1.15-1.1,1.54-1.65,1.78-2.54,3.32-5.18,4.03-8.28.32-1.41,1.14-2.7,1.72-4.05.1-.23.25-.55.16-.72-.8-1.5.2-1.9,1.32-2.25,0,0,.11.09.11.09l-.65,2.3c.18.05.35.11.53.16.4-.96.8-1.92,1.25-2.99-.31-.04-.55-.07-.8-.1l-.08-.08Z"/><path class="cls-2" d="M55.36,58.57c3.09.42,6.18.85,9.26,1.27.04.06.08.12.14.17-.41.46-.84.92-1.24,1.39-.92,1.08-1.84,2.16-2.76,3.24,0,0,.01-.01.01-.01-.77.74-1.69,1.38-2.29,2.24-1.23,1.75-2.28,3.61-3.41,5.43-.42-.33-.84-.66-1.26-1-.12-.11-.24-.23-.35-.34-1.2-1.14-2.41-2.29-3.61-3.43-.4-.29-.8-.58-1.19-.87-1.44-1.43-2.87-2.87-4.31-4.3-.14-.14-.27-.28-.41-.42-.74-.7-1.47-1.41-2.21-2.11-.12-.11-.25-.21-.37-.32,0,0,.01.01.01.01-.11-.11-.23-.21-.34-.32,0,0,0,0,0,0-.11-.11-.22-.22-.33-.33-.66-.63-1.32-1.25-1.98-1.88-.09-.08-.18-.17-.27-.25,0-.14,0-.29,0-.43.11,0,.21-.02.32-.03.21.02.43.04.64.06.22.04.43.09.65.13,4.99.68,9.98,1.37,14.97,2.05.1.01.21.02.31.04Z"/><path class="cls-4" d="M127.37,47.78c-.91,2.05-1.82,4.11-2.93,6.63-.7-1.8-1.29-3.29-1.86-4.78-1.16-3.05-2.28-6.11-3.46-9.14-.99-2.54-3.19-4.07-5.06-5.87.5-1.05,1-2.1,1.5-3.14.33-.41.65-.81.98-1.22,0,0,0,0,0,0,.08-.11.15-.23.23-.34,0,0,.05-.09.05-.09s.11-.05.11-.05l-.02-.12c.08-.13.16-.27.24-.4.06-.09.11-.18.17-.27.05-.1.11-.21.16-.31.07-.11.14-.22.21-.34.04-.1.07-.21.11-.31.08-.01.17-.02.25-.03,3.21,1.86,5.52,4.6,7.54,7.74.44-.27.79-.49,1.13-.7.07.12.14.25.21.37,0,.27,0,.55,0,.82.02.48.04.96.06,1.44-.02.03-.07.06-.07.08.01.06.05.13.07.19,0,.19,0,.38.01.57,0,.21.02.41.02.61.04,1.6.07,3.21.11,4.81.08.21.15.42.23.64.03.75.06,1.51.09,2.26-.03.32-.07.65-.1.97ZM120.95,36.86v3.45c.11,0,.22,0,.33,0,.5-.9,1.01-1.79,1.48-2.62-.9-.41-1.4-.64-1.8-.83Z"/><path class="cls-2" d="M103.77,130.17c1.18.24,2.36.48,4,.81-.7-.58-1.02-.9-1.39-1.14-1.02-.66-1.46-1.36-.37-2.37.18-.17.21-.57.2-.86-.04-1.93-.15-3.87-.12-5.8,0-.33.72-.59.94-.97.56-.97,1.02-2,1.53-3.02-.06-.02-.29-.08-.71-.2,2-2.72,3.95-5.38,5.93-8.07.56.3,1.01.54,1.47.78-.01.17-.03.34-.04.5-.2.65-.4,1.29-.6,1.94-.06.21-.12.43-.18.64-.26,1.17-.52,2.33-.78,3.5-.16.64-.32,1.28-.48,1.91-.04.21-.09.43-.13.64-.05.21-.11.42-.16.63-.07.32-.13.64-.2.96-.06.1-.12.19-.18.29-.3,1.81-.56,3.62-.9,5.42-.11.59-.39,1.14-.59,1.71-.08.28-.16.57-.24.85-.13.67-.27,1.34-.4,2.01-.07.18-.14.36-.21.54-.34,1.54-.69,3.08-1.03,4.63-.06.15-.11.31-.17.46-.16.75-.32,1.49-.47,2.24-.1.04-.12.11-.07.21,0,0,.03-.02.03-.02-.18.06-.36.12-.54.18-1.06-2.03-2.12-4.07-3.17-6.1-.09-.16-.18-.33-.26-.49-.24-.47-.47-.95-.71-1.42,0-.13.01-.26.02-.39Z"/><path class="cls-2" d="M148.38,69.71c.53.12,1.05.23,1.58.35l.08.1h.13s0-.02,0-.02c.14.06.28.11.41.17.64.23,1.28.46,1.91.69.32.12.63.23.95.35.22.08.43.16.65.24.1.04.19.07.29.11,1.52.54,3.05,1.08,4.58,1.62.18.08.37.16.55.25.54.2,1.08.4,1.62.6.31.11.62.23.93.34.53.21,1.07.42,1.6.63,0,0,.11.1.11.1l.13-.04c.3.1.6.21.9.31.26.1.51.2.77.3l.05.06s.08-.02.08-.02c.27.1.54.2.8.31.22.09.43.18.65.27.02.11.05.22.07.33-.14.07-.29.14-.43.21-.1.03-.2.06-.29.09-.95.22-1.9.44-2.85.66-.32.09-.65.17-.97.26-.95.23-1.9.45-2.85.68-.28.08-.57.16-.85.24-1.52.35-3.05.69-4.57,1.04-.35.09-.7.18-1.05.28-.83.19-1.66.38-2.5.57-.12.02-.24.05-.36.07-1.13.31-2.26.62-3.39.93.28-1.02.66-2.02.81-3.06.11-.81.23-2.17-.17-2.4-2.39-1.4-.04-3.3-1.12-4.75.16-.03.33-.07.49-.1.26.49.53.97.79,1.46.22-.04.43-.08.65-.12-.07-1.03-.13-2.05-.2-3.08Z"/><path class="cls-4" d="M96.44,43.61c.01,1.04-.49,1.13-1.33.78-.66-.28-1.35-.48-2.09-.73.32-1.09-.49-1.04-1.38-.9-.1-.03-.2-.06-.3-.1.52-1.92,1.05-3.84,1.57-5.76.07-.21.15-.42.22-.64.24-.85.48-1.7.72-2.55l.3-.63c.13-.19.27-.38.4-.57.1-.23.19-.46.29-.69,0,0,0-.02,0-.02.12-.18.24-.36.35-.54.24-.19.46-.41.71-.58,1.9-1.24,3.8-2.46,5.7-3.69,0,0-.03,0-.03,0,.1.23.19.46.29.69,0,0-.01-.03-.01-.03.1.33.2.66.31.99,0,0,.14.01.14.01.07.15.14.29.21.44.07.19.13.38.2.57.04.14.08.28.11.42.06.17.12.34.18.52.04.15.09.31.13.46.09.26.19.52.28.78.12.64.25,1.28.37,1.93-.31.49-.53,1.05-.93,1.45-2.07,2.03-3.36,4.42-3.56,7.35-.01.19-.1.37-.25.85-.44-1.08-.78-1.89-1.12-2.71-.12.03-.24.07-.36.1.3,1.11.61,2.22.92,3.36-.56-.16-1.31-.37-2.05-.58-.09-.17-.18-.34-.27-.51-.09.09-.18.19-.26.28.18.08.35.16.53.23ZM96.61,42.49c-.05-.09-.08-.2-.15-.25-.05-.03-.16.04-.24.06.04.09.06.22.12.25.06.03.17-.04.27-.06Z"/><path class="cls-4" d="M148.38,69.71c.07,1.03.13,2.05.2,3.08-.22.04-.43.08-.65.12-.26-.49-.53-.97-.79-1.46-.16.03-.33.07-.49.1,1.08,1.45-1.27,3.35,1.12,4.75.4.23.28,1.59.17,2.4-.15,1.04-.53,2.04-.81,3.06-.22.03-.44.06-.67.09-.1.02-.21.05-.31.07-.21.04-.42.08-.63.12-.21.06-.42.12-.63.19-.39.08-.77.16-1.16.24,0,0,.05,0,.05,0v.03c-.28.04-.55.08-.82.12-.21.08-.42.15-.63.23-.43.11-.86.21-1.29.32-.33.08-.66.16-.99.25-.2-.01-.4-.03-.61-.04.33-2.13.67-4.25.98-6.38.51-3.43.78-6.87,0-10.3.21.02.42.04.63.07,1.59.57,3.17,1.14,4.76,1.7.21.09.43.18.64.27.64.33,1.29.66,1.93.99ZM146.53,70.74c.05,0,.1,0,.16,0v-.79c-.05,0-.1,0-.16,0v.79Z"/><path class="cls-2" d="M126.73,35.02c-.34.21-.69.43-1.13.7-2.02-3.14-4.33-5.88-7.54-7.74.07-.19.13-.38.2-.58,1.98-3.29,3.95-6.58,5.93-9.87.08-.13.17-.26.25-.38.23-.41.47-.81.7-1.22l.26-.38s.02-.03.02-.03c.2.07.39.15.59.22.18,4.3.37,8.6.55,12.9-.09.09-.09.18,0,.27.05,2.03.1,4.06.16,6.09Z"/><path class="cls-4" d="M76.38,34.92c-1.27.82-2.52,1.66-3.82,2.44-.42.25-.94.44-1.43.48-1.52.1-3.05.18-4.57.12-.35-.01-1.04-.74-.97-.9.45-1.08.98-2.14,1.62-3.12.43-.67,1.19-1.12,1.61-1.79.68-1.08,1.76-1.09,2.79-1.28.1,0,.2,0,.3,0,.11.09.22.19.33.28.15.13.3.27.46.4.15.13.3.27.45.4.08.07.17.14.25.2,0,0,0,.08,0,.08,0,0,.05-.05.05-.05.24.2.47.39.71.59.11.09.21.19.32.28.36.32.73.64,1.09.96.16.12.33.24.49.36.11.18.22.36.32.54Z"/><path class="cls-5" d="M55.08,72.29c1.13-1.82,2.18-3.68,3.41-5.43.6-.86,1.52-1.5,2.29-2.24-.03.4-.05.8-.08,1.2-.34.31-.69.61-1.03.91.14.12.29.25.43.37.25-.37.51-.75.76-1.12.89-.35,1.78-.71,1.72-2.11-.72.3-1.27.53-1.82.76.92-1.08,1.84-2.17,2.76-3.24.4-.47.83-.92,1.24-1.39.48.04.97.09,1.46.13.14.27.46.67.38.8-.88,1.38-1.74,2.78-2.78,4.03-.69.83-1.57,1.63-2.54,2.06-1.41.63-1.6,1.69-1.89,2.98-.19.82-1.11,1.46-1.64,2.23-.36.52-.61,1.12-.9,1.68-.07.01-.13.03-.2.05-.28-.25-.57-.5-.85-.74-.24-.23-.49-.46-.73-.69,0-.08,0-.16.02-.24ZM56.9,70.61s-.07-.06-.1-.1c-.04.08-.09.15-.12.23,0,.02.06.06.1.09.04-.07.08-.15.12-.22ZM63.17,62.89c-.04.08-.09.15-.12.24,0,.02.07.06.11.09.04-.08.09-.15.12-.24,0-.02-.07-.06-.11-.09Z"/><path class="cls-6" d="M101.62,27c-1.9,1.23-3.8,2.46-5.7,3.69-.25.17-.47.38-.71.57-.01-.24-.02-.48-.03-.72.46-1.62.93-3.24,1.39-4.86.07-.19.14-.37.21-.56.12-.47.25-.93.37-1.4.07-.17.14-.34.21-.51.44-1.48.88-2.96,1.32-4.44.11,0,.22-.02.33-.03.28.76.56,1.51.84,2.27-.03.12,0,.21.1.28.21.64.42,1.27.63,1.91.03.12.06.25.1.37.31,1.14.62,2.27.93,3.41Z"/><path class="cls-6" d="M68.41,122.92c-.04.26-.07.51-.11.77.13.05.27.1.4.15.34-1,.64-2.02,1.04-3,.15-.39.47-.73.79-1.01.05-.05.72.36.71.54-.02.53-.24,1.06-.38,1.59-.09-.18-.18-.35-.28-.56-.43,1.2-.74,2.18-1.14,3.12-.13.31-.54.76-.77.73-1.67-.22-1.22.72-.89,1.56.09.24.4.54.62.55.22.01.52-.26.68-.47.4-.53.74-1.1,1.17-1.76.86,2.42.37,3.53-1.79,4.9.73-.18,1.45-.38,2.18-.53.5-.1,1.01-.11,1.52-.16,0,.08,0,.17-.02.25-1.74,1.61-3.48,3.23-5.54,5.13.25-4.03.48-7.73.7-11.42.37-.12.75-.24,1.12-.36,0,0,0,0,0,0ZM68.74,128.83c.08-.02.16-.04.23-.06-.03-.2-.06-.41-.08-.61-.13.03-.25.05-.38.08.08.2.15.4.23.59Z"/><path class="cls-5" d="M145.57,45.88c-1.21-1.53-2.41-3.07-3.62-4.6.23-.17.46-.35.69-.52.21-.1.43-.21.64-.31.84-.44,1.69-.88,2.53-1.32.32-.1.64-.21.96-.31,1.17-.55,2.34-1.09,3.51-1.64.1.02.21.04.31.07,0,0-.02-.02-.02-.02-.64,1.36-1.28,2.73-1.92,4.09-.08.13-.17.25-.25.38-.95,1.4-1.89,2.8-2.84,4.19Z"/><path class="cls-6" d="M68.67,106.06c.43,1.83.73,3.7,1.33,5.47.62,1.82.99,3.46-.19,5.25-.98,1.48-1.63,3.18-2.42,4.77.08-1.24.17-2.49.26-3.73.05-.61.11-1.22.17-1.83.02-.22.04-.43.05-.65.14-1.73.28-3.45.42-5.18.09-.09.09-.19.02-.29.05-1.25.1-2.5.15-3.75.07-.04.14-.06.22-.06Z"/><path class="cls-1" d="M71.58,30.59c-.65-.54-1.3-1.07-1.96-1.61,1.56-.57,1.77.5,1.96,1.61Z"/><path class="cls-1" d="M33.4,99.04c-.12.21-.24.43-.42.75.62.05,1.15.09,1.69.14-.51.08-1.03.25-1.53.21-.23-.02-.42-.46-.63-.71.3-.13.6-.26.9-.39Z"/><path class="cls-1" d="M51.86,98.42c.73-.08,1.47-.15,2.2-.23-.73.08-1.47.15-2.2.23Z"/><path class="cls-1" d="M106.57,41.25c-.25-.71-.5-1.41-.74-2.12,1.21.37.73,1.33.74,2.12Z"/><path class="cls-1" d="M55.37,98.12c.63-.07,1.27-.15,1.9-.22-.63.07-1.27.15-1.9.22Z"/><path class="cls-1" d="M100.62,124.82c.45.73.91,1.47,1.36,2.2-.45-.73-.91-1.47-1.36-2.2Z"/><path class="cls-1" d="M113.19,117.83c.16-.64.32-1.28.48-1.91-.16.64-.32,1.28-.48,1.91Z"/><path class="cls-1" d="M108.51,43.59c-.22.4-.43.8-.78,1.44-.19-.67-.29-1.05-.4-1.43.39,0,.78,0,1.18,0Z"/><path class="cls-1" d="M59.19,97.8c.53-.06,1.06-.12,1.59-.17-.53.06-1.06.12-1.59.17Z"/><path class="cls-1" d="M36.89,99.7c.53-.05,1.06-.1,1.59-.14-.53.05-1.06.1-1.59.14Z"/><path class="cls-1" d="M103.8,33.78c-.12-.64-.25-1.28-.37-1.93.23.7.47,1.39.7,2.09-.11-.05-.22-.11-.33-.16Z"/><path class="cls-1" d="M68.87,101.57c-.05.54-.09,1.07-.14,1.61.05-.54.09-1.07.14-1.61Z"/><path class="cls-1" d="M98.1,119.58c.3.58.61,1.16.91,1.75-.3-.58-.61-1.16-.91-1.75Z"/><path class="cls-1" d="M119.7,103.24c.45.29.89.58,1.34.87-.45-.29-.89-.58-1.34-.87Z"/><path class="cls-1" d="M62.95,23.29c-.37-.31-.74-.63-1.11-.94.78-.17,1.27,0,1.11.94Z"/><path class="cls-1" d="M40.71,99.38c.42-.03.85-.06,1.27-.1-.42.03-.85.06-1.27.1Z"/><path class="cls-1" d="M63.01,97.48c.1-.08.19-.16.29-.23.2-.02.4-.04.6-.06.13.05.26.11.39.16-.42.04-.85.08-1.27.13Z"/><path class="cls-1" d="M44.53,99.05c.43-.04.85-.09,1.28-.13-.43.04-.85.09-1.28.13Z"/><path class="cls-1" d="M48.65,66.65c.4.29.8.58,1.19.87-.4-.29-.8-.58-1.19-.87Z"/><path class="cls-1" d="M136.16,98.94c-.24-.5-.48-1.01-.72-1.51.24.5.48,1.01.72,1.51Z"/><path class="cls-1" d="M139.46,66.16c-.48-.18-.96-.35-1.44-.53.48.18.96.35,1.44.53Z"/><path class="cls-1" d="M140.35,110.01c-.19-.47-.37-.95-.56-1.42.19.47.37.95.56,1.42Z"/><path class="cls-1" d="M116.54,30.25c-.33.41-.65.81-.98,1.22.33-.41.65-.81.98-1.22Z"/><path class="cls-1" d="M131.44,86.4c-.72-.95-.2-1.18.69-1.19-.23.4-.46.79-.69,1.19Z"/><path class="cls-1" d="M117.45,103.23c-.24-.31-.49-.62-.73-.94.27-.14.54-.28.81-.42-.03.45-.05.91-.08,1.36Z"/><path class="cls-1" d="M55.06,72.54c.24.23.49.46.73.69-.17.15-.33.3-.5.45-.08-.38-.15-.76-.23-1.14Z"/><path class="cls-1" d="M134.36,84.7c.43-.1.85-.2,1.28-.3-.43.1-.85.2-1.28.3Z"/><path class="cls-1" d="M102.91,128.9c.18.34.35.69.53,1.03-.18-.34-.35-.69-.53-1.03Z"/><path class="cls-1" d="M126.39,107.64c.36.19.72.39,1.08.58-.36-.19-.72-.39-1.08-.58Z"/><path class="cls-1" d="M61.29,33.75c.06.42.13.84.19,1.26-.06-.42-.13-.84-.19-1.26Z"/><path class="cls-1" d="M48.36,98.73c.32-.03.64-.06.96-.09-.32.03-.64.06-.96.09Z"/><path class="cls-1" d="M146.78,38.82c-.32.1-.64.21-.96.31.32-.1.64-.21.96-.31Z"/><path class="cls-1" d="M66.84,97.16l.95-.09-.95.09Z"/><path class="cls-1" d="M153.46,71.35c-.32-.12-.63-.23-.95-.35.32.12.63.23.95.35Z"/><path class="cls-1" d="M59.2,78.01c-.33.27-.65.55-.98.82.33-.27.65-.55.98-.82Z"/><path class="cls-1" d="M95.54,114.53c.18.36.36.71.54,1.07-.18-.36-.36-.71-.54-1.07Z"/><path class="cls-1" d="M58.73,20.03c.05.53.1,1.07.15,1.6-.05-.53-.1-1.07-.15-1.6Z"/><path class="cls-1" d="M144.6,47.75c.2-.31.4-.63.59-.94-.2.31-.4.63-.59.94Z"/><path class="cls-1" d="M138.19,83.77c.31-.08.62-.17.94-.25-.31.08-.62.17-.94.25Z"/><path class="cls-1" d="M69.33,28.72c-.29-.25-.58-.5-.88-.75.29.25.58.5.88.75Z"/><path class="cls-1" d="M56.04,80.58c-.31.26-.63.53-.94.79.31-.26.63-.53.94-.79Z"/><path class="cls-1" d="M105.11,36.9c-.11-.32-.21-.64-.32-.95.11.32.21.64.32.95Z"/><path class="cls-1" d="M66.22,60.13c-.49-.04-.97-.09-1.46-.13-.06-.05-.1-.1-.14-.17.52,0,1.04,0,1.55,0,.04.09.05.19.04.29Z"/><path class="cls-1" d="M137.47,102.41c-.16-.39-.32-.77-.47-1.16.16.39.32.77.47,1.16Z"/><path class="cls-1" d="M99.67,122.56c.18.33.36.66.54.99-.18-.33-.36-.66-.54-.99Z"/><path class="cls-1" d="M162.69,77.96c.32-.09.65-.17.97-.26-.32.09-.65.17-.97.26Z"/><path class="cls-1" d="M95.18,30.54c.01.24.02.48.03.72-.12.18-.24.36-.35.54.11-.42.22-.84.32-1.26Z"/><path class="cls-1" d="M94.16,33.09c-.1.21-.2.42-.3.63.1-.21.2-.42.3-.63Z"/><path class="cls-1" d="M142.33,82.84c.21-.08.42-.15.63-.23-.21.08-.42.15-.63.23Z"/><path class="cls-1" d="M93.14,36.27c-.07.21-.15.42-.22.64.07-.21.15-.42.22-.64Z"/><path class="cls-1" d="M80.19,37.91c-.25-.21-.5-.42-.75-.62.25.21.5.42.75.62Z"/><path class="cls-1" d="M112.9,119.11c.05-.21.11-.42.16-.63-.05.21-.11.42-.16.63Z"/><path class="cls-1" d="M105.72,38.72l-.39-1.15c.13.38.26.77.39,1.15Z"/><path class="cls-1" d="M62.04,37.87c.06.21.12.43.19.64-.06-.21-.12-.43-.19-.64Z"/><path class="cls-1" d="M62.36,39.47c.06.21.12.43.17.64-.06-.21-.12-.43-.17-.64Z"/><path class="cls-1" d="M106.94,42.34c-.08-.22-.16-.43-.24-.65.08.22.16.43.24.65Z"/><path class="cls-1" d="M62.99,42.65c.04.21.09.43.13.64-.04-.21-.09-.43-.13-.64Z"/><path class="cls-1" d="M127.38,44.55c-.08-.21-.15-.42-.23-.64.08.21.15.42.23.64Z"/><path class="cls-1" d="M63.29,44.25c.05.21.11.43.16.64-.05-.21-.11-.43-.16-.64Z"/><path class="cls-1" d="M63.6,45.85c.05.21.1.42.16.63-.05-.21-.1-.42-.16-.63Z"/><path class="cls-1" d="M114.44,112.42c.06-.21.12-.43.18-.64-.06.21-.12.43-.18.64Z"/><path class="cls-1" d="M126.01,15.75c-.2-.07-.39-.15-.59-.22.14-.14.29-.29.43-.43.05.22.11.43.16.65Z"/><path class="cls-1" d="M63.91,47.44c.05.21.1.42.15.63-.05-.21-.1-.42-.15-.63Z"/><path class="cls-1" d="M64.22,49.04c.03.21.06.42.09.63l-.09-.63Z"/><path class="cls-1" d="M116.08,108.92c.05-.21.1-.43.14-.64-.05.21-.1.43-.14.64Z"/><path class="cls-1" d="M64.91,53.82c.06.2.13.4.19.59-.07-.2-.13-.4-.19-.59Z"/><path class="cls-1" d="M65.46,55.42c.04.21.08.41.11.62l-.11-.62Z"/><path class="cls-1" d="M40.08,56.48c-.22-.04-.43-.09-.65-.13.22.04.43.09.65.13Z"/><path class="cls-1" d="M65.77,57.01c.04.21.08.41.12.62-.04-.21-.08-.41-.12-.62Z"/><path class="cls-1" d="M137.29,59.86c.06-.2.12-.4.17-.6.12-.13.25-.27.37-.4-.18.34-.36.67-.55,1.01Z"/><path class="cls-1" d="M68.67,106.06c-.08,0-.15.02-.22.06.07-.45.15-.9.22-1.35,0,.43,0,.86,0,1.29Z"/><path class="cls-1" d="M136.65,100.29c-.09-.21-.18-.42-.27-.63.09.21.18.42.27.63Z"/><path class="cls-1" d="M135,64.52c-.03-.24-.05-.48-.08-.72.03.24.05.48.08.72Z"/><path class="cls-1" d="M141.05,66.75c-.21-.02-.42-.04-.63-.07,0-.06,0-.12,0-.18.21.08.43.17.64.25Z"/><path class="cls-1" d="M39.12,94.25c-.21.22-.43.43-.64.65.21-.22.43-.43.64-.65Z"/><path class="cls-1" d="M144.89,82.23c.21-.06.42-.12.63-.19-.21.06-.42.12-.63.19Z"/><path class="cls-6" d="M102.17,28.65c-.1-.33-.2-.66-.31-.99.1.33.2.66.31.99Z"/><path class="cls-1" d="M60.19,28.48c.08.37.17.74.25,1.11-.08-.37-.17-.74-.25-1.11Z"/><path class="cls-1" d="M126.95,36.21c0-.27,0-.55,0-.82,0,.27,0,.55,0,.82Z"/><path class="cls-1" d="M143.29,40.45c-.21.1-.43.21-.64.31.21-.1.43-.21.64-.31Z"/><path class="cls-1" d="M127.37,47.78c.03-.32.07-.65.1-.97.07.31.13.62.2.94l-.14.06-.15-.03Z"/><path class="cls-1" d="M102.5,128.08c.14.27.27.55.41.82-.14-.27-.27-.55-.41-.82Z"/><path class="cls-1" d="M140.85,53.81c.17-.23.33-.45.5-.68-.17.23-.33.45-.5.68Z"/><path class="cls-1" d="M73.77,128.01c.23-.23.45-.45.68-.68-.23.23-.45.45-.68.68Z"/><path class="cls-1" d="M100.26,123.67c.04.25.08.5.11.75-.04-.25-.08-.5-.11-.75Z"/><path class="cls-1" d="M162.07,74.51c-.31-.11-.62-.23-.93-.34.31.11.62.23.93.34Z"/><path class="cls-1" d="M59.19,76.4c.22.21.45.42.67.64-.22-.21-.45-.42-.67-.64Z"/><path class="cls-1" d="M153.37,80.2c.35-.09.7-.18,1.05-.28-.35.09-.7.18-1.05.28Z"/><path class="cls-1" d="M84.37,117.83c.21-.2.42-.4.63-.6-.21.2-.42.4-.63.6Z"/><path class="cls-1" d="M140.04,83.4c.33-.08.66-.16.99-.25-.33.08-.66.16-.99.25Z"/><path class="cls-1" d="M135.65,84.39c.31-.09.62-.17.93-.26-.31.09-.62.17-.93.26Z"/><path class="cls-1" d="M48.66,86.6c-.22.17-.44.34-.66.51.22-.17.44-.34.66-.51Z"/><path class="cls-1" d="M47.42,87.58c-.22.19-.45.39-.67.58.22-.19.45-.39.67-.58Z"/><path class="cls-1" d="M115.23,109.84c.01-.17.03-.34.04-.5.2.08.41.15.62.23-.22.09-.44.18-.65.27Z"/><path class="cls-1" d="M141.36,112.73c-.12-.32-.23-.64-.35-.96.12.32.23.64.35.96Z"/><path class="cls-1" d="M136.93,114.25c.18.14.35.27.53.41-.18-.14-.35-.27-.53-.41Z"/><path class="cls-1" d="M135,113.03c.19.12.38.24.57.35-.19-.12-.38-.24-.57-.35Z"/><path class="cls-1" d="M94.5,112.52c.09.17.18.35.26.52-.09-.17-.18-.35-.26-.52Z"/><path class="cls-1" d="M141.94,114.19c-.11-.28-.22-.55-.33-.83.11.28.22.55.33.83Z"/><path class="cls-1" d="M93.27,110.14c.12.22.25.44.37.66-.12-.22-.25-.44-.37-.66Z"/><path class="cls-1" d="M125.46,106.93l.54.39-.54-.39Z"/><path class="cls-1" d="M86.76,115.55c.15-.16.3-.32.46-.49-.15.16-.3.32-.46.49Z"/><path class="cls-1" d="M137.86,114.96l.65.31-.65-.31Z"/><path class="cls-1" d="M67.87,115.34c-.02.22-.04.43-.05.65.02-.22.04-.43.05-.65Z"/><path class="cls-1" d="M132.4,88.94c-.1-.25-.19-.5-.29-.75.1.25.19.5.29.75Z"/><path class="cls-1" d="M47.87,87.21c-.16.13-.31.25-.47.38.16-.13.31-.25.47-.38Z"/><path class="cls-1" d="M96.17,115.82c.12.23.25.47.37.7-.12-.23-.25-.47-.37-.7Z"/><path class="cls-1" d="M53.27,82.84c-.16.13-.32.27-.48.4.16-.13.32-.27.48-.4Z"/><path class="cls-1" d="M141.38,117.12c.21.13.42.25.63.38-.21-.13-.42-.25-.63-.38Z"/><path class="cls-1" d="M142.3,117.68c.1.16.2.31.31.47-.1-.16-.2-.31-.31-.47Z"/><path class="cls-1" d="M158.99,78.88c.28-.08.57-.16.85-.24-.28.08-.57.16-.85.24Z"/><path class="cls-1" d="M166.51,76.15c-.27-.1-.54-.2-.8-.31.27.1.54.2.8.31Z"/><path class="cls-1" d="M165.58,75.81c-.26-.1-.51-.2-.77-.3.26.1.51.2.77.3Z"/><path class="cls-1" d="M150.18,70.16h-.13s-.08-.1-.08-.1c.05-.12.1-.25.15-.37.02.16.04.32.06.47Z"/><path class="cls-1" d="M146.46,68.72c-.21-.09-.43-.18-.64-.27.21.09.43.18.64.27Z"/><path class="cls-1" d="M78.7,123.27c.17-.16.34-.31.51-.47-.17.16-.34.31-.51.47Z"/><path class="cls-1" d="M135.94,64.86c-.21-.08-.42-.16-.63-.23.21.08.42.16.63.23Z"/><path class="cls-1" d="M136.18,61.73c.13-.21.26-.43.39-.64-.13.21-.26.43-.39.64Z"/><path class="cls-1" d="M66.17,59.21c.03.07.06.13.08.21,0,.03-.01.08-.02.11-.14-.06-.28-.12-.42-.18.12-.05.24-.09.36-.14Z"/><path class="cls-1" d="M110.78,128.34c.08-.28.16-.57.24-.85-.08.28-.16.57-.24.85Z"/><path class="cls-1" d="M141.93,52.18c.13-.21.26-.42.38-.63-.13.21-.26.42-.38.63Z"/><path class="cls-1" d="M90.65,46.47c-.04.07-.08.15-.12.22-.1-.08-.2-.16-.3-.23.14,0,.28,0,.42,0Z"/><path class="cls-1" d="M90.03,46.29c-.19-.16-.37-.31-.56-.47.19.16.37.31.56.47Z"/><path class="cls-1" d="M133.17,45.24c-.24.11-.47.22-.71.33.24-.11.47-.22.71-.33Z"/><path class="cls-1" d="M91.01,45.2c-.08.25-.17.51-.25.76.08-.25.17-.51.25-.76Z"/><path class="cls-1" d="M91.35,42.66c.1.03.2.06.3.1-.08.23-.16.46-.24.68-.02-.26-.04-.52-.06-.78Z"/><path class="cls-1" d="M62.68,41.07c.04.19.09.39.13.58-.04-.19-.09-.39-.13-.58Z"/><path class="cls-1" d="M83.98,41.18c-.17-.15-.35-.31-.52-.46.17.15.35.31.52.46Z"/><path class="cls-1" d="M81.74,39.23c-.18-.14-.36-.28-.53-.43.18.14.36.28.53.43Z"/><path class="cls-1" d="M127.04,39.1c0-.2-.02-.41-.02-.61,0,.2.02.41.02.61Z"/><path class="cls-1" d="M107.91,138.58c.18-.06.36-.12.54-.18-.18.06-.36.12-.54.18Z"/><path class="cls-1" d="M76.06,34.37c-.16-.12-.33-.24-.49-.36.16.12.33.24.49.36Z"/><path class="cls-1" d="M94.85,31.83c-.1.23-.19.46-.29.69.1-.23.19-.46.29-.69Z"/><path class="cls-1" d="M103.14,31.07c-.04-.15-.09-.31-.13-.46.04.15.09.31.13.46Z"/><path class="cls-1" d="M102.83,30.1c-.04-.14-.08-.28-.11-.42.04.14.08.28.11.42Z"/><path class="cls-1" d="M102.52,29.11c-.07-.15-.14-.29-.21-.44.07.15.14.29.21.44Z"/><path class="cls-1" d="M118.25,27.4c-.06.19-.13.38-.2.58-.09,0-.17.02-.25.03.15-.2.3-.4.45-.61Z"/><path class="cls-6" d="M101.88,27.69c-.1-.23-.19-.46-.29-.69.1.23.19.46.29.69Z"/><path class="cls-1" d="M64.87,24.93c-.18-.15-.37-.3-.55-.45.18.15.37.3.55.45Z"/><path class="cls-1" d="M100.69,23.59c-.03-.12-.06-.25-.1-.37.12.05.24.1.36.15-.09.07-.17.15-.26.22Z"/><path class="cls-1" d="M99.02,18.75c-.11,0-.22.02-.33.03.13-.09.27-.17.4-.26-.02.08-.04.15-.07.23Z"/><path class="cls-1" d="M108.42,138.42c-.05-.09-.02-.16.07-.21.06.06.12.12.18.18-.08.01-.17.02-.25.03Z"/><path class="cls-1" d="M108.97,135.97c.06-.15.11-.31.17-.46-.06.15-.11.31-.17.46Z"/><path class="cls-1" d="M104.47,131.99c.09.16.18.33.26.49-.09-.16-.18-.33-.26-.49Z"/><path class="cls-1" d="M110.17,130.88c.07-.18.14-.36.21-.54-.07.18-.14.36-.21.54Z"/><path class="cls-1" d="M103.77,130.17c0,.13-.01.26-.02.39-.08-.16-.17-.32-.25-.48.09.02.18.04.26.09Z"/><path class="cls-1" d="M72.14,129.57c.01-.08.02-.17.02-.25.12-.04.24-.08.37-.12-.13.12-.26.25-.38.37Z"/><path class="cls-1" d="M112.51,120.36c.06-.1.12-.19.18-.29-.06.1-.12.19-.18.29Z"/><path class="cls-1" d="M97.45,118.33c.08.15.16.3.24.45-.08-.15-.16-.3-.24-.45Z"/><path class="cls-1" d="M97.13,117.69l.25.45-.25-.45Z"/><path class="cls-1" d="M142.21,114.88c-.08-.19-.16-.37-.25-.56.08.19.16.37.25.56Z"/><path class="cls-1" d="M136.25,113.79c.1.07.2.15.3.22-.1-.07-.2-.15-.3-.22Z"/><path class="cls-1" d="M94.88,113.29c.08.13.16.27.24.4-.08-.13-.16-.27-.24-.4Z"/><path class="cls-1" d="M141.6,113.26c-.08-.18-.16-.36-.24-.53.08.18.16.36.24.53Z"/><path class="cls-1" d="M89.67,112.69c.13-.11.26-.21.4-.32-.13.11-.26.21-.4.32Z"/><path class="cls-1" d="M90.04,112.39c.12-.1.24-.2.35-.31-.12.1-.24.2-.35.31Z"/><path class="cls-1" d="M133.07,111.79c.14.09.28.18.42.27-.14-.09-.28-.18-.42-.27Z"/><path class="cls-1" d="M132.78,111.59c.09.07.19.13.28.2-.09-.07-.19-.13-.28-.2Z"/><path class="cls-1" d="M130.86,110.5c.08,0,.15.01.23.02-.08,0-.15,0-.23-.02Z"/><path class="cls-1" d="M68.31,109.87c.07.1.06.2-.02.29-.02-.07-.06-.14-.07-.21,0-.02.06-.05.09-.08Z"/><path class="cls-1" d="M139.43,107.63c-.1-.05-.13-.12-.1-.23.08.01.16.03.24.04-.05.06-.1.13-.14.19Z"/><path class="cls-1" d="M139.36,107.41c-.06-.14-.12-.27-.18-.41.06.14.12.27.18.41Z"/><path class="cls-1" d="M124.15,106.08c.13.09.25.17.38.26-.13-.09-.25-.17-.38-.26Z"/><path class="cls-1" d="M122.57,105.08c.15.09.3.18.45.28-.15-.09-.3-.18-.45-.28Z"/><path class="cls-1" d="M138.49,105.11c-.05-.11-.11-.22-.16-.33.05.11.11.22.16.33Z"/><path class="cls-1" d="M122.26,104.86c.11.07.21.15.32.22-.11-.07-.21-.15-.32-.22Z"/><path class="cls-1" d="M119.07,102.85c.14.09.29.19.43.28-.14-.09-.29-.19-.43-.28Z"/><path class="cls-1" d="M39.44,99.44c.1,0,.21-.02.31-.02-.1,0-.21.02-.31.02Z"/><path class="cls-1" d="M69.08,97.09c0,.16.02.32.03.47,0-.16-.02-.32-.03-.47Z"/><path class="cls-1" d="M68.76,96.95c.11.05.22.1.33.15-.11-.05-.22-.1-.33-.15Z"/><path class="cls-1" d="M36.07,96.85c-.14.12-.29.24-.43.35.14-.12.29-.24.43-.35Z"/><path class="cls-1" d="M36.54,96.48c-.1.08-.19.17-.29.25.1-.08.19-.17.29-.25Z"/><path class="cls-1" d="M37.27,95.87l-.38.31c.13-.1.26-.21.38-.31Z"/><path class="cls-1" d="M38.49,94.9c-.11.09-.23.18-.34.28.11-.09.23-.18.34-.28Z"/><path class="cls-1" d="M134.64,94.97c-.04-.12-.09-.25-.13-.37.04.12.09.25.13.37Z"/><path class="cls-1" d="M133.93,92.9c-.09-.19-.18-.37-.26-.56.09.19.18.37.26.56Z"/><path class="cls-1" d="M133.65,92.22c-.07-.17-.15-.34-.22-.51.07.17.15.34.22.51Z"/><path class="cls-1" d="M44.61,89.82c-.12.03-.24.07-.36.1.12-.03.24-.07.36-.1Z"/><path class="cls-1" d="M46.24,88.56c-.14.11-.28.23-.42.34.14-.11.28-.23.42-.34Z"/><path class="cls-1" d="M131.72,87.14c-.07-.18-.15-.35-.22-.53.07.18.15.35.22.53Z"/><polygon class="cls-1" points="49.03 86.34 49.06 86.35 49.07 86.31 49.03 86.34"/><path class="cls-1" d="M132.77,85.06c.1-.02.21-.04.31-.06-.1.02-.21.04-.31.06Z"/><path class="cls-1" d="M133.07,85.01c.09-.02.18-.04.27-.06-.08.06-.17.08-.27.06Z"/><path class="cls-1" d="M51.44,84.36c0,.13-.07.18-.2.16.05-.08.11-.13.2-.16Z"/><polygon class="cls-1" points="143.77 82.49 143.78 82.46 143.73 82.47 143.77 82.49"/><path class="cls-1" d="M146.15,81.92c.1-.02.21-.05.31-.07-.1.02-.21.05-.31.07Z"/><polygon class="cls-1" points="54.49 81.8 54.54 81.9 54.48 81.8 54.49 81.8"/><path class="cls-1" d="M150.51,80.84c.12-.02.24-.05.36-.07-.12.02-.24.05-.36.07Z"/><path class="cls-1" d="M56.47,80.25l-.03.1s-.1,0-.1,0c.03-.05.07-.08.13-.1Z"/><path class="cls-1" d="M57.99,78.99c-.13.11-.26.21-.39.32.13-.11.26-.21.39-.32Z"/><path class="cls-1" d="M59.89,77.41c-.12.12-.24.23-.36.35.12-.12.24-.23.36-.35Z"/><path class="cls-1" d="M59.84,77.02c0,.14.02.27.03.41,0-.14-.02-.27-.03-.41Z"/><path class="cls-1" d="M166.5,77.04c.1-.03.2-.06.29-.09-.09.07-.18.1-.29.09Z"/><path class="cls-1" d="M167.23,76.75c-.02-.11-.05-.22-.07-.33.02.11.05.22.07.33Z"/><path class="cls-1" d="M163.91,75.19l-.13.04s-.11-.1-.11-.1c.09,0,.17,0,.24.06Z"/><path class="cls-1" d="M56.64,73.97c.07-.02.13-.04.2-.05.03.09.04.18.04.28-.08-.08-.16-.15-.24-.23Z"/><path class="cls-1" d="M159.52,73.57c-.18-.08-.36-.16-.55-.25.18.08.36.16.55.25Z"/><path class="cls-1" d="M154.4,71.7c-.1-.04-.19-.07-.29-.11.1.04.19.07.29.11Z"/><path class="cls-1" d="M53.46,70.96c.12.11.24.23.35.34-.12-.11-.24-.23-.35-.34Z"/><path class="cls-1" d="M150.6,70.31c-.14-.06-.28-.11-.41-.17.14.06.28.11.41.17Z"/><path class="cls-1" d="M137.86,65.57c-.17-.08-.35-.16-.52-.24.17.08.35.16.52.24Z"/><path class="cls-1" d="M136.9,65.21c-.17-.07-.34-.14-.51-.2.17.07.34.14.51.2Z"/><path class="cls-1" d="M135.75,62.39c.07-.1.14-.2.2-.29-.07.1-.14.2-.2.29Z"/><path class="cls-1" d="M43.94,61.93c.14.14.27.28.41.42-.14-.14-.27-.28-.41-.42Z"/><path class="cls-1" d="M136.92,60.49c.09-.14.17-.28.26-.43-.09.14-.17.28-.26.43Z"/><path class="cls-1" d="M41.35,59.51c.12.11.25.21.37.32-.12-.11-.25-.21-.37-.32Z"/><path class="cls-1" d="M41.03,59.2c.11.11.23.21.34.32-.11-.11-.23-.21-.34-.32Z"/><path class="cls-1" d="M40.71,58.88c.11.11.22.22.33.33-.11-.11-.22-.22-.33-.33Z"/><path class="cls-1" d="M55.36,58.57c-.1-.01-.21-.02-.31-.04.1.01.21.02.31.04Z"/><path class="cls-1" d="M38.46,56.74c.09.08.18.17.27.25-.09-.08-.18-.17-.27-.25Z"/><path class="cls-1" d="M38.79,56.29c-.11,0-.21.02-.32.03.11,0,.21-.02.32-.03Z"/><path class="cls-1" d="M143.04,50.29c.08-.11.15-.22.23-.33l-.23.33Z"/><polygon class="cls-1" points="143.89 48.93 143.84 48.87 143.93 48.84 143.89 48.93"/><path class="cls-1" d="M144.22,48.38c.09-.15.19-.29.28-.44-.09.15-.19.29-.28.44Z"/><path class="cls-1" d="M128.44,47.48c-.15.08-.3.15-.45.23.15-.08.3-.15.45-.23Z"/><path class="cls-1" d="M129.11,47.17c-.16.08-.33.16-.49.23.16-.08.33-.16.49-.23Z"/><path class="cls-1" d="M91.31,43.93c-.01.1-.03.2-.04.3-.03-.08-.06-.15-.07-.23,0-.02.07-.05.11-.08Z"/><path class="cls-1" d="M137.11,43.36c-.17.09-.35.17-.52.26.17-.09.35-.17.52-.26Z"/><path class="cls-1" d="M137.75,43.04c-.18.09-.35.19-.53.28.18-.09.35-.19.53-.28Z"/><path class="cls-1" d="M148.41,41.69c.08-.13.17-.25.25-.38-.08.13-.17.25-.25.38Z"/><path class="cls-1" d="M140.72,41.66c-.11.03-.21.05-.32.08.11-.03.21-.05.32-.08Z"/><path class="cls-1" d="M110.03,41.07c-.07.1-.14.2-.21.3.07-.1.14-.2.21-.3Z"/><path class="cls-1" d="M83.08,40.39c-.11-.09-.22-.19-.33-.28.11.09.22.19.33.28Z"/><path class="cls-1" d="M82.09,39.53c-.13-.11-.25-.22-.38-.33.13.11.25.22.38.33Z"/><path class="cls-1" d="M127.01,37.92c-.03-.06-.06-.12-.07-.19,0-.02.04-.05.07-.08.03.09.04.18,0,.27Z"/><path class="cls-5" d="M150.73,36.97c-.05.08-.1.17-.15.25,0,0,.02.02.02.02.07-.08.11-.17.13-.28Z"/><path class="cls-1" d="M150.73,36.97c-.02.11-.06.2-.13.28-.1-.02-.21-.04-.31-.07.15-.07.3-.14.44-.21Z"/><path class="cls-1" d="M61.73,36.27c.04.06.08.11.11.17,0,.02-.04.06-.06.09-.05-.08-.06-.16-.05-.26Z"/><polygon class="cls-1" points="77.9 35.99 77.88 36.04 77.91 36 77.9 35.99"/><path class="cls-1" d="M104.76,35.84c-.11,0-.17-.06-.18-.18.08.04.14.1.18.18Z"/><path class="cls-1" d="M77.03,35.25c-.1-.09-.2-.17-.3-.26.1.09.2.17.3.26Z"/><path class="cls-1" d="M74.48,33.06c-.11-.09-.21-.19-.32-.28.11.09.21.19.32.28Z"/><path class="cls-1" d="M61.02,32.46c.02.1.03.21.05.31-.05-.07-.1-.14-.14-.21,0-.02.06-.07.09-.1Z"/><polygon class="cls-1" points="73.45 32.19 73.4 32.23 73.4 32.15 73.45 32.19"/><path class="cls-1" d="M73.15,31.95c-.15-.13-.3-.27-.45-.4.15.13.3.27.45.4Z"/><path class="cls-1" d="M60.76,31.2l.09.09s-.06.1-.06.1c-.03-.06-.04-.13-.03-.2Z"/><path class="cls-1" d="M72.25,31.15c-.11-.09-.22-.19-.33-.28.11.09.22.19.33.28Z"/><path class="cls-1" d="M60.71,30.87c.01.11.03.21.04.32-.05-.07-.1-.14-.14-.22,0-.02.06-.07.1-.1Z"/><path class="cls-1" d="M116.77,29.9c-.08.11-.15.23-.23.34.08-.11.15-.23.23-.34Z"/><path class="cls-1" d="M116.91,29.64l.02.12s-.11.05-.11.05c0-.07.04-.12.09-.17Z"/><path class="cls-1" d="M117.33,28.97c-.06.09-.11.18-.17.27.06-.09.11-.18.17-.27Z"/><path class="cls-1" d="M126.57,28.92c-.1-.09-.1-.17,0-.27.03.06.06.12.07.18,0,.02-.04.05-.06.08Z"/><path class="cls-1" d="M117.7,28.32c-.07.11-.14.22-.21.34.07-.11.14-.22.21-.34Z"/><path class="cls-1" d="M68.43,27.95c-.11-.09-.21-.19-.32-.28.11.09.21.19.32.28Z"/><path class="cls-1" d="M96.78,25.13c-.07.19-.14.37-.21.56.07-.19.14-.37.21-.56Z"/><path class="cls-1" d="M97.36,23.22c-.07.17-.14.34-.21.51.07-.17.14-.34.21-.51Z"/><path class="cls-1" d="M63.3,23.58c-.12-.11-.25-.21-.37-.32.12.11.25.21.37.32Z"/><path class="cls-1" d="M61.41,21.98c-.13-.11-.25-.21-.38-.32.13.11.25.21.38.32Z"/><path class="cls-1" d="M61.06,21.68c-.14-.11-.27-.22-.41-.33.14.11.27.22.41.33Z"/><path class="cls-1" d="M99.96,21.31c-.1-.07-.13-.17-.1-.28.03.09.06.19.1.28Z"/><path class="cls-1" d="M59.83,20.63c-.11-.09-.22-.18-.33-.27.11.09.22.18.33.27Z"/><path class="cls-1" d="M59.16,20.07c-.11-.03-.21-.06-.32-.09.11.03.21.06.32.09Z"/><path class="cls-1" d="M124.43,17.15c-.08.13-.17.26-.25.38.08-.13.17-.26.25-.38Z"/><path class="cls-1" d="M125.4,15.56c-.09.13-.18.25-.26.38.09-.13.18-.25.26-.38Z"/><path class="cls-4" d="M67.39,58.82c.23-1.64,1.84-1.67,2.85-2.14,1.89-.87,3.91-1.89,6.14-.93,0,.17,0,.34,0,.5-.25.03-.5.07-.74.1-.16.27-.33.54-.5.82-2.69-.04-5.14.94-7.62,1.77-.04-.04-.08-.09-.13-.13Z"/><path class="cls-5" d="M103.46,56.08c0,.38,0,.76,0,1.15-.46.03-.93.06-1.46.1v.84c-.79.44-1.43.81-2.09,1.16-1.36.72-2.73,1.42-4.09,2.13,0-.09,0-.18,0-.27,1.52-1.37,2.96-2.86,4.61-4.07.82-.6,2.01-.7,3.03-1.03Z"/><path class="cls-5" d="M75.14,57.18c.17-.27.33-.54.5-.82.2.47.65,1.01.56,1.41-.39,1.61.47,1.78,1.72,1.82.45.02.88.46,1.32.71-.07.11-.15.21-.22.32-1.44-.08-2.87-.16-4.6-.25.47-.63.81-1.1,1.24-1.68-.48.03-.88.05-1.29.08-.04-.12-.07-.24-.11-.36.44-.16.88-.32,1.46-.53-.21-.26-.39-.48-.56-.7Z"/><path class="cls-5" d="M79.26,81.19c-.7.31-1.41.62-2.18.96.47-1.55.93-3.07,1.39-4.6.09.01.18.03.27.04.17,1.2.34,2.41.5,3.61l.02-.02Z"/><path class="cls-5" d="M63.9,97.19c-.2.02-.4.04-.6.06-.89-.79-1.78-1.58-2.68-2.38,1.62.08,2.55,1.06,3.28,2.32Z"/><path class="cls-5" d="M76.38,56.26c0-.17,0-.34,0-.5.85.2,1.71.39,2.56.59.77,1.24-.76.75-.95,1.27-.12-.36-.24-.72-.4-1.22-.27-.03-.73-.08-1.2-.13Z"/><path class="cls-5" d="M105.39,56.02c-.24,0-.47,0-.71-.01.24,0,.47,0,.71.01Z"/><path class="cls-5" d="M59.49,93.94c.17.1.34.21.51.31-.06.06-.13.12-.19.18-.1-.17-.21-.33-.31-.5h0Z"/><path class="cls-5" d="M59.5,93.93s-.06-.04-.09-.05c.03.02.06.04.08.06,0,0,0,0,0,0Z"/><path class="cls-4" d="M67.52,58.95c-.08.03-.16.07-.23.1.04-.08.07-.15.1-.23.04.04.09.08.13.13Z"/><path class="cls-3" d="M95.82,61.46c1.36-.71,2.73-1.41,4.09-2.13.65-.34,1.29-.72,2.09-1.16v-.84c.54-.04,1-.07,1.46-.1.25.03.5.06.75.08-.05.09-.05.18-.02.28-.35.47-1.67.14-1.16,1.4.05.13-.53.74-.85.78-2.31.25-3.97,1.52-5.54,3.1-.44.44-1.2.55-2.09.93.52-.97.89-1.66,1.26-2.34Z"/><path class="cls-3" d="M113.35,82.89v3.94c-.23.04-.46.08-.7.12-.27-.98-.64-1.96-.73-2.96-.03-.27.78-.62,1.43-1.1Z"/><path class="cls-3" d="M130.98,65.84c-.77,1.31-1.54,2.63-2.48,4.24-.1-.59-.3-1.03-.23-1.42.28-1.49,1.16-2.5,2.71-2.82Z"/><path class="cls-5" d="M104.19,57.59c-.03-.09-.03-.19.02-.28.02.07.05.13.06.2,0,.02-.05.05-.07.08Z"/><path class="cls-5" d="M98.38,109.14c-.26.94-.52,1.88-.79,2.82-.12.44-.24.88-.37,1.32-.24-.36-.67-.71-.7-1.09-.2-2.05-.26-4.11-.48-6.15-.06-.52-.59-.97-.85-1.47-.29-.57-.52-1.17-.52-1.9-.5-.53-.96-1.09-1.51-1.56-.29-.25-.76-.52-1.08-.44-1.53.35-2.73-.32-3.92-1.11.92-1.9,1.95-.84,2.91-.08,1.13-1.42,2.17.51,2.91,0,.87,1.14,1.48,2.25,2.37,3.02.95.81,1.12,1.7,1.03,2.8.18,1.26-.44,2.74.98,3.68,0,.06,0,.12.01.18Z"/><path class="cls-3" d="M98.37,108.95c-1.41-.94-.79-2.41-.98-3.68.54.68,1.08,1.36,1.62,2.04-.19.21-.38.43-.57.64-.03.33-.05.67-.08,1Z"/><path class="cls-5" d="M98.45,107.95c.19-.21.38-.43.57-.64-.19.21-.38.43-.57.64Z"/><path class="cls-5" d="M98.49,109.83c-.02-.2-.04-.4-.06-.6.02.2.04.4.06.6Z"/><path class="cls-2" d="M83.32,103.43c.12-.2.24-.41.36-.61,0,0,.08.08.08.08-.11.21-.22.41-.32.62l-.11-.09Z"/><path class="cls-2" d="M85.62,100.62c.04-.13.07-.26.11-.39.07.13.14.26.2.4,0,0,.02-.02.02-.02-.11,0-.22,0-.33.01h0Z"/><path class="cls-6" d="M68.42,122.93s.08-.09.12-.14c0,.03,0,.07-.02.08-.03.03-.07.03-.11.05,0,0,0,0,0,0Z"/><path class="cls-2" d="M85.26,100.9c.12-.09.24-.19.36-.28h0c-.1.11-.2.23-.29.34,0,0-.06-.06-.06-.06Z"/><path class="cls-5" d="M83.43,103.52c.11-.21.22-.41.32-.62.25.03.49.06.8.1-.45,1.07-.85,2.03-1.25,2.99-.18-.05-.35-.11-.53-.16l.65-2.3Z"/><path class="cls-4" d="M85.32,100.96c.1-.11.2-.22.29-.34.11,0,.22,0,.33-.01-.07.27-.15.54-.22.82-.13-.16-.27-.31-.4-.47Z"/><path class="cls-3" d="M120.95,36.86c.4.19.9.42,1.8.83-.47.83-.97,1.73-1.48,2.62-.11,0-.22,0-.33,0v-3.45Z"/><path class="cls-3" d="M96.44,43.61c-.18-.08-.35-.16-.53-.23.09-.09.18-.19.26-.28.09.17.18.34.27.51,0,0,0,0,0,0Z"/><path class="cls-3" d="M96.61,42.49c-.1.03-.21.1-.27.06-.07-.04-.08-.17-.12-.25.08-.02.2-.09.24-.06.07.05.1.16.15.25Z"/><path class="cls-2" d="M146.53,70.74v-.79c.05,0,.1,0,.16,0v.79c-.05,0-.1,0-.16,0Z"/><path class="cls-3" d="M60.76,64.64c.55-.23,1.1-.46,1.82-.76.06,1.4-.83,1.76-1.72,2.11-.06-.05-.11-.1-.16-.16.03-.4.05-.8.08-1.2h-.01Z"/><path class="cls-3" d="M60.86,65.98c-.25.37-.51.75-.76,1.12-.14-.12-.29-.25-.43-.37.34-.3.69-.61,1.03-.91.05.06.1.11.16.16Z"/><path class="cls-2" d="M56.9,70.61c-.04.07-.08.15-.12.22-.04-.03-.11-.08-.1-.09.03-.08.08-.15.12-.23.03.03.07.06.1.1Z"/><path class="cls-3" d="M63.17,62.89s.11.08.1.09c-.03.08-.08.16-.12.24-.04-.03-.11-.08-.11-.09.03-.08.08-.16.13-.24Z"/><path class="cls-4" d="M68.74,128.83c-.08-.2-.15-.4-.23-.59.13-.03.25-.05.38-.08.03.2.06.41.08.61-.08.02-.16.04-.23.06Z"/></svg>