<?xml version="1.0" encoding="UTF-8"?><svg id="Layer_1" xmlns="http://www.w3.org/2000/svg" viewBox="0 0 192.26 121.97"><defs><style>.cls-1{fill:#f1f5f6;}.cls-1,.cls-2,.cls-3,.cls-4,.cls-5,.cls-6,.cls-7,.cls-8,.cls-9,.cls-10{stroke-width:0px;}.cls-2{fill:#79b250;}.cls-3{fill:#e5cf4b;}.cls-4{fill:#079454;}.cls-5{fill:#efd14a;}.cls-6{fill:#319f52;}.cls-7{fill:#c39e39;}.cls-8{fill:#039354;}.cls-9{fill:#0e9358;}.cls-10{fill:#fcf5f3;}</style></defs><path class="cls-8" d="M101.56,24.98c.18-.09.37-.18.55-.26.26-.12.52-.24.78-.35.27-.13.54-.26.81-.4.43-.21.85-.41,1.28-.62.75-.35,1.49-.7,2.24-1.05.11-.07.21-.14.32-.2,0,0,0,0,0,0,.17-.09.34-.17.51-.26.36-.15.72-.31,1.08-.46.12-.07.24-.14.35-.22,0,0-.03.02-.03.02.23-.11.45-.23.68-.34.73-.34,1.45-.68,2.18-1.02.15-.08.3-.15.45-.23.83-.35,1.66-.69,2.49-1.04-.23,3.33-.24,6.69-.74,9.98-.63,4.16-1.11,8.48-2.63,12.36-3.84,9.84-8.37,19.42-12.32,29.22-2.25,5.58-3.92,11.4-5.8,17.12-.22.68,0,1.5-.18,2.19-.38,1.44-.89,2.84-1.36,4.3.63.18,1.03.3,1.43.42-.38.18-.77.36-1.15.54-.51.17-1.02.34-1.53.51-.21.08-.41.15-.62.23-.33.12-.66.24-1,.35-.39.14-.78.28-1.17.42-.24.07-.48.14-.72.21-.21.08-.42.17-.63.25-.43.14-.85.27-1.28.41-.53.19-1.05.38-1.58.57-.86.3-1.71.6-2.57.9-.1.03-.21.05-.31.08-.2,0-.41-.02-.62-.02.08-.87.17-1.74.25-2.6.12-.21.23-.43.35-.64.09-.42.18-.85.27-1.27.14-.45.28-.91.42-1.36.63-2.1,1.22-4.22,1.9-6.3.45-1.39,1.95-2.53.91-4.25-.07-.11.08-.39.19-.55.63-.9,1.43-1.72,1.91-2.69,1.9-3.92,3.73-7.88,5.52-11.86.15-.34-.12-.88-.18-1.24.27-.18.76-.34.93-.66,1.32-2.43,2.57-4.89,3.84-7.34.86-1.84,1.72-3.67,2.58-5.51.49-1.36,1.1-2.69,1.44-4.09.39-1.62.54-3.3.84-5.23.21-.68.64-1.67.79-2.69.12-.81-.22-1.68-.16-2.5.32-4.23-.06-8.37-1.26-12.44.18-.13.35-.26.53-.39Z"/><path class="cls-8" d="M95.6,27.91c.16-.03.31-.06.47-.09.27,2.04.73,4.07.77,6.11.06,2.95.12,5.95-.35,8.84-1.04,6.28-4.3,11.76-6.88,17.47-.06.13-.12.27-.18.4v.02c-.09.11-.18.22-.27.33-2.59,5.2-5.21,10.39-7.76,15.61-2.65,5.45-4.59,11.15-5.93,17.06-.21.92-.64,2.03-.33,2.78.69,1.64-.07,2.91-.52,4.29-1.78.67-3.55,1.34-5.33,2.01-.15.06-.3.12-.45.18-.75.22-1.5.44-2.25.66.25-1.66.38-3.34.76-4.97,1.05-4.49,2.22-8.95,3.31-13.43.27-1.1.42-2.23.63-3.35.13-.64.75-1.2.99-1.88.72-2.03,1.24-4.13,1.93-6.16,1.18-3.47,2.48-6.89,3.63-10.36,1.02-3.07,1.91-6.17,3.16-9.18,1.11-2.68,1.63-5.61,2.47-8.41.23-.77.64-1.49.97-2.23.54-1.22,1.19-2.4,1.59-3.66.57-1.79.97-3.63,1.44-5.46.09-.33.18-.65.27-.98.02-.09.02-.17,0-.26-.01-.22-.02-.45-.03-.67.23-.22.46-.43.68-.65.24-.16.48-.32.72-.48.21-.15.41-.3.62-.45.11-.08.22-.15.34-.23.32-.23.64-.46.97-.7,0,0-.02.02-.02.02.22-.13.43-.25.65-.38.84-.4,1.69-.81,2.53-1.21.24-.11.49-.23.73-.34.23-.09.46-.19.69-.28,0,0,0,0,0,0Z"/><path class="cls-4" d="M124.37,14.92c.35,1.54.7,3.08,1.06,4.62.06.18.12.35.18.53.22.99.45,1.97.67,2.96.04.21.09.42.13.62.06.22.12.43.19.65.04.21.09.42.13.62.15.64.3,1.28.46,1.92.05.21.1.42.15.63l.23.99c.02.1.05.2.07.3.09.49.19.97.28,1.46,0,0,.03-.05.03-.05.1.38.21.77.31,1.15.03.21.07.42.1.63-.03.1-.03.19,0,.29-1.05,2.62-2.01,5.28-3.19,7.84-2.09,4.54-4.35,9-6.47,13.53-1.29,2.76-2.54,5.55-3.64,8.38-2.03,5.26-4.07,10.52-5.85,15.87-.66,1.99-.59,4.21-.85,6.33-.4.31-.8.62-1.2.93-1.16.83-2.32,1.66-3.48,2.49-.16.12-.31.23-.47.35-.25.16-.51.32-.76.48-.22.18-.44.35-.66.53-.43.3-.85.61-1.28.91-.32.23-.63.45-.95.68,0,0,0,0,0,0-.14.09-.29.19-.43.28l-.11-.04s-.12.02-.12.02c.75-2.63,1.5-5.26,2.25-7.89.11-.32.21-.64.32-.96.09-.32.19-.64.28-.95.46-1.35.92-2.7,1.38-4.05.17-1.4,1.96-2.82.23-3.89.65-.58,1.47-1,1.8-1.67,1.15-2.29,2.14-4.66,3.16-7.01.91-2.1,1.79-4.21,2.69-6.32.22-.75.45-1.5.67-2.24.45-.63,1.03-1.2,1.32-1.89,1.12-2.72,2.24-5.44,3.16-8.23.71-2.14,1.12-4.37,1.66-6.56.42-1.67.84-3.34,1.3-5.18-.1.04.17-.08.6-.27-.49-.34-.81-.56-.74-.51.38-1.56.88-2.81.97-4.1.34-4.41.53-8.82.78-13.23.26-.16.53-.33.79-.49.16-.08.32-.16.48-.24.48-.23.96-.46,1.44-.69.22-.01.43-.03.65-.04l.03.03c.07.17.15.33.22.5Z"/><path class="cls-3" d="M101.77,81.02c-.09.32-.19.64-.28.95-.11.32-.21.64-.32.96-.75,2.63-1.5,5.26-2.25,7.89.01.07,0,.14-.02.2-.12,0-.19.05-.21.17-.43.31-.87.62-1.3.93-.23.11-.47.21-.7.32-.1.11-.21.22-.31.32-.11.02-.22.04-.33.06.32-.75.64-1.5.96-2.25-.99-.89.43-1.06.46-1.29-.42-.88-.7-1.49-.99-2.11-.12.04-.23.07-.35.11-.14.92-.28,1.84-.42,2.76-.44.39-.88.77-1.09.96v2.76c-.04.1-.1.19-.18.26-.26.04-.52.08-.79.12-.4-.12-.8-.23-1.43-.42.47-1.47.99-2.87,1.36-4.3.18-.7-.05-1.52.18-2.19,1.88-5.73,3.55-11.54,5.8-17.12,3.95-9.8,8.48-19.38,12.32-29.22,1.51-3.88,1.99-8.19,2.63-12.36.5-3.29.51-6.65.74-9.98,1.83-.89,3.67-1.79,5.5-2.68-.25,4.41-.45,8.83-.78,13.23-.1,1.28-.59,2.54-.97,4.1-.06-.04.25.17.74.51-.42.19-.69.31-.6.27-.46,1.84-.88,3.51-1.3,5.18-.55,2.19-.96,4.43-1.66,6.56-.92,2.79-2.05,5.51-3.16,8.23-.28.69-.87,1.26-1.32,1.89-1.45.27-1.6,1.51-2.4,2.79.88-.28,1.3-.41,1.73-.55-.89,2.11-1.77,4.22-2.69,6.32-1.02,2.35-2.01,4.72-3.16,7.01-.33.67-1.15,1.09-1.8,1.67,1.73,1.08-.06,2.49-.23,3.89-.5-.04-1-.07-1.63-.12.25,1.31.88,2.55-.51,3.39.25.26.51.52.76.78ZM108.49,53.29c1.24-.39,1.68-1.5.94-3.07-.36,1.19-.64,2.14-.93,3.08-.03.04-.05.07-.08.11.02-.04.04-.08.07-.12ZM100.85,81.66c-.43.3-.86.61-1.27.89-.13-.7-.24-1.27-.35-1.84-.21.05-.41.11-.62.16.23,1.14.46,2.27.69,3.41.4-.41.48-.68.61-.93.3-.57.62-1.14.93-1.7.03-.03.06-.07.08-.1-.02.04-.05.08-.07.11ZM106.41,62.11c.93,0,1.88-.82,2.34-2.16.1-.29-.18-.71-.42-1.49-.77,1.46-1.31,2.5-1.92,3.65ZM116.84,41.09c-1.63-.23-1.63,1.1-2.18,1.77-.13.16.19.69.45,1.52.71-1.36,1.19-2.27,1.73-3.29ZM108.45,56.49c-.9.78-1.64,1.47-1.3,2.67,0-1.09,2.54-.8,1.3-2.67ZM104.69,66.04c.16.07.32.13.48.2q1.48-1.31.48-2.71c-.38.99-.67,1.75-.96,2.51ZM118.05,22.62c.12.07.25.13.37.2.36-.7.72-1.39,1.11-2.13-1.73-.08-1.39,1.06-1.48,1.93ZM96.58,84.87c.72-.16,1.2-.26,1.68-.36-.11-.31-.14-.68-.34-.91-.16-.18-.53-.19-.9-.3-.14.49-.24.86-.44,1.57Z"/><path class="cls-3" d="M74.63,100.75c.45-1.39,1.21-2.66.52-4.29-.32-.75.12-1.86.33-2.78,1.34-5.91,3.27-11.61,5.93-17.06,2.55-5.22,5.17-10.41,7.76-15.61.09-.11.17-.22.26-.33,0,0,0-.02,0-.02.06-.13.12-.27.19-.4,2.58-5.71,5.84-11.19,6.88-17.47.48-2.89.41-5.9.35-8.84-.04-2.04-.5-4.07-.77-6.11.23-.18.47-.36.7-.55,0,0,.12.02.12.02l.06-.11s.07-.04.07-.04c.42-.2.84-.4,1.26-.59.12-.05.24-.09.36-.14.09-.06.18-.11.27-.17,0,0,.04-.03.04-.03.14-.09.29-.18.43-.27.07.03.13.01.18-.05.36-.19.73-.38,1.09-.57.07.03.13,0,.18-.05.07.03.14.06.2.09,1.2,4.07,1.58,8.21,1.26,12.44-.06.83.27,1.69.16,2.5-.15,1.02-.58,2.01-.79,2.69-.3,1.93-.45,3.61-.84,5.23-.34,1.4-.95,2.73-1.44,4.09-.28.03-.56.06-.84.09v-.95c-.12-.09-.24-.17-.35-.26-.56.59-1.13,1.18-1.69,1.77.05.31.1.62.15.94.13.07.26.15.39.22-.22.23-.52.7-.64.66-2.08-.76-1.82.6-1.72,1.99.35-.26.63-.46.9-.66.39.56.8,1.13,1.21,1.71-1.27,2.45-2.53,4.91-3.84,7.34-.18.32-.66.48-.93.66.06.35.34.89.18,1.24-1.79,3.97-3.62,7.94-5.52,11.86-.47.98-1.27,1.79-1.91,2.69-.11.16-.26.44-.19.55,1.04,1.72-.46,2.86-.91,4.25-.68,2.09-1.27,4.2-1.9,6.3-.14.45-.28.91-.42,1.36-.55.14-1.11.28-1.66.42-.02.14-.03.27-.05.41l1.44.44c-.12.21-.23.43-.35.64-.31-.11-.62-.22-.93-.32-.49.08-1.03.05-1.45.26-.35.17-.85.86-.8.91,1.01,1.18.02,1.68-.69,2.33-.3.27-.47.69-.71,1.05l-.8.54c-.24,0-.48-.01-.73-.02ZM89.7,62.53c1.74-.18.75-1.6,1.37-2.3-.19-.08-.38-.16-.57-.24-.27.85-.53,1.7-.8,2.54-.02.04-.05.08-.07.12.02-.04.04-.09.06-.13ZM87.33,71.17c1.88.28,1.65-1.79,2.98-2.44-2.53-.8-1.92,1.78-2.98,2.44ZM86.45,68.56c2.69-.45,3.29-.93,3.08-2.39-.97.75-1.89,1.46-3.08,2.39Z"/><path class="cls-4" d="M71.93,43.42c.83-.57,1.66-1.13,2.5-1.7.09-.07.19-.14.29-.21l1.92-1.34c.12-.08.23-.16.34-.24l1.28-.91c.33-.22.65-.45.98-.67.11-.08.21-.15.32-.23.11-.14.22-.27.33-.41.1,0,.19-.02.27-.07.12,0,.24,0,.35,0,.1.13.2.26.3.39-.55,1.61-1.09,3.22-1.67,4.82-2.15,5.93-4.32,11.86-6.49,17.79-.05.11-.09.21-.14.32-3.83,12.03-8.15,23.92-10.26,36.24.25.15.4.43.34.67-.39,1.61-.82,3.21-1.24,4.81-1.29-.16-.24,1.1-.84,1.37.28.4.55.8.83,1.2-.63.32-1.26.64-1.89.96-1.81.63-3.62,1.27-5.42,1.9-.1.02-.21.05-.31.07-.19-.15-.38-.3-.57-.45,0,0,.07-.1.07-.1,0,0-.08-.1-.08-.1,0-2.17,0-4.34.01-6.51.07-.25.14-.5.21-.74.31-.25.82-.45.91-.77,1.17-4.06,2.12-8.18,3.44-12.19,1.08-3.25,2.59-6.36,3.91-9.53-.42-.31-.82-.61-1.22-.91.06-.09.13-.19.19-.28.47.11.93.23,1.54.38,1.17-3.99,3.92-7.37,3.91-11.81,1.59-1.4,1.49-3.72,2.05-5.77.19-.44.38-.87.57-1.31.47-3.09,1.69-6.09,1.39-9.32.28-.55.78-1.18.91-1.88.15-.8-.02-1.65-.05-2.49,0,0-.02.02-.02.02.06-.09.12-.18.18-.26.15-.14.3-.28.45-.42.13-.1.26-.2.39-.3Z"/><path class="cls-3" d="M72.65,60.64c2.16-5.93,4.33-11.86,6.49-17.79.58-1.6,1.11-3.21,1.67-4.82.2-.33.4-.65.6-.98,0,0,0,0,0,0,.64-.43,1.27-.85,1.91-1.28h0c.27-.21.54-.42.81-.63,0,0-.02.01-.02.01,1.21-.63,2.42-1.25,3.63-1.88.02.09.03.17,0,.26-.09.33-.18.65-.27.98-.47,1.82-.87,3.67-1.44,5.46-.41,1.26-1.05,2.44-1.59,3.66-.33.74-.74,1.46-.97,2.23-.83,2.8-1.36,5.73-2.47,8.41-1.24,3.01-2.14,6.11-3.16,9.18-1.15,3.47-2.45,6.9-3.63,10.36-.69,2.04-1.21,4.14-1.93,6.16-.24.69-.86,1.24-.99,1.88-.21,1.12-.36,2.25-.63,3.35-1.09,4.48-2.26,8.94-3.31,13.43-.38,1.63-.52,3.31-.76,4.97-.8.47-1.61.93-2.41,1.39-.11.07-.22.13-.33.2-.2.1-.41.2-.61.3-.3-.13-.59-.25-.89-.38.92-1.31,1.42-2.59-.24-3.69-.09.49-.19.99-.28,1.49-.17-.08-.33-.17-.5-.25.42-1.6.85-3.2,1.24-4.81.06-.23-.09-.52-.34-.67,2.11-12.32,6.43-24.21,10.26-36.24.4.42.8.84,1.43,1.49.1-.79.2-1.68.34-2.83-.83.52-1.23.77-1.63,1.03ZM79.18,53.63h0c-.27.29-.56.83-.82.83-1.31-.04-1.3.5-.75,1.39-.07.11-.14.21-.03.05-.04.19-.01.06.01-.06,1-.68,2.76-.6,2.49-2.52.12-.22.29-.43.36-.66.13-.41.21-.84.31-1.26-.39.15-.89.19-1.14.46-.38.4-.58.96-.86,1.45.15.11.29.22.44.33ZM63.44,101.96c2.13-1.23,2.58-2.22,1.99-3.43.34-.37.68-.74,1.03-1.13-.56-.43-1.03-.79-1.35-1.04-.24.8-.52,1.71-.79,2.64-.29.98-.58,1.97-.87,2.96ZM73.59,67.77c-.42,1.2-.76,2.19-1.17,3.39,1.43-.58,2.04-2.2,1.17-3.39ZM71.25,68.47c1.75-.24,2.99-1.67,2.17-2.72-.74.93-1.47,1.84-2.17,2.72ZM69.82,82.66c.07.11.13.23.2.34.19-.15.38-.3.57-.45-.05-.07-.1-.14-.14-.21-.21.1-.42.21-.62.31Z"/><path class="cls-3" d="M108.37,84.19c.26-2.12.19-4.34.85-6.33,1.78-5.35,3.81-10.61,5.85-15.87,1.1-2.84,2.35-5.63,3.64-8.38,2.12-4.53,4.38-8.99,6.47-13.53,1.18-2.56,2.13-5.22,3.19-7.84.17.23.35.45.52.68.22.95.44,1.91.66,2.86.09.34.18.67.27,1.01.24,1.15.48,2.3.72,3.45,0,.22,0,.43.01.65-.03.06-.07.12-.11.17-.07.08-.17.14-.21.23-1.7,3.89-3.34,7.81-5.14,11.66-.39.83-1.32,1.41-1.93,2.03.05.39.28.9.14,1.27-.63,1.65-1.3,3.3-2.09,4.89-1.23,2.48-2.56,4.91-3.84,7.36-.09.17-.29.43-.25.49,1.03,1.28-.12,2.32-.56,3.23-1.16,2.36-1.49,4.89-2.02,7.39.07.05.11.11.11.19-.41.38-.83.77-1.24,1.15-1.55,1.13-3.09,2.25-4.64,3.38-.14-.04-.27-.09-.41-.13ZM119.13,59.68c1.65-.29,2.22-1.37,1.55-2.77-.52.92-.99,1.76-1.55,2.77ZM120.59,54.92c-.46.67-.88,1.27-1.3,1.88q1.71-1,1.3-1.88ZM118.77,56.98c-.09-.05-.16-.1-.25-.13-.04-.01-.09.03-.14.05.04.06.08.18.11.18.09,0,.18-.06.28-.09Z"/><path class="cls-3" d="M70.93,44.38c.03.83.2,1.69.05,2.49-.14.7-.63,1.33-.91,1.88.3,3.23-.92,6.23-1.39,9.32-1.13.03-.52.81-.57,1.31-.55,2.05-.46,4.37-2.05,5.77.01,4.44-2.74,7.81-3.91,11.81-.61-.15-1.08-.26-1.54-.38-.06.09-.13.19-.19.28.4.3.8.6,1.22.91-1.32,3.17-2.83,6.28-3.91,9.53-1.33,4-2.28,8.13-3.44,12.19-.09.32-.6.51-.91.77-.04-1.19-.08-2.38-.12-3.56,0-.47.02-.94.03-1.4,0-1.55,0-3.1.01-4.66,0,0,.13-.05.13-.05.7-.74,1.41-1.47,2.12-2.21.41-.66.83-1.32,1.29-2.06h-1.99c-.17.6-.33,1.18-.49,1.77-.25.08-.5.16-.75.23,0,0-.15-.05-.15-.05v-.56c.08-1.79.16-3.57.24-5.36,2.02-4.7,4.15-9.36,6.01-14.12,1.17-2.98,1.92-6.12,2.87-9.19,0-.21-.01-.43-.02-.64.03-.11.05-.21.08-.32.1-.11.21-.22.31-.33,0,0,0,0,0,0,.31-.64.62-1.28.92-1.92,0,0,.01-.02.01-.02.11-.2.22-.41.33-.61.34-.69.68-1.38,1.02-2.07.17-.26.35-.53.52-.79.07-.06.11-.14.09-.23.21-.45.42-.9.63-1.36.41-.74.82-1.48,1.23-2.23.6-1.16,1.2-2.33,1.8-3.49.15-.12.3-.24.45-.36.14-.09.28-.18.42-.26.18,0,.37-.02.55-.03ZM67.92,55.55s.36-.29.68-.55c-.25-.23-.5-.47-.86-.81-.31.94-.58,1.71-.87,2.6-.29.04-.83.12-1.37.19l-.09.42c.28.12.55.25.83.36.36.14.72.26,1.2.43.14-.74.29-1.58.49-2.64ZM64.74,60.08c-.33-.7-.61-1.3-.9-1.89-.1,0-.2.02-.29.03.07.87.13,1.74.22,2.9.49-.52.76-.81.97-1.04ZM61.57,72.12c.22.1.44.2.65.3.23-.49.47-.99.7-1.48-.26-.11-.51-.21-.77-.32-.2.5-.39,1-.59,1.49Z"/><path class="cls-9" d="M114.55,79.6c.53-2.5.86-5.03,2.02-7.39.44-.91,1.59-1.95.56-3.23-.05-.06.16-.32.25-.49,1.29-2.45,2.62-4.88,3.84-7.36.78-1.59,1.45-3.23,2.09-4.89.14-.37-.09-.87-.14-1.27.6-.62,1.54-1.19,1.93-2.03,1.79-3.85,3.43-7.77,5.14-11.66.04-.09.14-.15.21-.23.89,2.39-.34,4.51-.9,6.71-1.3,5.13-2.59,10.26-3.89,15.39l-.2.66c-.35,1.36-.7,2.72-1.04,4.08-.04.12-.08.23-.12.35-.48,1.81-.96,3.63-1.44,5.44-.08.11-.16.22-.24.34-2.68,1.86-5.36,3.72-8.04,5.58Z"/><path class="cls-9" d="M62.57,59.05c-.94,3.07-1.7,6.21-2.87,9.19-1.86,4.76-4,9.42-6.01,14.12-.09-.02-.16,0-.21.07-.03-2.01-.19-4.03-.02-6.03.09-1.04.78-2.03,1.2-3.05.1-.21.21-.42.31-.63.74-1.4,1.49-2.79,2.23-4.19.13-.03.17-.11.12-.23,1.35-2.55,2.7-5.1,4.05-7.65.07-.11.14-.23.22-.34.04-.1.07-.19.11-.29.07-.12.14-.23.22-.35.14-.21.27-.42.41-.63,0,0,.13.01.13.01h.13Z"/><path class="cls-2" d="M76.16,100.22c.23-.35.4-.77.71-1.05.71-.65,1.7-1.15.69-2.33-.04-.05.45-.74.8-.91.42-.21.96-.19,1.45-.26-.28,1.22-.55,2.44-.83,3.67-.26.13-.52.25-.78.38-.11.01-.2.05-.29.12-.17.07-.34.15-.51.22-.15.02-.3.05-.45.07-.27.03-.53.06-.8.09Z"/><path class="cls-6" d="M97.01,90.59c-.32.75-.64,1.5-.96,2.25-.04.08-.05.16-.05.25-.09.09-.19.17-.28.26-.2.14-.4.28-.6.41-.16,0-.33,0-.49.01,0-.85,0-1.7,0-2.76.21-.18.65-.57,1.09-.96-.03,1.3.83.43,1.29.53Z"/><path class="cls-5" d="M78.99,99.33c.28-1.22.55-2.44.83-3.67.31.11.62.22.93.32-.08.87-.17,1.74-.25,2.6-.35.24-.69.49-1.04.74-.16,0-.31,0-.47,0Z"/><path class="cls-6" d="M53.59,88.33c.25-.08.5-.16.75-.23.4.1.79.19,1.19.29-.71.74-1.41,1.47-2.12,2.21-.05-.22-.1-.45-.15-.67.07-.1.08-.19.01-.29.05-.16.1-.32.15-.48.06-.27.11-.55.17-.82Z"/><path class="cls-1" d="M69.51,45.04c-.6,1.16-1.2,2.33-1.8,3.49.02-1.46.09-2.9,1.8-3.49Z"/><path class="cls-2" d="M87.74,33.27c-1.21.63-2.42,1.25-3.63,1.88,1.12-.87,2.23-1.74,3.35-2.61.08,0,.17.03.25.06.01.22.02.45.03.67Z"/><path class="cls-1" d="M62.37,105.12c.3.13.59.25.89.38-.04.15-.07.42-.12.43-1.23.11-2.45.19-3.68.27.63-.32,1.26-.64,1.89-.96.34-.04.68-.08,1.02-.12Z"/><path class="cls-1" d="M108.37,84.19c.14.04.27.09.41.13,0,.4,0,.8,0,1.53-.51-.23-1.07-.48-1.62-.73.4-.31.8-.62,1.2-.93Z"/><path class="cls-7" d="M53.47,82.43c.06-.07.13-.09.21-.07-.08,1.79-.16,3.58-.24,5.36-.05-1.06-.09-2.12-.14-3.18.06-.7.11-1.41.17-2.11Z"/><path class="cls-1" d="M53.28,90.64c0,1.55,0,3.11-.01,4.66,0-1.55,0-3.1.01-4.66Z"/><path class="cls-1" d="M53.24,96.7c.04,1.19.08,2.38.12,3.56-.07.25-.14.49-.21.74.03-1.44.06-2.87.1-4.31Z"/><path class="cls-1" d="M53.3,84.54c.05,1.06.09,2.12.14,3.18,0,.19,0,.37,0,.56-.06.24-.12.47-.17.71.01-1.48.02-2.97.04-4.45Z"/><path class="cls-1" d="M78.99,99.33c.16,0,.31,0,.47,0-.16.36-.32.72-.47,1.08-.26-.23-.52-.46-.78-.7.26-.13.52-.25.78-.38Z"/><path class="cls-2" d="M83.32,35.77c-.64.43-1.27.85-1.91,1.28.64-.43,1.27-.85,1.91-1.28Z"/><path class="cls-1" d="M63.87,55.84c-.31.64-.62,1.28-.92,1.92.19-.7-.57-1.85.92-1.92Z"/><path class="cls-10" d="M113.42,80.95c.41-.38.83-.77,1.24-1.15.42,1.28-.57,1.04-1.24,1.15Z"/><path class="cls-1" d="M76.16,100.22c.27-.03.53-.06.8-.09-.29.83-.76,1.19-1.6.63.27-.18.54-.36.8-.54Z"/><path class="cls-1" d="M83.99,97.64c.53-.19,1.05-.38,1.58-.57-.53.19-1.05.38-1.58.57Z"/><path class="cls-1" d="M93.67,94.15c.26-.04.52-.08.79-.12-.65.22-1.29.44-1.94.66.38-.18.77-.36,1.15-.54Z"/><path class="cls-1" d="M96.69,92.45c.23-.11.47-.21.7-.32.13.17.27.34.4.51-.37-.06-.73-.13-1.1-.19Z"/><path class="cls-10" d="M66.48,50.76c-.21.45-.42.9-.63,1.36-.1-.6-.5-1.34.63-1.36Z"/><path class="cls-1" d="M98.28,26.55c-.42.2-.84.4-1.26.59-.08-1.27.72-.64,1.26-.59Z"/><path class="cls-1" d="M104.99,23.35c-.43.21-.85.41-1.28.62.43-.21.85-.41,1.28-.62Z"/><path class="cls-1" d="M87.71,32.6c-.08-.03-.16-.05-.25-.06.31-.2.62-.39.93-.59-.23.22-.46.44-.68.65Z"/><path class="cls-1" d="M91.03,30.09c-.32.23-.64.46-.97.7.32-.23.64-.46.97-.7Z"/><path class="cls-10" d="M129.8,36.79c-.09-.34-.18-.67-.27-1.01.09.34.18.67.27,1.01Z"/><path class="cls-2" d="M81.41,37.05c-.2.33-.4.65-.6.98-.1-.13-.2-.26-.3-.39,0-.08,0-.16,0-.23.3-.12.6-.23.9-.35Z"/><path class="cls-1" d="M79.23,38.35c-.33.22-.65.45-.98.67.33-.22.65-.45.98-.67Z"/><path class="cls-1" d="M100.65,25.33c-.36.19-.73.38-1.09.57.36-.19.73-.38,1.09-.57Z"/><path class="cls-1" d="M88.2,96.2c.39-.14.78-.28,1.17-.42-.39.14-.78.28-1.17.42Z"/><path class="cls-1" d="M99.57,90.56c.32-.23.63-.45.95-.68-.32.23-.63.45-.95.68Z"/><path class="cls-10" d="M65.76,52.34c-.17.26-.35.52-.52.79.17-.26.35-.52.52-.79Z"/><path class="cls-1" d="M130.54,40.89c0-.22,0-.43-.01-.65.15.1.3.21.46.31-.15.11-.29.23-.44.34Z"/><path class="cls-10" d="M128.88,32.92c-.17-.23-.35-.45-.52-.68-.04-.1-.04-.19,0-.29.08,0,.16,0,.24-.03.1.33.19.66.29.99Z"/><path class="cls-1" d="M127.33,27.48c-.05-.21-.1-.42-.15-.63.05.21.1.42.15.63Z"/><path class="cls-1" d="M125.44,63.82c.07-.22.14-.44.2-.66-.07.22-.14.44-.2.66Z"/><path class="cls-1" d="M86.84,96.66c.21-.08.42-.17.63-.25-.21.08-.42.17-.63.25Z"/><path class="cls-1" d="M90.36,95.43c.21-.08.41-.15.62-.23-.21.08-.41.15-.62.23Z"/><path class="cls-1" d="M126.72,24.93c-.04-.21-.09-.42-.13-.62.04.21.09.42.13.62Z"/><path class="cls-1" d="M126.41,23.65c-.04-.21-.09-.42-.13-.62.04.21.09.42.13.62Z"/><path class="cls-1" d="M102.9,24.37c-.26.12-.52.24-.78.35.26-.12.52-.24.78-.35Z"/><path class="cls-2" d="M84.13,35.14c-.27.21-.54.42-.81.64.27-.21.54-.42.81-.64Z"/><path class="cls-1" d="M101.79,88.98c.22-.18.44-.35.66-.53-.22.18-.44.35-.66.53Z"/><path class="cls-7" d="M53.27,88.99c.06-.24.12-.47.17-.71,0,0,.15.05.15.05-.06.27-.12.55-.17.82-.06-.05-.11-.1-.15-.16Z"/><path class="cls-1" d="M62.57,59.05h-.13s-.13,0-.13,0c.08-.21.16-.42.24-.64,0,.21.01.43.02.64Z"/><path class="cls-1" d="M54.97,72.73c-.1.21-.21.42-.31.63.1-.21.21-.42.31-.63Z"/><path class="cls-1" d="M64.21,55.2c-.11.2-.22.41-.33.61.11-.2.22-.41.33-.61Z"/><path class="cls-1" d="M95.12,93.75c.2-.14.4-.28.6-.41-.2.14-.4.28-.6.41Z"/><path class="cls-1" d="M128.59,31.93c-.08.02-.16.03-.24.03-.03-.21-.07-.42-.1-.63.11.2.22.4.34.61Z"/><path class="cls-1" d="M89.72,31.01c-.21.15-.41.3-.62.45.21-.15.41-.3.62-.45Z"/><path class="cls-1" d="M91.65,29.73c-.22.13-.43.25-.65.38.22-.13.43-.25.65-.38Z"/><path class="cls-1" d="M94.91,28.18c-.24.11-.49.23-.73.34.24-.11.49-.23.73-.34Z"/><path class="cls-1" d="M101.03,25.37c-.07-.04-.13-.07-.2-.09.24-.1.49-.2.73-.29-.18.13-.35.26-.53.39Z"/><path class="cls-1" d="M110.14,20.83c-.23.11-.45.23-.68.34.23-.11.45-.23.68-.34Z"/><path class="cls-1" d="M124.11,14.4c-.22.01-.43.03-.65.04.22-.01.43-.03.65-.04Z"/><path class="cls-1" d="M124.37,14.92c-.07-.17-.15-.33-.22-.5.07.17.15.33.22.5Z"/><path class="cls-1" d="M122.03,15.13c-.16.08-.32.16-.48.24.16-.08.32-.16.48-.24Z"/><path class="cls-1" d="M112.77,19.59c-.15.08-.3.15-.45.23.15-.08.3-.15.45-.23Z"/><path class="cls-1" d="M125.61,20.07c-.06-.18-.12-.35-.18-.53.06.18.12.35.18.53Z"/><path class="cls-1" d="M109.49,21.15c-.12.07-.24.14-.35.22.12-.07.24-.14.35-.22Z"/><path class="cls-1" d="M108.05,21.83c-.17.09-.34.17-.51.26.17-.09.34-.17.51-.26Z"/><path class="cls-1" d="M107.55,22.09c-.11.07-.22.14-.32.2.11-.07.21-.14.32-.2Z"/><path class="cls-1" d="M99.38,25.94c-.14.09-.29.18-.43.27.14-.09.29-.18.43-.27Z"/><path class="cls-1" d="M98.91,26.24c-.09.06-.18.11-.27.17.09-.06.18-.11.27-.17Z"/><path class="cls-1" d="M96.95,27.18l-.06.11s-.12-.02-.12-.02c.05-.05.11-.08.19-.1Z"/><path class="cls-3" d="M95.6,27.91s0,0,0,0c0,0,0,0,0,0Z"/><path class="cls-1" d="M127.63,28.77c-.02-.1-.05-.2-.07-.3.02.1.05.2.07.3Z"/><path class="cls-1" d="M127.94,30.17s-.03.05-.03.05.03-.05.03-.05Z"/><path class="cls-1" d="M80.51,37.4c-.01.08-.02.15,0,.23-.12,0-.24,0-.35,0,.12-.08.24-.16.36-.24Z"/><path class="cls-1" d="M79.88,37.71c-.11.14-.22.27-.33.41.11-.14.22-.27.33-.41Z"/><path class="cls-1" d="M76.97,39.93c-.12.08-.23.16-.34.24.11-.08.23-.16.34-.24Z"/><path class="cls-1" d="M74.71,41.51c-.09.07-.19.14-.29.21.1-.07.19-.14.29-.21Z"/><path class="cls-1" d="M71.93,43.42c-.13.1-.26.2-.39.3.13-.1.26-.2.39-.3Z"/><path class="cls-3" d="M71.09,44.14c-.06.09-.12.18-.18.26.06-.09.12-.18.18-.26Z"/><path class="cls-1" d="M70.37,44.41c-.14.09-.28.18-.42.26.14-.09.28-.18.42-.26Z"/><path class="cls-1" d="M62.94,57.76c-.1.11-.21.22-.31.33.1-.11.21-.22.31-.33Z"/><path class="cls-1" d="M61.9,59.68c-.07.12-.14.23-.22.35.07-.12.14-.23.22-.35Z"/><path class="cls-1" d="M61.58,60.32c-.07.11-.14.23-.22.34.07-.11.14-.23.22-.34Z"/><path class="cls-1" d="M124.27,68.24c.04-.12.08-.23.12-.35-.04.12-.08.23-.12.35Z"/><path class="cls-1" d="M57.31,68.31c.05.12,0,.19-.12.23.01-.09.05-.17.12-.23Z"/><path class="cls-1" d="M122.59,74.02c.08-.11.16-.22.24-.34-.08.11-.16.22-.24.34Z"/><path class="cls-1" d="M103.21,87.96c.16-.12.31-.23.47-.35-.16.12-.31.23-.47.35Z"/><path class="cls-1" d="M53.27,89.63c.07.1.06.2-.01.29-.03-.07-.06-.14-.07-.21,0-.02.05-.06.09-.08Z"/><path class="cls-1" d="M99.14,90.85c.14-.09.29-.19.43-.28-.14.09-.29.19-.43.28Z"/><path class="cls-1" d="M98.69,91.2c.02-.12.09-.18.21-.17-.04.09-.11.15-.21.17Z"/><path class="cls-1" d="M96,93.08c0-.09,0-.17.05-.25.11-.02.22-.04.33-.06-.12.1-.25.21-.37.31Z"/><path class="cls-1" d="M81.11,98.61c.1-.03.21-.05.31-.08-.1.03-.21.05-.31.08Z"/><path class="cls-1" d="M77.41,100.06c.17-.07.34-.15.51-.22-.17.07-.34.15-.51.22Z"/><path class="cls-1" d="M68.85,102.94c.15-.06.3-.12.45-.18-.15.06-.3.12-.45.18Z"/><path class="cls-1" d="M63.86,105.2c.11-.07.22-.13.33-.2-.11.07-.22.13-.33.2Z"/><path class="cls-1" d="M53.13,107.52l.08.1s-.07.1-.07.1c-.06-.07-.06-.13,0-.2Z"/><path class="cls-1" d="M53.71,108.17c.1-.02.21-.05.31-.07-.1.02-.21.05-.31.07Z"/><path class="cls-7" d="M96.8,57.83c-.41-.57-.81-1.15-1.21-1.71-.28.2-.55.4-.9.66-.1-1.39-.36-2.75,1.72-1.99.12.04.42-.43.63-.66.5-.57,1.01-1.15,1.51-1.73.28-.03.56-.06.84-.09-.86,1.84-1.72,3.67-2.58,5.51Z"/><path class="cls-5" d="M81.09,95.35l-1.44-.44c.02-.14.03-.27.05-.41.55-.14,1.11-.28,1.66-.42-.09.42-.18.85-.27,1.27Z"/><path class="cls-2" d="M87.48,34.51c.09-.33.18-.65.27-.98-.09.33-.18.65-.27.98Z"/><path class="cls-2" d="M89.61,60.25c-.06.13-.12.27-.19.4.06-.13.12-.27.19-.4Z"/><path class="cls-2" d="M89.42,60.67c-.09.11-.17.22-.26.33.09-.11.17-.22.26-.33Z"/><path class="cls-2" d="M101.77,81.02c-.25-.26-.51-.52-.76-.78,1.39-.84.76-2.08.51-3.39.63.04,1.13.08,1.63.12-.46,1.35-.92,2.7-1.38,4.05Z"/><path class="cls-2" d="M111.03,58.08c-.42.13-.85.27-1.73.55.8-1.29.95-2.52,2.4-2.79-.22.75-.45,1.5-.67,2.24Z"/><path class="cls-2" d="M101.17,82.93l.32-.96c-.11.32-.21.64-.32.96Z"/><path class="cls-2" d="M100.84,81.65c-.31.57-.63,1.13-.93,1.7-.13.25-.2.52-.61.93-.23-1.14-.46-2.27-.69-3.41.21-.05.41-.11.62-.16.11.57.22,1.14.35,1.84.4-.29.84-.59,1.27-.89h-.01Z"/><path class="cls-2" d="M106.41,62.11c.61-1.15,1.15-2.19,1.92-3.65.23.78.51,1.2.42,1.49-.46,1.34-1.41,2.16-2.34,2.16Z"/><path class="cls-2" d="M97.01,90.59c-.46-.11-1.32.77-1.29-.53.14-.92.28-1.84.42-2.76.12-.04.23-.07.35-.11.29.61.58,1.22.99,2.11-.03.24-1.46.41-.46,1.29Z"/><path class="cls-6" d="M116.84,41.09c-.53,1.02-1.01,1.93-1.73,3.29-.26-.83-.58-1.36-.45-1.52.55-.67.54-2,2.18-1.77Z"/><path class="cls-2" d="M108.45,56.49c1.24,1.86-1.3,1.58-1.3,2.67-.34-1.2.4-1.89,1.3-2.67Z"/><path class="cls-2" d="M104.69,66.04c.29-.76.58-1.52.96-2.51q1,1.4-.48,2.71c-.16-.07-.32-.13-.48-.2Z"/><path class="cls-2" d="M108.5,53.31c.28-.95.57-1.89.92-3.08.73,1.57.29,2.68-.94,3.07l.02.02Z"/><path class="cls-2" d="M118.05,22.62c.09-.87-.25-2.01,1.48-1.93-.38.74-.74,1.43-1.11,2.13-.12-.07-.25-.13-.37-.2Z"/><path class="cls-2" d="M96.58,84.87c.2-.71.3-1.08.44-1.57.37.11.74.12.9.3.2.22.24.6.34.91-.48.1-.96.21-1.68.36Z"/><path class="cls-2" d="M108.49,53.29s-.04.08-.07.12c.03-.04.05-.07.08-.11,0,0-.02-.02-.02-.02Z"/><path class="cls-2" d="M100.85,81.66s.05-.08.07-.11c-.03.03-.06.07-.08.1,0,0,.01.01.01.01Z"/><path class="cls-2" d="M87.33,71.17c1.07-.65.45-3.24,2.98-2.44-1.34.65-1.1,2.72-2.98,2.44Z"/><path class="cls-2" d="M86.45,68.56c1.19-.92,2.11-1.64,3.08-2.39.21,1.45-.38,1.93-3.08,2.39Z"/><path class="cls-6" d="M98.55,52.42c-.5.58-1.01,1.15-1.51,1.73-.13-.08-.26-.15-.39-.23-.05-.31-.1-.62-.15-.94.56-.59,1.13-1.18,1.69-1.77.12.09.24.17.35.26v.95Z"/><path class="cls-2" d="M89.71,62.54c.26-.85.53-1.7.8-2.54.19.08.38.16.57.24-.62.69.37,2.11-1.37,2.3,0,0,.01.01.01.01Z"/><path class="cls-7" d="M96.5,52.98c.05.31.1.62.15.94-.05-.31-.1-.62-.15-.94Z"/><path class="cls-2" d="M89.7,62.53s-.04.09-.06.13c.02-.04.05-.08.07-.12,0,0-.01-.01-.01-.01Z"/><path class="cls-6" d="M62.37,105.12c-.34.04-.68.08-1.02.12-.28-.4-.55-.8-.83-1.2.59-.26-.45-1.53.84-1.37.17.08.33.17.5.25.09-.5.19-1.01.28-1.49,1.66,1.09,1.16,2.38.24,3.69Z"/><path class="cls-2" d="M72.65,60.64c.4-.25.8-.5,1.63-1.03-.14,1.15-.25,2.04-.34,2.83-.62-.65-1.03-1.07-1.43-1.49.05-.11.09-.21.14-.32Z"/><path class="cls-2" d="M68.1,59.39c.05-.5-.56-1.28.57-1.31-.19.44-.38.87-.57,1.31Z"/><path class="cls-6" d="M63.44,101.96c.29-.99.57-1.97.87-2.96.27-.92.55-1.84.79-2.64.32.25.79.6,1.35,1.04-.35.38-.69.75-1.03,1.13.6,1.21.14,2.2-1.98,3.43Z"/><path class="cls-2" d="M73.59,67.77c.86,1.18.26,2.81-1.17,3.39.41-1.19.76-2.19,1.17-3.39Z"/><path class="cls-2" d="M71.25,68.47c.71-.89,1.43-1.8,2.17-2.72.81,1.05-.42,2.48-2.17,2.72Z"/><path class="cls-2" d="M77.6,55.85c-.55-.9-.56-1.44.75-1.39.26,0,.55-.54.82-.82.3-.11.6-.21.9-.32.27,1.92-1.49,1.85-2.49,2.52h.02Z"/><path class="cls-6" d="M80.07,53.31c-.3.11-.6.21-.9.32,0,0,0,0,0,0-.15-.11-.29-.22-.44-.33.28-.49.48-1.05.86-1.45.26-.27.75-.32,1.14-.46-.1.42-.18.85-.31,1.26-.08.24-.24.44-.36.66Z"/><path class="cls-8" d="M69.82,82.66c.21-.1.42-.21.62-.31.05.07.1.14.14.21-.19.15-.38.3-.57.45-.07-.11-.13-.23-.2-.34Z"/><path class="cls-2" d="M77.59,55.84c-.03.13-.06.26-.01.06-.1.16-.04.06.03-.05,0,0-.02-.01-.02-.01Z"/><path class="cls-2" d="M78.74,53.31c.15.11.29.22.44.33-.15-.11-.29-.22-.44-.33Z"/><path class="cls-2" d="M119.13,59.68c.57-1.01,1.04-1.84,1.55-2.77.66,1.4.1,2.48-1.55,2.77Z"/><path class="cls-2" d="M120.59,54.92q.4.88-1.3,1.88c.42-.6.84-1.21,1.3-1.88Z"/><path class="cls-2" d="M118.77,56.98c-.1.04-.19.09-.28.09-.03,0-.07-.12-.11-.18.05-.02.1-.06.14-.05.08.03.16.08.25.13Z"/><path class="cls-2" d="M67.92,55.55c-.2,1.06-.35,1.9-.49,2.64-.48-.17-.84-.3-1.2-.43-.28-.11-.55-.24-.83-.36l.09-.42c.54-.08,1.08-.15,1.37-.19.3-.89.56-1.66.87-2.6.36.34.61.57.86.81-.32.26-.64.52-.68.55Z"/><path class="cls-2" d="M55.53,88.38c-.4-.1-.79-.19-1.19-.29.16-.59.33-1.18.49-1.77h1.99c-.46.74-.88,1.4-1.29,2.06Z"/><path class="cls-2" d="M64.74,60.08c-.21.23-.48.51-.97,1.04-.09-1.17-.16-2.03-.22-2.9.1,0,.2-.02.29-.03.28.6.57,1.2.9,1.89Z"/><path class="cls-2" d="M61.57,72.12c.2-.5.39-1,.59-1.49.26.11.51.21.77.32-.23.49-.47.99-.7,1.48-.22-.1-.44-.2-.65-.3Z"/></svg>