<?xml version="1.0" encoding="UTF-8"?><svg id="Layer_1" xmlns="http://www.w3.org/2000/svg" viewBox="0 0 204.09 183.23"><defs><style>.cls-1{fill:#f1f5f6;}.cls-1,.cls-2,.cls-3,.cls-4,.cls-5,.cls-6,.cls-7{stroke-width:0px;}.cls-2{fill:#079454;}.cls-3{fill:#319f52;}.cls-4{fill:#039354;}.cls-5{fill:#0e9358;}.cls-6{fill:#fcf5f3;}.cls-7{fill:#fbd44a;}</style></defs><path class="cls-7" d="M148.45,105.79c.04.1.08.2.12.3.07.11.14.21.21.32.23.42.45.85.68,1.27.1.2.2.4.29.6.12.22.24.44.35.67.1.18.2.37.3.55.24.46.48.91.72,1.37.07.1.14.21.21.31,0,0,0,0,0,0,.22.42.44.84.66,1.26.15.33.3.65.45.98.06.09.12.18.18.27,0,0,.02.03.02.03.21.4.43.81.64,1.21,0,0,.03.05.03.05.41.83.83,1.65,1.24,2.48.52,1.07,1.04,2.13,1.56,3.2-.27.67-.53,1.33-.92,2.31,0,0-.41.19-.94.44.62.7,1.16,1.32,1.8,2.04-1.77,1.54-2.34,3.49-2.35,5.7,0,1.32-.32,2.64-.28,3.95.02.74.5,1.45.71,2.2.13.46.28.98.2,1.44-.37,1.9-1.77,3.61-1.02,5.73.1.27-.18.7-.33,1.03-.53,1.2-1.08,2.4-1.63,3.6,0,0,.03-.04.03-.04-.1.09-.2.19-.3.28-4.6,1.49-9.2,2.97-13.8,4.46-1.06-1.4-1.32-3.15-2.43-4.62-1.9-2.53-3.23-5.49-4.83-8.25-.16-.28-.5-.47-.75-.7-.24.31-.58.58-.7.93-.36,1.05-.67,2.13-.94,3.21-.09.34-.13.79.02,1.07.59,1.12.1,1.87-.64,2.57-.36-.19-.66-.34-1.43-.73.36.98.56,1.51.75,2.05.23.65.78,1.43.59,1.93-.51,1.33-1.27,2.59-2.06,3.79-.54.82-1.3,1.5-1.96,2.24-1.8.28-3.6.56-5.4.83-.39-.1-.78-.25-1.18-.29-1.15-.11-2.79.28-3.38-.34-1.56-1.64-2.83-3.63-3.88-5.65-.78-1.5-1.05-3.28-1.57-5.02-1.74.66-2.38,1.86-2.78,3.53-.99,4.12-2.16,4.97-6.29,5.17-.34.02-.67.23-1.01.35-3.71-1.72-7.42-3.44-11.13-5.16-1.4-3.43-2.85-6.83-4.18-10.28-1.18-3.05-2.27-6.13-3.35-9.21-.34-.98-.72-2.02-.69-3.02.04-1.33-.57-2-1.84-2.73-.41,1.68-.77,3.17-1.13,4.67-.3,1.27-.68,2.53-.85,3.82-.13,1.02.01,2.07.02,3.11,0,.88.14,1.79-.03,2.63-.24,1.15-.71,2.26-1.08,3.38-.69-.37-1.38-.73-2.07-1.1-.12-.08-.24-.17-.36-.25-.08-.06-.16-.11-.24-.17-.1-.05-.21-.1-.31-.15-.1-.08-.21-.16-.31-.23,0,0-.11-.08-.11-.08-.02-.12-.09-.17-.21-.15-.43-.27-.87-.54-1.3-.81-.1-.08-.19-.16-.29-.23,0,0-.11-.07-.11-.07-.18-.1-.36-.21-.54-.31,0,0-.03-.02-.03-.02-.1-.08-.19-.15-.29-.23,0,0-.12-.07-.12-.07-.17-.1-.35-.2-.52-.3,0,0-.05-.04-.05-.04-.08-.07-.17-.14-.25-.21-.05-.06-.11-.1-.19-.12,0,0-.01-.09-.01-.09,0,0-.08.02-.08.02-.14-.09-.28-.17-.41-.26-.08-.06-.17-.13-.25-.19-.04-.06-.09-.08-.15-.09-.18-.1-.35-.2-.53-.3-.22-.24-.44-.47-.65-.71.59-10.05,1.72-20.05,2.37-30.09.2-3.13.86-6.23,1.46-9.32.39-2.05,2.29-2.46,3.81-1.07,1.39-.36,2.68-.69,3.65-.94,2.37.56,3.2,2.36,4.02,4.17.02.05.06.09.11.12,1.64,1.05,2.36,2.59,2.83,4.47.92,3.65,2.75,7.07,2.89,10.94.01.31.36.6.53.91.25.45.6.88.68,1.36.35,2.19.6,4.39.95,6.58.09.57.42,1.11.73,1.91.4-.83.66-1.37,1.13-2.35,1.81,5.44,3.47,10.45,5.21,15.7.29-2.01,1.65-3.27,1.43-5.46-.41-4.11.04-8.31.13-12.47.08-3.54,1.06-6.87,2.23-10.17,1.05.42,2.09.84,3.14,1.26.43.19.86.39,1.29.58.63.24,1.27.48,1.9.72,0,0,.12.06.12.06h.13s.03-.03.03-.03c.44.18.88.37,1.32.55,0,0,.03.02.03.02.31.1.62.21.93.31.54.19,1.07.37,1.61.56.1.02.2.05.31.07.22.08.44.16.65.23.1.02.21.04.31.06,0,0,.06.03.06.03,0,0,.07.11.07.11l.12-.02c.24.04.48.08.73.13.09.08.19.1.3.08.15.14.29.28.44.42,1.22,4.1,2.45,8.2,3.73,12.51-.23.19-.77.63-1.51,1.24,3.18.91,2.08,3.34,2.4,5.36.4-.39.7-.82.74-1.27.24-2.37.35-4.76.63-7.12.12-1.07.64-2.09.75-3.16.25-2.41.72-4.57,2.62-6.39.94-.9,2.04-.33,2.64-.82,1.49-1.23,3-.46,4.5-.54,1.89-.1,3.16.44,3.4,2.5,0,.06.16.1.3.18.39-.3.8-.6,1.3-.97,1.05,1.57,2.33,2.96,2.99,4.6.65,1.62,1.07,3.23,2.65,4.22.17.11.26.46.28.71.07,1.55,1.25,2.16,2.3,2.93.58-2.64,1.36-5.15,1.66-7.73.51-4.31.7-8.66,1.09-12.99.17-1.83.5-3.65.76-5.47.84-.3,1.34-1.65,2.55-.85.13.15.25.3.38.45l-.04.07s.05.07.05.07c.13.28.26.57.38.85,0,0,.06.1.06.1.18.34.35.67.53,1.01ZM76.09,98.3c-1.13.84-2.04,1.52-2.96,2.21-.01.14-.02.29-.03.43h3.13c-.05-.9-.1-1.8-.14-2.64Z"/><path class="cls-4" d="M97.86,111.2c-1.17,3.3-2.15,6.63-2.23,10.17-.09,4.16-.55,8.36-.13,12.47.22,2.19-1.14,3.45-1.43,5.46-1.74-5.25-3.4-10.26-5.21-15.7-.47.99-.73,1.53-1.13,2.35-.31-.8-.64-1.33-.73-1.91-.35-2.19-.6-4.4-.95-6.58-.08-.48-.44-.92-.68-1.36-.17-.31-.52-.6-.53-.91-.14-3.87-1.97-7.28-2.89-10.94-.47-1.88-1.19-3.42-2.83-4.47-.04-.03-.09-.07-.11-.12-.82-1.81-1.64-3.61-4.02-4.17-.97.25-2.26.58-3.65.94-1.52-1.39-3.41-.98-3.81,1.07-.59,3.09-1.26,6.19-1.46,9.32-.64,10.04-1.77,20.05-2.37,30.09-.59-.32-1.17-.64-1.76-.96-.34-.24-.69-.47-1.03-.71-.11-.07-.21-.14-.32-.22-.23-.16-.46-.33-.69-.49-.05-.11-.14-.16-.26-.15-.21-.15-.43-.3-.64-.44-.11-.06-.21-.13-.32-.19-.12-.09-.24-.17-.36-.26-1.5-.97-3-1.94-4.5-2.91-.09-.09-.18-.17-.28-.26-1.09-1.08-2.17-2.15-3.26-3.23-.09-.1-.17-.21-.26-.31-1.01-1.51-2.03-3.02-3.04-4.53-.15-.2-.3-.39-.46-.59-.11-.21-.21-.43-.32-.64-.19-.38-.38-.77-.56-1.15-.33-.57-.66-1.15-1-1.72-.21-.34-.42-.69-.64-1.03-.15-.3-.29-.6-.44-.89-.08-.3-.16-.6-.24-.9-.94-2.13-1.87-4.26-2.81-6.4-.13-.32-.25-.64-.38-.97-.64-1.6-1.28-3.2-1.92-4.8-.02-.2-.03-.4-.05-.6-.08-.22-.15-.44-.23-.67-.03-.1-.06-.2-.09-.3-.12-.42-.24-.85-.37-1.27-.07-.21-.15-.43-.22-.64-.08-.32-.16-.63-.24-.95-.04-.21-.08-.42-.12-.63-.06-.64-.11-1.28-.17-1.92-.04-.64-.09-1.27-.13-1.91-.03-.85-.06-1.7-.09-2.55-.02-.22-.04-.43-.06-.65-.02-.21-.04-.41-.06-.62-.04-.64-.07-1.27-.11-1.91l-.11-3.21c.07-.1.07-.19,0-.29-.03-.32-.06-.64-.1-.96-.03-.74-.06-1.49-.09-2.23-.09-1.8-.17-3.61-.26-5.41-.02-.64-.04-1.28-.06-1.92-.06-1.27-.12-2.55-.18-3.82-.05-1.17-.1-2.34-.14-3.5-.03-.75-.06-1.5-.09-2.25.07-.1.07-.2,0-.3,0-.85,0-1.71-.01-2.56,1.15-1.35,2.4-2.63,3.41-4.08,1.29-1.83,2.4-3.78,3.57-5.7.24-.4.46-.84.58-1.29.51-1.94,1.97-3.16,3.25-4.75.67,1.14,1.27,1.95.42,3.08-.61.82-.42,1.52.73,1.54-.26.89-.65,1.71-.72,2.55-.22,2.54-.78,5-.45,7.66.3,2.44-.56,5.01-.78,7.54-.19,2.23-.07,4.49-.31,6.72-.37,3.45-.51,6.89-.58,10.35-.02,1.21-.5,2.46-.34,3.63.19,1.33.59,2.83,1.41,3.82.77.93,2.21,1.29,3.34,1.89.55.19,1.11.43,1.69.56.35.08.9.12,1.08-.07.66-.74.39-3.17-.33-3.84,1.29-.69,1.19-.7,1.27-2.22.11-2.01.54-4,.57-6,.05-2.84-.13-5.69-.24-8.53-.04-1.14-.31-2.31-.18-3.42.24-1.9-.84-3.94.63-5.71.1-.12.06-.44-.02-.62-.77-1.66-.48-3.41-.4-5.12.11-2.24.36-4.48.54-6.72.17-2.19.32-4.38.47-6.57.09-.44.18-.87.28-1.31,0,0,0,.01,0,.01.14,0,.28,0,.42,0,.2.2.39.4.59.59.31.24.62.47.93.71.62.75,1.24,1.5,1.85,2.25-.49.79-.08.92.61.84.66.68,1.32,1.37,1.98,2.05.26.26.52.51.78.77,0,0-.03,0-.03,0l.48.45c.87,1.17,1.75,2.33,2.62,3.5-.75,1.01.05.92.68.94.28.29.55.58.83.87-.11.13-.21.26-.32.39.25.11.5.22.76.33l.58.75c.04.07.1.13.16.19.27.33.54.66.81.99.09.11.18.22.26.33.14.17.27.34.41.51.1.14.21.28.31.42v-.02c.13.57-.29,1.56.96,1.29.09.12.18.25.27.37.12.41.25.82.37,1.23.2.21.4.41.6.62.16.1.31.21.47.31h.1s.07.07.07.07c.13.09.25.18.38.26.36.1.73.2,1.09.3.45.01.91.08,1.35,0,.13-.02.19-.44.28-.67v.04c.01-.31.03-.61.06-.92-.1-.43-.19-.85-.29-1.28.2-.13.4-.26.6-.4.11-.08.22-.17.33-.25.14,0,.27.01.41.02.03.22.07.44.1.66.02.41.03.81.05,1.22,0,.22.01.44.02.66-.03.03-.1.07-.09.09.02.07.06.14.1.21,0,.22,0,.44,0,.65-.03.04-.1.09-.09.11.04.07.1.14.15.2.43,3.55.87,7.09,1.29,10.64.07.62.05,1.25.07,1.87.04.18.09.36.14.53.43,2.23.85,4.46,1.28,6.7-.05.14-.11.29-.16.43.06.17.12.34.17.52l.55,1.92c.06.21.13.43.19.64.04.21.08.42.11.64.07.21.13.43.2.64.04.21.09.42.13.63.07.21.15.42.22.63.13.43.25.86.38,1.28.18.42.35.84.53,1.27.32.64.64,1.28.96,1.92.09.15.17.31.26.46.11.19.21.37.32.56,0,0-.04.07-.04.07,0,0,.09.03.09.03.49.7.98,1.4,1.47,2.1.13.14.26.28.39.41.33.38.65.76.98,1.14.11.11.22.23.33.34,1.84,1.57,3.67,3.15,5.51,4.72.29.2.59.4.88.59.73.45,1.46.9,2.2,1.35.11.08.23.15.34.23.97.57,1.94,1.13,2.91,1.7ZM63.86,58.7c.09.04.2.13.26.1.06-.03.08-.16.12-.25-.09-.04-.2-.13-.26-.1-.06.03-.08.16-.12.25Z"/><path class="cls-7" d="M68.56,62c-.14-.17-.27-.34-.41-.51-.09-.11-.18-.22-.26-.33-.27-.33-.54-.66-.81-.99,0-.11-.05-.18-.16-.19-.19-.25-.38-.5-.58-.75-.15-.24-.29-.48-.44-.72-.28-.29-.55-.58-.83-.87-.23-.31-.45-.63-.68-.94-.87-1.17-1.75-2.33-2.62-3.5-.16-.15-.32-.3-.48-.45,0,0,.03,0,.03,0-.26-.26-.52-.51-.78-.77-.66-.68-1.32-1.37-1.98-2.05-.2-.28-.41-.56-.61-.84-.62-.75-1.24-1.5-1.85-2.25-.31-.24-.62-.47-.93-.71-.2-.2-.39-.4-.59-.59-.09-.08-.19-.15-.28-.23-.04.08-.09.16-.13.23,0,0,0-.01,0-.01-.09.44-.18.87-.28,1.31-.16,2.19-.3,4.38-.47,6.57-.17,2.24-.43,4.47-.54,6.72-.08,1.71-.37,3.46.4,5.12.08.18.12.5.02.62-1.47,1.76-.39,3.81-.63,5.71-.14,1.12.13,2.28.18,3.42.1,2.84.28,5.69.24,8.53-.03,2-.46,4-.57,6-.08,1.52.01,1.53-1.27,2.22.72.66.99,3.1.33,3.84-.18.2-.73.15-1.08.07-.58-.13-1.14-.37-1.69-.56-1.13-.6-2.57-.97-3.34-1.89-.82-1-1.22-2.49-1.41-3.82-.17-1.17.31-2.41.34-3.63.07-3.46.21-6.91.58-10.35.24-2.22.12-4.49.31-6.72.22-2.53,1.08-5.1.78-7.54-.33-2.66.23-5.12.45-7.66.07-.84.46-1.66.72-2.55-1.15-.03-1.35-.73-.73-1.54.85-1.13.25-1.94-.42-3.08-1.28,1.59-2.74,2.81-3.25,4.75-.12.45-.34.89-.58,1.29-1.17,1.91-2.28,3.87-3.57,5.7-1.02,1.44-2.27,2.72-3.41,4.08-.08-.64-.16-1.28-.24-1.91-.01-.21-.02-.42-.03-.64-.02-.44-.05-.88-.07-1.32-.05-.21-.09-.42-.14-.64-.08-2.35-.16-4.71-.24-7.06-.03-.4-.05-.8-.08-1.21.02-1.62.04-3.24.06-4.86,1.84-2.25,3.69-4.49,5.61-6.84-.65-.67-1.12-1.15-1.57-1.62-.48.42-.8.7-1.31,1.14-.2-.84-.35-1.46-.47-1.98-1.03.43-1.96.82-2.89,1.2-.12-.26-.34-.53-.33-.79.06-2.32.15-4.65.24-6.97.53-.1,1.07-.21,1.6-.31.32-.02.65-.03.97-.05.31-.07.62-.15.93-.22,0,0,.02,0,.02,0,.42-.01.84-.02,1.26-.03.23-.04.46-.07.68-.11.49-.05.97-.11,1.46-.16,0,0,.11-.04.11-.04.74-.1,1.47-.2,2.21-.3.54-.03,1.08-.07,1.62-.1.42-.07.84-.14,1.26-.22,2.23-.23,4.46-.47,6.69-.7.54-.08,1.08-.17,1.62-.25.42-.03.83-.07,1.25-.1.42-.07.85-.13,1.27-.2.53-.04,1.07-.09,1.6-.13.44-.07.89-.13,1.33-.2.54,0,1.07,0,1.61,0,.15.19.28.54.44.55,1.95.1,3.91.24,5.87.2,2.2-.05,4.4-.28,6.6-.44.04.63.08,1.27.11,1.9.08,1.26.17,2.53.25,3.79-.02,1.78-.03,3.56-.05,5.34-1.39-.21-2.78-.61-4.17-.6-1.85.02-3.68.41-5.53.54-.78.06-1.58-.13-2.78-.24-.59.66-1.42.28-2.14-.88-.24.49-.42.85-.6,1.21-.06-.12-.11-.25-.17-.37-.62.13-1.23.25-1.85.38.27.66.38,1.46.83,1.95,2.59,2.83,5.5,5.4,7.85,8.41,2.88,3.69,5.4,7.68,7.9,11.65.83,1.32,1.13,2.97,1.67,4.47-.11.08-.22.17-.33.25-.2.13-.4.26-.6.4.1.43.19.85.29,1.28-.02.31-.04.61-.06.92,0,0,0-.04,0-.04-.54.22-1.09.44-1.63.67-.36-.1-.73-.2-1.09-.3-.13-.09-.25-.18-.38-.26l-.07-.08s-.1,0-.1,0c-.16-.1-.31-.21-.47-.31-.2-.21-.4-.41-.6-.62-.12-.41-.25-.82-.37-1.23-.09-.12-.18-.25-.27-.37-.32-.43-.65-.86-.97-1.29,0,0,.01.02.01.02-.1-.14-.21-.28-.31-.42Z"/><path class="cls-2" d="M144.54,104.1c-.26,1.82-.6,3.64-.76,5.47-.39,4.33-.57,8.68-1.09,12.99-.31,2.57-1.08,5.09-1.66,7.73-1.05-.77-2.22-1.38-2.3-2.93-.01-.24-.1-.6-.28-.71-1.58-.99-2-2.6-2.65-4.22-.66-1.64-1.94-3.03-2.99-4.6-.49.37-.9.68-1.3.97-.14-.08-.29-.12-.3-.18-.24-2.06-1.51-2.6-3.4-2.5-1.51.08-3.02-.69-4.5.54-.6.5-1.7-.07-2.64.82-1.9,1.82-2.38,3.99-2.62,6.39-.11,1.07-.63,2.09-.75,3.16-.27,2.37-.39,4.75-.63,7.12-.05.45-.34.88-.74,1.27-.32-2.02.78-4.45-2.4-5.36.74-.6,1.28-1.05,1.51-1.24-1.28-4.3-2.51-8.4-3.73-12.51.17-.02.35-.04.52-.06,0,0,.11.09.11.09l.12-.05c.78.16,1.56.33,2.34.49.32.05.63.09.95.14.85-.16,1.7-.31,2.55-.47.14-.05.29-.1.43-.15,1.23-.48,2.47-.96,3.7-1.44.12-.06.23-.13.35-.19.52-.22,1.03-.45,1.55-.67.16-.08.33-.16.49-.24l.1.02s.06-.08.06-.08c.22-.1.44-.2.66-.3.42-.19.85-.39,1.27-.58l.89-.4c3.42-1.67,6.84-3.34,10.26-5.01.23-.12.46-.24.7-.35.19-.09.39-.19.58-.28.24-.12.47-.23.71-.35,1.63-.78,3.26-1.56,4.89-2.34Z"/><path class="cls-2" d="M151.33,149.1c.54-1.2,1.09-2.4,1.63-3.6.15-.34.43-.76.33-1.03-.75-2.13.65-3.83,1.02-5.73.09-.45-.07-.97-.2-1.44-.21-.74-.69-1.46-.71-2.2-.04-1.31.27-2.63.28-3.95.02-2.21.59-4.16,2.35-5.7-.64-.72-1.18-1.34-1.8-2.04.53-.25.94-.44.94-.44.39-.98.66-1.64.92-2.31.03.08.09.12.17.13.35.64.71,1.28,1.06,1.91,0,0-.02-.03-.02-.03.14.29.28.58.42.86,0,0,.02.04.02.04.08.13.16.27.25.4,1.06,2,2.11,4,3.17,6,.09.17.19.35.28.52.29.59.57,1.18.86,1.76.06.08.11.17.17.25.16.33.32.65.48.98.06.09.11.19.17.28,1.31,2.53,2.57,5.09,3.94,7.58.53.96.21,1.52-.59,1.85-4.24,1.77-8.49,3.51-12.75,5.22-.77.31-1.6.45-2.4.67Z"/><path class="cls-2" d="M75.51,63.39c-.54-1.5-.84-3.16-1.67-4.47-2.5-3.97-5.02-7.95-7.9-11.65-2.35-3.01-5.25-5.58-7.85-8.41-.45-.49-.56-1.29-.83-1.95.62-.13,1.23-.25,1.85-.38.06.12.11.25.17.37.18-.36.35-.72.6-1.21.72,1.16,1.56,1.54,2.14.88,1.2.11,2,.3,2.78.24,1.85-.13,3.69-.52,5.53-.54,1.39-.01,2.78.38,4.17.6.06.56.12,1.13.18,1.7-.07.1-.07.2,0,.3.17,4.85.28,9.71.54,14.55.12,2.12.63,4.21.82,6.33.11,1.21-.08,2.44-.13,3.66-.14,0-.27-.01-.41-.02Z"/><path class="cls-2" d="M73.12,143.07c.37-1.12.84-2.23,1.08-3.38.17-.84.04-1.75.03-2.63-.01-1.04-.16-2.09-.02-3.11.17-1.29.55-2.55.85-3.82.35-1.49.72-2.98,1.13-4.67,1.27.73,1.88,1.4,1.84,2.73-.03,1,.35,2.05.69,3.02,1.07,3.09,2.16,6.17,3.35,9.21,1.34,3.45,2.79,6.86,4.18,10.28-1.73-.88-3.47-1.75-5.2-2.63-.23-.14-.46-.28-.69-.42-.49-.29-.99-.58-1.48-.86-.16-.09-.32-.18-.48-.26-1.71-1.06-3.43-2.12-5.14-3.18-.05-.1-.09-.19-.14-.29Z"/><path class="cls-2" d="M122.87,157.29c.66-.74,1.42-1.42,1.96-2.24.79-1.2,1.55-2.46,2.06-3.79.19-.5-.36-1.28-.59-1.93-.19-.54-.39-1.07-.75-2.05.77.39,1.07.54,1.43.73.74-.69,1.23-1.45.64-2.57-.15-.28-.1-.73-.02-1.07.27-1.08.58-2.16.94-3.21.12-.35.46-.62.7-.93.26.23.59.42.75.7,1.6,2.76,2.93,5.72,4.83,8.25,1.1,1.47,1.37,3.23,2.43,4.62-4.8,1.16-9.59,2.32-14.39,3.48Z"/><path class="cls-5" d="M97.37,155.88c.34-.12.67-.34,1.01-.35,4.14-.2,5.3-1.04,6.29-5.17.4-1.66,1.04-2.87,2.78-3.53.52,1.74.79,3.51,1.57,5.02,1.05,2.02,2.33,4,3.88,5.65.59.62,2.22.23,3.38.34.4.04.79.19,1.18.29-6.35.96-12.62.82-18.68-1.58-.48-.19-.94-.44-1.41-.67Z"/><path class="cls-5" d="M33.89,36.39c.93-.39,1.86-.77,2.89-1.2.12.52.27,1.13.47,1.98.5-.44.83-.72,1.31-1.14.46.47.93.95,1.57,1.62-1.93,2.35-3.77,4.59-5.61,6.84-.04-.28-.08-.56-.12-.84-.01-.1-.02-.21-.03-.31-.02-.54-.03-1.07-.05-1.61.06-.1.05-.2-.04-.28-.13-1.68-.26-3.36-.39-5.04Z"/><path class="cls-5" d="M74.2,25.83c-2.2.15-4.4.38-6.6.44-1.95.05-3.91-.09-5.87-.2-.16,0-.29-.36-.44-.55,0,0-.06-.05-.06-.05s.14.04.14.04l.12-.09c.34-.05.68-.1,1.02-.15.13-.02.26-.03.39-.05.17-.02.34-.03.51-.05.43-.05.85-.1,1.28-.14.23-.02.45-.05.68-.07.13-.02.26-.04.39-.06.71-.07,1.43-.14,2.14-.22.15-.03.3-.06.44-.09.16,0,.32-.02.48-.03.11-.02.21-.04.32-.05,1.32-.1,2.64-.24,3.96-.25.4,0,.79.39,1.19.59,0,.21,0,.43-.01.64-.03.11-.06.23-.09.34Z"/><path class="cls-6" d="M35.4,28.32c-.53.1-1.07.21-1.6.31-.14-.46-.28-.92-.42-1.38l.25-.35c.59.47,1.18.94,1.78,1.41Z"/><path class="cls-1" d="M35.36,67.22c.05,1.17.1,2.34.14,3.5-.05-1.17-.1-2.34-.14-3.5Z"/><path class="cls-6" d="M154.54,117.46c-.41-.83-.83-1.65-1.24-2.48,1.33.37,1.21,1.46,1.24,2.48Z"/><path class="cls-1" d="M73.12,143.07c.05.1.09.19.14.29-1.04.02-2.06.01-2.21-1.39.69.37,1.38.73,2.07,1.1Z"/><path class="cls-1" d="M36.01,81.87c.03.74.06,1.49.09,2.23-.03-.74-.06-1.49-.09-2.23Z"/><path class="cls-1" d="M157.33,122.71c-.35-.64-.71-1.28-1.06-1.91,1.51,0,1.06,1.08,1.06,1.91Z"/><path class="cls-1" d="M35.69,74.55c.02.64.04,1.28.06,1.92-.02-.64-.04-1.28-.06-1.92Z"/><path class="cls-1" d="M36.32,88.56c.04.64.07,1.27.11,1.91-.04-.64-.07-1.27-.11-1.91Z"/><path class="cls-6" d="M74.56,31.52c-.08-1.26-.17-2.53-.25-3.79.08,1.26.17,2.53.25,3.79Z"/><path class="cls-1" d="M36.64,94.3c.04.64.09,1.27.13,1.91-.04-.64-.09-1.27-.13-1.91Z"/><path class="cls-6" d="M43.04,27.4c-.74.1-1.47.2-2.21.3.55-1.46,1.51.05,2.21-.3Z"/><path class="cls-6" d="M56.75,25.84c-.42.07-.85.13-1.27.2.38-.38.6-1.74,1.27-.2Z"/><path class="cls-6" d="M151.98,112.45c-.22-.42-.44-.84-.66-1.26,1.08-.03,1.25.42.66,1.26Z"/><path class="cls-6" d="M38.58,28.01c-.42.01-.84.02-1.26.03.18-.21.41-.61.52-.58.28.08.5.35.74.55Z"/><path class="cls-6" d="M105.78,114.34c-.44-.18-.88-.37-1.32-.55.44.18.88.37,1.32.55Z"/><path class="cls-6" d="M54.22,26.14c-.54.08-1.08.17-1.62.25.54-.08,1.08-.17,1.62-.25Z"/><path class="cls-6" d="M153.27,114.94c-.21-.4-.43-.81-.64-1.21.21.4.43.81.64,1.21Z"/><path class="cls-1" d="M81.27,95.55c-.18-.42-.35-.84-.53-1.27.18.42.35.84.53,1.27Z"/><path class="cls-1" d="M64.7,25.03c-.43.05-.85.1-1.28.14.43-.05.85-.1,1.28-.14Z"/><path class="cls-6" d="M102.29,113.04c-.43-.19-.86-.39-1.29-.58.43.19.86.39,1.29.58Z"/><path class="cls-1" d="M60.92,135.26c.34.24.69.47,1.03.71-.34-.24-.69-.47-1.03-.71Z"/><path class="cls-1" d="M92.41,107.92c-.29-.2-.59-.4-.88-.59.29.2.59.4.88.59Z"/><path class="cls-6" d="M148.45,105.79c-.18-.34-.35-.67-.53-1.01.18.34.35.67.53,1.01Z"/><path class="cls-1" d="M115.36,116.94c-.32-.05-.63-.09-.95-.14.32.05.63.09.95.14Z"/><path class="cls-1" d="M45.66,119.89c.19.38.38.77.56,1.15-.19-.38-.38-.77-.56-1.15Z"/><path class="cls-6" d="M40.72,27.74c-.49.05-.97.11-1.46.16.49-.05.97-.11,1.46-.16Z"/><path class="cls-1" d="M44.03,117.14c.21.34.42.69.64,1.03-.21-.34-.42-.69-.64-1.03Z"/><path class="cls-6" d="M34.45,49.34c.03.4.06.81.08,1.21-.03-.4-.05-.8-.08-1.21Z"/><path class="cls-1" d="M34.98,59.57c.01.21.02.42.03.64-.15-.1-.3-.2-.45-.3.14-.11.28-.22.42-.33Z"/><path class="cls-2" d="M76.07,65.29c-.02-.41-.03-.81-.05-1.22.02.41.03.81.05,1.22Z"/><path class="cls-1" d="M37.3,99.71c.07.21.15.43.22.64-.07-.21-.15-.43-.22-.64Z"/><path class="cls-1" d="M36.94,98.13c.04.21.08.42.12.63-.04-.21-.08-.42-.12-.63Z"/><path class="cls-6" d="M45.91,27.09c-.42.07-.84.14-1.26.22.42-.07.84-.14,1.26-.22Z"/><path class="cls-1" d="M59.68,25.51c-.44.07-.89.13-1.33.2.44-.07.89-.13,1.33-.2Z"/><path class="cls-6" d="M74.29,25.49c0-.21,0-.43.01-.64.15.11.3.22.46.32-.16.1-.31.21-.47.31Z"/><path class="cls-1" d="M80.36,93l-.22-.63.22.63Z"/><path class="cls-1" d="M78.78,87.39c.05-.14.11-.29.16-.43.04.21.09.42.13.64-.1-.07-.19-.13-.29-.2Z"/><path class="cls-1" d="M80.01,91.74c-.07-.21-.13-.43-.2-.64.07.21.13.43.2.64Z"/><path class="cls-1" d="M36.49,91.1c.02.22.04.43.06.65-.02-.22-.04-.43-.06-.65Z"/><path class="cls-1" d="M79.69,90.46c-.06-.21-.13-.43-.19-.64.06.21.13.43.19.64Z"/><path class="cls-6" d="M37.3,28.05c-.31.07-.62.15-.93.22.31-.07.62-.15.93-.22Z"/><path class="cls-1" d="M59.91,134.55c.23.16.46.33.69.49-.23-.16-.46-.33-.69-.49Z"/><path class="cls-1" d="M157.74,123.54c-.14-.29-.28-.58-.42-.86.14.29.28.58.42.86Z"/><path class="cls-1" d="M43.35,115.35c.08.3.16.6.24.9-.08-.3-.16-.6-.24-.9Z"/><path class="cls-6" d="M106.74,114.67c-.31-.1-.62-.21-.93-.31.31.1.62.21.93.31Z"/><path class="cls-1" d="M127.4,112.43l-.89.4.89-.4Z"/><path class="cls-1" d="M40.17,107.98c.13.32.25.64.38.97-.12-.32-.25-.64-.38-.97Z"/><path class="cls-6" d="M147.87,104.69c-.13-.28-.26-.57-.38-.85.13.28.26.57.38.85Z"/><path class="cls-1" d="M38.2,102.59c.02.2.03.4.05.6-.02-.2-.03-.4-.05-.6Z"/><path class="cls-1" d="M34.77,57.61c.05.21.09.42.14.64-.05-.21-.09-.42-.14-.64Z"/><path class="cls-1" d="M139.65,106.43c-.24.12-.47.23-.71.35.24-.12.47-.23.71-.35Z"/><path class="cls-1" d="M138.36,107.07c-.23.12-.46.24-.7.35.23-.12.46-.24.7-.35Z"/><path class="cls-6" d="M149.75,108.28c-.1-.2-.2-.4-.29-.6.1.2.2.4.29.6Z"/><path class="cls-6" d="M150.4,109.5c-.1-.18-.2-.37-.3-.55.1.18.2.37.3.55Z"/><path class="cls-1" d="M125.24,113.41c-.22.1-.44.2-.66.3.22-.1.44-.2.66-.3Z"/><path class="cls-1" d="M46.54,121.69c.15.2.3.39.46.59-.15-.2-.3-.39-.46-.59Z"/><path class="cls-1" d="M59.01,133.96c.21.15.43.3.64.44-.21-.15-.43-.3-.64-.44Z"/><path class="cls-1" d="M64.36,137.64c.18.1.35.2.53.3-.18-.1-.35-.2-.53-.3Z"/><path class="cls-1" d="M66.31,138.91c.17.1.35.2.52.3-.17-.1-.35-.2-.52-.3Z"/><path class="cls-1" d="M67.26,139.53c.18.1.36.21.54.31-.18-.1-.36-.21-.54-.31Z"/><path class="cls-1" d="M80.35,147.66c.23.14.46.28.69.42-.23-.14-.46-.28-.69-.42Z"/><path class="cls-1" d="M69.16,24.51c-.11.02-.21.04-.32.05.11-.02.21-.04.32-.05Z"/><path class="cls-1" d="M68.35,24.59c-.15.03-.3.06-.44.09.15-.03.3-.06.44-.09Z"/><path class="cls-1" d="M65.77,24.9c-.13.02-.26.04-.39.06.13-.02.26-.04.39-.06Z"/><path class="cls-1" d="M61.49,25.42l-.12.09s-.14-.04-.14-.04c.09-.02.18-.03.26-.05Z"/><path class="cls-1" d="M62.91,25.22c-.13.02-.26.03-.39.05.13-.02.26-.03.39-.05Z"/><path class="cls-1" d="M74.69,38.85c-.07-.1-.07-.2,0-.3.03.07.07.14.09.21,0,.02-.06.06-.09.09Z"/><path class="cls-1" d="M34.28,41.44c.09.08.1.18.04.28-.04-.06-.08-.12-.1-.19,0-.02.04-.06.07-.09Z"/><path class="cls-1" d="M34.36,43.33c.01.1.02.21.03.31-.04-.07-.09-.14-.12-.21,0-.02.06-.06.09-.1Z"/><path class="cls-1" d="M35.27,64.68c.08.1.08.2,0,.3-.03-.07-.07-.14-.09-.21,0-.02.05-.06.08-.09Z"/><path class="cls-2" d="M76.1,66.25c-.03-.07-.08-.14-.1-.21,0-.02.06-.06.09-.09.06.1.06.2,0,.3Z"/><path class="cls-2" d="M76.16,67.21c-.05-.07-.11-.13-.15-.2,0-.01.06-.07.09-.11.02.1.04.21.06.31Z"/><path class="cls-2" d="M77.66,80.26c-.05-.18-.09-.35-.14-.53.05.18.09.35.14.53Z"/><path class="cls-1" d="M36.2,85.07c.07.09.07.19,0,.29-.03-.07-.07-.13-.08-.2,0-.02.05-.06.08-.09Z"/><path class="cls-2" d="M78.78,87.39c.1.07.19.13.29.2-.04.1-.08.21-.12.31-.06-.17-.12-.34-.17-.52Z"/><path class="cls-1" d="M82.48,97.94c-.09-.15-.17-.31-.26-.46.09.15.17.31.26.46Z"/><polygon class="cls-1" points="82.85 98.6 82.76 98.57 82.8 98.5 82.85 98.6"/><path class="cls-1" d="M84.72,101.12c-.13-.14-.26-.28-.39-.41.13.14.26.28.39.41Z"/><path class="cls-1" d="M37.89,101.62c.03.1.06.2.09.3-.06-.06-.13-.12-.18-.19,0,0,.06-.07.09-.11Z"/><path class="cls-1" d="M86.03,102.61c-.11-.11-.22-.23-.33-.34.11.11.22.23.33.34Z"/><path class="cls-6" d="M147.47,103.69c-.13-.15-.25-.3-.38-.45.13.15.25.3.38.45Z"/><path class="cls-6" d="M148.78,106.41c-.07-.11-.14-.21-.21-.32.07.11.14.21.21.32Z"/><path class="cls-1" d="M94.95,109.5c-.11-.08-.23-.15-.34-.23.11.08.23.15.34.23Z"/><path class="cls-6" d="M151.33,111.18c-.07-.1-.14-.21-.21-.31.07.1.14.21.21.31Z"/><path class="cls-6" d="M104.44,113.82h-.13s-.12-.06-.12-.06c.06-.06.12-.12.18-.18.02.08.05.16.07.23Z"/><path class="cls-6" d="M152.61,113.7c-.06-.09-.12-.18-.18-.27.06.09.12.18.18.27Z"/><path class="cls-1" d="M124.43,113.78c-.16.08-.33.16-.49.24.16-.08.33-.16.49-.24Z"/><path class="cls-1" d="M122.39,114.69c-.12.06-.23.13-.35.19.12-.06.23-.13.35-.19Z"/><path class="cls-6" d="M108.66,115.29c-.1-.02-.2-.05-.3-.07.1.02.2.05.3.07Z"/><path class="cls-6" d="M109.62,115.59c-.1-.02-.21-.04-.31-.06.1.02.21.04.31.06Z"/><path class="cls-6" d="M109.86,115.71l-.12.02s-.07-.11-.07-.11c.07.02.13.05.18.09Z"/><path class="cls-6" d="M110.88,115.92c-.11.02-.21,0-.3-.08.1.03.2.05.3.08Z"/><path class="cls-1" d="M112.07,116.3l-.12.05s-.11-.09-.11-.09c.08-.02.16,0,.23.03Z"/><path class="cls-1" d="M118.34,116.32c-.14.05-.29.1-.43.15.14-.05.29-.1.43-.15Z"/><path class="cls-1" d="M158,123.99c-.08-.13-.16-.27-.25-.4.08.13.16.27.25.4Z"/><path class="cls-1" d="M50.04,126.8c.09.1.17.21.26.31-.09-.1-.17-.21-.26-.31Z"/><path class="cls-1" d="M161.46,130.5c-.09-.17-.19-.35-.28-.52.09.17.19.35.28.52Z"/><path class="cls-1" d="M53.55,130.34c.09.09.18.17.28.26-.09-.09-.18-.17-.28-.26Z"/><path class="cls-1" d="M162.48,132.52c-.06-.08-.11-.17-.17-.25.06.08.11.17.17.25Z"/><path class="cls-1" d="M58.33,133.51c.12.09.24.17.36.26-.12-.09-.24-.17-.36-.26Z"/><path class="cls-1" d="M163.13,133.77c-.06-.09-.11-.19-.17-.28.06.09.11.19.17.28Z"/><path class="cls-1" d="M65.05,138.02c.09.06.17.13.25.19-.09-.06-.17-.13-.25-.19Z"/><polygon class="cls-1" points="65.72 138.47 65.8 138.45 65.81 138.54 65.72 138.47"/><path class="cls-1" d="M66,138.66c.08.07.17.14.25.21-.08-.07-.17-.14-.25-.21Z"/><path class="cls-1" d="M66.95,139.28c.1.08.19.15.29.23-.1-.08-.19-.15-.29-.23Z"/><path class="cls-1" d="M67.91,139.91c.1.08.19.16.29.23-.1-.08-.19-.16-.29-.23Z"/><path class="cls-1" d="M69.5,140.95c.12-.03.19.02.21.15-.09-.02-.16-.06-.21-.15Z"/><path class="cls-1" d="M69.82,141.17c.1.08.21.16.31.23-.1-.08-.21-.16-.31-.23Z"/><path class="cls-1" d="M70.45,141.55c.08.06.16.11.24.17-.11-.01-.19-.07-.24-.17Z"/><path class="cls-1" d="M78.39,146.53c.16.09.32.18.48.26-.16-.09-.32-.18-.48-.26Z"/><path class="cls-2" d="M151.06,149.35c.1-.09.2-.19.3-.28-.1.09-.2.19-.3.28Z"/><path class="cls-3" d="M76.09,98.3c.05.84.09,1.74.14,2.64h-3.13c.01-.14.02-.29.03-.43.91-.68,1.83-1.36,2.96-2.21Z"/><path class="cls-2" d="M73.19,66.86c.54-.22,1.09-.44,1.63-.67-.09.23-.15.65-.28.67-.44.07-.9,0-1.35,0Z"/><path class="cls-2" d="M64.39,56.7c.23.31.45.63.68.94-.63-.02-1.43.07-.68-.94Z"/><path class="cls-2" d="M68.86,62.41c.32.43.65.86.97,1.29-1.25.27-.83-.72-.97-1.29Z"/><path class="cls-2" d="M57.94,49.08c.2.28.41.56.61.84-.69.07-1.1-.06-.61-.84Z"/><path class="cls-2" d="M65.9,58.51c.15.24.29.48.44.72-.25-.11-.5-.22-.76-.33.11-.13.21-.26.32-.39Z"/><path class="cls-2" d="M60.54,51.98c.26.26.52.52.78.77-.26-.26-.52-.51-.78-.77Z"/><path class="cls-2" d="M63.86,58.7c.04-.09.06-.22.12-.25.06-.03.17.06.26.1-.04.09-.06.23-.12.25-.06.02-.17-.06-.26-.1Z"/><path class="cls-2" d="M55.16,46.12c.31.24.62.47.93.71-.31-.24-.62-.47-.93-.71Z"/><path class="cls-2" d="M53.88,46.82c.09-.44.18-.87.28-1.31-.09.44-.18.87-.28,1.31Z"/><path class="cls-2" d="M70.1,64.06c.12.41.25.82.37,1.23-.12-.41-.25-.82-.37-1.23Z"/><path class="cls-2" d="M74.81,66.23c.02-.31.04-.61.06-.92-.02.31-.04.61-.06.92Z"/><path class="cls-2" d="M74.58,64.03c.2-.13.4-.26.6-.4-.2.13-.4.26-.6.4Z"/><path class="cls-2" d="M61.3,52.75c.16.15.32.3.48.45-.16-.15-.32-.3-.48-.45Z"/><path class="cls-2" d="M54.15,45.53c.04-.08.09-.16.13-.23.09.08.19.15.28.23-.14,0-.28,0-.42,0Z"/><path class="cls-2" d="M66.91,59.99c.12,0,.17.07.16.19-.07-.05-.12-.11-.16-.19Z"/><path class="cls-2" d="M67.88,61.16c.09.11.18.22.26.33-.09-.11-.18-.22-.26-.33Z"/><path class="cls-2" d="M68.56,62c.1.14.21.28.31.42-.1-.14-.21-.28-.31-.42Z"/><path class="cls-2" d="M71.08,65.91c.16.1.31.21.47.31-.16-.1-.31-.21-.47-.31Z"/><path class="cls-2" d="M71.71,66.29c.13.09.25.18.38.26-.13-.09-.25-.18-.38-.26Z"/></svg>