<?xml version="1.0" encoding="UTF-8"?><svg id="Layer_1" xmlns="http://www.w3.org/2000/svg" viewBox="0 0 192.26 210.16"><defs><style>.cls-1{fill:#ee4924;}.cls-1,.cls-2,.cls-3,.cls-4,.cls-5{stroke-width:0px;}.cls-2{fill:#fdd249;}.cls-3{fill:#ee4426;}.cls-4{fill:#fcf5f3;}.cls-5{fill:#ee4223;}</style></defs><path class="cls-2" d="M120.74,159.13c-.34.06-.67.13-1.01.19-.09.03-.19.07-.28.1-.43.03-.85.06-1.28.09-.32.07-.64.15-.95.22-3.08.25-6.16.49-9.24.74-.51.01-1.01.03-1.52.04-.66-.01-1.31-.02-1.97-.03-.1-.05-.19-.06-.29-.01-.43-.06-.85-.12-1.28-.18-.56-.28-1.08-.66-1.67-.84-4.17-1.28-8.37-2.44-12.51-3.8-1.99-.65-3.84-1.7-5.8-2.48-2.32-.93-4.66-1.82-7.04-2.61-2.56-.85-4.3-3.45-7.27-3.38-.13,0-.25-.18-.39-.26-1.63-1.02-3.15-2.3-4.9-3.02-3.99-1.64-7.92-3.44-11.05-6.38-2.87-2.69-6.15-5.19-7.33-9.29-.08-.29-.54-.55-.88-.67-1.01-.38-1.94-.77-1.99-2.08-.01-.32-.2-.74-.45-.93-3.15-2.39-5.38-5.3-5.7-9.42-.03-.39-.48-.75-.74-1.12-.57-1.23-1.18-2.63-1.08-3.97.22-2.78-1.01-5.14-1.65-7.68-.09-.1-.17-.19-.26-.29.11-.4.22-.81.33-1.21.08-.23.15-.46.23-.69.03-.18.07-.36.1-.55.07-.14.13-.27.2-.41.03-.1.06-.21.09-.31.1-.33.21-.65.31-.98.05-.08.06-.16.03-.24.07-.13.13-.25.2-.38.03-.11.06-.22.09-.34.09-.21.18-.42.27-.63.23-.65.45-1.29.68-1.94.09-.2.18-.41.28-.61.33-.77.66-1.54.99-2.31,0,0,.12-.07.12-.07v-.12c.06-.15.12-.31.19-.46.09-.18.18-.36.27-.54.19-.26.38-.52.56-.78.33-.25.77-.43.98-.75,1.48-2.27,2.92-4.57,4.36-6.86.74-1.18,1.41-2.4,2.21-3.53.23-.33.8-.43,1.36-.7.26-.37.55-1.12,1.1-1.5,2.5-1.71,5.07-3.33,7.62-4.96.86-.55,1.71-1.14,2.62-1.59.6-.3,1.31-.4,2.11-.63.05.04.28.23.53.44.45-.86,3.26-2.2,3.82-1.77,1.03.78,1.72.33,2.49-.37.24-.22.7-.21,1.06-.3.54-.14,1.07-.29,1.61-.41.35-.07.75-.2,1.08-.11,1.41.38,2.89.66,4.17,1.31,1.13.58,1.68.17,2.44-.52,2.11-1.89,2.13-1.87,3.95-.84,1.19-.56,2.14-1,3.55-1.66-1.2-.39-1.95-.77-2.74-.86-1.94-.21-3.9-.36-5.85-.4-3.12-.07-6.24-.15-9.35,0-1.74.08-3.46.61-5.19.97-1.83.38-3.64.79-5.47,1.19.17-.23.35-.47.52-.7.11.01.18-.04.18-.16.14-.12.28-.24.41-.36.11-.09.21-.18.32-.27.22-.15.44-.3.67-.45.07-.06.15-.13.22-.19.26-.18.51-.36.77-.54,0,0,.08.03.08.03v-.09c.49-.35.97-.69,1.45-1.04.11-.08.23-.17.34-.25,0,0,0,0,0,0,.19-.12.38-.24.58-.35,0,0,.05-.03.05-.03.12-.09.23-.18.35-.26.1-.04.21-.08.31-.12.09-.07.17-.14.26-.21.23-.13.46-.26.69-.39.11-.08.22-.16.33-.23.21-.11.41-.23.62-.34.14-.09.27-.18.41-.27.2-.09.4-.17.6-.26,0,0,.11,0,.11,0l.04-.11c1.17-.62,2.34-1.23,3.51-1.85.11-.02.22-.04.33-.06.35-.13.71-.27,1.06-.4.17-.08.34-.16.52-.24.57-.22,1.13-.44,1.7-.66.22-.09.45-.18.67-.26.22-.06.43-.13.65-.19.05.06.1.1.16.14.93.69,1.85,1.38,2.78,2.07.07-.07.14-.14.22-.21-.21-.54-.42-1.09-.59-1.52,2.33,0,4.63-.19,6.89.04,3.13.32,6.24.91,9.34,1.47,1.16.21,2.41,1.15,3.4.9,2.71-.68,4.71,1.35,7.23,1.49,2.26.12,4.49,1.2,6.64,2.3,1.54.79,3.42.83,5.1,1.69,2.47,1.26,5.31,1.77,7.84,2.92,3.4,1.54,6.69,3.35,9.98,5.12,2.36,1.27,4.65,2.68,7,3.97,1,.55,2.07.97,3.1,1.44.11.11.21.22.32.33,0,0-.02-.02-.02-.02.28.2.57.41.85.61.02-.05.04-.1.05-.15.26.28.52.55.77.83.07.08.15.15.22.23.56.67,1.13,1.34,1.69,2.01.08.08.16.16.24.25,1.06,1.4,2.13,2.8,3.19,4.2.09.13.19.25.28.38.05.1.1.19.15.29.06.08.12.16.18.24.36.56.73,1.11,1.09,1.67.07.08.14.16.2.25.08.15.16.29.24.44,0,0-.02.09-.02.09,0,0,.11.04.11.04.57,1,1.13,2,1.7,3,.07.07.14.14.21.21.32.56.64,1.12.96,1.69.1.21.2.42.3.63.5,1.08,1.01,2.17,1.51,3.25,0,0-.01.11-.01.11l.11.05c.26.68.51,1.36.77,2.04.06.09.12.18.18.26.16.57.32,1.13.48,1.7-2.43-2.3-4.72-4.77-7.31-6.88-4.24-3.45-8.68-6.67-13.03-9.98,1.08,3.69,2.14,7.13,2.11,10.9-.01,1.59-.32,2.42-1.84,2.73-.02,0,0,.18,0,.33h1.52c.06.25.18.47.14.65-.86,3.75-2.07,7.39-4.14,10.64-1.73,2.7-3.68,5.26-5.6,7.83-.64.86-1.38,1.78-2.28,2.3-2.28,1.32-3.58,3.27-4.48,5.66-.75,2.01-1.39,4.2-2.67,5.86-2.4,3.11-4.95,6.18-8.31,8.36-.81.53-1.79.8-2.68,1.19-.45.23-.78.82-1.29,1.09-1.57.83-3.16,1.61-4.81,2.27-2.16.86-4.37,1.57-6.68,2.39.27.5.51.94.78,1.44.8-.98,3.59-.76,4,.2.65,1.51,1.93,1.72,2.95.52.8.49,1.59.98,2.47,1.52-.3.56-.59,1.11-.89,1.66.11.08.21.17.32.25.29-.31.53-.76.89-.89.42-.16,1.24-.23,1.37-.02.73,1.19,1.5.96,2.36.25.89-.73,1.61-.67,1.96.1,1.15-.13,2.12-.23,3.1-.34.27.76.48,1.39.78,2.24.5-.53.88-.93,1.52-1.61.73.58,1.49,1.18,2.35,1.87,1.46.2,3.2.43,4.57.61.73-.51,1.44-1.26,1.71-1.13.77.37,1.36,1.11,2.25,1.91.31-.2.94-.62,1.76-1.15.39.48.79.99,1.2,1.49,0,.07-.02.13-.05.2-.42.12-.85.25-1.27.37-.21.08-.42.16-.64.24-.36.09-.72.18-1.08.26,0,0-.05-.05-.05-.05l-.03.08c-.27.06-.54.12-.81.18-.09.04-.17.08-.26.13-.34.07-.68.15-1.03.22-.11-.05-.19-.01-.24.1-.11.01-.22.03-.34.04-.43.1-.86.2-1.28.3-.22.05-.45.09-.67.14-.1.05-.2.09-.3.14-.31.04-.62.09-.93.13-.22.07-.43.13-.65.2-.21.01-.42.03-.63.04-.43.1-.85.19-1.28.29ZM43.85,105.25c.89-.22,1.38.23,1.41,1.43.01.47.46,1.08.89,1.33.19.12.96-.38,1.21-.77,2.6-4,5-8.15,7.76-12.03,1.59-2.22,3.78-4.01,5.64-6.04.51-.56.98-1.28,1.16-2,.43-1.69.55-3.46,1.01-5.13,1.08-3.98,3.52-7.01,6.93-9.27.38-.25.9-.3,1.36-.45-.22-.27-.45-.54-.67-.81-1.1.52-2.51-.56-3.45.86-.06.1-.3.08-.45.12-2.32.64-4.65,1.28-6.97,1.93-.13.04-.22.21-.35.29-1.43.83-2.87,1.66-4.3,2.49-1.35.78-2.82,1.41-4.01,2.38-1.49,1.21-2.88,2.61-4.09,4.1-1.53,1.88-2.92,3.9-4.21,5.96-.63,1.01-.88,2.25-1.29,3.39-1.27,3.52-1.14,6.84,1.33,9.89.47.57.65,1.38,1.09,2.34ZM91.87,101.25c.29-.07.58-.14.87-.21.86,1.69,1.81,3.34,2.54,5.08.45,1.07.91,1.6,2.12,1.14.39-.15.93-.03,1.36.11,1.46.47,3.17.03,4.46,1.21.11.1.57-.17.86-.29.32-.13.63-.39.95-.4,1.14-.03,1.26-.6.83-1.46-1.02-2.05-2-4.12-3.12-6.11-1.71-3.03-4.41-4.95-7.35-6.77-2.57-1.6-5.35-2.47-8.09-3.54-4.4-1.73-11.06.34-13.49,5.01-.47.91-.25,1.55.53,2.2.65.54,1.13,1.29,1.69,1.94-.09.13-.18.27-.27.4.38-.16.76-.33.76-.32.64.61,1.04,1.17,1.58,1.47,1.22.69,2.48,1.32,3.76,1.87,1.37.58,2.5,1.58,4.18,1.7,1.24.09,2.36,1.31,3.63,1.71.71.23,1.8.05,2.38-.39.34-.26.03-1.39-.01-2.13-.04-.74-.11-1.48-.17-2.22ZM115.01,129.79c-2.41.87-4.84,1.66-7.22,2.62-3.5,1.4-7.12,2.24-10.85,2.5-4.74.33-9.46,1.37-14.27.23-1.97-.47-4.09-.29-6.12-.54-2.22-.27-4.41-.69-5.91-.94-2.66-.73-4.69-1.74-6.69-1.68-1.3.04-1.96-.27-2.81-.97-1.06-.87-2.18-1.75-3.7-1.6,2.24,1.67,4.43,3.3,6.61,4.93.32-.46.53-.77.97-1.42.47.88.82,1.47,1.11,2.08.66,1.36,1.28,1.44,2.24.27.12-.15.31-.24.71-.53.22,1.13.1,2.31.64,2.9.91,1,1.85.39,2.22-.51,1.39.74,2.69,1.43,3.99,2.11.21-.44.34-.73.47-1.01v.52c1.26.32,2.51.71,3.79.93,1.89.31,3.93-.06,5.57,1.39.26.23.81.2,1.22.17,2.77-.24,5.53-.5,8.3-.77,1.19-.12,2.44-.08,3.54-.47,2.27-.81,4.39-2.06,6.68-2.76,4.11-1.27,6.56-4.62,9.52-7.42ZM90.63,125.51c.02-.14.04-.27.06-.41-.44-.12-.88-.31-1.33-.34-4.8-.36-9.13-1.9-12.98-4.85-5.2-3.97-7.97-9.16-8.23-15.68-.07-1.68-.45-3.23-1.6-4.53-.56-.63-1.09-1.3-1.53-2.01-.58-.94-1.09-.8-1.72-.08-2.48,2.81-2.72,6.38-2.23,9.64.68,4.5,3.5,8.1,6.8,11.21-.13.65-.26,1.29-.39,1.93l.37.11c.39-.49.79-.98.93-1.17,1.98,1.25,3.78,2.38,5.6,3.52.07-.11.2-.33.31-.52,1.79,1.24,3.7,1.97,5.91,2.12,1.75.12,3.56.4,5.2.99,1.7.61,3.23.35,4.83.06ZM125.46,112.92c.19.02.38.03.56.05,1.3-1.56,2.58-3.13,3.89-4.67.42-.5,1.13-.82,1.39-1.38.69-1.47,1.17-3.04,1.79-4.54,1.62-3.92,2.23-7.99,1.42-12.15-.33-1.7-.99-3.41-1.87-4.89-.87-1.45-2.06-2.8-3.37-3.88-1.92-1.58-4.07-2.89-6.14-4.29-.55-.37-1.16-.65-1.75-.97-.13.16-.25.32-.38.48.65.53,1.35,1.01,1.93,1.6,1.21,1.23,2.52,2.41,3.5,3.81,1.83,2.62,3.25,5.46,4.18,8.56.69,2.28.86,4.64.11,6.73-.88,2.47-2.05,5.18-3.93,6.86-2.37,2.12-2.04,4.36-1.85,6.82.05.63.33,1.24.51,1.86ZM97.9,70.07c-.98-.08-1.61-.22-2.21-.17-2.12.2-4.23.56-6.36.69-4.76.3-8.94,2.18-12.98,4.51-1.55.89-3.15,1.71-4.58,2.77-1.38,1.02-2.47,2.43-3.86,3.42-1.12.8-1.33,1.67-1.05,3.29,1.69-1.62,4.19-1.28,5.34-3.39.09-.16.35-.23.52-.35,2.06-1.47,4.63-1.75,6.84-3.12,1.81-1.12,3.49-2.37,5.02-3.42.95.06,1.84.37,2.47.09,1.38-.62,2.62-1.55,3.94-2.32.37-.21.82-.29,1.24-.41,1.77-.48,3.84.19,5.67-1.62ZM110.88,107.07c.59-.21,1.26-.66,1.94-.67,1.45,0,4.36-1.75,4.63-2.99.05-.22-.06-.52-.19-.73-.86-1.33-1.72-2.66-2.62-3.97-2.36-3.44-5.91-5.55-9.19-7.9-1.47-1.05-3.35-1.54-5.05-2.28-.06.13-.13.26-.19.38.23.19.47.37.68.59,1.36,1.42,2.74,2.83,4.06,4.29.35.39.47,1,.8,1.41.8.97,2.02,1.75,2.43,2.85,1.07,2.91,1.8,5.95,2.69,9.01ZM108.29,124.83c1.06-.68,2.1-1.4,3.19-2.02,2.21-1.25,5.12-1.21,6.69-3.65.1-.16.38-.2.51-.35.79-.92,1.89-1.74,2.24-2.81.41-1.23.19-2.68.16-4.04-.01-.52-.29-1.04-.44-1.56-.55.23-1.2.34-1.65.71-2.54,2.05-4.95,4.28-7.57,6.21-1.78,1.32-2.91,3-3.92,4.88-.66,1.23-.77,2.19.79,2.64ZM85.3,117.02c.42.77.75,1.38,1.19,2.19.39-.67.65-1.13.68-1.17,1.92.21,3.54.41,5.17.57.69.07,1.38.07,2.39.11.31-.4.89-1.53,1.77.06.31-.38.52-.89.87-1.02.92-.34,1.97-.38,2.85-.79,1.16-.54,2.69-.7,3.25-2.31-.35-.08-.5-.14-.66-.15-2.32-.18-4.66-.24-6.97-.57-2.44-.35-4.56-.31-6.57,1.55-1.52,1.41-2.97.55-3-1.54,0-.51.3-1.03.44-1.46-3.83-1.57-7.6-3.12-11.38-4.67,2.5,3.37,5.6,5.51,9.74,5.09.54,1.32.99,2.42,1.48,3.61-.32.12-.69.27-1.26.49ZM57.65,99.64l-.18-.2c-2.08,3.04-4.31,5.99-6.16,9.17-.83,1.43-.83,3.27.72,4.63.47.41.96.9,1.18,1.46.9,2.34,3.24,1.76,4.92,2.66-.23-3.14-2.49-5.7-2.02-8.84.45-2.97,1.02-5.92,1.54-8.88ZM108.96,78.84c2.46,1.23,4.76,2.34,7.02,3.53,3.69,1.93,6.11,4.97,7.47,8.87.54,1.53,1.05,3.07,1.57,4.61.19-.03.37-.07.56-.1.16-.69.43-1.37.46-2.06.1-2.24.58-4.57-1.13-6.49-.83-.94-1.63-1.95-2.62-2.69-1.82-1.37-3.69-2.69-5.68-3.79-1.55-.86-3.27-1.46-4.97-1.98-.8-.24-1.81-1-2.7.12ZM114.9,89.5c1.81,2.33,3.49,4.51,5.21,6.73.7-2.63-1.52-5.55-5.21-6.73ZM71.12,89.99c-2.06,1-2.26,1.57-1.1,3.23.38-1.12.71-2.09,1.1-3.23ZM98.47,70.53q1.73,1.12,2.13-.74c-.83.29-1.48.51-2.13.74Z"/><path class="cls-5" d="M132.26,156.1c-.4-.5-.81-1.01-1.2-1.49-.82.53-1.45.95-1.76,1.15-.89-.8-1.48-1.54-2.25-1.91-.27-.13-.98.62-1.71,1.13-1.37-.18-3.1-.41-4.57-.61-.86-.68-1.62-1.29-2.35-1.87-.64.68-1.02,1.08-1.52,1.61-.29-.84-.51-1.47-.78-2.24-.98.11-1.95.21-3.1.34-.34-.78-1.07-.84-1.96-.1-.86.71-1.63.93-2.36-.25-.13-.21-.95-.14-1.37.02-.36.14-.59.58-.89.89-.11-.08-.21-.17-.32-.25.29-.55.59-1.1.89-1.66-.88-.54-1.67-1.03-2.47-1.52-1.02,1.2-2.31.98-2.95-.52-.41-.96-3.21-1.18-4-.2-.27-.49-.51-.93-.78-1.44,2.31-.82,4.53-1.54,6.68-2.39,1.64-.65,3.24-1.44,4.81-2.27.5-.27.83-.86,1.29-1.09.9-.39,1.87-.66,2.68-1.19,3.36-2.18,5.91-5.25,8.31-8.36,1.28-1.66,1.91-3.84,2.67-5.86.9-2.39,2.2-4.34,4.48-5.66.9-.53,1.64-1.44,2.28-2.3,1.92-2.57,3.88-5.13,5.6-7.83,2.08-3.25,3.29-6.89,4.14-10.64.04-.18-.08-.4-.14-.65h-1.52c0-.15-.02-.33,0-.33,1.52-.31,1.83-1.13,1.84-2.73.03-3.77-1.03-7.22-2.11-10.9,4.35,3.31,8.79,6.53,13.03,9.98,2.59,2.1,4.88,4.57,7.31,6.88,0,0,.11-.04.11-.04-.05.11-.03.21.07.28.22.64.44,1.28.66,1.92.07.16.14.33.21.49.24.9.48,1.8.73,2.7.07.18.13.36.2.53.06.35.13.7.19,1.05l.22.95c.33,2.34.66,4.68,1,7.02,0,.1.01.21.02.31-.03,2.44-.05,4.87-.08,7.31-.05.1-.09.21-.14.31-.27,1.72-.53,3.44-.8,5.16,0,0-.08.09-.08.09l.06.09c-.22.77-.43,1.53-.65,2.3-.05.11-.1.23-.16.34-.06.22-.12.43-.18.65-.05.11-.11.23-.16.34-.07.24-.13.48-.2.72-.1.17-.2.35-.3.52-.1.28-.2.56-.3.84-.11.25-.22.5-.33.75,0,0,.02-.03.02-.03-.23.45-.47.89-.7,1.34-.06.12-.13.24-.19.36-.1.2-.21.39-.31.59-.22.37-.44.75-.65,1.12,0,0-.1.02-.1.02,0,0-.03.1-.03.1-.81,1.15-1.62,2.3-2.43,3.45,0,0-.03,0-.03,0l.02-.03c-.33.41-.67.82-1,1.23-.27.28-.54.56-.81.83-.77.73-1.54,1.46-2.31,2.2-.41.33-.82.65-1.24.98-.44.31-.87.63-1.31.94-.27.19-.54.38-.81.58-.16.08-.33.16-.49.24-.1,0-.15.06-.15.16-.36.22-.72.44-1.09.67-.45.25-.89.5-1.34.75-.51.27-1.03.54-1.54.81-.21.1-.43.2-.64.29-.32.14-.64.28-.96.42-.19.08-.38.17-.58.25-.12.04-.24.08-.36.13-.43.17-.85.34-1.28.51-.53.21-1.07.43-1.6.64-.1,0-.2.02-.3.02-.43.12-.86.23-1.3.35-.21-.25-.41-.49-.61-.73-.22.47-.39.83-.56,1.19-.24.07-.49.14-.73.2-.2.02-.39.05-.59.07Z"/><path class="cls-3" d="M32.46,102.38c.64,2.53,1.87,4.9,1.65,7.68-.11,1.34.5,2.74,1.08,3.97.26.37.71.73.74,1.12.31,4.12,2.54,7.03,5.7,9.42.25.19.44.61.45.93.05,1.31.98,1.7,1.99,2.08.34.13.79.38.88.67,1.18,4.1,4.46,6.6,7.33,9.29,3.14,2.94,7.07,4.74,11.05,6.38,1.75.72,3.27,1.99,4.9,3.02.13.08.26.27.39.26,2.98-.06,4.71,2.54,7.27,3.38,2.37.78,4.71,1.68,7.04,2.61,1.95.78,3.81,1.83,5.8,2.48,4.14,1.36,8.35,2.52,12.51,3.8.59.18,1.11.55,1.67.84,0,0,0,.11,0,.11-.11,0-.22,0-.32,0-5.74.08-11.28-1.26-16.86-2.32-.22-.07-.44-.13-.66-.2-1.59-.43-3.19-.86-4.78-1.3-.08-.08-.18-.11-.29-.07,0,0,.02.01.02.01-.33-.11-.66-.21-.98-.32-1.81-.63-3.62-1.26-5.43-1.88-.09-.03-.17-.07-.26-.1-.22-.08-.43-.16-.65-.24-.22-.1-.45-.19-.67-.29l-1.6-.62c-.11-.04-.21-.08-.32-.11-1.67-.73-3.35-1.45-5.02-2.18-.23-.11-.47-.21-.7-.32,0,0,.02,0,.02,0-.22-.11-.44-.22-.66-.32-.43-.21-.85-.41-1.28-.62-.1-.05-.2-.09-.3-.14-1.2-.58-2.4-1.16-3.59-1.74-.29-.14-.57-.28-.86-.42-.98-.5-1.95-1-2.93-1.51-.2-.1-.39-.2-.59-.29-.68-.35-1.37-.7-2.05-1.05-.17-.09-.33-.19-.5-.28-.61-.32-1.22-.65-1.83-.97-.35-.19-.7-.38-1.05-.56-1.25-.66-2.49-1.32-3.74-1.98-.35-.19-.7-.38-1.04-.57l-.09-.08s-.12,0-.12,0c-.15-.09-.29-.18-.43-.26-.53-.32-1.06-.65-1.58-.97-.1-.07-.21-.15-.31-.22-.46-.34-.92-.68-1.38-1.02-.17-.14-.35-.28-.52-.42-.33-.3-.66-.59-.99-.89-.21-.2-.42-.41-.64-.61-.11-.11-.22-.22-.32-.34-.2-.23-.41-.45-.61-.68-.17-.2-.34-.39-.51-.59-.14-.16-.28-.33-.41-.49-.12-.16-.23-.32-.35-.48-.1-.13-.2-.25-.3-.38,0,0,.03.03.03.03-.13-.19-.27-.38-.4-.57-.33-.54-.65-1.08-.98-1.62-.11-.21-.22-.42-.33-.63-.26-.55-.53-1.1-.79-1.65-.05-.09-.09-.18-.14-.27-.09-.24-.18-.48-.26-.72,0,0,.05-.11.05-.11l-.1-.08c-.22-.66-.45-1.31-.67-1.97-.06-.17-.13-.35-.19-.52-.19-.99-.37-1.98-.56-2.97-.06-.21-.12-.42-.19-.64l-.07-.98c-.07-.52-.15-1.05-.22-1.57,0-2.23.01-4.46.02-6.69.05-.43.11-.86.16-1.28.05-.53.1-1.06.15-1.59l.14-.64.17-1.27c.03-.11.05-.22.08-.32.2-1.34.41-2.69.61-4.03.19-.04.37-.08.56-.13Z"/><path class="cls-1" d="M142.42,77.23c-1.04-.48-2.11-.89-3.1-1.44-2.35-1.29-4.64-2.7-7-3.97-3.3-1.77-6.58-3.58-9.98-5.12-2.54-1.15-5.37-1.66-7.84-2.92-1.68-.86-3.56-.9-5.1-1.69-2.14-1.1-4.38-2.17-6.64-2.3-2.53-.14-4.52-2.17-7.23-1.49-.99.25-2.24-.69-3.4-.9-3.1-.56-6.21-1.15-9.34-1.47-2.25-.23-4.55-.04-6.89-.04.17.43.38.98.59,1.52-.07.07-.14.14-.22.21-.93-.69-1.85-1.38-2.78-2.07.07-.08.13-.17.17-.27,1.18-.31,2.35-.63,3.53-.94,0,0,.1.06.1.06l.08-.1c.08.03.14,0,.17-.08.06,0,.12-.01.18-.04,5.05-.48,10.1-1.33,15.16-1.37,9.11-.06,17.72,2.32,25.78,6.6.46.25.96.42,1.45.63.04.1.11.14.21.12,0,0,0-.03,0-.03.14.08.28.16.42.25,1.53.86,3.07,1.72,4.6,2.58.16.1.33.2.49.3,0,0-.03-.02-.03-.02.12.09.24.17.35.26.53.33,1.06.66,1.59,1,.32.21.64.42.96.63,1.72,1.27,3.44,2.53,5.17,3.8.18.14.36.27.54.41,2.33,2.1,4.67,4.21,7,6.31.11.11.23.23.34.34.24.31.47.62.71.93-.04.09-.05.19-.03.28h-.01Z"/><path class="cls-1" d="M55.59,65.67c1.82-.4,3.64-.81,5.47-1.19,1.72-.36,3.45-.88,5.19-.97,3.11-.15,6.24-.07,9.35,0,1.95.04,3.91.19,5.85.4.79.09,1.54.47,2.74.86-1.41.66-2.36,1.11-3.55,1.66-1.82-1.03-1.84-1.05-3.95.84-.76.68-1.31,1.1-2.44.52-1.28-.66-2.76-.93-4.17-1.31-.33-.09-.72.04-1.08.11-.54.11-1.08.27-1.61.41-.36.09-.81.08-1.06.3-.77.7-1.46,1.15-2.49.37-.56-.42-3.37.91-3.82,1.77-.25-.21-.48-.4-.53-.44-.8.23-1.51.33-2.11.63-.91.46-1.76,1.04-2.62,1.59-2.55,1.64-5.12,3.25-7.62,4.96-.55.37-.83,1.13-1.1,1.5-.56.28-1.12.37-1.36.7-.8,1.13-1.47,2.36-2.21,3.53-1.44,2.3-2.88,4.59-4.36,6.86-.21.33-.65.51-.98.75,2.7-5.9,6.35-11.18,10.51-16.12.27-.32.52-.66.78-.99.08-.09.15-.18.23-.27.15-.19.3-.38.44-.57.11-.13.22-.26.33-.39,1.58-1.51,3.15-3.02,4.73-4.53l.67-.56c.26-.15.51-.29.77-.44Z"/><path class="cls-4" d="M133.58,155.83c.17-.36.34-.72.56-1.19.2.23.4.48.61.73-.39.15-.78.31-1.16.46Z"/><path class="cls-4" d="M143.3,151.94c.45-.25.89-.5,1.34-.75.28.19.55.37,1.11.75h-2.45Z"/><path class="cls-4" d="M120.74,159.13c.43-.1.85-.2,1.28-.29-.24.29-.48.58-.72.86-.19-.19-.38-.38-.56-.57Z"/><path class="cls-4" d="M30.76,110.37c-.05.43-.11.86-.16,1.28.05-.43.11-.86.16-1.28Z"/><path class="cls-4" d="M148.49,148.61c.41-.33.82-.65,1.24-.98-.41.33-.82.65-1.24.98Z"/><path class="cls-4" d="M137.94,154.35c.43-.17.85-.34,1.28-.51-.43.17-.85.34-1.28.51Z"/><path class="cls-4" d="M125.2,158.19c.43-.1.85-.2,1.28-.3-.31.62-.57,1.41-1.28.3Z"/><path class="cls-4" d="M157.58,137.78c.23-.45.47-.89.7-1.34-.23.45-.47.89-.7,1.34Z"/><path class="cls-4" d="M30.58,118.34c.07.52.15,1.05.22,1.57-.07-.52-.15-1.05-.22-1.57Z"/><path class="cls-4" d="M132.26,156.1c.2-.02.39-.05.59-.07l-.34.72c-.1-.15-.2-.3-.3-.46.03-.06.05-.13.05-.2Z"/><path class="cls-4" d="M152.04,145.44c.27-.28.54-.56.81-.83-.27.28-.54.56-.81.83Z"/><path class="cls-4" d="M48.75,142.58c.35.19.7.38,1.05.56-.35-.19-.7-.38-1.05-.56Z"/><path class="cls-4" d="M43.97,140.04c.35.19.7.38,1.04.57-.35-.19-.7-.38-1.04-.57Z"/><path class="cls-4" d="M106.45,160.52c.51-.01,1.01-.03,1.52-.04-.51.01-1.01.03-1.52.04Z"/><path class="cls-4" d="M160.56,109.72l-.22-.95.22.95Z"/><path class="cls-4" d="M122.65,158.8c.22-.07.43-.13.65-.2-.22.07-.43.13-.65.2Z"/><path class="cls-4" d="M85.06,157.89c.22.07.44.13.66.2-.22-.07-.44-.13-.66-.2Z"/><path class="cls-4" d="M128.7,65.14c-.32-.21-.64-.42-.96-.63.32.21.64.42.96.63Z"/><path class="cls-4" d="M130.3,156.92c.21-.08.42-.16.64-.24-.21.08-.42.16-.64.24Z"/><path class="cls-4" d="M141.12,153.04c.21-.1.43-.2.64-.29-.21.1-.43.2-.64.29Z"/><path class="cls-4" d="M42.57,77.16c-.04.09-.06.22-.12.25-.06.03-.17-.06-.26-.1.04-.09.06-.23.12-.25.06-.02.17.06.26.1Z"/><path class="cls-1" d="M143.57,78.16c-.28-.2-.57-.41-.85-.61.25.12.5.23.75.35,0,.1.03.19.1.26Z"/><path class="cls-4" d="M146.37,150.13c.27-.19.54-.38.81-.58-.27.19-.54.38-.81.58Z"/><path class="cls-4" d="M31.04,108.14l-.14.64.14-.64Z"/><path class="cls-4" d="M30.88,120.9c.06.21.12.42.19.64-.06-.21-.12-.42-.19-.64Z"/><path class="cls-4" d="M33.74,129.82c.11.21.22.42.33.63-.11-.21-.22-.42-.33-.63Z"/><path class="cls-4" d="M54.82,66.11l-.67.56.67-.56Z"/><path class="cls-4" d="M117.22,159.74c.32-.07.64-.15.95-.22-.32.07-.64.15-.95.22Z"/><path class="cls-4" d="M33.46,97.95c-.1.33-.21.65-.31.98.1-.33.21-.65.31-.98Z"/><path class="cls-4" d="M79.02,156.22c.33.11.66.21.98.32-.33-.11-.66-.21-.98-.32Z"/><path class="cls-4" d="M36.98,134.55c.2.23.41.45.61.68-.2-.23-.41-.45-.61-.68Z"/><path class="cls-4" d="M37.91,135.56c.21.2.42.41.64.61-.21-.2-.42-.41-.64-.61Z"/><path class="cls-4" d="M57.69,147.25c.29.14.57.28.86.42-.29-.14-.57-.28-.86-.42Z"/><path class="cls-4" d="M54.17,145.45c.2.1.39.2.59.29-.2-.1-.39-.2-.59-.29Z"/><path class="cls-4" d="M157.08,138.73c.1-.2.21-.39.31-.59-.1.2-.21.39-.31.59Z"/><path class="cls-4" d="M39.53,137.06c.17.14.35.28.52.42-.17-.14-.35-.28-.52-.42Z"/><path class="cls-4" d="M158.26,136.47c.11-.25.22-.5.33-.75-.11.25-.22.5-.33.75Z"/><path class="cls-4" d="M63.73,150.17c.22.11.44.22.66.32-.22-.11-.44-.22-.66-.32Z"/><path class="cls-4" d="M36.06,133.46c.14.16.28.33.41.49-.14-.16-.28-.33-.41-.49Z"/><path class="cls-4" d="M159.4,133.64c.05-.11.11-.23.16-.34.06.06.12.12.17.18-.11.05-.22.11-.34.16Z"/><path class="cls-4" d="M35.04,132.07c.13.19.27.38.4.57-.13-.19-.27-.38-.4-.57Z"/><path class="cls-4" d="M64.37,150.48c.23.11.47.21.7.32-.23-.11-.47-.21-.7-.32Z"/><path class="cls-4" d="M139.58,153.71c.19-.08.38-.17.58-.25-.19.08-.38.17-.58.25Z"/><path class="cls-4" d="M72.01,153.71c.22.1.45.19.67.29-.22-.1-.45-.19-.67-.29Z"/><path class="cls-4" d="M136.04,155.02c.1,0,.2-.02.3-.02-.1,0-.2.02-.3.02Z"/><path class="cls-4" d="M31.29,106.54c-.03.11-.05.22-.08.32.03-.11.05-.22.08-.32Z"/><path class="cls-4" d="M32.46,102.38c-.19.04-.37.08-.56.13.1-.14.2-.28.3-.42.08.1.17.19.26.29Z"/><path class="cls-4" d="M32.76,100.19c-.08.23-.15.46-.23.69.08-.23.15-.46.23-.69Z"/><path class="cls-4" d="M34.05,96.37c-.09.21-.18.42-.27.63.09-.21.18-.42.27-.63Z"/><path class="cls-4" d="M155.15,94.44c-.1-.21-.2-.42-.3-.63.1.21.2.42.3.63Z"/><path class="cls-4" d="M35,93.82c-.09.2-.18.41-.28.61.09-.2.18-.41.28-.61Z"/><path class="cls-4" d="M36.57,90.32c-.09.18-.18.36-.27.54.09-.18.18-.36.27-.54Z"/><path class="cls-4" d="M134.41,69.35c-.18-.14-.36-.27-.54-.41.18.14.36.27.54.41Z"/><path class="cls-4" d="M61.12,61.3c-.19.12-.38.24-.58.35.19-.12.38-.24.58-.35Z"/><path class="cls-4" d="M70.31,56.52c-.17.08-.34.16-.52.24.17-.08.34-.16.52-.24Z"/><path class="cls-4" d="M72.68,55.6c-.22.09-.45.18-.67.26.22-.09.45-.18.67-.26Z"/><path class="cls-4" d="M41.43,138.5c.1.07.21.15.31.22-.1-.07-.21-.15-.31-.22Z"/><path class="cls-4" d="M104.19,160.48c.1-.05.2-.04.29.01-.1,0-.2,0-.29-.01Z"/><path class="cls-4" d="M102.58,160.41c.11,0,.22,0,.32,0-.11,0-.22,0-.32,0Z"/><path class="cls-4" d="M119.45,159.42c.09-.03.19-.07.28-.1-.08.07-.17.1-.28.1Z"/><path class="cls-4" d="M124.23,158.47c.1-.05.2-.09.3-.14-.1.05-.2.09-.3.14Z"/><path class="cls-4" d="M126.81,157.84c.05-.11.13-.15.24-.1-.07.05-.15.09-.24.1Z"/><path class="cls-4" d="M128.08,157.52c.09-.04.18-.08.26-.13-.07.07-.16.11-.26.13Z"/><polygon class="cls-4" points="129.15 157.21 129.17 157.13 129.22 157.18 129.15 157.21"/><path class="cls-4" d="M79.99,156.52c.11-.03.21,0,.29.07-.1-.02-.2-.05-.29-.07Z"/><path class="cls-4" d="M73.33,154.24c.09.03.17.07.26.1-.1,0-.19-.04-.26-.1Z"/><path class="cls-4" d="M70.09,152.98c.11.04.21.08.32.11-.11-.04-.21-.08-.32-.11Z"/><path class="cls-4" d="M145.73,150.53c0-.1.05-.16.15-.16-.04.07-.09.12-.15.16Z"/><path class="cls-4" d="M62.14,149.41c.1.05.2.09.3.14-.1-.05-.2-.09-.3-.14Z"/><path class="cls-4" d="M51.62,144.12c.17.09.33.19.5.28-.17-.09-.33-.19-.5-.28Z"/><polygon class="cls-4" points="153.85 143.38 153.83 143.41 153.86 143.41 153.85 143.38"/><path class="cls-4" d="M156.3,139.97l.03-.1s.1-.02.1-.02c-.04.05-.08.08-.13.12Z"/><path class="cls-4" d="M43.33,139.7c.14.09.29.18.43.26-.14-.09-.29-.18-.43-.26Z"/><path class="cls-4" d="M158.89,134.88c.1-.17.2-.35.3-.52-.1.17-.2.35-.3.52Z"/><path class="cls-4" d="M35.41,132.6c.1.13.2.25.3.38-.1-.13-.2-.25-.3-.38Z"/><path class="cls-4" d="M159.74,132.65c.05-.11.1-.23.16-.34-.05.11-.1.23-.16.34Z"/><path class="cls-4" d="M160.55,130.01l-.06-.09s.08-.09.08-.09c0,.06,0,.12-.02.17Z"/><path class="cls-4" d="M32.81,127.9c.05.09.09.18.14.27-.05-.09-.09-.18-.14-.27Z"/><path class="cls-4" d="M32.49,126.99l.1.08s-.05.11-.05.11c-.03-.06-.05-.12-.06-.19Z"/><path class="cls-4" d="M31.63,124.5c.06.17.13.35.19.52-.06-.17-.13-.35-.19-.52Z"/><path class="cls-4" d="M161.37,124.68c.05-.1.09-.21.14-.31-.05.1-.09.21-.14.31Z"/><path class="cls-4" d="M161.58,117.06c0-.1-.01-.21-.02-.31.04.07.09.14.12.22,0,.02-.06.06-.1.09Z"/><path class="cls-4" d="M160.15,107.73c-.07-.18-.13-.36-.2-.53.07.18.13.36.2.53Z"/><path class="cls-4" d="M159.23,104.5c-.07-.16-.14-.33-.21-.49.07.16.14.33.21.49Z"/><path class="cls-4" d="M158.35,102.09c-.09-.08-.12-.17-.07-.28.02.09.04.19.07.28Z"/><path class="cls-4" d="M157.7,100.15c-.06-.09-.12-.18-.18-.26.06.09.12.18.18.26Z"/><path class="cls-4" d="M33.06,99.24c-.07.14-.13.27-.2.41.07-.14.13-.27.2-.41Z"/><path class="cls-4" d="M156.75,97.85l-.11-.05s.01-.11.01-.11c.04.05.07.1.1.16Z"/><path class="cls-4" d="M33.69,97.33c-.07.13-.13.25-.2.38.07-.13.13-.25.2-.38Z"/><path class="cls-4" d="M153.88,92.13c-.07-.07-.14-.14-.21-.21.09.05.16.12.21.21Z"/><path class="cls-4" d="M36.1,91.32v.12s-.11.07-.11.07c.02-.07.06-.14.11-.19Z"/><polygon class="cls-4" points="151.97 88.91 151.86 88.88 151.89 88.78 151.97 88.91"/><path class="cls-4" d="M151.65,88.34c-.07-.08-.14-.16-.2-.25.07.08.14.16.2.25Z"/><path class="cls-4" d="M150.36,86.43c-.06-.08-.12-.16-.18-.24.09.06.15.14.18.24Z"/><path class="cls-4" d="M150.03,85.9c-.09-.13-.19-.25-.28-.38.09.13.19.25.28.38Z"/><path class="cls-4" d="M146.55,81.33c-.08-.08-.16-.16-.24-.25.08.08.16.16.24.25Z"/><path class="cls-4" d="M144.62,79.07c-.07-.08-.15-.15-.22-.23.07.08.15.15.22.23Z"/><path class="cls-4" d="M143.57,78.16c-.07-.07-.1-.16-.1-.26.07.02.12.06.15.11-.01.05-.03.1-.05.15Z"/><path class="cls-1" d="M142.74,77.56c-.11-.11-.21-.22-.32-.33,0,0,.01-.01.01-.01.1.01.19.03.29.04.01.1.02.2.02.31Z"/><path class="cls-4" d="M142.72,77.26c-.1-.01-.19-.03-.29-.04-.01-.1,0-.19.03-.28.08.11.17.21.25.32Z"/><path class="cls-4" d="M141.75,76c-.11-.11-.23-.23-.34-.34.11.11.23.23.34.34Z"/><path class="cls-4" d="M48.65,72.16c-.08.09-.15.18-.23.27.08-.09.15-.18.23-.27Z"/><path class="cls-4" d="M49.42,71.2c-.11.13-.22.26-.33.39.11-.13.22-.26.33-.39Z"/><path class="cls-4" d="M56.29,64.81c0,.12-.07.17-.18.16.05-.07.11-.12.18-.16Z"/><path class="cls-4" d="M57.02,64.18c-.11.09-.21.18-.32.27.11-.09.21-.18.32-.27Z"/><path class="cls-4" d="M57.91,63.54c-.07.06-.15.13-.22.19.06-.09.13-.15.22-.19Z"/><path class="cls-4" d="M126.15,63.51c-.12-.09-.24-.17-.35-.26.12.09.24.17.35.26Z"/><path class="cls-4" d="M125.82,63.27c-.16-.1-.33-.2-.49-.3.16.1.33.2.49.3Z"/><polygon class="cls-4" points="58.77 62.93 58.76 63.02 58.68 62.99 58.77 62.93"/><path class="cls-4" d="M60.55,61.65c-.11.08-.23.17-.34.25.11-.08.23-.17.34-.25Z"/><path class="cls-4" d="M61.51,61.01c-.12.09-.23.18-.35.26.12-.09.23-.18.35-.26Z"/><path class="cls-4" d="M62.08,60.67c-.09.07-.17.14-.26.21.09-.07.17-.14.26-.21Z"/><path class="cls-4" d="M120.73,60.39c-.14-.08-.28-.16-.42-.25.14.08.28.16.42.25Z"/><path class="cls-4" d="M63.1,60.05c-.11.08-.22.16-.33.23.11-.08.22-.16.33-.23Z"/><path class="cls-4" d="M120.31,60.17c-.11.03-.18-.01-.21-.12.07-.04.13-.09.2-.13v.25Z"/><path class="cls-4" d="M64.13,59.44c-.14.09-.27.18-.41.27.14-.09.27-.18.41-.27Z"/><path class="cls-4" d="M64.88,59.08l-.04.11s-.11,0-.11,0c.05-.04.1-.07.15-.11Z"/><path class="cls-4" d="M68.73,57.17c-.11.02-.22.04-.33.06.11-.02.22-.04.33-.06Z"/><path class="cls-4" d="M73.66,55.29c-.05.1-.11.18-.17.27-.06-.04-.11-.09-.16-.14.11-.04.22-.08.34-.12Z"/><path class="cls-4" d="M77.37,54.31l-.08.1s-.1-.06-.1-.06c.06-.03.12-.04.18-.04Z"/><path class="cls-4" d="M77.71,54.19c-.06.03-.11.04-.18.04.03-.09.06-.18.08-.27.03.08.06.15.09.23Z"/><path class="cls-5" d="M43.85,105.25c-.44-.97-.63-1.77-1.09-2.34-2.47-3.04-2.6-6.36-1.33-9.89.41-1.14.66-2.38,1.29-3.39,1.28-2.06,2.68-4.07,4.21-5.96,1.21-1.49,2.6-2.89,4.09-4.1,1.19-.97,2.66-1.6,4.01-2.38,1.43-.83,2.87-1.66,4.3-2.49.13-.08.22-.25.35-.29,2.32-.65,4.64-1.29,6.97-1.93.15-.04.38-.02.45-.12.94-1.41,2.35-.33,3.45-.86.22.27.45.54.67.81-.46.14-.98.19-1.36.45-3.42,2.26-5.85,5.29-6.93,9.27-.46,1.68-.58,3.45-1.01,5.13-.18.72-.65,1.44-1.16,2-1.86,2.04-4.05,3.82-5.64,6.04-2.77,3.88-5.17,8.03-7.76,12.03-.25.39-1.02.88-1.21.77-.42-.25-.87-.86-.89-1.33-.03-1.2-.51-1.65-1.41-1.43Z"/><path class="cls-5" d="M91.87,101.25c.06.74.13,1.48.17,2.22.04.74.35,1.88.01,2.13-.58.44-1.67.61-2.38.39-1.27-.4-2.39-1.62-3.63-1.71-1.68-.12-2.8-1.12-4.18-1.7-1.29-.54-2.55-1.17-3.76-1.87-.54-.31-.94-.86-1.58-1.47,0,0-.38.16-.76.32.09-.13.18-.27.27-.4-.56-.65-1.04-1.4-1.69-1.94-.78-.65-1-1.3-.53-2.2,2.43-4.67,9.09-6.74,13.49-5.01,2.74,1.08,5.52,1.95,8.09,3.54,2.94,1.82,5.64,3.74,7.35,6.77,1.12,1.99,2.1,4.07,3.12,6.11.43.86.31,1.43-.83,1.46-.32,0-.63.27-.95.4-.29.12-.75.38-.86.29-1.29-1.18-3-.74-4.46-1.21-.43-.14-.97-.26-1.36-.11-1.22.46-1.67-.07-2.12-1.14-.73-1.74-1.68-3.39-2.54-5.08-.29.07-.58.14-.87.21Z"/><path class="cls-1" d="M115.01,129.79c-2.96,2.8-5.41,6.15-9.52,7.42-2.29.71-4.41,1.96-6.68,2.76-1.1.39-2.35.35-3.54.47-2.76.27-5.53.53-8.3.77-.41.03-.96.06-1.22-.17-1.63-1.45-3.67-1.08-5.57-1.39-1.28-.21-2.53-.61-3.79-.93v-.52c-.13.29-.27.57-.47,1.01-1.3-.69-2.59-1.38-3.99-2.11-.37.9-1.31,1.51-2.22.51-.53-.59-.42-1.77-.64-2.9-.4.3-.59.39-.71.53-.96,1.17-1.59,1.1-2.24-.27-.3-.61-.64-1.2-1.11-2.08-.44.65-.65.96-.97,1.42-2.18-1.63-4.37-3.26-6.61-4.93,1.52-.15,2.64.73,3.7,1.6.86.7,1.51,1.01,2.81.97,2-.06,4.03.95,6.69,1.68,1.5.24,3.7.67,5.91.94,2.03.25,4.15.07,6.12.54,4.8,1.14,9.52.1,14.27-.23,3.73-.26,7.36-1.1,10.85-2.5,2.37-.95,4.81-1.75,7.22-2.62Z"/><path class="cls-1" d="M90.63,125.51c-1.6.29-3.13.55-4.83-.06-1.64-.59-3.45-.87-5.2-.99-2.21-.15-4.12-.88-5.91-2.12-.11.19-.24.41-.31.52-1.82-1.14-3.62-2.27-5.6-3.52-.15.18-.54.68-.93,1.17l-.37-.11c.13-.64.26-1.28.39-1.93-3.3-3.11-6.12-6.71-6.8-11.21-.49-3.27-.26-6.83,2.23-9.64.63-.72,1.14-.86,1.72.08.44.71.97,1.38,1.53,2.01,1.15,1.3,1.53,2.85,1.6,4.53.27,6.52,3.04,11.71,8.23,15.68,3.86,2.95,8.18,4.49,12.98,4.85.45.03.88.22,1.33.34-.02.14-.04.27-.06.41Z"/><path class="cls-1" d="M125.46,112.92c-.17-.62-.46-1.23-.51-1.86-.19-2.47-.53-4.71,1.85-6.82,1.88-1.68,3.05-4.39,3.93-6.86.75-2.09.58-4.45-.11-6.73-.93-3.1-2.36-5.94-4.18-8.56-.98-1.4-2.29-2.58-3.5-3.81-.58-.59-1.28-1.07-1.93-1.6.13-.16.25-.32.38-.48.58.32,1.2.6,1.75.97,2.07,1.4,4.22,2.71,6.14,4.29,1.31,1.08,2.51,2.42,3.37,3.88.88,1.48,1.54,3.2,1.87,4.89.81,4.17.2,8.23-1.42,12.15-.62,1.5-1.11,3.07-1.79,4.54-.26.55-.96.88-1.39,1.38-1.32,1.54-2.6,3.11-3.89,4.67-.19-.02-.38-.03-.56-.05Z"/><path class="cls-1" d="M97.9,70.07c-1.84,1.81-3.9,1.14-5.67,1.62-.42.11-.87.19-1.24.41-1.32.76-2.56,1.7-3.94,2.32-.63.28-1.52-.04-2.47-.09-1.52,1.05-3.2,2.3-5.02,3.42-2.21,1.36-4.78,1.64-6.84,3.12-.17.12-.43.19-.52.35-1.15,2.11-3.65,1.77-5.34,3.39-.28-1.63-.07-2.49,1.05-3.29,1.39-.99,2.48-2.4,3.86-3.42,1.43-1.06,3.03-1.88,4.58-2.77,4.04-2.32,8.23-4.2,12.98-4.51,2.13-.14,4.24-.49,6.36-.69.6-.06,1.23.08,2.21.17Z"/><path class="cls-1" d="M110.88,107.07c-.89-3.06-1.62-6.1-2.69-9.01-.4-1.1-1.63-1.88-2.43-2.85-.34-.41-.45-1.02-.8-1.41-1.32-1.46-2.7-2.87-4.06-4.29-.21-.21-.45-.39-.68-.59.06-.13.13-.26.19-.38,1.7.74,3.58,1.22,5.05,2.28,3.28,2.35,6.83,4.46,9.19,7.9.9,1.31,1.76,2.63,2.62,3.97.13.2.24.51.19.73-.27,1.25-3.18,2.99-4.63,2.99-.68,0-1.36.45-1.94.67Z"/><path class="cls-1" d="M108.29,124.83c-1.56-.45-1.45-1.4-.79-2.64,1.01-1.88,2.14-3.56,3.92-4.88,2.62-1.94,5.03-4.16,7.57-6.21.45-.36,1.09-.48,1.65-.71.15.52.43,1.04.44,1.56.04,1.35.25,2.81-.16,4.04-.35,1.07-1.46,1.89-2.24,2.81-.13.15-.41.19-.51.35-1.57,2.44-4.48,2.4-6.69,3.65-1.09.62-2.12,1.34-3.19,2.02Z"/><path class="cls-1" d="M85.3,117.02c.56-.22.94-.37,1.26-.49-.49-1.19-.94-2.29-1.48-3.61-4.13.42-7.24-1.72-9.74-5.09,3.77,1.55,7.55,3.1,11.38,4.67-.14.43-.44.95-.44,1.46.03,2.09,1.48,2.94,3,1.54,2.01-1.86,4.13-1.9,6.57-1.55,2.3.33,4.64.39,6.97.57.15.01.3.07.66.15-.56,1.61-2.09,1.77-3.25,2.31-.88.41-1.92.45-2.85.79-.35.13-.56.64-.87,1.02-.89-1.59-1.46-.46-1.77-.06-1.01-.04-1.7-.04-2.39-.11-1.63-.16-3.25-.35-5.17-.57-.03.04-.29.5-.68,1.17-.44-.81-.77-1.42-1.19-2.19Z"/><path class="cls-1" d="M57.65,99.64c-.52,2.96-1.09,5.91-1.54,8.88-.47,3.14,1.79,5.7,2.02,8.84-1.68-.91-4.02-.33-4.92-2.66-.21-.56-.71-1.05-1.18-1.46-1.55-1.36-1.56-3.2-.72-4.63,1.85-3.17,4.08-6.13,6.16-9.17l.18.2Z"/><path class="cls-1" d="M108.96,78.84c.89-1.12,1.9-.36,2.7-.12,1.7.52,3.42,1.12,4.97,1.98,1.98,1.1,3.86,2.42,5.68,3.79.99.74,1.78,1.76,2.62,2.69,1.71,1.92,1.22,4.26,1.13,6.49-.03.69-.3,1.37-.46,2.06-.19.03-.37.07-.56.1-.52-1.54-1.04-3.08-1.57-4.61-1.36-3.9-3.78-6.93-7.47-8.87-2.26-1.19-4.56-2.29-7.02-3.53Z"/><path class="cls-1" d="M114.9,89.5c3.68,1.19,5.9,4.1,5.21,6.73-1.72-2.22-3.4-4.4-5.21-6.73Z"/><path class="cls-1" d="M71.12,89.99c-.39,1.14-.72,2.12-1.1,3.23-1.16-1.66-.96-2.23,1.1-3.23Z"/><path class="cls-1" d="M98.47,70.53c.65-.22,1.29-.45,2.13-.74q-.4,1.86-2.13.74Z"/></svg>