<?xml version="1.0" encoding="UTF-8"?><svg id="Layer_1" xmlns="http://www.w3.org/2000/svg" viewBox="0 0 192.26 194.58"><defs><style>.cls-1{fill:#f1f5f6;}.cls-1,.cls-2,.cls-3,.cls-4,.cls-5,.cls-6,.cls-7,.cls-8,.cls-9,.cls-10,.cls-11,.cls-12{stroke-width:0px;}.cls-2{fill:#79b250;}.cls-3{fill:#e5cf4b;}.cls-4{fill:#079454;}.cls-5{fill:#efd14a;}.cls-6{fill:#319f52;}.cls-7{fill:#c39e39;}.cls-8{fill:#f7d14c;}.cls-9{fill:#039354;}.cls-10{fill:#0e9358;}.cls-11{fill:#fcf5f3;}.cls-12{fill:#fed44a;}</style></defs><path class="cls-9" d="M141.35,72.67c-.33.41-.67.82-1,1.24-.13.11-.26.22-.4.32-1.17.9-2.34,1.8-3.51,2.69-1.24-1.21-2.42-2.49-3.72-3.62-2.16-1.88-4.37-3.66-7.19-4.62-2.29-.77-4.41-2.02-6.67-2.91-2.64-1.05-3.94-.86-6.36.54-.22.13-.61.29-.72.2-1.05-.91-1.72.06-2.22.59-.86.91-1.59,1.98-2.18,3.09-.91,1.69-.36,6.22.8,7.47,1,1.08,2.15,2.04,3.05,3.2,2.24,2.85,5.25,5.04,6.93,8.36.37.73,1.09,1.27,1.65,1.9-.97.92-1.94,1.85-2.9,2.77.04.08.08.15.12.23,1.26-.67,2.52-1.34,3.78-2.01.25.4.44.87.77,1.19,3.1,2.94,6.12,5.96,9.36,8.73,3.11,2.64,5.67,5.49,6.52,9.66.54,2.64,1.5,5.2,2.11,7.83,1.06,4.61,1.72,9.24-1.25,13.47-.66.93-1.47,2-2.46,2.41-2.51,1.05-5.33.79-7.41-.69-3.62-2.55-7.14-5.47-8.5-9.98-.92-3.07-1.47-6.25-.4-9.44.66-1.98.04-2.69-2.15-2.38-.73-1.62-.82-1.67-2.43-1.11-.17-.25-.3-.56-.53-.76-.44-.37-1.05-1.02-1.38-.92-.46.15-.8.85-1.07,1.38-1.29,2.53-1.28,5.32-1.53,8.05-.03.36.01.74.06,1.11.23,1.78.48,3.57.72,5.35.06.46.03.97.21,1.38.81,1.86,1.65,3.71,2.56,5.52.51,1.03,1.12,2.04,2.45,2.2.02.17.05.34.07.51-.43-.08-.86-.15-1.29-.23-.32-.12-.65-.24-.97-.36,0,0,.03.02.03.02-.12-.06-.24-.12-.36-.18-.58-.16-1.16-.32-1.74-.48-.91-.29-1.82-.59-2.73-.88-.14-.04-.27-.07-.41-.11-.18-.06-.36-.13-.54-.19-.64-.2-1.29-.41-1.93-.61-.53-.18-1.06-.35-1.59-.53-.32-.07-.63-.15-.95-.22-.12.02-.23.04-.35.06-.89-.78-.8-.08-.75.51.03.38.11.75.21,1.4-.32-.38-.43-.52-.65-.77-.07.59-.13,1.07-.2,1.65-.4-.2-.76-.38-1.12-.56v-5.49c.09,0,.19,0,.28,0,.25.53.51,1.05.76,1.58.17-.05.33-.09.5-.14-.27-1.34-.54-2.67-.8-4.01-.05-.25-.12-.52-.11-.77.15-2.21.42-4.41.45-6.62.04-2.68-.08-5.36-.22-8.04-.2-3.95-.45-7.9-.71-11.85-.23-3.56-.59-7.09-.15-10.68.44-3.56.6-7.16.83-10.74.17-2.72.15-5.46.42-8.17.16-1.6.74-3.16,1.11-4.75.48-2.06.93-4.12,1.39-6.18.42-.54.84-1.07,1.26-1.61,2.88-1.26,5.77-2.52,8.65-3.78,1.85-.77,3.73-1.5,5.56-2.33,3.27-1.47,6.49-2.73,9.93-.35.79.54,1.89.63,2.85.92.41.51.82,1.02,1.23,1.53.35.31.7.61,1.05.92.13.12.26.25.39.37.83.53,1.73.98,2.47,1.62,1.73,1.47,3.35,3.06,5.07,4.55.35.3.92.35,1.39.52-.26.82-.53,1.65-.79,2.47-.09.45-.17.9-.26,1.35-.17.5-.33,1-.5,1.5-.26.88-.51,1.76-.77,2.64-.07.18-.14.37-.21.55-.23.89-.47,1.79-.7,2.68-.08.27-.15.55-.23.82Z"/><path class="cls-9" d="M127.62,34.74l1.61.62c1.17.43,2.33.87,3.5,1.3.22.09.44.17.65.26.53.2,1.05.4,1.58.6,2,.8,4,1.61,5.99,2.41,0,0-.03.11-.03.11l.1.07c.57,1.62,1.14,3.24,1.7,4.86.07.09.13.19.2.28.39.88.79,1.75,1.18,2.63,0,.07,0,.13.02.2-.02.14-.04.29-.07.43.03.13.07.27.1.4-1.17-1.03-2.25-2.22-3.54-3.06-2.42-1.57-4.89-3.11-7.49-4.37-4.74-2.3-9.54-2.53-14.44-.15-4.37,2.13-8.81,4.14-13.35,5.88-2.84,1.09-5.44,2.31-7.31,4.78-.1.13-.21.26-.31.39-.1.17-.19.35-.29.52-.45.96-.91,1.91-1.36,2.87-.2.76-.42,1.52-.59,2.29-1.54,7.21-2.61,14.48-2.79,21.85-.2,7.96-.33,15.93-.22,23.88.08,5.79.59,11.58.92,17.36.34,5.97.71,11.94,1,17.91.14,2.84-.03,5.71.22,8.54.22,2.53-.79,5.16.62,7.59.07.13.13.41.08.44-1.29.92-.44,2.25-.62,3.37-.13.79-.03,1.62-.03,2.62-3.54-1.63-5.01-4.85-7.12-7.42-1.46-1.77-2.58-3.83-3.84-5.76,0,0,0,.04,0,.04-.11-.22-.22-.43-.33-.65v.02c0-.2-.03-.4-.05-.6-.43-.74-.85-1.48-1.28-2.22-.33-.54-.66-1.08-.99-1.61-.05-.23-.1-.46-.15-.69-.15-.18-.3-.36-.45-.53l-.08-.06c-.07-.09-.15-.17-.22-.26-4.85-8.34-7.68-17.48-10.67-26.57.03-.11,0-.2-.11-.27-.21-1.53-.42-3.07-.63-4.6.04-.08.02-.14-.06-.17-.06-.41-.11-.83-.17-1.24.06-.22.12-.44.18-.66.6-1.05,1.17-2.12,1.81-3.14.88-1.4,1.82-2.77,2.73-4.15.32-.63.64-1.25.97-1.88.97-1.39,1.94-2.78,2.91-4.17l-.44-.35c-.33.21-.67.41-1,.62.36-.57.67-1.19,1.11-1.7.25-.29.91-.32,1.05-.62,1.05-2.16,2.02-4.37,3.02-6.56l-.02.02c.07-.12.14-.24.21-.36.04-.16.09-.31.13-.47.07-.16.15-.33.22-.49.13-.4.26-.8.39-1.2.13-.34.26-.67.39-1.01.09-.18.18-.36.26-.54.1-.26.2-.51.3-.77.08-.08.1-.17.06-.28.06-.22.12-.45.19-.67.08-.08.1-.17.06-.27.14-.54.28-1.08.42-1.61h.11s.09-.06.09-.06c.21-.41.42-.83.63-1.24.13-.35.27-.71.4-1.06.08-.18.16-.35.24-.53.13-.39.25-.78.38-1.17.18-.57.35-1.13.53-1.7.42-1.57.83-3.14,1.25-4.71.52-2.1,1.11-4.19,1.54-6.31.72-3.51,1.07-7.04-.54-10.44.09-.39.17-.77.26-1.16.32-1.28.65-2.56.97-3.84.06-.21.12-.42.17-.62.05-.21.1-.42.15-.64.04-.1.08-.21.12-.31.53-.49,1.05-.99,1.58-1.48.15-.14.3-.28.45-.42.7-.62,1.39-1.23,2.09-1.85.13-.12.26-.23.39-.35l3.75-3.47c.12-.12.24-.24.37-.36.94-.92,1.88-1.84,2.83-2.76.11-.04.23-.08.34-.11,4.12-.54,8.25-1.08,12.37-1.63.21-.01.41-.03.62-.04.86-.09,1.71-.18,2.57-.27.21-.02.41-.03.62-.05.33-.03.66-.06.99-.08l.15.05.13-.09c.36-.04.72-.07,1.08-.11.29.09.57.17.86.26.92.34,1.83.68,2.75,1.02.14.07.29.13.43.2,1,.37,2.01.73,3.01,1.1.17.07.33.15.5.22Z"/><path class="cls-5" d="M98.04,51.99c1.87-2.47,4.47-3.69,7.31-4.78,4.53-1.74,8.98-3.75,13.35-5.88,4.9-2.38,9.7-2.15,14.44.15,2.59,1.26,5.07,2.79,7.49,4.37,1.3.84,2.37,2.03,3.54,3.06,0,0,.03-.08.03-.08.05.1.1.21.15.31.37,1.04.74,2.09,1.11,3.14,0,0,0,.01,0,.01.42.96.84,1.92,1.26,2.89,0,.2,0,.4,0,.6-.18.43-.36.87-.54,1.3-.05.09-.08.19-.09.3-.27.73-.55,1.47-.82,2.2-.06.17-.11.35-.17.52,0,0-.08,0-.08,0l.04.06c-.06.18-.13.37-.19.55,0,0-.08-.06-.08-.06-.47-.17-1.03-.22-1.39-.52-1.72-1.48-3.35-3.07-5.07-4.55-.74-.63-1.64-1.08-2.47-1.62-.13-.12-.26-.25-.39-.37-.35-.31-.7-.61-1.05-.92.75-.05,1.5-.1,2.24-.14.45.36.92.7,1.34,1.09.76.69,1.49,1.42,2.23,2.13l.3-.32c-.16-.43-.33-.85-.48-1.27.33-.18.59-.32.93-.51-1.59-1.22-3.09-2.35-4.55-3.52-1.47-1.16-2.83-2.48-4.39-3.51-1.18-.77-2.59-1.18-3.9-1.76-2.56-1.13-4.92-.29-7.26.73-1.24.59-2.47,1.18-3.71,1.77.05.1.11.19.16.29.56-.05,1.12-.1,1.67-.15.56.23,1.12.45,1.69.68-1.2.73-2.41,1.46-3.61,2.2l.02-.02c-.33.11-.66.21-1,.32-.91.49-1.82.98-2.97,1.61.82.29,1.27.45,1.72.61-2.88,1.26-5.77,2.52-8.65,3.78-.03-.42-.07-.84-.11-1.41-1.45-.5-1.55,1.16-2.28,1.62.44.54.78.97,1.13,1.4-.46,2.06-.92,4.13-1.39,6.18-.37,1.59-.95,3.15-1.11,4.75-.27,2.71-.25,5.45-.42,8.17-.23,3.58-.39,7.18-.83,10.74-.44,3.59-.08,7.12.15,10.68.26,3.95.51,7.9.71,11.85.13,2.68.25,5.36.22,8.04-.03,2.21-.3,4.41-.45,6.62-.02.25.06.51.11.77.26,1.34.53,2.67.8,4.01-.17.05-.33.09-.5.14-.25-.53-.51-1.05-.76-1.58-.09,0-.19,0-.28,0v5.49c-.09.47-.19.94-.26,1.29.48-.03.82-.06,1.16-.08.01.45.03.9.04,1.34-.5,2.16-1.01,4.31-1.48,6.47-.07.3.12.66.2,1,0,.06,0,.12,0,.18-.07.12-.14.24-.21.36-.21.44-.42.88-.63,1.32-.17.02-.34.03-.51.05-.25-1.59-.49-3.17-.74-4.76-.17.02-.33.04-.5.06.13,2.41,1.05,5.17.19,7.14-1.11,2.53.16,4.9-.78,7.36-.84,2.21-.46,4.89-.61,7.16-.82.32-1.45.56-2.12.82.24.59.41,1.02.58,1.45-.29.11-.59.22-.88.32-.48-.07-.95-.15-1.43-.22-1.05-.1-2.1-.21-3.15-.31-1.03-1.76-4.08-1.94-3.78-4.77.01-.12-.32-.25-.46-.41-.44-.53-.88-1.06-1.29-1.61-.5-.68-.96-1.38-1.45-2.06-.2,1.03-.33,2.03.1,2.64,1.56,2.21,2.41,5.07,5.27,6.17,0,.07,0,.13-.02.19-.42-.05-.84-.1-1.27-.14-.75-.05-1.5-.09-2.26-.14-1-1.05-2.12-2.02-2.96-3.18-1.05-1.46-1.88-3.08-2.8-4.64-.16-1.43-.32-2.85-.49-4.34.54.06.78.09.65.08-.16-1.07-.33-2.09-.46-3.12-.04-.34.16-.73.07-1.04-.36-1.17.06-1.61,1.23-1.48.44.95.89,1.91,1.34,2.87.08-.03.17-.07.25-.1-.18-.78-.37-1.57-.55-2.35.12-.1.25-.2.37-.3.66.62,1.32,1.24,2.03,1.9.04-.3.07-.55.1-.8,1.27,1.93,2.39,3.98,3.84,5.76,2.11,2.57,3.58,5.79,7.12,7.42,0-1-.1-1.83.03-2.62.18-1.12-.67-2.45.62-3.37.05-.04,0-.32-.08-.44-1.41-2.43-.4-5.06-.62-7.59-.25-2.83-.08-5.7-.22-8.54-.29-5.97-.67-11.94-1-17.91-.32-5.79-.84-11.57-.92-17.36-.11-7.96.03-15.93.22-23.88.18-7.37,1.25-14.65,2.79-21.85.16-.77.39-1.53.59-2.29.79.49,1.36.18,1.73-.54.2-.38.24-.85.35-1.28-1.07.22-.73-.53-.72-1.05.1-.17.19-.35.29-.52.1-.13.21-.26.31-.38ZM83.34,154.87s-.07-.05-.1-.08c.04.02.08.04.12.07.09.12.17.25.26.37.56.88,1.12,1.76,1.68,2.64.17-1.34-.39-2.23-1.6-2.71-.12-.09-.23-.19-.35-.28ZM95.16,126.49c-.08-.45-.15-.91-.23-1.36-.18.07-.36.13-.54.2.24.4.48.81.72,1.21.09.45.18.91.27,1.36l.39-.06v-1.66c1.42-.91.38-1.79-.16-2.67.06.89.11,1.78.17,2.67-.21.1-.41.2-.62.3ZM97.05,114.42c-.2-.35-.55-.69-.59-1.06-.1-1.02-.07-2.06-.09-3.09-.07-.31-.14-.62-.21-.93-.14-.2-.29-.39-.43-.59-.13-3.58-.23-7.15-.42-10.72-.05-.96-.41-1.91-.63-2.87-.21.03-.41.06-.62.08-.08.67-.25,1.34-.22,2,.15,2.57.26,5.14.6,7.69.31,2.32.9,4.6,1.37,6.9-1.02.8-1.08,1.89-.98,3.06.1,1.19.13,2.39.23,3.58.21,2.53.22,2.53,1.08,2.86-.11-1.32-.39-2.8-.28-4.24.07-.92.75-1.79,1.15-2.68.15-.18.3-.36.45-.53-.1-.05-.2-.1-.3-.15-.05.24-.09.47-.14.71ZM98.45,86.89c-.33-.89-.66-1.77-.99-2.66-.15.05-.29.09-.44.14.23,1.19.47,2.39.7,3.58-.04.32-.09.64-.13.96-.39.01-.78.02-1.17.04-.02-.92-.13-1.85-.05-2.76.13-1.55.22-3.14.62-4.63.62-2.29.45-4.5,0-6.76-.21-1.08-.23-2.21-.33-3.31-.04-.39-.09-.78-.13-1.17-.16,0-.31,0-.47,0-.48,2.36-.97,4.72-1.45,7.08.15.03.3.05.45.08.07-.34.14-.68.21-1.02.13,0,.26,0,.39.01,0,1.47.08,2.95-.02,4.42-.1,1.42-.56,2.83-.58,4.25-.02,1.8.24,3.6.37,5.4-1.76.61-.54,1.9-.67,2.88.26-.46.52-.92.78-1.39.1.04.19.08.29.11.08-.02.16-.03.24-.05.06-.21.12-.41.18-.62.47-.32.94-.65,1.41-.97.05,2.14.52,4.39.02,6.39-.42,1.69-.64,3.27-.42,4.94.17,1.32.42,2.62.64,3.94l.22-.07v-7.96c.12.03.32.08.25.06.1-1.67.2-3.23.3-4.79.12-1.88.17-3.77.38-5.65.17-1.51.56-3,.77-4.51.05-.36-.22-.76-.34-1.14-.2.04-.4.08-.6.11-.06,1.49-.12,2.98-.2,4.47-.01.2-.13.39-.2.59ZM115.13,47.82c-.05-.11-.11-.22-.16-.33-.84.3-1.68.64-2.53.9-1.56.47-3.16.81-4.68,1.38-.82.31-2.12.99-2.12,1.49,0,1.81-1.45,1.6-2.36,2.06-1.67.86-2.58,2.18-2.84,4.12,2.68-4.42,7.43-4.98,11.64-6.55-.37.4-.74.79-1.11,1.19.05.06.1.12.15.19,1.54-.83,3.07-1.66,4.61-2.5,0-.12.01-.24.02-.36h-2.79c.89-.65,1.54-1.12,2.18-1.59ZM93.89,107.77v-4.4c-1.17,1.47-.59,2.96,0,4.4ZM100.86,128.38c-.07.03-.13.06-.2.1v1.71c.1,0,.2-.01.3-.02-.03-.6-.07-1.19-.1-1.79ZM96.85,124.01c.05-.08.11-.14.13-.22.01-.04-.02-.09-.03-.14-.06.02-.17.05-.17.07,0,.09.04.18.06.29ZM96.53,108.03l.03.1.02-.1h-.05Z"/><path class="cls-4" d="M42.9,46.24c1.91-.7,3.82-1.4,5.72-2.1.96.02,1.92.03,2.88.05,3.5.03,7.01.07,10.51.1,1.59.05,3.19.09,4.78.14.11.07.21.14.32.21.1.1.21.2.31.3.12.11.25.22.37.33.09.09.18.18.27.27.47.47.93.93,1.4,1.4.15.12.3.23.45.35,0,0-.04-.03-.04-.03.12.13.24.26.36.39,2.7,2.61,5.39,5.21,8.09,7.82.08.07.15.14.23.2.27.27.55.55.82.82.25.31.51.63.76.94-.02.09-.03.17-.01.26-.13.22-.32.42-.38.66-.84,3.61-1.67,7.22-2.5,10.83-.24.83-.46,1.67-.73,2.5-.59,1.85-.26,2.44,1.7,2.91-.12.68-.23,1.36-.34,2.04-.11.27-.22.54-.33.81,0,0,.02-.03.02-.03-.1.22-.2.45-.3.67-.28.14-.56.27-.85.41-.04-.04-.09-.07-.13-.11l.39-1.99c-.68.66-1.07,1.28-1.46,1.89-.7,1.09-1.39,2.18-2.09,3.28,0,.12,0,.25.01.37v-.02c-.87,1.13-2.13,2.07-1.82,3.78-.54.67-1.08,1.34-1.63,2.02-.68,1.51-1.36,3.01-2.05,4.52-.6-.05-1.2-.1-1.8-.15,0,0,.03.01.03.01-.11-.03-.22-.06-.33-.09-2.78-.5-5.56-1-8.33-1.52-.39-.07-.76-.26-1.14-.39,3.12-4.5,6.58-8.74,8.76-13.89,1.73-4.09,2.13-8.25,2.21-12.54,0-.12-.01-.25-.02-.4-.19.4-.36.75-.67,1.4-.65-2.24.87-4.27-.52-6.08-.05-.07.2-.34.24-.53.11-.54.39-1.17.22-1.63-.85-2.42-1.62-4.9-2.79-7.17-1.92-3.72-7.23-4.51-10.7-2.24-2.67,1.75-4.21,4.33-5.2,7.2-1.48,4.3-2.73,8.68-4.04,13.04-.52,1.73-1.55,2.74-3.33,2.9-3.75.32-6.96-1.04-9.84-3.3-.73-.58-1.27-1.4-1.89-2.12-.04-.43-.08-.86-.12-1.29.1-.08.1-.17.02-.27,1.14-2.7,2.25-5.4,3.42-8.08.68-1.57,1.44-3.1,2.17-4.66.15-.21.3-.41.44-.62.08.04.15.01.19-.07.16-.08.32-.16.48-.24,1.54-.64,3.08-1.29,4.61-1.93.18-.09.37-.17.55-.26.57-.23,1.13-.45,1.7-.68.31-.12.63-.24.94-.37Z"/><path class="cls-9" d="M63.14,139.87c-.09.06-.21.1-.26.18-1.98,3.18-5.01,3.37-8.27,2.93.42-1.52-.53-2.47-1.41-3.47-1.94-2.22-4.15-4.28-5.69-6.75-1.86-2.98-3.44-6.22-4.62-9.53-2.78-7.78-2.93-15.53,1.33-22.96.21-.15.41-.29.62-.44l.28-.12c.64-.25,1.27-.5,1.91-.75.42-.17.85-.34,1.27-.52.64-.24,1.28-.49,1.91-.73.35-.16.71-.31,1.06-.47.52-.23,1.04-.47,1.55-.7,0,0,.1.1.1.1l.1-.1c.23-.05.46-.1.68-.15.21-.06.43-.11.64-.17.21-.03.42-.06.64-.09.32-.08.64-.16.95-.24,3.21-.72,6.43-1.43,9.64-2.15.08-.02.17-.03.25-.05l.31-.04c.1-.02.21-.03.31-.05.15.01.31.02.46.04-.01.12-.03.25-.04.37-.06.14-.12.29-.18.43-.26.4-.51.8-.77,1.21-.06.11-.04.2.04.29-.04.08-.05.15-.02.23-.08.02-.12.07-.12.15-.22.18-.45.36-.67.54-.1.11-.19.22-.29.33-.42.49-.84.97-1.19,1.37.24.36.41.61.58.86-.08.04-.11.1-.1.19-.17.18-.34.35-.51.53-.41.14-1.05.17-1.2.45-.57,1.11-.98,2.3-1.45,3.45,0,.15.01.31.02.46v-.03c-.28.41-.7.78-.83,1.23-1.23,4.58-.78,9.07.94,13.45.19.64.39,1.28.58,1.92.19.65.39,1.3.58,1.96.13.31.26.61.39.92.06.13.12.27.18.4h-.04c-.04.09-.02.17.05.24.02.1.04.21.06.31.08.22.17.44.25.67-.01.11.02.21.1.29.07.17.15.35.22.52-.02.05-.06.1-.05.15.02.1.07.19.11.29.09.25.18.51.26.76.34.91.69,1.83,1.03,2.74.11.2.22.4.33.6l.02.02.28.32c.25.85.5,1.7.75,2.55.14.29.28.58.42.87.1.26.2.51.3.77,0,.06.03.1.09.12-.1.17-.2.34-.29.5-.09.1-.19.2-.28.3-.23.24-.45.48-.68.72-.08.08-.16.16-.24.24-.77.8-1.55,1.59-2.32,2.39,0,0-.12,0-.12,0v.12Z"/><path class="cls-5" d="M116.46,135.14c-1.33-.16-1.94-1.17-2.45-2.2-.9-1.82-1.74-3.67-2.56-5.52-.18-.41-.15-.92-.21-1.38-.24-1.78-.49-3.57-.72-5.35-.05-.37-.09-.74-.06-1.11.25-2.73.24-5.52,1.53-8.05.27-.53.61-1.23,1.07-1.38.34-.11.94.55,1.38.92.23.19.36.51.53.76,1.61-.55,1.7-.51,2.43,1.11,2.19-.31,2.81.4,2.15,2.38-1.07,3.19-.53,6.36.4,9.44,1.36,4.52,4.88,7.43,8.5,9.98,2.08,1.47,4.9,1.74,7.41.69.99-.41,1.81-1.48,2.46-2.41,2.97-4.23,2.31-8.86,1.25-13.47-.61-2.63-1.57-5.19-2.11-7.83-.85-4.16-3.41-7.01-6.52-9.66-3.25-2.76-6.27-5.79-9.36-8.73-.33-.32-.52-.79-.77-1.19.33-.22.66-.44,1-.66.85,1.08,1.58,2.29,2.57,3.2,1.68,1.55,3.51,2.96,5.34,4.35.44.34,1.12.38,1.96.65-.91-1.14-1.53-1.91-2.25-2.81-.28-.06-.94-.02-1.32-.33-.97-.78-1.83-1.7-2.72-2.58-.97-.97-1.92-1.97-2.88-2.95.56-.53,1.13-1.05,1.69-1.58.51-.3,1.03-.6,1.54-.9.09-.07.18-.15.27-.22,1.06-.29,2.12-.58,3.18-.87.12.13.25.25.37.38,1.43,1.49,2.82,3.02,4.29,4.46,4.53,4.42,9.23,8.57,11.43,14.93,2.5,7.23,5.04,14.35,4.29,22.17,0,0,.02.09.02.09-.21.08-.42.16-.63.24-.2.13-.41.27-.61.4-.14.16-.28.33-.41.49,0,0,.01,0,.02,0-.19.13-.37.26-.56.4,0,0-.01.01-.01.01-.21.1-.43.2-.64.3h0c-.1.11-.21.21-.31.32,0,0,0,0,0,0-.32.21-.64.42-.97.62,0,0,0,0,0,0-.54.44-1.07.88-1.61,1.31-.41.23-.82.45-1.22.68-.44.3-.87.59-1.31.89-.19.17-.38.34-.56.52-.35.26-.69.52-1.04.78-.22.15-.43.3-.65.44-.12-.01-.18.05-.18.17-.23.09-.46.19-.68.28-2.7,0-5.4,0-8.1,0-3.59,0-7.19.14-10.62-1.3-.96-.4-2.01-.59-3.03-.87ZM139.09,106.13s-.02-.08-.05-.11c-.01-.02-.05-.02-.08-.03.05.04.1.08.14.12-.14,2.51.06,2.85,2.1,3.79.19-1.72-.81-2.83-2.12-3.77ZM141.95,118.24c-.05-.13-.1-.26-.14-.39-.03.04-.1.1-.09.1.08.09.17.18.26.27.05,2.47-.22,4.97.96,7.31v-4.15c.35.19.66.35,1.34.71-.51-2.27-.84-4.19-1.39-6.03-.51-1.7-1.25-3.34-1.88-5.01-.2.07-.41.14-.61.21.47,1.55,1,3.09,1.39,4.66.19.74.12,1.54.17,2.31ZM145.72,121.66l.63-.15c.05-.79.11-1.57.18-2.63-.38.41-.53.57-.76.82-.17-.64-.32-1.19-.47-1.74-.17.05-.33.09-.5.14.3,1.19.61,2.37.91,3.56ZM144.47,124.61c-.2,0-.39,0-.59.01-.1,1.15-.19,2.31-.29,3.46.18.01.36.02.54.03l.34-3.51Z"/><path class="cls-5" d="M28.51,64.7c.63.71,1.16,1.54,1.89,2.12,2.87,2.26,6.09,3.63,9.84,3.3,1.78-.15,2.81-1.16,3.33-2.9,1.31-4.36,2.55-8.74,4.04-13.04.99-2.87,2.53-5.45,5.2-7.2,3.47-2.27,8.78-1.48,10.7,2.24,1.17,2.27,1.94,4.75,2.79,7.17.16.46-.12,1.09-.22,1.63-.04.19-.29.46-.24.53,1.38,1.81-.14,3.84.52,6.08.31-.65.48-1,.67-1.4,0,.15.03.28.02.4-.08,4.29-.47,8.46-2.21,12.54-2.18,5.15-5.64,9.39-8.76,13.89-.14.04-.27.08-.41.11-.22-.08-.43-.15-.65-.23-.32-.03-.63-.06-.95-.09-.54-.28-1.08-.57-1.62-.85-.23-.13-.45-.27-.68-.4-.08-.06-.16-.12-.24-.18-.26-.21-.51-.42-.77-.64.68-.83,1.33-1.69,2.04-2.5,1.38-1.57,2.8-3.11,4.2-4.66.39-.6,1.23-1.57,1.09-1.74-.76-.93-.04-1.49.28-2.18.4-.88.78-1.77,1.17-2.66.14-.38.3-.76.43-1.15,1.36-4.08,2.95-8.13,1.11-12.5-.15-.35-.02-.82-.02-1.26.32.13.58.24.84.35l.42-.27c-1.06-2.05-2.07-4.12-3.22-6.12-.41-.7-1.1-1.4-1.82-1.72-.63-.28-1.49-.01-2.25.01-1.95.84-2.88,2.53-3.6,4.38-.32.82-.42,1.74-.8,2.52-1,2.09-2.15,4.11-3.15,6.21-.7,1.47-1.34,2.98-1.82,4.53-.62,2.02-1.9,3.21-3.92,3.68-1.4.09-2.81.19-4.43.3.02.14.1.67.17,1.19-.22-.07-.44-.13-.66-.2-.12-.24-.24-.48-.36-.72-1.05-.49-2.11-.98-3.16-1.47-.93-.68-1.84-1.4-2.79-2.04-.7-.47-1.45-.85-2.18-1.28-.02-1.15-.04-2.31-.05-3.46,0,0,0,.01,0,.01.03-.02.09-.04.09-.07,0-.07-.01-.14-.02-.2.06-.04.12-.07.18-.08ZM62.32,68.84c.18.73.36,1.46.51,2.09.34-1.25,1.46-2.57-.02-4.31-.18.86-.32,1.55-.47,2.24l-.55.58c.07.05.14.09.21.14.11-.25.21-.49.32-.74ZM60.9,73.27c-.76,1.85-1.41,3.44-2.24,5.45,2.04-1.75,2.86-3.79,2.24-5.45Z"/><path class="cls-5" d="M119.82,91.13c-.56-.63-1.28-1.18-1.65-1.9-1.68-3.32-4.7-5.52-6.93-8.36-.91-1.15-2.05-2.12-3.05-3.2-1.17-1.25-1.71-5.78-.8-7.47.59-1.11,1.32-2.18,2.18-3.09.5-.53,1.18-1.5,2.22-.59.11.09.5-.08.72-.2,2.42-1.4,3.73-1.58,6.36-.54,2.25.89,4.38,2.14,6.67,2.91,2.82.95,5.02,2.74,7.19,4.62,1.3,1.13,2.49,2.41,3.72,3.62.04.05.07.1.07.16-.11.12-.22.23-.33.35,0,0,0-.03,0-.03-.29.24-.59.47-.88.7,0,0-.03.03-.03.03-.09.09-.18.18-.27.28-.24.2-.48.4-.72.6-.75.54-1.5,1.07-2.25,1.61-.2.15-.41.31-.61.46-.07.07-.13.14-.2.21,0,0-.08.06-.08.06-.49.3-.98.59-1.47.89-1.26-.96-2.56-1.87-3.77-2.89-.78-.66-1.29-1.79-2.16-2.15-1.03-.42-2.3-.25-3.88-.36,2.4,2.93,4.47,5.46,6.54,7.98-.02.1-.04.21-.06.31-.33.3-.66.61-.98.92-.1.1-.2.2-.31.3-.14.19-.27.39-.41.58,0,0-.03-.03-.03-.03-.18.13-.35.25-.53.37-.1.03-.19.07-.28.13-1.34,1.24-2.67,2.48-4.01,3.72ZM129.54,75.54l.09.07-.11-.05c-1.03-1.81-2.72-2.78-4.63-3.19-1.31-.28-2.72-.08-4.04-.1-.06-.13-.03.13.11.19,1.76.91,3.54,1.78,5.31,2.67.95-1.23,1.68.07,2.5.22.26.05.51.12.76.19ZM125.53,71.64c.33-.5.58-.89.73-1.13-2.98-1.04-5.99-2.09-9-3.14-.02.08-.04.15-.06.23,2.82,1.37,5.64,2.73,8.33,4.04ZM118.65,77.63c-.4-1.02-.81-2.03-1.19-3.04-.09-.23.01-.68-.11-.73-.23-.11-.63-.11-.83.03-.17.12-.24.51-.23.77.08,1.57.87,2.59,2.36,2.98ZM113.23,72.61c.16.17.32.34.48.52.7-.71,1.4-1.41,2.32-2.34-1.66.05-2.62.46-2.8,1.82ZM113.73,75.1c-.46-.76-.93-1.51-1.45-2.37-.79,1.6.58,1.85,1.45,2.37ZM113.6,77.46c.23-.24.47-.48.7-.72-.3-.25-.59-.51-.9-.74-.02-.01-.31.23-.29.29.13.4.32.77.49,1.16Z"/><path class="cls-12" d="M62.95,124.92c-.02-.1-.04-.21-.06-.31.06-.06.13-.11.19-.17-.08-.02-.16-.04-.25-.07,0,0,.04,0,.04,0-.06-.13-.12-.27-.18-.4-.13-.31-.26-.61-.39-.92-.19-.65-.39-1.3-.58-1.96-.19-.64-.39-1.28-.58-1.92.38-.31.76-.63,1.14-.94.04.08.07.16.07.26.2.23.4.46.59.7.31.08.62.15.94.23.21.39.42.77.63,1.16.23-.16.47-.31.7-.47-.65-.84-1.31-1.68-1.96-2.51,0-.28-.01-.56-.02-.84-.3-.25-.61-.5-.91-.75-.08-.32-.16-.65-.25-.97-.04-.32-.07-.63-.11-.95-.06-.05-.07-.11-.02-.17-.06-.15-.13-.3-.19-.45-.04-.29-.08-.59-.11-.88-.08-.66-.16-1.33-.25-1.99l.3-2.24s.12-.05.12-.07c0-.08-.04-.16-.06-.24-.02-.32-.04-.64-.06-.95.05-.12.11-.24.16-.36.05-.09.11-.19.16-.28,0,0-.02,0-.02,0,.11-.11.23-.22.34-.33,0,0-.01.03-.01.03.1.01.2,0,.29-.04.11-.21.23-.41.34-.62.52-1.17,1.03-2.35,1.55-3.52,1.12-.97.16-1.63-.35-2.35-.01-.09.02-.15.1-.19.58.14,1.17.28,2.03.49.27-.76.56-1.6.86-2.45-.13-.07-.26-.15-.39-.22-.44.37-.89.75-1.44,1.21-.18-.49-.32-.88-.45-1.26.1-.11.19-.22.29-.33.22-.18.45-.36.67-.54,0-.08.04-.13.12-.15.09-.03.19-.06.28-.1-.09-.05-.18-.09-.26-.14-.08-.09-.1-.18-.04-.29.26-.4.51-.8.77-1.21.06-.14.12-.29.18-.43.62-.23,1.23-.46,1.85-.69.26-.11.52-.21.79-.32.22-.05.56-.02.65-.16.21-.32.3-.71.45-1.07h0c.23.21.46.42.69.63.25-.14.49-.29.74-.43.21.08.42.17.63.25.03-.09.05-.18.08-.27-.22-.05-.45-.09-.67-.14.77-1.41,1.53-2.81,2.3-4.22.24.3.47.61.92,1.18.21-1.38.38-2.45.52-3.53,0-.04-.27-.11-.41-.16.32-.64.64-1.27.96-1.91.53-.28,1.06-.57,1.82-.97-.64-.49-.97-.73-1.29-.98.16-.74.32-1.48.48-2.22.06-.54.13-1.08.19-1.62,0,0-.02.03-.02.03.11-.27.22-.54.33-.81.12-.68.23-1.36.34-2.04,0,0,.15.02.15.02.16-.56.33-1.12.49-1.68,0-.29-.02-.58-.03-.87.35-.73.69-1.46,1.03-2.19l.94-3.24c.04-.32.07-.64.11-.96-.01-.43-.03-.86-.04-1.3.18-1.22.7-2.21,1.83-2.82.23.38.46.75.68,1.13.21.35.43.7.64,1.05,0,0-.03-.02-.03-.02.1.12.2.23.31.35,0,0,0,0,0,0,.11.21.23.42.34.63h0c.12.2.24.41.35.62v-.02c.17.23.36.46.54.69.12.19.25.38.37.58.39.57.79,1.14,1.18,1.71-.42,1.57-.83,3.14-1.25,4.71-.18.57-.35,1.13-.53,1.7-.13.39-.25.78-.38,1.17l-.24.53c-.13.35-.27.71-.4,1.06-.21.41-.42.83-.63,1.24l-.09.07s-.11-.01-.11-.01c-.14.54-.28,1.08-.42,1.61.03.1.01.19-.06.27-.06.22-.12.45-.19.67.04.11.02.2-.06.28-.1.26-.2.51-.3.77-.09.18-.18.36-.26.54-.13.34-.26.67-.39,1.01-.13.4-.26.8-.39,1.2-.07.16-.15.33-.22.49-.04.16-.09.31-.13.47-.07.12-.14.24-.21.36,0,0,.02-.02.02-.02-.24.16-.51.28-.71.48-.65.66-1.27,1.35-1.9,2.03-.45.02-.91.04-1.36.07.03.47.06.84.09,1.2-.21,0-.42,0-.63,0-.1.21-.21.42-.31.63-.22.96-.43,1.91-.65,2.87-.11.1-.21.21-.32.31-.6.96-1.04,2.1-1.85,2.83-1.69,1.53-1.65,3.77-2.64,5.56-1.29.49-1.74,1.45-1.57,2.77,0,0,.01-.02.01-.02l-.54.07c-.45.23-.89.46-1.34.69.21.38.42.77.63,1.15.19-.02.39-.05.58-.07l.35,1.37c-.06.22-.12.44-.18.66-.37.22-.75.44-1.12.66.01.13.03.25.04.38.42.06.83.13,1.25.19.08.03.1.09.06.17-.4.24-.8.48-1.34.8.35.98.84,2.38,1.36,3.77.03.08.4.03.61.04.1.07.13.16.11.27-.3.46-.6.92-.9,1.37-.17-.16-.35-.32-.52-.48-.37-.37-.74-.75-1.12-1.12-.02.45.01.91-.06,1.34-.09.5-.28.99-.42,1.48-.03.22-.05.43-.08.65-.13.15-.25.3-.38.45.13.06.27.12.4.18.35,1.46.7,2.92,1.05,4.37.36,1.2.53,2.51,1.13,3.57.72,1.25.18,1.31-.8,1.28-.45-1.57-.9-3.13-1.35-4.7-.1-.28-.2-.55-.43-1.15-.23,1.13-.84,1.99.45,2.35.02.1.03.21.05.31,0,.43-.02.86-.03,1.29.04.07.05.15.01.23.1.35.2.7.3,1.04.06.06.07.13.04.21-.74,1.48.71,2.38.95,3.59v-.04c.22.3.46.59.69.89l-.02.04c.07.13.15.27.22.4.1.23.2.46.3.69-.19.2-.39.39-.58.59-.48.44-.96.88-1.43,1.32-.1-.26-.2-.51-.3-.77-.14-.29-.28-.58-.42-.87-.25-.85-.5-1.7-.75-2.55-.09-.11-.19-.21-.28-.32,0,0-.02-.02-.02-.02-.11-.2-.22-.4-.33-.6-.34-.91-.69-1.83-1.03-2.74-.09-.25-.18-.51-.26-.76-.04-.09-.09-.19-.11-.29-.01-.04.03-.1.05-.15-.07-.17-.15-.35-.22-.52-.08-.08-.11-.18-.1-.29-.08-.22-.17-.44-.25-.67ZM66.82,131.43c.08-.03.16-.05.24-.08-.06-.19-.12-.38-.19-.57,0,0-.16.05-.25.08.07.19.13.38.2.57ZM79.41,86.78c-.04-.09-.05-.23-.11-.25-.06-.03-.17.06-.26.09.04.09.05.23.11.25.06.03.17-.06.26-.09ZM67.94,108.05c-.05-.08-.08-.19-.14-.21-.07-.02-.16.05-.24.08.06.1.12.19.18.29.06-.05.13-.11.19-.16ZM68.47,103.01s.08,0,.13,0v-.47s-.08,0-.13,0v.47ZM80.04,72.13s.04-.09.04-.13c0-.01-.07-.03-.11-.04-.02.04-.04.09-.04.13,0,.02.07.03.11.04Z"/><path class="cls-8" d="M44.22,100.27c-4.27,7.43-4.11,15.18-1.33,22.96,1.18,3.31,2.76,6.55,4.62,9.53,1.54,2.47,3.75,4.53,5.69,6.75.88,1.01,1.83,1.95,1.41,3.47-3.48.14-6.94.07-10.17-1.49-.03-.13-.11-.17-.23-.14-.57-.26-1.15-.52-1.72-.78-.4-.8-.78-1.61-1.22-2.4-1.67-3.05-3.73-5.93-4.21-9.52-.09-.66-.34-1.39-.74-1.92-1.78-2.32-2.09-5.15-2.67-7.85-.46-2.09-.44-4.29-.64-6.43-.1-.36-.2-.72-.3-1.07.2-.27.41-.53.61-.8.46,2.89.93,5.78,1.39,8.68.17-.03.34-.05.52-.07,0-.67.1-1.36-.02-2.02-.4-2.22-.87-4.43-1.32-6.65.25-2.14.5-4.29.75-6.43,0-.06,0-.12,0-.17.43-.18.86-.37,1.28-.55.11.04.19,0,.23-.11.98-.33,1.95-.66,2.93-.99-.43,2.38-.85,4.77-1.28,7.15.22.06.45.13.67.19.21-.42.47-.81.61-1.25.52-1.74,1-3.49,1.49-5.24.14-.5.24-1.02.36-1.52.45-.26.9-.51,1.36-.77.08-.04.17-.09.25-.13.56-.14,1.12-.28,1.68-.43ZM42.29,129.66c.67.92,1.26,1.72,1.84,2.51.07-.6-.22-1.03-.21-1.45.06-1.79.09-1.79-1.64-1.07ZM44.84,132.62l-.42.31c.23.29.46.58.7.86.11-.08.21-.16.32-.24-.2-.31-.39-.62-.59-.94Z"/><path class="cls-4" d="M149.56,129.35c.76-7.82-1.78-14.94-4.29-22.17-2.2-6.36-6.9-10.5-11.43-14.93-1.47-1.44-2.86-2.97-4.29-4.46.42.05.84.1,1.25.15.11.01.21.03.32.04.22.06.43.13.65.19,2.66.56,5.31,1.12,7.97,1.67.21.06.43.11.64.17.32.06.63.11.95.17.21.06.43.12.64.18l.64.1.63.16c.32.06.64.12.95.18.22.09.43.19.65.28.09.13.18.26.27.39.1.21.2.43.3.64.14.31.29.62.43.94.17.36.35.72.52,1.08.27.59.54,1.19.81,1.78.06.11.13.22.19.33.75,1.59,1.5,3.19,2.25,4.78.08.16.16.32.24.48.97,2.07,1.94,4.14,2.91,6.21.04.1.07.2.11.3.5,1.28,1,2.56,1.5,3.84-.06.43-.13.85-.19,1.28-.04.53-.07,1.06-.11,1.59-.07.42-.14.85-.2,1.27-.05.63-.09,1.27-.14,1.9l-.09.65c-.07.64-.13,1.27-.2,1.91-.04.32-.07.64-.11.96-.08.74-.15,1.48-.23,2.22-.03.21-.05.43-.08.64-.07.74-.15,1.49-.22,2.23l-.21.66c-1.02.72-2.03,1.45-3.05,2.17Z"/><path class="cls-10" d="M55.02,51.42c.76-.02,1.62-.29,2.25-.01.73.32,1.41,1.01,1.82,1.72,1.15,1.99,2.16,4.07,3.22,6.12l-.42.27c-.26-.11-.52-.22-.84-.35,0,.44-.13.91.02,1.26,1.84,4.37.25,8.42-1.11,12.5-.13.39-.29.77-.43,1.15-.35-.13-.7-.27-1.06-.4.11-.78.22-1.56.36-2.51-.38.44-.78.72-.89,1.08-.86,2.8-1.77,5.55-4.5,7.18-.05-.06-.11-.12-.16-.18.02-.19.03-.39.08-.94-2.05,2.45-3.88,4.63-5.7,6.81.09.1.19.2.28.3.52-.44,1.04-.88,1.56-1.31.22.13.44.25.66.38.12.02.23.04.35.07,0,.17,0,.34,0,.51-.42.59-.85,1.19-1.27,1.78-.32-.12-.63-.24-.95-.36-.55-.24-1.1-.48-1.65-.73-.09-.09-.18-.18-.27-.28-.13-.12-.25-.24-.38-.36-.07-.05-.14-.09-.22-.14-2.35-1.46-4.7-2.92-7.05-4.38,0-.19,0-.37,0-.56.98,0,1.96,0,2.93-.01.08-.12.16-.24.24-.36h0c.33-.28.66-.57.99-.86.67-.41,1.31-1.08,2.02-1.18,3.49-.51,4.78-3.37,5.99-5.93,1.22-2.56,1.71-5.46,2.51-8.22.34-.07.94-.05.99-.22.26-.77.37-1.59.54-2.39.82-1.95,1.64-3.9,2.46-5.85-.13-.07-.26-.15-.39-.22-.66.92-1.32,1.84-2.12,2.96-.72-1.99,1.01-2.43,1.68-3.49-.4-.32-.86-.66-1.27-1.05-.05-.05.19-.39.29-.6-.2-.4-.4-.79-.59-1.19ZM55.31,74.89c.3-.35.68-.67.88-1.07,1.2-2.35,2.37-4.72,3.52-7.1.08-.16.08-.47-.03-.6-1.61-2.01.54-4.27-.86-6.29.23-.03.45-.06.68-.1.21.95.41,1.9.66,3.05.88-2.46-.5-3.93-1.92-5.45-.09,1.46.1,2.93.02,4.38-.12,2.35-.19,4.74-.7,7.02-.47,2.12-1.47,4.12-2.24,6.17l-.07.11s.03-.09.05-.13Z"/><path class="cls-4" d="M33.01,112.47c.2,2.15.18,4.34.64,6.43.59,2.69.9,5.52,2.67,7.85.4.52.65,1.25.74,1.92.49,3.59,2.54,6.46,4.21,9.52.43.79.81,1.6,1.22,2.4-.34-.04-.67-.08-1.01-.12-.16-.06-.33-.12-.49-.18-.11-.03-.22-.05-.33-.08-.21-.07-.42-.14-.62-.21-2.32-.68-4.64-1.34-6.95-2.05-.4-.12-.91-.41-1.05-.75-.7-1.73-1.29-3.51-1.92-5.27-.06-.18-.11-.37-.17-.55-.03-.13-.07-.26-.1-.4-.07-.19-.15-.38-.22-.56-.03-.13-.06-.26-.09-.39-.1-.27-.19-.54-.29-.81-1.28-2.09-1.43-4.54-2.05-6.83-.25-.91-.15-1.91-.21-2.87l.12-.27c.81-2.55,1.61-5.11,2.42-7.66.1-.33.21-.66.31-1,.04-.13.07-.27.11-.4.06-.19.13-.37.19-.55.23-.7.46-1.4.7-2.11.06-.14.13-.29.19-.43.06-.25.11-.5.17-.75.07-.18.14-.36.21-.53.35-.29.7-.58,1.05-.86-.01.42.07.87-.04,1.26-1.02,3.65-.37,7.27.19,10.88.02-.89-.17-1.79-.13-2.67.03-.66.35-1.3.53-1.95Z"/><path class="cls-3" d="M41.68,80.02c-.98,0-1.96,0-2.93.01.56-.27,1.11-.55,1.67-.82-.02-.16-.05-.33-.07-.49h-3.68c-.1-.06-.19-.11-.29-.17,0,0,.04,0,.04,0-.71-.58-1.42-1.16-2.14-1.74-.1-.1-.21-.2-.31-.3-.11-.11-.22-.22-.34-.33-.1-.1-.2-.19-.3-.29,0,0-.03-.03-.03-.03-.09-.09-.19-.17-.28-.26-.21-.28-.42-.55-.63-.83.77.33,1.52.91,2.3.95,2.32.13,4.66.05,6.57.05.18-.79.28-1.2.38-1.61h.6c.14-.03.28-.06.42-.1.29.17.57.34.86.51-.34.15-.67.3-1.01.46.03.09.06.17.09.26.43-.11.85-.23,1.28-.34.87-.33,1.75-.65,2.42-.9.81-1.17,1.51-2.2,2.16-3.13.97.56,1.52-.14,1.67-.96.43-2.44.71-4.91,1.05-7.37.01-.1,0-.21.02-.32.1-.63.12-1.28.31-1.88.37-1.2,1.42-2.56,1.13-3.53-.61-2.04.88-2.85,1.67-4.07.16-.24.86-.13,1.31-.17-.1.21-.34.55-.29.6.41.39.87.73,1.27,1.05-.67,1.06-2.4,1.51-1.68,3.49.8-1.12,1.46-2.04,2.12-2.96.13.07.26.15.39.22-.82,1.95-1.64,3.9-2.46,5.85-.31.12-.62.23-.93.35.1-.57.2-1.15.3-1.72-.2,0-.4-.01-.6-.02v2.05c-.1.65-.19,1.3-.29,1.95-.81,2.75-1.3,5.66-2.51,8.22-1.22,2.56-2.51,5.42-5.99,5.93-.72.1-1.35.77-2.02,1.18-.33.29-.66.58-.99.87,0,0,0,0,0,0-.08.12-.16.24-.24.35Z"/><path class="cls-5" d="M68.58,116.68c.3-.46.6-.92.9-1.37,2.99,9.08,5.82,18.23,10.67,26.57.07.09.15.17.22.26,0,0,.08.06.08.06.15.18.3.36.45.53.05.23.1.46.15.69-.18.09-.35.19-.53.28-.09-.02-.18-.05-.27-.05-.03,0-.09.08-.08.11.27.91.54,1.82.81,2.73-.49-.05-.84-.22-.95-.49-.51-1.27-.96-2.57-1.43-3.86h-.08s-.08,0-.08,0c-.28-.62-.56-1.24-.84-1.86-.06-.15-.12-.29-.18-.44-.04-.09-.08-.17-.12-.26-.03-.11-.06-.22-.09-.32-.07-.11-.15-.23-.22-.34-.25-.63-.49-1.26-.74-1.89-.08-.18-.17-.36-.25-.54-.16-.25-.32-.5-.48-.75,0,0-.01-.13-.01-.13l-.13-.04c-.03-.08-.09-.14-.18-.17-.27-.4-.53-.79-.8-1.19,0-.11,0-.21,0-.32.13-.34.47-.77.36-1-.49-1.03-1.09-2-1.67-2.98-.18-.31-.45-.56-.78-.98.32,1.33.59,2.41.85,3.49-.69-.44-1.28-1.39-2.24-.44-.22.12-.44.24-.66.36-.82-1.3-1.65-2.61-2.47-3.91.99.02,1.52-.03.8-1.28-.61-1.06-.77-2.37-1.13-3.57.1-.02.3-.04.29-.05-.18-1.93.06-3.95-1.29-5.61.14-.49.33-.98.42-1.48.08-.44.05-.9.06-1.34.37.37.74.75,1.12,1.12-.78,2.73,1.34,4.88,1.43,7.46.25-.94.46-1.88.3-2.75-.27-1.43-.79-2.82-1.2-4.23Z"/><path class="cls-6" d="M95.53,165.31c-.17-.43-.34-.85-.58-1.45.67-.26,1.3-.51,2.12-.82.15-2.27-.23-4.95.61-7.16.94-2.46-.33-4.84.78-7.36.87-1.97-.06-4.73-.19-7.14.17-.02.33-.04.5-.06.25,1.59.49,3.17.74,4.76.17-.02.34-.03.51-.05.21-.44.42-.88.63-1.32,0,0,.09.02.09.02l.09-.02s0,0,0,0c-.02.1,0,.19.07.27,0,.22,0,.44,0,.66,0,.2.01.41.02.61,0,.22,0,.44,0,.66,0,.21,0,.41,0,.62.01.75.02,1.5.03,2.24,0,.1,0,.21,0,.31,0,1.6,0,3.19,0,4.79,0,.1,0,.21,0,.31,0,1.28,0,2.56,0,3.84,0,.21,0,.41,0,.62,0,.96,0,1.92,0,2.88,0,.1,0,.21,0,.31,0,.75,0,1.49,0,2.24-.03.21-.06.41-.1.62,0,0,.01-.01.01-.01-.31-.02-.63-.03-.94-.05.21-4.11.43-8.21.64-12.32-.67.44-1.18.8-1.24,1.24-.29,1.92-.53,3.86-.64,5.8-.1,1.76,0,3.52,0,5.28-.33,0-.66.02-.99.03-.43-.04-.86-.07-1.3-.11-.22-.03-.43-.07-.65-.1-.04-.09-.12-.14-.22-.13Z"/><path class="cls-8" d="M87.09,68.28c-.39-.57-.79-1.14-1.18-1.71-.02-.73-.04-1.45-.06-2.18-.13-.95-.27-1.91-.4-2.86-.03-.22-.06-.43-.09-.65.81-3.11,1.61-6.21,2.42-9.32.11,0,.21-.02.31-.04,1.61,3.41,1.26,6.93.54,10.44-.43,2.12-1.02,4.21-1.54,6.31Z"/><path class="cls-10" d="M126.42,84.82c-2.07-2.52-4.14-5.05-6.54-7.98,1.58.11,2.85-.07,3.88.36.87.36,1.38,1.49,2.16,2.15,1.21,1.02,2.51,1.93,3.77,2.89-.29.3-.58.61-.88.91-.8.56-1.59,1.11-2.39,1.67Z"/><path class="cls-10" d="M79.16,157.14c.92,1.55,1.74,3.18,2.8,4.64.84,1.17,1.96,2.13,2.96,3.18-.88,0-1.76,0-2.64,0-.17-.02-.33-.04-.5-.07-.22-.02-.45-.03-.67-.05-.1,0-.2-.02-.3-.03-.87-.23-2.28.41-2.22-1.35,0-.21,0-.43,0-.64,0-.95,0-1.91,0-2.86,0-.11,0-.21,0-.32.05-.77.09-1.54.14-2.31.14-.06.28-.13.42-.19Z"/><path class="cls-2" d="M41.64,74.16c-.1.41-.19.82-.38,1.61-1.91,0-4.25.08-6.57-.05-.78-.04-1.53-.62-2.3-.95-.06.03-.12.05-.19.08-.05-.15-.1-.3-.15-.45-.14-.12-.28-.24-.42-.36,0,0,.01,0,.01,0-.1-.12-.19-.24-.29-.35,0,0,.02.03.02.03-.18-.11-.36-.21-.53-.31-.52-.36-1.04-.73-1.56-1.09-.18-.21-.37-.42-.55-.63.48.01.96.03,1.44.04,0,0-.02-.01-.02-.01.11,0,.23,0,.34,0,.74.31,1.46.66,2.22.89.1.03.38-.5.58-.78,1.05.49,2.11.98,3.16,1.47.12.24.24.48.36.72.22.07.44.13.66.2.53.02,1.06.05,1.6.07.13.07.26.13-.03-.01.32.05.18.03.03,0,.32-.2.64-.41.97-.61.53.17,1.06.34,1.59.51Z"/><path class="cls-8" d="M82.71,61.56c-1.12.6-1.65,1.6-1.83,2.82-1.42,1.4-2.21,3.09-2.34,5.09-.15-.31-.3-.62-.39-.81-.29.18-.59.36-.89.54.83-3.61,1.66-7.22,2.5-10.83.06-.24.25-.44.38-.66.29.34.59.67.88,1.01,0,0,0,.12,0,.12l.12.02c.53.9,1.05,1.81,1.58,2.71Z"/><path class="cls-2" d="M79.16,157.14c-.14.06-.28.13-.42.19-.05-.83-.11-1.65-.16-2.48.06-.1.06-.2,0-.3,0-1.6,0-3.2,0-4.79.06-.1.06-.2,0-.3,0-.22-.01-.44-.02-.65.06-.1.07-.2.02-.3-.04-1.56-.11-3.12-.12-4.69,0-.56.1-1.12.16-1.68.47,1.29.92,2.59,1.43,3.86.11.27.46.44.95.49-.27-.91-.54-1.82-.81-2.73,0-.03.05-.11.08-.11.09,0,.18.03.27.05.26.5.49,1.02.8,1.48.05.08.47-.09.72-.15.43.74.85,1.48,1.28,2.22.02.2.04.4.06.6,0,0-.01-.02-.01-.02.11.22.22.43.33.65,0,0,0-.04,0-.04-.03.25-.06.51-.1.8-.71-.66-1.37-1.28-2.03-1.9-.12.1-.25.2-.37.3.18.78.37,1.57.55,2.35-.08.03-.17.07-.25.1-.45-.96-.89-1.91-1.34-2.87-1.17-.13-1.59.31-1.23,1.48.1.31-.11.7-.07,1.04.12,1.03.3,2.05.46,3.12.13.01-.11-.01-.65-.08.17,1.49.33,2.91.49,4.34Z"/><path class="cls-3" d="M98.69,165.63c-.01-1.76-.11-3.53,0-5.28.11-1.94.35-3.88.64-5.8.07-.44.58-.8,1.24-1.24-.21,4.11-.43,8.21-.64,12.32-.32.13-.64.26-.95.4-.09-.13-.18-.26-.28-.39Z"/><path class="cls-6" d="M88.46,165.05c-2.86-1.1-3.71-3.96-5.27-6.17-.43-.61-.3-1.61-.1-2.64.48.69.95,1.39,1.45,2.06.41.55.85,1.08,1.29,1.61.13.16.47.29.46.41-.3,2.84,2.75,3.01,3.78,4.77-.23.04-.45.08-.68.13-.31-.06-.62-.12-.93-.18Z"/><path class="cls-2" d="M116.46,135.14c1.01.28,2.06.47,3.03.87,3.43,1.43,7.03,1.3,10.62,1.3,2.7,0,5.4,0,8.1,0-.57.19-1.13.55-1.71.55-4.08.05-8.18.29-12.23-.07-2.62-.24-5.17-1.39-7.74-2.13-.02-.17-.05-.34-.07-.51Z"/><path class="cls-1" d="M119.82,91.13c1.34-1.24,2.67-2.48,4.01-3.72.13.66.25,1.33.38,2-.56.53-1.13,1.05-1.69,1.58-.23.16-.47.32-.7.48-.33.22-.66.44-1,.66-1.26.67-2.52,1.34-3.78,2-.04-.08-.08-.15-.12-.23.97-.92,1.94-1.85,2.9-2.77Z"/><path class="cls-6" d="M40.94,101.6c-.12.51-.22,1.02-.36,1.52-.48,1.75-.97,3.5-1.49,5.24-.13.44-.4.83-.61,1.25-.22-.06-.45-.13-.67-.19.43-2.38.85-4.77,1.28-7.15.61-.22,1.23-.44,1.84-.67Z"/><path class="cls-6" d="M67.8,128.42c.82,1.3,1.65,2.61,2.47,3.91-.13.21-.27.41-.4.62-.18.18-.36.35-.53.53-.11.03-.22.06-.33.09-.1-.23-.2-.46-.3-.69-.07-.13-.15-.27-.22-.4,0,0,.02-.04.02-.04-.24-.3-.47-.59-.71-.89,0,0,.01.04.01.04.61-1.44-.41-2.46-.95-3.59.03-.08.02-.15-.04-.21-.1-.35-.2-.7-.3-1.04.04-.08.03-.16-.01-.23,0-.43.02-.86.03-1.29-.02-.1-.03-.21-.05-.31,0-.4-.02-.8-.03-1.2.45,1.57.9,3.13,1.35,4.7Z"/><path class="cls-6" d="M57,80.65c-1.4,1.55-2.82,3.09-4.2,4.66-.71.81-1.36,1.66-2.04,2.5,0,0-.05.12-.05.12-.24-.13-.48-.27-.72-.4,0,0,.02.03.02.03-.09-.1-.19-.2-.28-.3,2.18-2.31,4.37-4.62,6.55-6.92.24.11.48.22.73.33Z"/><path class="cls-7" d="M33.01,112.47c-.19.65-.51,1.3-.53,1.95-.04.88.14,1.77.13,2.67-.56-3.62-1.21-7.23-.19-10.88.11-.39.03-.84.04-1.26.09-.09.19-.17.28-.26.19-.02.38-.05.57-.07-.1.5-.25,1-.29,1.5-.12,1.75-.21,3.51-.3,5.27.1.36.2.72.3,1.07Z"/><path class="cls-6" d="M33.3,71.82c-.2.27-.47.81-.58.78-.76-.23-1.49-.58-2.22-.89-.11,0-.23,0-.34,0,0,0,.02.01.02.01.06-1.33-.12-2.45-1.89-2.2-.05-.12-.09-.25-.14-.37.06-.22.12-.44.18-.65.73.42,1.49.81,2.18,1.28.96.65,1.87,1.36,2.79,2.04Z"/><path class="cls-2" d="M102.1,135.36c-.34.02-.68.05-1.16.08.07-.35.16-.82.26-1.29.36.18.71.35,1.12.56.07-.57.13-1.06.2-1.65.22.26.33.39.65.77-.1-.65-.17-1.02-.21-1.4-.05-.59-.14-1.29.75-.51.02.11.04.21.05.32-.02.18-.05.36-.07.53-.07.24-.14.49-.22.73-.24.76-.49,1.52-.73,2.28-.21-.14-.43-.29-.64-.43Z"/><path class="cls-6" d="M36.67,78.72h3.68c.02.16.05.33.07.49-.56.27-1.11.55-1.67.82,0,.19,0,.37,0,.56-.69-.62-1.38-1.24-2.08-1.87Z"/><path class="cls-2" d="M73.17,132.41c-.26-1.08-.52-2.16-.85-3.49.33.41.6.67.78.98.59.98,1.19,1.96,1.67,2.98.11.23-.23.66-.36,1-.08-.03-.16-.05-.24-.06-.13-.17-.26-.33-.39-.5-.2-.3-.41-.61-.61-.91Z"/><path class="cls-2" d="M100.86,144.17c-.07-.33-.26-.69-.2-1,.46-2.16.98-4.31,1.48-6.47.18-.08.35-.16.53-.23-.3,1.53-.59,3.06-.89,4.6-.05.13-.1.26-.16.4-.26.9-.51,1.81-.77,2.71Z"/><path class="cls-3" d="M28.28,69.52c1.77-.25,1.95.87,1.89,2.2-.48-.01-.96-.03-1.44-.04-.19-.3-.39-.6-.58-.9.04-.42.09-.84.13-1.26Z"/><path class="cls-1" d="M89.39,165.23c.23-.04.45-.08.68-.13,1.05.1,2.1.21,3.15.31-.01.16.04.38-.04.46-.65.67-3.37.19-3.79-.65Z"/><path class="cls-1" d="M66.79,44.43c-1.59-.05-3.19-.09-4.78-.14,1.59.05,3.19.09,4.78.14Z"/><path class="cls-1" d="M128.81,83.15c.29-.3.58-.61.88-.91.49-.3.98-.59,1.47-.89-.49,2.28-.51,2.29-2.35,1.8Z"/><path class="cls-1" d="M69.51,93.01c-.26.11-.52.21-.79.32-.44,0-.87.01-1.31.02-.17-.3-.28-.68-.53-.88-.28-.22-.69-.28-1.04-.41.6.05,1.2.1,1.8.15.62.27,1.25.54,1.87.81Z"/><path class="cls-1" d="M132.73,36.66c-1.17-.43-2.33-.87-3.5-1.3,1.33,0,2.61.11,3.5,1.3Z"/><path class="cls-11" d="M85.85,64.39c.02.73.04,1.45.06,2.18-.12-.19-.25-.39-.37-.58-.18-.23-.37-.46-.55-.69,0,0,.01.02.01.02-.12-.21-.24-.42-.35-.63,0,0,0,0,0,0,.01-.1.03-.21.04-.31.38,0,.77,0,1.15,0Z"/><path class="cls-1" d="M145.46,52.28c-.37-1.05-.74-2.09-1.11-3.14.37,1.05.74,2.09,1.11,3.14Z"/><path class="cls-1" d="M98.97,166.02c.32-.13.64-.26.95-.4.31.02.63.03.94.05-.34.51-.67,1.02-1.22,1.84-.3-.67-.49-1.08-.67-1.49Z"/><path class="cls-1" d="M51.5,44.19c-.96-.02-1.92-.03-2.88-.05.97-.67,1.94-.76,2.88.05Z"/><path class="cls-1" d="M132.04,80.62c.75-.54,1.5-1.07,2.25-1.61.03,1.63-1.13,1.59-2.25,1.61Z"/><path class="cls-1" d="M28.15,70.78c.19.3.39.6.58.9.18.21.36.42.55.63-.46-.05-.91-.1-1.37-.15.08-.46.16-.92.24-1.38Z"/><path class="cls-1" d="M146.73,55.18c-.42-.96-.84-1.92-1.26-2.89.42.96.84,1.92,1.26,2.89Z"/><path class="cls-1" d="M139.71,136.4c.35-.26.69-.52,1.04-.78.15.27.3.54.45.81l-1.49-.03Z"/><path class="cls-1" d="M109.47,133.53c.91.29,1.82.59,2.73.88-.91-.29-1.82-.59-2.73-.88Z"/><path class="cls-1" d="M28.32,68.5c-.06.22-.12.44-.18.65.04-1.37.08-2.74.12-4.11.02,1.15.04,2.31.05,3.46Z"/><path class="cls-1" d="M143.84,133.54c.54-.44,1.07-.88,1.61-1.31.25,1.4-.71,1.32-1.61,1.31Z"/><path class="cls-1" d="M144.81,60.66s.08.06.08.06c-.29.8-.58,1.61-.87,2.41.26-.82.53-1.65.79-2.47Z"/><path class="cls-1" d="M69.86,132.95c.13-.21.27-.42.4-.62.22-.12.44-.24.66-.36-.14.49-.27.97-.41,1.46-.22-.16-.44-.32-.66-.48Z"/><path class="cls-1" d="M130.81,87.94c-.42-.05-.83-.1-1.25-.15-.13-.13-.25-.25-.37-.38.89-.92,1.25-.18,1.63.52Z"/><path class="cls-1" d="M145.28,59.58c.27-.73.55-1.47.82-2.2-.27.73-.55,1.47-.82,2.2Z"/><path class="cls-1" d="M77.61,140.27c.28.62.56,1.24.84,1.86-1.39-.12-.63-1.21-.84-1.86Z"/><path class="cls-11" d="M48.31,86.47c.32.12.63.24.95.36.11.16.23.32.34.48,0,0-.04.05-.04.05-.35.06-.69.12-1.13.19-.05-.39-.09-.73-.13-1.08Z"/><path class="cls-11" d="M52.44,89.01c.54.28,1.08.57,1.62.85-.64-.09-1.6.41-1.62-.85Z"/><path class="cls-1" d="M48.3,98.45c-.42.17-.85.34-1.27.52.42-.17.85-.34,1.27-.52Z"/><path class="cls-1" d="M134.96,37.52c-.53-.2-1.05-.4-1.58-.6.53.2,1.05.4,1.58.6Z"/><path class="cls-1" d="M105,132.09c.53.18,1.06.35,1.59.53-.53-.18-1.06-.35-1.59-.53Z"/><path class="cls-5" d="M66.98,135.47c.48-.44.96-.88,1.43-1.31.02.12.03.24.05.35,0,0-.07.04-.07.04-.09.08-.17.17-.26.25-.35.26-.7.53-1.06.79-.06-.02-.09-.06-.09-.12Z"/><path class="cls-1" d="M33.31,104.62c-.19.02-.38.05-.57.07.64-.25,1.28-.51,1.91-.76,0,.06,0,.12,0,.17-.45.17-.89.35-1.34.52Z"/><path class="cls-1" d="M87.18,165.1c.42.05.85.1,1.27.14-.51.69-.94.74-1.27-.14Z"/><path class="cls-1" d="M141.31,135.11c.44-.3.87-.59,1.31-.89-.44.3-.87.59-1.31.89Z"/><path class="cls-1" d="M153.88,116c.07-.42.14-.85.2-1.27-.07.42-.14.85-.2,1.27Z"/><path class="cls-1" d="M96.4,165.55c.43.04.86.07,1.3.11-.43-.04-.86-.07-1.3-.11Z"/><path class="cls-1" d="M154.2,113.14c.06-.43.13-.85.19-1.28-.06.43-.13.85-.19,1.28Z"/><path class="cls-1" d="M74.42,134.19c.27.4.53.79.8,1.19-.27-.4-.53-.79-.8-1.19Z"/><path class="cls-1" d="M80.14,57.43c-.25-.31-.51-.63-.76-.94.79-.12,1.27.02.76.94Z"/><path class="cls-5" d="M67.42,93.35c.44,0,.87-.01,1.31-.02-.62.23-1.23.46-1.85.69.01-.12.03-.25.04-.37.17-.1.33-.2.49-.3Z"/><path class="cls-1" d="M68.47,134.51c-.02-.12-.03-.24-.05-.35.19-.2.39-.39.58-.59.11-.03.22-.06.33-.09-.29.34-.57.69-.86,1.03Z"/><path class="cls-1" d="M88.09,51.53c-.1.02-.21.04-.31.04.19-.4.38-.8.58-1.2-.09.39-.17.77-.26,1.16Z"/><path class="cls-1" d="M153.35,121.42c.04-.32.07-.64.11-.96-.04.32-.07.64-.11.96Z"/><path class="cls-1" d="M125.38,86.05c.33-.31.66-.61.98-.92-.33.31-.66.61-.98.92Z"/><path class="cls-1" d="M55.94,95.9c-.32.08-.64.16-.95.24.32-.08.64-.16.95-.24Z"/><path class="cls-1" d="M143.26,65.98c.17-.5.34-1,.5-1.5-.17.5-.34,1-.5,1.5Z"/><path class="cls-1" d="M146.19,57.08c.18-.43.36-.87.54-1.3-.18.43-.36.87-.54,1.3Z"/><path class="cls-9" d="M102.67,136.47c-.18.08-.35.16-.53.23-.01-.45-.03-.9-.04-1.34.21.14.43.29.64.43-.02.23-.05.45-.07.68Z"/><path class="cls-1" d="M135.31,78.11c.29-.23.59-.47.88-.7-.29.23-.59.47-.88.7Z"/><path class="cls-1" d="M51.28,97.24c-.35.16-.71.31-1.06.47.35-.16.71-.31,1.06-.47Z"/><path class="cls-1" d="M146.37,94.14c-.17-.36-.35-.72-.52-1.08.17.36.35.72.52,1.08Z"/><path class="cls-1" d="M145.45,132.23c.32-.21.64-.42.97-.62-.32.21-.64.42-.97.62Z"/><path class="cls-1" d="M141.97,90.37c-.21-.06-.43-.12-.64-.18.21.06.43.12.64.18Z"/><path class="cls-1" d="M143.24,90.63l-.63-.16.63.16Z"/><path class="cls-1" d="M140.38,90.02c-.21-.06-.43-.11-.64-.17.21.06.43.11.64.17Z"/><path class="cls-1" d="M144.85,91.09c-.22-.09-.43-.19-.65-.28.22.09.43.19.65.28Z"/><path class="cls-1" d="M145.42,92.12c-.1-.21-.2-.43-.3-.64.1.21.2.43.3.64Z"/><path class="cls-1" d="M131.77,88.17c-.22-.06-.43-.13-.65-.19.22.06.43.13.65.19Z"/><path class="cls-1" d="M124.1,87.28c.18-.12.35-.25.53-.37-.02.19-.03.38-.04.57-.16-.06-.32-.13-.49-.19Z"/><path class="cls-1" d="M54.36,96.23c-.21.06-.43.11-.64.17.21-.06.43-.11.64-.17Z"/><path class="cls-1" d="M30.67,75.14c-.04.09-.06.22-.12.25-.06.02-.17-.06-.26-.1.04-.09.06-.23.12-.25.06-.02.17.06.26.1Z"/><path class="cls-1" d="M153.65,118.56l.09-.65-.09.65Z"/><path class="cls-1" d="M153.04,124.29c.03-.21.05-.43.08-.64-.03.21-.05.43-.08.64Z"/><path class="cls-1" d="M117.74,32.17c-.21.02-.41.03-.62.05.21-.02.41-.03.62-.05Z"/><path class="cls-1" d="M152.61,127.18c.07-.22.14-.44.21-.66-.07.22-.14.44-.21.66Z"/><path class="cls-1" d="M114.55,32.49c-.21.01-.41.03-.62.04.21-.01.41-.03.62-.04Z"/><path class="cls-1" d="M148.95,129.68c.21-.08.42-.16.63-.24-.21.08-.42.16-.63.24Z"/><path class="cls-8" d="M84.03,63.74c-.21-.35-.43-.7-.64-1.05.21.35.43.7.64,1.05Z"/><path class="cls-11" d="M85.36,60.89c.03.22.06.43.09.65-.14-.12-.28-.24-.41-.36.11-.1.22-.19.32-.29Z"/><path class="cls-1" d="M89.5,45.91c-.06.21-.12.42-.17.62.06-.21.12-.42.17-.62Z"/><path class="cls-1" d="M114.27,135.05c.32.12.65.24.97.36-.32-.12-.65-.24-.97-.36Z"/><path class="cls-1" d="M29.84,110.58c-.1.33-.21.66-.31,1,.1-.33.21-.66.31-1Z"/><path class="cls-1" d="M120.94,32.21c-.29-.09-.57-.17-.86-.26.29.09.57.17.86.26Z"/><path class="cls-1" d="M95.53,165.31c.1,0,.18.04.22.13-.37.06-.73.13-1.1.19.29-.11.59-.22.88-.32Z"/><path class="cls-1" d="M42.9,46.24c-.31.12-.63.24-.94.37.31-.12.63-.24.94-.37Z"/><path class="cls-1" d="M32.05,74.4c.05.15.1.3.15.45-.16-.16-.32-.32-.48-.48.11,0,.22.02.33.03Z"/><path class="cls-3" d="M30.84,73.4c.18.1.36.21.53.31-.18-.1-.36-.21-.53-.31Z"/><path class="cls-1" d="M141.35,72.67c.08-.27.15-.54.23-.82-.08.27-.15.54-.23.82Z"/><path class="cls-8" d="M84.7,64.39c-.01.1-.03.21-.04.31-.11-.21-.23-.42-.34-.63.13.11.25.21.38.32Z"/><path class="cls-1" d="M34.43,49.78c-.15.21-.3.41-.44.62.15-.21.3-.41.44-.62Z"/><path class="cls-1" d="M144.19,48.84s-.03.08-.03.08c-.03-.14-.07-.27-.1-.41.04.11.09.22.13.33Z"/><path class="cls-1" d="M76.01,136.47c.08.18.17.36.25.54-.08-.18-.17-.36-.25-.54Z"/><path class="cls-1" d="M124.67,86.94c.14-.19.27-.39.41-.58-.14.19-.27.39-.41.58Z"/><path class="cls-11" d="M49.98,87.52c.24.13.48.27.72.4-.24-.13-.48-.27-.72-.4Z"/><path class="cls-1" d="M100.85,165.68c.03-.21.06-.41.1-.62-.03.21-.06.41-.1.62Z"/><path class="cls-11" d="M55.01,89.95c.22.08.43.15.65.23-.22-.08-.43-.15-.65-.23Z"/><path class="cls-1" d="M78.59,162.82c0,.21,0,.43,0,.64,0-.21,0-.43,0-.64Z"/><path class="cls-1" d="M100.94,159.63c0-.21,0-.41,0-.62,0,.21,0,.41,0,.62Z"/><path class="cls-1" d="M147.37,96.25c-.06-.11-.13-.22-.19-.33.11.05.23.09.34.14-.05.06-.1.13-.15.19Z"/><path class="cls-1" d="M100.91,147.52c0-.21,0-.41,0-.62,0,.21,0,.41,0,.62Z"/><path class="cls-1" d="M100.91,146.25c0-.2-.01-.41-.02-.61,0,.2.01.41.02.61Z"/><path class="cls-1" d="M29.26,129.21c.1.27.19.54.29.81-.1-.27-.19-.54-.29-.81Z"/><path class="cls-1" d="M147.93,130.58c.14-.16.28-.33.41-.49-.14.16-.28.33-.41.49Z"/><path class="cls-1" d="M147.38,130.97c.19-.13.38-.26.56-.4-.19.13-.38.26-.56.4Z"/><path class="cls-1" d="M146.73,131.28c.21-.1.43-.2.64-.3-.21.1-.43.2-.64.3Z"/><path class="cls-1" d="M103.48,133.51c.07-.24.14-.49.22-.73-.07.24-.14.49-.22.73Z"/><path class="cls-1" d="M40.04,140c.21.07.42.14.62.21-.21-.07-.42-.14-.62-.21Z"/><path class="cls-1" d="M73.78,133.32c.13.17.26.33.39.5-.13-.17-.26-.33-.39-.5Z"/><path class="cls-1" d="M81.78,164.89c.17.02.33.04.5.07-.17-.02-.33-.04-.5-.07Z"/><path class="cls-1" d="M80.81,164.81c.1,0,.2.02.3.03-.1,0-.2-.02-.3-.03Z"/><path class="cls-1" d="M100.94,162.82c0-.1,0-.21,0-.31.03.07.08.14.09.22,0,.02-.06.06-.1.09Z"/><path class="cls-1" d="M78.6,159.64c0,.11,0,.21,0,.32,0-.11,0-.21,0-.32Z"/><path class="cls-1" d="M100.94,155.17c0-.1,0-.21,0-.31.03.07.08.14.1.22,0,.02-.06.06-.1.09Z"/><path class="cls-1" d="M78.57,154.55c.06.1.06.2,0,.3-.04-.07-.09-.14-.12-.22,0,0,.08-.05.12-.08Z"/><path class="cls-1" d="M100.94,150.08c0-.1,0-.21,0-.31.03.07.08.14.1.22,0,.02-.06.06-.1.09Z"/><path class="cls-1" d="M78.57,149.45c.06.1.06.2,0,.3-.04-.07-.09-.14-.12-.22,0,0,.08-.05.12-.08Z"/><path class="cls-1" d="M78.57,148.5c.04.11.04.21-.02.3-.04-.08-.08-.15-.1-.23,0-.01.08-.05.12-.08Z"/><path class="cls-1" d="M100.9,144.98c-.06-.08-.09-.17-.07-.27.06.06.12.11.18.17-.04.03-.07.07-.11.1Z"/><path class="cls-1" d="M100.82,144.71l-.09.02s-.09-.02-.09-.02c.07-.12.14-.24.21-.36-.01.12-.02.24-.04.36Z"/><path class="cls-1" d="M101.63,141.46c.05-.13.1-.26.16-.4-.05.13-.1.26-.16.4Z"/><path class="cls-1" d="M44.21,141.36c.12-.04.19.01.23.14-.09-.03-.16-.07-.23-.14Z"/><path class="cls-1" d="M40.99,140.28c.16.06.33.12.49.18-.16-.06-.33-.12-.49-.18Z"/><path class="cls-1" d="M77.31,139.57c.04.09.08.17.12.26-.08-.07-.12-.15-.12-.26Z"/><path class="cls-1" d="M63.14,139.87v-.12s.13,0,.13,0c-.02.06-.07.1-.13.13Z"/><path class="cls-1" d="M76.99,138.9c.07.11.15.23.22.34-.07-.11-.15-.23-.22-.34Z"/><path class="cls-1" d="M65.59,137.36c.08-.08.16-.16.24-.24-.08.08-.16.16-.24.24Z"/><path class="cls-1" d="M138.88,137.02c0-.12.06-.18.18-.17-.03.09-.09.14-.18.17Z"/><path class="cls-1" d="M66.5,136.39c.09-.1.19-.2.28-.3-.09.1-.19.2-.28.3Z"/><path class="cls-1" d="M75.4,135.55l.13.04s.01.13.01.13c-.06-.05-.11-.1-.14-.17Z"/><path class="cls-1" d="M113.94,134.89c.12.06.24.12.36.18-.12-.06-.24-.12-.36-.18Z"/><path class="cls-1" d="M68.13,134.8c.09-.08.17-.17.26-.25-.09.08-.17.17-.26.25Z"/><path class="cls-1" d="M108.52,133.22c.18.06.36.13.54.19-.18-.06-.36-.13-.54-.19Z"/><path class="cls-1" d="M103.76,132.25c-.02-.11-.04-.22-.05-.32.12-.02.23-.04.35-.06-.1.13-.2.25-.29.38Z"/><path class="cls-1" d="M29.96,131.37c.06.18.11.37.17.55-.06-.18-.11-.37-.17-.55Z"/><path class="cls-1" d="M146.42,131.6c.1-.11.21-.21.31-.32-.1.11-.21.21-.31.32Z"/><path class="cls-1" d="M29.64,130.41c.07.19.15.38.22.56-.07-.19-.15-.38-.22-.56Z"/><path class="cls-1" d="M27.12,119.24l-.12.27.12-.27Z"/><path class="cls-1" d="M30.14,109.63c-.06.18-.13.37-.19.55.06-.18.13-.37.19-.55Z"/><path class="cls-1" d="M152.89,108.02c-.04-.1-.07-.2-.11-.3.06.06.13.12.19.19,0,.01-.05.08-.08.12Z"/><path class="cls-1" d="M31.03,107.09c-.06.14-.13.29-.19.43.06-.14.13-.29.19-.43Z"/><path class="cls-1" d="M31.41,105.81c-.07.18-.14.36-.21.53.07-.18.14-.36.21-.53Z"/><path class="cls-1" d="M36.17,103.26c-.05.11-.13.15-.23.11.07-.06.15-.1.23-.11Z"/><path class="cls-1" d="M149.87,101.51c-.08-.16-.16-.32-.24-.48.08.16.16.32.24.48Z"/><path class="cls-1" d="M42.55,100.7c-.08.05-.17.09-.25.13.07-.07.15-.11.25-.13Z"/><path class="cls-1" d="M45.12,99.71c-.09.04-.19.08-.28.12.09-.04.19-.08.28-.12Z"/><path class="cls-1" d="M53.03,96.55l-.1.1s-.1-.1-.1-.1c.07,0,.13,0,.2,0Z"/><path class="cls-1" d="M65.84,93.7c-.08.02-.17.03-.25.05.08-.05.16-.06.25-.05Z"/><path class="cls-1" d="M66.46,93.62c-.1.02-.21.03-.31.05.1-.02.21-.03.31-.05Z"/><path class="cls-1" d="M65.54,91.98c.11.03.22.06.33.09-.11-.03-.22-.06-.33-.09Z"/><path class="cls-1" d="M126.01,88.28c-.09.07-.18.15-.27.22.09-.07.18-.15.27-.22Z"/><path class="cls-11" d="M51.52,88.44c.08.06.16.12.24.18-.1-.03-.18-.09-.24-.18Z"/><path class="cls-11" d="M49.72,87.24c.09.1.18.2.28.3-.15-.06-.29-.13-.44-.19,0,0,.04-.05.04-.05,0,0,.12-.07.12-.07Z"/><path class="cls-1" d="M46.39,85.47c.09.09.18.18.27.28-.09-.09-.18-.18-.27-.28Z"/><path class="cls-1" d="M45.79,84.97c.07.05.14.09.22.14-.09-.02-.16-.07-.22-.14Z"/><path class="cls-1" d="M131.24,81.29c.07-.07.13-.14.2-.21-.05.09-.11.16-.2.21Z"/><path class="cls-6" d="M36.42,78.56s-.04,0-.04,0c0,0,.04,0,.04,0Z"/><path class="cls-1" d="M135.01,78.41c.09-.09.18-.18.27-.28-.09.09-.18.18-.27.28Z"/><path class="cls-1" d="M136.19,77.43c.11-.11.22-.23.33-.35-.11.11-.22.23-.33.35Z"/><path class="cls-1" d="M33.97,76.52c.1.1.21.2.31.3-.1-.1-.21-.2-.31-.3Z"/><path class="cls-1" d="M33.34,75.9c.1.1.2.19.3.29-.1-.1-.2-.19-.3-.29Z"/><path class="cls-1" d="M33.02,75.6c.09.09.19.17.28.26-.09-.09-.19-.17-.28-.26Z"/><path class="cls-1" d="M139.96,74.23c.13-.11.26-.22.4-.32-.13.11-.26.22-.4.32Z"/><path class="cls-3" d="M32.05,74.4c-.11,0-.22-.02-.33-.03-.03-.11-.06-.22-.09-.33.14.12.28.24.42.36Z"/><path class="cls-3" d="M31.35,73.69c.1.12.19.24.29.35-.1-.12-.19-.24-.29-.35Z"/><path class="cls-1" d="M142.28,69.17c.07-.18.14-.37.21-.55-.07.18-.14.37-.21.55Z"/><path class="cls-1" d="M28.32,64.78c0,.07.03.14.02.2,0,.02-.06.04-.09.07,0-.1.02-.19.07-.27Z"/><path class="cls-8" d="M84.31,64.07c-.1-.12-.2-.23-.31-.35.1.12.2.23.31.35Z"/><path class="cls-1" d="M28.4,63.14c.09.1.08.18-.02.27-.02-.06-.05-.13-.06-.19,0-.02.05-.05.07-.08Z"/><polygon class="cls-1" points="145.08 60.16 145.04 60.1 145.11 60.1 145.08 60.16"/><path class="cls-11" d="M81.13,58.84l-.12-.02s0-.12,0-.12c.04.04.09.09.13.14Z"/><path class="cls-1" d="M78.56,55.66c-.08-.07-.15-.14-.23-.2.11.03.18.1.23.2Z"/><path class="cls-1" d="M35.09,49.48c-.16.08-.32.16-.48.24.16-.08.32-.16.48-.24Z"/><path class="cls-1" d="M144.13,48.08c-.02-.06-.03-.13-.02-.2.06.06.07.12.02.2Z"/><path class="cls-1" d="M70.24,47.64c-.12-.13-.24-.26-.36-.39.12.13.24.26.36.39Z"/><path class="cls-1" d="M40.25,47.28c-.18.09-.37.17-.55.26.18-.09.37-.17.55-.26Z"/><path class="cls-1" d="M69.92,47.28c-.15-.12-.3-.23-.45-.35.15.12.3.23.45.35Z"/><path class="cls-1" d="M68.07,45.54c-.09-.09-.18-.18-.27-.27.09.09.18.18.27.27Z"/><path class="cls-1" d="M142.93,45.25c-.07-.09-.13-.19-.2-.28.07.09.13.19.2.28Z"/><path class="cls-1" d="M89.77,44.96c-.04.1-.08.21-.12.31.04-.1.08-.21.12-.31Z"/><path class="cls-1" d="M67.43,44.94c-.1-.1-.21-.2-.31-.3.1.1.21.2.31.3Z"/><path class="cls-1" d="M91.8,43.06c-.15.14-.3.28-.45.42.15-.14.3-.28.45-.42Z"/><path class="cls-1" d="M94.28,40.86c-.13.12-.26.23-.39.35.13-.12.26-.23.39-.35Z"/><path class="cls-1" d="M141.02,40.11l-.1-.07s.03-.11.03-.11c.04.05.06.11.07.18Z"/><path class="cls-1" d="M98.4,37.03c-.12.12-.24.24-.37.36.12-.12.24-.24.37-.36Z"/><path class="cls-1" d="M127.62,34.74c-.17-.07-.33-.15-.5-.22.17.07.33.15.5.22Z"/><path class="cls-1" d="M101.56,34.16c-.11.04-.23.08-.34.11.11-.04.23-.08.34-.11Z"/><path class="cls-1" d="M124.11,33.42c-.14-.07-.29-.13-.43-.2.14.07.29.13.43.2Z"/><path class="cls-1" d="M119,32.05l-.13.09-.15-.05c.09-.01.19-.02.28-.03Z"/><path class="cls-3" d="M119.03,47.51c-.56.05-1.12.1-1.67.15-.05-.1-.11-.19-.16-.29,1.24-.59,2.47-1.18,3.71-1.77.06.08.09.18.1.28-.01.22-.02.43-.03.65-.22.13-.45.26-.67.39-.04.02-.09.04-.13.06.04.07.09.13.13.2.52.04,1.06.18,1.56.09,1.09-.19,2.22-.88,3.21-.7,2.37.44,4.66,1.26,6.98,1.93-.56.27-1.12.55-1.75.85,1.09.59,2.08,1.13,3.07,1.66-.05.04-.1.09-.15.13-.96-.29-2.06-.38-2.85-.92-3.44-2.38-6.66-1.12-9.93.35-1.83.82-3.7,1.55-5.56,2.33-.45-.16-.91-.32-1.72-.61,1.15-.62,2.06-1.11,2.97-1.61.33-.11.66-.21,1-.32,0,0-.02.02-.02.02,2.18-.69,4.36-1.37,6.54-2.06-.05-.15-.09-.31-.14-.46l-2.79.32c-.56-.23-1.12-.45-1.69-.68l.13-.07-.06-.06-.07.13Z"/><path class="cls-2" d="M104.96,58.3c-.35-.43-.69-.86-1.13-1.4.72-.46.82-2.12,2.28-1.62.05.57.08.99.11,1.41-.42.54-.84,1.07-1.26,1.61Z"/><path class="cls-3" d="M136.68,52.54c-.75.05-1.49.1-2.24.14-.41-.51-.82-1.02-1.23-1.53.05-.04.1-.09.15-.13.22,0,.43,0,.65-.01.89.51,1.78,1.03,2.67,1.54Z"/><path class="cls-3" d="M135.49,53.6c.13.12.26.25.39.37-.13-.12-.26-.25-.39-.37Z"/><path class="cls-5" d="M75.38,93.7c.22-.96.43-1.91.65-2.87.1-.21.21-.42.31-.63.21,0,.42,0,.63,0,.91.07,1.34-.36,1.28-1.27.63-.68,1.25-1.37,1.9-2.03.2-.2.47-.32.71-.48-1,2.19-1.97,4.4-3.02,6.56-.15.3-.8.33-1.05.62-.44.51-.75,1.13-1.11,1.7l.02-.02c-.11.22-.22.44-.33.66v-.02c-.2.43-.42.86-.64,1.3v-.02c-.1.22-.21.44-.32.66,0,0,.02-.02.02-.02-.43.64-.86,1.29-1.29,1.93l.02-.02c-.23.28-.46.57-.69.85.22-.04.45-.08.67-.11.04.2.08.41.11.61-.91,1.38-1.85,2.75-2.73,4.15-.64,1.02-1.21,2.09-1.81,3.14-.12-.46-.23-.91-.35-1.37.22-.61.45-1.22.67-1.83,0,0-.01.02-.01.02,1.3-.49,1.4-1.65,1.57-2.77.99-1.79.96-4.03,2.64-5.56.81-.73,1.24-1.88,1.85-2.83.11-.1.21-.21.32-.31Z"/><path class="cls-5" d="M69.38,115.04c-.21,0-.58.04-.61-.04-.53-1.38-1.01-2.78-1.36-3.77.54-.32.94-.56,1.34-.8.21,1.53.42,3.07.63,4.6Z"/><path class="cls-6" d="M97.44,52.89c-.02.52-.35,1.27.72,1.05-.11.43-.15.9-.35,1.28-.37.72-.94,1.03-1.73.54.45-.96.91-1.91,1.36-2.87Z"/><path class="cls-2" d="M75.68,95.29c.33-.21.67-.41,1-.62l.44.35c-.97,1.39-1.94,2.78-2.91,4.17-.04-.03-.09-.07-.13-.1.11-.42.23-.85.34-1.27,0,0-.02.02-.02.02.11-.22.22-.44.33-.66,0,0-.01.02-.01.02.22-.43.43-.86.65-1.3,0,0-.01.02-.01.02.11-.22.22-.44.33-.66l-.02.02Z"/><path class="cls-3" d="M82.04,145.03c-.25.05-.66.22-.72.15-.31-.46-.54-.98-.8-1.48.18-.09.35-.19.53-.28.33.54.66,1.08.99,1.61Z"/><path class="cls-5" d="M68.69,110.27c-.42-.06-.83-.13-1.25-.19-.01-.13-.03-.25-.04-.38.37-.22.75-.44,1.12-.66.06.41.11.83.17,1.24Z"/><path class="cls-2" d="M73.24,101.07c-.04-.2-.08-.41-.11-.61,0-.24.01-.49.02-.73,0,0-.02.02-.02.02.32-.22.63-.44.95-.66.04.03.08.07.13.1-.32.63-.64,1.25-.96,1.88Z"/><path class="cls-8" d="M85.31,74.69c.18-.57.35-1.13.53-1.7-.18.57-.35,1.13-.53,1.7Z"/><path class="cls-8" d="M83.67,78.7c.21-.41.42-.83.63-1.24-.21.41-.42.83-.63,1.24Z"/><path class="cls-8" d="M83.05,80.37c.14-.54.28-1.08.42-1.61-.14.54-.28,1.08-.42,1.61Z"/><path class="cls-8" d="M82.8,81.31c.06-.22.12-.45.19-.67-.06.22-.12.45-.19.67Z"/><path class="cls-5" d="M81.79,83.91c.13-.34.26-.67.39-1.01-.13.34-.26.67-.39,1.01Z"/><path class="cls-8" d="M82.44,82.36c.1-.26.2-.51.3-.77-.1.26-.2.51-.3.77Z"/><path class="cls-5" d="M83.69,148.48c-.11-.22-.22-.43-.33-.65.11.22.22.43.33.65Z"/><path class="cls-5" d="M83.37,147.85c-.02-.2-.04-.4-.06-.6.02.2.04.4.06.6Z"/><path class="cls-3" d="M80.91,142.72c-.15-.18-.3-.36-.45-.53.15.18.3.36.45.53Z"/><path class="cls-3" d="M80.38,142.13c-.07-.09-.15-.17-.22-.26.07.09.15.17.22.26Z"/><path class="cls-5" d="M80.84,86.43c.07-.12.14-.24.21-.36-.07.12-.14.24-.21.36Z"/><path class="cls-5" d="M81.18,85.6c.07-.16.15-.33.22-.49-.07.16-.15.33-.22.49Z"/><path class="cls-8" d="M84.69,76.39l.24-.53c-.08.18-.16.35-.24.53Z"/><path class="cls-6" d="M98.04,51.99c-.1.13-.21.26-.31.38.1-.13.21-.26.31-.38Z"/><path class="cls-10" d="M136.68,52.54c-.89-.51-1.78-1.03-2.67-1.54-.66-.83-1.31-1.66-1.97-2.5-2.32-.67-4.62-1.49-6.98-1.93-.99-.18-2.12.5-3.21.7-.5.09-1.04-.06-1.56-.09.07-.09.07-.18,0-.27.22-.13.45-.26.67-.39.81-.16,1.61-.33,2.42-.49-.03-.15-.06-.29-.09-.44l-2.3.28c0-.1-.04-.19-.1-.28,2.34-1.02,4.7-1.86,7.26-.73,1.31.58,2.72.99,3.9,1.76,1.56,1.02,2.92,2.34,4.39,3.51,1.47,1.16,2.96,2.29,4.55,3.52-.34.19-.61.33-.93.51.16.42.32.84.48,1.27l-.3.32c-.74-.71-1.47-1.43-2.23-2.13-.42-.39-.89-.73-1.34-1.09Z"/><path class="cls-6" d="M115.13,47.82c-.65.47-1.29.94-2.18,1.59h2.79c0,.12-.01.24-.02.36-1.54.83-3.07,1.66-4.61,2.5-.05-.06-.1-.12-.15-.19.37-.4.74-.79,1.11-1.19-4.2,1.57-8.96,2.13-11.64,6.55.26-1.94,1.18-3.26,2.84-4.12.9-.47,2.37-.25,2.36-2.06,0-.51,1.3-1.19,2.12-1.49,1.52-.57,3.12-.91,4.68-1.38.86-.26,1.69-.6,2.53-.9.05.11.11.22.16.33ZM111.53,49.68c.04.11.09.21.13.32l.86-.41c-.04-.08-.07-.16-.11-.24-.3.11-.59.22-.89.33Z"/><path class="cls-6" d="M96.23,91.47c-.06.21-.12.41-.18.62-.09-.02-.17,0-.24.05-.1-.03-.2-.07-.29-.11-.04-.5-.08-1-.11-1.49-.14-1.8-.4-3.6-.37-5.4.02-1.42.48-2.83.58-4.25.11-1.47.02-2.94.02-4.42-.13,0-.26,0-.39-.01-.07.34-.14.68-.21,1.02-.15-.03-.3-.05-.45-.08.48-2.36.97-4.72,1.45-7.08.16,0,.31,0,.47,0,.04.39.09.78.13,1.17.11,1.11.12,2.23.33,3.31.45,2.26.61,4.48,0,6.76-.4,1.49-.49,3.08-.62,4.63-.08.91.03,1.84.05,2.75-.06.84-.12,1.68-.17,2.52Z"/><path class="cls-6" d="M97.58,88.92c.04-.32.09-.64.13-.97.17-.11.35-.21.52-.32l.08-.33c.04-.14.09-.27.13-.41.07-.2.19-.39.2-.59.08-1.49.14-2.98.2-4.47.2-.04.4-.08.6-.11.12.38.39.78.34,1.14-.21,1.51-.6,3-.77,4.51-.21,1.87-.26,3.76-.38,5.65-.1,1.56-.19,3.12-.3,4.79.07.02-.13-.03-.25-.06v7.96l-.22.07c-.22-1.31-.47-2.62-.64-3.94-.22-1.67,0-3.25.42-4.94.5-2,.03-4.25-.02-6.39,0-.21,0-.41.01-.62,0-.22,0-.44,0-.65-.02-.1-.04-.21-.07-.31Z"/><path class="cls-10" d="M96.17,109.34c.07.31.14.62.21.93-.18.52-.37,1.04-.55,1.56-.47-2.3-1.06-4.58-1.37-6.9-.34-2.54-.45-5.12-.6-7.69-.04-.66.14-1.33.22-2,.21-.03.41-.06.62-.08.22.96.57,1.9.63,2.87.19,3.57.29,7.15.42,10.72.14.2.29.39.43.59Z"/><path class="cls-6" d="M95.83,111.82c.18-.52.37-1.04.55-1.56.02,1.03-.01,2.07.09,3.09.04.37.38.71.59,1.06l-.02-.02c-.4.89-1.08,1.76-1.15,2.68-.12,1.44.17,2.92.28,4.24-.86-.33-.87-.33-1.08-2.86-.1-1.19-.13-2.39-.23-3.58-.1-1.17-.04-2.26.98-3.06Z"/><path class="cls-6" d="M120.71,48.19l2.79-.32c.05.15.09.31.14.46-2.18.69-4.36,1.37-6.54,2.06,1.2-.73,2.41-1.46,3.61-2.2Z"/><path class="cls-6" d="M93.89,107.77c-.59-1.43-1.17-2.93,0-4.4v4.4Z"/><path class="cls-7" d="M97.65,89.89c0,.21,0,.41-.01.62-.47.32-.94.65-1.41.97.06-.84.12-1.68.17-2.52.39-.01.78-.02,1.17-.04.02.11.04.21.07.31,0,.22,0,.44,0,.65Z"/><path class="cls-7" d="M98.23,87.63c-.17.11-.35.22-.52.32-.23-1.19-.47-2.39-.7-3.58.15-.05.29-.09.44-.14.33.89.66,1.77.99,2.66-.04.14-.09.27-.13.41-.04.03-.12.05-.12.08,0,.08.03.16.04.25Z"/><path class="cls-7" d="M95.4,90.54c.04.5.08,1,.11,1.49-.26.46-.52.92-.78,1.39.14-.98-1.09-2.27.67-2.88Z"/><path class="cls-2" d="M83.69,155.15c1.21.49,1.77,1.37,1.6,2.71-.56-.88-1.12-1.76-1.68-2.64,0,0,.08-.08.08-.08Z"/><path class="cls-7" d="M95.78,126.19c-.06-.89-.11-1.78-.17-2.67.54.88,1.58,1.76.16,2.67h0Z"/><path class="cls-7" d="M95.16,126.49l.62-.3h0v1.65l-.39.06c-.09-.45-.18-.91-.27-1.36l.05-.05Z"/><path class="cls-7" d="M95.1,126.54c-.24-.4-.48-.81-.72-1.21.18-.07.36-.13.54-.2.08.45.15.91.23,1.36,0,0-.05.05-.05.05Z"/><path class="cls-9" d="M100.86,128.38c.03.6.07,1.19.1,1.79-.1,0-.2.01-.3.02v-1.71c.07-.03.13-.06.2-.1Z"/><path class="cls-6" d="M97.05,114.42c.05-.24.09-.47.14-.71.1.05.2.1.3.15-.15.18-.3.36-.45.53,0,0,.02.02.02.02Z"/><path class="cls-6" d="M96.17,109.34c-.14-.2-.29-.39-.43-.59.14.2.29.39.43.59Z"/><path class="cls-6" d="M117.12,50.37c-.33.11-.66.21-1,.32.33-.11.66-.21,1-.32Z"/><path class="cls-7" d="M96.85,124.01c-.03-.11-.06-.2-.06-.29,0-.02.11-.05.17-.07.01.05.04.1.03.14-.03.07-.08.14-.13.22Z"/><polygon class="cls-6" points="96.53 108.03 96.58 108.03 96.55 108.13 96.53 108.03"/><path class="cls-2" d="M83.34,154.87c.12.09.23.19.35.28,0,0-.08.08-.08.08-.09-.12-.17-.25-.26-.37l-.02.02Z"/><path class="cls-2" d="M83.36,154.85s-.08-.04-.12-.07c.03.03.07.05.1.08,0,0,.02-.02.02-.02Z"/><path class="cls-7" d="M95.8,92.14c.07-.05.16-.07.24-.05-.08.02-.16.03-.24.05Z"/><path class="cls-2" d="M76.36,83.19c-.32.64-.64,1.27-.96,1.91-.34.84-.69,1.67-1.03,2.51-.77,1.41-1.53,2.81-2.3,4.22-.02.05-.04.1-.05.15-.25.14-.49.29-.74.43-.23-.21-.46-.42-.69-.63,0,0,0,0,0,0-.1-.21-.2-.42-.31-.64.21-.21.42-.42.63-.63h0c.8-.54,1.37-1.22,1.32-2.26,2.1-1.95,2.59-4.62,3.21-7.23.03-.07.07-.15.1-.22-.07.04-.14.08-.2.12-.66.6-1.33,1.19-2.13,1.91-.04-.44-.05-.69-.07-.93,0,0-.01.02-.01.02,0-.12,0-.25-.01-.37.7-1.09,1.39-2.18,2.09-3.28.39-.62.79-1.23,1.46-1.89-.13.66-.26,1.33-.39,1.99-.2.35-.4.69-.6,1.04.12.05.25.11.37.16l.35-1.09c.28-.14.56-.27.85-.41.04.32.07.64.11.95-.16.74-.32,1.48-.48,2.22-.17.65-.35,1.3-.53,1.95Z"/><path class="cls-3" d="M75.45,81.02c-.62,2.61-1.12,5.27-3.21,7.23.1-.4.2-.81.31-1.21-.12-.66-.25-1.33-.42-2.25-.47.52-.64.7-.81.89-.31-1.71.95-2.65,1.83-3.78.02.25.04.49.07.93.8-.72,1.46-1.31,2.13-1.91l.1.1Z"/><path class="cls-2" d="M77.25,69.18c.3-.18.6-.36.89-.54.1.2.24.51.39.81-.28.71-.56,1.43-.84,2.14.14.05.27.11.41.16l.45-.38c.09.22.19.45.28.67,0,.29.02.58.03.87-.16.56-.33,1.12-.49,1.68,0,0-.15-.02-.15-.02-1.96-.47-2.29-1.06-1.7-2.91.26-.83.48-1.66.73-2.5ZM77.98,72.82c-.08-.09-.16-.19-.24-.28-.21.28-.43.55-.64.83.09.07.18.14.26.21.21-.25.41-.51.62-.76Z"/><path class="cls-5" d="M70.3,91.14c.1.21.2.43.31.64-.14.36-.24.76-.45,1.07-.09.14-.42.11-.65.16-.62-.27-1.25-.54-1.87-.81.68-1.5,1.36-3.01,2.05-4.52.18.11.36.22.54.33-.28,1.35-.55,2.7-.83,4.05.07.02.14.04.21.07.13-.31.27-.63.4-.94.1-.02.19-.04.29-.06h0Z"/><path class="cls-2" d="M70.23,88.02c-.18-.11-.36-.22-.54-.33.54-.67,1.08-1.34,1.63-2.01.17-.18.34-.37.81-.89.17.92.3,1.58.42,2.25-.02-.1-.03-.2-.05-.3l-2.27,1.29Z"/><path class="cls-8" d="M77.37,79.02c-.04-.32-.07-.64-.11-.95.1-.22.2-.45.3-.67-.06.54-.13,1.08-.19,1.62Z"/><path class="cls-8" d="M77.88,76.63c-.11.27-.22.54-.33.81.11-.27.22-.54.33-.81Z"/><path class="cls-3" d="M73.12,81.54c0,.12,0,.25.01.37,0-.12,0-.25-.01-.37Z"/><path class="cls-5" d="M62.28,118.23c-.38.31-.76.63-1.14.94-1.72-4.39-2.17-8.87-.94-13.45.12-.45.54-.82.83-1.23-.09.66-.23,1.32-.25,1.99-.01.37.15.75.24,1.13-.23,1.2-.83,2.46-.63,3.58.42,2.38,1.24,4.7,1.9,7.04Z"/><path class="cls-2" d="M61.01,107.61c-.08-.38-.25-.76-.24-1.13.03-.67.16-1.33.25-1.99,0,0,0,.03,0,.03,0-.15-.01-.31-.02-.46.47-1.16.88-2.35,1.45-3.45.14-.28.79-.31,1.2-.45-.12.7-.24,1.4-.36,2.09-.32,1.3-.64,2.6-.96,3.91,0,0,.01-.03.01-.03-.11.11-.23.22-.34.33,0,0,.02,0,.02,0-.34.39-.67.78-1.01,1.16Z"/><path class="cls-5" d="M64.87,97.2c.14.38.28.77.45,1.26.55-.47,1-.84,1.44-1.21.13.07.26.15.39.22-.3.85-.6,1.7-.86,2.45-.87-.21-1.45-.35-2.03-.49-.17-.25-.34-.5-.58-.86.34-.4.77-.88,1.19-1.37Z"/><path class="cls-5" d="M63.3,102.25c.12-.7.24-1.4.36-2.09.17-.18.34-.35.51-.53.51.72,1.47,1.38.35,2.35-.63-.93-.83.12-1.22.27Z"/><path class="cls-5" d="M61.73,121.09c.19.65.39,1.3.58,1.96-.19-.65-.39-1.3-.58-1.96Z"/><path class="cls-5" d="M66.7,94.45c-.26.4-.51.8-.77,1.21.26-.4.51-.8.77-1.21Z"/><path class="cls-5" d="M62.95,124.92c.08.22.17.44.25.67-.08-.22-.17-.44-.25-.67Z"/><path class="cls-5" d="M66.26,133.83c.14.29.28.58.42.87-.14-.29-.28-.58-.42-.87Z"/><path class="cls-5" d="M63.59,126.83c.09.25.18.51.26.76-.09-.25-.18-.51-.26-.76Z"/><path class="cls-5" d="M65.83,96.33c-.22.18-.45.36-.67.54.22-.18.45-.36.67-.54Z"/><path class="cls-5" d="M64.88,130.33c.11.2.22.4.33.6-.11-.2-.22-.4-.33-.6Z"/><path class="cls-5" d="M65.23,130.96c.09.11.19.21.28.32-.09-.11-.19-.21-.28-.32Z"/><path class="cls-5" d="M63.3,125.88c.07.17.15.35.22.52-.07-.17-.15-.35-.22-.52Z"/><path class="cls-5" d="M62.84,124.37c.08.02.16.04.25.07-.06.06-.13.11-.19.17-.08-.07-.1-.14-.06-.24Z"/><path class="cls-5" d="M62.69,123.97c.06.13.12.27.18.4-.06-.13-.12-.27-.18-.4Z"/><path class="cls-5" d="M61.01,104.06c0,.15.01.31.02.46,0-.15-.01-.31-.02-.46Z"/><path class="cls-5" d="M65.97,95.95c.09.05.18.09.26.14-.09.03-.19.06-.28.1-.03-.08-.02-.16.02-.23Z"/><path class="cls-6" d="M141.95,118.24c-.05-.77.02-1.57-.17-2.31-.4-1.57-.92-3.11-1.39-4.66.2-.07.41-.14.61-.21.64,1.67,1.38,3.3,1.88,5.01.55,1.85.88,3.76,1.39,6.03-.68-.36-.99-.53-1.34-.71v4.15c-1.18-2.34-.91-4.84-.96-7.31l-.02.02ZM142.76,120.78c.11-.02.22-.03.32-.05-.04-.26-.07-.52-.11-.79-.11.02-.21.03-.32.05.03.26.07.53.1.79Z"/><path class="cls-6" d="M121.81,91.46c.23-.16.47-.32.7-.48.96.98,1.91,1.98,2.88,2.95.88.88,1.75,1.8,2.72,2.58.38.3,1.04.26,1.32.33.72.9,1.34,1.68,2.25,2.81-.85-.27-1.52-.31-1.96-.65-1.83-1.39-3.65-2.79-5.34-4.35-.99-.92-1.72-2.13-2.57-3.2Z"/><path class="cls-2" d="M139.09,106.13c1.3.94,2.31,2.05,2.12,3.77-2.04-.94-2.24-1.29-2.1-3.79l-.02.02Z"/><path class="cls-2" d="M145.72,121.66c-.3-1.19-.61-2.37-.91-3.56.17-.05.33-.09.5-.14.15.55.3,1.1.47,1.74.23-.25.38-.41.76-.82-.07,1.05-.13,1.84-.18,2.63l-.63.15Z"/><path class="cls-2" d="M144.47,124.61l-.34,3.51c-.18-.01-.36-.02-.54-.03.1-1.15.19-2.31.29-3.46.2,0,.39,0,.59-.01Z"/><path class="cls-6" d="M141.97,118.22c-.09-.09-.18-.18-.26-.27,0,0,.06-.07.09-.1.05.13.1.26.14.39,0,0,.02-.02.02-.02Z"/><path class="cls-2" d="M139.11,106.11s-.1-.08-.14-.12c.03,0,.06,0,.08.03.02.03.03.08.05.11,0,0,.02-.02.02-.02Z"/><path class="cls-6" d="M41.64,74.16c-.53-.17-1.06-.34-1.59-.51.56-.31,1.13-.62,1.69-.93,2.02-.46,3.29-1.66,3.92-3.68.48-1.55,1.12-3.06,1.82-4.53,1-2.09,2.15-4.11,3.15-6.21.38-.79.48-1.7.8-2.52.72-1.84,1.65-3.54,3.6-4.38.2.4.4.79.59,1.19-.45.05-1.16-.07-1.31.17-.8,1.22-2.28,2.03-1.67,4.07.29.98-.76,2.33-1.13,3.53-.18.6-.21,1.25-.31,1.88-.02.1,0,.21-.02.32-.34,2.46-.62,4.93-1.05,7.37-.15.82-.7,1.52-1.67.96-.64.94-1.35,1.96-2.16,3.13-.67.25-1.54.58-2.42.9-.12-.13-.24-.25-.37-.38-.29-.17-.57-.34-.86-.51-.14.04-.28.07-.42.11h-.6Z"/><path class="cls-2" d="M57,80.65c-.24-.11-.48-.22-.73-.33.09-.45.13-.93.28-1.36.62-1.77,1.28-3.53,1.92-5.29.35.13.7.27,1.06.4-.39.89-.77,1.78-1.17,2.66-.31.69-1.04,1.25-.28,2.18.14.17-.7,1.14-1.09,1.74Z"/><path class="cls-6" d="M60.9,73.27c.62,1.66-.2,3.7-2.24,5.45.83-2.01,1.48-3.6,2.24-5.45Z"/><path class="cls-3" d="M41.73,72.72c-.56.31-1.13.62-1.69.93-.32.2-.64.41-.97.61h0c-.53-.01-1.06-.04-1.6-.06-.08-.52-.15-1.04-.17-1.19,1.62-.11,3.03-.2,4.43-.3Z"/><path class="cls-2" d="M62.34,68.86c.14-.69.29-1.39.47-2.24,1.48,1.74.35,3.06.02,4.31-.15-.62-.33-1.35-.51-2.09,0,0,.02.02.02.02Z"/><path class="cls-3" d="M36.82,74.01c-.12-.24-.24-.48-.36-.72.12.24.24.48.36.72Z"/><path class="cls-2" d="M62.32,68.84c-.11.25-.21.49-.32.74-.07-.05-.14-.09-.21-.14.18-.19.37-.38.55-.58,0,0-.02-.02-.02-.02Z"/><path class="cls-6" d="M129.54,75.54c-.25-.06-.51-.14-.76-.19-.83-.16-1.56-1.45-2.5-.22-1.77-.89-3.55-1.76-5.31-2.67-.13-.07-.17-.33-.11-.19,1.32.02,2.73-.18,4.04.1,1.91.41,3.6,1.38,4.63,3.19l.02-.02Z"/><path class="cls-2" d="M125.53,71.64c-2.7-1.31-5.51-2.67-8.33-4.04.02-.08.04-.15.06-.23,3.01,1.05,6.03,2.1,9,3.14-.16.24-.41.62-.73,1.13Z"/><path class="cls-6" d="M118.65,77.63c-1.49-.39-2.27-1.41-2.36-2.98-.01-.26.05-.65.23-.77.2-.14.6-.14.83-.03.12.06.02.5.11.73.38,1.02.79,2.02,1.19,3.04Z"/><path class="cls-6" d="M113.23,72.61c.19-1.36,1.14-1.77,2.8-1.82-.92.93-1.62,1.63-2.32,2.34-.16-.17-.32-.34-.48-.52Z"/><path class="cls-2" d="M113.73,75.1c-.87-.52-2.24-.77-1.45-2.37.53.86.99,1.62,1.45,2.37Z"/><path class="cls-2" d="M113.6,77.46c-.17-.38-.36-.76-.49-1.16-.02-.06.27-.31.29-.29.31.23.61.48.9.74-.23.24-.47.48-.7.72Z"/><polygon class="cls-6" points="129.52 75.55 129.63 75.6 129.54 75.54 129.52 75.55"/><path class="cls-6" d="M61.01,107.61c.34-.39.67-.78,1.01-1.16-.05.09-.11.19-.16.28-.05.12-.11.24-.16.36.02.32.04.64.06.95-.02.1-.04.21-.06.31-.1.75-.2,1.49-.3,2.24.08.66.17,1.33.25,1.99.04.29.08.59.11.88.06.15.13.3.19.45-.05.06-.04.12.02.17.04.32.07.63.11.95.08.32.16.65.25.97.3.25.61.5.91.75,0,.28.01.56.02.84.21.61.41,1.21.62,1.82-.31-.08-.62-.15-.94-.23-.2-.23-.4-.46-.59-.7,0-.09-.02-.18-.07-.26-.66-2.34-1.49-4.65-1.9-7.04-.2-1.12.4-2.38.63-3.58Z"/><path class="cls-4" d="M78.55,71.38c-.15.13-.3.25-.45.38-.14-.05-.27-.11-.41-.16.28-.71.56-1.43.84-2.14.13-1.99.93-3.68,2.34-5.09.01.43.03.86.04,1.3-.04.32-.07.64-.11.96-.31,1.08-.63,2.16-.94,3.24-.44.51-.88,1.01-1.32,1.52Z"/><path class="cls-6" d="M68.58,116.68c.41,1.41.93,2.79,1.2,4.23.17.87-.04,1.82-.3,2.75-.09-2.58-2.21-4.73-1.43-7.46.17.16.35.32.52.48Z"/><path class="cls-6" d="M63.3,102.25c.39-.15.59-1.2,1.22-.27-.52,1.17-1.03,2.35-1.55,3.52-.11.21-.23.41-.34.62-.09.04-.19.05-.29.04.32-1.3.64-2.6.96-3.91Z"/><path class="cls-2" d="M66.47,117.9c1.35,1.65,1.12,3.68,1.29,5.61,0,0-.19.03-.29.05-.35-1.46-.7-2.92-1.05-4.37,0-.21-.02-.42-.03-.63.03-.22.05-.43.08-.65Z"/><path class="cls-8" d="M74.37,87.61c.34-.84.69-1.67,1.03-2.51.14.05.42.13.41.16-.14,1.08-.31,2.15-.52,3.53-.44-.57-.68-.87-.92-1.18Z"/><path class="cls-2" d="M70.57,102.4c-.17,1.12-.27,2.29-1.57,2.77-.18-1.32.28-2.28,1.57-2.77Z"/><path class="cls-5" d="M63.88,119.41c-.21-.61-.41-1.21-.62-1.82.65.84,1.3,1.68,1.96,2.51-.23.16-.47.31-.7.47-.21-.39-.42-.77-.63-1.16Z"/><path class="cls-5" d="M66.85,127.99c.54,1.14,1.56,2.15.95,3.59-.24-1.22-1.69-2.12-.95-3.59Z"/><path class="cls-8" d="M76.36,83.19c.18-.65.35-1.3.53-1.95.32.24.65.49,1.29.98-.76.4-1.29.69-1.82.97Z"/><path class="cls-8" d="M78.55,71.38c.44-.51.88-1.01,1.32-1.52-.34.73-.69,1.46-1.03,2.19-.09-.22-.19-.45-.28-.67Z"/><path class="cls-5" d="M67.77,107.07c-.21-.38-.42-.77-.63-1.15.45-.23.89-.46,1.34-.69-.24.61-.47,1.22-.71,1.84Z"/><path class="cls-8" d="M78.25,88.93c.06.91-.36,1.34-1.28,1.27-.03-.36-.05-.73-.09-1.2.46-.02.91-.04,1.36-.07Z"/><path class="cls-5" d="M66.44,123.72c0,.4.02.8.03,1.2-1.3-.36-.68-1.22-.45-2.35.22.6.32.87.43,1.15Z"/><path class="cls-2" d="M67.77,107.07c.24-.61.47-1.22.71-1.84.18-.02.36-.05.54-.07-.22.61-.45,1.22-.67,1.83-.19.02-.39.05-.58.07Z"/><path class="cls-5" d="M63.24,116.75c-.3-.25-.61-.5-.91-.75.3.25.61.5.91.75Z"/><path class="cls-8" d="M78.37,74.61c.16-.56.33-1.12.49-1.68-.16.56-.33,1.12-.49,1.68Z"/><path class="cls-5" d="M66.52,125.23c0,.43-.02.86-.03,1.29,0-.43.02-.86.03-1.29Z"/><path class="cls-5" d="M61.65,112.58c-.08-.66-.17-1.33-.25-1.99.08.66.17,1.33.25,1.99Z"/><path class="cls-5" d="M67.79,131.55c.24.3.47.59.71.89-.23-.3-.47-.59-.71-.89Z"/><path class="cls-8" d="M80.81,66.62c.04-.32.07-.64.11-.96-.04.32-.07.64-.11.96Z"/><path class="cls-5" d="M66.82,131.43c-.07-.19-.13-.38-.2-.57.09-.03.25-.08.25-.08.07.18.13.38.19.57-.08.03-.16.05-.24.08Z"/><path class="cls-8" d="M76.34,90.2c-.1.21-.21.42-.31.63.1-.21.21-.42.31-.63Z"/><path class="cls-5" d="M70.6,91.78c.23.21.46.42.69.63-.23-.21-.46-.42-.69-.63Z"/><path class="cls-8" d="M79.41,86.78c-.09.03-.2.12-.26.09-.06-.03-.08-.17-.11-.25.09-.03.2-.12.26-.09.06.03.08.17.11.26Z"/><path class="cls-5" d="M67.94,108.05c-.07.06-.13.11-.19.16-.06-.1-.12-.19-.18-.29.08-.03.17-.1.24-.08.06.02.09.13.14.21Z"/><path class="cls-5" d="M62.35,118.49c.2.23.4.46.59.7-.2-.23-.4-.46-.59-.7Z"/><path class="cls-5" d="M66.5,126.74c.1.35.2.7.3,1.04-.1-.35-.2-.7-.3-1.04Z"/><path class="cls-5" d="M66.39,118.56c0,.21.02.42.03.63-.13-.06-.27-.12-.4-.18.13-.15.25-.3.38-.45Z"/><path class="cls-5" d="M62.08,115.03c-.04-.32-.07-.63-.11-.95.04.32.07.63.11.95Z"/><path class="cls-5" d="M68.47,103.01v-.47s.08,0,.13,0v.47s-.08,0-.13,0Z"/><path class="cls-5" d="M72.03,91.98c0-.05.02-.11.05-.15.22.05.44.09.67.14-.03.09-.05.18-.08.27-.21-.08-.42-.17-.63-.25Z"/><path class="cls-8" d="M84.99,65.3c.18.23.37.46.55.69-.18-.23-.37-.46-.55-.69Z"/><path class="cls-8" d="M80.04,72.13s-.11-.03-.11-.04c0-.04.03-.09.04-.13.04.01.11.03.11.04,0,.04-.03.09-.04.13Z"/><path class="cls-8" d="M84.65,64.69c.12.21.24.42.35.63-.12-.21-.24-.42-.35-.63Z"/><path class="cls-5" d="M62.62,106.12c.11-.21.23-.41.34-.62-.11.21-.23.41-.34.62Z"/><path class="cls-5" d="M68.47,132.48c.07.13.15.27.22.4-.07-.13-.15-.27-.22-.4Z"/><path class="cls-5" d="M61.96,113.91c-.06-.15-.13-.3-.19-.45.06.15.13.3.19.45Z"/><path class="cls-5" d="M61.7,108.35c.02-.1.04-.21.06-.31.02.08.05.16.06.24,0,.02-.08.05-.12.07Z"/><path class="cls-2" d="M61.7,107.09c.06-.12.11-.24.16-.36-.06.12-.11.24-.16.36Z"/><path class="cls-6" d="M62,106.45c.11-.11.23-.22.34-.33-.12.11-.23.22-.34.33Z"/><path class="cls-8" d="M75.38,93.7c-.11.1-.21.21-.32.31.11-.1.21-.21.32-.31Z"/><path class="cls-10" d="M33.31,104.62c.45-.17.89-.35,1.34-.52-.25,2.14-.5,4.29-.75,6.43-.19.02-.38.04-.57.06-.2.27-.41.53-.61.8.1-1.76.18-3.51.3-5.27.04-.51.19-1,.29-1.5Z"/><path class="cls-2" d="M33.33,110.6c.19-.02.38-.04.57-.06.44,2.21.92,4.42,1.32,6.65.12.65.02,1.34.02,2.02-.17.02-.34.05-.52.07-.46-2.89-.93-5.78-1.39-8.68Z"/><path class="cls-7" d="M42.29,129.66c1.73-.73,1.69-.73,1.64,1.07-.01.42.28.85.21,1.45-.58-.8-1.17-1.59-1.84-2.51Z"/><path class="cls-7" d="M44.84,132.62c.2.31.39.62.59.94-.11.08-.21.16-.32.24-.23-.29-.46-.58-.7-.86l.42-.31Z"/><path class="cls-3" d="M58.47,73.66c-.64,1.76-1.3,3.52-1.92,5.29-.15.43-.19.91-.28,1.36-2.18,2.31-4.37,4.62-6.55,6.92,0,0-.12.07-.12.07-.11-.16-.23-.32-.34-.48.42-.59.85-1.19,1.27-1.78.08-.16.17-.33.25-.49-.09,0-.17-.01-.26-.02-.12-.02-.23-.04-.35-.07.02-.32.03-.64.05-.97.16-.15.32-.29.47-.44-.07-.05-.14-.1-.21-.15-.09.2-.18.39-.27.59-.23.2-.47.39-.7.59-.52.44-1.04.88-1.56,1.31-.09-.1-.19-.2-.28-.3,1.83-2.18,3.65-4.36,5.7-6.81-.05.55-.07.75-.08.94-.09.13-.19.25-.28.38-.19.27-.37.53-.56.8.07.05.14.11.21.16.18-.26.35-.52.53-.77.08-.13.17-.26.25-.39,2.73-1.62,3.64-4.37,4.5-7.18.11-.36.51-.63.89-1.08-.13.95-.24,1.73-.36,2.51ZM51.16,83.81c.99.07,1.52-.35,1.27-1.57-.42.53-.83,1.06-1.25,1.59-.02.08-.04.16-.06.23.01-.08.03-.17.04-.25Z"/><path class="cls-3" d="M55.33,74.91c.77-2.05,1.77-4.05,2.24-6.17.5-2.28.57-4.67.7-7.02.08-1.45-.11-2.92-.02-4.38,1.42,1.52,2.8,2.98,1.92,5.45-.25-1.14-.46-2.09-.66-3.05-.23.03-.45.06-.68.1,1.4,2.02-.75,4.27.86,6.29.1.13.11.44.03.6-1.16,2.37-2.32,4.75-3.52,7.1-.2.4-.58.71-.88,1.07,0,0,.02.02.02.02Z"/><path class="cls-2" d="M53.44,63.47c.1-.65.19-1.3.29-1.95h-.01c.11-.1.22-.21.34-.32h-.01c.31-.1.62-.22.93-.34-.16.8-.28,1.62-.54,2.39-.06.17-.65.15-.99.22Z"/><path class="cls-6" d="M41.92,79.67c.33-.29.66-.58.99-.87-.33.29-.66.58-.99.87Z"/><path class="cls-6" d="M49.52,84.1c.23-.2.47-.39.7-.59h0c-.02.33-.03.65-.05.97-.22-.13-.44-.25-.66-.38Z"/><path class="cls-6" d="M50.52,84.54c.09,0,.17.01.26.02-.08.16-.17.33-.25.49,0-.17,0-.34,0-.51Z"/><path class="cls-6" d="M41.68,80.02c.08-.12.16-.24.24-.35-.08.12-.16.24-.24.35Z"/><path class="cls-3" d="M55.31,74.89s-.03.09-.05.13c.02-.04.04-.07.07-.11,0,0-.02-.02-.02-.02Z"/><path class="cls-2" d="M53.73,61.52v-2.05c.2,0,.4.01.6.02-.1.57-.2,1.15-.3,1.72,0,0,.01-.01.01-.01-.11.11-.22.22-.34.33h.01Z"/><path class="cls-2" d="M43.51,74.57c.12.13.24.25.37.38-.43.11-.85.23-1.28.34-.03-.09-.06-.17-.09-.26.34-.15.67-.3,1.01-.46Z"/><path class="cls-2" d="M42.23,74.17c.14-.04.28-.07.42-.11-.14.04-.28.07-.42.11Z"/><path class="cls-3" d="M39.08,74.27c.14.02.28.04-.03,0,.28.15.15.08.03.01,0,0,0,0,0,0Z"/><path class="cls-3" d="M30.15,71.7c.11,0,.23,0,.34,0-.11,0-.23,0-.34,0Z"/><path class="cls-2" d="M132.04,48.5c.66.83,1.31,1.66,1.97,2.5-.22,0-.43,0-.65.01-.99-.54-1.98-1.07-3.07-1.66.62-.3,1.18-.58,1.75-.85Z"/><path class="cls-7" d="M120.99,45.87c.77-.09,1.53-.19,2.3-.28.03.15.06.29.09.44-.81.16-1.61.33-2.42.49.01-.22.02-.43.03-.65Z"/><polygon class="cls-5" points="119.03 47.51 119.1 47.38 119.16 47.44 119.03 47.51"/><path class="cls-7" d="M120.29,46.91c.06.09.06.18,0,.27-.04-.07-.09-.14-.13-.2.04-.02.09-.04.13-.06Z"/><path class="cls-9" d="M74.08,99.09c-.32.22-.63.44-.95.66.43-.64.86-1.29,1.29-1.93-.11.42-.23.85-.34,1.27Z"/><path class="cls-9" d="M73.14,99.72c0,.25-.01.49-.02.73-.22.04-.45.08-.67.11.23-.28.46-.57.69-.85Z"/><path class="cls-9" d="M75.38,95.91c-.22.43-.43.86-.65,1.3.22-.43.43-.86.65-1.3Z"/><path class="cls-9" d="M75.69,95.27c-.11.22-.22.44-.33.66.11-.22.22-.44.33-.66Z"/><path class="cls-9" d="M74.74,97.18c-.11.22-.22.44-.33.66.11-.22.22-.44.33-.66Z"/><path class="cls-5" d="M111.53,49.68c.3-.11.59-.22.89-.33.04.08.07.16.11.24l-.86.41c-.04-.11-.09-.21-.13-.32Z"/><path class="cls-5" d="M97.65,89.89c0-.22,0-.44,0-.65,0,.22,0,.44,0,.65Z"/><path class="cls-5" d="M98.23,87.63c-.02-.08-.05-.16-.04-.25,0-.03.08-.06.12-.08-.03.11-.05.22-.08.33Z"/><path class="cls-6" d="M70.23,88.02l2.27-1.29c.02.1.03.2.05.3-.1.4-.2.81-.31,1.21.05,1.04-.51,1.73-1.32,2.27-.02-.24-.04-.47-.06-.71-.1.05-.2.09-.31.14.12.19.25.37.37.56-.21.21-.42.42-.63.63,0,0,0,0,0,0-.1.02-.19.04-.29.06-.13.31-.27.63-.4.94-.07-.02-.14-.04-.21-.07.28-1.35.55-2.7.83-4.05Z"/><path class="cls-4" d="M76.42,78.47l-.35,1.09c-.12-.05-.25-.11-.37-.16.2-.34.4-.69.6-1.04.04.04.08.07.13.11Z"/><path class="cls-3" d="M75.35,80.92c.07-.04.14-.08.2-.12-.04.07-.07.15-.1.22,0,0-.1-.1-.1-.1Z"/><path class="cls-4" d="M77.98,72.82c-.21.25-.41.51-.62.76-.09-.07-.18-.14-.26-.21.21-.28.43-.55.64-.83.08.09.16.19.24.28Z"/><path class="cls-2" d="M70.01,91.2c.1-.02.19-.04.29-.06-.09.02-.19.04-.29.06Z"/><path class="cls-5" d="M142.76,120.78c-.03-.26-.07-.53-.1-.79.11-.02.21-.03.32-.05.04.26.07.52.11.79-.11.02-.22.03-.32.05Z"/><path class="cls-6" d="M51.18,83.83c.42-.53.83-1.06,1.25-1.59.25,1.22-.28,1.65-1.27,1.57,0,0,.02.02.02.02Z"/><path class="cls-10" d="M53.19,79.8c-.18.26-.35.52-.53.77-.07-.05-.14-.11-.21-.16.19-.27.37-.53.56-.8.06.06.13.13.19.19Z"/><path class="cls-6" d="M50.22,83.5c.09-.2.18-.39.27-.59.07.05.14.1.21.15-.16.15-.32.29-.47.44,0,0,0,0,0,0Z"/><path class="cls-6" d="M51.16,83.81c-.01.08-.03.17-.04.25.02-.08.04-.16.06-.23,0,0-.02-.02-.02-.02Z"/><path class="cls-10" d="M53.01,79.61c.09-.13.19-.25.28-.38.05.06.1.12.16.17-.08.13-.17.26-.25.39-.06-.06-.12-.13-.19-.19Z"/><path class="cls-3" d="M53.72,61.53c.11-.11.22-.22.34-.33-.11.11-.22.22-.34.33Z"/><path class="cls-2" d="M70.93,90.51c-.12-.19-.25-.37-.37-.56.1-.05.2-.09.31-.14.02.24.04.47.06.71h0Z"/></svg>