<?xml version="1.0" encoding="UTF-8"?><svg id="Layer_1" xmlns="http://www.w3.org/2000/svg" viewBox="0 0 198.35 138.95"><defs><style>.cls-1{fill:#bd7b9d;}.cls-1,.cls-2,.cls-3,.cls-4,.cls-5,.cls-6,.cls-7{stroke-width:0px;}.cls-2{fill:#f1f5f6;}.cls-3{fill:#79b250;}.cls-4{fill:#f290a1;}.cls-5{fill:#319f52;}.cls-6{fill:#0e9358;}.cls-7{fill:#fcf5f3;}</style></defs><path class="cls-4" d="M143.54,80.17c.03.66.06,1.32.08,1.98-.06.09-.06.19-.02.3-.25,4.75-.46,9.51-.75,14.26-.11,1.77-.4,3.54-.61,5.3-.09.07-.18.14-.27.21-1.92.98-3.84,1.95-5.77,2.93-.11.08-.22.16-.34.24-.21.03-.41.06-.62.09.06-2.29.19-4.71-1.93-6.19-.73-.51-1.76-.7-2.47-1.39,0,0-.02.01-.02.01.07-.02.12-.07.16-.13-.03-.13-.06-.25-.09-.38-.13-.04-.27-.08-.4-.12-.19-.15-.35-.38-.56-.44-.16-.05-.42.2-.58.15-1.1-.37-2.19-.78-3.35-1.21-.13.73-.2,1.1-.26,1.48-.46-.3-.92-.6-1.68-1.09-1.86,1.03-4.12,2-6.05,3.42-3.25,2.39-3.53,5.44-.82,8.03,1.03.98,2.46,1.62,3.8,2.19,1.2.52,2.54.73,3.81,1.08-4.07,2.14-8.09,4.37-12.24,6.34-.89.42-2.24-.04-3.35-.22-1.96-.32-3.92-.69-5.86-1.15-2.08-.49-4.13-1.11-6.2-1.65-.46-.12-.93-.16-1.4-.24-.22-.07-.43-.13-.65-.2-4.13-.78-8.27-1.56-12.4-2.34-.11-.09-.23-.18-.34-.28-2.14-.44-4.28-.88-6.42-1.34-.34-.07-.79-.13-.99-.37-2.54-3.01-5.04-6.04-7.55-9.08-.26-.32-.45-.69-.67-1.04-.1-.11-.19-.22-.29-.34-.04-.18-.09-.36-.13-.53,1.19-1.18,2.94-2.15,3.44-3.57,1.05-3,2.13-6.26,1.96-9.35-.27-5.06-6.14-7.89-10.77-5.28-.56.31-1.4,1.27-1.33,1.38.8,1.14-.65,1.11-.83,1.71-.11.38-.57.65-.86.99,0,0,.2.2.31.31-.48.7-.96,1.41-1.45,2.11-1.21-1.37-2.43-2.74-3.63-4.13-1.33-1.54-2.64-3.11-3.96-4.67,0-.31,0-.62.01-.92-.07-6.09-.18-12.18-.18-18.27,0-4.66.28-9.32.16-13.98-.07-2.62.42-4.87,2.3-6.74.12,0,.18-.07.16-.19.06-.18.13-.37.19-.55.12-.14.23-.27.35-.41.94-1.28,1.88-2.56,2.83-3.84.05-.08.09-.17.12-.26.23-.16.46-.31.69-.46.92,1.31,1.56,3.16,2.82,3.8,2.39,1.22,5.08,2,7.74,2.47,1.67.3,3.62.04,5.23-.56,4.44-1.67,5.66-8.14,2.26-11.22-.14-.12-.47-.04-.71-.05-.64-.57-1.28-1.13-1.92-1.7-.22,0-.43.02-.65.03-.09-.04-.25-.12-.26-.1-.16.24-.31.49-.49.81-.98-2.12-1.99-2.35-3.73-.99-.12.09-.4-.01-.61-.03-.14-1.19-.88-.88-1.59-.64.28-.48.49-1.01.85-1.42,1.66-1.9,3.38-3.74,5.05-5.63.61-.69,1.18-.93,2.19-.73,2.05.4,4.16.51,6.25.74.21.05.43.1.64.15.64.06,1.27.12,1.91.18.32.07.64.14.96.21.43.03.85.06,1.28.09.21.05.42.1.63.15.64.06,1.28.12,1.91.18.21.05.42.11.64.16,2.42.23,4.85.4,7.26.72,2.64.35,5.26.85,7.88,1.26.46.07.94.05,1.41.08.1,0,.21.02.31.02.12.05.25.09.37.14-1.43,4.45-.3,8.6,1.78,12.5,1.44,2.71,4.09,3.68,7.05,3.19,2.49-.4,4.66-1.54,5.49-4.19.2-.63.08-1.36.1-2.05.16.01.32.03.49.04.23.19.47.38.7.57.09.08.17.17.26.25,8.22,6.31,16.4,12.67,24.7,18.88,1.55,1.16.91,2.52,1.14,3.83-.04.42-.09.84-.13,1.27-.06,1.49-.12,2.98-.18,4.47-.02.42-.04.84-.05,1.26-.1,1.81-.19,3.61-.29,5.42-.01.21-.02.42-.04.64-.1.76-.21,1.51-.31,2.27-1-.54-1.94-1.24-3-1.56-.71-.22-1.58.08-2.38.15-.18-.2-.35-.4-.53-.6-.16.03-.33.06-.49.09-.93.32-1.88.59-2.78.99-.29.13-.45.58-.67.88-.29.07-.58.15-.87.22,1.01,2.49-.98.44-1.31.88-.89,1.31-1.85,2.57-2.69,3.91-1.06,1.68-1.78,3.52-1.4,5.55.6,3.25,4.18,4.69,7.28,4,2.84-.63,5.5-2.06,8.23-3.13ZM66.39,52.88c-1.14.27-2.29.53-3.49.81.2.73.3,1.11.4,1.5-.48-.08-.97-.17-1.56-.27-1.12,1.76-2.49,3.48-3.4,5.42-1.97,4.19-.16,7.48,4.42,8.2,1.01.16,2.16.06,3.12-.28,2.61-.93,5.16-2.06,7.73-3.11.05.69.19,1.38.12,2.05-.14,1.36.32,2.42,1.19,3.45,3.53,4.22,7.07,8.44,10.48,12.76,1.87,2.37,3.7,4.6,7,4.8-.16.53-.31,1.07-.47,1.6-.99.54-2.29.74-2.43,2.22-1.03,1.35,1.03.41.81,1.28-.48.26-1.04.57-1.7.94-.11.8-.44,1.76-.34,2.67.22,2.22.34,4.53,1.05,6.62.8,2.39,3.46,2.95,6.54,2.04,2.47-.73,3.81-2.74,5.51-4.37,3.1-2.98,3.81-6.49,2.48-10.49,1.35.24,2.69.52,4.05.69.58.07,1.28.05,1.78-.2,2.75-1.36,5.49-2.76,8.17-4.25.5-.28,1.04-1,1.07-1.54.41-7.29.75-14.58,1.04-21.88.03-.7-.47-1.41-.73-2.12.52.15,1.03.31,1.94.57,1.47-.91,3.42-1.89,5.12-3.21,3.66-2.86,2.99-6.16.35-8.58-2.52-2.31-5.67-2.42-8.74-2.68-1.43-.12-2.98.08-4.35.52-2.71.87-3.76,3.19-4.36,5.76-2.32-1.73-4.63-3.49-6.97-5.19-2.16-1.57-4.36-3.09-6.54-4.63.27-.45.54-.9.82-1.35,1.63-2.54,1.64-6.43.02-8.55-2.25-2.95-5.03-3.92-8.28-2.89.03.32.07.65.08.76-1.04.29-1.93.53-2.82.78-.38.53-.76,1.05-1.14,1.58-.12.04-.24.08-.36.11-.2.28-.4.57-.6.85-.19.32-.58.89-.53.93,1.79,1.47-.38,1.14-.82,1.63v4.37c-1.75-.24-2.83.71-3.75,2.04-.41.6-.94,1.16-1.53,1.58-2.74,1.97-3.81,4.59-3.24,7.9-1.1-.47-2.21-.95-3.31-1.42-.29.14-.58.27-.88.41-.31-.01-.62-.03-.92-.04-.2-.23-.39-.46-.59-.69-.4.17-.79.35-1.19.52-.07.12-.14.24-.21.36Z"/><path class="cls-6" d="M73.16,26.8c.24.01.57-.07.71.05,3.41,3.08,2.19,9.55-2.26,11.22-1.6.6-3.56.86-5.23.56-2.66-.47-5.35-1.25-7.74-2.47-1.26-.64-1.9-2.5-2.82-3.8.05-.14.1-.28.15-.42.22-.25.44-.5.65-.75.18-.19.37-.37.55-.56.14-.13.27-.26.41-.39.09-.1.18-.19.28-.29.32-.33.63-.66.95-1,0,0,0,0,0,0,.11-.11.22-.22.33-.33.1-.11.2-.21.3-.32.1-.11.21-.21.31-.32,0,0,0,0,0,0,.1-.1.21-.21.31-.31,0,0,0,0,0,0,.1-.1.21-.21.31-.31,0,0,0,0,0,0,.11-.1.21-.2.32-.31,0,0,0,0,0,0,.1-.1.2-.21.3-.31,0,0,.01-.01.01-.01.1-.1.2-.21.29-.31,0,0,.02-.02.02-.02.09-.1.18-.2.28-.3,0,0,.03-.04.03-.04.09-.1.18-.19.27-.29,0,0,.04-.04.04-.04.09-.09.18-.18.28-.27,0,0,.04-.05.04-.05.08-.09.17-.18.26-.27,0,0,.06-.07.06-.07.06-.08.13-.15.2-.23.15-.12.3-.25.45-.37.22-.09.43-.18.65-.27,0,0,0,0,0,0,.71-.25,1.45-.55,1.59.64.43.31.86.62,1.53,1.11.21.38.62,1.12,1.06,1.93.25-.33.39-.53.59-.8.25.36.44.65.63.94.05.69.1,1.38.17,2.29.77-.43,1.23-.69,1.79-1-.49-.62-.9-1.14-1.31-1.67.27-.49.45-1.21.85-1.38.31-.13.89.5,1.4.67.27.09.63-.06.95-.11ZM60.88,36.09c.56.44,1.64-.85,1.63.65.3,0,.68.11.86-.03.15-.12.19-.65.05-.81-.33-.4-.79-.7-1.18-1.03-.46.41-.88.78-1.36,1.22Z"/><path class="cls-6" d="M137.75,66.87c.16-.03.33-.06.49-.08.17.2.35.4.53.6.8-.07,1.67-.37,2.38-.15,1.06.33,2.01,1.02,3,1.56,0,0,.04-.02.04-.02,0,.84-.02,1.68-.03,2.52-.2,2.76-.39,5.52-.59,8.28,0,.2,0,.41,0,.61,0,0-.04-.03-.04-.03-2.74,1.07-5.4,2.5-8.23,3.13-3.09.69-6.67-.76-7.28-4-.38-2.03.34-3.87,1.4-5.55.84-1.34,1.8-2.6,2.69-3.91.34-.44,2.32,1.61,1.31-.88.29-.07.58-.15.87-.22.17.3.34.6.51.92.24-.33.41-.57.58-.81.15.17.33.33.44.52.18.29.31.86.46.86,1.4,0,2,.9,2.53,1.98.05.11.75.09.88-.08.26-.33.34-.8.5-1.22-.42-.5-.88-1.03-1.33-1.56-.17.16-.39.36-.79.73-.13-1.22-.24-2.21-.35-3.21ZM138.31,81.37c.02-.17.04-.33.06-.5-.77-.21-1.54-.43-2.39-.66-.14.65-.26,1.19-.36,1.69.99-.19,1.84-.36,2.7-.53Z"/><path class="cls-6" d="M124.8,110.89c-1.28-.35-2.61-.56-3.81-1.08-1.34-.57-2.77-1.21-3.8-2.19-2.71-2.59-2.43-5.64.82-8.03,1.93-1.42,4.19-2.39,6.05-3.42.75.49,1.21.79,1.67,1.09.06.22.11.44.27,1.04.23-.79.34-1.18.43-1.47.32,1.08.64,2.19,1.02,3.48.41-.47.58-.66.98-1.11.14,1.28.24,2.22.36,3.31.75-.36,1.28-.61,1.81-.86-.17-.4-.27-.81-.5-1.13-.22-.31-.56-.54-.85-.81l-.09-.09c.56-.58,1.11-1.16,1.67-1.73.71.69,1.74.88,2.47,1.39,2.12,1.48,1.99,3.9,1.93,6.19-.12.13-.23.26-.35.39-.22.14-.45.28-.67.42,0,0,.01-.02.01-.02-.2.1-.4.21-.6.31-.84.44-1.69.88-2.53,1.32-.23.12-.46.23-.68.35-1.87.88-3.74,1.77-5.61,2.65ZM120.82,108.25c.95.31,1.83.59,2.71.87.09-.1.18-.21.27-.31-.52-.57-1.05-1.15-1.55-1.7-.59.47-1.05.83-1.43,1.14Z"/><path class="cls-6" d="M58.24,84.66c-.11-.11-.32-.3-.31-.31.29-.34.75-.61.86-.99.18-.61,1.63-.57.83-1.71-.07-.11.77-1.06,1.33-1.38,4.63-2.61,10.5.22,10.77,5.28.17,3.09-.91,6.35-1.96,9.35-.5,1.42-2.25,2.39-3.44,3.57-.48-.46-.95-.92-1.42-1.38-.1-.12-.21-.25-.31-.37,0,0,.02.02.02.02-.21-.26-.42-.51-.63-.77v-.09s-.09-.04-.09-.04c-.1-.12-.2-.25-.31-.37-.24-.3-.48-.61-.72-.91-.08-.09-.15-.19-.23-.28-.57-.65-1.13-1.3-1.7-1.95-.07-.09-.15-.18-.22-.27-.35-.44-.7-.88-1.05-1.32-.07-.08-.15-.16-.22-.24-.29-.35-.59-.7-.88-1.05l-.72-.88-.02-.03c-.09-.11-.18-.21-.28-.32-.05-.2-.11-.41-.16-.61,1.26.29,2.45.33,3.16-.61-.19-.57-.31-.95-.44-1.34,1.09.05,2.18.1,3.44.16-.53-.81-.87-1.33-1.11-1.7-.73.1-1.37.18-2.01.27-.04-.03-.07-.05-.11-.08.04.02.08.05.12.07-.11.43-.22.85-.32,1.28-.42-.47-.85-.94-1.31-1.45-.16.15-.34.31-.52.48ZM67.79,92.42c.41.47.8.92,1.2,1.37-.49-1.01,2.06-2.03.05-2.95-.42.53-.79.99-1.25,1.58ZM66.07,88.62c1.84.21,1.53-1.01,1.82-1.77-.16-.12-.33-.23-.49-.35-.41.66-.82,1.31-1.33,2.12Z"/><path class="cls-6" d="M117.87,29.91c-.03.69.1,1.42-.1,2.05-.84,2.65-3.01,3.79-5.49,4.19-2.96.48-5.6-.48-7.05-3.19-2.08-3.9-3.21-8.05-1.78-12.5.6.07,1.2.14,1.81.21.12.05.24.11.36.16,1.31.78,2.61,1.57,3.92,2.35.07.06.15.12.22.18.21.16.42.32.63.48.11.1.23.21.34.31.65.53,1.31,1.06,1.96,1.6.08.08.17.16.25.24.9.67,1.79,1.34,2.69,2-.35.1-.75.13-1.05.32-.45.28-.84.66-1.25,1,.39.35.78.69,1.24,1.1.51-.74.9-1.3,1.28-1.85.64.33,1.28.67,1.93,1,.03.11.06.23.09.34Z"/><path class="cls-3" d="M58.24,84.66c.18-.16.36-.33.52-.48.46.51.88.98,1.31,1.45h0c.12.38.25.76.44,1.34-.7.94-1.9.9-3.16.61-.19-.27-.38-.55-.57-.82.48-.7.96-1.41,1.45-2.11Z"/><path class="cls-1" d="M115.85,28.57c-.38.55-.77,1.11-1.28,1.85-.46-.41-.85-.76-1.24-1.1.41-.34.8-.72,1.25-1,.3-.18.7-.22,1.05-.32,0,0,.13.01.13.01,0,0,.05.12.05.12.01.16.03.31.04.47,0,0,0-.04,0-.04Z"/><path class="cls-7" d="M145.02,54.74c.04-.42.09-.84.13-1.27-.04.42-.09.84-.13,1.27Z"/><path class="cls-7" d="M144.79,60.48c.02-.42.04-.84.05-1.26-.02.42-.04.84-.05,1.26Z"/><path class="cls-7" d="M144.17,71.31c0-.84.02-1.68.03-2.52,0,.84-.02,1.68-.03,2.52Z"/><path class="cls-7" d="M133.63,106.57c.2-.1.4-.21.6-.31-.04.37-.08.75-.12,1.12-.11,0-.21,0-.32,0-.05-.27-.11-.54-.16-.82Z"/><path class="cls-7" d="M81.74,17.67c-.32-.07-.64-.14-.96-.21.32.07.64.14.96.21Z"/><path class="cls-7" d="M49.21,77.05c0,.31,0,.62-.01.92,0-.31,0-.62.01-.92Z"/><path class="cls-7" d="M58.81,28.95c-.32.33-.63.66-.95,1,.32-.33.63-.66.95-1Z"/><path class="cls-2" d="M57.82,88.56l.72.88-.72-.88Z"/><path class="cls-7" d="M144.47,66.53c.01-.21.02-.42.04-.64-.01.21-.02.42-.04.64Z"/><path class="cls-7" d="M78.88,17.29c-.21-.05-.43-.1-.64-.15.21.05.43.1.64.15Z"/><path class="cls-2" d="M63.97,95.96c.21.26.42.51.63.77-.21-.26-.42-.51-.63-.77Z"/><path class="cls-7" d="M83.65,17.9c-.21-.05-.42-.1-.63-.15.21.05.42.1.63.15Z"/><path class="cls-7" d="M86.2,18.24c-.21-.05-.42-.11-.64-.16.21.05.42.11.64.16Z"/><path class="cls-7" d="M95.11,113.77c.22.07.43.13.65.2-.22-.07-.43-.13-.65-.2Z"/><path class="cls-7" d="M56.63,31.19c-.22.25-.44.5-.65.75.22-.25.44-.5.65-.75Z"/><path class="cls-7" d="M143.57,80.2c0-.2,0-.41,0-.61.13.06.27.12.4.18-.14.14-.28.28-.41.43Z"/><path class="cls-7" d="M134.22,106.28c.22-.14.45-.28.67-.42-.22.14-.45.28-.67.42Z"/><path class="cls-7" d="M130.41,108.23c.23-.12.46-.23.68-.35-.23.12-.46.23-.68.35Z"/><path class="cls-4" d="M63.91,24.17c-.22.09-.44.18-.65.27.22-.09.43-.18.65-.27Z"/><path class="cls-2" d="M117.87,29.91c-.03-.11-.06-.23-.09-.34.19.13.39.25.58.38-.16-.01-.32-.03-.49-.04Z"/><path class="cls-7" d="M82.37,111.16c.11.09.23.18.34.28-.11-.09-.23-.18-.34-.28Z"/><path class="cls-7" d="M135.86,105.38c.11-.08.22-.16.34-.24-.11.08-.22.16-.34.24Z"/><path class="cls-7" d="M141.96,102.21c.09-.07.18-.14.27-.21-.09.07-.18.14-.27.21Z"/><path class="cls-2" d="M66.45,99.01c.1.11.19.22.29.34-.1-.11-.19-.22-.29-.34Z"/><path class="cls-2" d="M64.58,96.72c.1.12.21.25.31.37-.1-.12-.21-.25-.31-.37Z"/><path class="cls-2" d="M63.57,95.46c.1.12.2.25.31.37-.1-.12-.2-.25-.31-.37Z"/><path class="cls-2" d="M62.62,94.27c.08.09.15.19.23.28-.08-.09-.15-.19-.23-.28Z"/><path class="cls-2" d="M60.7,92.05c.07.09.15.18.22.27-.07-.09-.15-.18-.22-.27Z"/><path class="cls-2" d="M59.42,90.48c.08.08.15.16.22.24-.08-.08-.15-.16-.22-.24Z"/><path class="cls-2" d="M57.52,88.2c.09.11.18.21.28.32-.09-.11-.18-.21-.28-.32Z"/><path class="cls-7" d="M143.6,82.45c-.04-.1-.03-.2.02-.3.03.07.06.14.07.21,0,.02-.06.05-.09.08Z"/><path class="cls-7" d="M51.64,37.89c.02.12-.03.18-.16.19.03-.08.09-.14.16-.19Z"/><path class="cls-7" d="M52.18,36.93c-.12.14-.23.27-.35.41.12-.14.23-.27.35-.41Z"/><path class="cls-7" d="M55.13,32.83c-.03.09-.07.18-.12.26-.05-.07-.1-.14-.14-.21.09-.02.18-.03.27-.05Z"/><path class="cls-2" d="M119.31,30.77c-.09-.08-.17-.17-.26-.25.09.08.17.17.26.25Z"/><path class="cls-7" d="M57.59,30.24c-.14.13-.27.26-.41.39.14-.13.27-.26.41-.39Z"/><path class="cls-7" d="M59.14,28.63c-.11.11-.22.22-.33.33.11-.11.22-.22.33-.33Z"/><path class="cls-6" d="M115.85,28.61c-.01-.16-.03-.31-.04-.47.01.16.03.31.04.47Z"/><path class="cls-7" d="M59.75,27.99c-.1.11-.21.21-.31.32.1-.11.21-.21.31-.32Z"/><path class="cls-7" d="M60.07,27.67c-.1.1-.21.21-.31.31.1-.1.21-.21.31-.31Z"/><path class="cls-7" d="M60.39,27.35c-.1.1-.21.21-.31.31.1-.1.21-.21.31-.31Z"/><path class="cls-7" d="M60.71,27.04c-.11.1-.21.2-.32.31.11-.1.21-.2.32-.31Z"/><path class="cls-7" d="M61.03,26.72c-.1.1-.2.21-.3.31.1-.1.2-.21.3-.31Z"/><path class="cls-7" d="M61.33,26.4c-.1.1-.2.21-.29.31.1-.1.2-.21.29-.31Z"/><path class="cls-7" d="M61.63,26.07c-.09.1-.18.2-.28.3.09-.1.18-.2.28-.3Z"/><path class="cls-2" d="M112.94,26c-.08-.08-.17-.16-.25-.24.08.08.17.16.25.24Z"/><path class="cls-7" d="M61.94,25.75c-.09.1-.18.19-.27.29.09-.1.18-.19.27-.29Z"/><path class="cls-7" d="M62.25,25.43c-.09.09-.18.18-.28.27.09-.09.18-.18.28-.27Z"/><path class="cls-7" d="M62.55,25.11c-.09.09-.17.18-.26.27.09-.09.17-.18.26-.27Z"/><path class="cls-7" d="M62.81,24.81c-.07.08-.13.15-.2.23.03-.1.1-.18.2-.23Z"/><path class="cls-2" d="M110.72,24.16c-.11-.1-.23-.21-.34-.31.11.1.23.21.34.31Z"/><path class="cls-2" d="M109.75,23.37c-.07-.06-.15-.12-.22-.18.1.03.18.09.22.18Z"/><path class="cls-7" d="M105.61,20.84c-.12-.05-.24-.11-.36-.16.12.05.24.11.36.16Z"/><path class="cls-7" d="M103.08,20.33c-.1,0-.21-.02-.31-.02.1,0,.21.02.31.02Z"/><path class="cls-6" d="M92.39,88.22c3.29.62,6.58,1.23,9.86,1.89.55.11,1.06.41,1.58.62,1.33,4.01.62,7.51-2.48,10.49-1.7,1.64-3.04,3.64-5.51,4.37-3.08.91-5.73.36-6.54-2.04-.7-2.09-.83-4.39-1.05-6.62-.09-.91.23-1.87.34-2.67.66-.36,1.22-.67,1.7-.94.22-.87-1.84.07-.81-1.28.89,0,1.78,0,2.67.03.79.02,1.58.05,2.36.16.43.06.84.3,1.43.52v-2.23c-.85.13-1.64.25-2.72.42-.15-.28-.46-.86-.77-1.44-.19.11-.36.22-.54.33.16-.53.31-1.07.47-1.6ZM97.53,101.16c-.03.14-.07.28-.1.42.65-.05,1.3-.11,1.95-.16-.07-.46-.14-.92-.2-1.28-.71.44-1.18.73-1.65,1.02Z"/><path class="cls-6" d="M73.49,53.74c.08,1.35.23,2.69.23,4.04,0,2.46-.07,4.92-.11,7.38-2.57,1.05-5.11,2.18-7.73,3.11-.96.34-2.11.44-3.12.28-4.57-.72-6.38-4.01-4.42-8.2.91-1.94,2.28-3.66,3.4-5.42.6.1,1.08.19,1.56.27.64.6,1.22.36,1.51-.55.07-.22.41-.36.62-.54-.06,1.53,1.06,1.24,1.97,1.26.41.68.81,1.37,1.21,2.04.43-.58.77-1.04,1-1.35-.42-.47-.82-.92-1.24-1.39-.19.14-.59.43-.99.72v-2.41c-.15-.03-.41-.07-.66-.12-.04-.12-.08-.23-.12-.35.4-.17.79-.35,1.19-.52.2.23.39.46.59.69.31.01.62.03.92.05.19.14.38.27.57.41.1-.27.2-.55.31-.82,1.1.47,2.21.95,3.31,1.42Z"/><path class="cls-6" d="M119.22,61.43c-1.15-.84-2.3-1.69-3.46-2.53v-2.54c-1.05.48-1.69.78-2.34,1.08-.69-.56-1.39-1.11-2.07-1.69-.74-.64-1.47-1.3-2.2-1.94.6-2.57,1.65-4.89,4.36-5.76,1.37-.44,2.92-.64,4.35-.52,3.08.26,6.22.37,8.74,2.68,2.65,2.42,3.32,5.72-.35,8.58-1.69,1.32-3.65,2.31-5.12,3.21-.9-.27-1.42-.42-1.94-.57ZM120.94,49.99c.35.38.7.75,1.1,1.19.45-.55.88-1.08,1.14-1.39-.58-.25-1.06-.57-1.56-.63-.21-.02-.48.51-.73.79-.02.06-.03.11-.05.17.03-.04.07-.08.1-.12Z"/><path class="cls-6" d="M82.26,42.28c-.07-.06-.16-.08-.25-.07,0-1.46,0-2.91,0-4.36.43-.48,2.6-.15.82-1.63-.05-.04.35-.61.53-.93.18.13.35.27.53.4.15.17.31.34.46.52.06-.06.13-.13.19-.19-.18-.15-.35-.29-.53-.44-.02-.38-.03-.76-.05-1.14.12-.04.24-.08.36-.11.31,0,.62,0,1.09,0-.27.36-.44.58-.65.85,1.44.29,2.84.57,4.39.88.15-.55.34-1.2.54-1.94-1.09.09-1.89.16-2.96.25-.28-.36-.78-.99-1.27-1.62.89-.25,1.78-.49,2.82-.78-.01-.11-.05-.44-.08-.76,3.25-1.03,6.03-.06,8.28,2.89,1.62,2.12,1.61,6.01-.02,8.55-.28.44-.55.9-.83,1.35-.16,0-.32,0-.48,0-.14-.02-.29-.04-.43-.05-2.82-.33-5.65-.64-8.47-.99-.5-.06-1-.22-1.5-.33-.84-.12-1.68-.23-2.52-.35Z"/><path class="cls-3" d="M129.25,99.71c.29.27.63.49.85.81.22.32.32.72.5,1.13-.52.25-1.05.5-1.81.86-.12-1.09-.22-2.03-.36-3.31-.4.46-.57.65-.98,1.11-.38-1.29-.71-2.41-1.02-3.48-.08.29-.2.68-.43,1.47-.16-.6-.22-.82-.27-1.04.07-.38.13-.75.26-1.48,1.16.43,2.25.84,3.35,1.21.16.05.42-.2.58-.15.21.06.38.29.56.44.11.21.22.42.33.63,0,0,.02-.01.02-.01-.56.58-1.11,1.16-1.67,1.73-.04.06-.09.12-.13.19.07-.03.14-.07.22-.1Z"/><path class="cls-5" d="M73.16,26.8c-.32.04-.68.2-.95.11-.5-.17-1.09-.8-1.4-.67-.41.17-.58.89-.85,1.38-.21.12-.43.25-.64.37-.19-.29-.39-.57-.63-.94-.2.27-.34.46-.59.8-.45-.81-.86-1.55-1.06-1.93-.67-.48-1.1-.8-1.53-1.11.21.01.49.12.61.03,1.74-1.35,2.74-1.12,3.73.99.19-.32.33-.57.49-.81.01-.02.17.06.26.1.13.14.26.28.4.42.09-.15.17-.29.26-.44.64.57,1.28,1.13,1.92,1.7Z"/><path class="cls-3" d="M137.75,66.87c.11,1,.22,2,.35,3.21.4-.37.61-.57.79-.73.45.53.9,1.06,1.33,1.56-.16.42-.24.9-.5,1.22-.14.17-.83.19-.88.08-.53-1.08-1.13-1.99-2.53-1.98-.15,0-.29-.58-.46-.86-.12-.19-.29-.35-.44-.52-.17.24-.34.48-.58.81-.18-.32-.35-.62-.51-.92.22-.3.37-.75.67-.88.9-.39,1.85-.67,2.78-.99Z"/><path class="cls-3" d="M91.93,89.83c.18-.11.35-.22.54-.33.31.58.62,1.16.77,1.44,1.08-.17,1.87-.29,2.72-.42v2.23c-.59-.22-1-.46-1.43-.52-.78-.11-1.57-.13-2.36-.16-.89-.03-1.78-.02-2.67-.03.14-1.48,1.44-1.68,2.43-2.22Z"/><path class="cls-3" d="M85.46,32.75c.49.63.99,1.26,1.27,1.62,1.07-.09,1.88-.16,2.96-.25-.21.74-.39,1.39-.54,1.94-1.55-.31-2.95-.59-4.39-.88.21-.27.38-.49.65-.85-.47,0-.78,0-1.09,0,.38-.53.76-1.05,1.14-1.58Z"/><path class="cls-5" d="M65.44,54.11c-.21.18-.55.31-.62.54-.3.91-.87,1.14-1.51.55-.1-.38-.21-.77-.4-1.5,1.2-.28,2.34-.55,3.49-.81,0,0,0-.04,0-.04-.02.04-.06.08-.05.11.02.07.06.14.09.21l-.99.95Z"/><path class="cls-1" d="M70.18,52.32c-.1.27-.2.55-.31.82-.19-.14-.38-.27-.57-.41.29-.14.58-.28.88-.41Z"/><path class="cls-3" d="M83.89,35.69c-.18-.13-.35-.27-.53-.4.2-.28.4-.57.6-.85.02.38.03.76.05,1.14-.04.04-.08.08-.12.11Z"/><path class="cls-1" d="M68.38,52.69c-.2-.23-.39-.46-.59-.69.2.23.39.46.59.69Z"/><path class="cls-3" d="M138.77,67.39c-.18-.2-.35-.4-.53-.6.18.2.35.4.53.6Z"/><path class="cls-6" d="M71.23,25.1c-.09.15-.17.29-.26.44-.13-.14-.26-.28-.4-.42.22,0,.43-.02.65-.03Z"/><path class="cls-6" d="M130.82,97.91c-.11-.21-.22-.42-.33-.63.13.04.27.08.4.12.03.13.06.25.09.38-.04.06-.09.1-.16.13Z"/><path class="cls-3" d="M130.98,97.78c-.03-.13-.06-.26-.09-.38.03.13.06.25.09.38Z"/><path class="cls-1" d="M66.6,52.52c.04.12.08.23.12.35,0,0-.09.07-.09.07-.08-.04-.16-.07-.24-.09,0,0,0,.04,0,.04.07-.12.14-.24.21-.36Z"/><path class="cls-3" d="M69.31,27.99c.21-.12.43-.25.64-.37.41.52.83,1.05,1.31,1.66-.56.31-1.02.57-1.79,1-.07-.92-.12-1.6-.17-2.29Z"/><path class="cls-3" d="M60.88,36.09c.49-.44.91-.81,1.36-1.22.39.33.85.62,1.18,1.03.14.16.1.69-.05.81-.18.15-.57.03-.86.03,0-1.51-1.07-.21-1.63-.65Z"/><path class="cls-3" d="M138.31,81.37c-.86.17-1.71.34-2.7.53.11-.5.22-1.04.36-1.69.85.24,1.62.45,2.39.66-.02.17-.04.33-.06.5Z"/><path class="cls-3" d="M120.82,108.25c.38-.31.84-.67,1.43-1.14.51.56,1.03,1.13,1.55,1.7-.09.1-.18.21-.27.31-.88-.28-1.76-.57-2.71-.87Z"/><path class="cls-3" d="M60.39,84.37c.64-.09,1.28-.17,2.01-.27.24.37.59.9,1.11,1.7-1.26-.06-2.35-.11-3.44-.16,0,0,0,0,0,0,.11-.43.22-.85.32-1.28,0,0,0,0,0,0Z"/><path class="cls-3" d="M67.79,92.42c.47-.59.83-1.05,1.25-1.58,2.01.92-.54,1.95-.05,2.95-.39-.45-.79-.9-1.2-1.37Z"/><path class="cls-3" d="M66.07,88.62c.51-.81.92-1.47,1.33-2.12.16.12.33.23.49.35-.28.76.02,1.99-1.82,1.77Z"/><path class="cls-3" d="M60.4,84.36s-.08-.05-.12-.07c.04.03.07.05.11.08,0,0,0,0,0,0Z"/><path class="cls-1" d="M113.43,57.44c.64-.3,1.29-.59,2.34-1.08v2.54c-.78-.49-1.56-.98-2.34-1.46Z"/><path class="cls-4" d="M82.26,42.28c.84.12,1.68.23,2.52.35-.84-.12-1.68-.23-2.52-.35Z"/><path class="cls-4" d="M94.74,43.94c.14.02.28.04.43.05-.14-.02-.29-.04-.43-.05Z"/><path class="cls-3" d="M97.53,101.16c.47-.29.93-.58,1.65-1.02.06.36.13.82.2,1.28-.65.05-1.3.11-1.95.16.03-.14.07-.28.1-.42Z"/><path class="cls-1" d="M65.44,54.11c.33-.32.66-.63.99-.95.07-.08.14-.16.2-.23,0,0,.09-.07.09-.07.26.05.51.09.66.12v2.41l.02-.02c-.91-.02-2.02.27-1.96-1.26Z"/><path class="cls-1" d="M67.39,55.4c.4-.29.8-.58.99-.72.42.47.82.92,1.24,1.39-.23.31-.57.77-1,1.35-.4-.67-.81-1.36-1.21-2.04,0,0-.02.02-.02.02Z"/><path class="cls-5" d="M120.89,49.94c.24-.28.52-.81.73-.79.5.06.98.37,1.56.63-.26.32-.69.84-1.14,1.39-.4-.43-.75-.81-1.1-1.19,0,0-.05-.05-.05-.05Z"/><path class="cls-5" d="M120.94,49.99s-.07.08-.1.12c.02-.06.03-.11.05-.17,0,0,.05.05.05.05Z"/><path class="cls-3" d="M84.01,35.58c.18.15.35.29.53.44-.06.06-.13.13-.19.19-.15-.17-.31-.35-.46-.52.04-.03.08-.07.12-.11Z"/><path class="cls-6" d="M129.25,99.71c-.07.03-.14.07-.22.1.04-.06.09-.12.13-.19,0,0,.09.09.09.09Z"/><path class="cls-4" d="M66.64,52.93c-.07.08-.14.16-.2.23-.03-.07-.07-.14-.09-.21,0-.03.04-.08.05-.11.08.02.16.05.24.09Z"/></svg>