<?xml version="1.0" encoding="UTF-8"?><svg id="Layer_1" xmlns="http://www.w3.org/2000/svg" viewBox="0 0 187.04 202.79"><defs><style>.cls-1{fill:#070707;}.cls-1,.cls-2,.cls-3,.cls-4,.cls-5,.cls-6,.cls-7{stroke-width:0px;}.cls-2{fill:#262224;}.cls-3{fill:#171818;}.cls-4{fill:#080808;}.cls-5{fill:#2a2728;}.cls-6{fill:#111212;}.cls-7{fill:#0e0e0e;}</style></defs><path class="cls-1" d="M68.53,148.16c.18.06.37.11.55.17-.1-.23-.14-.62-.3-.68-1.02-.37-2.07-.66-3.11-.98-.7-.62-1.41-1.24-2.11-1.86-.14.09-.27.18-.41.27v1.93c-.28.31-.57.63-.85.94-.2-.33-.51-.64-.58-1-.14-.83-.16-1.67-.23-2.57-1.18,0-1.85-.46-2.62-1.48-1.02-1.35-2.71-2.19-4.15-3.21-1.4-1-2.84-1.94-4.27-2.9v-1.94c-.68.13-1.29.25-1.9.37-.08-.2-.27-.44-.21-.58.59-1.31.2-1.86-1.25-1.96-.92-.06-2.03-2.17-1.36-2.96,1.02-1.2-.23-1.56-.34-2.52-.47.37-.81.63-1.41,1.1-.28-1.09-.98-2.44-.64-2.78.92-.95,0-1.33-.28-1.82-1.11-1.92-2.28-3.8-3.49-5.67-1.27-1.97-.36-4.34-1.39-6.43-1.4-2.82-.97-5.72.6-8.49.79-1.39,1.29-2.95,1.9-4.39-1.49-1.35-1.15-2.08.47-3.13,1.12-.72,2.01-2.06,2.61-3.3,1.16-2.39,2-4.87,3.96-6.88,2.39-2.45,4.25-5.42,6.65-7.86,7.22-7.35,15.92-12.17,25.99-14.41,1.63-.36,1.88-1.66,2.55-2.72.03-.05-.52-.65-.84-.68-.62-.06-1.26.18-1.88.15-1.3-.06-2.32-1.13-2.36-2.35-.04-1.17,1.1-2.52,2.24-2.68,3.14-.43,6.28-.83,9.41-1.33.46-.07.81-.7,1.29-.89.4-.17,1.11-.29,1.34-.07,1.33,1.31,3.09.74,4.56.95,24.63,3.59,41.56,16.88,50.14,40.2,7.17,19.5.7,39.47-16.08,51.85-.21.16-.52.27-.62.48-1.38,3.02-4.29,4.07-6.93,5.5-1.06.57-2.06,1.27-3.17,1.96,0,.57.04,1.26-.02,1.94-.02.24-.32.45-.49.67-.22-.24-.61-.47-.63-.72-.05-.83.05-1.67.11-3.06-1.83.63-3.37,1.13-4.87,1.74-.24.1-.35.71-.37,1.09-.05.9.05,1.81-.04,2.7-.05.5-.37.97-.56,1.45-.24-.51-.63-1-.68-1.53-.11-1.1-.05-2.22-.03-3.33.01-.85-.25-1.31-1.22-1.11-1.03.22-2.07.36-2.83.49-.41.7-.69,1.19-.97,1.68-.35-.45-.69-.91-1.16-1.52-4.17,0-8.55-.02-12.92.03-.55,0-1.08.56-1.65.63-.54.07-1.15-.07-1.67-.28-.45-.18-.77-.77-1.22-.87-2.98-.7-5.96-1.46-8.99-1.91-2.16-.32-3.97-1.65-6.31-1.79-.07.55-.1,1.18-.26,1.77-.08.3-.4.54-.61.81-.26-.27-.62-.49-.77-.81-.15-.31-.11-.72-.14-1.09-.19-2.05-.62-2.38-2.7-2.12-.13.02-.28-.12-.42-.18l-.06-.02ZM94.27,148.6c.3.13.81.43.88.35.85-.93,1.38-.55,2.09.24.69.78,1.56.37,1.76-.71,2.63.67,4.94-.15,6.82-1.3.69.2,1.11.37,1.55.43.34.04.97-.18,1-.09.69,1.66,2.02.62,2.66.35,7.7-3.36,14.76-7.74,20.79-13.65,4.82-4.73,7.86-10.48,9.34-17.05,1.12-5,1.16-10.02.03-15.02-.43-1.93-1.15-3.81-1.58-5.74-2.01-9.1-5.94-17.06-13.46-22.9-.68-.53-1.66-.71-2.29-1.28-1.03-.94-1.88-2.07-2.81-3.11-.1-.12-.24-.21-.38-.29-1.58-.94-3.19-1.8-4.74-2.81-3.94-2.55-8.35-4.26-12.97-5.27-2.63-.58-5.3-1-7.6-1.42.03,1.41.03,2.58.1,3.76.05.73-.61,1.68.62,2.12.2.07.39.86.29.94-.94.77-.14,1.07.31,1.56.33.36.5.86.78,1.39-.55.23-.92.39-1.37.59.19.25.47.44.48.64.04,1,.28,2.12-.09,2.97-.25.57-1.65,1.23-2.07,1-.75-.41-1.17-1.45-1.7-2.25-.35-.53-.66-1.09-1.12-1.87-.03.03.25-.27.5-.55-.72-1.01-1.37-1.92-2.19-3.05-.29.69-.37,1.14-.63,1.41-.24.24-.86.51-.99.39-.58-.51-1.53-1.22-1.47-1.75.22-1.71-.78-1.22-1.59-1.1-7.16,1.08-13.82,3.51-19.89,7.47-10.21,6.68-17.28,15.72-20.25,27.65-1.13,4.56-1.28,9.13-.22,13.91.64,2.88,1.59,5.28,3.38,7.43,3.04,3.66,6.18,7.24,9.26,10.87.47.56.96,1.16,1.2,1.83.48,1.36,1.07,2.57,2.39,3.29,2.27,1.22,4.54,2.45,6.82,3.66,2.13,1.12,4.23,2.34,6.44,3.29,1.99.85,4.09,1.45,6.17,2.06,1.56.45,3.16.83,4.77,1.05,1.78.25,3.6.26,5.4.43.62.06,1.24.25,1.82.48.68.27,1.36.83,1.76-.33ZM100.2,149.41s.06-.06.09-.09c-.03-.03-.06-.06-.1-.09l-.09.14s.06.03.09.04Z"/><path class="cls-3" d="M113.1,160.09c.57.9,1.14,1.4,1.09,1.82-.05.45-.7.82-1.09,1.22-.38-.41-1.02-.79-1.07-1.23-.05-.43.51-.92,1.07-1.81Z"/><polygon class="cls-1" points="68.59 148.18 68.52 148.25 68.53 148.16 68.59 148.18"/><path class="cls-1" d="M124.23,115.88c-.77,1.08.16,2,.32,2.99.18,1.15.85,2.27.82,3.39-.02.93-.76,1.84-1.18,2.76-.17.39-.34.77-.52,1.18-1.54-.61-3.13-1.23-4.74-1.87-.08.32-.08.77-.21.81-2.54.76-3.54,3.39-5.68,4.64-.23.14-.17.85-.17,1.29,0,.83.26,1.92-.95,1.95-.49.01-1.01-.83-1.68-1.44-.26.13-.95.35-1.44.79-.43.39-.74.99-.93,1.55-.3.9-.42,1.86-.7,2.77-.02.08-.92.06-.96-.06-.28-.9-.44-1.83-.66-2.83-4.01,1.48-8.37,2.51-12.89,2.45-2.74-.04-5.47-.42-8.21-.59-.68-.04-1.36.19-2.05.2-.35,0-.74-.15-1.04-.34-.28-.18-.42-.63-.7-.73-1.57-.56-3.2-.97-4.74-1.61-1.13-.47-2.16-1.19-3.21-1.82-.77-.46-1.52-.96-2.24-1.41-.44.32-.85.61-1.26.91-.24-.49-.48-.98-.71-1.48-.23-.51-.3-1.17-.67-1.52-3.86-3.61-6.4-7.97-7.66-13.08-1.41.43-2.77.84-3.98,1.21-.44-.6-.71-1.35-1.2-1.55-1.02-.43-1.28-1.22-1.47-2.12-.29-1.33.84-1.3,1.59-1.64,2-.91,3.95-1.95,6.01-2.72,2.47-.92,3.96.24,4.5,2.82.52,2.51,1.37,4.95,2.2,7.38.24.71.62,1.57,1.84,1.2.35-.11.92.54,1.39.84-.29.41-.58.83-.92,1.32,3.93,4.63,9.23,7.1,15.18,8.19,8.13,1.49,15.98.59,22.99-4.09,2.23-1.49,4.03-3.65,5.91-5.62.34-.36.38-1.43.1-1.87-1.29-2.01-1.35-3.65.04-4.81,1.33-1.11,3.16-.81,4.74.78,1.08-.26,2.05-1.6,3.23-.66.52.41.58,1.4.94,2.35.09.02.53.09.96.17l.02-.06Z"/><path class="cls-4" d="M71.81,100.55c-.15-.39-.33-1.09-.68-1.7-.3-.52-.78-.93-1.31-1.53,0-.37.05-1.09,0-1.81-.21-2.38.08-4.65,1.51-6.64.54-.76.99-1.43.41-2.43-.18-.31.03-1.21.3-1.35.48-.25,1.34-.36,1.71-.08.76.58,1.35.4,2.12.17,1.76-.53,3.19.12,3.81,1.63.64,1.54,0,3.04-1.65,3.92-2.23,1.19-2.58,2.66-1.71,5.1.42,1.19.37,2.68.07,3.92-.11.44-1.57.62-2.44.79-.61.12-1.26.02-2.12.02Z"/><path class="cls-4" d="M109.01,89.17c1.28.2,2.41.37,3.42.53.23.39.45.74.65,1.1.87,1.59.39,3.28-1.2,4.2-2.65,1.52-3.02,2.63-1.79,5.4.63,1.41.27,2.6-.79,3.59-1.01.96-2.26,1.05-3.35.29-1.33-.93-2.23-2.22-2.46-3.92-.6-4.5.95-7.96,4.89-10.3.17-.1.32-.26.44-.42.09-.11.11-.27.19-.47Z"/><path class="cls-7" d="M140.25,104.04c-.47.38-.95,1.07-1.41,1.06-.48-.01-1.22-.63-1.36-1.12-1.25-4.37-2.67-8.65-5-12.6-3.52-5.97-8.32-10.76-13.7-15.03-.33-.26-.74-.47-.97-.81-.31-.45-.48-1-.7-1.51.6,0,1.34-.23,1.77.04,4.82,3.07,8.89,6.98,12.41,11.45,3.53,4.48,6.22,9.42,7.91,14.89.34,1.1.64,2.21,1.04,3.62Z"/><path class="cls-6" d="M140.01,115.65c-.29,1.28-.53,2.85-1.04,4.34-.17.5-1,.77-1.53,1.14-.2-.58-.61-1.19-.55-1.74.25-2.09.61-4.16,1.02-6.22.1-.52.56-.97.86-1.45.31.48.74.92.9,1.44.21.7.2,1.46.33,2.49Z"/><path class="cls-3" d="M82.04,70.31c1.67-1.37,2.29-1.47,3.83,2.19-1.98-.02-3.42-.83-3.83-2.19Z"/><path class="cls-3" d="M87.96,71.53c.36,1.04.65,2.06-.45,3.08-1.71-.9-.7-2.62-1.4-4.07.83.13,1.32.2,1.81.27.01.24.03.48.04.72Z"/><path class="cls-2" d="M87.07,69.9c-.61-.26-1.27-.43-1.79-.8-.3-.22-.43-.75-.52-1.17-.04-.16.3-.58.38-.56.37.09.8.22,1.04.49.46.53.81,1.17,1.2,1.76-.1.09-.2.19-.3.28Z"/><path class="cls-5" d="M87.96,71.53c-.01-.24-.03-.48-.04-.72.07-.59.14-1.19.24-2,.62.41.99.66,1.71,1.14-.75.62-1.33,1.1-1.91,1.59Z"/><path class="cls-1" d="M124.21,115.94s-.03-.06-.04-.08c.02,0,.04.02.06.03,0,0-.02.06-.02.06Z"/></svg>