<?xml version="1.0" encoding="UTF-8"?><svg id="Layer_1" xmlns="http://www.w3.org/2000/svg" viewBox="0 0 187.04 189.27"><defs><style>.cls-1{fill:#302c2e;}.cls-1,.cls-2,.cls-3,.cls-4{stroke-width:0px;}.cls-2{fill:#2d292b;}.cls-3{fill:#282425;}.cls-4{fill:#2a2728;}</style></defs><path class="cls-3" d="M103.05,134.65c0,.47.09.98-.05,1.41-.16.48-.53.88-.81,1.32-.26-.41-.71-.81-.75-1.25-.1-1.23-.04-2.48-.04-3.57-.61-.22-1.21-.31-1.66-.61-1.02-.68-1.88-1.66-2.98-2.17-4.07-1.89-7.53-4.82-9.62-8.79-1.05-1.99-2.45-2.35-3.77-.76-3.28,3.94-7.21,6.8-12.33,7.86-.46.09-.84.54-1.04.68-.88-.13-1.58-.31-2.27-.34-2.91-.14-5.79-.86-8.25-2.4-5.03-3.15-6.39-7.28-6.34-12.24.04-4,2-6.72,4.55-9.36.64-.66.88-1.69,1.39-2.71-1.72-1.29-3.48-2.56-5.17-3.92-.33-.26-.29-1.13-.6-1.24-1.62-.57-1.75-2.12-2.38-3.34-.74-1.42-1.62-2.78-2.19-4.27-.36-.93-.16-2.06-.34-3.08-1.13-6.35,1.53-12.99,6.32-15.86,2.38-1.42,4.87-1.53,7.5-1.02.92.18,1.88.16,2.92.23.59,2.08,3.22,1.97,4.52,3.55.12-.08.24-.15.35-.23-.16-.5-.33-.99-.47-1.5-.18-.6-.62-1.3-.45-1.79.64-1.88,1.45-3.71,2.25-5.53.3-.67.8-1.24,1.13-1.89,3.64-7.34,11.53-12.07,19.65-11.33,2.25.21,4.4,1.57,6.6,2.38.37.14.79.16,1.18.23,0,0,.04-.17.06-.27-.01.04-.04.1-.03.13.02.04.08.06.11.1.48.63,2.2.59,1.1,2.1-.09.12.39.68.63,1.03,1.93,2.76,2.96,5.81,3.02,9.18.01.51.03,1.02.04,1.53-.09,1.23-.17,2.47-.29,4.14.84-.59,1.21-.85,1.58-1.11,3.78-1.89,7.56-3.82,11.9-4.01,1.4-.06,2.81.12,4.21.29,1.09.13,2.39.09,3.21.68,3.84,2.76,7.04,6.13,8.6,10.73,2.53,7.48.71,13.94-4.83,19.41-3.45,3.41-7.67,5.56-12.25,7.05-.5.16-1,.32-1.5.5-.09.03-.15.14-.38.36.92,1.39,1.86,2.82,2.79,4.25.07.54.14,1.07.21,1.61,1.08,2.4.96,4.98.94,7.49-.06,5.14-2.51,9.11-6.79,11.8-1.65,1.04-3.69,1.45-5.77,2.23.14,2.44.3,5.17.43,7.89.04.79.09,1.59-.03,2.36-.06.37-.49.68-.76,1.02-.3-.36-.83-.71-.87-1.09-.14-1.63-.11-3.27-.17-4.9-.04-1-.13-2-.19-3,.63-1.3-.9-1.52-1.24-2.49-.2.92-.38,1.73-.56,2.54ZM66.99,105.95c-.07-.19-.14-.39-.21-.58-.16.25-.27.65-.48.71-2.06.57-3.66,1.82-5.35,3.09-2,1.5-2.48,3.71-3.01,5.68-.66,2.45,3.04,7.09,5.61,8.16,5.51,2.29,10.47.88,15.1-2.26,1.71-1.16,3.39-2.6,3.14-5.12-.03-.27.4-.69.72-.88,1.15-.68,1.83-1.52,1.75-2.98-.09-1.67.91-2.75,2.34-2.85,1.38-.09,2.56.94,2.58,2.62.08,7.14,7.7,14.69,15.27,15.6,2.24.27,4.23-.51,6-1.75.8-.56,1.32-1.51,1.97-2.29.35-.42.8-.78,1.04-1.25,1.34-2.59,1.8-5.21,1.39-8.24-.34-2.52-2.03-4.23-2.66-6.49-.03-.09-.39-.05-.53-.16-1.73-1.34-3.77-1.18-5.78-1.25-1.37-.05-2.32-.97-2.22-2.17.11-1.29.88-1.99,2.2-2.02.51-.01,1.02,0,1.63,0-.41-.44-.82-.73-.99-1.12-.22-.52-.5-1.3-.27-1.65.23-.34,1.11-.48,1.61-.35.72.2,1.48.61,2.01,1.14,1.33,1.34,2.76,1.51,4.44.81.92-.39,1.93-.56,2.87-.92,3.66-1.41,7.06-3.22,9.84-6.08,7.32-7.51,3.72-16.81-1.35-21.04-.45-.38-1.16-.45-1.98-.75-.12-.12-.41-.65-.83-.78-2.19-.68-4.39-.78-6.65-.18-4.48,1.19-8.28,3.68-12.14,6.11-.87.55-1.77,1.08-2.73,1.4-1.29.43-3.39-.94-2.94-2.02.72-1.72-.03-3.28.2-4.9.47-3.33.15-6.65-1.47-9.62-.88-1.6-2.13-3.38-3.67-4.11-1.49-.71-3.68-.57-5.38-.11-5.34,1.44-8.81,5.19-11.28,9.99-.42.82-.98,1.53-.27,2.58.27.4.11,1.57-.26,1.85-1.34.99-.95,2.31-1,3.64-.03.92.01,1.83.07,2.75.07,1.26-.1,2.65-1.33,3-1.22.35-2.65.18-3.95-.03-.79-.12-1.32-.76-.97-1.81.12-.35-.21-1.06-.56-1.32-2.04-1.57-4.02-3.3-6.29-4.47-1.32-.68-3.19-.77-4.69-.47-1.2.24-2.42,1.27-3.26,2.26-2.43,2.86-3.27,6.3-2.59,9.95.39,2.1,1.23,4.13,1.99,6.15.72,1.9,2.72,2.82,3.56,4.82.62,1.47,2.42,2.68,3.97,3.46,2.23,1.11,4.68,1.87,7.1,2.48,1.19.3,2.28.72,2.04,1.85-.19.89-1.29,1.63-2.1,2.3-.19.16-.84-.23-1.28-.37Z"/><path class="cls-4" d="M67.02,133.55c-.77,2.55-3.03,2.3-5,2.51-3.93.41-7.77-.44-10.94-2.54-5.21-3.46-7.46-7.9-4.22-14.68.09-.19.16-.4.23-.6.16.08.32.16.47.24,0,.46.08.93-.01,1.37-.55,2.46.06,4.71,1.16,6.89.73,1.44,2,2.13,3.5,2.54.49.13,1.24.32,1.35.65.64,1.98,2.43,1.91,3.86,2.07,1.9.21,3.87.06,5.79-.13,1.66-.17,3.05-.05,3.81,1.7Z"/><path class="cls-1" d="M131.43,65.95c-.73.27-1.15.43-1.56.58v-1.53c-2.12-.6-4.43-1.22-6.71-1.93-.49-.16-.88-.67-1.31-1.02.49-.28.99-.79,1.48-.79,4.78-.02,8.62,2.21,12.03,5.3,1.89,1.71,3.35,3.76,4.28,6.18.79,2.09,1.25,5.53.78,7.86-.07.36-.47.66-.72.99-.15-.35-.39-.68-.42-1.04-.08-.94.02-1.91-.12-2.84-.1-.68-.45-1.31-.78-2.2-.02-.37.1-1.05-.11-1.61-1.35-3.55-3.74-6.2-6.82-7.95Z"/><path class="cls-2" d="M53.8,138.42c-3.43.1-7.22-2.24-8.14-4.85-.18-.5.04-1.14.08-1.71.5.25,1.15.37,1.47.76,1.5,1.86,3.44,2.88,5.76,3.28.46.08,1.01.14,1.32.42.28.26.5.9.37,1.22-.17.44-.71.74-.87.89Z"/><path class="cls-1" d="M132.55,61.81c2.26-1.08,3.64.29,4.99,1.41,2.12,1.76,3.38,4.03,3.28,6.96-1.09-1.63-1.97-3.46-3.31-4.83-1.36-1.38-3.18-2.31-4.96-3.55Z"/><path class="cls-1" d="M104.81,66.91c-.01-.51-.03-1.02-.04-1.53.22.21.44.42.67.63.15-.28.29-.57.44-.85-.17,0-.34.01-.5.02.2.34.36.71.61,1.02.32.4.71.75,1.07,1.12l-.96.41-1.28-.82Z"/><path class="cls-4" d="M90.86,90.78c1.41-.58,2.29-.08,2.87,1.28.9,2.1,1.1,4.11-.24,6.12-.29.43-.3,1.04-.41,1.47-.63.24-1.26.54-1.93.72-1.12.3-2.26.52-3.39.78-.79.18-1.62.27-2.36.57-1.01.42-2.55.12-2.64-.9-.13-1.48-1.12-2.31-1.79-3.38-2.11-3.34-.08-8.35,4.28-8.79,1.57-.16,3.26-.6,4.61.67.33.31.36.93.53,1.4-.62-.02-1.24-.09-1.85-.04-1.24.11-2.58.02-3.67.49-2.05.88-2.27,3.6-.52,5,.24.19.87.23,1.1.06,1.57-1.22,3.17-.19,5.05-.26,0-.78-.05-1.68.01-2.57.06-.88.22-1.75.34-2.62Z"/></svg>