<?xml version="1.0" encoding="UTF-8"?><svg id="Layer_1" xmlns="http://www.w3.org/2000/svg" viewBox="0 0 187.04 179.28"><defs><style>.cls-1{fill:#fdfdfd;}.cls-1,.cls-2,.cls-3,.cls-4,.cls-5,.cls-6,.cls-7{stroke-width:0px;}.cls-2{fill:#090b0b;}.cls-3{fill:#302c2e;}.cls-4{fill:#171818;}.cls-5{fill:#1b1c1c;}.cls-6{fill:#111212;}.cls-7{fill:#b1b1b1;}</style></defs><path class="cls-2" d="M35.43,83.26c4.62-7.35,12.01-10.12,19.66-11.99.47-3.6.54-7.2,1.46-10.58,1.69-6.28,3.47-12.6,5.97-18.59,2.25-5.39,5.35-10.42,11.43-12.68,6.94-2.58,12.8-.39,15.98,6.27,3.19,6.68,3.97,13.74,3.18,21.03-.04.36-.07.72-.13,1.26,7.17-1.1,13.34.72,18.3,5.86,2.12-2.98,4.24-5.93,6.32-8.89.95-1.35,1.58-3.07,2.81-4.04,4.39-3.45,8.18-7.98,14.31-8.57,3.38-.32,6.23.88,8.75,3.02,3.7,3.14,5.41,7.21,5.64,11.98.32,6.7-1.96,12.77-4.61,18.72-3.52,7.91-8.37,15.06-13.21,22.2-.47.7-.92,1.42-1.38,2.13.46.4.94.78,1.39,1.19.38.36.86.69,1.07,1.14.39.81.38,1.96.96,2.5,1.07.98.49,1.99.45,2.99-.03.59-.25,1.17-.38,1.76.05.21.09.42.14.63.04.9.08,1.8.12,2.69l.02.12.29,1-.09,1.15c-.31.67-.62,1.34-.94,2.01h0c-.23.12-.66.28-.65.37.21,1.48.02,2.69-1.09,3.92-.84.93-.82,2.65-1.68,3.53-.97,1-1.25,1.79-.72,2.97v.09c-.68.91-1.3,1.86-2,2.73-.47.58-1.05,1.06-1.54,1.62-.83.95-1.64,1.92-2.45,2.88-1.64,1.8-3.21,3.67-4.91,5.4-1.19,1.2-2.51,2.27-3.89,3.25-1.9,1.35-3.84,2.7-5.91,3.79-9.4,5.01-19.23,7.97-30.03,5.96-2.06-.38-4.09-.76-5.65-2.52-.6-.68-2-.69-3.05-.93-6.02-1.38-11.67-3.67-17.05-6.7-.89-.5-1.98-.65-3.14-1.01-.07.97,0,1.87-.25,2.68-.14.48-.75.82-1.15,1.22-.35-.38-.69-.77-1.05-1.13-.44-.44-.89-.86-1.41-1.34h1.21v-2.16c-.8.25-1.46.46-2.38.75-.17-.7-.38-1.54-.51-2.08-.88.16-2,.71-2.49.37-.59-.41-.68-1.58-.94-2.43-.49-1.65-1.32-3.22-.84-5.09.09-.36-.98-.94-1.39-1.51-1.92-2.64-3.79-5.31-5.68-7.97-.44-.95-.9-1.89-1.31-2.85-.26-.61-.62-1.25-.65-1.88-.08-1.68-.48-3.14-1.95-4.14l-.17-.68c.54-.9.93-1.79,0-2.76-.2-.21-.24-.65-.21-.97.1-1.09.33-2.17.4-3.26.15-2.25-.6-4.55.61-6.74.32-.58.17-1.42.24-2.15.06-.3.13-.61.19-.91l.57-1.92c-.55-1.41.19-2.44.88-3.59.74-1.22,1.2-2.62,1.77-3.93l2.21-4.28c.08-.02.12-.07.12-.16.15-.24.3-.48.46-.73ZM85.51,97.92c.72.97,1.39,1.89,2.86,1.87.53,0,1.09.74,1.6,1.18.21.18.28.63.48.68,1.44.36,2.91.66,4.36.97,3.73-.56,6.27-2.88,8.39-5.75,3.95-5.35,6.51-11.35,8.08-17.79.16-.65.3-1.4.15-2.03-.57-2.46-1.22-4.9-1.9-7.33-.26-.93-1.1-1.93-.9-2.71.33-1.35-.13-2.13-1.01-2.88-4.31-3.67-9.36-4.77-14.9-4.35-.1.41-.18.71-.25,1.01-1.37,5.98-3.16,11.78-7,17.03-.84,1.15-.92,2.57-.83,3.99.04.66-1.35,2.1.31,2.83.07.03.07.53,0,.56-1.31.59-.91,1.83-1.1,2.84-.68,3.51-.29,6.82,1.68,9.88ZM45.6,129.49c.85,1.67,1.99.47,2.78.31.39.43.62.87.96.98.24.08.63-.26.83-.36.09.28.11.92.44,1.22,1.54,1.38,1.84,2.43.79,4-.79,1.17-.5,1.93.63,2.57,1.51.87,2.98,1.82,4.53,2.62,10.95,5.62,22.48,7.87,34.73,5.95,5.13-.81,9.87-2.71,14.29-5.33,3.12-1.85,6.18-3.88,8.94-6.22,5.8-4.9,10.33-10.76,12.2-18.31,1.04-4.2.95-8.38-.58-12.48-.78-2.09-1.7-3.84.07-6.28,3.38-4.65,6.17-9.73,9.11-14.69,3.93-6.66,7.29-13.57,8.87-21.22.96-4.65.89-9.17-1.78-13.31-2.2-3.41-5.45-4.65-9.33-3.51-3.69,1.08-6.71,3.27-9.42,5.93-.66.64-1.36,1.24-1.98,1.92-1.76,1.93-4.17,3.53-4.29,6.43-.11,2.55-1.78,4-3.18,5.87.21.12.51.28.88.5-.36.45-.63.8-.81,1.03.2.41.42.71.5,1.04.37,1.57.45,3.26,1.09,4.7,1.07,2.39.58,4.78.28,7.11-.41,3.24-1.15,6.45-1.91,9.63-1.8,7.51-6.13,13.26-12.61,17.35-.88.55-2.17.53-3.29.59-.83.05-1.7-.36-2.53-.28-6.81.7-12.17-2.25-14.99-8.47-.8-1.78-1.27-3.71-1.83-5.38-1.96,1.08-4.01,2.21-5.9,3.25,1.45,1.19,3.08,2.36,4.5,3.76,1.53,1.5,2.87,3.2,4.27,4.84.13.16.08.49.09.73.03.56-.04,1.14.07,1.69.54,2.84,2.39,5.53.49,8.6-.58.95-1.01.86-1.46.33-.83-.99-1.49-2.13-2.36-3.42-1.56-.09-2.22.81-1.26,2.74h-4.11c.46-.7.66-1.02.94-1.44-.47-.04-.77-.07-1.07-.1l.03.03c.51-1.35-1.46-2.82.52-4.15.51-.04,1.45-.39,2.13-.1.93.39,1.51.03,1.87-.53.32-.49.52-1.39.27-1.84-.62-1.12-1.19-2.2-1.7-3.4-1.17-2.77-3.4-4.84-6.22-6.05-1.44-.62-3.04-1.3-4.18.07-.73-.44-1.33-.76-1.88-1.16-.37-.27-.89-.65-.91-1-.03-.61.3-.95,1.15-1.04,3.1-.32,6.26-.42,9.1-1.99,3.58-1.97,4.71-5.52,2.8-9.15-2.71-5.16-7.24-7.96-12.67-9.54-.32-.09-.67-.07-.82-.08.2,1.62-.95,1.22-1.63,1.4-.19-.57-.34-1.02-.48-1.47-.26.12-.61.18-.78.38-.49.57-.91,1.2-1.55,2.06-.26-.74-.38-1.02-.46-1.32-.35-1.35-1.08-1.93-2.53-1.44-.9.3-1.9.33-2.79.66-3.65,1.35-7.49,2.5-9.06,6.68-.03.09-.15.14-.27.25h-1.29c.21.26.35.43.28.35-.59.69-1.05,1.17-1.44,1.69-.3.4-.54.86-.79,1.31-.53.96-1.13,1.89-1.57,2.89-.55,1.27-.78,2.71-1.49,3.86-.78,1.26-1.09,2.46-1.05,3.92.05,1.54.03,3.15-.39,4.61-.87,2.98-1.79,5.86.15,8.76.24.35.16.96.24,1.29.22.91.33,1.83.28,2.77-.38,6.92,1.96,12.66,6.63,17.35.43.44,1.39.6,2.03.49.38-.07.62-.92.93-1.42l-.06-.02ZM86.16,69.48c.41-.92.83-1.51.93-2.14.83-5.42,1.64-10.84,2.36-16.28.54-4.09.7-8.2-.11-12.29-1.31-6.64-7.77-10.21-14.01-7.59-3.65,1.53-6.43,4.01-7.92,7.66-.79,1.96-1.51,3.95-2.1,5.98-2.17,7.51-3.01,15.24-3.6,23.01-.05.69.21,1.4.33,2.11.24.13.47.26.71.38-.54.17-1.07.35-1.61.52,8.33,1.94,15.75,4.49,19.95,12.63,1.87-4.19,3.57-8.42,5.18-12.69.19-.5-.09-1.17-.11-1.31ZM98.13,107.07s-.1.08-.09.1c.01.07.06.14.09.21.03-.03.1-.07.09-.1-.01-.07-.05-.14-.09-.21Z"/><path class="cls-6" d="M56.34,49.78c-.21-1.29-.41-2.51-.61-3.73-.42-2.55.74-4.82,1.42-7.13,1.36-4.68,3.91-8.71,7.37-12.15.39-.39.55-1.02.81-1.52,1.03-.19,2.25-.42,3.55-.66-.24.15-.55.35-.55.35.91,1.48-.29,2.04-1.17,2.77-5.59,4.63-8.89,10.5-9.6,17.77-.13,1.35-.39,2.69-.61,4.04,0,.05-.18.08-.62.26Z"/><path class="cls-6" d="M153.04,63.82c.06-.48.15-.95.18-1.43.1-1.79.21-3.59.23-5.38,0-.33-.35-.67-.53-1,.09-.66.46-1.54.26-2.25-.69-2.44-1.62-4.82-2.35-7.25-.16-.52.11-1.17.18-1.76.61.22,1.52.26,1.77.69,2.61,4.44,3.54,9.18,2.2,14.25-.38,1.45-.85,2.88-1.27,4.32-.22-.06-.44-.12-.67-.18Z"/><path class="cls-4" d="M160.92,54.59c-.35,1.56-.61,2.84-.96,4.1-.06.23-.5.36-.77.53-.09-.27-.31-.57-.25-.8.61-2.61.42-5.11-.83-7.52-.14-.27.2-.8.33-1.2.41.19,1.09.29,1.2.6.53,1.46.91,2.98,1.29,4.3Z"/><path class="cls-6" d="M53.11,33.52c.04-1.81.89-3.27,2.08-4.51.28-.29.99-.16,1.51-.22.04.47.26,1.03.08,1.39-.78,1.61-1.67,3.17-2.56,4.72-.12.21-.43.4-.68.43-.12.02-.38-.33-.41-.54-.07-.41-.02-.84-.02-1.26Z"/><path class="cls-7" d="M35.43,83.26c-.15.24-.3.48-.46.73.15-.24.3-.48.46-.73Z"/><path class="cls-1" d="M128.79,128.34c-.06.1-.11.21-.17.31.06-.1.11-.21.17-.31Z"/><path class="cls-2" d="M132.75,103.86s-.08-.08-.08-.12c0-.04.07-.07.1-.1.03.04.08.08.08.12,0,.04-.07.07-.1.1Z"/><path class="cls-5" d="M77.48,116.71c.89,1.14,2.06.71,3.19.61.07,0,.18.35.27.53-.23.29-.47.57-.7.86-.76.72-1.51,1.43-2.28,2.17-1.17-1.39-.99-2.76-.47-4.16h0Z"/><path class="cls-3" d="M80.23,118.71c.23-.29.47-.57.7-.86.15.2.28.42.45.61.34.38.7.75,1.06,1.12-.54.28-1.08.57-1.72.91-.21-.75-.35-1.26-.49-1.78Z"/><path class="cls-2" d="M73.2,114.36c-.04.07-.07.13-.11.2.05-.05.09-.11.14-.16,0,0-.03-.03-.03-.03Z"/><path class="cls-5" d="M77.48,116.71c-.08.05-.17.11.04-.02-.22.11-.13.07-.05.02,0,0,0,0,0,0Z"/><path class="cls-2" d="M45.67,129.51s-.06.03-.08.05c0-.02.02-.04.02-.07,0,0,.06.02.06.02Z"/><path class="cls-2" d="M86.48,68.32c-.06.04-.11.08-.17.12-.01-.08-.04-.17-.03-.25,0-.03.06-.07.1-.1.04.08.07.15.11.23Z"/><path class="cls-7" d="M94.18,101.36s.04-.07.06-.1c-.02.03-.05.06-.07.09,0,0,.01.01.01.01Z"/></svg>