<?xml version="1.0" encoding="UTF-8"?><svg id="Layer_1" xmlns="http://www.w3.org/2000/svg" viewBox="0 0 187.04 170.6"><defs><style>.cls-1{fill:#080808;stroke-width:0px;}</style></defs><path class="cls-1" d="M71.71,109.81c-.05,1.99-.42,2.25-1.64,1.53-.08-.99-.15-1.76-.22-2.54-.55.12-1.1.24-1.86.41-.11-.24-.32-.67-.59-1.23-.4.3-.78.59-1.16.88-.64-.9-1.08-2.01-1.9-2.53-.81-.52-1.99-.44-3.41-.7-.41-.71-8.83-3.43-11.04-3.13-.33-2.09.3-2.75,2.29-2.38.21.04.41.11.62.13,1.18.1,2.36.19,3.73.3,0-.05.03.33.07.77,7.19,1.86,14.37,3.71,21.79,5.62-.14-.72-.21-1.12-.29-1.53.09-.04.18-.08.27-.11.07.28.14.56.22.83.09.32.2.64.34,1.09.5-.29.88-.51.97-.56.85.46,1.43.97,2.09,1.09,2.88.53,5.78.91,8.67,1.42,2.38.42,4.72,1.01,7.11,1.4,3.26.54,6.54,1,9.82,1.4,1.29.16,2.62.13,3.92.07,1.78-.07,3.36-1.46,3.86-3.17.6-2.07,1.7-4.1,1.76-6.18.1-3.13-.38-6.29-.83-9.41-1.59-11.13-4.67-21.92-7.52-32.76-.36-1.38-1.01-2.63-2.59-3.15-1.33-.43-1.09-1.49-.71-2.5.63-1.7,1.3-3.4.02-5.2-.27.3-.55.58-.8.88-5.09,5.97-9.99,12.11-15.3,17.87-4.71,5.1-9.24,10.44-14.84,14.64-2.53,1.89-5.09,3.74-7.61,6.04,11.71,2.57,23.43,5.14,35.38,7.76-.47-2.52-.86-4.96-1.38-7.37-.91-4.19-1.87-8.36-2.86-12.53-.2-.85-.2-1.94-1.54-2.05-.18-.01-.36-.56-.45-.89-.21-.75-.35-1.51-.52-2.26-.21,0-.43,0-.64,0,.49-1.26.84-2.62,1.53-3.75.36-.58,1.42-1.17,2.03-1.05.67.13,1.3.99,1.75,1.66.36.55.53,1.28.59,1.95.11,1.19.93,1.68,1.87,1.86.85.16,1.57.39,1.3,1.3-.1.33-1.08.39-1.66.57-.1.03-.19.07-.15.06,1.21,5.33,2.48,10.62,3.58,15.95.62,2.99,1,6.03,1.4,9.06.31,2.39-1.03,3.46-3.37,2.83-2.7-.73-5.41-1.45-8.27-2.21v2.86q-1.22.07-1.37-3.07c-.66-.15-1.36-.32-1.76-.41-.76.56-1.3.97-1.84,1.37-.34-.59-.67-1.18-1.16-2.05-4.69-.96-9.72-1.93-14.72-3.04-4.44-.98-8.84-2.11-13.26-3.2-1.24-.3-2.29-.84-2.48-2.31-.16-1.28.64-1.91,1.53-2.62,1.95-1.56,3.75-3.32,5.7-4.88,1.28-1.03,2.79-1.78,4.06-2.82.99-.81,1.77-1.87,2.64-2.82.14-.15.25-.35.42-.46,3.85-2.55,6.4-6.55,10.21-9.19,1.41-.98,1.9-3.35,3.33-4.23,3.45-2.13,5.56-5.43,8.18-8.28,1.18-1.28,1.83-3.03,2.92-4.42,1.33-1.7,2.84-3.26,4.31-4.84.6-.65,1.38-1.15,1.94-1.83.71-.87,1.54-1.78,2.63-1.27.83.39,1.71,1.31,1.98,2.18,1.67,5.4,3.32,10.82,4.71,16.3,4.08,16.16,7.67,32.43,10.41,48.87.43,2.6.75,5.22,1.02,7.85.23,2.18-.86,3.5-3.11,3.88,0,1.71-.01,3.43,0,5.16,0,.81-.11,1.66-1.1,1.49-.39-.07-.86-.93-.93-1.48-.18-1.45-.17-2.93-.25-4.76-2.17,1.76-2.83-.12-3.89-1.19-.5-.51-1.14-1.06-1.81-1.22-3.11-.75-6.29-1.26-9.39-2.06-5.66-1.47-11.27-3.12-16.93-4.62-3.21-.85-6.46-1.52-9.9-2.32,0,2.19,0,4.24,0,6.28,0,.48.08.98-.05,1.42-.1.38-.44.69-.68,1.02-.17-.34-.47-.69-.48-1.03-.04-2.59-.02-5.18-.02-8.01-1.45-.24-2.88-.48-4.32-.72-.12-.05-.24-.09-.36-.14,0,.14,0,.28,0,.42ZM121.19,115.27c-.6-3.31-1.17-6.39-1.73-9.48-.1,0-.21.01-.31.02-.51,2.52-1.01,5.04-1.54,7.66.51.25,1.73.04,1.97,1.47.3.06.82.17,1.61.33Z"/></svg>