<?xml version="1.0" encoding="UTF-8"?><svg id="Layer_1" xmlns="http://www.w3.org/2000/svg" viewBox="0 0 188.52 202.79"><defs><style>.cls-1{fill:#090b0b;}.cls-1,.cls-2,.cls-3,.cls-4,.cls-5{stroke-width:0px;}.cls-2{fill:#1b1c1c;}.cls-3{fill:#090909;}.cls-4{fill:#d0d0d0;}.cls-5{fill:#0e0e0e;}</style></defs><path class="cls-3" d="M45.25,107.47c-.64-.44-1.47-.77-1.87-1.37-.3-.46-.06-1.27-.06-2.31-2.95-5.15-6.82-10.37-8.24-16.93.22-.05.47-.1.9-.19-.25-.48-.53-.91-.7-1.37-.23-.62-.69-1.43-.47-1.87.22-.44,1.27-.85,1.76-.69,2.9.97,5.81,1.98,8.6,3.22,8.04,3.57,15.19,8.56,21.77,14.35,2.69,2.37,5.23,4.91,7.86,7.35.24.23.65.28.93.39-1.01-6-2.15-11.8-2.95-17.65-1.74-12.7-2.55-25.49-2.71-38.31-.03-2.23.15-4.47.17-6.7.01-1.3-.11-2.61-.17-4.01.45-.2,1.08-.5,1.74-.75,1.78-.67,2.57.84,3.31,1.82,3.76,5.04,7.54,10.08,11.02,15.31,8.23,12.37,16.31,24.86,24.44,37.29.22.34.45.69.73,1.13.74-3.3,1.32-6.49,2.18-9.61,3.33-12.09,9.88-22.37,18-31.75.78-.9,1.73-1.36,2.76-.48.89.77.6,1.62.19,2.69-1.58,4.14-2.94,8.36-4.39,12.54-1.57,4.51-.77,9.23-1.24,13.84-.48,4.67.59,9.23.99,13.83.23,2.57.33,5.17.89,7.67.86,3.87,1.92,7.7,3.16,11.46.59,1.79,1.91,3.33,2.7,5.07.65,1.42.96,2.98,1.49,4.46.28.78.39,1.81,1.71,1.58.17-.03.45.6.56.76.8.29,1.69.37,2.16.86.42.43.65,1.45.42,1.96-.19.43-1.17.56-1.82.71-.63.15-1.74-.77-1.87.94.73-.07,1.27-.24,1.75-.15.47.1,1.07.37,1.26.75.19.37.14,1.14-.13,1.43-.74.78-1.65,1.4-2.57,2.15.2.53.42,1.11.7,1.85,1.56-.41,3.08-.78,4.58-1.21,1.18-.33,2.17-.16,2.59,1.09.4,1.2-.33,1.85-1.4,2.28-.35.14-.6.51-.7.6-.56-.03-1.01-.17-1.4-.06-13.14,3.67-26.28,7.32-39.39,11.09-3.32.95-6.52,2.34-9.81,3.42-1.83.6-3.76.93-5.59,1.52-.68.22-1.17,1.02-1.84,1.24-1.44.47-2.95.74-4.43,1.1-.1.02-.25.05-.29.12-1.79,3.33-5.51,1.38-7.96,2.92-.54.34-1.15.55-1.63.78.03.24,0,.03-.03-.3-1.63.95-3.19,1.88-4.77,2.79-.81.47-1.82.37-2.58,1.1-.32.3-1.31.4-1.61.14-.92-.79-1.29-.26-1.89.38-.47.5-1.17.79-1.79,1.14-.55.31-1.12.58-1.56.81-.44-1.01-.91-2.08-1.47-3.34.84-.3,1.62-.58,2.84-1.01.09-1.24.27-2.74.28-4.23,0-.49-.48-.96-.69-1.47-.43-1.02-1.24-2.1-1.15-3.08.63-7.03-1.12-13.76-2.51-20.52-.63-3.07-1.88-6.01-2.83-9.01-1.02-3.21-1.97-6.44-3.07-9.62-.63-1.81-1.49-3.53-2.3-5.28-.77-1.67-1.6-3.31-2.4-4.97-.05.09-.1.19-.14.28ZM132.65,138.68c-.34.02-.69.03-1.03.05-.71-.01-1.46-.2-2.11-.01-5.97,1.73-11.92,3.52-17.87,5.3-4.59,1.41-9.2,2.78-13.78,4.23-11.53,3.67-23.05,7.38-34.57,11.06-1.1.35-2.16.66-1.03,2.12.11.14-.02.74-.17.8-1.51.59-.7,1.43-.35,2.49,1.19-1.15,2.77-1.03,3.9-2.09.49-.46,1.63-.15,2.39-.41,1.99-.68,3.94-1.49,5.92-2.23,3.41-1.27,6.85-2.49,10.25-3.81,3.77-1.46,7.51-3.01,11.27-4.49.32-.13.74-.02,1.12-.02-.04-.29-.07-.57-.1-.77h1.9c0-.09,0-.17.01-.26-.22-.1-.45-.2-.7-.32.46-.29.89-.56,1.28-.81.06.5.12.96.19,1.49,2.3-1.37,4.37-2.61,6.45-3.85.32.26.67.55,1.08.89.07-.41.11-.68.16-1.05.43.41.75.71.81.76.85-.36,1.49-.6,2.09-.91.39-.19.72-.49,1.08-.73.78-.23,1.56-.47,2.34-.68,1.33-.35,2.72-1.09,3.97-.9,1.34.2,1.32-.33,1.47-1.08.44-.08.74-.39,1.11-.5.66-.2,1.51-.6,2.01-.36,1.4.68,1.97.56,2.4-.87,1.76-.36,3.47-.72,5.17-1.07.1-.02.28-.07.28-.11.07-1.43,1.12-.54,1.71-.73.62.15,1.25.3,1.85.44.05-.45.08-.79.12-1.13.78-.09,1.56-.19,2.35-.28.05-.12.11-.24.16-.36-.81-.28-1.62-.56-2.45-.84-.29.46-.48.77-.67,1.08ZM41.22,87.12c-.12-.03-.25-.06-.37-.09.06.09.13.18.19.27.13.22.22.47.38.67,4.76,5.87,8.6,12.31,11.62,19.21,6.49,14.82,10.11,30.26,9.67,46.53,0,.29.04.58.07,1.02,23.24-7.19,46.2-14.82,69.83-20.46-.39-.51-.78-.87-.99-1.32-.23-.5-.29-1.07-.52-2.02-.91.65-1.54,1.18-2.26,1.58-.45.25-1.08.5-1.52.37-.33-.09-.57-.75-.73-1.2-.33-.94-.59-1.9-.87-2.85,1.04-.28,1.25-1.09.47-3.63.55.17,1.33.49,1.37.41.8-1.47,2.03-.32,3.21-.45-6.28-18.71-9.94-37.5-4.2-56.97-.28,0-.37-.02-.38,0-.45.69-.91,1.38-1.34,2.08-6.01,9.68-9.31,20.22-9.97,31.59-.02.36-.1.83.08,1.08,2.01,2.79,2.29,6.06,2.75,9.3.18,1.3.49,2.63,1.05,3.8.49,1.01,1.1,1.96,1.35,3.07.12.52.28,1.03.41,1.54-.2.1-.4.2-.59.31-.46-.79-.95-1.55-1.36-2.36-1.32-2.58-2.56-5.2-3.92-7.75-1.16-2.17-2.48-4.26-3.66-6.42-.62-1.15-.97-2.45-1.63-3.58-10.47-18.06-22.17-35.29-34.56-52.08-.17-.23-.35-.45-.53-.67-.38,1.58-.39,3.07-.37,4.56.15,14.94,1.03,29.83,2.83,44.66.61,5.02,1.05,10.11,3,14.89.48,1.18-.23,1.96-1.28,2.33-.73.26-1.55.36-2.33.43-1.1.1-1.8-.52-1.78-1.56.04-1.41.26-2.79-1.14-3.76-.21-.14-.15-.61-.32-.88-.4-.66-.74-1.44-1.31-1.92-4.54-3.71-9.01-7.53-13.74-10.99-5.09-3.72-10.64-6.7-16.64-8.77Z"/><path class="cls-3" d="M91.15,157.83s.07.07.1.1c-.04.03-.07.08-.11.08-.03,0-.07-.06-.1-.09.04-.03.07-.06.11-.09Z"/><path class="cls-4" d="M115.97,144.25s-.07-.07-.1-.11c-.03.04-.07.07-.1.11l.15.11s.03-.07.05-.11Z"/><path class="cls-1" d="M70.96,141.83c2.43-.87,4.71-1.55,6.86-2.51,1.13-.51,2.34-.57,3.46-1.07,1.29-.58,2.66-1.02,4.02-1.41,1.21-.35,2.23.01,2.72,1.26.44,1.12-.19,2.23-1.51,2.7-5.47,1.93-10.93,3.85-16.41,5.75-1.56.54-3.04-.63-2.57-2.06,1.32-3.98.33-7.75-.86-11.53-.16-.5-.02-1.1-.01-1.65.51.3,1.3.49,1.48.92.91,2.22,1.72,4.49,2.45,6.77.27.83.24,1.77.36,2.84Z"/><path class="cls-5" d="M105.6,136.24c-.08.37-.17.74-.25,1.11-.29-.05-.45-.03-.48-.09-.99-1.62-2.29-1.56-3.96-1.04-2.41.74-4.91,1.15-7.39,1.65-.47.09-1-.07-1.5-.11.14-.75.08-1.63.47-2.21.4-.6,1.18-1.15,1.89-1.32,3-.72,6.04-1.32,9.07-1.89,1.42-.27,2.25.33,2.12,1.9,0,.67,0,1.34.01,2Z"/><path class="cls-2" d="M105.6,136.24c0-.67,0-1.34-.01-2,.76-.17,1.51-.41,2.27-.49.27-.03.75.26.81.49.07.24-.18.73-.42.85-.85.44-1.76.78-2.64,1.15Z"/><path class="cls-3" d="M125.67,125.26s.03-.07.05-.11c.05.03.11.07.16.1-.03.04-.07.07-.1.11-.03-.04-.07-.07-.11-.11Z"/><path class="cls-3" d="M115.97,144.25s-.03.07-.05.11l-.15-.11s.07-.07.1-.11c.03.04.07.07.1.11Z"/></svg>