<?xml version="1.0" encoding="UTF-8"?><svg id="Layer_1" xmlns="http://www.w3.org/2000/svg" viewBox="0 0 188.52 188.18"><defs><style>.cls-1{fill:#0e1010;}.cls-1,.cls-2,.cls-3,.cls-4{stroke-width:0px;}.cls-2{fill:#2d292b;}.cls-3{fill:#171818;}.cls-4{fill:#1b1c1c;}</style></defs><path class="cls-1" d="M36.3,85.77c13.39,3.63,27.02,4.16,40.77,3.12,10.9-.82,21.69-2.27,31.9-6.4,3.25-1.31,6.22-3.33,9.32-5.05.72-.4.97-.9.75-1.82-.27-1.16-.2-2.4-.29-3.75-1.34,0-1.71-.83-1.88-2.27-.19-1.61-.95-3.15-1.46-4.72-.18.02-.36.05-.54.07-.07.31-.06.67-.22.92-.2.32-.56.81-.81.78-.38-.04-.92-.38-1.04-.72-.38-1.04-.79-2.13-.82-3.21-.07-2.47-1.16-4.31-2.95-5.88-.74-.65-1.41-1.42-1.95-2.24-.69-1.03-.24-1.45.94-1.5,3.8-.15,7.6-.31,11.4-.59,13.89-1.01,26.98-5,39.59-10.76,1.15-.53,2.27-1.14,3.44-1.62,1.98-.82,3.47.24,3.53,2.35.45,15.25-2.8,29.81-8.09,44.01-.29.78-.33,1.65-.6,2.44-.46,1.34-1.03,2.64-1.54,3.96-.19.49-.42.96-.55,1.47-.58,2.32-1.08,4.64-3.37,6.03-.31.19-.44.93-.39,1.39.29,3.05.65,6.09.99,9.13.08.74.18,1.47.21,2.21.06,1.49-.9,2.53-2.24,2.47-1.24-.05-2.09-1.08-1.98-2.55.12-1.58.37-3.15.53-4.73.23-2.26.48-4.51.64-6.78.11-1.56,0-1.63-1.06-2.16-.66-4.4-3.49-7.53-5.39-11.52-.69,1.73-1.21,3.13-1.79,4.5-5.44,12.85-14.16,23.13-25.06,31.62-19.34,15.06-41.35,22.76-65.84,23.26-7.06.14-14.05-.61-20.88-2.54-.83-.23-1.95-.16-2.44-.69-.72-.78-1.38-1.96-1.41-2.98-.35-16.45-.59-32.91-.88-49.37,0-.56-.29-1.11-.49-1.79,1.16-.44.63-1.85.59-2.94-.08-2.24.94-4.45,3.57-4.12.23.03.53-.04.7-.18,1.5-1.25,2.17-1.22,3.57.21.24,2.08,1.61,2.82,3.5,2.91ZM109.25,119.12c-.06,0-.11.04-.14.09-.65.38-1.3.76-1.95,1.14-3.78,1.97-7.52,4.04-11.35,5.89-3.31,1.6-6.71,3.04-10.14,4.36-2.04.79-4.22,1.2-6.32,1.82-.93.27-1.85.51-2.24-.66-.39-1.16.43-1.57,1.38-1.87,2.95-.92,5.9-1.83,8.84-2.81,12.07-4.02,23.19-9.76,32.71-18.35.42-.38,1.18-.39,1.79-.57,5.47-6.6,10.18-13.95,13.54-22.18.22.26.39.46.58.69.33-.87.64-1.68,1-2.6.23.36.39.61.62.97.65-2.3,1.62-4.3,3.96-5.69.78.66,1.82,1.25,2.47,2.13,1.98,2.72,3.81,5.54,5.69,8.34.3.44.56.92.87,1.44,7.07-14.52,10.52-29.71,11.55-45.48-5.13,1.96-10.21,3.9-15.3,5.84-4.87,1.85-9.91,3.11-15.04,3.89-5.4.82-10.84,1.33-16.34,1.99.17.14.32.27.48.38,1.96,1.39,4.15,2.55,5.84,4.22,2.8,2.76,5.65,5.66,5.09,10.07-.43.16-.82.18-.95.37-.91,1.33-1.59,2.87-2.69,4.01-1.34,1.38-1.89,2.86-1.76,4.7.04.58.13,1.19,0,1.74-.12.52-.49.99-.75,1.48-.24-.52-.63-1.02-.7-1.56-.12-.94-.03-1.9-.03-2.88-2.36,1.45-4.42,2.85-6.6,4.02-5.83,3.1-12.11,4.96-18.52,6.42-.75.17-1.43.64-2.26,1.03-.43-.06-1.15-.35-1.81-.24-8.31,1.42-16.66,2.35-25.08,2.54-.47.01-.93.25-1.43.4-.58-.12-1.25-.34-1.93-.37-2.64-.12-5.31.02-7.93-.31-5.97-.76-11.92-1.76-17.87-2.64-.5-.07-1.01,0-1.52,0,1.9,1.14,2.56,2.03,2.05,3.29-.98,2.39-2.33.49-3.65.12,0,2.32.07,4.49-.02,6.66-.1,2.61-.32,5.23-.49,7.84-.14,2.13-.41,4.26-.4,6.39.02,3.05.3,6.09.35,9.14.07,3.96.02,7.92.02,11.92.14.03.5.1,1.27.26-2.7,1.28-.86,3.34-1.71,4.98,1.94.21,3.59.38,5.48.58-.31-.6-.49-.95-.68-1.32,1.5,0,2.96.2,4.34-.06,1.4-.26,3.32.86,4.08-1.64.3.63.47.97.63,1.31l.06.45c4.92-.55,9.84-1.16,14.78-1.63,9.15-.88,17.99-3.02,26.44-6.66,4.06-1.75,8.1-3.57,11.99-5.67,2.9-1.56,5.52-3.63,8.27-5.47,3.82-2.51,10.62-8.53,10.72-9.57-1.8,1.45-3.54,2.87-5.3,4.27-1.31,1.04-2.64,2.05-3.96,3.08ZM120.2,109.68c.1.19.2.38.3.57.42-.3.83-.6,1.25-.9-.1-.15-.2-.3-.3-.45l-1.24.78Z"/><path class="cls-2" d="M36.3,85.77c-1.89-.1-3.26-.83-3.5-2.91.41,0,.92.14,1.22-.05,1.27-.78,2.2.32,3.27.53.24.05.57.63.53.93-.04.39-.35.8-.65,1.1-.21.21-.58.27-.87.4Z"/><path class="cls-3" d="M120.2,109.68l1.24-.78c.1.15.2.3.3.45-.42.3-.83.6-1.25.9-.1-.19-.2-.38-.3-.57Z"/><path class="cls-3" d="M53.15,100.1c-5.79-.56-11.58-1.11-17.37-1.67-.87-.08-1.59-.36-1.48-1.44.1-.96.78-.96,1.58-1.11,1.73-.32,3.19.67,4.84.72,1.73.06,3.44.5,5.17.67,2.08.2,4.18.27,6.27.44,2.61.21,5.23.45,7.84.72.27.03.5.38.76.59-.3.23-.6.64-.91.65-2.22.06-4.44.03-6.67.03,0,.13-.02.27-.03.4Z"/><path class="cls-4" d="M140.03,56.49v-1.42c.1-.02.21-.05.31-.07.22.35.43.7.69,1.11,1.96-.71,3.93-1.44,5.92-2.12.33-.11.75.04,1.13.07-.19.32-.3.8-.57.92-5.71,2.6-11.54,4.81-17.92,5.05-.21,0-.47.08-.63-.01-.43-.27-.81-.6-1.21-.91.38-.33.73-.89,1.16-.95,1.41-.2,2.86-.12,4.26-.34,2.28-.36,4.53-.87,6.86-1.33Z"/><path class="cls-3" d="M59.93,134.46c.2.12.42.38.6.35,3.16-.52,6.31-1.06,9.46-1.65.39-.07.72-.44,1.1-.69-.02.1-.17.34-.1.47.97,1.96.99,2.19-1.14,2.69-3,.71-6.07,1.14-9.11,1.71-.66.12-1.3.33-2.32.59.57-1.33,1.03-2.39,1.49-3.46l.02-.02Z"/><path class="cls-4" d="M44.01,138.8c-.65-1.13-1.92-.56-3-.64-.81-.06-1.75.04-1.78-1.06-.04-1.24.98-1.16,1.83-1.14,3.35.06,6.7.09,10.04.23.49.02.95.57,1.42.87-.48.29-.94.8-1.43.84-1.94.16-3.89.15-5.84.27-.37.02-.72.36-1.24.63Z"/><path class="cls-4" d="M155.84,64.87c-.44-.46-.71-.76-.99-1.05.33-.14.65-.28,1.25-.54.14-1.27.28-2.88.5-4.47.06-.41.38-.79.59-1.18.18.38.51.76.53,1.14.15,3.7-.73,7.22-1.9,10.69-.49,1.45-.92,2.92-1.51,4.33-.2.47-.78.79-1.18,1.17-.07-.54-.34-1.13-.19-1.6.94-2.91,1.97-5.79,2.91-8.5Z"/><path class="cls-4" d="M104.56,90.25c.64.06,1.05.23,1.35.11,1.88-.68,3.72-1.47,5.6-2.12.48-.17,1.09.05,1.65.1-.33.4-.59.94-1.01,1.18-1.82,1.02-3.66,2.01-5.55,2.89-.35.16-1.17-.06-1.38-.36-.4-.58-.51-1.35-.66-1.79Z"/><path class="cls-3" d="M59.91,134.48c0-.07,0-.15,0-.22-.03.03-.09.07-.08.09.02.04.06.07.1.11,0,0-.02.02-.02.02Z"/><polygon class="cls-1" points="64.39 95.15 64.37 95.03 64.46 95.05 64.39 95.15"/><path class="cls-3" d="M37.36,94.93s-.06-.07-.08-.11c.04-.03.08-.08.11-.07.03,0,.06.07.08.1-.04.03-.08.05-.11.08Z"/></svg>