<?xml version="1.0" encoding="UTF-8"?><svg id="Layer_1" xmlns="http://www.w3.org/2000/svg" viewBox="0 0 188.52 179.59"><defs><style>.cls-1{fill:#8f8d8e;}.cls-1,.cls-2,.cls-3,.cls-4,.cls-5{stroke-width:0px;}.cls-2{fill:#302c2e;}.cls-3{fill:#2d292b;}.cls-4{fill:#272325;}.cls-5{fill:#262224;}</style></defs><path class="cls-5" d="M102.82,89.41c-1.67,1.45-1.62,2.03-3.88.28-.26-.21-.64-.27-.96-.4,0,0-.02,0-.02,0l.52-2.02c.12-.51.24-1.02.36-1.53-.19-.06-.39-.12-.58-.18-.22.57-.43,1.14-.65,1.71-1.06.91-1.31,2.62-2.95,2.97-.24.06-.47.13-.71.19,0,0-.02-.02-.02-.02-.42-.97-.84-1.94-1.37-3.14h-1.63c-.21-.04-.43-.08-.64-.11-2.66-.3-4.45-1.89-5.91-3.97-.27-.87-.53-1.73-.8-2.6.08-.22.15-.44.23-.66.01-.3.02-.6.03-.89-.16-2.16,1.58-4.08.79-6.32,1.18-.27.31-.66.06-1.02.16-.06.31-.13.47-.19.04,0,.08,0,.12,0-.04.01-.08.02-.12.03-.02-.16-.03-.32-.05-.48.98-1.81,1.95-3.61,2.93-5.42.02-.2-.02-.45.08-.61,1.4-2.24,1.43-2.26-.38-4.11-4.76-4.86-10.54-7.76-17.3-8.45-7.8-.79-14.98,1.04-20.97,6.23-6.78,5.88-9.11,13.63-8.57,22.37.13,2.03.57,4.05.97,6.05.46,2.26,1.33,4.44,2.12,6.63.21.59.77,1.04,1.38,1.82-.58,1.75,1.14,3.06,2.03,4.58,3.33,5.67,7.85,10.34,12.78,14.63,9.11,7.94,19.6,13.58,30.76,18.05.92.37,2,.57,2.71,1.19.73.64,1.2,1.65,1.58,2.59.25.62-.09,1.23.58,2,.85.97-.76.97-1.32,1.25-.81.41-1.72.61-2.6.87-.31.09-.71.22-.98.11-1.07-.43-2.09-.99-3.15-1.43-.51-.21-1.09-1-1.66.1-.08.15-1.25-.26-2.06-.45.22.59.38,1.01.72,1.91-1.35-.79-2.36-1.45-3.42-1.99-.89-.46-1.81-.9-2.76-1.15-.81-.21-1.43-.36-1.2-1.39,0-.04-.45-.18-.69-.27-.07.06-.13.13-.19.2-.23-1.1-1.18-1.32-2.01-1.78-1.1-.61-2.02-1.53-3.12-2.12-.95-.51-2.15-.58-3.07-1.13-1.41-.83-2.68-1.89-4.01-2.86-.33-.24-.61-.61-.97-.72-4.14-1.19-7.09-3.98-9.9-7.07-1.17-1.29-2.82-2.12-4.09-3.33-1.68-1.62-3.47-3.23-4.71-5.17-1.61-2.52-2.7-5.37-4.08-8.04-.33-.63-.93-1.13-1.49-1.79.18-1.77-.98-3.32-1.83-4.94-1.53-2.94-3.02-5.77-3.16-9.28-.19-4.75-.98-9.49-.17-14.24.36-2.1.78-4.23,1.5-6.23.83-2.31,2.03-4.48,3.02-6.74.25-.57.31-1.22.5-1.82.07-.23.19-.49.37-.65.87-.77,1.86-1.43,2.65-2.28,4.56-4.92,10.17-8.1,16.6-9.76,13.82-3.59,25.96-.38,36.5,9.33,1.31-.99,2.64-2.11,4.07-3.07,10.5-7.01,27.86-7.93,38.42.93,7.25,6.08,10.7,14.08,11.15,23.36.47,9.77-2.69,18.63-7.45,27.01-.71,1.24-1.24,2.58-1.86,3.88.13.12-.05-.05-.32-.28-1.06,1.58-2.02,3.27-3.23,4.76-1.35,1.65-2.9,3.13-4.42,4.64-2.73,2.71-5.45,5.42-8.26,8.04-1.18,1.1-2.55,2-3.86,2.96-3.83,2.81-7.59,5.75-11.55,8.37-2.76,1.83-5.79,3.27-8.76,4.78-.46.23-1.22-.12-1.84-.2.24-.55.33-1.28.74-1.62,1.08-.91,2.34-1.61,3.44-2.5.47-.38.72-1.03,1.07-1.55.32-.14.66-.44.96-.4,1.41.17,1.66-.8,1.9-1.81,2.39-.63,4.66-1.42,5.67-4.01.09-.22.42-.55.55-.51,2.32.62,2.7-2.1,4.58-2.64,1.69-.49,2.85-2.68,4.32-4.04,1.5-1.4,3.1-2.7,4.64-4.06.46-.41.87-.89,1.3-1.33.6-.61,1.21-1.22,1.82-1.83.18-1.08,1.11-1.47,1.77-2.16,1.63-1.7,2.98-3.69,4.33-5.63,1.14-1.64,2.18-3.37,3.17-5.11.28-.49.21-1.18.32-1.84.21-.15.83-.35.99-.73,1.16-2.89,2.42-5.76,3.22-8.76.31-1.19.65-2.49.66-3.85.02-1.88.81-3.74.87-5.63.26-8.26-2.2-15.56-8.27-21.37-3.9-3.73-8.62-5.61-14.02-5.88-5.15-.26-10.14.41-14.7,2.85-2.22,1.19-4.11,2.97-6.14,4.5-.8.6-.82,1.26-.38,2.19,2.45,5.14,3,10.54,1.82,16.1-.31,1.48-.96,2.88-1.54,4.58.58.4,1.37.95,2.27,1.58-.46.36-.74.59-.78.62.47,1,.9,1.91,1.33,2.82-.06.19-.12.38-.18.57Z"/><path class="cls-4" d="M131.29,89.82c.02.37.04.74.07,1.2,2.44.77,3.16,1.98,2.17,4.69-1.1,3.02-2.45,5.95-3.7,8.91-.4.94-.82,1.86-1.22,2.8,0,0,.02-.02.02-.02-.38.33-.87.58-1.13.99-2.64,4.02-5.82,7.58-9.43,10.74-1.35,1.18-2.76,2.3-4.25,3.3-1.23.83-2.61.79-3.88-.06-1.12-.75-1.29-1.89-1.11-3.09.05-.36.34-.71.56-1.03.11-.17.32-.28.48-.41.29-.22.57-.5.9-.65,2.03-.94,2.25-3.54,4.67-4.49,1.96-.77,3.35-3.17,4.8-5,3.25-4.1,5.51-8.73,7.16-13.68.33-.99,1.03-1.85,1.57-2.77v-2.18c.78.02,1.57.03,2.35.05,0,.24,0,.48-.01.72Z"/><path class="cls-4" d="M121.65,58.44c4.74.68,8.93,2.63,11.74,6.92,1.06,1.62.76,3.24-.7,4.32-1.44,1.06-3.54.94-4.53-.55-1.83-2.74-4.33-4.2-7.51-4.77-1.68-.3-2.61-1.67-2.43-3.2.17-1.43,1.69-2.7,3.43-2.72Z"/><path class="cls-3" d="M142.74,110.06c.12-.1.58-.33.75-.69.84-1.76,1.64-3.54,2.39-5.34.38-.91.89-1.47,1.92-1.08.96.36.93,1.07.65,1.95-1.62,5.19-4.5,9.64-7.97,13.75-4.37,5.18-9.72,9.12-15.7,12.23-.33.17-.66.4-1.01.45-.25.03-.66-.14-.76-.34-.1-.2,0-.65.17-.82.34-.32.79-.51,1.2-.76,6.97-4.25,12.84-9.65,17.07-16.7.44-.74.76-1.55,1.29-2.65Z"/><path class="cls-4" d="M65.77,60.1c-.31.34-.59.64-.7.75.09.71.15,1.23.22,1.76-.61-.01-1.2,1.11-1.87.05-.03-.04-.62.21-.91.4-.54.35-1.04.76-1.65,1.22-.13-.12-.31-.26-.46-.44-.16-.2-.29-.42-.64-.95-.84.73-1.55,1.48-2.38,2.01-.93.59-1.96,1.34-2.98,1.39-2.57.13-3.86-2.32-2.47-4.49.75-1.17,1.59-2.38,2.95-2.91,2.04-.8,4.09-1.69,6.22-2.08,2.55-.48,3.12.06,4.18,2.49.12.28.31.52.49.82Z"/><path class="cls-3" d="M30.49,60.8c-1.87-.52-1.89-1.6-1.38-3.01,1.55-4.29,3.94-7.91,7.65-10.66,1.87-1.39,3.96-1.93,6.18-2.1.37-.03.78.47,1.17.73-.3.31-.56.83-.91.89-4.6.9-7.28,4.05-9.37,7.89-.76,1.39-1.36,2.87-2.09,4.27-.37.72-.87,1.38-1.26,1.98Z"/><path class="cls-2" d="M134.48,130.83c-.14-.07-.42-.13-.46-.26-.06-.21,0-.49.11-.68.09-.17.32-.26.5-.38,6.13-3.88,10.29-9.49,13.73-15.72.23-.41.39-.94.74-1.19.32-.23.94-.35,1.26-.18.26.14.47.88.33,1.15-3.72,7.06-8.67,13-15.71,17.01-.14.08-.28.14-.51.24Z"/><path class="cls-2" d="M27.81,50.73c-.23-.58-.7-1.17-.59-1.62.41-1.73,5.07-5.08,6.92-5.05.3,0,.75.24.86.49.11.25,0,.86-.19.96-2.33,1.16-4.24,2.81-5.94,4.75-.15.17-.46.21-1.06.47Z"/><path class="cls-2" d="M87.82,88.98c.51.17,1.03.33,1.54.5.1.1.2.2.3.3.51.16,1.03.33,1.54.49.22.18.44.36.66.53.24.31.48.62.85,1.1-2.03.23-3.33-.72-4.58-1.8-.1-.38-.21-.76-.31-1.13Z"/><path class="cls-2" d="M84.9,86.92c.65.48,1.3.96,1.95,1.44.05.35.11.71.16,1.06-.93-.66-2.89-.35-2.31-2.44l.12.02.08-.08Z"/><path class="cls-2" d="M131.29,89.82c0-.24,0-.48.01-.72.79,0,1.58-.06,2.35.03.32.04.6.39.9.61-.26.26-.48.59-.78.76-.34.19-.77.23-1.33.38.28-1.24-.21-1.47-1.15-1.06Z"/><path class="cls-2" d="M93.93,90.4s.02.02.02.02c.25.18.5.35.75.53.15.62.31,1.23.48,1.96-1.97-.16-2.25-.91-1.25-2.5Z"/><path class="cls-5" d="M76.67,136.15c.06.1.13.19.19.29-.13-.03-.25-.06-.38-.09.06-.07.12-.13.19-.2Z"/><path class="cls-4" d="M128.6,107.42c.09-.04.19-.08.28-.12-.03.03-.06.08-.1.09-.05.02-.1,0-.16,0,0,0-.02.02-.02.02Z"/><path class="cls-1" d="M84.63,72.7c.02-.34.04-.68.06-1.02.24.36,1.12.75-.06,1.02Z"/><path class="cls-1" d="M85.16,71.49s0,.03,0,.03c.04-.01.08-.02.12-.03-.04,0-.08,0-.12,0Z"/></svg>