<?xml version="1.0" encoding="UTF-8"?><svg id="Layer_1" xmlns="http://www.w3.org/2000/svg" viewBox="0 0 188.52 170.6"><defs><style>.cls-1{fill:#302c2e;}.cls-1,.cls-2,.cls-3,.cls-4{stroke-width:0px;}.cls-2{fill:#272325;}.cls-3{fill:#2a2728;}.cls-4{fill:#d0d0d0;}</style></defs><path class="cls-2" d="M64.47,99.56c-.52-.36-1.28-.6-1.52-1.1-.56-1.14-1.26-2.43.05-3.59,1.08-.96,2.12-1.99,3.3-2.8.69-.47,1.62-.58,2.44-.85.21-.01.41-.02.62-.03.13.21.26.42.39.63.07.14.13.28.2.42,2.97.27,5.52,1.63,7.89,3.29,1.24.87,1.71,2.32,1.31,3.83-.41,1.57-1.09,3.08-1.48,4.66-.59,2.38.06,4.62,1.23,6.7.13.24.68.24.9.3,0,2.61,2.22,3.38,3.75,5.04,1.12-4.21,2.16-8.13,3.19-12.05,1.27-4.81,2.49-9.62,3.82-14.41.33-1.2.05-1.96-.85-2.74-4.97-4.3-8.13-9.86-10.52-15.84-1.58-3.96-1.63-8.16-.7-12.34.12-.54.02-1.12.02-1.65.09-.08.56-.34.73-.74,2.97-6.64,8.49-9.24,15.34-9.59,2.33-.12,4.67.14,7.07.23.41-1.43.67-3.16,1.42-4.64.69-1.38,1.91-2.49,2.8-3.61,1.23,1.18,2.25,2.16,3.36,3.22-.57,2.3-1.17,4.72-1.79,7.21.87.42,1.67.81,2.5,1.21.22-.29.41-.54.61-.79.18.12.34.21.34.23-.34.75.01,1.08.64,1.53,1.83,1.33,3.71,2.66,5.31,4.25,4,4,5.31,8.78,3.46,14.42,1.29.1,2.47.2,3.66.28,1.41.09,2.34.74,2.36,2.23.02,1.5-.89,2.15-2.3,2.29-.73.07-1.45.22-1.88.62-.41.73-.83,1.45-1.24,2.18l-1.34-1.35c-.92-.42-1.33.09-1.23,1.24.09,1,.13,2.03-.02,3.01-.11.73-.54,1.4-.83,2.1-.26-.67-.68-1.33-.75-2.03-.13-1.15-.03-2.32-.03-3.67-.84.3-1.59.53-2.3.84-1.75.76-3.25.82-5.14-.14-1.39-.71-2.02-1.52-1.65-2.65.4-1.23,1.36-2.31,2.24-3.33,1.07-1.23,2.39-2.25,3.44-3.5,1.86-2.2,2.01-4.22.6-6.74-1.76-3.15-4.67-4.93-7.93-6.64-2.76,10.47-5.47,20.78-8.07,30.69,3.93,3.77,7.87,7.17,11.36,10.99,3.85,4.21,5.34,9.19,3.78,14.99-.29,1.1-1.01,2.04-1.11,3.26-.06.69-1.21,1.25-1.78,1.95-3.03,3.72-6.73,6.4-11.43,7.59-.86.22-1.79.32-1.76,1.62,0,.34-.48.7-.74,1.05-.31-.35-.66-.68-.92-1.06-.13-.2-.1-.5-.15-.77-.79.1-1.52.2-2.49.33,0,.38.1.96-.04,1.49-.1.36-.52.64-.8.96-.26-.28-.68-.53-.75-.85-.15-.64-.11-1.32-.15-1.98-.81-.05-1.66-.22-2.45-.09-.44.07-1,.57-1.16,1-.45,1.18-.69,2.44-1.06,3.65-.55,1.8-2.07,2.72-3.76,2.3-1.54-.38-2.37-1.94-2.02-3.78.32-1.66.64-3.32.91-4.99.04-.24-.31-.78-.4-.76-1.04.21-1.05-.35-.74-1.29-1.54.78-1.98-.36-2.75-1.67,0,2.24.04,4-.02,5.76-.02.82.41,1.96-.87,2.14-.17.02-.74-1.41-.78-2.19-.15-2.42-.11-4.84-.18-7.27-.05-1.66-1.04-.55-1.74-.45-1.18-4.92-4.17-9.33-3.42-14.72-.5-.16-.9-.28-1.37-.43.16-.51.29-.94.43-1.37-.14-.08-.29-.16-.43-.24-.22.35-.54.67-.63,1.05-.2.81-.38,1.18-1.37.73-.62-.28-1.49-.02-2.24,0,.24-.24.45-.52.73-.7.51-.33,1.07-.59,1.61-.89-.7-.35-1.39-.71-2.1-1.05-.18-.08-.38-.1-.58-.15ZM92.52,81.38c.27-.8.54-1.47.72-2.17,2.07-7.92,4.13-15.84,6.2-23.75.69-2.66.62-2.8-2-3.24-4.22-.71-8.39-.52-11.82,2.27-1.37,1.12-2.24,3.02-2.93,4.73-.59,1.48-.18,3.07,1.39,4.14l-.67.05c-.06.87-.12,1.73-.17,2.45.35.44.67.83.99,1.22-.09.08-.19.17-.28.25-.28-.16-.56-.32-.84-.48.92,1.39,1.71,2.7,1.07,4.36.59-.21,1.01-.36,1.44-.51-.42,2.65,1.76,4.1,2.28,6.19.2.81,1.4,1.36,2.15,2.03.02-.03.04-.06.06-.09.77.81,1.53,1.62,2.42,2.55ZM88.97,119.05c2.28.17,4.32.23,6.33.49,4.2.54,6.32-1.99,8.26-5.15,1.34-2.19,1.71-4.52,1.98-6.95.21-1.83,0-3.57-.95-5.15-1.17-1.97-1.8-4.24-3.89-5.68-1.65-1.13-2.99-2.72-4.69-4.32-2.38,9.04-4.65,17.65-7.04,26.76Z"/><path class="cls-3" d="M72.32,49.03c.07.04.35.17.7.35,1.97-2.73,4.39-4.95,7.48-6.39,2.66-1.24,5.46-1.68,8.35-1.23.49.08.9.65,1.35,1-.51.22-1.03.66-1.53.63-3.97-.23-7.26,1.32-10,4-1.42,1.39-2.72,3.02-3.63,4.77-1.86,3.56-2.4,7.33-.59,11.16.53,1.12.38,2.16-.8,2.68-1.25.54-2.09-.1-2.64-1.28-1.71-3.66-1.46-7.34-.17-11.04.31-.9.85-1.72,1.16-2.62.21-.6.22-1.28.33-2.01Z"/><path class="cls-1" d="M119.02,85.04c-.7.51-1.13,1.07-1.58,1.08-.34,0-1.03-.76-.97-1.06.11-.55.67-1.01,1.03-1.51.41.4.82.81,1.51,1.48Z"/><path class="cls-1" d="M76.58,127.82c.46.74.94,1.16.89,1.51-.07.46-.56.86-.87,1.28-.31-.42-.79-.81-.87-1.27-.06-.35.41-.78.85-1.52Z"/><path class="cls-4" d="M69.94,92.24c-.07-.14-.13-.28-.2-.42.07.14.13.28.2.42Z"/></svg>